<?xml version="1.0" encoding="UTF-8" standalone="no"?>
<!-- Created with Inkscape (http://www.inkscape.org/) -->
<svg
   xmlns:svg="http://www.w3.org/2000/svg"
   xmlns="http://www.w3.org/2000/svg"
   version="1.0"
   width="437"
   height="94"
   id="svg2">
  <defs
     id="defs4" />
  <g
     transform="translate(-155.08285,-480.8286)"
     id="layer1">
    <g
       transform="translate(-126.05991,-75.421586)"
       id="g3207">
      <g
         transform="translate(0,173.57143)"
         id="g3185">
        <path
           d="M 373.92858,440.39789 A 44.82143,44.82143 0 1 1 284.28572,440.39789 A 44.82143,44.82143 0 1 1 373.92858,440.39789 z"
           transform="matrix(0.8523777,0,0,0.8523777,46.083568,52.869711)"
           id="path2396"
           style="opacity:1;fill:#000000;fill-opacity:0;stroke:#e11a22;stroke-width:13.43066597;stroke-linecap:round;stroke-miterlimit:4;stroke-dasharray:none;stroke-opacity:1" />
        <path
           d="M 373.92858,440.39789 C 373.92858,465.13932 353.84858,485.21932 329.10715,485.21932 C 304.36572,485.21932 284.28572,465.13932 284.28572,440.39789 C 284.28572,415.65646 304.36572,395.57646 329.10715,395.57646 C 353.84858,395.57646 373.92858,415.65646 373.92858,440.39789 z"
           transform="matrix(0.4860558,0,0,0.4860558,166.64272,214.1971)"
           id="path3168"
           style="fill:#e11a22;fill-opacity:1;stroke:none;stroke-width:6.19999981;stroke-linecap:round;stroke-miterlimit:4;stroke-opacity:1" />
      </g>
      <path
         d="M 382.5,559.85268 L 382.5,647.00893 C 382.5,647.00892 416.4375,647.00893 416.4375,647.00893 C 420.04471,647.00892 441.78125,645.1451 441.78125,604.13393 C 441.78125,562.19451 419.28872,559.85268 417.5,559.85268 C 417.5,559.85269 382.5,559.85268 382.5,559.85268 z M 406.15625,577.82143 C 406.15625,577.82143 412.78126,577.82143 412.78125,577.82143 C 413.11952,577.82143 417.37499,579.21538 417.375,604.04018 C 417.375,628.31554 413.24465,629.41517 412.5625,629.41518 C 412.5625,629.41518 406.15624,629.41517 406.15625,629.41518 L 406.15625,577.82143 z"
         id="path3175"
         style="fill:#e11a22;fill-opacity:1;fill-rule:evenodd;stroke:none;stroke-width:1px;stroke-linecap:butt;stroke-linejoin:miter;stroke-opacity:1" />
      <path
         d="M 472.21875,579.19643 C 458.90203,579.76419 444.96875,589.2604 444.96875,614.79018 C 444.96875,648.53401 467.23848,648.38393 477.5625,648.38393 C 485.38255,648.38393 497.75001,644.85267 497.75,644.85268 L 497.75,627.91518 C 497.75,627.91518 487.07087,630.94644 478.0625,630.94643 C 468.80674,630.94643 468.71875,621.85269 468.71875,621.85268 L 500.53125,621.85268 L 500.53125,603.94643 C 500.53125,603.94643 499.62122,579.19644 473.5,579.19643 C 473.0722,579.19643 472.64832,579.17812 472.21875,579.19643 z M 474.125,593.82143 C 480.292,593.82143 479.18751,608.72769 479.1875,608.72768 L 468.84375,608.72768 C 468.84375,608.72768 467.25702,593.82144 474.125,593.82143 z"
         id="path3191"
         style="fill:#e11a22;fill-opacity:1;fill-rule:evenodd;stroke:none;stroke-width:1px;stroke-linecap:butt;stroke-linejoin:miter;stroke-opacity:1" />
      <path
         d="M 505,628.43361 L 505,645.04075 C 505,645.04075 517.79138,648.25504 523.39286,648.25504 C 529.62214,648.25504 548.92857,647.83079 548.92857,627.18361 C 548.92857,601.58964 526.42857,609.56694 526.42857,599.86218 C 526.42857,594.48022 540.40127,597.59403 545.89286,599.32647 L 545.89286,582.36218 C 545.89286,582.36218 533.50618,579.68361 527.67857,579.68361 C 510.10131,579.68361 503.57143,591.5788 503.57143,601.29075 C 503.57143,621.82283 525.26786,618.99879 525.26786,628.25504 C 525.26786,633.71957 505,628.43361 505,628.43361 z"
         id="path3196"
         style="fill:#e11a22;fill-opacity:1;fill-rule:evenodd;stroke:none;stroke-width:1px;stroke-linecap:butt;stroke-linejoin:miter;stroke-opacity:1" />
      <path
         d="M 549.01791,581.20361 L 549.01791,596.60858 L 558.36182,596.60858 C 558.36182,596.60858 558.36182,633.22661 558.36182,633.22661 C 558.36182,639.50448 562.89979,647.64557 571.62007,647.64557 C 571.62007,647.64557 585.3834,647.64557 585.3834,647.64557 C 588.37478,647.64557 594.22224,646.35859 594.22224,646.35859 L 594.22224,630.19615 C 594.22224,630.19615 584.87832,630.19615 584.87832,630.19615 C 583.26717,630.19615 581.09025,628.0229 581.09025,626.40808 C 581.09025,626.40808 581.09025,595.85096 581.09025,595.85096 L 590.93924,595.85096 L 594.22224,580.95121 L 581.34279,580.95121 L 581.34279,560.49562 L 560.8872,566.05146 L 558.61436,581.20361 L 549.01791,581.20361 z"
         id="path3198"
         style="fill:#e11a22;fill-opacity:1;fill-rule:evenodd;stroke:none;stroke-width:1px;stroke-linecap:butt;stroke-linejoin:miter;stroke-opacity:1" />
      <path
         d="M 627.21875,579.44643 C 608.7948,579.44643 604.09375,583.97768 604.09375,583.97768 L 604.09375,599.85268 C 604.09377,599.85269 615.22366,597.00893 621.4375,597.00893 C 624.57181,597.00892 626.57323,598.11812 627.6875,599.85268 C 627.68748,599.85269 627.6875,603.79018 627.6875,603.79018 C 627.68748,603.79017 597.15625,599.84007 597.15625,626.47768 C 597.15623,644.4768 606.45917,648.60268 613.03125,648.60268 C 623.36353,648.60269 627.53125,642.54018 627.53125,642.54018 C 629.346,642.94611 631.25,647.19643 631.25,647.19643 L 650.53125,647.19643 C 650.53126,647.19643 650.53125,594.50893 650.53125,594.50893 C 646.49323,587.51484 645.73201,579.44643 627.21875,579.44643 z M 626.6875,615.47768 L 626.6875,632.63393 C 626.68752,632.63392 619.5625,635.80737 619.5625,624.41518 C 619.57918,619.71426 621.42879,615.02693 626.6875,615.47768 z"
         id="path3200"
         style="fill:#e11a22;fill-opacity:1;fill-rule:evenodd;stroke:none;stroke-width:1px;stroke-linecap:butt;stroke-linejoin:miter;stroke-opacity:1" />
      <path
         d="M 655.357,560.21933 L 678.75,560.21933 L 678.75,607.18361 L 688.39286,581.29075 L 714.28572,581.29075 L 701.25,608.43361 L 716.60714,646.6479 L 691.78572,646.6479 L 678.75,610.93361 L 679.28572,647.00504 L 655.357,647.00504 L 655.357,560.21933 z"
         id="path3205"
         style="fill:#e11a22;fill-opacity:1;fill-rule:evenodd;stroke:none;stroke-width:1px;stroke-linecap:butt;stroke-linejoin:miter;stroke-opacity:1" />
    </g>
  </g>
</svg>
