<svg xmlns="http://www.w3.org/2000/svg" viewBox="0 0 5644.445 1683.494" clip-path="url(#a)" fill-rule="evenodd" stroke-width="28.222" stroke-linejoin="round">
  <g>
    <g clip-path="url(#a)" transform="translate(-539.845 -6080.525) scale(.44726)">
      <path d="M4183 16705c493 432 1047 654 1605 654 911 0 1545-584 1545-1319 0-513-247-780-770-1016-281-126-457-171-457-317 0-91 75-156 201-156 201 0 437 126 724 377l503-881c-357-302-785-452-1298-452-911 0-1484 543-1484 1273 0 493 291 805 880 1051 242 101 378 136 378 252 0 80-85 141-237 141-317 0-654-187-946-549l-644 942z" fill="#005fa4"/>
      <path d="M2891 15229l116-614h61c327 0 478 75 478 261 0 242-181 353-559 353h-96zm0 0zm-1684 2043h1307l201-1102h514c1046 0 1615-508 1615-1329 0-779-528-1166-1590-1166H1870l-663 3597zM8549 16190l262-1434h25c408 0 655 236 655 608 0 504-337 826-927 826h-15zm0 0zm-1503 1082h1131c796 0 1389-106 1882-473 478-357 750-911 750-1515 0-644-307-1147-876-1429-271-130-684-180-1253-180h-971l-663 3597z" fill="#005fa4"/>
      <path d="M12061 15007l86-457h171c186 0 291 80 291 211 0 176-161 246-482 246h-66zm0 0zm-256 1389l100-548h201c252 0 372 71 372 247 0 236-180 301-583 301h-90zm0 0zm-1399 876h1786c1007 0 1560-453 1560-1112 0-387-256-669-694-735 503-56 769-327 769-770 0-634-513-980-1519-980h-1239l-663 3597z" fill="#005fa4"/>
    </g>
  </g>
</svg>
