<?xml version="1.0" encoding="UTF-8" standalone="no"?>
<!-- Created with Inkscape (http://www.inkscape.org/) -->

<svg
   xmlns:dc="http://purl.org/dc/elements/1.1/"
   xmlns:cc="http://creativecommons.org/ns#"
   xmlns:rdf="http://www.w3.org/1999/02/22-rdf-syntax-ns#"
   xmlns:svg="http://www.w3.org/2000/svg"
   xmlns="http://www.w3.org/2000/svg"
   version="1.1"
   width="892.91339"
   height="379.48819"
   id="svg9021">
  <defs
     id="defs9023">
    <clipPath
       id="clipPath8935">
      <path
         d="M 0,0 612,0 612,792 0,792 0,0 z"
         id="path8937" />
    </clipPath>
  </defs>
  <metadata
     id="metadata9026">
    <rdf:RDF>
      <cc:Work
         rdf:about="">
        <dc:format>image/svg+xml</dc:format>
        <dc:type
           rdf:resource="http://purl.org/dc/dcmitype/StillImage" />
        <dc:title></dc:title>
      </cc:Work>
    </rdf:RDF>
  </metadata>
  <g
     transform="translate(40.853675,-302.96304)"
     id="layer1">
    <g
       transform="matrix(9.5461232,0,0,-9.5461232,-4650.0477,1022.5141)"
       id="g8931">
      <g
         clip-path="url(#clipPath8935)"
         id="g8933">
        <g
           transform="translate(501.5803,41.0225)"
           id="g8939">
          <path
             d="m 0,0 c -0.818,-3.335 -11.606,-5.276 -11.606,0.794 l 0,14.159 c 0,2.812 0.895,3.061 3.329,3.202 l 0,0.676 -10.098,0 0,-0.676 c 2.257,-0.178 3.117,-0.39 3.117,-3.202 l 0,-15.799 c 0,-2.743 -0.825,-3.061 -3.117,-3.204 l 0,-0.676 17.956,0 L 0.896,0 0,0 z"
             id="path8941"
             style="fill:#ee2722;fill-opacity:1;fill-rule:nonzero;stroke:none" />
        </g>
        <g
           transform="translate(503.03,36.9497)"
           id="g8943">
          <path
             d="m 0,0 c 2.201,0.103 2.807,0.315 2.807,3.071 l 0,8.187 c 0,2.079 -0.676,2.115 -1.244,2.115 -0.498,0 -0.96,-0.071 -1.421,-0.14 l 0,0.53 c 1.848,0.598 3.658,1.27 5.505,1.938 l 0.141,-0.103 0,-12.527 C 5.788,0.738 5.965,0.142 8.417,0 l 0,-0.532 L 0,-0.532 0,0 z"
             id="path8945"
             style="fill:#ee2722;fill-opacity:1;fill-rule:nonzero;stroke:none" />
        </g>
        <g
           transform="translate(507.0081,57.6822)"
           id="g8947">
          <path
             d="m 0,0 c 1.065,0 1.847,-0.809 1.847,-1.797 0,-1.025 -0.782,-1.801 -1.847,-1.801 -1.28,0 -1.777,1.13 -1.777,1.801 C -1.777,-1.13 -1.245,0 0,0"
             id="path8949"
             style="fill:#ee2722;fill-opacity:1;fill-rule:nonzero;stroke:none" />
        </g>
        <g
           transform="translate(512.7292,56.6431)"
           id="g8951">
          <path
             d="m 0,0 c 0,1.058 0,1.801 -1.563,1.801 -0.213,0 -0.568,0 -0.782,-0.038 l 0,0.564 C -0.639,2.784 1.1,3.282 2.805,3.88 l 0.178,-0.072 0,-10.654 0.071,0 c 0.213,0.809 2.094,2.858 4.794,2.858 4.296,0 6.32,-4.062 6.32,-7.839 0,-3.175 -2.093,-8.751 -8.664,-8.751 -1.775,0 -5.504,0.95 -5.504,2.258 L 0,0 z m 2.983,-17.755 c 0,-1.233 2.521,-1.693 3.408,-1.693 4.085,0 4.653,3.987 4.653,6.319 0,3.283 -1.278,6.912 -4.509,6.912 -1.138,0 -3.41,-0.629 -3.552,-2.642 l 0,-8.896 z"
             id="path8953"
             style="fill:#ee2722;fill-opacity:1;fill-rule:nonzero;stroke:none" />
        </g>
        <g
           transform="translate(541.7095,41.9588)"
           id="g8955">
          <path
             d="m 0,0 c -0.356,-1.092 -2.414,-5.893 -7.527,-5.893 -3.943,0 -6.643,2.892 -6.643,7.904 0,6.533 4.405,8.681 7.244,8.681 3.341,0 5.864,-1.834 6.252,-6.456 l -11.045,0 c 0.426,-6.249 3.303,-7.693 5.648,-7.693 3.16,0 4.687,2.399 5.503,3.706 L 0,0 z m -4.296,5.365 c -0.25,1.697 -0.605,4.058 -3.41,4.058 -1.95,0 -3.337,-0.956 -3.906,-4.058 l 7.316,0 z"
             id="path8957"
             style="fill:#ee2722;fill-opacity:1;fill-rule:nonzero;stroke:none" />
        </g>
        <g
           transform="translate(544.0741,48.2074)"
           id="g8959">
          <path
             d="m 0,0 c 0,2.079 -0.676,2.115 -1.244,2.115 -0.497,0 -0.887,-0.07 -1.208,-0.14 l 0,0.564 c 1.74,0.564 3.517,1.199 5.256,1.905 l 0.178,-0.066 0,-3.146 0.071,0 c 1.671,2.506 2.879,3.212 4.227,3.212 1.206,0 1.917,-0.738 1.917,-1.905 0,-0.883 -0.496,-1.552 -1.348,-1.552 -1.243,0 -1.6,1.232 -2.452,1.232 -0.852,0 -2.415,-1.763 -2.415,-2.892 l 0,-7.937 c 0,-2.44 1.208,-2.582 3.019,-2.648 l 0,-0.532 -8.523,0 0,0.532 C -0.57,-10.904 0,-10.801 0,-8.827 L 0,0 z"
             id="path8961"
             style="fill:#ee2722;fill-opacity:1;fill-rule:nonzero;stroke:none" />
        </g>
        <g
           transform="translate(561.9878,40.6925)"
           id="g8963">
          <path
             d="m 0,0 c 0,-1.061 -0.106,-1.485 -1.211,-2.013 -0.317,-0.177 -1.418,-0.638 -2.199,-0.638 -1.316,0 -2.344,1.096 -2.344,2.754 l 0,0.071 c 0,1.199 0.391,3.174 5.754,4.944 L 0,0 z m 2.876,-0.638 0,6.883 c 0,2.116 0,5.648 -5.292,5.648 -4.121,0 -5.789,-2.506 -5.789,-3.923 0,-0.558 0.427,-1.551 1.528,-1.551 0.923,0 1.597,0.781 1.597,1.519 0,0.32 -0.177,0.846 -0.177,1.378 0,1.095 1.351,1.73 2.521,1.73 C -1.668,11.046 0,10.655 0,8.117 L 0,5.962 c -5.79,-2.261 -8.88,-3.46 -8.88,-6.986 0,-2.365 1.846,-3.669 3.764,-3.669 1.953,0 5.224,1.68 5.151,2.573 0.27,-3.268 5.029,-2.12 5.029,-2.12 l 0,0.483 c -2.383,0 -2.188,3.119 -2.188,3.119"
             id="path8965"
             style="fill:#ee2722;fill-opacity:1;fill-rule:nonzero;stroke:none" />
        </g>
        <g
           transform="translate(540.2023,59.4969)"
           id="g8967">
          <path
             d="m 0,0 c 0,0 2.409,-1.894 5.054,-2.098 0,0 -1.158,0.923 2.004,0.865 0,0 -0.99,0.424 1.953,1.026 0,0 -3.26,0.823 -0.369,2.14 0,0 -1.591,-0.471 1.616,1.947 0,0 -1.801,-0.296 -0.059,1.833 0,0 -1.416,-0.563 1.093,3.357 0,0 -2.475,-2.237 -2.023,-1.1 0,0 -1.776,-1.362 -1.528,-0.225 0,0 -2.985,-2.361 -2.051,1.005 0,0 -1.105,-0.802 0.169,2.23 0,0 -1.987,-1.317 -1.865,1.579 0,0 -0.725,-1.523 -1.364,2.944 C 0.408,11.562 0.29,13.252 0.29,13.252 -0.651,10.504 -2.025,12.448 -2.025,12.448 -1.94,9.16 -2.675,10.308 -2.675,10.308 -3.032,6.833 -4.957,10.11 -4.957,10.11 -5.141,8.953 -6.301,10.867 -6.301,10.867 -6.292,9.639 -7.786,12.62 -7.786,12.62 -6.871,8.06 -7.987,9.095 -7.987,9.095 -7.141,6.48 -8.71,7.406 -8.71,7.406 -6.597,4.002 -7.909,5.008 -7.909,5.008 -5.696,2.746 -9.031,3.145 -9.031,3.145 -6.508,1.528 -7.583,1.492 -7.583,1.492 -4.616,0.41 -6.03,-0.032 -6.03,-0.032 -3.491,-0.799 0,0 0,0"
             id="path8969"
             style="fill:#ee2722;fill-opacity:1;fill-rule:nonzero;stroke:none" />
        </g>
        <g
           transform="translate(567.6227,36.9497)"
           id="g8971">
          <path
             d="m 0,0 c 2.094,0.142 2.732,0.598 2.732,2.539 l 0,16.834 c 0,1.589 -0.212,2.154 -1.597,2.154 -0.462,0 -0.781,-0.033 -1.208,-0.07 l 0,0.564 c 1.883,0.46 3.764,0.955 5.649,1.552 l 0.141,-0.071 0,-21.071 C 5.717,0.386 6.32,0.103 8.377,0 l 0,-0.532 L 0,-0.532 0,0 z"
             id="path8973"
             style="fill:#ee2722;fill-opacity:1;fill-rule:nonzero;stroke:none" />
        </g>
        <g
           transform="translate(532.1654,54.6673)"
           id="g8975">
          <path
             d="M 0,0 C 0,0 0.16,-0.569 0.322,-1.161 L 8.439,4.816 8.062,5.281 C 8.062,5.281 8.643,4.308 0,0"
             id="path8977"
             style="fill:#ee2722;fill-opacity:1;fill-rule:nonzero;stroke:none" />
        </g>
      </g>
    </g>
  </g>
</svg>
