<?xml version="1.0" encoding="UTF-8" standalone="no"?>
<!-- Generator: Adobe Illustrator 17.0.0, SVG Export Plug-In . SVG Version: 6.00 Build 0)  -->

<svg
   xmlns:dc="http://purl.org/dc/elements/1.1/"
   xmlns:cc="http://creativecommons.org/ns#"
   xmlns:rdf="http://www.w3.org/1999/02/22-rdf-syntax-ns#"
   xmlns:svg="http://www.w3.org/2000/svg"
   xmlns="http://www.w3.org/2000/svg"
   xmlns:sodipodi="http://sodipodi.sourceforge.net/DTD/sodipodi-0.dtd"
   xmlns:inkscape="http://www.inkscape.org/namespaces/inkscape"
   version="1.1"
   id="Capa_1"
   x="0px"
   y="0px"
   width="267.195px"
   height="267.199px"
   viewBox="0 0 267.195 267.199"
   enable-background="new 0 0 267.195 267.199"
   xml:space="preserve"
   sodipodi:docname="Logotipo_del_PSOE.svg"
   inkscape:version="0.92.1 r15371"><metadata
     id="metadata4500"><rdf:RDF><cc:Work
         rdf:about=""><dc:format>image/svg+xml</dc:format><dc:type
           rdf:resource="http://purl.org/dc/dcmitype/StillImage" /></cc:Work></rdf:RDF></metadata><defs
     id="defs4498" /><sodipodi:namedview
     pagecolor="#ffffff"
     bordercolor="#666666"
     borderopacity="1"
     objecttolerance="10"
     gridtolerance="10"
     guidetolerance="10"
     inkscape:pageopacity="0"
     inkscape:pageshadow="2"
     inkscape:window-width="1920"
     inkscape:window-height="1018"
     id="namedview4496"
     showgrid="false"
     inkscape:zoom="3.1848921"
     inkscape:cx="133.91149"
     inkscape:cy="133.5995"
     inkscape:window-x="-8"
     inkscape:window-y="-8"
     inkscape:window-maximized="1"
     inkscape:current-layer="Capa_1" /><rect
     y="0"
     fill="#DF2C1C"
     width="267.195"
     height="267.199"
     id="rect4485"
     style="fill:#e30613;fill-opacity:1" /><path
     fill="#FFFFFF"
     d="M71.867,150.717c0-18.19-10.25-24.407-24.22-24.407H21.209v78.281h18.349v-28.463h6.759  C61.323,176.128,71.867,169.201,71.867,150.717 M53.238,151.1c0,7.062-2.241,9.83-7.529,9.83h-6.152v-19.417h6.287  C51.212,141.512,53.238,144.178,53.238,151.1"
     id="path4487" /><path
     fill="#FFFFFF"
     d="M127.579,182.72c0-13.023-5.872-19.511-21.616-26.368c-7.94-3.575-9.919-5.825-9.919-10.096  c0-2.908,1.979-5.569,5.541-5.569c4.98,0,6.875,2.03,12.262,8.434l12.962-11.678c-6.595-8.047-12.575-12.388-24.617-12.388  c-14.969,0-24.286,10.049-24.286,22.755c0,12.444,5.718,18.311,21.322,25.121c8.686,3.879,9.998,6.553,9.998,10.885  c0,4.313-2.801,6.269-6.703,6.269c-3.846,0-8.08-3.277-13.265-9.424l-12.831,11.487c6.488,8.616,13.522,13.648,25.765,13.648  C116.755,205.797,127.579,197.367,127.579,182.72"
     id="path4489" /><path
     fill="#FFFFFF"
     d="M189.397,165.322c0-27.576-10.474-40.268-27.912-40.268c-17.541,0-28.165,12.911-28.165,40.436  c0,27.698,10.357,40.31,27.8,40.31C178.844,205.8,189.397,192.912,189.397,165.322 M170.162,165.49  c0,19.016-2.857,24.146-8.677,24.146c-5.858,0-8.85-5.433-8.85-24.314c0-18.895,2.744-24.248,8.682-24.248  C167.146,141.074,170.162,146.647,170.162,165.49"
     id="path4491" /><polygon
     fill="#FFFFFF"
     points="245.109,204.59 245.109,188.566 217.14,188.566 217.14,171.534 234.938,171.534 234.938,155.743   217.14,155.743 217.14,142.301 244.395,142.301 244.395,126.309 198.572,126.309 198.572,204.59 "
     id="polygon4493" /></svg>