<?xml version="1.0" encoding="UTF-8" standalone="no"?>
<!-- Created with Inkscape (http://www.inkscape.org/) -->

<svg
   xmlns:dc="http://purl.org/dc/elements/1.1/"
   xmlns:cc="http://creativecommons.org/ns#"
   xmlns:rdf="http://www.w3.org/1999/02/22-rdf-syntax-ns#"
   xmlns:svg="http://www.w3.org/2000/svg"
   xmlns="http://www.w3.org/2000/svg"
   xmlns:sodipodi="http://sodipodi.sourceforge.net/DTD/sodipodi-0.dtd"
   xmlns:inkscape="http://www.inkscape.org/namespaces/inkscape"
   version="1.1"
   id="svg815"
   width="650"
   height="237"
   viewBox="0 0 650 237"
   sodipodi:docname="ЕдРо_(лог).svg"
   inkscape:version="0.92.3 (2405546, 2018-03-11)">
  <metadata
     id="metadata821">
    <rdf:RDF>
      <cc:Work
         rdf:about="">
        <dc:format>image/svg+xml</dc:format>
        <dc:type
           rdf:resource="http://purl.org/dc/dcmitype/StillImage" />
        <dc:title></dc:title>
      </cc:Work>
    </rdf:RDF>
  </metadata>
  <defs
     id="defs819" />
  <sodipodi:namedview
     pagecolor="#ffffff"
     bordercolor="#666666"
     borderopacity="1"
     objecttolerance="10"
     gridtolerance="10"
     guidetolerance="10"
     inkscape:pageopacity="0"
     inkscape:pageshadow="2"
     inkscape:window-width="1600"
     inkscape:window-height="837"
     id="namedview817"
     showgrid="false"
     inkscape:zoom="1.7230769"
     inkscape:cx="329.93304"
     inkscape:cy="113.56696"
     inkscape:window-x="-8"
     inkscape:window-y="-8"
     inkscape:window-maximized="1"
     inkscape:current-layer="layer2" />
  <g
     inkscape:groupmode="layer"
     id="layer2"
     inkscape:label="Layer 2">
    <path
       style="fill:#092b83;fill-opacity:1"
       d="m 175.28989,223.12991 c -22.78784,-3.22726 -35.51059,-18.04491 -36.71677,-42.76252 -0.7843,-16.07204 2.27478,-26.07117 10.60427,-34.66191 8.19577,-8.45284 17.69973,-12.3447 32.1619,-13.17028 17.44419,-0.99581 30.62137,3.49647 38.19324,13.02059 5.62193,7.07143 10.52707,17.83297 11.77817,25.84056 2.8569,18.28522 -6.06065,38.1346 -20.69734,46.06976 -8.87368,4.8108 -24.10358,7.25278 -35.32347,5.6638 z m 17.57464,-25.33254 c 6.0788,-3.98298 8.78636,-15.89534 6.04857,-26.61173 -3.15256,-12.33989 -9.47335,-18.14492 -17.42551,-16.00362 -7.85344,2.11471 -11.23921,8.88755 -11.23921,22.48276 0,13.33936 3.14139,19.82712 10.59091,21.87288 3.22177,0.88475 9.37884,-0.006 12.02524,-1.74029 z m 87.64791,25.39411 c -28.39368,-3.88263 -45.31559,-25.20319 -41.3885,-52.14694 2.98396,-20.47293 14.9969,-33.09709 35.71535,-37.53256 11.11415,-2.37936 44.5,-0.56845 44.5,2.41376 0,0.33537 -0.95623,5.74079 -2.12496,12.01203 -1.80627,9.6922 -2.36868,11.30075 -3.75,10.72548 -3.36487,-1.40135 -21.06805,-1.71718 -25.57179,-0.45621 -17.99735,5.03895 -21.19711,30.10473 -4.86923,38.14376 4.43911,2.1856 5.89197,2.35523 18.56598,2.16767 8.25998,-0.12224 13.75,0.17985 13.75,0.75658 0,0.52804 0.68722,5.53549 1.52715,11.12768 1.14993,7.65612 1.23985,10.34519 0.36404,10.88647 -1.05649,0.65295 -7.64135,1.29525 -24.39119,2.37916 -3.3,0.21355 -8.84708,-0.001 -12.32685,-0.47688 z m 84.14831,-0.0649 c -28.85292,-3.3634 -45.30749,-24.28558 -41.50081,-52.76878 2.69471,-20.16295 14.35567,-32.29359 35.3511,-36.77497 10.70577,-2.2851 41.63122,-0.89122 44.52949,2.00705 0.47696,0.47697 -3.32054,22.58473 -3.99535,23.25954 -0.14412,0.14412 -2.04941,-0.15236 -4.23396,-0.65884 -5.60457,-1.29941 -20.01074,-1.18706 -24.61349,0.19196 -9.541,2.85855 -15.61823,12.18884 -14.56787,22.36586 1.44679,14.01802 11.0536,19.25529 32.79662,17.87946 l 10.62434,-0.67228 0.66293,6.3832 c 0.36461,3.51076 0.92388,8.68578 1.24282,11.50005 0.66456,5.86392 0.70808,5.83471 -10.11728,6.79035 -13.38615,1.18171 -19.33808,1.29479 -26.17854,0.4974 z M 52.339286,177.72195 v -44.5 h 23.816341 c 13.098987,0 26.468393,0.49026 29.709793,1.08946 17.35804,3.20881 26.21688,14.5328 25.28334,32.31896 -0.70437,13.42007 -6.34427,22.15601 -17.72299,27.45212 -4.84546,2.25527 -7.21138,2.64957 -17.836484,2.97264 l -12.25,0.37247 v 12.39718 12.39717 h -15.5 -15.5 z m 45.446507,-3.87299 c 2.962727,-1.94125 4.947467,-7.71343 4.137247,-12.03226 -1.01877,-5.43052 -4.630515,-7.93927 -12.11606,-8.41591 l -6.467694,-0.41183 v 11.75538 11.75539 l 6.035749,-0.54731 c 3.319662,-0.30101 7.104503,-1.24757 8.410758,-2.10346 z m 315.553497,3.94676 v -44.57377 h 15.14949 15.14948 l -0.54244,24.94951 -0.54244,24.9495 2.24243,-2.6995 c 3.97005,-4.77929 23.03543,-30.49796 27.43803,-37.01315 6.3077,-9.33445 8.17328,-10.17812 22.51643,-10.18262 l 11.91098,-0.004 -0.66098,28.66269 c -0.36354,15.76448 -0.66098,35.78948 -0.66098,44.5 v 15.83731 h -14 -14 v -23.5 c 0,-12.925 -0.34223,-23.5 -0.76051,-23.5 -0.41827,0 -6.38077,8.40785 -13.25,18.68411 -6.86922,10.27627 -14.37063,20.73877 -16.6698,23.25 l -4.18032,4.56589 -14.56968,0.32377 -14.56969,0.32378 z m 100.16667,43.62427 c 0.18333,-0.44108 3.25197,-7.2483 6.81919,-15.12716 6.8047,-15.02941 11.20558,-21.24343 17.41219,-24.58591 3.99688,-2.15246 4.62375,-3.48497 1.63946,-3.48497 -3.63018,0 -12.64628,-3.98211 -15.28956,-6.75288 -3.40214,-3.56624 -4.74795,-7.27061 -4.74795,-13.06882 0,-13.14156 6.93801,-21.17057 20.79922,-24.06988 3.12061,-0.65273 16.37922,-1.10842 32.25,-1.10842 h 26.95078 v 44.5 44.5 h -15 -15 v -17.13084 -17.13084 l -3.62403,0.58809 c -1.99321,0.32346 -4.43559,1.32256 -5.4275,2.22023 -0.99191,0.89766 -4.1062,7.37046 -6.92064,14.384 -7.49816,18.6853 -5.21021,17.06936 -24.16787,17.06936 -8.81464,0 -15.87663,-0.36088 -15.69329,-0.80196 z m 56.83333,-60.69804 v -9.5 h -6.03212 c -6.87216,0 -12.30784,1.89819 -13.88739,4.8496 -1.20635,2.25408 -1.4219,7.09712 -0.43083,9.67981 1.02751,2.67765 6.27972,4.389 13.60034,4.43145 l 6.75,0.0391 z m -441,-65.49999 V 77.221956 h 2.27749 c 2.49692,0 6.26423,-2.30492 8.93926,-5.46924 5.16867,-6.11405 9.56342,-23.3916 10.63136,-41.79616 l 0.65189,-11.2346 30.25,-0.26466 30.25,-0.26466 v 30.51466 30.51466 h 5 5 v 16.999994 17 h -12.5 -12.5 l -0.0137,-4.25 c -0.008,-2.3375 -0.2873,-5.27129 -0.62174,-6.51953 l -0.60804,-2.26953 -21.12826,0.26953 -21.12826,0.26953 -0.29772,6.25 -0.29771,6.25 h -11.95229 -11.95228 z m 54.77159,-36.750004 0.2716,-19.25 h -5.42776 -5.42775 l -0.65131,5.25 c -1.2677,10.21853 -3.77817,21.32458 -6.1422,27.17241 -1.31679,3.25733 -2.39417,6.08612 -2.39417,6.28621 0,0.2001 4.3875,0.23501 9.75,0.0776 l 9.75,-0.28621 z m -131.771594,0.75 v -41 h 34 34.000004 v 10 10 h -19.5 -19.500004 v 5.5 5.5 h 15.601491 15.601493 l -0.69587,7.25 c -1.12917,11.76429 -1.10846,11.75 -17.030167,11.75 H 81.339286 v 5.5 5.5 h 19.500004 19.5 v 10.5 10.499994 h -34.000004 -34 z m 183.000004,0 v -41 h 12.5 12.5 l 0.11831,21.25 c 0.0651,11.6875 0.40258,22.55598 0.75,24.15218 0.58875,2.70487 1.57572,1.51519 14.51816,-17.5 7.63756,-11.2212 14.83756,-21.45743 16,-22.74719 3.83599,-4.25612 6.89855,-5.15499 17.56387,-5.15499 h 10.04966 v 41 40.999994 h -13.48011 -13.48011 l -0.26989,-21.102624 -0.26989,-21.10264 -8.72521,11.94032 c -4.79887,6.56717 -10.29524,14.54761 -12.21417,17.7343 -7.01679,11.652524 -8.69943,12.530644 -24.01096,12.530644 h -11.54966 z m 99,0 v -41 h 14 14 v 13.89302 c 0,11.74611 0.24443,13.98681 1.58179,14.5 2.05775,0.78963 21.77867,0.78963 23.83642,0 1.33736,-0.51319 1.58179,-2.75389 1.58179,-14.5 v -13.89302 h 14 14 v 41 40.999994 h -14.5 -14.5 v -15.499994 -15.5 h -13 -13 v 15.5 15.499994 h -14 -14 z m 89,40.442574 c 0,-0.33452 6.12893,-17.558444 13.61984,-38.275394 7.49091,-20.71694 14.06326,-38.91423 14.60522,-40.4384 l 0.98539,-2.77122 19.05071,0.27122 19.05071,0.27122 14.40804,38.42703 c 9.8286,26.2134 14.22273,39.165354 13.82501,40.749994 -0.57511,2.29144 -0.77195,2.32297 -14.50195,2.32297 h -13.91892 l -2.77711,-8.527514 -2.7771,-8.52753 -12.94398,0.27753 -12.94397,0.27752 -2.152,8 -2.152,7.999994 -15.68895,0.2754 c -8.62892,0.15146 -15.68894,0.002 -15.68894,-0.33282 z m 56.60395,-35.192574 c -0.29195,-0.9625 -2.10978,-7.55 -4.03961,-14.63889 -1.92984,-7.08889 -3.65994,-13.04004 -3.84469,-13.22479 -0.18474,-0.18474 -2.39025,6.40276 -4.90112,14.63889 l -4.56522,14.97479 h 8.94073 c 8.05054,0 8.88788,-0.17424 8.40991,-1.75 z m 40.39605,34.844064 c 0,-1.95005 9.56518,-21.895734 12.99327,-27.094064 1.99487,-3.025 5.73959,-6.92995 8.3216,-8.67766 l 4.69457,-3.17767 -5.43822,-1.58094 c -12.74786,-3.7059 -18.87109,-15.8187 -13.68118,-27.06373 2.32887,-5.04597 5.31184,-7.79249 11.62242,-10.70115 4.76238,-2.19507 6.24027,-2.31275 32.73754,-2.60678 l 27.75,-0.30794 v 41.05794 41.057924 h -14 -14 v -16.124994 -16.125 l -3.24653,0.64931 c -4.67959,0.93592 -6.01855,2.81692 -10.74917,15.10069 -2.32992,6.05 -4.8706,12.237494 -5.64594,13.749994 l -1.40972,2.75 h -14.97432 c -8.27965,0 -14.97432,-0.40502 -14.97432,-0.90593 z m 52,-55.594064 v -8.5 h -7.07692 c -6.48853,0 -7.31996,0.24304 -10,2.92308 -3.15524,3.15523 -3.46404,4.52388 -1.93069,8.5569 1.30515,3.4328 6.14204,5.43245 13.25761,5.48088 l 5.75,0.0391 z"
       id="path828"
       inkscape:connector-curvature="0" />
  </g>
</svg>
