<?xml version="1.0" encoding="UTF-8" standalone="no"?>
<svg id="svg2" xmlns:rdf="http://www.w3.org/1999/02/22-rdf-syntax-ns#" xmlns="http://www.w3.org/2000/svg" viewBox="0 0 240.15999 66.888495" width="300.2" version="1.2" xmlns:cc="http://creativecommons.org/ns#" height="83.611" xmlns:dc="http://purl.org/dc/elements/1.1/">
 <metadata id="metadata14">
  <rdf:RDF>
   <cc:Work rdf:about="">
    <dc:format>image/svg+xml</dc:format>
    <dc:type rdf:resource="http://purl.org/dc/dcmitype/StillImage"/>
    <dc:title/>
   </cc:Work>
  </rdf:RDF>
 </metadata>
 <path id="path6" d="m192.41 32.169c0-0.97849 0.61481-1.4807 1.3959-1.8704 0.72563-0.36369 1.7873-0.30828 2.9043-0.30828 0 1.8704-0.1957 4.0214-2.4852 4.0214-1.0062 0-1.815-0.83822-1.815-1.8427zm9.5771 4.4942c-0.19571-1.6747-0.30654-2.2895-0.30654-2.8749v-7.2045c0.0554-3.1554-3.3788-4.3556-6.2277-4.3556-1.5638 0-3.3788 0.168-4.8301 0.83822-1.4236 0.64253-2.4575 1.7873-2.4298 3.7685h4.9981c-0.0277-0.83648 0.3914-2.0938 1.6764-2.1492 2.1215-0.08307 1.8427 1.7024 1.8427 2.932h-1.6764c-4.579 0-7.705 1.3959-7.7622 4.8024-0.0554 2.8749 1.6764 4.6621 4.9981 4.6621 2.6255 0 3.8257-1.311 4.4682-2.3172h0.0554c0 1.0062 0 1.4513 0.11085 1.8981zm-34.821-14.016h-5.2492c0.14028 1.5084 0.16799 2.3449 0.16799 3.6022v10.414h5.3047v-8.041c0-0.16798-0.33424-3.0429 2.2895-3.0429 1.647 0 1.983 1.479 2.0384 2.8472v8.2367h5.3046v-8.041c0-0.16798-0.33424-3.0429 2.2912-3.0429 1.647 0 1.9812 1.479 2.0384 2.8472v8.2367h5.3047v-9.3814c0-3.0983-2.2341-5.0535-5.2492-5.0535-2.0938 0.05538-4.0214 1.0062-4.9704 2.6809-0.5871-1.7041-2.5129-2.5978-4.2171-2.5978-2.0938 0-3.9365 0.72738-4.9133 2.6532h-0.0554zm-9.8837 0h-5.3878c0.13855 1.5084 0.16798 2.3449 0.16798 3.6022v10.414h5.3047v-5.6112c-0.0849-2.6809 0.86418-4.3279 3.63-4.3556 0.36194 0 0.0295 0 0.42084 0.02769v-4.4959c-2.3449-0.05538-3.3806 0.72566-3.9954 3.0429h-0.0554zm-16.556 7.0088c0-1.983 0.47454-4.3556 2.7086-4.3556s2.7086 2.3726 2.7086 4.3556c0 1.9812-0.47452 4.3556-2.7086 4.3556s-2.7086-2.3744-2.7086-4.3556zm2.7086-7.4279c-4.3833 0-8.1536 2.2618-8.1536 7.4279 0 5.1644 3.7702 7.4262 8.1536 7.4262 4.3833 0 8.1536-2.2618 8.1536-7.4262 0-5.1661-3.7702-7.4279-8.1536-7.4279m-10.959 14.435v-10.665h3.2663v-3.3511h-3.2663c-0.0554-1.5639 0.16625-3.1277 1.9535-3.1277 0.47454 0 1.0062 0.16799 1.4807 0.30827v-3.3234c-0.94905-0.1957-1.8998-0.33425-2.8489-0.33425-4.7747 0-6.0026 1.7855-5.8346 6.4771h-2.6809v3.3511h2.6255v10.665zm-19.606-14.016v3.3511h2.7363v6.2814c-0.28056 4.3002 1.8981 4.8024 5.5004 4.8024 0.78107 0 1.647-0.05538 2.8472-0.27884v-3.1554c-0.61481 0.08487-1.3405 0.08487-2.0384 0.08487-1.2279 0-1.0045-1.815-1.0045-2.1787v-5.5558h3.0706v-3.3511h-3.0706v-4.1322l-5.3047 2.0107v2.1215zm-9.5338 9.5217c0-0.97849 0.61482-1.4807 1.3959-1.8704 0.72566-0.36369 1.7873-0.30828 2.9043-0.30828 0 1.8704-0.19571 4.0214-2.4852 4.0214-1.0062 0-1.815-0.83822-1.815-1.8427zm9.5772 4.4942c-0.1957-1.6747-0.30654-2.2895-0.30654-2.8749v-7.2045c0.0554-3.1554-3.3788-4.3556-6.2277-4.3556-1.5639 0-3.3788 0.168-4.8301 0.83822-1.4236 0.64253-2.4575 1.7873-2.4298 3.7685h4.9981c-0.0277-0.83648 0.3914-2.0938 1.6764-2.1492 2.1215-0.08307 1.8427 1.7024 1.8427 2.932h-1.6764c-4.579 0-7.705 1.3959-7.7622 4.8024-0.0554 2.8749 1.6764 4.6621 4.9981 4.6621 2.6255 0 3.8256-1.311 4.4682-2.3172h0.0554c0 1.0062 0 1.4513 0.11256 1.8981zm-15.412 0.56458v-20.147h-5.3029v20.147zm-17.616-0.56458v-7.2028h3.6854c4.9427 0 8.1813-1.5916 8.1813-6.4788 0-4.8856-3.2386-6.4771-8.1813-6.4771h-9.2706v20.159zm0-11.112v-5.1384h2.8766c2.2046 0.08307 3.126 1.0893 3.126 2.5683 0 1.4807-0.92134 2.4852-3.126 2.5701zm150.57 28.467c0-0.97848 0.61482-1.4807 1.3959-1.8721 0.72565-0.36196 1.7873-0.30654 2.9043-0.30654 0 1.8704-0.19572 4.0214-2.4852 4.0214-1.0045 0-1.815-0.83822-1.815-1.8427zm9.5771 4.4942c-0.19569-1.6747-0.30654-2.2895-0.30654-2.8749v-7.2045c0.0554-3.1554-3.3788-4.3556-6.2277-4.3556-1.5639 0-3.3771 0.16798-4.8301 0.83822-1.4236 0.64078-2.4575 1.7855-2.428 3.7685h4.9964c-0.0277-0.83648 0.3914-2.0938 1.6764-2.1492 2.1215-0.08487 1.8427 1.7024 1.8427 2.932h-1.6764c-4.579 0-7.705 1.3959-7.7622 4.8024-0.0554 2.8749 1.6764 4.6621 4.9981 4.6621 2.6255 0 3.8256-1.3127 4.4682-2.3172h0.0554c0 1.0045 0 1.4513 0.11256 1.8981zm-25.074 0v-20.159h-5.3064v20.159zm5.0258 0h6.2814l-5.4449-8.1241 4.747-5.8918h-5.7792l-4.8301 6.1983zm-11.243-9.688c-0.2234-3.8811-3.2957-4.747-6.6174-4.747-2.7935 0-6.4789 0.94905-6.4789 4.411 0 5.083 8.2921 3.6022 8.2921 6.0874 0 0.89364-0.75335 1.285-1.7855 1.285-0.50397 0-0.95079-0.28057-1.2573-0.64252-0.30655-0.36369-0.44682-0.83821-0.36196-1.2573h-5.0276c-0.0277 4.2725 3.3234 4.9704 6.7577 4.9704 3.2109 0 6.7005-0.94905 6.7005-4.6621 0-2.2895-1.143-3.3234-2.8195-3.8534-3.3234-1.0339-5.4726-0.97849-5.4726-2.0107 0-0.8105 0.47453-1.2573 1.2573-1.2573 0.72565 0 1.1725 0.1957 1.4513 0.50396 0.25112 0.27884 0.33598 0.69794 0.33598 1.1725zm-14.009 9.688v-20.159h-5.3047v20.159zm-6.1342-5.9472c0-5.2215-1.815-8.4878-7.511-8.4878-4.2153 0-7.5387 2.5129-7.5387 6.9517 0 5.5021 2.2341 7.9024 7.847 7.9024 1.647 0 3.2108-0.30655 4.4387-1.0893 1.3404-0.78106 2.4852-2.0938 2.6532-3.9088h-4.915c-0.1957 1.3127-1.117 2.0107-2.596 2.0107-1.983 0-2.4575-1.5638-2.4298-3.3788zm-9.9408-2.8472c0.14027-1.5916 0.58709-2.9043 2.4298-2.9892 0.8105-0.05538 1.4236 0.30827 1.8427 0.89536 0.41911 0.58538 0.64252 1.3387 0.64252 2.0938zm-16.129-5.2215v3.3511h2.7363v6.2814c-0.28057 4.3002 1.8981 4.8024 5.5004 4.8024 0.78107 0 1.647-0.05538 2.8472-0.27884v-3.1554c-0.61308 0.08307-1.3405 0.08307-2.0384 0.08307-1.2279 0-1.0045-1.8132-1.0045-2.1769v-5.5558h3.0706v-3.3511h-3.0706v-4.1322l-5.3047 2.009v2.1233zm-9.4299 9.5217c0-0.97848 0.6148-1.4807 1.3959-1.8721 0.72737-0.36196 1.7873-0.30654 2.9043-0.30654 0 1.8704-0.19569 4.0214-2.4852 4.0214-1.0045 0-1.815-0.83822-1.815-1.8427zm9.5771 4.4942c-0.1957-1.6747-0.30653-2.2895-0.30653-2.8749v-7.2045c0.0554-3.1554-3.3788-4.3556-6.226-4.3556-1.5639 0-3.3788 0.16798-4.8319 0.83822-1.4236 0.64078-2.4558 1.7855-2.428 3.7685h4.9981c-0.0277-0.83648 0.38967-2.0938 1.6747-2.1492 2.1215-0.08487 1.8427 1.7024 1.8427 2.932h-1.6747c-4.579 0-7.7067 1.3959-7.7622 4.8024-0.0572 2.8749 1.6747 4.6621 4.9981 4.6621 2.6238 0 3.8239-1.3127 4.4664-2.3172h0.0554c0 1.0045 0 1.4513 0.11257 1.8981zm-28.607 0 2.7363-9.7728h0.0554l2.5406 9.7728h5.864l4.4128-14.016h-4.6916l-2.4575 9.8837h-0.0554l-2.4298-9.8837h-5.8623l-2.4575 9.9391h-0.0554l-2.2618-9.9391h-5.3618l4.2725 14.016zm-13.756-14.016-3.0169 9.7434h-0.0554l-2.764-9.7434h-5.6683l5.864 14.435-1.983 4.9427h4.8873l7.6219-19.378zm-17.824 2.6515c2.2618 0 2.5129 2.5701 2.5129 4.3002 0 1.815-0.3914 4.4128-2.7086 4.4128-1.9276 0-2.4021-2.5978-2.4021-4.1616 0-1.8704 0.1957-4.5513 2.5978-4.5513zm-7.9024 11.364h5.1661l0.13855-2.0661h0.11257c0.36196 1.4236 2.2895 2.4852 3.9088 2.4852 4.6344 0 6.5343-3.3788 6.5343-7.6496 0-3.9659-1.9275-7.2045-6.2277-7.2045-1.5916 0-3.294 0.64252-4.2708 1.8981h-0.05716v-7.6219h-5.3047zm-6.4546-9.9962c0 2.9892-0.78279 6.5066-4.579 6.5066-3.798 0-4.5807-3.5174-4.5807-6.5066 0-3.1537 0.7828-6.6728 4.5807-6.6728 3.7962 0 4.579 3.5191 4.579 6.6728zm-4.579 10.415c6.6728 0 10.443-3.8534 10.443-10.498 0-6.6451-3.7702-10.498-10.443-10.498-6.6746 0-10.443 3.8534-10.443 10.498 0 6.6451 3.7685 10.498 10.443 10.498" fill-rule="evenodd" fill="#023dab"/>
 <path id="path8" d="m25.888 16.129c0.36023 2.4419 3.7598 1.5898 3.7598 1.5898 2.4021-0.61135 15.121-4.4024 20.713-5.0709 5.8277-0.6962 9.8283-1.9137 11.219-0.60788 1.3924 1.3041 0.42084 17.263-3.32 26.222-3.739 8.957-16.579 27.245-17.814 25.875-13.718-15.217-31.16-13.77-31.856-15.16-0.696-1.393-7.0086-19.612-2.5301-31.082 0.8694-2.227 13.775-6.035 18.993-8.5585 5.22-2.5216 18.988-7.6998 18.595-9.1252-0.187-0.68231-13.34 1.6695-19.128 3.7859-6.446 2.4852-20.691 8.5638-22.256 13.261-1.5659 4.697-5.8245 20.382 5.0585 33.768 1.9829 2.438 21.796 6.678 32.068 15.42 0.31173 0.26669 1.9466 0.54553 2.6359 0.16626 5.037-2.76 16.561-14.054 20.544-25.796 5.177-15.266 4.141-28.603 0.315-31.299-3.827-2.6969-9.741-2.7835-19.743-0.9564-9.48 1.7304-15.16 3.5764-16.534 5.1574 0 0-0.96118 0.69447-0.73431 2.3155zm24.216 14.987c-4.495 4.082-12.803 9.344-19.923 9.212-6.906-0.126-9.037-1.008-13.508-4.331-4.474-3.329-6.112-6.909-6.112-6.909l0.05022 0.95078c-0.14202 5.0449 3.3684 10.616 3.3684 10.616 2.2739 3.4758 7.5942 7.5405 17.921 7.8297 8.9173 0.24939 16.619-7.4591 20.819-13.725 0 0 3.2143-4.721 3.675-10.528 0 0-2.3051 3.2663-6.2901 6.8841" fill-rule="evenodd" fill="#fca241"/>
</svg>
