<?xml version="1.0" encoding="UTF-8" standalone="no"?>
<svg xmlns="http://www.w3.org/2000/svg" xml:space="preserve" width="320.41125" height="91.728607">
  <g fill="#1f5aa5" transform="matrix(2.76632 0 0 -2.76632 -800.6301729 220.35795125)">
    <path d="M362.507 71.3195c.416.277 1.006.433 1.738.415 7.403-.176 8.301-2.766 17.016-2.766 6.916 0 11.373 2.49 14.414 4.288l-2.41 6.401c-3.043-1.798-5.849-3.634-11.104-3.773-6.983-.183-10.371 2.697-17.707 2.697-6.779 0-9.752-2.282-10.858-3.25l5.295-15.041 12.36-.006c1.062-3.09 2.332-6.84 2.332-6.84h-8.199c-.106 0 2.388-6.916 2.388-6.916l5.811-.004c4.531 0 7.397 3.672 7.397 6.852 0 .613-.095 1.204-.272 1.759 0 0-3.169 9.337-3.186 9.394-.674 2.263-2.817 2.678-3.351 2.678h-10.199l-1.465 4.112zm-53.6651-4.1551s2.236-6.577 2.236-6.876c0-.065-2.076.034-2.629 0l4.726-13.79h-7.62s-4.575 13.833-4.65 13.833c-.005 0-9.24-.01-9.24-.01-1.481 4.403-2.244 6.843-2.244 6.843h19.421zM346.7 54.0412c.177-.555.274-1.146.274-1.759 0-3.181-2.527-5.762-5.706-5.762l-10.978.004s-2.494 6.917-2.389 6.917h11.272s-1.269 3.75-2.331 6.84l-11.462.007s-2.495 6.917-2.39 6.917h16.772c.533 0 2.676-.416 3.352-2.68.017-.057 3.586-10.484 3.586-10.484"/>
    <path d="M378.3548 67.2047h17.527c.53 0 2.546-.413 3.219-2.667.038-.129 6.047-17.477 6.146-17.923h-7.633c-1.938 5.956-2.318 7.206-4.562 13.737l-12.356-.033s-2.445 6.886-2.341 6.886"/>
    <path d="m392.9892 46.615-3.95 11.241h-7.447l3.752-11.241h7.645zM343.407 67.2047h9.153c.53 0 2.548-.413 3.219-2.667.039-.129 3.81-10.873 3.909-11.319h-7.631c-1.941 5.956-.084.602-2.328 7.133l-3.981-.033m-35.7732 6.886h9.664c.531 0 2.546-.413 3.219-2.667.039-.129 6.047-17.477 6.146-17.923h-7.633c-1.94 5.956-2.318 7.206-4.562 13.737l-4.491-.033"/>
  </g>
</svg>