<?xml version="1.0" encoding="UTF-8" standalone="no"?>
<svg
   xmlns:dc="http://purl.org/dc/elements/1.1/"
   xmlns:cc="http://web.resource.org/cc/"
   xmlns:rdf="http://www.w3.org/1999/02/22-rdf-syntax-ns#"
   xmlns:svg="http://www.w3.org/2000/svg"
   xmlns="http://www.w3.org/2000/svg"
   xmlns:sodipodi="http://sodipodi.sourceforge.net/DTD/sodipodi-0.dtd"
   xmlns:inkscape="http://www.inkscape.org/namespaces/inkscape"
   width="1181pt"
   height="761pt"
   viewBox="0 0 1181 761"
   version="1.1"
   id="svg2"
   sodipodi:version="0.32"
   inkscape:version="0.45.1"
   sodipodi:docname="Logo_Die_Gruenen_2.svg"
   inkscape:output_extension="org.inkscape.output.svg.inkscape"
   sodipodi:docbase="C:\Dokumente und Einstellungen\chris\Desktop">
  <metadata
     id="metadata103">
    <rdf:RDF>
      <cc:Work
         rdf:about="">
        <dc:format>image/svg+xml</dc:format>
        <dc:type
           rdf:resource="http://purl.org/dc/dcmitype/StillImage" />
      </cc:Work>
    </rdf:RDF>
  </metadata>
  <sodipodi:namedview
     inkscape:window-height="774"
     inkscape:window-width="1280"
     inkscape:pageshadow="2"
     inkscape:pageopacity="0.0"
     guidetolerance="10.0"
     gridtolerance="10.0"
     objecttolerance="10.0"
     borderopacity="1.0"
     bordercolor="#666666"
     pagecolor="#ffffff"
     id="base"
     inkscape:zoom="1"
     inkscape:cx="697.65398"
     inkscape:cy="707.67146"
     inkscape:window-x="0"
     inkscape:window-y="0"
     inkscape:current-layer="g5256" />
  <defs
     id="defs4">
    <clipPath
       id="clip0">
      <rect
         width="1181"
         height="761"
         id="rect7" />
    </clipPath>
  </defs>
  <path
     inkscape:export-ydpi="300"
     inkscape:export-xdpi="300"
     id="path10"
     d="M 0,0 L 924.78285,0 C 910.3352,4.529053 894.34886,0.971771 880.28313,7.088684 C 874.85159,8.331833 869.17458,7.751419 863.70285,8.809204 C 853.75218,10.552124 843.79511,12.255447 833.87544,14.1521 C 826.284,15.748947 818.44035,13.822037 810.87698,15.644867 C 798.0538,18.485245 785.22098,21.282364 772.39191,24.085724 C 766.70805,25.451553 760.76367,23.369659 755.15308,25.217514 C 738.54851,30.004135 721.94104,34.784927 705.31563,39.494049 C 703.65736,39.989273 702.04518,40.616211 700.51816,41.407089 C 696.03928,43.956863 690.87779,44.801315 685.97522,46.170212 C 687.69988,45.039291 689.47456,43.980789 691.25238,42.918335 C 690.93066,41.670685 690.6236,40.423447 690.32382,39.175964 C 685.43974,40.822784 680.16895,41.19899 675.51988,43.522354 C 668.46205,46.982544 660.53781,47.719254 653.09238,49.968872 C 652.03665,49.193649 651.00061,48.408997 649.9637,47.62941 C 645.35756,49.227951 640.27652,49.493225 636.06921,52.12973 C 630.13185,55.823914 622.85944,55.150879 616.33673,57.001678 C 609.35945,58.398178 603.51141,62.922302 596.51805,64.253784 C 590.5144,65.366608 585.25735,68.539764 579.80487,71.083588 C 576.79358,72.703369 573.04855,71.296814 570.15596,73.145126 C 565.28728,76.258011 559.9651,78.557007 555.03441,81.562546 C 553.4025,81.146194 551.7841,80.715714 550.16637,80.294937 C 551.41286,83.670456 549.4971,86.613983 547.5284,89.202698 C 547.80632,86.629059 548.09374,84.056015 548.27718,81.473953 C 543.4581,81.855698 539.21765,85.440125 534.29593,83.848923 C 530.29192,85.48494 526.85257,88.384262 522.56334,89.379059 C 515.84937,91.121262 509.39978,93.747803 503.39963,97.21846 C 491.56838,101.71913 479.83821,106.83832 469.26915,113.8485 C 466.17714,114.64008 463.59676,116.42615 461.81892,119.09357 C 459.03049,119.47078 456.25882,119.93225 453.49486,120.42578 C 453.22102,121.76616 452.95453,123.1084 452.69536,124.4525 C 461.91093,125.05211 469.27101,118.64598 477.49969,115.6279 C 486.68172,112.37303 494.65387,106.27129 504.16751,103.89195 C 502.23817,105.82164 499.76324,106.92946 497.11903,107.4669 C 496.94511,109.18962 496.83675,110.92052 496.61372,112.63953 C 495.95465,111.60367 495.33534,110.53174 494.71487,109.48866 C 490.59801,110.09932 487.18062,112.60002 483.55499,114.43507 C 478.07693,117.48808 472.18124,119.66809 466.58705,122.4812 C 460.65576,125.40971 453.97418,126.00983 447.73052,127.95548 C 442.82291,129.92577 438.00356,132.16952 433.4442,134.8541 C 436.08852,135.1765 438.74997,135.3923 441.39661,135.76642 C 436.7789,138.16008 432.23479,134.7796 427.69824,133.95799 C 426.86179,135.37393 426.1254,136.85741 425.13,138.16971 C 422.53586,140.32533 418.9902,141.12889 416.73914,143.73984 C 414.57227,146.22894 412.16193,148.6129 409.08089,149.93089 C 405.46767,151.8425 401.29159,151.99834 397.51067,153.39244 C 394.66663,155.74744 393.15803,159.54935 389.75,161.26511 C 388.37624,161.5134 387.1062,160.50619 385.80867,160.1971 C 385.7748,162.04182 385.76062,163.88805 385.73816,165.73642 C 383.79631,166.52432 381.93597,167.56976 379.88873,168.04756 C 378.36755,167.56813 377.09776,166.21347 375.4752,166.21381 C 373.22064,169.12129 369.97138,171.00327 367.75871,173.93431 C 365.35936,177.00278 361.51001,178.26419 358.2997,180.25523 C 340.7207,189.9885 326.88789,204.82295 312.13084,218.1662 C 307.83128,221.91476 305.10925,227.23601 300.24559,230.35934 C 297.04529,232.25565 296.15643,236.15288 293.63615,238.69618 C 289.75508,242.90508 286.4742,247.70396 284.19255,252.96405 C 282.74846,256.2541 282.6765,259.98526 281.12111,263.22635 C 278.71999,266.23215 274.84706,267.45447 272.11493,270.08305 C 269.21492,273.34534 269.58166,278.00838 269.19458,282.06992 C 270.71942,281.86362 272.24849,281.65988 273.7796,281.46124 C 272.07851,284.79388 270.76349,288.29707 269.47896,291.80658 C 268.2825,295.21651 264.7708,298.0412 265.94069,301.98888 C 267.35167,308.91708 267.22131,316.31671 270.46697,322.74283 C 270.78516,324.26022 270.41075,325.83469 270.40759,327.37585 C 271.03268,326.92352 272.2829,326.01887 272.90801,325.56654 C 274.06412,329.00478 275.13669,332.47929 275.8045,336.05405 C 274.27968,333.87631 272.88747,331.60866 271.3752,329.42928 C 271.25468,333.27626 271.83949,337.43892 274.42336,340.46616 C 276.28154,342.69684 277.91806,345.1001 279.48441,347.54692 C 283.57114,353.98232 288.38217,359.91129 293.12441,365.86858 C 301.29752,376.30727 310.74472,385.91367 321.85135,393.23772 C 338.63307,404.84845 357.72707,412.67699 377.16322,418.61891 C 424.08028,432.24956 473.61072,434.21204 522.07941,430.43771 C 568.60332,427.38968 614.47936,417.629 658.99724,403.9968 C 695.37949,392.63905 730.96523,378.74561 765.44575,362.50421 C 789.89963,351.3152 814.34642,340.10832 838.80646,328.93453 C 842.86282,327.05836 845.88023,323.5452 850.00027,321.76276 C 847.21352,324.38271 844.2292,326.78728 841.58321,329.55267 C 842.03136,330.13592 842.92767,331.30243 843.37582,331.88568 C 837.51181,336.67764 830.6956,340.05748 824.83626,344.84747 C 812.2014,352.77242 798.96078,359.69696 786.02693,367.11746 C 782.05742,369.38324 778.41074,372.21077 774.24344,374.11559 C 767.6611,376.9626 761.64241,380.89609 755.38087,384.35191 C 747.70206,388.80356 739.72269,392.76706 732.37836,397.76975 C 733.27597,398.44217 734.18611,399.11536 735.10878,399.78931 C 734.81546,400.9612 734.53363,402.13429 734.28673,403.32265 C 741.26187,401.96574 748.32402,400.30206 754.43318,396.50566 C 763.05199,391.21501 772.33772,387.1653 781.12676,382.17726 C 788.6517,378.35965 795.32681,372.89566 803.34232,370.06116 C 800.24477,373.34261 795.86423,374.76738 792.07225,377.0202 C 785.50145,380.82793 778.59969,384.05315 772.22475,388.1918 C 768.33298,390.75504 763.71536,392.06967 760.13828,395.12883 C 755.3075,399.55536 748.51204,400.44217 743.21181,404.12456 C 733.38945,408.71669 723.91458,414.10732 713.71071,417.83818 C 710.75171,418.8799 709.03787,421.77933 706.23792,423.08601 C 702.72107,424.93784 697.87808,425.71712 696.68788,430.15738 C 702.47578,431.25583 706.83412,426.67304 712.07736,425.22379 C 722.60431,421.96632 731.49501,414.93834 742.09276,411.85307 C 734.17039,416.61961 725.88498,420.82484 717.32671,424.33131 C 713.99585,425.71513 711.32541,428.32442 707.90922,429.50774 C 700.74681,431.82739 693.65663,434.52499 687.04959,438.15498 C 691.38309,440.75935 696.88815,440.34251 700.92702,437.38388 C 703.29144,438.59524 705.93428,439.98062 708.61708,438.77086 C 718.23379,435.43619 727.78024,431.58943 736.48547,426.25935 C 735.03467,428.16521 733.49306,430.23113 731.09367,430.95935 C 724.09515,433.51381 717.49283,437.05322 710.37363,439.2876 C 706.94811,440.56978 703.23561,441.2352 700.10733,443.1929 C 697.25284,445.63126 695.14122,448.81448 692.31557,451.29559 C 688.58151,454.58147 686.27341,459.4287 681.72958,461.7561 C 676.84126,464.10184 671.80887,466.83331 668.37094,471.10913 C 667.23233,475.51183 665.87271,479.84384 664.1917,484.07231 C 664.63544,488.13513 666.33583,491.92401 667.53584,495.8055 C 672.259,495.95309 677.05357,493.7111 681.65538,495.58775 C 684.76434,496.35165 688.06131,498.89755 691.25038,497.05699 C 695.30389,495.1196 699.29359,492.99513 703.6002,491.64374 C 715.20502,487.90149 725.72072,481.55409 737.0414,477.10835 C 740.87224,475.60921 744.87683,474.53348 748.57298,472.68996 C 753.42107,470.34335 757.27795,466.39328 762.17091,464.11667 C 768.92093,460.97144 776.12845,458.62077 782.26035,454.28383 C 787.0677,450.89511 792.68495,448.91673 797.54868,445.61604 C 803.05367,441.83374 809.82278,440.34459 815.03571,436.06424 C 819.08388,432.69225 824.7088,432.14439 828.61968,428.58055 C 833.09491,424.95206 838.05187,421.98581 842.85254,418.81505 C 846.44304,416.34103 850.86623,415.10994 853.90411,411.85861 C 857.95459,407.70457 863.43109,405.49855 868.18704,402.30896 C 872.74042,399.6369 876.57364,395.9774 880.37505,392.35605 C 884.69955,388.25177 890.18811,385.62404 894.4594,381.45331 C 900.14926,375.46146 906.80928,370.47702 912.13796,364.12544 C 917.52168,359.51898 922.44585,354.36717 926.32623,348.40372 C 928.03812,345.51533 930.67664,343.42058 933.00946,341.07323 C 934.5242,338.4631 935.32896,335.49878 936.84821,332.88124 C 940.37357,326.55428 944.83838,320.78877 948.16745,314.34535 C 955.6282,298.58908 964.74512,283.467 969.61784,266.61267 C 970.92981,261.83752 973.9368,257.62787 974.37247,252.6022 C 975.34589,245.02028 977.10843,237.05348 974.55878,229.588 C 972.79218,224.28633 969.99907,219.0233 965.44206,215.62079 C 958.76681,211.2753 951.15074,208.4906 943.26085,207.45839 C 939.64662,205.95285 935.89658,204.78851 931.94153,204.77847 C 924.74457,204.56168 917.83084,202.4632 910.82165,201.08797 C 908.55487,200.455 906.82294,202.52423 904.93947,203.37076 C 904.65895,201.99457 904.39204,200.6205 904.13876,199.24854 C 903.32054,199.58751 902.51178,199.92265 901.71245,200.25552 C 901.57501,201.437 901.45598,202.62119 901.3488,203.80869 C 887.53081,205.34802 873.58847,204.21074 859.8297,202.63371 C 861.33226,202.46518 862.84607,202.30327 864.37114,202.14798 C 864.40408,200.25058 864.43462,198.35504 864.47299,196.4626 C 857.13022,196.59183 849.7178,196.61723 842.51855,198.2231 C 829.76198,200.46082 816.8587,201.72989 803.99416,203.14903 C 798.09168,203.88147 791.88228,203.06648 786.29121,205.47113 C 782.64894,207.05957 778.82896,204.73962 775.06711,205.31133 C 769.96153,205.47282 763.83907,207.15147 761.86746,212.42424 C 764.80092,212.53905 767.7789,212.43771 770.61144,211.55156 C 776.52853,209.67351 782.83733,211.20483 788.83879,209.80017 C 795.46606,208.1956 802.23659,207.25745 809.03798,206.77184 C 811.80539,206.41808 814.31801,207.80959 816.8083,208.80087 C 822.24175,204.31964 829.64485,206.23238 835.99153,207.00353 C 841.04462,208.11783 846.50206,207.8293 851.21449,210.20476 C 840.16368,212.16836 828.75816,212.04588 817.94457,215.28694 C 801.89053,216.50502 785.86188,218.28983 770.00757,221.15332 C 762.3001,222.18068 754.79173,224.33752 747.04973,225.11389 C 730.16461,226.87647 713.25528,228.42671 696.41556,230.58452 C 693.12984,231.01476 689.92602,231.86444 686.71425,232.62505 C 682.30194,233.6651 677.73259,233.13515 673.2697,233.69135 C 665.6996,234.62038 658.75761,238.08183 651.28627,239.44507 C 646.40117,240.46622 641.38438,240.47354 636.47465,241.2821 C 632.94458,241.83687 629.6167,243.26503 626.06924,243.70491 C 620.22714,244.59904 614.27206,243.9781 608.43892,244.88561 C 604.1787,245.5744 601.16234,249.25632 596.89674,249.95232 C 591.9825,251.20734 586.62353,250.14366 581.90123,252.08749 C 574.91148,256.43721 566.2589,259.9261 562.89482,268.07072 C 561.04353,272.07768 560.93855,278.34638 565.77445,280.23129 C 573.74181,283.22516 582.42685,283.25404 590.81157,283.9935 C 607.83769,285.46576 624.92824,285.82774 642.00311,286.25003 C 650.27182,285.94995 658.55359,285.81912 666.81624,285.30122 C 687.07455,283.52321 707.23857,280.76849 727.52651,279.28357 C 742.63797,277.82443 757.81137,277.26034 772.94748,276.10985 C 777.29404,275.68633 781.66431,275.54861 786.03746,275.57489 C 780.74001,281.13602 773.80485,284.62837 767.12465,288.21034 C 752.0696,295.7915 736.13994,301.42573 720.28801,307.07135 C 687.66008,318.18877 654.59106,328.02861 621.11856,336.26852 C 601.06229,340.89883 580.75578,344.34868 560.44663,347.65753 C 535.81105,351.47563 510.91638,354.39827 485.94437,353.72591 C 459.03848,353.1376 431.86313,350.84189 405.98764,343.04579 C 393.08141,339.17197 379.68239,333.76376 371.05423,322.92404 C 366.16353,316.97745 367.33473,308.56441 369.9915,301.91234 C 373.16217,294.61589 377.29187,287.62671 382.8977,281.92551 C 389.3102,275.2919 396.14467,269.06876 403.21787,263.14751 C 410.4861,257.4091 417.49419,251.28806 425.41087,246.43204 C 440.20467,236.45596 455.33408,226.99454 470.33534,217.33698 C 521.54797,185.66544 577.04578,161.87236 632.42619,138.59639 C 653.98015,129.02306 676.43236,121.73789 698.49741,113.47203 C 717.1507,106.19444 736.65399,101.48421 755.72359,95.464645 C 778.40837,88.384705 801.47386,82.634003 824.28067,75.969269 C 842.51476,70.477982 861.0762,66.180069 879.56351,61.640015 C 906.42679,54.878815 933.75423,50.230148 960.87181,44.62973 C 992.06514,37.944031 1023.3993,31.886703 1054.4212,24.418365 C 1059.5633,23.167496 1064.7069,21.769287 1069.5854,19.677338 C 1071.2094,19.113007 1072.0559,17.576843 1071.1741,15.979446 C 1064.8712,15.354385 1058.5083,15.932709 1052.2437,16.650833 C 1047.6939,17.083618 1043.6619,19.846375 1039.0401,19.724182 C 1034.8069,19.697586 1030.6574,18.742645 1026.4587,18.385284 C 1019.5411,17.209717 1012.6056,19.07605 1005.6635,18.632812 C 1007.5836,17.803436 1009.5551,17.090546 1011.5422,16.393539 C 1011.6241,15.401932 1011.7229,14.410919 1011.8385,13.420517 C 1007.4725,12.484497 1003.0452,12.949432 998.75438,13.973892 C 993.99165,15.233215 989.21347,13.610962 984.43367,13.551682 C 980.99037,13.623505 977.74303,11.956451 974.29575,12.345596 C 969.88815,12.668472 965.75024,14.294922 961.59863,15.648575 C 954.26222,17.262451 946.82608,18.412857 939.56094,20.33493 C 934.9248,21.711746 929.89768,20.712006 925.37778,22.51886 C 920.92278,24.394516 915.99812,22.918304 911.34126,23.49263 C 908.58707,24.008636 906.64792,21.269211 903.97894,21.3918 C 900.14175,21.536041 896.6348,23.299332 892.93819,24.121414 C 889.91809,24.521942 888.33109,27.679993 885.38226,28.208542 C 879.30893,29.560135 873.05092,29.593323 866.86632,29.749985 C 870.8166,27.522858 874.89345,25.497787 879.28424,24.278 C 885.22812,20.949966 890.52724,16.110062 897.28499,14.385712 C 908.00166,11.109619 918.83087,8.197159 929.48564,4.712875 C 929.58351,3.141022 929.69342,1.569458 929.84634,0 L 1181,0 L 1181,629.96481 C 1167.4089,630.08727 1153.8181,629.88507 1140.2316,630.07083 C 1134.7693,653.41313 1128.5545,676.5862 1123.7307,700.07388 C 1122.7387,676.65324 1119.1299,653.43457 1117.1936,630.08836 C 1098.9166,629.94041 1080.6349,629.93166 1062.3606,630.09492 C 1051.6165,672.69607 1040.1377,715.12041 1029.5563,757.7588 C 1043.2634,757.64174 1056.9729,757.77563 1070.6835,757.68002 C 1076.3979,734.35938 1081.7741,710.9518 1087.6979,687.68601 C 1089.0338,711.09776 1092.334,734.33768 1094.5629,757.67259 C 1112.3806,757.76738 1130.2,757.66232 1148.0205,757.73877 C 1154.2171,734.54286 1160.0436,711.24977 1166.1604,688.03314 C 1171.1429,669.18979 1175.6509,650.2137 1181,631.47315 L 1181,761 L 706.45346,761 C 721.65039,760.36058 737.93428,757.17244 749.3407,746.34428 C 759.25954,736.78033 762.67328,722.86002 766.19098,710.02133 C 773.08798,683.3709 779.959,656.71397 786.84103,630.06056 C 771.21716,629.96403 755.59106,629.94237 739.96965,630.07556 C 732.25931,660.02327 724.36816,689.92548 716.86601,719.92653 C 715.5311,724.87404 713.91885,730.40018 709.28731,733.27254 C 704.81734,736.42943 697.84885,734.43278 695.84468,729.31648 C 693.7731,723.58278 695.98528,717.55963 697.12199,711.88165 C 703.70921,684.49664 711.22174,657.33867 718.06212,630.01543 C 702.38849,629.98845 686.71512,629.97263 671.04341,630.03583 C 665.02335,653.27925 659.02837,676.52918 653.0307,699.77914 C 650.1049,711.29526 646.55743,723.26175 649.0042,735.21584 C 650.70996,743.70494 657.16482,750.49286 664.75029,754.26251 C 674.86424,759.41586 686.38991,760.45579 697.55289,761 L 419.25287,761 C 428.04363,759.46156 436.59154,755.78008 442.82561,749.24295 C 441.96167,752.01945 441.20654,754.83084 440.57277,757.6767 C 454.91771,757.74776 469.26436,757.72569 483.61092,757.68172 C 489.61629,734.12329 495.81262,710.61493 501.82906,687.06029 C 482.76353,686.98167 463.69243,686.87616 444.62975,687.1161 C 442.75456,694.75896 440.60844,702.3344 438.7426,709.98268 C 443.39423,710.01135 448.04759,709.97661 452.70346,710.04097 C 450.92198,716.83234 449.37649,723.81899 446.1076,730.08685 C 442.05432,737.85722 431.05106,741.02962 423.5936,736.37015 C 419.0542,733.1843 418.50737,727.04395 418.81513,721.96997 C 419.63286,711.75261 422.72035,701.91238 424.94806,691.95378 C 427.62729,681.18071 430.40866,670.31821 435.31377,660.30597 C 437.66525,655.61969 441.35344,651.02339 446.69255,649.76445 C 450.84741,648.53947 456.28303,649.51444 458.32872,653.74893 C 460.84857,659.33238 458.6477,665.50717 457.70767,671.20404 C 473.09322,671.34547 488.48344,671.30803 503.87091,671.21898 C 505.93472,661.74748 506.34958,650.89731 500.28972,642.73344 C 493.07173,633.08229 480.72382,629.59924 469.36737,627.78206 C 451.49565,625.44664 432.62195,625.5807 415.73911,632.59241 C 403.61847,637.70013 394.58511,648.16408 388.7437,659.70076 C 381.93373,673.15364 378.57301,687.99559 375.84767,702.72981 C 374.24254,712.24225 373.23558,722.01479 374.63263,731.62132 C 376.06163,740.60986 380.73596,749.45589 388.57831,754.40698 C 394.2374,758.19373 400.90735,760.1028 407.60323,761 L 0,761 L 0,0 z "
     style="fill:none;stroke:#fdfdfd;stroke-width:0.1;stroke-linecap:butt;stroke-linejoin:miter;stroke-miterlimit:10" />
  <g
     id="g5256">
    <path
       style="fill:none;stroke:#110c0f;stroke-width:0.1;stroke-linecap:butt;stroke-linejoin:miter;stroke-miterlimit:10"
       d="M 706.44791,592.49928 C 714.95349,592.46101 723.46106,592.53459 731.97017,592.45172 C 729.62941,601.83052 727.2178,611.19704 724.7039,620.53354 C 716.26553,620.47259 707.82907,620.53145 699.39438,620.51433 C 701.67119,611.15648 704.09775,601.83711 706.44791,592.49928 z "
       id="path50"
       inkscape:export-filename="C:\Dokumente und Einstellungen\chris\Desktop\path100.png"
       inkscape:export-xdpi="300"
       inkscape:export-ydpi="300" />
    <path
       style="fill:none;stroke:#110c0f;stroke-width:0.1;stroke-linecap:butt;stroke-linejoin:miter;stroke-miterlimit:10"
       d="M 742.54588,592.51062 C 751.04269,592.46904 759.54137,592.49503 768.04219,592.48602 C 765.79816,601.8631 763.41208,611.21301 760.95766,620.53908 C 752.43971,620.48766 743.92354,620.50934 735.40942,620.53201 C 737.87024,611.21161 740.11754,601.83754 742.54588,592.51062 z "
       id="path54"
       inkscape:export-filename="C:\Dokumente und Einstellungen\chris\Desktop\path100.png"
       inkscape:export-xdpi="300"
       inkscape:export-ydpi="300" />
    <path
       style="fill:none;stroke:#110c0f;stroke-width:0.1;stroke-linecap:butt;stroke-linejoin:miter;stroke-miterlimit:10"
       d="M 415.73911,632.59241 C 432.62195,625.5807 451.49565,625.44664 469.36737,627.78206 C 480.72382,629.59924 493.07173,633.08229 500.28972,642.73344 C 506.34958,650.89731 505.93472,661.74748 503.87091,671.21898 C 488.48344,671.30803 473.09322,671.34547 457.70767,671.20404 C 458.6477,665.50717 460.84857,659.33238 458.32872,653.74893 C 456.28303,649.51444 450.84741,648.53947 446.69255,649.76445 C 441.35344,651.02339 437.66525,655.61969 435.31377,660.30597 C 430.40866,670.31821 427.62729,681.18071 424.94806,691.95378 C 422.72035,701.91238 419.63286,711.75261 418.81513,721.96997 C 418.50737,727.04395 419.0542,733.1843 423.5936,736.37015 C 431.05106,741.02962 442.05432,737.85722 446.1076,730.08685 C 449.37649,723.81899 450.92198,716.83234 452.70346,710.04097 C 448.04759,709.97661 443.39423,710.01135 438.7426,709.98268 C 440.60844,702.3344 442.75456,694.75896 444.62975,687.1161 C 463.69243,686.87616 482.76353,686.98167 501.82906,687.06029 C 495.81262,710.61493 489.61629,734.12329 483.61092,757.68172 C 469.26436,757.72569 454.91771,757.74776 440.57277,757.6767 C 441.20654,754.83084 441.96167,752.01945 442.82561,749.24295 C 436.59154,755.78008 428.04363,759.46156 419.25287,761 L 407.60323,761 C 400.90735,760.1028 394.2374,758.19373 388.57831,754.40698 C 380.73596,749.45589 376.06163,740.60986 374.63263,731.62132 C 373.23558,722.01479 374.24254,712.24225 375.84767,702.72981 C 378.57301,687.99559 381.93373,673.15364 388.7437,659.70076 C 394.58511,648.16408 403.61847,637.70013 415.73911,632.59241 z "
       id="path58"
       inkscape:export-filename="C:\Dokumente und Einstellungen\chris\Desktop\path100.png"
       inkscape:export-xdpi="300"
       inkscape:export-ydpi="300" />
    <path
       style="fill:#000000;fill-rule:nonzero;stroke:none"
       d="M 415.73911,632.59241 C 432.62195,625.5807 451.49565,625.44664 469.36737,627.78206 C 480.72382,629.59924 493.07173,633.08229 500.28972,642.73344 C 506.34958,650.89731 505.93472,661.74748 503.87091,671.21898 C 488.48344,671.30803 473.09322,671.34547 457.70767,671.20404 C 458.6477,665.50717 460.84857,659.33238 458.32872,653.74893 C 456.28303,649.51444 450.84741,648.53947 446.69255,649.76445 C 441.35344,651.02339 437.66525,655.61969 435.31377,660.30597 C 430.40866,670.31821 427.62729,681.18071 424.94806,691.95378 C 422.72035,701.91238 419.63286,711.75261 418.81513,721.96997 C 418.50737,727.04395 419.0542,733.1843 423.5936,736.37015 C 431.05106,741.02962 442.05432,737.85722 446.1076,730.08685 C 449.37649,723.81899 450.92198,716.83234 452.70346,710.04097 C 448.04759,709.97661 443.39423,710.01135 438.7426,709.98268 C 440.60844,702.3344 442.75456,694.75896 444.62975,687.1161 C 463.69243,686.87616 482.76353,686.98167 501.82906,687.06029 C 495.81262,710.61493 489.61629,734.12329 483.61092,757.68172 C 469.26436,757.72569 454.91771,757.74776 440.57277,757.6767 C 441.20654,754.83084 441.96167,752.01945 442.82561,749.24295 C 436.59154,755.78008 428.04363,759.46156 419.25287,761 L 407.60323,761 C 400.90735,760.1028 394.2374,758.19373 388.57831,754.40698 C 380.73596,749.45589 376.06163,740.60986 374.63263,731.62132 C 373.23558,722.01479 374.24254,712.24225 375.84767,702.72981 C 378.57301,687.99559 381.93373,673.15364 388.7437,659.70076 C 394.58511,648.16408 403.61847,637.70013 415.73911,632.59241 z "
       id="path60"
       inkscape:export-filename="C:\Dokumente und Einstellungen\chris\Desktop\path100.png"
       inkscape:export-xdpi="300"
       inkscape:export-ydpi="300" />
    <path
       style="fill:none;stroke:#110c0f;stroke-width:0.1;stroke-linecap:butt;stroke-linejoin:miter;stroke-miterlimit:10"
       d="M 32.555649,630.1418 C 46.364685,629.80688 60.186279,630.09351 74.000565,629.99989 C 86.807877,630.14973 99.725494,629.40211 112.42418,631.45238 C 121.2784,632.87105 130.06029,637.34775 134.91026,645.12958 C 140.53415,653.95557 140.73946,664.89302 140.06505,675.00359 C 138.71823,689.16362 135.45534,703.16357 130.48178,716.48906 C 125.5433,730.29451 117.4976,744.08658 104.00902,750.99185 C 89.293533,758.87473 72.129456,757.69469 55.999237,757.69635 C 37.574127,757.68578 19.147842,757.78998 0.723694,757.65791 C 0.877823,755.77994 0.923248,753.90221 1.280609,752.06786 C 11.628006,711.40674 22.324707,670.83087 32.555649,630.1418 z "
       id="path62"
       inkscape:export-filename="C:\Dokumente und Einstellungen\chris\Desktop\path100.png"
       inkscape:export-xdpi="300"
       inkscape:export-ydpi="300" />
    <path
       style="fill:#000000;fill-rule:nonzero;stroke:none"
       d="M 53.275,629.975 C 46.366686,629.95691 39.454518,629.98254 32.55,630.15 C 22.319058,670.83907 11.622397,711.41386 1.275,752.075 C 0.91763904,753.90935 0.87912904,755.77202 0.725,757.65 C 19.149148,757.78206 37.57489,757.68944 56,757.7 C 72.130219,757.69834 89.284512,758.88288 104,751 C 117.48858,744.09473 125.53653,730.30545 130.475,716.5 C 135.44856,703.17451 138.72818,689.16006 140.075,675 C 140.74941,664.88943 140.52388,653.95098 134.9,645.125 C 130.05002,637.34317 121.27922,632.86866 112.425,631.45 C 99.726312,629.39974 86.807312,630.14983 74,630 C 67.092857,630.04681 60.183314,629.99309 53.275,629.975 z M 78.8,651.5 C 83.611056,651.43938 88.5174,651.55155 92.45,654.525 C 96.442016,658.59546 96.275952,664.81718 95.8,670.1 C 94.53252,680.72597 92.125784,691.19827 89.45,701.55 C 86.603528,711.6463 83.017952,721.99306 75.95,729.975 C 69.907932,736.42126 60.427247,736.41929 52.25,736.275 C 59.331028,707.9818 66.899182,679.80106 74.05,651.525 C 75.586664,651.5643 77.196314,651.52021 78.8,651.5 z "
       id="path64" />
    <path
       style="fill:none;stroke:#110c0f;stroke-width:0.1;stroke-linecap:butt;stroke-linejoin:miter;stroke-miterlimit:10"
       d="M 171.77406,630.04535 C 187.50085,629.97098 203.22977,629.96655 218.95705,630.04881 C 208.01396,672.62955 197.03018,715.20598 185.87705,757.73148 C 170.21521,757.66245 154.55301,757.74171 138.89171,757.70302 C 149.51793,715.07301 160.87627,672.61226 171.77406,630.04535 z "
       id="path66"
       inkscape:export-filename="C:\Dokumente und Einstellungen\chris\Desktop\path100.png"
       inkscape:export-xdpi="300"
       inkscape:export-ydpi="300" />
    <path
       style="fill:#000000;fill-rule:nonzero;stroke:none"
       d="M 171.77406,630.04535 C 187.50085,629.97098 203.22977,629.96655 218.95705,630.04881 C 208.01396,672.62955 197.03018,715.20598 185.87705,757.73148 C 170.21521,757.66245 154.55301,757.74171 138.89171,757.70302 C 149.51793,715.07301 160.87627,672.61226 171.77406,630.04535 z "
       id="path68"
       inkscape:export-filename="C:\Dokumente und Einstellungen\chris\Desktop\path100.png"
       inkscape:export-xdpi="300"
       inkscape:export-ydpi="300" />
    <path
       style="fill:none;stroke:#110c0f;stroke-width:0.1;stroke-linecap:butt;stroke-linejoin:miter;stroke-miterlimit:10"
       d="M 243.18155,630.05273 C 272.56906,629.95309 301.95902,629.9892 331.34746,630.03566 C 329.09064,638.84563 326.79898,647.65057 324.50096,656.45076 L 323.83638,656.90277 C 309.9671,657.22058 296.077,656.78184 282.20425,657.11295 C 280.54002,664.08559 278.64011,670.99999 276.97113,677.97461 C 289.74303,678.04698 302.51572,677.95076 315.28861,678.02576 C 313.15663,687.00694 310.50772,695.85953 308.41681,704.85213 C 295.55187,705.19698 282.67578,704.89804 269.8071,705.01309 C 267.66414,713.50504 265.38918,721.965 263.27289,730.46666 C 278.09978,730.4938 292.92769,730.53143 307.75531,730.44553 C 305.52632,739.5594 302.94321,748.584 300.72881,757.70415 C 270.53195,757.69463 240.33522,757.73389 210.13892,757.68581 C 221.12761,715.13473 232.16304,672.59578 243.18155,630.05273 z "
       id="path70"
       inkscape:export-filename="C:\Dokumente und Einstellungen\chris\Desktop\path100.png"
       inkscape:export-xdpi="300"
       inkscape:export-ydpi="300" />
    <path
       style="fill:#000000;fill-rule:nonzero;stroke:none"
       d="M 243.18155,630.05273 C 272.56906,629.95309 301.95902,629.9892 331.34746,630.03566 C 329.09064,638.84563 326.79898,647.65057 324.50096,656.45076 L 323.83638,656.90277 C 309.9671,657.22058 296.077,656.78184 282.20425,657.11295 C 280.54002,664.08559 278.64011,670.99999 276.97113,677.97461 C 289.74303,678.04698 302.51572,677.95076 315.28861,678.02576 C 313.15663,687.00694 310.50772,695.85953 308.41681,704.85213 C 295.55187,705.19698 282.67578,704.89804 269.8071,705.01309 C 267.66414,713.50504 265.38918,721.965 263.27289,730.46666 C 278.09978,730.4938 292.92769,730.53143 307.75531,730.44553 C 305.52632,739.5594 302.94321,748.584 300.72881,757.70415 C 270.53195,757.69463 240.33522,757.73389 210.13892,757.68581 C 221.12761,715.13473 232.16304,672.59578 243.18155,630.05273 z "
       id="path72"
       inkscape:export-filename="C:\Dokumente und Einstellungen\chris\Desktop\path100.png"
       inkscape:export-xdpi="300"
       inkscape:export-ydpi="300" />
    <path
       style="fill:none;stroke:#110c0f;stroke-width:0.1;stroke-linecap:butt;stroke-linejoin:miter;stroke-miterlimit:10"
       d="M 540.11913,630.00079 C 563.7491,629.9975 587.37964,630.00375 611.01059,629.99724 C 620.03754,630.19931 629.73646,631.20137 637.16559,636.84647 C 642.2643,640.57268 645.28163,646.69794 645.64464,652.95662 C 646.90859,667.16873 639.00293,681.71193 626.40144,688.39363 C 621.34839,691.32742 615.56273,692.56291 609.83019,693.29964 C 616.02704,695.24396 622.01427,699.15051 624.56377,705.36816 C 628.50844,714.75069 626.6324,725.15808 626.35635,735.00644 C 626.08612,742.55429 623.52454,751.25388 628.63536,757.78856 C 612.86546,757.51401 597.08133,757.92152 581.3185,757.61102 C 578.57169,755.7477 578.02736,752.1377 578.02727,749.07303 C 578.63585,738.3598 580.31314,727.71324 580.38048,716.97055 C 580.44066,713.71747 579.43105,710.2621 576.92851,708.06938 C 574.0941,705.72365 570.2142,705.77785 566.74738,705.58414 C 562.03276,722.85545 557.72797,740.24144 553.29335,757.58844 C 537.91833,757.88213 522.53519,757.61815 507.15811,757.72389 C 517.91484,715.09376 529.15523,672.58021 540.11913,630.00079 z "
       id="path74"
       inkscape:export-filename="C:\Dokumente und Einstellungen\chris\Desktop\path100.png"
       inkscape:export-xdpi="300"
       inkscape:export-ydpi="300" />
    <path
       style="fill:#000000;fill-rule:nonzero;stroke:none"
       d="M 540.125,630 C 529.1611,672.57942 517.90674,715.09489 507.15,757.725 C 522.52707,757.61926 537.92498,757.8937 553.3,757.6 C 557.73462,740.253 562.0354,722.84632 566.75,705.575 C 570.21682,705.76871 574.09058,705.72926 576.925,708.075 C 579.42754,710.26772 580.43519,713.72191 580.375,716.975 C 580.30766,727.71769 578.6336,738.36175 578.025,749.075 C 578.0251,752.13966 578.57818,755.73666 581.325,757.6 C 597.08783,757.9105 612.85511,757.52543 628.625,757.8 C 623.51418,751.26532 626.07978,742.54785 626.35,735 C 626.62605,725.15164 628.51967,714.75752 624.575,705.375 C 622.0255,699.15735 616.02186,695.2443 609.825,693.3 C 615.55754,692.56327 621.34693,691.33377 626.4,688.4 C 639.00149,681.7183 646.91396,667.16209 645.65,652.95 C 645.28699,646.69132 642.27372,640.57619 637.175,636.85 C 629.74588,631.2049 620.02694,630.2021 611,630 C 587.36905,630.00651 563.75496,629.99672 540.125,630 z M 584.3,651.275 C 588.14273,651.2406 592.08161,651.42295 595.15,653.9 C 598.92986,657.35554 598.24819,663.06716 597.35,667.6 C 596.02985,673.25766 593.78636,679.51222 588.425,682.525 C 583.48569,685.3869 577.58333,684.66294 572.125,684.675 C 574.80352,673.52088 577.92304,662.47118 580.525,651.3 C 581.74839,651.31822 583.01909,651.28646 584.3,651.275 z "
       id="path76" />
    <path
       style="fill:none;stroke:#110c0f;stroke-width:0.1;stroke-linecap:butt;stroke-linejoin:miter;stroke-miterlimit:10"
       d="M 671.04341,630.03583 C 686.71512,629.97263 702.38849,629.98845 718.06212,630.01543 C 711.22174,657.33867 703.70921,684.49664 697.12199,711.88165 C 695.98528,717.55963 693.7731,723.58278 695.84468,729.31648 C 697.84885,734.43278 704.81734,736.42943 709.28731,733.27254 C 713.91885,730.40018 715.5311,724.87404 716.86601,719.92653 C 724.36816,689.92548 732.25931,660.02327 739.96965,630.07556 C 755.59106,629.94237 771.21716,629.96403 786.84103,630.06056 C 779.959,656.71397 773.08798,683.3709 766.19098,710.02133 C 762.67328,722.86002 759.25954,736.78033 749.3407,746.34428 C 737.93428,757.17244 721.65039,760.36058 706.45346,761 L 697.55289,761 C 686.38991,760.45579 674.86424,759.41586 664.75029,754.26251 C 657.16482,750.49286 650.70996,743.70494 649.0042,735.21584 C 646.55743,723.26175 650.1049,711.29526 653.0307,699.77914 C 659.02837,676.52918 665.02335,653.27925 671.04341,630.03583 z "
       id="path78"
       inkscape:export-filename="C:\Dokumente und Einstellungen\chris\Desktop\path100.png"
       inkscape:export-xdpi="300"
       inkscape:export-ydpi="300" />
    <path
       id="path52"
       style="fill:#000000;fill-rule:nonzero;stroke:none"
       d="M 706.44791,592.49928 C 714.95349,592.46101 723.46106,592.53459 731.97017,592.45172 C 729.62941,601.83052 727.2178,611.19704 724.7039,620.53354 C 716.26553,620.47259 707.82907,620.53145 699.39438,620.51433 C 701.67119,611.15648 704.09775,601.83711 706.44791,592.49928 z M 742.54588,592.51062 C 751.04269,592.46904 759.54137,592.49503 768.04219,592.48602 C 765.79816,601.8631 763.41208,611.21301 760.95766,620.53908 C 752.43971,620.48766 743.92354,620.50934 735.40942,620.53201 C 737.87024,611.21161 740.11754,601.83754 742.54588,592.51062 z M 671.04341,630.03583 C 686.71512,629.97263 702.38849,629.98845 718.06212,630.01543 C 711.22174,657.33867 703.70921,684.49664 697.12199,711.88165 C 695.98528,717.55963 693.7731,723.58278 695.84468,729.31648 C 697.84885,734.43278 704.81734,736.42943 709.28731,733.27254 C 713.91885,730.40018 715.5311,724.87404 716.86601,719.92653 C 724.36816,689.92548 732.25931,660.02327 739.96965,630.07556 C 755.59106,629.94237 771.21716,629.96403 786.84103,630.06056 C 779.959,656.71397 773.08798,683.3709 766.19098,710.02133 C 762.67328,722.86002 759.25954,736.78033 749.3407,746.34428 C 737.93428,757.17244 721.65039,760.36058 706.45346,761 L 697.55289,761 C 686.38991,760.45579 674.86424,759.41586 664.75029,754.26251 C 657.16482,750.49286 650.70996,743.70494 649.0042,735.21584 C 646.55743,723.26175 650.1049,711.29526 653.0307,699.77914 C 659.02837,676.52918 665.02335,653.27925 671.04341,630.03583 z " />
    <path
       style="fill:none;stroke:#110c0f;stroke-width:0.1;stroke-linecap:butt;stroke-linejoin:miter;stroke-miterlimit:10"
       d="M 810.5327,630.12552 C 828.80347,629.88504 847.08662,629.97626 865.36176,630.08252 C 867.48888,653.10716 870.41647,676.0694 872.18343,699.12431 C 876.7872,675.95746 883.1396,653.17837 888.3056,630.13481 C 901.96916,629.83737 915.64468,630.05043 929.31516,630.03156 C 918.38957,672.57889 907.23949,715.06984 896.36148,757.62924 C 878.48209,757.75607 860.59576,757.79588 842.71982,757.59375 C 840.41431,734.31062 837.46977,711.07356 835.6582,687.7567 C 830.18755,711.11731 824.44185,734.41467 818.8225,757.74132 C 805.14354,757.64186 791.46542,757.71567 777.78883,757.70532 C 788.2879,715.08067 799.8194,672.70106 810.5327,630.12552 z "
       id="path82"
       inkscape:export-filename="C:\Dokumente und Einstellungen\chris\Desktop\path100.png"
       inkscape:export-xdpi="300"
       inkscape:export-ydpi="300" />
    <path
       style="fill:#000000;fill-rule:nonzero;stroke:none"
       d="M 810.5327,630.12552 C 828.80347,629.88504 847.08662,629.97626 865.36176,630.08252 C 867.48888,653.10716 870.41647,676.0694 872.18343,699.12431 C 876.7872,675.95746 883.1396,653.17837 888.3056,630.13481 C 901.96916,629.83737 915.64468,630.05043 929.31516,630.03156 C 918.38957,672.57889 907.23949,715.06984 896.36148,757.62924 C 878.48209,757.75607 860.59576,757.79588 842.71982,757.59375 C 840.41431,734.31062 837.46977,711.07356 835.6582,687.7567 C 830.18755,711.11731 824.44185,734.41467 818.8225,757.74132 C 805.14354,757.64186 791.46542,757.71567 777.78883,757.70532 C 788.2879,715.08067 799.8194,672.70106 810.5327,630.12552 z "
       id="path84"
       inkscape:export-filename="C:\Dokumente und Einstellungen\chris\Desktop\path100.png"
       inkscape:export-xdpi="300"
       inkscape:export-ydpi="300" />
    <path
       style="fill:none;stroke:#110c0f;stroke-width:0.1;stroke-linecap:butt;stroke-linejoin:miter;stroke-miterlimit:10"
       d="M 953.4021,630.09746 C 982.82819,629.91342 1012.2621,629.97848 1041.691,630.0638 C 1039.4358,639.02611 1037.0087,647.94453 1034.7166,656.8988 C 1020.6539,657.21313 1006.5833,656.80102 992.52306,657.10217 C 990.88638,664.07123 989.02347,670.98614 987.24101,677.92119 C 1000.0222,678.11954 1012.8085,677.91721 1025.5944,678.02364 C 1023.4352,687.00604 1020.9766,695.91478 1018.6773,704.86379 C 1005.8654,705.21928 993.04352,704.83369 980.23158,705.06178 C 977.9659,713.498 975.78567,721.9576 973.5757,730.41042 C 988.37773,730.57272 1003.1842,730.48404 1017.9902,730.45885 C 1015.9202,739.61444 1013.3637,748.66171 1010.9432,757.7321 C 984.62686,757.66699 958.31136,757.72887 931.99658,757.71048 C 928.13493,757.66277 924.26511,757.91612 920.42798,757.48193 C 931.54387,715.05438 942.60669,672.60666 953.4021,630.09746 z "
       id="path86"
       inkscape:export-filename="C:\Dokumente und Einstellungen\chris\Desktop\path100.png"
       inkscape:export-xdpi="300"
       inkscape:export-ydpi="300" />
    <path
       style="fill:#000000;fill-rule:nonzero;stroke:none"
       d="M 953.4021,630.09746 C 982.82819,629.91342 1012.2621,629.97848 1041.691,630.0638 C 1039.4358,639.02611 1037.0087,647.94453 1034.7166,656.8988 C 1020.6539,657.21313 1006.5833,656.80102 992.52306,657.10217 C 990.88638,664.07123 989.02347,670.98614 987.24101,677.92119 C 1000.0222,678.11954 1012.8085,677.91721 1025.5944,678.02364 C 1023.4352,687.00604 1020.9766,695.91478 1018.6773,704.86379 C 1005.8654,705.21928 993.04352,704.83369 980.23158,705.06178 C 977.9659,713.498 975.78567,721.9576 973.5757,730.41042 C 988.37773,730.57272 1003.1842,730.48404 1017.9902,730.45885 C 1015.9202,739.61444 1013.3637,748.66171 1010.9432,757.7321 C 984.62686,757.66699 958.31136,757.72887 931.99658,757.71048 C 928.13493,757.66277 924.26511,757.91612 920.42798,757.48193 C 931.54387,715.05438 942.60669,672.60666 953.4021,630.09746 z "
       id="path88"
       inkscape:export-filename="C:\Dokumente und Einstellungen\chris\Desktop\path100.png"
       inkscape:export-xdpi="300"
       inkscape:export-ydpi="300" />
    <path
       style="fill:none;stroke:#110c0f;stroke-width:0.1;stroke-linecap:butt;stroke-linejoin:miter;stroke-miterlimit:10"
       d="M 1062.3606,630.09492 C 1080.6349,629.93166 1098.9166,629.94041 1117.1936,630.08836 C 1119.1299,653.43457 1122.7387,676.65324 1123.7307,700.07388 C 1128.5545,676.5862 1134.7693,653.41313 1140.2316,630.07083 C 1153.8181,629.88507 1167.4089,630.08727 1181,629.96481 L 1181,631.47315 C 1175.6509,650.2137 1171.1429,669.18979 1166.1604,688.03314 C 1160.0436,711.24977 1154.2171,734.54286 1148.0205,757.73877 C 1130.2,757.66232 1112.3806,757.76738 1094.5629,757.67259 C 1092.334,734.33768 1089.0338,711.09776 1087.6979,687.68601 C 1081.7741,710.9518 1076.3979,734.35938 1070.6835,757.68002 C 1056.9729,757.77563 1043.2634,757.64174 1029.5563,757.7588 C 1040.1377,715.12041 1051.6165,672.69607 1062.3606,630.09492 z "
       id="path90"
       inkscape:export-filename="C:\Dokumente und Einstellungen\chris\Desktop\path100.png"
       inkscape:export-xdpi="300"
       inkscape:export-ydpi="300" />
    <path
       style="fill:#000000;fill-rule:nonzero;stroke:none"
       d="M 1062.3606,630.09492 C 1080.6349,629.93166 1098.9166,629.94041 1117.1936,630.08836 C 1119.1299,653.43457 1122.7387,676.65324 1123.7307,700.07388 C 1128.5545,676.5862 1134.7693,653.41313 1140.2316,630.07083 C 1153.8181,629.88507 1167.4089,630.08727 1181,629.96481 L 1181,631.47315 C 1175.6509,650.2137 1171.1429,669.18979 1166.1604,688.03314 C 1160.0436,711.24977 1154.2171,734.54286 1148.0205,757.73877 C 1130.2,757.66232 1112.3806,757.76738 1094.5629,757.67259 C 1092.334,734.33768 1089.0338,711.09776 1087.6979,687.68601 C 1081.7741,710.9518 1076.3979,734.35938 1070.6835,757.68002 C 1056.9729,757.77563 1043.2634,757.64174 1029.5563,757.7588 C 1040.1377,715.12041 1051.6165,672.69607 1062.3606,630.09492 z "
       id="path92"
       inkscape:export-filename="C:\Dokumente und Einstellungen\chris\Desktop\path100.png"
       inkscape:export-xdpi="300"
       inkscape:export-ydpi="300" />
  </g>
  <path
     id="path16"
     style="fill:#6ca425;fill-opacity:1;fill-rule:nonzero;stroke:none"
     d="M 924.71618,0.053821482 C 910.26858,4.5828715 894.28158,1.0369115 880.21618,7.1538215 C 874.78463,8.3969715 869.11295,7.7960415 863.64119,8.8538215 C 853.69055,10.596741 843.73583,12.307171 833.81623,14.203821 C 826.22471,15.800671 818.37951,13.880991 810.81623,15.703821 C 797.99281,18.544201 785.17027,21.325461 772.34119,24.128821 C 766.65733,25.494651 760.70178,23.430971 755.09119,25.278821 C 738.48662,30.065441 721.89161,34.844701 705.26619,39.553821 C 703.60793,40.049041 701.99321,40.662941 700.46619,41.453821 C 695.98731,44.003591 690.81873,44.859921 685.91619,46.228821 C 687.64085,45.097901 689.41336,44.041271 691.19119,42.978821 C 690.86947,41.731171 690.56596,40.476301 690.26619,39.228821 C 685.38211,40.875641 680.11526,41.255461 675.46619,43.578821 C 668.40836,47.039011 660.48662,47.779201 653.04119,50.028821 C 651.98546,49.253601 650.95308,48.458411 649.91619,47.678821 C 645.31005,49.277361 640.22347,49.542311 636.01619,52.178821 C 630.07883,55.873001 622.78891,55.203021 616.26619,57.053821 C 609.28891,58.450321 603.45953,62.972341 596.46619,64.303821 C 590.46254,65.416641 585.19366,68.585001 579.74119,71.128821 C 576.72989,72.748601 572.98378,71.355511 570.09119,73.203821 C 565.22251,76.316711 559.89687,78.623281 554.96619,81.628821 C 553.33428,81.212471 551.73393,80.774601 550.11619,80.353821 C 551.36268,83.729341 549.43487,86.665111 547.46619,89.253821 C 547.74411,86.680181 548.03273,84.110881 548.21619,81.528821 C 543.39711,81.910561 539.16289,85.495021 534.24119,83.903821 C 530.23717,85.539841 526.80543,88.434021 522.51619,89.428821 C 515.80221,91.171021 509.34136,93.808161 503.34119,97.278821 C 491.50993,101.77949 479.78526,106.89364 469.21619,113.90382 C 466.12418,114.6954 463.544,116.4864 461.76619,119.15382 C 458.97775,119.53104 456.20513,119.98529 453.44119,120.47882 C 453.16736,121.8192 452.90036,123.15972 452.64119,124.50382 C 461.85677,125.10343 469.21249,118.69691 477.44119,115.67882 C 486.62321,112.42396 494.60253,106.33315 504.11619,103.95382 C 502.18685,105.88351 499.71039,106.99137 497.06619,107.52882 C 496.89227,109.25154 496.78921,110.98481 496.56619,112.70382 C 495.90712,111.66796 495.28664,110.5969 494.66619,109.55382 C 490.54933,110.16448 487.11683,112.64377 483.49119,114.47882 C 478.01313,117.53183 472.11037,119.71571 466.51619,122.52882 C 460.5849,125.45733 453.90985,126.05816 447.66619,128.00382 C 442.75858,129.97411 437.95056,132.21925 433.39119,134.90382 C 436.03551,135.22622 438.69457,135.45471 441.34119,135.82882 C 436.72349,138.22248 432.17773,134.82543 427.64119,134.00382 C 426.80473,135.41976 426.06156,136.91652 425.06619,138.22882 C 422.47205,140.38444 418.94223,141.19287 416.69119,143.80382 C 414.52432,146.29292 412.09723,148.66083 409.01619,149.97882 C 405.40297,151.89043 401.22212,152.05972 397.44119,153.45382 C 394.59715,155.80882 393.09922,159.61307 389.69119,161.32882 C 388.31743,161.57711 387.03873,160.56292 385.74119,160.25382 C 385.70732,162.09855 385.71365,163.93044 385.69119,165.77882 C 383.74934,166.56672 381.88842,167.62603 379.84119,168.10382 C 378.32001,167.62439 377.03876,166.27848 375.41619,166.27882 C 373.16163,169.18631 369.90385,171.04777 367.69119,173.97882 C 365.29184,177.04728 361.45149,178.31277 358.24119,180.30382 C 340.6622,190.03708 326.82325,204.88556 312.06619,218.22882 C 307.76663,221.97739 305.05486,227.28048 300.19119,230.40382 C 296.99089,232.30012 296.08646,236.21051 293.56619,238.75382 C 289.68512,242.96272 286.42283,247.76875 284.14119,253.02882 C 282.6971,256.31888 282.62157,260.03774 281.06619,263.27882 C 278.66507,266.28462 274.79833,267.50023 272.06619,270.12882 C 269.16618,273.3911 269.52828,278.06728 269.14119,282.12882 C 270.66603,281.92252 272.18509,281.70244 273.71619,281.50382 C 272.01509,284.83646 270.70073,288.3443 269.41619,291.85382 C 268.21973,295.26375 264.72129,298.10615 265.89119,302.05382 C 267.30217,308.98203 267.17053,316.37771 270.41619,322.80382 C 270.73438,324.32121 270.34435,325.88765 270.34119,327.42882 C 270.96628,326.97649 272.21608,326.08114 272.84119,325.62882 C 273.9973,329.06705 275.07338,332.52906 275.74119,336.10382 C 274.21637,333.92608 272.82846,331.6582 271.31619,329.47882 C 271.19568,333.3258 271.78232,337.50158 274.36619,340.52882 C 276.22437,342.7595 277.84985,345.157 279.41619,347.60382 C 283.50292,354.03921 288.32395,359.97152 293.06619,365.92882 C 301.2393,376.36751 310.68457,385.97976 321.79119,393.30382 C 338.57291,404.91456 357.68002,412.73691 377.11619,418.67882 C 424.03325,432.30947 473.54751,434.27816 522.01619,430.50382 C 568.5401,427.45579 614.42333,417.68602 658.94119,404.05382 C 695.32344,392.69608 730.91066,378.79523 765.39119,362.55382 C 789.84506,351.36481 814.28119,340.15262 838.74119,328.97882 C 842.79759,327.10266 845.82111,323.61128 849.94119,321.82882 C 847.15447,324.44877 844.16199,326.83844 841.51623,329.60382 C 841.96431,330.18707 842.86783,331.34558 843.31623,331.92882 C 837.45215,336.72078 830.62527,340.11384 824.76623,344.90382 C 812.13135,352.82876 798.90002,359.75832 785.96619,367.17882 C 781.99668,369.4446 778.35847,372.27401 774.19119,374.17882 C 767.60885,377.02584 761.57774,380.948 755.31619,384.40382 C 747.63737,388.85547 739.66051,392.82613 732.31619,397.82882 C 733.21381,398.50124 734.11851,399.17987 735.04119,399.85382 C 734.74787,401.02571 734.4631,402.19046 734.21619,403.37882 C 741.19133,402.02192 748.25701,400.35022 754.36619,396.55382 C 762.985,391.26317 772.27716,387.21684 781.06619,382.22882 C 788.59113,378.41121 795.27567,372.93832 803.29119,370.10382 C 800.19367,373.38527 795.80815,374.82599 792.01619,377.07882 C 785.44539,380.88655 778.54112,384.11517 772.16619,388.25382 C 768.27442,390.81705 763.66827,392.11966 760.09119,395.17882 C 755.26041,399.60535 748.44141,400.49643 743.14119,404.17882 C 733.31883,408.77096 723.84508,414.17295 713.64119,417.90382 C 710.68219,418.94554 708.99117,421.82211 706.19119,423.12882 C 702.67434,424.98064 697.83138,425.76356 696.64119,430.20382 C 702.42909,431.30227 706.77297,426.72808 712.01619,425.27882 C 722.54313,422.02136 731.44343,414.98908 742.04119,411.90382 C 734.11883,416.67036 725.82446,420.87236 717.26619,424.37882 C 713.93533,425.76264 711.25737,428.37052 707.84119,429.55382 C 700.67877,431.87348 693.59821,434.57384 686.99119,438.20382 C 691.32469,440.80819 696.82734,440.38744 700.86619,437.42882 C 703.23061,438.64019 705.88338,440.03859 708.56619,438.82882 C 718.1829,435.49415 727.71093,431.63388 736.41619,426.30382 C 734.96538,428.20968 733.4406,430.27557 731.04119,431.00382 C 724.04267,433.55828 717.43538,437.11944 710.31619,439.35382 C 706.89067,440.636 703.16948,441.2961 700.04119,443.25382 C 697.18669,445.69217 695.09183,448.8727 692.26619,451.35382 C 688.53213,454.63969 686.21001,459.47641 681.66619,461.80382 C 676.77787,464.14956 671.75411,466.878 668.31619,471.15382 C 667.17758,475.55652 665.8222,479.90035 664.14119,484.12882 C 664.58493,488.19164 666.26618,491.97232 667.46619,495.85382 C 672.18935,496.00142 676.98939,493.77718 681.59119,495.65382 C 684.70015,496.41772 688.00211,498.94439 691.19119,497.10382 C 695.2447,495.16643 699.23459,493.0552 703.54119,491.70382 C 715.14601,487.96157 725.6705,481.59956 736.99119,477.15382 C 740.82203,475.65468 744.82002,474.59736 748.51619,472.75382 C 753.36427,470.40722 757.22325,466.45545 762.11619,464.17882 C 768.86621,461.03359 776.05929,458.66576 782.19119,454.32882 C 786.99855,450.9401 792.62746,448.97949 797.49119,445.67882 C 802.99615,441.89652 809.75327,440.40915 814.96623,436.12882 C 819.01407,432.75683 824.65535,432.19264 828.56623,428.62882 C 833.04143,425.00032 837.99055,422.04959 842.79119,418.87882 C 846.38167,416.4048 850.80335,415.15516 853.84119,411.90382 C 857.89167,407.74978 863.35991,405.54341 868.11623,402.35382 C 872.66959,399.68176 876.51479,396.02516 880.31618,392.40382 C 884.64068,388.29954 890.11988,385.67456 894.39118,381.50382 C 900.08098,375.51196 906.76248,370.5304 912.09118,364.17882 C 917.47498,359.57236 922.38538,354.41728 926.26618,348.45382 C 927.97808,345.56544 930.60838,343.47618 932.94118,341.12882 C 934.45588,338.5187 935.27188,335.54635 936.79118,332.92882 C 940.31658,326.60185 944.78678,320.84723 948.11618,314.40382 C 955.57698,298.64755 964.69318,283.53315 969.56618,266.67882 C 970.87818,261.90368 973.88018,257.67949 974.31618,252.65382 C 975.28958,245.07189 977.04078,237.11932 974.49118,229.65382 C 972.72458,224.35216 969.94818,219.08132 965.39118,215.67882 C 958.71588,211.33333 951.08108,208.53602 943.19118,207.50382 C 939.57698,205.99828 935.84618,204.83885 931.89118,204.82882 C 924.69418,204.61202 917.77498,202.52905 910.76618,201.15382 C 908.49938,200.52085 906.77468,202.5823 904.89118,203.42882 C 904.61068,202.05263 904.34448,200.67578 904.09118,199.30382 C 903.27298,199.6428 902.44058,199.97094 901.64118,200.30382 C 901.50378,201.48529 901.39828,202.66632 901.29118,203.85382 C 887.47318,205.39316 873.52495,204.25584 859.76623,202.67882 C 861.26879,202.51028 862.79095,202.3591 864.31623,202.20382 C 864.34911,200.30642 864.37783,198.42127 864.41623,196.52882 C 857.07343,196.65804 849.66511,196.67296 842.46623,198.27882 C 829.70959,200.51654 816.80575,201.78468 803.94119,203.20382 C 798.03871,203.93626 791.83225,203.12419 786.24119,205.52882 C 782.59892,207.11726 778.77806,204.78212 775.01619,205.35382 C 769.91061,205.51532 763.78777,207.20605 761.81619,212.47882 C 764.74965,212.59363 767.70866,212.48997 770.54119,211.60382 C 776.45829,209.72577 782.78975,211.25848 788.79119,209.85382 C 795.41846,208.24925 802.18975,207.31444 808.99119,206.82882 C 811.75863,206.47506 814.25087,207.86252 816.74119,208.85382 C 822.17463,204.37259 829.59455,206.28268 835.94119,207.05382 C 840.99431,208.16812 846.45351,207.87836 851.16623,210.25382 C 840.11535,212.21743 828.70479,212.08776 817.89119,215.32882 C 801.83719,216.5469 785.7955,218.34032 769.94119,221.20382 C 762.23372,222.23118 754.73321,224.40245 746.99119,225.17882 C 730.10608,226.9414 713.20589,228.47101 696.36619,230.62882 C 693.08047,231.05906 689.87796,231.91821 686.66619,232.67882 C 682.25389,233.71888 677.6791,233.19764 673.21619,233.75382 C 665.64609,234.68285 658.68753,238.14059 651.21619,239.50382 C 646.33109,240.52497 641.32592,240.52026 636.41619,241.32882 C 632.88612,241.88359 629.56365,243.31394 626.01619,243.75382 C 620.17409,244.64796 614.22433,244.02133 608.39119,244.92882 C 604.13097,245.61762 601.1068,249.30782 596.84119,250.00382 C 591.92694,251.25884 586.5635,250.18498 581.84119,252.12882 C 574.85145,256.47854 566.20526,259.9842 562.84119,268.12882 C 560.9899,272.13578 560.88028,278.3939 565.71619,280.27882 C 573.68355,283.27268 582.35647,283.31436 590.74119,284.05382 C 607.76731,285.52608 624.8663,285.88154 641.94119,286.30382 C 650.20989,286.00374 658.50352,285.87172 666.76619,285.35382 C 687.02451,283.5758 707.17825,280.81375 727.46619,279.32882 C 742.57765,277.86968 757.7551,277.30432 772.89119,276.15382 C 777.23775,275.7303 781.59305,275.60256 785.96619,275.62882 C 780.66873,281.18995 773.74639,284.67184 767.06619,288.25382 C 752.01113,295.83498 736.09314,301.48322 720.24119,307.12882 C 687.61326,318.24624 654.5387,328.0889 621.06619,336.32882 C 601.00992,340.95913 580.70034,344.39496 560.39119,347.70382 C 535.75561,351.52192 510.86319,354.45119 485.89119,353.77882 C 458.98531,353.19052 431.81667,350.89991 405.94119,343.10382 C 393.03496,339.23 379.61936,333.81853 370.99119,322.97882 C 366.10049,317.03223 367.28442,308.6059 369.94119,301.95382 C 373.11186,294.65737 377.23536,287.68002 382.84119,281.97882 C 389.25368,275.34521 396.09299,269.12507 403.16619,263.20382 C 410.43442,257.46541 417.42449,251.33484 425.34119,246.47882 C 440.13498,236.50275 455.26492,227.0364 470.26619,217.37882 C 521.47882,185.70728 576.9858,161.9298 632.36619,138.65382 C 653.92014,129.08048 676.37613,121.79467 698.44119,113.52882 C 717.09448,106.25124 736.5966,101.54839 755.66619,95.528821 C 778.35097,88.448881 801.40903,82.693561 824.21623,76.028821 C 842.45031,70.537531 861.02863,66.243871 879.51623,61.703821 C 906.37948,54.942621 933.69828,50.279241 960.81618,44.678821 C 992.00948,37.993121 1023.344,31.947161 1054.3662,24.478821 C 1059.5083,23.227951 1064.6374,21.820771 1069.5162,19.728821 C 1071.1402,19.164491 1071.9978,17.626221 1071.1162,16.028821 C 1064.8134,15.403761 1058.4558,15.985701 1052.1912,16.703821 C 1047.6414,17.136611 1043.613,19.901011 1038.9912,19.778821 C 1034.7579,19.752221 1030.5899,18.786181 1026.3912,18.428821 C 1019.4736,17.253251 1012.5583,19.122061 1005.6162,18.678821 C 1007.5363,17.849441 1009.5041,17.150831 1011.4912,16.453821 C 1011.5731,15.462211 1011.6756,14.469221 1011.7912,13.478821 C 1007.4252,12.542801 1002.9819,13.004361 998.69118,14.028821 C 993.92848,15.288141 989.14598,13.663101 984.36618,13.603821 C 980.92288,13.675641 977.68858,12.014671 974.24118,12.403821 C 969.83358,12.726701 965.69278,14.350171 961.54118,15.703821 C 954.20478,17.317701 946.75628,18.456751 939.49118,20.378821 C 934.85498,21.755641 929.83588,20.771971 925.31618,22.578821 C 920.86118,24.454481 915.94798,22.979491 911.29118,23.553821 C 908.53698,24.069831 906.58518,21.331231 903.91618,21.453821 C 900.07898,21.598061 896.58778,23.356741 892.89118,24.178821 C 889.87108,24.579351 888.26488,27.725271 885.31618,28.253821 C 879.24287,29.605411 873.00047,29.647161 866.81623,29.803821 C 870.76647,27.576691 874.82503,25.548611 879.21623,24.328821 C 885.16008,21.000791 890.45838,16.153171 897.21618,14.428821 C 907.93288,11.152731 918.76128,8.2631015 929.41618,4.7788215 C 929.51408,3.2069715 929.63818,1.6232815 929.79118,0.053821482 L 924.71618,0.053821482 z M 677.31619,46.703821 C 678.05447,46.653731 678.79184,46.826301 679.39119,47.228821 C 679.66301,48.933121 674.06786,49.808361 675.29119,47.453821 C 675.84366,47.018821 676.57791,46.753911 677.31619,46.703821 z M 542.49119,85.803821 C 542.05414,86.656681 541.62697,87.505071 541.19119,88.353821 C 541.57586,89.384401 541.97765,90.426281 542.39119,91.453821 C 541.45773,91.531671 540.53582,91.610191 539.61619,91.678821 C 539.18805,90.885451 538.74097,90.089441 538.31619,89.303821 C 539.69883,88.136111 541.07992,86.946581 542.49119,85.803821 z M 531.09119,93.253821 C 527.80173,94.488771 524.44262,95.596411 520.94119,96.003821 C 521.0665,95.587991 521.31589,94.744671 521.44119,94.328821 C 524.56993,93.439801 527.863,93.477771 531.09119,93.253821 z M 513.04119,98.503821 C 514.19844,98.443081 515.33025,98.570521 516.44119,99.053821 C 513.0724,99.095801 509.76965,99.858481 507.06619,101.95382 C 507.11012,101.31 507.19728,100.02264 507.24119,99.378821 C 509.13404,99.207591 511.11245,98.605051 513.04119,98.503821 z M 273.04119,275.07882 C 274.01563,275.50528 274.99201,275.93001 275.96619,276.37882 C 275.48618,277.69257 274.94657,279.00126 274.31619,280.25382 C 273.82489,278.54298 273.40777,276.81308 273.04119,275.07882 z M 873.57162,200.64346 C 876.63897,196.33365 882.12758,197.30329 886.63778,197.57741 C 888.95538,198.65558 891.71998,200.42453 890.28598,203.34755 C 885.27598,200.16727 879.1898,201.04376 873.57162,200.64346 z M 740.0149,213.10193 C 744.88966,207.85509 752.88978,208.2074 759.50189,208.78288 C 759.19778,210.69503 758.60405,212.54039 758.03087,214.38446 C 752.62883,214.65019 747.2077,214.72898 741.81402,214.40375 C 741.36424,214.0783 740.46467,213.42739 740.0149,213.10193 z M 711.24675,213.31076 C 718.3574,211.61751 725.63987,210.35065 732.96808,210.32038 C 735.56732,210.22013 738.08,211.44246 739.41707,213.71245 C 732.56582,214.07131 725.68889,213.78258 718.85568,214.41156 C 715.96559,214.5493 713.5576,216.30957 711.13225,217.67861 C 711.17592,216.22052 711.20285,214.76352 711.24675,213.31076 z " />
</svg>
