<?xml version="1.0" encoding="UTF-8" standalone="no"?>
<svg
   xmlns:dc="http://purl.org/dc/elements/1.1/"
   xmlns:cc="http://creativecommons.org/ns#"
   xmlns:rdf="http://www.w3.org/1999/02/22-rdf-syntax-ns#"
   xmlns:svg="http://www.w3.org/2000/svg"
   xmlns="http://www.w3.org/2000/svg"
   xmlns:sodipodi="http://sodipodi.sourceforge.net/DTD/sodipodi-0.dtd"
   xmlns:inkscape="http://www.inkscape.org/namespaces/inkscape"
   viewBox="0 0 374.99994 263.08859"
   width="374.99994"
   height="263.08859"
   version="1.1"
   id="svg43"
   sodipodi:docname="LesRépublicains15logo.svg"
   inkscape:version="1.0.2 (e86c870879, 2021-01-15, custom)">
  <metadata
     id="metadata47">
    <rdf:RDF>
      <cc:Work
         rdf:about="">
        <dc:format>image/svg+xml</dc:format>
        <dc:type
           rdf:resource="http://purl.org/dc/dcmitype/StillImage" />
        <dc:title></dc:title>
      </cc:Work>
    </rdf:RDF>
  </metadata>
  <sodipodi:namedview
     pagecolor="#ffffff"
     bordercolor="#666666"
     borderopacity="1"
     objecttolerance="10"
     gridtolerance="10"
     guidetolerance="10"
     inkscape:pageopacity="0"
     inkscape:pageshadow="2"
     inkscape:window-width="1680"
     inkscape:window-height="988"
     id="namedview45"
     showgrid="false"
     fit-margin-top="0"
     fit-margin-left="0"
     fit-margin-right="0"
     fit-margin-bottom="0"
     inkscape:zoom="2.1"
     inkscape:cx="187.49997"
     inkscape:cy="131.54431"
     inkscape:window-x="-8"
     inkscape:window-y="-8"
     inkscape:window-maximized="1"
     inkscape:current-layer="svg43" />
  <defs
     id="defs4">
    <clipPath
       id="clipPath18"
       clipPathUnits="userSpaceOnUse">
      <path
         id="path16"
         d="M 0,830 H 832 V 0 H 0 Z" />
    </clipPath>
  </defs>
  <g
     id="g10"
     transform="matrix(0.630047,0,0,-0.630047,-75.704179,395.68905)">
    <g
       id="g12">
      <g
         clip-path="url(#clipPath18)"
         id="g14">
        <g
           transform="translate(128.9614,417.4966)"
           id="g20">
          <path
             id="path22"
             style="fill:#143c77;fill-opacity:1;fill-rule:nonzero;stroke:none"
             d="m 0,0 c 0,8.478 -1.969,10.507 -8.805,10.867 v 2.388 l 20.393,2.984 V -67.354 H 0 Z" />
        </g>
        <g
           transform="translate(187.123,388.9546)"
           id="g24">
          <path
             id="path26"
             style="fill:#143c77;fill-opacity:1;fill-rule:nonzero;stroke:none"
             d="M 0,0 C 0,2.746 -0.232,13.972 -10.312,13.972 -19.001,13.972 -21.435,4.538 -21.435,0 Z m 10.543,-36.901 c -2.201,-0.836 -8.342,-3.224 -16.336,-3.224 -17.727,0 -28.386,11.106 -28.386,31.048 0,18.87 8.805,27.109 24.33,27.109 19.813,0 21.435,-14.809 21.435,-22.809 h -33.021 c 0,-11.942 4.752,-28.9 21.086,-28.9 4.867,0 8.921,1.195 10.892,2.03 z" />
        </g>
        <g
           transform="translate(238.9111,396.0005)"
           id="g28">
          <path
             id="path30"
             style="fill:#143c77;fill-opacity:1;fill-rule:nonzero;stroke:none"
             d="m 0,0 c -1.737,1.193 -7.299,5.732 -13.786,5.732 -3.708,0 -8.111,-1.434 -8.111,-6.57 0,-11.344 25.374,-11.583 25.374,-29.853 0,-11.704 -9.387,-16.479 -20.856,-16.479 -7.068,0 -12.166,1.431 -14.83,2.149 v 9.315 c 3.36,-2.389 8.806,-6.211 15.295,-6.211 7.298,0 9.961,3.822 9.961,8.002 0,11.702 -25.372,12.418 -25.372,28.9 0,8.597 5.677,16.001 19.348,16.001 5.91,0 11.008,-1.552 12.977,-2.031 z" />
        </g>
        <g
           transform="translate(144.0566,277.5747)"
           id="g32">
          <path
             id="path34"
             style="fill:#143c77;fill-opacity:1;fill-rule:nonzero;stroke:none"
             d="m 0,0 h 6.605 c 7.53,0 18.073,2.149 18.073,15.525 0,12.898 -7.183,16.48 -16.916,16.48 C 0,32.005 0,29.855 0,21.256 Z m -12.745,21.375 c 0,11.823 -0.23,11.823 -11.007,13.614 v 2.629 H 4.751 c 8.69,0 32.672,0 32.672,-21.377 0,-13.614 -8.572,-18.151 -17.726,-19.705 L 41.015,-42.752 H 27.691 L 7.184,-5.612 H 0 v -37.14 h -12.745 z" />
        </g>
        <g
           transform="translate(213.3398,314.833)"
           id="g36">
          <path
             id="path38"
             style="fill:#143c77;fill-opacity:1;fill-rule:nonzero;stroke:none"
             d="m 0,0 c 0.579,2.867 1.158,6.091 5.561,6.091 2.433,0 5.33,-1.433 5.33,-4.538 0,-0.835 -1.044,-2.747 -1.739,-3.941 L 1.854,-14.926 h -4.867 z m 11.237,-41.198 c 0,2.745 -0.232,13.971 -10.311,13.971 -8.688,0 -11.122,-9.435 -11.122,-13.971 z M 21.781,-78.1 c -2.201,-0.837 -8.342,-3.223 -16.336,-3.223 -17.726,0 -28.386,11.105 -28.386,31.047 0,18.87 8.805,27.109 24.332,27.109 19.811,0 21.434,-14.808 21.434,-22.809 h -33.021 c 0,-11.942 4.75,-28.9 21.087,-28.9 4.865,0 8.921,1.196 10.89,2.031 z" />
        </g>
        <g
           transform="translate(260.0293,258.8252)"
           id="g40">
          <path
             id="path42"
             style="fill:#143c77;fill-opacity:1;fill-rule:nonzero;stroke:none"
             d="m 0,0 c 0,-6.568 1.275,-18.869 11.585,-18.869 10.082,0 11.124,14.69 11.124,23.526 0,8.599 -0.927,21.735 -11.238,21.735 C 1.042,26.392 0,11.227 0,4.897 Z m -11.586,16.004 c 0,8.359 -1.853,10.388 -9.037,10.629 v 2.387 l 20.739,3.821 v -9.673 h 0.233 c 2.549,3.582 7.761,9.673 14.945,9.673 14.715,0 20.159,-13.136 20.159,-28.184 0,-14.449 -3.938,-29.972 -20.622,-29.972 -9.038,0 -12.514,4.895 -14.6,8.716 H 0 v -31.765 h -11.586 z" />
        </g>
        <g
           transform="translate(342.5195,248.3174)"
           id="g44">
          <path
             id="path46"
             style="fill:#143c77;fill-opacity:1;fill-rule:nonzero;stroke:none"
             d="m 0,0 h -0.23 c -1.97,-5.254 -6.721,-14.808 -17.958,-14.808 -15.527,0 -15.527,15.524 -15.527,24.361 v 16.959 c 0,8.359 -1.853,10.388 -8.921,10.629 v 2.387 l 20.507,3.821 V 7.403 c 0,-10.866 3.941,-14.092 9.501,-14.092 C -5.098,-6.689 0,3.462 0,13.374 V 26.512 C 0,34.871 -1.97,36.9 -8.919,37.141 v 2.387 l 20.505,3.821 V -13.495 H 0 Z" />
        </g>
        <g
           transform="translate(381.1006,261.2139)"
           id="g48">
          <path
             id="path50"
             style="fill:#143c77;fill-opacity:1;fill-rule:nonzero;stroke:none"
             d="m 0,0 c 0,-6.328 0.927,-21.257 10.544,-21.257 11.005,0 11.934,13.972 11.934,23.168 0,8.36 -1.043,22.092 -11.122,22.092 C 1.274,24.003 0,11.584 0,4.897 Z m -11.586,41.201 c 0,8.358 -1.969,10.269 -8.922,10.627 v 2.389 L 0,57.201 V 21.496 h 0.232 c 2.085,3.941 5.447,8.956 14.483,8.956 16.568,0 20.507,-15.643 20.507,-30.213 0,-14.927 -5.793,-27.943 -20.855,-27.943 -7.878,0 -12.165,5.134 -14.946,8 l -7.879,-6.688 h -3.128 z" />
        </g>
        <g
           transform="translate(428.3701,302.1758)"
           id="g52">
          <path
             id="path54"
             style="fill:#143c77;fill-opacity:1;fill-rule:nonzero;stroke:none"
             d="m 0,0 c 0,8.478 -1.97,10.508 -8.805,10.866 v 2.389 l 20.391,2.984 V -67.354 H 0 Z" />
        </g>
        <g
           transform="translate(457.5669,308.623)"
           id="g56">
          <path
             id="path58"
             style="fill:#143c77;fill-opacity:1;fill-rule:nonzero;stroke:none"
             d="m 0,0 c 0,4.061 3.242,7.406 7.297,7.406 3.94,0 7.415,-3.226 7.415,-7.406 0,-4.178 -3.475,-7.523 -7.529,-7.523 C 3.242,-7.523 0,-4.178 0,0 m 1.273,-33.794 c 0,8.359 -1.852,10.388 -8.92,10.629 v 2.387 l 20.507,3.821 V -73.801 H 1.273 Z" />
        </g>
        <g
           transform="translate(523.3735,236.3745)"
           id="g60">
          <path
             id="path62"
             style="fill:#143c77;fill-opacity:1;fill-rule:nonzero;stroke:none"
             d="m 0,0 c -4.171,-1.552 -6.836,-2.865 -16.452,-2.865 -16.22,0 -25.838,11.821 -25.838,29.854 0,16.361 6.488,28.303 23.057,28.303 12.86,0 21.318,-6.688 21.318,-16.36 h -13.671 c 0,4.896 -1.16,12.299 -8.342,12.299 -7.879,0 -9.616,-8.837 -9.616,-20.301 0,-17.674 7.879,-27.348 18.422,-27.348 3.591,0 8.342,0.718 11.122,1.672 z" />
        </g>
        <g
           transform="translate(562.3003,261.334)"
           id="g64">
          <path
             id="path66"
             style="fill:#143c77;fill-opacity:1;fill-rule:nonzero;stroke:none"
             d="m 0,0 c -4.171,-0.12 -17.726,-0.718 -17.726,-12.063 0,-5.492 2.665,-9.314 6.951,-9.314 6.721,0 10.775,6.33 10.775,14.451 z m 0,-19.465 c -2.084,-2.507 -6.023,-8.359 -14.945,-8.359 -9.037,0 -15.525,6.687 -15.525,13.734 0,16.836 23.055,18.15 30.47,18.389 v 6.091 c 0,7.523 0,15.882 -7.299,15.882 -7.646,0 -8.11,-6.925 -8.11,-12.179 h -13.786 c 1.273,7.88 5.098,16.239 21.78,16.239 16.454,0 19.002,-8.718 19.002,-20.54 V -26.512 H 0 Z" />
        </g>
        <g
           transform="translate(589.8755,308.623)"
           id="g68">
          <path
             id="path70"
             style="fill:#143c77;fill-opacity:1;fill-rule:nonzero;stroke:none"
             d="m 0,0 c 0,4.061 3.242,7.406 7.298,7.406 3.939,0 7.415,-3.226 7.415,-7.406 0,-4.178 -3.476,-7.523 -7.531,-7.523 C 3.242,-7.523 0,-4.178 0,0 m 1.272,-33.794 c 0,8.359 -1.852,10.388 -8.919,10.629 v 2.387 l 20.507,3.821 V -73.801 H 1.272 Z" />
        </g>
        <g
           transform="translate(621.0396,274.8291)"
           id="g72">
          <path
             id="path74"
             style="fill:#143c77;fill-opacity:1;fill-rule:nonzero;stroke:none"
             d="m 0,0 c 0,8.359 -1.97,10.388 -9.268,10.629 v 2.387 l 20.854,3.821 V 1.551 h 0.233 c 1.738,4.18 7.877,15.286 19.347,15.286 C 41.708,16.837 45.187,9.193 45.187,0 V -40.007 H 33.6 v 30.93 c 0,9.434 0,17.793 -7.763,17.793 -7.646,0 -14.251,-11.106 -14.251,-19.584 V -40.007 H 0 Z" />
        </g>
        <g
           transform="translate(711.874,280.6807)"
           id="g76">
          <path
             id="path78"
             style="fill:#143c77;fill-opacity:1;fill-rule:nonzero;stroke:none"
             d="m 0,0 c -1.737,1.192 -7.301,5.731 -13.787,5.731 -3.709,0 -8.111,-1.433 -8.111,-6.569 0,-11.344 25.374,-11.583 25.374,-29.855 0,-11.702 -9.385,-16.478 -20.856,-16.478 -7.067,0 -12.166,1.432 -14.83,2.15 v 9.314 c 3.36,-2.388 8.805,-6.21 15.294,-6.21 7.299,0 9.965,3.822 9.965,8.001 0,11.703 -25.374,12.419 -25.374,28.9 0,8.598 5.676,16.001 19.347,16.001 5.91,0 11.007,-1.552 12.978,-2.03 z" />
        </g>
        <g
           transform="translate(426.3159,495.6426)"
           id="g80">
          <path
             id="path82"
             style="fill:#143c77;fill-opacity:1;fill-rule:nonzero;stroke:none"
             d="M 0,0 H 10.462 C 37.421,0 52.27,14.986 52.27,42.198 52.27,67.453 36.676,79.217 3.199,79.217 H 0.002 l 0.002,21.152 h 17.267 c 16.368,0 32.974,-5.192 45.561,-14.244 10.465,-7.532 22.942,-21.264 22.942,-43.927 0,-14.559 -5.067,-49.489 -51.662,-61.406 l 62.586,-92.509 -28.927,-9.972 -67.765,99.882 z" />
        </g>
        <path
           id="path84"
           style="fill:#ee2722;fill-opacity:1;fill-rule:nonzero;stroke:none"
           d="m 426.371,350.124 h -35.356 v 277.907 h 35.356 z" />
        <path
           id="path86"
           style="fill:#143c77;fill-opacity:1;fill-rule:nonzero;stroke:none"
           d="m 363.214,379.046 h -35.348 v 217.162 h 35.348 z" />
      </g>
    </g>
  </g>
</svg>
