<?xml version="1.0" encoding="utf-8"?>
<!-- Generator: Adobe Illustrator 16.0.0, SVG Export Plug-In . SVG Version: 6.00 Build 0)  -->
<!DOCTYPE svg PUBLIC "-//W3C//DTD SVG 1.1//EN" "http://www.w3.org/Graphics/SVG/1.1/DTD/svg11.dtd">
<svg version="1.1" id="Capa_1" xmlns="http://www.w3.org/2000/svg" xmlns:xlink="http://www.w3.org/1999/xlink" x="0px" y="0px"
	 width="1133.86px" height="566.93px" viewBox="0 0 1133.86 566.93" enable-background="new 0 0 1133.86 566.93"
	 xml:space="preserve">
<g>
	<path fill="#053164" d="M435.102,504.077c2.642,0,4.528,0.565,5.849,1.319c1.886,0.567,3.207,1.321,3.963,2.642
		c1.319,1.321,1.886,2.643,2.64,4.527c0.567,1.887,0.567,3.208,0.567,5.282c0,1.887-0.567,2.642-1.32,3.207
		c-0.567,0.567-1.886,0.567-2.642,0.567h-18.298c0,1.886,0,3.961,0.565,5.282c0.565,1.32,1.321,2.642,1.886,3.206
		c0.567,0.565,1.886,1.321,3.207,1.887c1.321,0.564,2.642,0.564,3.963,0.564s2.639,0,3.96-0.564c1.321,0,2.642-0.565,3.207-1.321
		c0.567,0,0.567,0,1.321,0l1.321,1.886c0,0.568,0,0.568,0,1.321c-1.321,0.567-2.642,1.321-4.528,1.887
		c-1.321,0-3.207,0.566-4.527,0.566c-4.528,0-7.735-1.32-10.375-3.963c-2.641-2.639-3.962-6.414-3.962-12.449
		c0-2.641,0.567-5.282,1.321-7.17c0.565-1.885,1.886-3.96,2.641-5.281c1.321-1.32,2.64-2.641,4.528-3.207
		C431.33,504.077,433.216,504.077,435.102,504.077z M444.346,517.659c0-1.321,0-2.642-0.565-3.961c0-1.321-0.565-2.641-1.321-3.207
		c-0.753-0.567-1.321-1.888-2.642-1.888c-1.319-0.565-2.64-0.565-4.526-0.565c-1.321,0-2.642,0-3.962,0.565
		c-1.321,0.567-1.886,1.32-2.642,1.888c-0.565,0.566-1.319,1.886-1.886,3.207c-0.565,1.319-0.565,2.64-0.565,3.961H444.346z"/>
	<path fill="#053164" d="M457.93,504.643h0.565h2.641h0.565c0,0,0,0,0,0.565v16.224c0,1.889,0,3.963,0.565,5.283
		c0,1.321,0.568,2.641,1.321,3.207c0.755,0.565,1.886,1.321,3.207,1.887c1.321,0.564,3.207,0.564,5.284,0.564
		c0.565,0,1.318,0,2.64,0c1.321,0,2.642,0,3.963-0.564v-27.354v-0.565h0.565h2.642h0.565c0,0,0,0,0,0.565v27.354
		c0,1.886-1.321,3.961-3.207,3.961c-0.565,0-1.321,0-1.886,0c-0.567,0-1.321,0-1.886,0c-0.567,0-1.321,0-1.888,0
		c-0.565,0-1.319,0-1.886,0c-2.64,0-4.528,0-6.414-0.565s-3.207-1.321-4.528-2.643c-1.319-1.318-1.886-2.64-2.64-4.525
		c-0.756-1.889-0.567-3.963-0.567-7.169L457.93,504.643L457.93,504.643z"/>
	<path fill="#053164" d="M513.203,511.245C513.203,511.245,512.638,511.245,513.203,511.245c-0.565,0-0.565,0-0.565,0
		c-1.321-1.321-2.642-1.886-3.963-2.642c-1.318-0.754-3.207-0.565-5.281-0.565c-0.565,0-1.321,0-1.886,0
		c-0.565,0-1.321,0-1.886,0.565v27.355v0.565h-0.567h-2.64h-0.567c0,0,0,0,0-0.565v-27.355c0-1.318,0-1.886,0.567-2.64
		c0.565-0.756,1.321-1.321,2.64-1.321c1.888,0,3.207-0.565,5.284-0.565c4.527,0,8.488,1.319,11.696,3.961v0.565L513.203,511.245z"/>
	<path fill="#053164" d="M547.727,520.301c0,5.282-1.32,9.81-3.962,12.451c-2.64,2.641-5.847,4.526-10.375,4.526
		c-4.528,0-7.735-1.319-10.377-3.96c-2.64-2.643-3.207-7.171-3.207-12.451c0-2.643,0.567-5.282,1.321-7.169
		c0.565-1.888,1.886-3.962,2.642-5.283c1.321-1.318,2.64-2.64,4.528-3.207c1.886-0.565,3.207-1.319,5.846-1.319
		c4.528,0,7.735,1.319,10.377,4.526C546.406,511.245,547.727,515.018,547.727,520.301z M543.199,520.301
		c0-1.886,0-3.206-0.565-4.527c0-1.321-0.567-3.208-1.321-3.963c-0.567-1.319-1.886-1.887-2.642-2.64
		c-1.321-0.567-2.642-1.321-4.528-1.321c-1.886,0-3.207,0.565-4.527,1.321c-1.319,0.753-1.886,1.32-3.207,2.64
		c-0.565,1.321-1.319,2.642-1.886,3.963c-0.565,1.321-0.565,3.207-0.565,4.527c0,1.887,0,3.961,0.565,5.282
		c0,1.321,0.567,3.206,1.321,3.963c0.565,1.319,1.886,1.886,2.642,2.639c1.321,0.567,2.64,0.567,4.528,0.567
		c1.886,0,3.207-0.567,4.526-1.32c1.321-0.566,1.888-1.886,3.207-3.207c0.567-1.32,1.321-2.642,1.321-3.963
		C543.199,523.508,543.199,522.188,543.199,520.301z"/>
	<path fill="#053164" d="M584.135,520.301c0,2.641,0,4.527-0.565,6.414c-0.565,1.886-1.321,3.961-2.643,5.282
		c-1.32,1.321-2.64,2.642-4.527,3.207c-1.886,0.565-3.961,1.32-5.847,1.32c-1.32,0-2.642,0-3.963,0c-1.318,0-2.64-0.565-4.526-0.565
		v12.449v0.567c0,0,0,0-0.567,0h-2.64h-0.568c0,0,0,0,0-0.567v-40.936c0-0.566,0-0.566,0.568-0.566
		c1.885-0.566,3.96-1.319,5.846-1.887c1.886,0,3.962-0.565,5.849-0.565c2.641,0,4.528,0.565,6.415,1.321
		c1.885,0.753,3.206,1.886,4.527,3.207c1.318,1.32,1.886,3.207,2.64,5.281C584.89,516.338,584.135,517.659,584.135,520.301z
		 M579.606,520.301c0-2.642,0-4.527-0.565-5.849c-0.565-1.32-1.32-2.642-1.886-3.961c-0.565-1.32-1.886-1.888-3.207-1.888
		c-1.321-0.565-2.642-0.565-3.963-0.565c-1.319,0-2.639,0-3.96,0.565c-1.321,0-2.642,0.567-3.961,1.32v22.828
		c1.886,0.566,3.208,0.566,4.526,1.319c1.321,0,2.643,0,3.207,0c1.321,0,2.642,0,3.963-0.565s2.64-1.321,3.208-1.886
		c0.564-1.321,1.319-2.642,1.885-3.963C579.606,524.828,579.606,522.941,579.606,520.301z"/>
	<path fill="#053164" d="M606.207,504.077c2.642,0,4.527,0.565,5.849,1.319c1.887,0.567,3.207,1.321,3.961,2.642
		c1.321,1.321,1.886,2.643,2.642,4.527c0.564,1.887,0.564,3.208,0.564,5.282c0,1.887-0.564,2.642-1.32,3.207
		c-0.754,0.567-1.886,0.567-2.64,0.567h-18.301c0,1.886,0,3.961,0.568,5.282c0.565,1.32,1.318,2.642,1.886,3.206
		c0.565,0.565,1.887,1.321,3.207,1.887c1.321,0.564,2.641,0.564,3.961,0.564c1.321,0,2.641,0,3.962-0.564
		c1.321,0,2.64-0.565,3.208-1.321c0.564,0,0.564,0,1.32,0l1.319,1.886c0,0.568,0,0.568,0,1.321
		c-1.887,1.887-3.208,1.887-5.282,2.642c-1.32,0-3.206,0.565-4.527,0.565c-4.528,0-7.735-1.32-10.375-3.96
		c-2.642-2.643-3.963-6.415-3.963-12.452c0-2.642,0.567-5.281,1.321-7.167c0.567-1.889,1.887-3.963,2.642-5.284
		c1.321-1.32,2.64-2.64,4.527-3.207C602.435,504.077,604.32,504.077,606.207,504.077z M615.451,517.659c0-1.321,0-2.642-0.567-3.961
		c0-1.321-0.565-2.641-1.318-3.207c-0.756-0.567-1.321-1.888-2.643-1.888c-1.32-0.565-2.642-0.565-4.527-0.565
		c-1.321,0-2.64,0-3.961,0.565c-1.321,0.567-1.886,1.32-2.642,1.888c-0.565,0.566-1.321,1.886-1.886,3.207
		c-0.565,1.319-0.565,2.64-0.565,3.961H615.451z"/>
	<path fill="#053164" d="M653.748,533.318c0,0.564,0,1.32-0.568,1.32c-1.887,0.565-3.961,1.32-5.847,1.32
		c-1.887,0-3.963,0.565-5.85,0.565c-2.641,0-4.527,0-6.413-0.565c-1.887-0.566-3.207-1.32-3.961-1.888
		c-0.567-0.565-1.889-1.887-1.889-3.206c-0.564-1.319-0.564-2.641-0.564-3.961c0-1.321,0-2.643,0.564-3.963
		c0.568-1.319,1.321-2.641,2.643-3.207c1.32-0.565,2.642-1.887,3.963-1.887c1.318-0.564,3.206-0.564,5.847-0.564h7.734v-1.321
		c0-1.32,0-1.887,0-2.642s-0.565-1.319-1.32-1.887c-0.565-0.564-1.321-1.321-2.641-1.321c-1.32-0.564-2.642-0.564-3.963-0.564
		c-1.319,0-2.641,0-4.527,0.564c-1.32,0-3.206,0.568-3.961,0.568h-0.566c0,0,0,0-0.565-0.568l-0.565-1.886
		c0-0.565,0-0.565,0.565-0.565s1.32-0.564,2.642-0.564c0.565,0,1.887-0.568,2.64-0.568c0.756,0,1.888,0,2.643-0.564
		c0.564,0,1.886,0,2.642,0c3.96,0,6.413,0.564,8.488,2.64c1.886,1.888,2.642,4.528,2.642,7.734v17.545h0.189V533.318z
		 M649.219,520.301h-7.735c-0.564,0-1.319,0-2.641,0c-1.319,0-1.887,0.566-2.64,0.566c-0.567,0.564-1.887,1.32-2.642,1.886
		c-0.566,0.567-0.566,1.886-0.566,3.962c0,1.321,0,1.886,0.566,3.207c0.564,0.565,1.32,1.321,1.885,1.887
		c0.568,0.564,1.887,0.564,2.643,1.321c1.32,0,1.887,0,3.207,0c0.565,0,0.565,0,1.321,0c0.753,0,1.32,0,1.886,0s1.321,0,2.642-0.568
		c0.564,0,1.319-0.564,1.886-0.564C649.219,531.997,649.219,520.301,649.219,520.301z"/>
	<path fill="#053164" d="M690.155,535.959h-0.565h-2.642h-0.565c0,0,0,0,0-0.566v-16.224c0-1.886,0-3.961-0.565-5.282
		c0-1.321-0.567-2.642-1.32-3.963c-0.566-0.564-1.887-1.886-3.208-1.886c-1.321-0.565-3.206-0.565-5.28-0.565
		c-0.568,0-1.321,0-2.643,0c-1.32,0-2.642,0-3.961,0.565v27.354v0.566h-0.567h-3.207h-0.565c0,0,0,0,0-0.566v-27.354
		c0-2.642,1.321-3.961,3.208-3.961c0.564,0,1.32,0,1.886,0s1.32,0,1.887,0s1.32,0,1.886,0c0.567,0,1.32,0,1.888,0
		c2.641,0,4.526,0,6.415,0.565c1.886,0.565,3.206,1.321,4.525,2.643c1.321,1.318,1.888,2.639,2.642,4.525
		c0.565,1.888,0.565,4.527,0.565,7.17L690.155,535.959L690.155,535.959z"/>
	<path fill="#053164" d="M747.505,520.301c0,2.641,0,4.527-0.565,6.414c-0.565,1.886-1.321,3.961-2.643,5.282
		c-1.32,1.321-2.639,2.642-4.527,3.207c-1.887,0.565-3.961,1.32-5.847,1.32c-1.32,0-2.642,0-3.963,0
		c-1.318,0-2.64-0.565-4.525-0.565v12.449v0.567c0,0,0,0-0.567,0h-2.641h-0.566c0,0,0,0,0-0.567v-40.936
		c0-0.566,0-0.566,0.566-0.566c1.887-0.566,3.961-1.319,5.847-1.887c1.887,0,3.963-0.565,5.85-0.565
		c2.641,0,4.528,0.565,6.414,1.321c1.886,0.564,3.207,1.886,4.528,3.207c1.32,1.32,1.886,3.207,2.64,5.281
		C746.751,515.773,747.505,517.659,747.505,520.301z M742.223,520.301c0-2.642,0-4.527-0.564-5.849
		c-0.567-1.32-1.321-2.642-1.889-3.961c-0.564-1.32-1.887-1.888-3.206-1.888c-1.319-0.565-2.641-0.565-3.961-0.565
		c-1.321,0-2.643,0-3.961,0.565c-1.321,0-2.643,0.567-3.963,1.32v22.828c1.887,0.566,3.207,0.566,4.528,1.319
		c1.32,0,2.639,0,3.206,0c1.321,0,2.643,0,3.961-0.565c1.321-0.565,2.643-1.321,3.207-1.886c0.567-1.321,1.321-2.642,1.889-3.963
		C742.223,524.828,742.223,522.941,742.223,520.301z"/>
	<path fill="#053164" d="M769.577,504.077c2.642,0,4.527,0.565,5.849,1.319c1.887,0.567,3.207,1.321,3.961,2.642
		c1.32,1.321,1.887,2.643,2.642,4.527c0.564,1.887,0.564,3.208,0.564,5.282c0,1.887-0.564,2.642-1.319,3.207
		c-0.755,0.567-1.887,0.567-2.641,0.567h-18.301c0,1.886,0,3.961,0.568,5.282c0.564,1.32,1.318,2.642,1.886,3.206
		c0.565,0.565,1.886,1.321,3.207,1.887c1.321,0.564,2.64,0.564,3.961,0.564s2.642,0,3.962-0.564c1.321,0,2.64-0.565,3.208-1.321
		c0.564,0,0.564,0,1.32,0l1.319,1.886c0,0.568,0,0.568,0,1.321c-1.319,0.567-2.64,1.321-4.526,1.887
		c-1.321,0-3.207,0.566-4.528,0.566c-4.527,0-7.734-1.32-10.377-3.963c-2.639-2.639-3.96-6.414-3.96-12.449
		c0-2.641,0.565-5.282,1.321-7.17c0.564-1.885,1.886-3.96,2.639-5.281c1.321-1.32,2.643-2.641,4.529-3.207
		C765.616,504.077,767.691,504.077,769.577,504.077z M778.633,517.659c0-1.321,0-2.642-0.567-3.961c0-1.321-0.564-2.641-1.319-3.207
		c-0.755-0.567-1.32-1.888-2.642-1.888c-1.321-0.565-2.642-0.565-4.527-0.565c-1.321,0-2.642,0-3.961,0.565
		c-1.321,0.567-1.888,1.32-2.642,1.888c-0.565,0.566-1.321,1.886-1.886,3.207c-0.568,1.319-0.568,2.64-0.568,3.961H778.633z"/>
	<path fill="#053164" d="M819.003,520.301c0,5.282-1.32,9.81-3.963,12.451c-2.64,2.641-5.847,4.526-10.374,4.526
		c-4.528,0-7.735-1.319-10.377-3.96c-2.64-2.643-3.206-7.171-3.206-12.451c0-2.643,0.566-5.282,1.319-7.169
		c0.567-1.888,1.887-3.962,2.643-5.283c1.32-1.318,2.642-2.64,4.528-3.207c1.886-0.565,3.206-1.319,5.847-1.319
		c4.527,0,7.734,1.319,10.377,4.526C817.683,511.245,819.003,515.018,819.003,520.301z M814.476,520.301
		c0-1.886,0-3.206-0.565-4.527c0-1.321-0.566-3.208-1.321-3.963c-0.564-1.319-1.886-1.887-2.642-2.64
		c-1.321-0.567-2.639-1.321-4.527-1.321c-1.887,0-3.207,0.565-4.526,1.321c-1.32,0.753-1.888,1.32-3.207,2.64
		c-0.566,1.321-1.321,2.642-1.888,3.963c-0.565,1.321-0.565,3.207-0.565,4.527c0,1.887,0,3.961,0.565,5.282
		c0,1.321,0.566,3.206,1.321,3.963c0.566,1.319,1.886,1.886,2.642,2.639c1.32,0.567,2.641,0.567,4.527,0.567
		c1.886,0,3.207-0.567,4.527-1.32c1.319-0.756,1.887-1.886,3.208-3.207c0.564-1.32,1.319-2.642,1.319-3.963
		C814.476,523.508,814.476,522.188,814.476,520.301z"/>
	<path fill="#053164" d="M855.413,520.301c0,2.641,0,4.527-0.567,6.414c-0.564,1.886-1.321,3.961-2.64,5.282
		c-1.321,1.321-2.642,2.642-4.527,3.207c-1.887,0.565-3.963,1.32-5.849,1.32c-1.321,0-2.641,0-3.961,0
		c-1.321,0-2.643-0.565-4.529-0.565v12.449v0.567c0,0,0,0-0.564,0h-2.642h-0.565c0,0,0,0,0-0.567v-40.936
		c0-0.566,0-0.566,0.565-0.566c1.886-0.566,3.961-1.319,5.849-1.887c1.887,0,3.961-0.565,5.848-0.565
		c2.641,0,4.527,0.565,6.413,1.321c1.887,0.753,3.208,1.886,4.528,3.207c1.321,1.32,1.886,3.207,2.642,5.281
		C855.413,515.773,855.413,517.659,855.413,520.301z M850.885,520.301c0-2.642,0-4.527-0.564-5.849
		c-0.567-1.32-1.321-2.642-1.889-3.961c-0.564-1.32-1.886-1.888-3.207-1.888c-1.32-0.565-2.64-0.565-3.961-0.565
		c-1.32,0-2.642,0-3.963,0.565c-1.32,0-2.64,0.567-3.961,1.32v22.828c1.887,0.566,3.208,0.566,4.529,1.319c1.32,0,2.64,0,3.206,0
		c1.321,0,2.641,0,3.961-0.565c1.321-0.565,2.643-1.321,3.207-1.886c0.567-1.321,1.321-2.642,1.887-3.963
		C850.885,524.828,850.885,522.941,850.885,520.301z"/>
	<path fill="#053164" d="M875.597,535.959L875.597,535.959c-1.32,0.565-1.886,0.565-2.64,0.565c-0.566,0-1.32,0-1.888,0
		c-1.887,0-3.206-0.565-3.961-1.32c-0.564-0.565-1.32-2.643-1.32-4.528V492.38v-0.754h0.565h2.642h0.564c0,0,0,0,0,0.565v37.164
		c0,1.32,0,1.888,0.568,2.642c0,0.564,0.564,0.564,1.886,0.564c0.565,0,0.565,0,1.32,0c0.754,0,0.566,0,1.321,0
		c0.565,0,0.565,0,0.565,0.568L875.597,535.959C875.597,535.204,875.597,535.959,875.597,535.959z"/>
	<path fill="#053164" d="M896.35,504.077c2.641,0,4.527,0.565,5.849,1.319c1.886,0.567,3.206,1.321,3.961,2.642
		c1.319,1.321,1.888,2.643,2.641,4.527c0.565,1.887,0.565,3.208,0.565,5.282c0,1.887-0.565,2.642-1.318,3.207
		c-0.568,0.567-1.888,0.567-2.643,0.567h-18.3c0,1.886,0,3.961,0.567,5.282c0.565,1.32,1.32,2.642,1.886,3.206
		c0.565,0.565,1.886,1.321,3.207,1.887c1.321,0.564,2.642,0.564,3.961,0.564c1.321,0,2.642,0,3.963-0.564
		c1.32,0,2.642-0.565,3.206-1.321c0.566,0,0.566,0,1.321,0l1.321,1.886c0,0.568,0,0.568,0,1.321
		c-1.321,0.567-2.643,1.321-4.528,1.887c-1.32,0-3.206,0.566-4.527,0.566c-4.528,0-7.735-1.32-10.377-3.963
		c-2.64-2.639-3.961-6.414-3.961-12.449c0-2.641,0.565-5.282,1.321-7.17c0.565-1.885,1.887-3.96,2.64-5.281
		c1.321-1.32,2.642-2.641,4.527-3.207C892.577,504.077,894.463,504.077,896.35,504.077z M905.593,517.659
		c0-1.321,0-2.642-0.565-3.961c0-1.321-0.566-2.641-1.32-3.207c-0.567-0.567-1.32-1.888-2.642-1.888
		c-1.321-0.565-2.64-0.565-4.528-0.565c-1.319,0-2.641,0-3.96,0.565c-1.321,0.567-1.887,1.32-2.642,1.888
		c-0.566,0.566-1.321,1.886-1.887,3.207c-0.565,1.319-0.565,2.64-0.565,3.961H905.593z"/>
	<path fill="#053164" d="M922.382,506.718c0,0,0,0.567-0.565,0.567h-0.565h-1.321c-0.564,0-0.564,0-0.564-0.567
		c0-1.886,0.564-3.961,0.564-6.415c0-1.886,0-3.961,0.566-5.847v-0.567h0.567h3.96c0.565,0,0.565,0,0.565,0v0.567l0,0l0,0
		L922.382,506.718z"/>
	<path fill="#053164" d="M956.34,528.036c0,1.319,0,2.64-0.566,3.961c-0.565,1.321-1.319,1.886-2.64,2.642
		c-1.321,0.565-1.889,1.32-3.208,1.886c-1.32,0.565-2.642,0.565-4.527,0.565c-1.887,0-3.963,0-5.849-0.565
		c-1.887-0.565-3.961-0.565-5.848-1.886c0,0-0.566,0-0.566-0.567v-0.565l0.566-1.886c0-0.567,0.565-0.567,1.319-0.567
		c1.321,0.567,3.207,1.32,5.284,1.888c1.885,0.565,3.206,0.565,4.527,0.565c1.887,0,3.961-0.565,5.281-1.321
		c1.321-0.753,1.887-1.886,1.887-3.96c0-1.32-0.565-2.642-1.887-3.963c-1.32-0.565-3.206-1.887-5.849-2.64
		c-1.887-0.567-3.207-1.321-4.528-1.888c-1.319-0.565-1.886-1.319-3.206-1.887c-0.566-0.564-1.321-1.321-1.886-2.64
		c-0.566-0.566-0.566-1.888-0.566-3.207c0-2.642,0.566-4.528,2.643-5.849c1.886-1.32,4.525-2.642,7.733-2.642
		c1.885,0,3.206,0,4.527,0.566c1.32,0,3.206,0.565,4.527,1.319c0.565,0,0.565,0.567,0.565,1.321l-0.565,2.642c0,0,0,0-0.564,0.564
		c0,0,0,0-0.567,0c-1.321-0.564-2.641-1.32-3.961-1.32c-1.321,0-2.642-0.565-3.962-0.565c-1.887,0-3.208,0.565-4.527,1.321
		c-1.32,0.564-1.888,1.886-1.888,3.206c0,0.566,0,1.321,0.567,1.887c0,0.565,0.565,1.321,1.32,1.321
		c0.566,0.564,1.319,0.564,2.641,1.321c0.567,0.564,1.887,0.564,3.207,1.32c1.32,0.754,2.642,1.319,3.962,1.319
		c1.321,0.566,1.887,1.32,3.208,1.888c0.564,0.565,1.32,1.319,1.886,2.64C956.34,525.583,956.34,526.904,956.34,528.036z"/>
	<path fill="#053164" d="M1011.613,520.301c0,2.641,0,4.527-0.565,6.414c-0.565,1.886-1.32,3.961-2.642,5.282
		c-1.32,1.321-2.642,2.642-4.527,3.207c-1.887,0.565-3.961,1.32-5.848,1.32c-1.321,0-2.641,0-3.962,0
		c-1.32,0-2.64-0.565-4.528-0.565v12.449v0.567c0,0,0,0-0.564,0h-2.643h-0.565c0,0,0,0,0-0.567v-40.936c0-0.566,0-0.566,0.565-0.566
		c1.888-0.566,3.963-1.319,5.849-1.887c1.887,0,3.961-0.565,5.849-0.565c2.64,0,4.526,0.565,6.414,1.321
		c1.887,0.564,3.208,1.886,4.527,3.207c1.319,1.32,1.887,3.207,2.641,5.281C1010.859,515.773,1011.613,517.659,1011.613,520.301z
		 M1007.086,520.301c0-2.642,0-4.527-0.566-5.849c-0.564-1.32-1.319-2.642-1.886-3.961c-0.565-1.32-1.886-1.888-3.206-1.888
		c-1.321-0.565-2.643-0.565-3.963-0.565c-1.319,0-2.641,0-3.961,0.565c-1.321,0-2.642,0.567-3.963,1.32v22.828
		c1.889,0.566,3.208,0.566,4.528,1.319c1.321,0,2.641,0,3.207,0c1.32,0,2.642,0,3.963-0.565c1.32-0.565,2.64-1.321,3.206-1.886
		c0.566-1.321,1.321-2.642,1.887-3.963C1006.332,524.828,1007.086,522.941,1007.086,520.301z"/>
	<path fill="#053164" d="M1045.382,533.318c0,0.564,0,1.32-0.565,1.32c-1.887,0.565-3.963,1.32-5.85,1.32
		c-1.885,0-3.961,0.565-5.846,0.565c-2.643,0-4.528,0-6.415-0.565c-1.888-0.566-3.206-1.32-3.963-1.888
		c-0.564-0.565-1.886-1.887-1.886-3.206c-0.565-1.319-0.565-2.641-0.565-3.961c0-1.321,0-2.643,0.565-3.963
		c0.565-1.319,1.321-2.641,2.643-3.207c1.318-0.565,2.64-1.887,3.961-1.887c1.32,0,3.206-0.564,5.849-0.564h7.734v-1.321
		c0-1.32,0-1.887,0-2.642s-0.567-1.319-1.32-1.887c-0.568-0.564-1.321-1.321-2.642-1.321c-1.321-0.564-2.643-0.564-3.961-0.564
		c-1.321,0-2.643,0-4.528,0.564c-1.32,0-3.207,0.568-3.963,0.568h-0.565c0,0,0,0-0.564-0.568l-0.568-1.886
		c0-0.565,0-0.565,0.568-0.565c0.564,0,1.318-0.564,2.64-0.564c0.566,0,1.886-0.568,2.642-0.568c0.754,0,1.886,0,2.642-0.564
		c0.565,0,1.887,0,2.64,0c3.963,0,6.414,0.564,8.49,2.64c1.887,1.888,2.641,4.528,2.641,7.734v17.545h0.188V533.318z
		 M1040.854,520.301h-7.732c-0.568,0-1.321,0-2.643,0c-1.32,0-1.886,0.566-2.642,0.566c-0.564,0.564-1.886,1.32-2.64,1.886
		c-0.567,0.567-0.567,1.886-0.567,3.962c0,1.321,0,1.886,0.567,3.207c0.565,0.565,1.32,1.321,1.886,1.887
		c0.565,0.564,1.886,0.564,2.643,1.321c1.318,0,1.886,0,3.206,0c0.566,0,0.566,0,1.319,0c0.567,0,1.321,0,1.889,0
		c0.564,0,1.319,0,2.639-0.568c0.567,0,1.321-0.564,1.887-0.564L1040.854,520.301L1040.854,520.301z"/>
	<path fill="#053164" d="M1075.377,511.245C1075.377,511.245,1074.623,511.245,1075.377,511.245c-0.565,0-0.565,0-0.565,0
		c-1.32-1.321-2.642-1.886-3.962-2.642c-1.32-0.565-3.207-0.565-5.281-0.565c-0.566,0-1.321,0-1.887,0c-0.567,0-1.321,0-1.886,0.565
		v27.355v0.565h-0.568h-2.829h-0.565c0,0,0,0,0-0.565v-27.355c0-1.318,0-1.886,0.565-2.64c0.566-0.567,1.32-1.321,2.641-1.321
		c1.887,0,3.208-0.565,5.282-0.565c4.528,0,8.49,1.319,11.698,3.961v0.565L1075.377,511.245z"/>
	<path fill="#053164" d="M1082.545,508.038C1081.792,508.038,1081.792,508.038,1082.545,508.038
		c-0.564-0.565-0.564-0.565-0.564-0.565v-1.32v-0.565c0,0,0,0,0.564,0l4.527-0.567l0.567-5.847c0-0.566,0-0.566,0-0.566
		s0.565,0,0.565-0.566l1.32-0.564c0.566,0,0.566,0,0.566,0.564v7.168h7.168h0.565v0.567v1.886v0.565c0,0,0,0-0.565,0h-7.168v20.186
		c0,1.322,0,2.641,0.566,3.208c0.565,0.564,1.887,1.32,3.208,1.32c0.565,0,1.318,0,1.885,0s1.886,0,2.64-0.567h0.569
		c0,0,0,0,0,0.567l0.564,2.641v0.566c0,0,0,0-0.564,0.565c-1.323,0-2.643,0.565-3.209,0.565c-1.319,0-1.885,0-2.642,0
		c-1.32,0-2.641,0-3.96-0.565c-1.32,0-1.889-0.565-2.642-1.32c-0.565-0.566-1.321-1.321-1.321-2.641c0-1.32-0.565-1.887-0.565-3.206
		v-20.752h-2.641v-0.756H1082.545z"/>
	<path fill="#053164" d="M1120.84,541.807c-0.564,2.642-1.884,4.527-3.207,5.849c-1.318,1.32-3.207,1.32-5.279,1.32
		c-0.566,0-1.323,0-1.889,0s-1.884,0-2.641-0.567c-0.566,0-0.566-0.564-0.566-0.564l0.566-1.887c0,0,0-0.564,0.568-0.564h0.565
		c0.564,0,1.319,0.564,1.884,0.564c0.565,0,0.565,0,1.323,0c0.753,0,1.318,0,1.885,0c0.564,0,1.321,0,1.321-0.564
		c0.566,0,0.566-0.568,1.32-1.321c0.564-0.567,0.564-1.321,0.564-1.889l1.889-5.281h-1.324c-0.564,0-0.564,0-1.317,0
		c-0.755,0-0.565-0.565-0.565-1.32l-9.81-29.241c0-0.564,0-0.564,0.565-0.564h3.206h0.565c0,0,0,0,0,0.564
		c0,0.566,0.565,1.887,1.322,3.963c0.566,1.887,1.319,3.208,1.885,5.282c0.565,1.886,1.323,3.207,1.888,5.282
		c0.566,1.886,0.566,2.641,1.319,3.961c0,0,0,0.566,0.565,1.887c0,0.565,0.568,1.886,0.568,3.207s0.566,1.887,0.566,3.208
		c0,0.564,0.565,1.32,0.565,1.886l0,0c0-0.565,0.564-1.886,0.564-2.643c0.566-1.318,0.566-1.886,1.319-3.206
		c0.757-1.319,0.569-1.887,0.569-2.641c0-0.755,0.565-1.32,0.565-1.32s0.565-1.321,0.565-1.886c0.564-1.321,0.564-2.643,1.318-3.963
		c0.569-1.887,1.322-3.208,1.888-5.282s1.319-3.963,1.888-5.849v-0.565c0,0,0,0,0.566,0h3.207c0.565,0,0.565,0,0.565,0.565
		L1120.84,541.807z"/>
</g>
<g>
	<g>
		<path fill="#053164" d="M523.58,178.091c32.447,0,56.594,7.735,72.252,24.147c15.657,16.413,24.147,39.05,24.147,69.045
			c0,14.338-2.642,24.147-8.49,29.242c-5.282,5.281-13.018,7.732-22.827,7.732H483.963c0,9.057,1.886,16.224,4.528,22.073
			c2.64,5.849,5.847,10.374,10.375,14.337s9.809,5.849,15.658,7.17c5.849,1.318,12.451,1.887,19.431,1.887
			c7.735,0,16.223-0.568,24.147-2.643c8.488-1.886,16.224-4.528,23.394-7.167c3.206-1.321,5.847-1.321,6.414-1.321
			c1.319,0.564,2.64,1.886,3.206,3.96l13.018,29.996c1.321,2.642,1.321,4.528,0.564,5.849c-0.564,1.319-1.886,2.64-4.527,3.961
			c-10.375,6.414-22.072,11.13-35.843,14.338c-13.582,2.642-26.033,4.527-37.729,4.527c-35.845,0-63.199-9.056-79.987-26.6
			c-17.545-18.299-26.035-46.218-26.035-85.27c0-18.298,2.642-34.521,7.169-48.861c4.528-14.335,11.696-26.033,20.752-36.408
			c9.054-9.81,19.43-17.544,32.447-22.826C493.773,180.733,508.11,178.091,523.58,178.091z M524.9,228.271
			c-11.13,0-20.751,3.963-27.921,11.698c-7.167,7.733-11.13,18.298-12.451,30.561h77.346c0-5.849-0.565-11.696-1.887-16.979
			c-1.32-5.281-3.207-9.81-5.847-13.582c-2.642-3.962-6.414-6.414-11.13-9.056C538.671,228.838,532.068,228.271,524.9,228.271z"/>
		<path fill="#053164" d="M728.642,478.042c0,3.208-0.568,5.284-1.321,5.849c-0.755,0.566-3.207,1.321-7.17,1.321h-43.012
			c-3.207,0-5.282-0.564-6.414-1.321c-1.319-0.564-1.887-2.641-1.887-5.849v-269.39c0-3.207,0.567-5.282,1.321-7.168
			c0.565-1.888,3.207-3.962,6.414-5.849c13.017-5.849,27.919-10.375,44.145-13.017c16.224-2.642,31.88-3.961,46.785-3.961
			c19.431,0,35.843,3.207,49.426,9.054c13.582,5.849,24.146,13.583,32.446,24.147c7.735,9.81,13.582,22.072,17.545,35.842
			c3.208,13.584,5.282,28.675,5.282,44.144c0,15.471-1.886,29.996-5.847,43.58c-3.963,13.581-9.812,25.277-17.545,35.842
			c-7.735,10.376-18.3,18.3-30.563,24.147c-12.449,5.847-26.599,9.055-43.578,9.055c-8.488,0-16.224-0.565-22.826-1.319
			c-7.167-0.567-14.902-1.889-24.146-3.963v78.666h0.944V478.042z M809.947,290.715c0-11.131-1.321-20.752-3.207-28.673
			c-1.887-7.737-5.281-13.584-9.81-18.866c-4.528-4.528-9.809-7.735-15.657-9.81c-6.414-1.888-13.018-2.642-20.753-2.642
			c-3.961,0-9.053,0.565-14.902,1.321c-6.413,0.565-11.695,1.886-16.224,3.207v112.623c7.169,1.887,13.582,3.207,19.432,3.963
			c5.849,0.754,10.376,0.565,14.902,0.565c13.584,0,25.279-4.528,33.768-14.338C805.42,329.012,809.947,313.354,809.947,290.715z"/>
		<path fill="#053164" d="M982.939,478.042c0,3.208-0.566,5.284-1.321,5.849c-0.565,0.566-3.208,1.321-7.169,1.321h-43.012
			c-3.206,0-5.282-0.564-6.414-1.321c-1.133-0.753-1.886-2.641-1.886-5.849v-269.39c0-3.207,0.564-5.282,1.321-7.168
			c0.564-1.888,3.206-3.962,6.414-5.849c13.016-5.849,27.919-10.375,44.143-13.017c16.226-2.642,31.881-3.961,46.786-3.961
			c19.431,0,35.843,3.207,49.424,9.054c13.584,5.847,24.147,13.583,32.449,24.147c7.736,9.81,13.581,22.072,17.546,35.842
			c3.207,13.584,5.279,28.675,5.279,44.144c0,15.471-1.884,29.996-5.849,43.58c-3.96,13.581-9.81,25.277-17.542,35.842
			c-7.734,10.376-18.3,18.3-30.563,24.147c-12.261,5.847-26.598,9.055-43.578,9.055c-8.488,0-16.224-0.565-22.825-1.319
			c-7.169-0.567-14.902-1.889-24.147-3.963v78.666h0.943V478.042z M1064.247,290.715c0-11.131-1.321-20.752-3.208-28.673
			c-1.886-7.737-5.28-13.584-9.81-18.866c-4.527-4.528-9.809-7.735-15.657-9.81c-6.414-1.888-13.018-2.642-20.752-2.642
			c-3.961,0-9.056,0.565-14.902,1.321c-6.414,0.565-11.696,1.886-16.224,3.207v112.623c7.168,1.887,13.582,3.207,19.431,3.963
			c5.848,0.754,10.375,0.565,14.902,0.565c13.584,0,25.279-4.528,33.769-14.338C1059.719,329.012,1064.247,313.354,1064.247,290.715
			z"/>
	</g>
</g>
<polygon fill="#E1A733" points="390.959,446.729 371.34,433.144 395.487,432.391 403.222,408.997 410.39,432.391 434.537,431.823 
	414.917,446.161 422.085,469.554 402.655,455.217 383.79,469.554 "/>
<polygon fill="#E1A733" points="323.235,474.081 333.609,457.858 334.93,476.724 353.796,481.25 336.251,488.419 337.572,507.285 
	325.31,492.947 307.576,500.114 317.386,483.891 305.123,469.554 "/>
<polygon fill="#E1A733" points="182.125,511.811 191.18,502.757 189.293,515.773 200.989,521.622 187.973,523.508 186.086,535.959 
	180.237,524.262 167.788,525.583 176.842,517.095 170.995,505.396 "/>
<polygon fill="#E1A733" points="253.623,497.476 263.432,485.777 262.678,501.436 277.77,507.285 262.111,510.491 261.545,526.147 
	253.057,513.132 238.72,516.338 247.773,504.643 239.285,492.38 "/>
<linearGradient id="SVGID_1_" gradientUnits="userSpaceOnUse" x1="152.937" y1="78.2974" x2="337.732" y2="513.2562" gradientTransform="matrix(0.9387 0 0 0.9387 24.4736 -73.2422)">
	<stop  offset="0" style="stop-color:#F4E22C"/>
	<stop  offset="0.2226" style="stop-color:#EFCB2D"/>
	<stop  offset="0.4835" style="stop-color:#E7B730"/>
	<stop  offset="0.7437" style="stop-color:#E2AA32"/>
	<stop  offset="1" style="stop-color:#E1A733"/>
</linearGradient>
<path fill="url(#SVGID_1_)" d="M311.537,164.507c102.815-53.952,191.856-4.526,191.856-4.526
	c-44.898-63.197-133.942-58.482-172.991-35.843C313.423,61.695,248.34,20.758,184.012,16.23
	C119.683,10.949,51.957,40.944,24.037,95.651C-3.884,150.36-39.161,269.774,154.77,487.854l0,0
	C69.5,351.271,53.277,273.737,55.163,199.031c1.886-63.764,40.371-109.227,89.797-123.564
	C252.301,49.244,301.163,126.023,311.537,164.507z"/>
</svg>
