<?xml version="1.0" encoding="utf-8"?>
<!-- Generator: Adobe Illustrator 21.1.0, SVG Export Plug-In . SVG Version: 6.00 Build 0)  -->
<svg version="1.1" id="Camada_1" xmlns="http://www.w3.org/2000/svg" xmlns:xlink="http://www.w3.org/1999/xlink" x="0px" y="0px"
	 viewBox="0 0 632 780" style="enable-background:new 0 0 632 780;" xml:space="preserve">
<style type="text/css">
	.st0{fill:#ED1C24;}
	.st1{fill:#FFFFFF;}
</style>
<g id="g10" transform="matrix(1.3333333,0,0,-1.3333333,0,1122.5197)">
	<path id="path12" class="st0" d="M236.9,829.1l114.2-197.8l114.2-197.8H236.9H8.5l114.2,197.8L236.9,829.1z"/>
	<path id="path14" class="st1" d="M152.1,555.7l-37,6.6c3.1,11.8,9,20.9,17.8,27.1c8.8,6.3,21.1,9.4,37.2,9.4
		c18.4,0,31.7-3.4,39.9-10.3c8.2-6.9,12.3-15.5,12.3-25.9c0-6.1-1.7-11.6-5-16.5c-3.3-5-8.4-9.3-15.1-13c5.5-1.3,9.6-2.9,12.5-4.7
		c4.7-2.9,8.3-6.7,10.9-11.4c2.6-4.7,3.9-10.3,3.9-16.9c0-8.2-2.2-16.1-6.4-23.6c-4.3-7.5-10.5-13.3-18.6-17.4
		c-8.1-4.1-18.7-6.1-31.9-6.1c-12.8,0-22.9,1.5-30.4,4.5c-7.4,3-13.5,7.5-18.3,13.2c-4.8,5.8-8.4,13.1-11,21.9l39.1,5.2
		c1.5-7.9,3.9-13.4,7.2-16.4c3.2-3,7.4-4.6,12.3-4.6c5.3,0,9.7,1.9,13.1,5.8c3.5,3.8,5.3,9,5.3,15.4c0,6.5-1.7,11.6-5.1,15.2
		c-3.4,3.6-7.9,5.4-13.7,5.4c-3.1,0-7.3-0.8-12.7-2.3l2,28c2.2-0.3,3.9-0.5,5.1-0.5c5.2,0,9.4,1.6,12.9,4.9
		c3.4,3.2,5.1,7.2,5.1,11.6c0,4.3-1.3,7.7-3.8,10.3c-2.6,2.6-6.1,3.8-10.6,3.8c-4.6,0-8.4-1.4-11.3-4.2
		C155,567.6,153.1,562.7,152.1,555.7L152.1,555.7z M283.5,555.7l-37,6.6c3.1,11.8,9,20.9,17.8,27.1c8.8,6.3,21.2,9.4,37.2,9.4
		c18.4,0,31.7-3.4,39.9-10.3c8.2-6.9,12.3-15.5,12.3-25.9c0-6.1-1.7-11.6-5-16.5c-3.4-5-8.4-9.3-15.1-13c5.4-1.3,9.6-2.9,12.5-4.7
		c4.7-2.9,8.3-6.7,10.9-11.4c2.6-4.7,3.9-10.3,3.9-16.9c0-8.2-2.2-16.1-6.4-23.6c-4.3-7.5-10.5-13.3-18.6-17.4
		c-8.1-4.1-18.7-6.1-31.9-6.1c-12.8,0-22.9,1.5-30.3,4.5c-7.4,3-13.5,7.5-18.3,13.2c-4.8,5.8-8.4,13.1-11,21.9l39.1,5.2
		c1.5-7.9,3.9-13.4,7.2-16.4c3.2-3,7.4-4.6,12.4-4.6c5.3,0,9.6,1.9,13.1,5.8c3.5,3.8,5.3,9,5.3,15.4c0,6.5-1.7,11.6-5.1,15.2
		c-3.4,3.6-7.9,5.4-13.7,5.4c-3.1,0-7.3-0.8-12.7-2.3l2,28c2.2-0.3,3.9-0.5,5.1-0.5c5.2,0,9.4,1.6,12.9,4.9
		c3.4,3.2,5.1,7.2,5.1,11.6c0,4.3-1.3,7.7-3.8,10.3c-2.6,2.6-6.1,3.8-10.6,3.8c-4.6,0-8.4-1.4-11.3-4.2
		C286.5,567.6,284.5,562.7,283.5,555.7"/>
	<path id="path16" d="M8.1,415.3h71.5c15.6,0,27.2-3.9,35-11.6c7.8-7.7,11.6-18.8,11.6-33.1c0-14.7-4.2-26.2-12.7-34.5
		c-8.5-8.3-21.4-12.4-38.7-12.4H51.3v-54.1H8.1V415.3z M51.3,353.2h10.5c8.3,0,14.1,1.5,17.5,4.5c3.3,3,5,6.9,5,11.6
		c0,4.6-1.5,8.5-4.4,11.6c-2.9,3.2-8.4,4.8-16.4,4.8H51.3V353.2z M148.2,415.3h56.6l21.8-88.7l21.7,88.7h56.4V269.6h-35.1v111.1
		l-27.3-111.1h-31.8l-27.2,111.1V269.6h-35.2V415.3z M332.5,415.3h40.2l52.4-80.6v80.6h40.5V269.6h-40.5l-52.1,80v-80h-40.5V415.3z"
		/>
</g>
</svg>
