<svg xmlns="http://www.w3.org/2000/svg" width="625" height="750" viewBox="0 0 750 900">
<rect fill="#fff" stroke="#000" width="750" height="900"/>
<rect fill="#fcd116" width="750" height="713.294"/>
<rect fill="#009e49" y="723.779" width="750" height="66.222"/>
<rect fill="#ce1126" x="0.000581011" y="799.941" width="750" height="100"/>
<path fill="#000" d="M161.968 816.252l33.7028 0c13.0051,0 21.9697,6.50551 21.9697,20.1366 0,14.765 -10.4965,21.1287 -24.2161,21.1287l-11.0917 0 0 24.3531 -20.3646 0 0 -65.6185zm20.3646 27.9744l4.96535 0c4.83898,0 10.6028,-1.29331 10.6028,-7.24252 0,-5.78976 -4.80709,-7.3937 -9.79252,-7.3937l-5.77559 0 0 14.6362zm116.081 27.7287l-23.1 0 -3.17717 10.8319 -20.7165 0 24.6579 -65.6185 22.1067 0 24.6732 65.6185 -21.2197 0 -3.22441 -10.8319zm-4.24724 -14.1933l-7.25669 -23.589 -7.21063 23.589 14.4673 0zm65.3114 -40.5933l20.3197 0 0 65.6185 -20.3197 0 0 -65.6185zm106.975 38.8063l17.7685 5.37756c-3.64606,15.2421 -14.3291,22.5957 -29.7154,22.5957 -21.222,0 -34.115,-12.4335 -34.115,-34.0996 0,-20.7638 12.189,-33.7949 33.1677,-33.7949 14.798,0 25.2744,6.03071 30.0354,20.4118l-17.9055 3.9874c-1.71969,-5.50039 -5.60315,-9.22795 -11.6409,-9.22795 -10.6453,0 -13.3382,9.70157 -13.3382,18.4854 0,8.89134 1.64055,19.0217 12.6201,19.0217 8.0811,0 11.55,-5.49803 13.1232,-12.7571zm50.4626 -38.8063l21.2055 0 14.7732 47.224 14.5453 -47.224 20.5937 0 -24.352 65.6185 -21.9697 0 -24.7961 -65.6185z"/>
<path fill="#000" d="M375 0l88.5248 272.454 286.475 0 -231.763 168.384 88.526 272.454 -231.763 -168.385 -231.763 168.385 88.526 -272.454 -231.763 -168.384 286.475 0 88.5248 -272.454z"/>
</svg>