<?xml version="1.0" encoding="UTF-8" standalone="no"?>
<svg
   xmlns:dc="http://purl.org/dc/elements/1.1/"
   xmlns:cc="http://creativecommons.org/ns#"
   xmlns:rdf="http://www.w3.org/1999/02/22-rdf-syntax-ns#"
   xmlns:svg="http://www.w3.org/2000/svg"
   xmlns="http://www.w3.org/2000/svg"
   version="1.1"
   id="svg2"
   viewBox="0 0 660.00003 618.42873"
   height="174.53433mm"
   width="186.26668mm">
  <defs
     id="defs4">
    <clipPath
       clipPathUnits="userSpaceOnUse"
       id="clipPath4235">
      <path
         d="m 0,425.197 453.779,0 L 453.779,0 0,0 0,425.197 Z"
         id="path4237" />
    </clipPath>
  </defs>
  <metadata
     id="metadata7">
    <rdf:RDF>
      <cc:Work
         rdf:about="">
        <dc:format>image/svg+xml</dc:format>
        <dc:type
           rdf:resource="http://purl.org/dc/dcmitype/StillImage" />
        <dc:title></dc:title>
      </cc:Work>
    </rdf:RDF>
  </metadata>
  <g
     transform="translate(-42.047249,-216.96675)"
     id="layer1">
    <g
       transform="matrix(1.0006201,0,0,1.0006201,-0.23071727,-0.32628605)"
       id="g4203">
      <g
         transform="translate(1.0180397e-7,-3.6892957e-6)"
         id="g4318">
        <g
           transform="matrix(1.4535512,0,0,-1.4535512,42.251766,835.20385)"
           id="g4229">
          <g
             id="g4231">
            <g
               clip-path="url(#clipPath4235)"
               id="g4233">
              <g
                 transform="translate(211.8618,316.4084)"
                 id="g4239"
                 style="fill:#3aad2e;fill-opacity:1" />
              <g
                 transform="translate(155.9116,228.9226)"
                 id="g4243"
                 style="fill:#3aad2e;fill-opacity:1" />
              <g
                 transform="translate(287.7065,375.3323)"
                 id="g4247"
                 style="fill:#3aad2e;fill-opacity:1" />
              <g
                 transform="translate(48.3633,306.5085)"
                 id="g4251"
                 style="fill:#3aad2e;fill-opacity:1">
                <path
                   id="path4253"
                   style="fill:#3aad2e;fill-opacity:1;fill-rule:evenodd;stroke:none"
                   d="M 0,0 C 8.912,25.817 33.597,44.073 68.335,36.679 92.25,31.592 156.38,0.691 156.38,0.691 c 0,0 -47.337,-60.003 -72.797,-80.139 C 62.44,-96.172 37.616,-100.317 16.148,-83.579 -5.199,-66.925 -11.08,-32.112 0,0 m 239.3432,68.8238 c 20.471,14.891 45.889,15.708 66.841,1.824 54.374,-36.025 51.918,-111.787 -1.336,-113.505 -29.656,-0.956 -132.304,47.342 -132.304,47.342 0,0 43.367,47.295 66.799,64.339 M 107.5483,-77.5859 c 23.134,33.843 58.63,73.391 58.63,73.391 0,0 69.056,-29.016 93.044,-45.968 35.861,-25.339 31.545,-69.255 0,-95.629 -41.205,-34.451 -104.607,-34.711 -133.084,-16.505 -27.753,17.74 -38.624,51.653 -18.59,84.711 m 55.9502,87.4858 c 0,0 -73.697,32.074 -84.847,44.682 -10.959,12.388 -9.552,31.326 20.587,47.494 26.416,14.171 72.972,18.887 93.048,15.624 21.714,-3.537 36.299,-19.449 26.694,-39.729 -8.053,-17.003 -55.482,-68.071 -55.482,-68.071" />
              </g>
              <g
                 transform="translate(16.6455,51.0764)"
                 id="g4255" />
              <g
                 transform="translate(112.1504,36.8704)"
                 id="g4259" />
              <g
                 transform="translate(165.3135,44.0374)"
                 id="g4263" />
              <g
                 transform="translate(199.7041,87.3635)"
                 id="g4267" />
              <g
                 transform="translate(262.5308,57.2239)"
                 id="g4271" />
              <g
                 transform="translate(341.1685,44.0374)"
                 id="g4275" />
              <g
                 transform="translate(378.3345,43.9104)"
                 id="g4279" />
              <g
                 transform="translate(408.9771,29.5676)"
                 id="g4283">
                <path
                   id="path4285"
                   style="fill:#000000;fill-opacity:1;fill-rule:nonzero;stroke:none"
                   d="m 0,0 c 0,-8.828 6.401,-15.744 15.364,-15.744 8.959,0 15.36,6.916 15.36,15.744 0,8.834 -6.401,15.62 -15.36,15.62 C 6.401,15.62 0,8.834 0,0 m 29.187,27.656 15.615,0 0,-55.432 -15.615,0 0,7.172 c -5.63,-8.068 -13.057,-8.963 -17.026,-8.963 -17.025,0 -28.291,13.312 -28.291,29.567 0,16.386 11.141,29.447 27.521,29.447 4.224,0 12.546,-0.765 17.796,-8.963 l 0,7.172 z m -59.8296,-13.3132 0,-42.119 -15.62,0 0,42.119 -6.136,0 0,13.313 6.136,0 0,30.138 15.62,0 0,-30.138 10.75,0 0,-13.313 -10.75,0 z m -37.166,0.127 c -3.713,3.453 -7.422,3.713 -9.088,3.713 -3.709,0 -6.016,-1.796 -6.016,-4.484 0,-1.406 0.64,-3.579 4.995,-4.99 l 3.709,-1.155 c 4.353,-1.407 10.884,-3.584 14.083,-7.934 1.666,-2.306 2.817,-5.634 2.817,-9.217 0,-4.995 -1.667,-9.985 -6.15,-14.079 -4.475,-4.103 -9.855,-5.89 -16.636,-5.89 -11.522,0 -18.048,5.5 -21.506,9.214 l 8.188,9.473 c 3.074,-3.579 7.687,-6.401 12.291,-6.401 4.355,0 7.678,2.177 7.678,6.021 0,3.449 -2.808,4.864 -4.864,5.63 l -3.579,1.277 c -3.974,1.415 -8.578,3.202 -11.906,6.661 -2.563,2.687 -4.229,6.145 -4.229,10.62 0,5.38 2.567,9.858 5.761,12.551 4.358,3.454 9.988,3.969 14.468,3.969 4.093,0 10.625,-0.515 17.667,-5.891 l -7.683,-9.088 z m -78.6377,13.1865 0,-31.364 c 0,-2.949 0.256,-6.912 3.328,-9.73 1.922,-1.666 4.995,-2.817 7.938,-2.817 2.947,0 6.015,1.151 7.937,2.817 3.073,2.818 3.328,6.781 3.328,9.73 l 0,31.364 15.62,0 0,-33.927 c 0,-4.99 -0.645,-11.646 -6.791,-17.026 -5.12,-4.48 -13.308,-6.271 -20.094,-6.271 -6.782,0 -14.979,1.791 -20.099,6.271 -6.146,5.38 -6.786,12.036 -6.786,17.026 l 0,33.927 15.619,0 z m -62.8267,30.1396 0,-50.368 20.739,20.228 20.224,0 -25.984,-24.322 28.036,-31.113 -20.74,0 -20.613,23.686 -1.662,-1.536 0,-22.15 -15.62,0 0,85.575 15.62,0 z m -34.3906,-43.3261 c -3.714,3.453 -7.422,3.713 -9.089,3.713 -3.708,0 -6.015,-1.796 -6.015,-4.484 0,-1.406 0.64,-3.579 4.994,-4.99 l 3.709,-1.155 c 4.354,-1.407 10.884,-3.584 14.083,-7.934 1.666,-2.306 2.818,-5.634 2.818,-9.217 0,-4.995 -1.667,-9.985 -6.151,-14.079 -4.474,-4.103 -9.854,-5.89 -16.636,-5.89 -11.521,0 -18.047,5.5 -21.505,9.214 l 8.188,9.473 c 3.073,-3.579 7.687,-6.401 12.291,-6.401 4.35,0 7.678,2.177 7.678,6.021 0,3.449 -2.809,4.864 -4.865,5.63 l -3.579,1.277 c -3.973,1.415 -8.578,3.202 -11.906,6.661 -2.562,2.687 -4.228,6.145 -4.228,10.62 0,5.38 2.567,9.858 5.76,12.551 4.359,3.454 9.989,3.969 14.469,3.969 4.093,0 10.624,-0.515 17.666,-5.891 l -7.682,-9.088 z m -53.1631,-7.167 c -1.281,7.553 -7.427,11.131 -13.188,11.131 -5.76,0 -11.775,-3.708 -13.057,-11.131 l 26.245,0 z m 14.338,-19.588 c -1.666,-4.099 -7.942,-17.281 -27.266,-17.281 -8.968,0 -15.749,2.557 -21.249,7.807 -6.151,5.756 -8.704,12.927 -8.704,21.631 0,11.01 4.475,17.796 8.444,21.77 6.526,6.396 14.212,7.807 20.864,7.807 11.266,0 17.792,-4.484 21.631,-9.088 5.89,-7.042 6.661,-15.746 6.661,-21.766 l 0,-1.28 -41.479,0 c 0,-3.328 0.901,-6.912 2.688,-9.344 1.666,-2.308 5.124,-5.25 11.144,-5.25 5.882,0 10.365,2.822 12.928,7.292 l 14.338,-2.298 z m -109.8429,33.794 31.359,36.1 20.995,0 -36.099,-39.428 38.016,-45.957 -22.016,0 -30.338,38.275 -1.917,-1.922 0,-36.353 -16.646,0 0,85.385 16.646,0 0,-36.1 z" />
              </g>
            </g>
          </g>
        </g>
      </g>
    </g>
  </g>
</svg>
