<svg xmlns="http://www.w3.org/2000/svg" width="120px" height="120px" viewBox="0 0 120 120" class="js__img-to-svg replaced-svg">
    <circle fill="#37B34A" cx="60" cy="60" r="59.1479897"></circle>
    <path d="M60,119.953807 C26.9409752,119.953807 0.0461933276,93.0590248 0.0461933276,60 C0.0461933276,26.9409752 26.9409752,0.0461933276 60,0.0461933276 C93.0590248,0.0461933276 119.953807,26.9409752 119.953807,60 C119.953807,93.0590248 93.0590248,119.953807 60,119.953807 Z M60,1.6578272 C27.8289136,1.6578272 1.6578272,27.8289136 1.6578272,60 C1.6578272,92.1710864 27.8289136,118.342173 60,118.342173 C92.1710864,118.342173 118.342173,92.1710864 118.342173,60 C118.342173,27.8289136 92.1710864,1.6578272 60,1.6578272 Z" fill="#FFFFFF"></path>
    <path d="M37.0111206,46.6244654 L37.0111206,48.2668948 C37.0111206,49.0881095 36.8571429,49.8631309 36.5440547,50.5970915 C36.2309666,51.3310522 35.8049615,51.9828914 35.2557742,52.5577417 C34.7065868,53.132592 34.0701454,53.5842601 33.3361848,53.9178785 C32.6022241,54.251497 31.811805,54.4208725 30.9649273,54.4208725 C30.2412318,54.4208725 29.5124038,54.3233533 28.7630453,54.1231822 C28.0188195,53.9230111 27.34645,53.5739949 26.7459367,53.0761334 C26.150556,52.578272 25.6578272,51.936698 25.2728828,51.1565441 C24.8879384,50.3712575 24.6928999,49.3704021 24.6928999,48.1539778 L24.6928999,33.5312233 C24.6928999,32.6586826 24.8417451,31.8528657 25.1394354,31.1086399 C25.4371257,30.364414 25.8579983,29.7177074 26.4071856,29.1685201 C26.956373,28.6193328 27.6082121,28.1933276 28.3678358,27.8802395 C29.1274594,27.5671514 29.9640719,27.4131737 30.8879384,27.4131737 C32.679213,27.4131737 34.1317365,27.9982891 35.2506416,29.1685201 C35.7998289,29.7433704 36.225834,30.4157399 36.5389222,31.2010265 C36.8520103,31.9863131 37.005988,32.8383234 37.005988,33.7570573 L37.005988,35.2506416 L33.20787,35.2506416 L33.20787,33.9777588 C33.20787,33.2335329 32.9974337,32.5868263 32.5714286,32.037639 C32.150556,31.4884517 31.5757057,31.2164243 30.8571429,31.2164243 C29.9127459,31.2164243 29.2814371,31.508982 28.9734816,32.0940975 C28.6603935,32.679213 28.5064157,33.4183062 28.5064157,34.3113772 L28.5064157,47.8922156 C28.5064157,48.6621044 28.6757913,49.3088109 29.0094098,49.8323353 C29.3430282,50.3558597 29.9486741,50.6176219 30.8212147,50.6176219 C31.0675791,50.6176219 31.3396065,50.5765612 31.6218991,50.4893071 C31.9093242,50.402053 32.176219,50.2583405 32.4225834,50.0581694 C32.6484175,49.8579983 32.8331908,49.5859709 32.9820359,49.2369547 C33.1308811,48.8879384 33.20787,48.4516681 33.20787,47.9332763 L33.20787,46.6295979 L37.0111206,46.6295979 L37.0111206,46.6244654 Z M46.3011121,30.9957228 L46.3011121,38.7202737 C46.3011121,39.1206159 46.2857143,39.798118 46.2651839,40.7527802 C46.239521,41.7125749 46.1779299,42.7596236 46.0804106,43.9041916 C45.9828914,45.0487596 45.8340462,46.1779299 45.6338751,47.2968349 C45.433704,48.4157399 45.1616766,49.3498717 44.8126604,50.0940975 C44.2172797,51.3618477 43.4576561,52.3627032 42.5389222,53.0966638 C41.6201882,53.8306245 40.5012831,54.1950385 39.182207,54.1950385 L38.956373,54.1950385 L38.956373,50.3917879 C39.7005988,50.3404619 40.2857143,50.1197605 40.7117194,49.7194183 C41.132592,49.3242087 41.4816082,48.8263473 41.7587682,48.225834 C41.9846022,47.7023097 42.1642429,47.0710009 42.2976903,46.3216424 C42.4362703,45.5774166 42.5389222,44.7818648 42.615911,43.9349872 C42.6928999,43.0881095 42.7390932,42.2207015 42.7647562,41.3224979 C42.7904192,40.4294269 42.8006843,39.5671514 42.8006843,38.7459367 L42.8006843,27.6390077 L53.8408896,27.6390077 L53.8408896,54.2001711 L50.037639,54.2001711 L50.037639,30.9957228 L46.3011121,30.9957228 Z M58.7989735,50.6176219 C59.1479897,50.6176219 59.5431993,50.5816938 59.9948674,50.5047049 C60.4414029,50.427716 60.7904192,50.2686056 61.0419162,50.0222412 C61.2420873,49.8220701 61.4576561,49.5038494 61.6937553,49.0727117 C61.9298546,48.6364414 62.1454234,48.0205304 62.3455945,47.2249786 L62.679213,45.7724551 L56.9358426,27.6390077 L60.9649273,27.6390077 L64.5474765,40.1368691 L64.6244654,40.1368691 L67.421728,27.6390077 L71.4508127,27.6390077 L65.9281437,47.8203593 C65.5791275,49.0367836 65.2044482,50.1197605 64.8092387,51.0641574 C64.4088965,52.0085543 63.849444,52.7681779 63.1308811,53.3378956 C62.5355004,53.8357571 61.9041916,54.13858 61.2472198,54.251497 C60.5902481,54.364414 59.86142,54.4208725 59.0658683,54.4208725 L58.5423439,54.4208725 L58.5423439,50.6176219 L58.7989735,50.6176219 Z M74.3969204,54.2001711 L74.3969204,27.6390077 L84.9905902,27.6390077 L84.9905902,31.2215569 L78.2001711,31.2215569 L78.2001711,54.2001711 L74.3969204,54.2001711 Z M83.384089,54.2001711 L89.3173653,27.6390077 L92.4893071,27.6390077 L98.4225834,54.2001711 L94.6193328,54.2001711 L93.5004277,48.4927288 L88.3165098,48.4927288 L87.1976048,54.2001711 L83.384089,54.2001711 Z M92.7869974,44.9101796 L90.9238666,35.2865697 L90.8468777,35.2865697 L88.9837468,44.9101796 L92.7869974,44.9101796 Z M14.0786997,86.5303678 L14.0786997,59.9692044 L17.8819504,59.9692044 L17.8819504,71.3481608 L22.5834046,71.3481608 L22.5834046,59.9692044 L26.3866553,59.9692044 L26.3866553,86.5303678 L22.5834046,86.5303678 L22.5834046,74.704876 L17.8819504,74.704876 L17.8819504,86.5303678 L14.0786997,86.5303678 Z M29.1890505,86.5303678 L35.1223268,59.9692044 L38.289136,59.9692044 L44.2224123,86.5303678 L40.4191617,86.5303678 L39.3002566,80.8229256 L34.1163388,80.8229256 L32.9974337,86.5303678 L29.1890505,86.5303678 Z M38.5868263,77.245509 L36.7236955,67.6218991 L36.6467066,67.6218991 L34.7835757,77.245509 L38.5868263,77.245509 Z M47.0196749,86.5303678 L47.0196749,59.9692044 L52.7271172,59.9692044 C53.774166,59.9692044 54.6928999,60.1077844 55.4884517,60.3798118 C56.2840034,60.6518392 57.0076989,61.1394354 57.6544055,61.8323353 C58.3011121,62.5303678 58.7476476,63.3413174 58.9991446,64.2754491 C59.245509,65.2095808 59.3738238,66.4721985 59.3738238,68.063302 C59.3738238,69.2591959 59.3071001,70.2651839 59.1685201,71.0863986 C59.0299401,71.9076133 58.7373824,72.6775021 58.2908469,73.4011976 C57.7673225,74.2737382 57.0744226,74.9512404 56.201882,75.433704 C55.3293413,75.9161677 54.1847733,76.1625321 52.7681779,76.1625321 L50.8280582,76.1625321 L50.8280582,86.5355004 L47.0196749,86.5355004 L47.0196749,86.5303678 Z M50.8229256,63.5517536 L50.8229256,72.5799829 L52.6501283,72.5799829 C53.4200171,72.5799829 54.0153978,72.4670659 54.4414029,72.2463644 C54.8622754,72.0205304 55.1753636,71.7125749 55.3755346,71.3122327 C55.5757057,70.9375535 55.6937553,70.4807528 55.7296835,69.9315654 C55.7656116,69.3823781 55.786142,68.7767322 55.786142,68.1043627 C55.786142,67.4833191 55.7707442,66.893071 55.7502139,66.3336185 C55.7245509,65.774166 55.6116339,65.2814371 55.4165954,64.8605646 C55.2164243,64.439692 54.918734,64.1163388 54.5235244,63.8905047 C54.1231822,63.6646707 53.5534645,63.5568862 52.8092387,63.5568862 L50.8229256,63.5568862 L50.8229256,63.5517536 Z M62.9101796,66.2360992 C62.9101796,65.1685201 63.094953,64.2189906 63.4696322,63.4029085 C63.8443114,62.5816938 64.3421728,61.899059 64.9632164,61.3498717 C65.5585971,60.8263473 66.2360992,60.4311377 66.9957228,60.1539778 C67.7553464,59.8819504 68.5201027,59.7433704 69.2899914,59.7433704 C70.0598802,59.7433704 70.8246364,59.8819504 71.5842601,60.1539778 C72.3438837,60.4260051 73.031651,60.8263473 73.6526946,61.3498717 C74.2480753,61.899059 74.7356715,62.5816938 75.1052181,63.4029085 C75.4798973,64.2241232 75.6646707,65.1685201 75.6646707,66.2360992 L75.6646707,80.2634731 C75.6646707,81.3823781 75.4798973,82.3421728 75.1052181,83.1377246 C74.7305389,83.9332763 74.2480753,84.5902481 73.6526946,85.1137725 C73.031651,85.6629598 72.3387511,86.0735672 71.5842601,86.3455945 C70.8246364,86.6176219 70.0598802,86.7562019 69.2899914,86.7562019 C68.5201027,86.7562019 67.7553464,86.6176219 66.9957228,86.3455945 C66.2360992,86.0735672 65.5585971,85.6629598 64.9632164,85.1137725 C64.3421728,84.5902481 63.8443114,83.9332763 63.4696322,83.1377246 C63.094953,82.3421728 62.9101796,81.3823781 62.9101796,80.2634731 L62.9101796,66.2360992 Z M66.7185629,80.2634731 C66.7185629,81.182207 66.9751925,81.8597092 67.4833191,82.2959795 C67.9914457,82.7322498 68.5970915,82.9478186 69.2899914,82.9478186 C69.988024,82.9478186 70.5885372,82.7322498 71.1017964,82.2959795 C71.609923,81.8597092 71.8665526,81.182207 71.8665526,80.2634731 L71.8665526,66.2360992 C71.8665526,65.3173653 71.609923,64.6398631 71.1017964,64.2035928 C70.5936698,63.7673225 69.988024,63.5517536 69.2899914,63.5517536 C68.5919589,63.5517536 67.9914457,63.7673225 67.4833191,64.2035928 C66.9751925,64.6398631 66.7185629,65.3173653 66.7185629,66.2360992 L66.7185629,80.2634731 Z M81.1565441,86.5303678 L81.1565441,90.6364414 L77.8716852,90.6364414 L77.8716852,83.1736527 L79.811805,83.1736527 C80.037639,82.7014542 80.2480753,82.1625321 80.4482464,81.5517536 C80.6484175,80.9409752 80.8229256,80.3045338 80.9717707,79.6321642 C81.1206159,78.9597947 81.2591959,78.2720274 81.3823781,77.5637297 C81.5055603,76.855432 81.6082121,76.1625321 81.6800684,75.4952951 C81.7313944,74.9717707 81.7724551,74.3866553 81.8083832,73.7399487 C81.8443114,73.0932421 81.8751069,72.4260051 81.9007699,71.7433704 C81.9264328,71.0607357 81.9418306,70.3781009 81.9572284,69.6903336 C81.9674936,69.0076989 81.9777588,68.3558597 81.9777588,67.7296835 L81.9777588,59.9692044 L92.9101796,59.9692044 L92.9101796,83.1736527 L95.0761334,83.1736527 L95.0761334,90.6364414 L91.7912746,90.6364414 L91.7912746,86.5303678 L81.1565441,86.5303678 Z M85.5551754,63.3259196 L85.5551754,67.6886228 C85.5551754,68.037639 85.5397776,68.540633 85.5192472,69.1976048 C85.4935843,69.8545766 85.4576561,70.5731394 85.4063302,71.3430282 C85.3550043,72.112917 85.3088109,72.893071 85.257485,73.673225 C85.2061591,74.4585115 85.144568,75.1462789 85.0727117,75.7416595 C85.0213858,76.239521 84.9443969,76.8041061 84.8314799,77.4405475 C84.7185629,78.0769889 84.5902481,78.7288281 84.4414029,79.4011976 C84.2925577,80.0735672 84.1283148,80.7408041 83.9589393,81.3977759 C83.7844311,82.0547476 83.5842601,82.6449957 83.3635586,83.1685201 L89.1017964,83.1685201 L89.1017964,63.320787 L85.5551754,63.320787 L85.5551754,63.3259196 Z M98.201882,82.9529512 C98.5508982,82.9529512 98.9461078,82.9170231 99.3977759,82.8400342 C99.8443114,82.7630453 100.193328,82.603935 100.444825,82.3575706 C100.644996,82.1573995 100.860565,81.8391788 101.096664,81.4080411 C101.332763,80.9717707 101.548332,80.3558597 101.748503,79.560308 L102.082121,78.1077844 L96.3387511,59.9692044 L100.367836,59.9692044 L103.950385,72.4670659 L104.027374,72.4670659 L106.824636,59.9692044 L110.853721,59.9692044 L105.331052,80.150556 C104.982036,81.3669803 104.607357,82.4499572 104.212147,83.3943541 C103.811805,84.3387511 103.252352,85.0983747 102.53379,85.6680924 C101.938409,86.1659538 101.3071,86.4687767 100.650128,86.5816938 C99.9931565,86.6946108 99.2643285,86.7510693 98.4687767,86.7510693 L97.9452524,86.7510693 L97.9452524,82.9478186 L98.201882,82.9478186 L98.201882,82.9529512 Z" fill="#FFDD00"></path>
</svg>