<?xml version="1.0" encoding="utf-8"?>
<!-- Generator: Adobe Illustrator 22.1.0, SVG Export Plug-In . SVG Version: 6.00 Build 0)  -->
<svg version="1.1" id="Layer_1" xmlns="http://www.w3.org/2000/svg" xmlns:xlink="http://www.w3.org/1999/xlink" x="0px" y="0px"
	 viewBox="0 0 130.1 35.5" style="enable-background:new 0 0 130.1 35.5;" xml:space="preserve">
<style type="text/css">
	.st0{clip-path:url(#SVGID_2_);fill:url(#SVGID_3_);}
	.st1{fill:#FFFFFF;}
	.st2{clip-path:url(#SVGID_5_);fill:#FFFFFF;}
</style>
<g>
	<defs>
		<path id="SVGID_1_" d="M3.6,1.1C2,1.1,0.8,2.3,0.8,3.9v27.7c0,1.5,1.2,2.8,2.8,2.8h123c1.5,0,2.8-1.2,2.8-2.8V3.9
			c0-1.5-1.2-2.8-2.8-2.8H3.6z"/>
	</defs>
	<clipPath id="SVGID_2_">
		<use xlink:href="#SVGID_1_"  style="overflow:visible;"/>
	</clipPath>
	
		<radialGradient id="SVGID_3_" cx="-231.5697" cy="443.3144" r="1" gradientTransform="matrix(82.0638 -0.5991 -0.3813 -52.2205 19240.627 23002.9063)" gradientUnits="userSpaceOnUse">
		<stop  offset="0" style="stop-color:#4DC6E7"/>
		<stop  offset="0.3996" style="stop-color:#4DC6E7"/>
		<stop  offset="0.7532" style="stop-color:#0096D5"/>
		<stop  offset="0.9437" style="stop-color:#0084BA"/>
		<stop  offset="0.9945" style="stop-color:#007EB2"/>
		<stop  offset="1" style="stop-color:#007EB2"/>
	</radialGradient>
	<polygon class="st0" points="0.6,1.1 129.3,0.2 129.6,34.4 0.8,35.3 	"/>
</g>
<polygon class="st1" points="60.2,6.9 50.9,17.9 51.7,6.9 39.2,6.9 29.6,28.6 38.9,28.6 43.8,17.1 44.4,17.1 44,28.6 49,28.6 
	59.3,17.1 60,17.1 54.6,28.6 63.8,28.6 73.5,6.9 "/>
<g>
	<defs>
		<rect id="SVGID_4_" x="0.8" y="1.1" width="128.5" height="33.3"/>
	</defs>
	<clipPath id="SVGID_5_">
		<use xlink:href="#SVGID_4_"  style="overflow:visible;"/>
	</clipPath>
	<path class="st2" d="M98.4,11.7c0-4.8-4.1-4.8-4.1-4.8H77l-9.7,21.7h9l3.4-7h0.4l2.8,7h10.7L89,19.4C94.3,19.4,98.4,16.7,98.4,11.7
		 M87.9,14.9c-0.9,2.7-2.7,2.5-2.7,2.5h-4l2-4.3h3.3C86.5,13.1,88.5,13.2,87.9,14.9"/>
</g>
</svg>
