<svg xmlns="http://www.w3.org/2000/svg" width="700" height="752.679" version="1" id="svg2" fill-rule="evenodd"><defs id="defs4"><style id="style6">.fil2{fill:#fc0}</style></defs><g id="Слой_x0020_1_0" transform="matrix(9.65053 0 0 9.65053 -251.744 -619.172)"><path class="fil2" id="polygon18" fill="#fc0" d="M53.83 90.562l8.523-26.403 8.523 26.403 27.745-.053-22.477 16.265 8.624 26.371-22.415-16.352-22.414 16.352 8.624-26.371-22.477-16.265z"/><path id="polygon20" fill="#d00" d="M55.606 92.999l6.747-20.918 6.748 20.918 21.964-.043-17.794 12.886 6.827 20.892-17.745-12.954-17.744 12.954 6.827-20.892-17.794-12.886z"/><g id="_122748816"><path id="_31901784" class="fil2" d="M51.775 110.64l2.215 2.138 4.048-4.048c3.82 3.896 9.47 2.979 11.457.535 4.506-5.728 3.055-11.533-5.652-17.49 4.812 5.27 8.019 10.463 3.284 14.893-2.826 2.368-7.103 2.826-10.464-.61l-4.888 4.582z" fill="#fc0"/><path id="_60763016" class="fil2" fill="#fc0" d="M59.566 98.573l2.825-2.52-4.047-1.07-4.736 4.66 2.52 2.443 1.987-1.986 12.907 12.984 1.91-1.757z"/></g></g><g transform="matrix(9.65053 0 0 9.65053 -243.022 -625.39)" style="line-height:100%;-inkscape-font-specification:'DejaVu LGC Sans';text-align:start" id="text2413" font-weight="400" font-size="13.408" font-family="DejaVu LGC Sans" fill="#fc0"><path d="M58.918 131.091v1.395a4.678 4.678 0 0 0-1.424-.93 4.224 4.224 0 0 0-1.607-.308c-1.118 0-1.973.342-2.567 1.025-.593.683-.89 1.67-.89 2.962 0 1.288.297 2.273.89 2.956.594.684 1.45 1.025 2.567 1.025.567 0 1.103-.103 1.607-.308a4.678 4.678 0 0 0 1.424-.93v1.382c-.463.314-.952.55-1.47.707a5.612 5.612 0 0 1-1.64.236c-1.48 0-2.645-.453-3.496-1.359-.851-.905-1.277-2.142-1.277-3.709 0-1.57.426-2.81 1.277-3.715.851-.906 2.017-1.359 3.496-1.359.585 0 1.136.078 1.653.233a5.235 5.235 0 0 1 1.457.697z" id="path3072"/><path d="M60.974 130.338h1.322v4.832l4.727-4.832h1.696l-3.778 3.863 3.975 5.912h-1.44l-3.392-5.035-1.788 1.827v3.208h-1.322z" id="path3074"/><path d="M70.507 130.338h1.322v9.094c0 1.179-.224 2.034-.671 2.567-.447.532-1.167.798-2.157.798h-.504v-1.113h.412c.585 0 .997-.163 1.237-.49.24-.328.36-.915.36-1.762z" id="path3076"/></g></svg>