<svg xmlns="http://www.w3.org/2000/svg" width="600" height="692.678"><path transform="matrix(1.7723357,0,0,1.7723357,-586.16785,-141.05291) translate(-3.3386639e-6,-0.15157368)" d="m 567.72011,400.36655 -71.28341,-37.81791 -71.56514,37.28201 13.93918,-79.48092 -57.57215,-56.54172 79.8983,-11.304 35.9836,-72.22672 35.44068,72.49467 79.81124,11.90315 -57.99476,56.10817 z" fill="#c00000" stroke="#fd9f3d" stroke-width="2.536"/><path d="m 1419.2857,508.3389 -35.7143,37.14286 17.5,16.42857 13.5715,-14.64286 73.5714,74.64286 c 10.206,12.24898 20.9399,-0.10842 11.0714,-9.28572 l -75.7143,-74.28571 21.7857,-22.5 z" transform="matrix(1.7723357,0,0,1.7723357,-586.16785,-141.05291) matrix(0.84537475,0,0,0.84537475,-722.15993,-167.9503)" fill="#fd9f3d"/><path d="m 1406.7857,580.48176 -29.6428,37.5 c -7.5775,8.53776 4.5572,19.45292 11.7857,10.35714 l 22.8571,-32.85714 c 72.1906,43.72069 115.728,-58.82931 41.0714,-88.92857 47.9027,43.5172 10.609,112.26868 -46.0714,73.92857 z" transform="matrix(1.7723357,0,0,1.7723357,-586.16785,-141.05291) matrix(0.84537475,0,0,0.84537475,-722.15993,-167.9503)" fill="#fd9f3d"/><g fill="#fd9f3d"><path d="m 195,510.93361 c 0.35765,26.17073 -21.6857,71.91226 15.26785,67.41072 22.32561,-2.71962 8.56055,-31.42857 1.07144,-47.85715 9.2002,10.77109 21.77934,22.71316 16.78571,44.37499 C 290.21238,539.69456 212.11937,527.51846 195,510.93361 Z" transform="matrix(1.7723357,0,0,1.7723357,-586.16785,-141.05291) matrix(0.84537475,0,0,0.84537475,182.08917,-174.37068)"/><path d="m 180.92043,597.22677 c 18.20721,18.80246 18.6312,58.59518 52.79438,40.10833 17.40214,-9.41688 -10.77626,-30.26024 -27.49312,-37.08162 14.08254,1.53032 31.93247,6.14145 43.15285,25.33192 24.01166,-73.07233 -43.77343,-29.44008 -68.45411,-28.35863 z" transform="matrix(1.7723357,0,0,1.7723357,-586.16785,-141.05291) matrix(0.84537475,0,0,0.84537475,182.08917,-174.37068)"/><path d="m 206.90124,661.48056 c 22.57623,13.24194 43.74593,48.8969 63.11996,26.53117 17.52011,-20.22554 -20.8151,-25.39012 -40.4573,-26.34769 13.86137,-2.21765 15.54736,-6.02885 42.61517,2.04437 21.82695,-60.7565 -42.65579,-14.52116 -65.27783,-2.22785 z" transform="matrix(1.7723357,0,0,1.7723357,-586.16785,-141.05291) matrix(0.84537475,0,0,0.84537475,182.08917,-174.37068)"/></g><path transform="matrix(1.7723357,0,0,1.7723357,-586.16785,-141.05291) translate(-3.3386639e-6,-0.15157368)" d="m 408.044,444.298 6.73688,-32.995 28.286,-14.709 c 45.82428,19.64375 60.63068,19.64375 105.67165,2.6e-4 l 28.28574,14.70859 6.73696,32.9947 c -55.39158,34.58678 -118.5058,35.45697 -175.71723,4.5e-4 z" fill="#fd9f3d"/><path d="m 1252.5,318.3389 c 53.0555,12.12416 92.9611,-0.65214 151.4457,-17.31273 87.4871,-24.92259 191.275,11.48051 241.4114,95.88416 l -55,103.57143 c -38.0566,-72.3033 -116.8536,-113.52916 -173.5523,-92.3348 -126.7137,47.36645 -105.2429,23.5025 -135.0191,29.47765 z" transform="matrix(1.7723357,0,0,1.7723357,-586.16785,-141.05291) matrix(0.84537475,0,0,0.84537475,-722.15993,-167.9503)" fill="#fff" stroke="#fd9f3d"/><path d="m 1252.5,318.3389 c 72.6818,54.61334 154.5631,-3.28861 207.8571,26.42857 66.3343,10.67485 119.5067,44.16342 157.2735,104.35509 l -27.2735,51.3592 c -38.0566,-72.3033 -116.8536,-113.52916 -173.5523,-92.3348 -126.7137,47.36645 -105.2429,23.5025 -135.0191,29.47765 z" transform="matrix(1.7723357,0,0,1.7723357,-586.16785,-141.05291) matrix(0.84537475,0,0,0.84537475,-722.15993,-167.9503)" fill="#c00000"/><path d="m 1252.5,318.3389 c 72.6818,54.61334 154.5631,-3.28861 207.8571,26.42857 -22.6263,4.5083 -53.7474,15.83389 -81.6089,44.32176 -23.5868,24.11709 -63.1237,45.50834 -96.9625,48.53538 z" transform="matrix(1.7723357,0,0,1.7723357,-586.16785,-141.05291) matrix(0.84537475,0,0,0.84537475,-722.15993,-167.9503)" fill="#004080"/><g style="line-height:125%;-inkscape-font-specification:'Arial Unicode MS'" font-weight="700" font-size="40" letter-spacing="0" word-spacing="0" font-family="Georgia Ref" fill="#c00000"><path style="-inkscape-font-specification:'Georgia Ref Bold'" d="m -278.52874,463.91793 -7.75346,-2.69225 c -0.50761,-2.74693 -1.15591,-5.44559 -1.9449,-8.09598 -0.78902,-2.65038 -1.66799,-5.22398 -2.6369,-7.72081 l 0.1243,0.0432 -3.55794,8.4719 c -0.14753,0.35124 -0.2137,0.67018 -0.19863,0.95677 0.0151,0.28662 0.14054,0.55363 0.37638,0.80103 0.13617,0.13003 0.43045,0.33937 0.88287,0.62801 0.45241,0.28862 0.95727,0.54103 1.51462,0.7572 l -0.83189,1.98084 -11.33996,-3.9376 0.82471,-1.96374 c 0.53549,0.13541 1.06236,0.26698 1.58064,0.39466 0.51824,0.12772 0.88554,0.18292 1.10185,0.16569 0.31353,-0.0227 0.58484,-0.13251 0.81395,-0.32955 0.22909,-0.19702 0.42234,-0.48295 0.57976,-0.85775 l 7.69348,-18.3191 c 0.14654,-0.34894 0.21502,-0.66185 0.20543,-0.93873 -0.01,-0.27685 -0.13848,-0.54198 -0.38658,-0.79542 -0.24567,-0.25515 -0.55287,-0.51099 -0.92162,-0.76755 -0.36877,-0.25651 -0.81953,-0.50036 -1.35226,-0.73154 l 0.82855,-1.97286 11.33996,3.9376 -0.83429,1.98655 c -0.57808,-0.17717 -1.12246,-0.30283 -1.63316,-0.37696 -0.51074,-0.074 -0.903,-0.11077 -1.17682,-0.11006 -0.33323,10e-4 -0.60968,0.11173 -0.82938,0.33203 -0.21973,0.22035 -0.40366,0.50689 -0.55179,0.85963 l -3.52826,8.4012 -0.19842,-0.0689 c 1.30054,-0.47701 2.68564,-1.03139 4.15529,-1.66313 1.46961,-0.63173 2.82245,-1.28354 4.05853,-1.95545 1.35849,-0.73739 2.37699,-1.34501 3.05551,-1.82287 0.67846,-0.47784 1.10791,-0.93153 1.28834,-1.3611 0.015,-0.0357 -0.0303,-0.11136 -0.136,-0.22689 -0.10571,-0.11549 -0.27192,-0.24967 -0.49868,-0.40248 -0.29302,-0.18182 -0.55933,-0.32399 -0.79898,-0.4264 -0.2397,-0.10239 -0.56033,-0.2407 -0.96186,-0.41502 l 0.82855,-1.97286 10.32045,3.5836 -0.84004,2.00023 c -0.27829,-0.0966 -0.48097,-0.15951 -0.60749,-0.19006 -0.12676,-0.0301 -0.27201,-0.067 -0.43563,-0.11081 -0.13875,-0.0368 -0.29869,-0.0667 -0.47984,-0.0895 -0.18124,-0.0228 -0.38135,-0.0514 -0.60039,-0.0856 -0.4842,-0.0523 -0.96719,-0.0544 -1.44895,-0.007 -0.48183,0.0479 -0.91104,0.16759 -1.28763,0.35912 -1.64701,0.75224 -3.49353,1.69541 -5.53957,2.82953 -2.04609,1.13416 -3.9185,2.02696 -5.61724,2.67844 0.9672,2.5154 1.73725,4.74215 2.31014,6.68026 0.57285,1.93811 1.16441,3.92301 1.77468,5.95467 0.23429,0.79655 0.52069,1.46854 0.85922,2.01599 0.33847,0.54742 0.6371,0.96319 0.89587,1.24731 0.22656,0.24244 0.53977,0.47728 0.93959,0.70453 0.39977,0.22723 0.86889,0.44654 1.40735,0.6579 z" transform="matrix(1.7723357,0,0,1.7723357,-586.16785,-141.05291) matrix(1.1570351,0,0,1.2724648,787.86689,-135.58592)"/><path style="-inkscape-font-specification:'Georgia Ref Bold'" d="m -243.46909,453.39633 c 0.59813,0.66489 1.04206,1.39833 1.33179,2.20032 0.28969,0.80201 0.43455,1.72507 0.43457,2.76916 -2e-5,2.51303 -0.92918,4.58517 -2.78747,6.21643 -1.85834,1.63127 -4.16201,2.4469 -6.91101,2.4469 -1.27117,0 -2.53053,-0.19388 -3.77808,-0.58166 -1.24757,-0.38778 -2.19646,-0.83883 -2.84668,-1.35315 l -0.71899,1.39893 h -2.20948 l -0.27832,-10.0879 h 2.31079 c 0.36702,1.32081 0.75887,2.43226 1.17554,3.33436 0.41666,0.9021 0.96028,1.73726 1.63086,2.50549 0.63883,0.7251 1.37186,1.29578 2.1991,1.71203 0.82722,0.41627 1.7934,0.6244 2.89856,0.62439 0.82843,10e-6 1.54315,-0.10518 2.14416,-0.31555 0.60098,-0.21036 1.08539,-0.50476 1.45325,-0.88318 0.3548,-0.3662 0.62458,-0.814 0.80932,-1.34338 0.18472,-0.52937 0.27709,-1.14115 0.2771,-1.83533 -1e-5,-1.01155 -0.28444,-1.95311 -0.85327,-2.8247 -0.56886,-0.87158 -1.4144,-1.53157 -2.53662,-1.97998 -0.88868,-0.35644 -1.86504,-0.73384 -2.92908,-1.13221 -1.06405,-0.39834 -1.97083,-0.76964 -2.72033,-1.11389 -1.60076,-0.7202 -2.84994,-1.67092 -3.74756,-2.85217 -0.89763,-1.18122 -1.34644,-2.71259 -1.34644,-4.59412 0,-1.0864 0.22156,-2.09938 0.66468,-3.03894 0.44311,-0.93951 1.0793,-1.78362 1.90857,-2.53235 0.76903,-0.69007 1.6868,-1.2343 2.75329,-1.63269 1.06648,-0.39832 2.17264,-0.5975 3.31848,-0.59753 1.30126,3e-5 2.46764,0.19961 3.49915,0.59875 1.03148,0.3992 1.83816,0.83804 2.42004,1.31653 l 0.68115,-1.30249 h 2.20459 l 0.16602,9.80103 h -2.31934 c -0.33286,-1.22476 -0.67018,-2.29714 -1.01196,-3.21717 -0.34181,-0.91998 -0.78045,-1.74375 -1.31592,-2.47131 -0.52491,-0.70635 -1.15215,-1.26259 -1.88171,-1.6687 -0.72959,-0.40606 -1.6266,-0.6091 -2.69104,-0.60913 -1.09132,3e-5 -2.02332,0.35179 -2.79602,1.0553 -0.77271,0.70355 -1.15907,1.56232 -1.15906,2.57629 -1e-5,1.09947 0.25349,2.00564 0.7605,2.71851 0.50699,0.71291 1.24307,1.29925 2.20825,1.75903 0.91145,0.43703 1.81477,0.81748 2.70996,1.14136 0.89517,0.32391 1.77489,0.67547 2.63916,1.05468 0.80158,0.34751 1.56513,0.73692 2.29065,1.16822 0.72549,0.43133 1.3751,0.9546 1.94885,1.56982 z" transform="matrix(1.7723357,0,0,1.7723357,-586.16785,-141.05291) matrix(1.1570351,0,0,1.2724648,787.86689,-135.58592)"/><path style="-inkscape-font-specification:'Georgia Ref Bold'" d="m -208.49789,463.15873 c -1.59605,0.50601 -3.24285,0.67732 -4.94041,0.51397 -1.69757,-0.16336 -3.32454,-0.64945 -4.88092,-1.45828 -1.56427,-0.82269 -2.99472,-1.96727 -4.29132,-3.43375 -1.29662,-1.46645 -2.34727,-3.24898 -3.15197,-5.34759 -0.80057,-2.08781 -1.20799,-4.09043 -1.22229,-6.00784 -0.0143,-1.91737 0.31216,-3.67949 0.97931,-5.28636 0.65495,-1.57796 1.6299,-2.95186 2.92485,-4.12173 1.29495,-1.1698 2.82074,-2.03317 4.57739,-2.59012 1.30479,-0.41364 2.55069,-0.62635 3.7377,-0.63814 1.18698,-0.0117 2.24312,0.14038 3.16839,0.45634 l 0.1762,-1.43525 2.07938,-0.65924 3.96651,9.83189 -2.22576,0.70564 c -0.63203,-0.98292 -1.33569,-1.92849 -2.11098,-2.83674 -0.77531,-0.90819 -1.54139,-1.62886 -2.29826,-2.16202 -0.85016,-0.6078 -1.72861,-1.01015 -2.63535,-1.20708 -0.90676,-0.19686 -1.82926,-0.14657 -2.76751,0.15087 -1.09887,0.3484 -2.02892,0.91732 -2.79014,1.70677 -0.76123,0.7895 -1.30796,1.78158 -1.64016,2.97626 -0.31031,1.15072 -0.37804,2.51818 -0.20322,4.1024 0.17482,1.58426 0.61479,3.29582 1.3199,5.13466 0.61759,1.61065 1.38392,3.01749 2.299,4.22052 0.91506,1.20305 1.9327,2.18419 3.05292,2.94341 1.12489,0.75343 2.28957,1.24539 3.49406,1.47586 1.20446,0.23049 2.42259,0.15047 3.6544,-0.24006 0.93133,-0.29526 1.72346,-0.70691 2.37638,-1.23495 0.6529,-0.52803 1.18278,-1.13923 1.58965,-1.83359 0.3732,-0.67421 0.65344,-1.39759 0.84071,-2.17015 0.18725,-0.77253 0.29093,-1.69677 0.31104,-2.7727 l 2.32603,0.21663 c -0.003,3.15448 -0.67828,5.58263 -2.02561,7.28446 -1.34738,1.70184 -3.24402,2.94048 -5.68992,3.71591 z m -6.38373,-36.37798 -2.23639,6.81737 c -0.13657,0.40358 -0.26872,0.71244 -0.39645,0.92657 -0.12775,0.21419 -0.53895,0.43139 -1.23361,0.65159 -0.59631,0.18908 -1.04284,0.23774 -1.33953,0.14608 -0.29672,-0.0916 -0.60724,-0.24118 -0.93154,-0.44865 l -6.42681,-4.11092 0.95106,-1.27885 6.50814,2.27653 3.47497,-5.44153 z" transform="matrix(1.7723357,0,0,1.7723357,-586.16785,-141.05291) matrix(1.1570351,0,0,1.2724648,787.86689,-135.58592)"/></g><path d="m 1293.2143,499.05319 7.8571,-1.42858 -49.2857,-180.71428 -5.7143,2.14286 z" transform="matrix(1.7723357,0,0,1.7723357,-586.16785,-141.05291) matrix(0.84537475,0,0,0.84537475,-722.15993,-167.9503)" fill="#fd9f3d" stroke="#fd9f3d"/><g fill="#fd9f3d"><path d="m 195,510.93361 c 0.35765,26.17073 -21.6857,71.91226 15.26785,67.41072 22.32561,-2.71962 8.56055,-31.42857 1.07144,-47.85715 9.2002,10.77109 21.77934,22.71316 16.78571,44.37499 C 290.21238,539.69456 212.11937,527.51846 195,510.93361 Z" transform="matrix(1.7723357,0,0,1.7723357,-586.16785,-141.05291) matrix(-0.84537475,0,0,0.84537475,811.52844,-174.37072)"/><path d="m 180.92043,597.22677 c 18.20721,18.80246 18.6312,58.59518 52.79438,40.10833 17.40214,-9.41688 -10.77626,-30.26024 -27.49312,-37.08162 14.08254,1.53032 31.93247,6.14145 43.15285,25.33192 24.01166,-73.07233 -43.77343,-29.44008 -68.45411,-28.35863 z" transform="matrix(1.7723357,0,0,1.7723357,-586.16785,-141.05291) matrix(-0.84537475,0,0,0.84537475,811.52844,-174.37072)"/><path d="m 206.90124,661.48056 c 22.57623,13.24194 43.74593,48.8969 63.11996,26.53117 17.52011,-20.22554 -20.8151,-25.39012 -40.4573,-26.34769 13.86137,-2.21765 15.54736,-6.02885 42.61517,2.04437 21.82695,-60.7565 -42.65579,-14.52116 -65.27783,-2.22785 z" transform="matrix(1.7723357,0,0,1.7723357,-586.16785,-141.05291) matrix(-0.84537475,0,0,0.84537475,811.52844,-174.37072)"/></g></svg>