<?xml version="1.0" encoding="utf-8"?>
<!-- Generator: Adobe Illustrator 24.1.2, SVG Export Plug-In . SVG Version: 6.00 Build 0)  -->
<svg version="1.1" id="Слой_1" xmlns="http://www.w3.org/2000/svg" xmlns:xlink="http://www.w3.org/1999/xlink" x="0px" y="0px"
	 viewBox="0 0 225.2 72.9" style="enable-background:new 0 0 225.2 72.9;" xml:space="preserve">
<style type="text/css">
	.st0{clip-path:url(#SVGID_1_);fill:#FF6000;}
	.st1{clip-path:url(#SVGID_1_);fill:#F6EBD1;}
	.st2{fill:#632340;}
	.st3{fill:#C5F9E4;}
</style>
<g>
	<defs>
		<rect id="SVGID_3_" width="225.2" height="72.8"/>
	</defs>
	<clipPath id="SVGID_1_">
		<use xlink:href="#SVGID_3_"  style="overflow:visible;"/>
	</clipPath>
	<path class="st0" d="M36.2,38.6c-1-1.2-2.2-2.2-3.7-2.8c-1.5-0.7-3.1-1.1-4.8-1.1c-1.6,0-3.2,0.3-4.6,1c-1.4,0.7-2.5,1.6-3.5,2.7
		c-1,1.2-1.8,2.5-2.3,4c-0.6,1.5-0.8,3.1-0.8,4.8c0,1.6,0.2,3.2,0.8,4.8c0.5,1.5,1.3,2.8,2.3,4c1,1.1,2.2,2,3.6,2.7
		c1.5,0.7,3.1,1,4.8,1c1.7,0,3.3-0.3,4.9-0.9c1.5-0.6,2.8-1.5,3.9-2.7l8.9,10.8c-2,2-4.6,3.5-7.8,4.6c-3.3,1.1-6.7,1.7-10.2,1.7
		c-3.7,0-7.3-0.6-10.8-1.8c-3.3-1.1-6.2-2.8-8.7-5.1c-2.5-2.3-4.5-5-5.8-8.1C0.7,54.8,0,51.2,0,47.1c0-4,0.7-7.5,2.1-10.7
		c1.4-3.1,3.3-5.8,5.8-8.1c2.6-2.3,5.5-4,8.7-5.2c3.5-1.2,7-1.8,10.7-1.8c1.8,0,3.5,0.2,5.2,0.5c1.7,0.3,3.4,0.8,5,1.3
		c1.5,0.5,3,1.2,4.4,2c1.3,0.8,2.4,1.7,3.5,2.7L36.2,38.6z"/>
	<path class="st0" d="M85.2,47c0-1.6-0.3-3.1-0.8-4.6c-0.5-1.5-1.3-2.8-2.4-4c-1-1.2-2.3-2.1-3.7-2.8c-1.5-0.7-3.2-1.1-4.9-1.1
		c-1.8,0-3.4,0.3-5,1.1c-1.4,0.7-2.6,1.6-3.6,2.8c-1,1.2-1.8,2.5-2.2,4c-0.5,1.5-0.7,3-0.7,4.6c0,1.6,0.2,3.1,0.7,4.6
		c0.5,1.5,1.2,2.8,2.2,4c1,1.2,2.2,2.1,3.6,2.8c1.6,0.8,3.2,1.1,5,1.1c1.7,0,3.4-0.3,4.9-1.1c1.4-0.7,2.6-1.6,3.7-2.8
		c1-1.2,1.8-2.5,2.4-4C84.9,50.2,85.2,48.6,85.2,47 M85.8,71.4v-6.3h-0.2c-1.6,2.5-3.8,4.4-6.7,5.7c-2.9,1.3-6,2-9.3,2
		c-3.7,0-6.9-0.7-9.8-2.1c-2.8-1.4-5.3-3.3-7.3-5.7c-2-2.5-3.6-5.2-4.6-8.2c-1.1-3.2-1.6-6.4-1.6-9.8c0-3.3,0.5-6.6,1.6-9.7
		c1-3,2.6-5.7,4.6-8.1c2-2.4,4.4-4.2,7.3-5.6c2.8-1.4,6-2,9.6-2c3.6,0,6.6,0.7,9.1,2c2.5,1.4,4.4,2.9,5.8,4.5h0.2V1.3h16.1v70.1
		H85.8z"/>
	<polygon class="st0" points="206,71.4 188.6,71.4 169.4,22.8 187.2,22.8 197.5,54.4 197.8,54.4 208,22.8 225.2,22.8 	"/>
	<polygon class="st1" points="164.3,26.4 164.3,26.4 164.3,26.4 	"/>
	<path class="st0" d="M125.6,56.7c-1.3-0.6-3.1-1.7-4.1-3.3c-1.3-2.1-1.1-5.5,0.5-7.8c2.3-3.4,6-3.8,9.6-2.7c5.3,1.6,10,4.4,14,8.2
		C140.8,57.2,132,59.7,125.6,56.7 M163.3,49.1c-0.1-0.1,0.3-1,0.4-1.2c1.1-4.1,1.7-8.2,1.6-12.5c-0.1-4.2-0.7-8.4-2-12.4l-13.8,5
		c0.6,2.6,0.9,5.1,0.9,7.8c-5.4-3.4-10.9-6.2-17-8c-2.2-0.7-5.3-1.2-6.9-3c-1.1-1.2-1.3-3.8-0.4-5.6c1-2,3.4-3.6,5.9-4
		c3.6-0.5,7.4,0.5,10.5,2.5l9.3-11c-6.2-4.8-14-7.4-22-6.2c-7.5,1.1-13.9,5.6-17.1,12c-3.3,6.6-2.8,14.6,1.1,20.4
		c-1.6,1.4-3,2.9-4.2,4.7c-4.7,7-5.1,16.5-0.9,23.6c2.3,3.9,6,7.1,10.6,9.3c3.9,1.8,8,2.7,12.3,2.7c2.9,0,5.8-0.4,8.6-1.2
		c5.1-1.4,9.7-3.9,13.6-7.5c0.6,2.4,0.9,4.8,0.9,7.2h15C169.6,63.2,167.4,55.7,163.3,49.1"/>
</g>
<g>
	<line class="st2" x1="461.4" y1="-4950.8" x2="1000.4" y2="-4950.8"/>
	<line class="st2" x1="461.4" y1="-4950.8" x2="1000.4" y2="-4950.8"/>
	<line class="st3" x1="461.4" y1="-913.6" x2="1000.4" y2="-913.6"/>
</g>
</svg>
