<!-- Created with Inkscape (http://www.inkscape.org/) -->
<svg xmlns:rdf="http://www.w3.org/1999/02/22-rdf-syntax-ns#" xmlns="http://www.w3.org/2000/svg" height="376.38" width="376.4" version="1.1" xmlns:cc="http://creativecommons.org/ns#" xmlns:dc="http://purl.org/dc/elements/1.1/">
	<metadata>
		<rdf:RDF>
			<cc:Work rdf:about="">
				<dc:format>image/svg+xml</dc:format>
				<dc:type rdf:resource="http://purl.org/dc/dcmitype/StillImage"/>
				<dc:title/>
			</cc:Work>
		</rdf:RDF>
	</metadata>
	<path fill-rule="nonzero" fill="#dc2c23" d="m0,376.38,376.4,0v-376.38h-376.4v376.38z"/>
	<path fill-rule="evenodd" fill="#FFF" d="m113.77,229.35c9.9,0,20.19,0,27.25,7.24,6.51,6.75,7.93,15.79,7.93,22.3,0,9.29-2.54,18.77-9.91,24.4-7.07,5.52-18.65,5.52-24.41,5.52h-7.37v34.75h-20.63v-94.21h27.14zm-6.51,15.29,0,27.94,6.51,0c7.19,0,13.31-1.55,13.31-14.12,0-13.82-8.79-13.82-13.31-13.82h-6.51zm90.38,11.83c-1.12-3.34-3.84-11.7-13.32-11.7-6.88,0-9.85,4.76-9.85,8.6,0,6.51,6.19,8.73,16.23,12.58,10.6,4.09,25.99,9.9,25.99,28.92,0,16.11-11.31,30.11-33.48,30.11-6.76,0-16.91-1.24-24.53-9.85-5.27-6.13-6.95-11.89-8.06-15.98l18.03-5.07c1.17,4.2,3.84,14.12,15.11,14.12,7.06,0,12.02-3.97,12.02-10.16,0-6.69-5.95-9.35-13.01-11.9-12.82-4.64-28.37-10.15-28.37-29.36,0-14.67,9.48-28.8,30.1-28.8,23.42,0,28.35,15.67,30.33,21.87l-17.19,6.62zm26.31-27.13,22.21,0c14.34,0,43.57,0,43.57,46.51,0,17.67-5.16,33.46-15.36,41.2-8.35,6.51-18.49,6.51-25.69,6.51h-24.73v-94.21zm20.65,77.99,3.48,0c8.22,0,19.8-0.99,19.8-31.78,0-28.93-11.46-29.92-19.8-29.92h-3.48v61.7z"/>
	<path fill-rule="evenodd" fill="#FFF" d="m157.63,163.16m61.16,0zm56.48-51.02c0-0.29-0.18-1.14-0.12-1.47,0.12-0.56-0.42-1.62-0.6-2.16-1.32-3.18-4.62-3.89-7.57-4.82,1.26-0.98-3.3-4.07-4.14-4.43-2.1-0.9-4.5-1.61-6.3-3-2.58-2.01-6.66-9.29-10.86-6.62-0.36,0.23-1.56,2.48-1.86,2.37-1.2-0.53-2.52-1.06-3.72-1.6-0.66-0.24-2.22-0.48-2.88-0.53-1.2-0.1-2.22,0.63-3.19,1.46-2.04,1.65-1.68,3.88-2.04,6.19-0.3,1.89-1.26,4.31-2.4,5.82-1.56,2.11-3.06,4.74-4.98,6.53-2.52,2.35-5.04,4.67-7.56,7.01-3.84,3.57-5.76,8.39-7.02,13.49-0.36,2.31-0.6,4.05-0.42,6.19,0.12,1.76,1.02,4.26,2.04,5.57,0.36,0.7,0.78,1.71,0.96,2.91,0.18,1.02,0.48,1.35,0.84,1.41,0.1,0.4,0.18,0.82,0.3,1.22,0.36,1.5,1.32,3.03,1.32,3.03s2.34,2.55,3.18,3.15c0.9,0.62,3.36,1.82,3.36,1.82s-2.04,3.97-2.4,5.23c-0.24,0.81-0.42,1.85-0.42,2.28,0,0.47-0.1,1.63-0.1,1.63l-0.12,1.66s-6.42,9.98-12.05,22.45c-1.69,3.73-4,14.06-4.15,17.53-0.15,3.48-0.36,6.67-0.36,6.67l4.23-3s0.5-7.8,1.36-11.57c0.52-2.3,3.65-10.18,3.65-10.18l1.98,2.9s3.36,4.13,6.9,6.08c3.6,1.94,5.82,1.77,5.82,1.77s1.74,0.26,4.26-0.75c2.52-1.02,3.48-1.71,3.48-1.71s-1.8-3.86-3.9-5.94c-2.04-2.08-5.82-5.05-8.64-5.64s-9.18,0.49-9.18,0.49,5.7-11.1,10.62-16.34c0.78-0.33,2.4-0.64,3.9-1.38,1.56-0.75,2.52-2.06,4.02-3.36,1.5-1.23,2.16-2.46,2.16-2.46s0.3-0.32,0.6-0.41c0.3-0.1,0.72,0.1,0.72,0.1s1.51,0.6,2.47,0.6c0.9,0,3.66,0.16,5.22-1.05,0.48-0.35,1.32-2.01,2.34-2.09,1.02-0.1,2.34,0.89,2.34,0.89,0.6,0.24,1.62-0.57,2.22-0.81,1.2-0.42,2.1-0.98,3.12-1.62,1.92-1.16,3.48-2.66,4.86-4.4,3.42-4.08,6.18-8.77,9.06-13.24,1.08-1.62,2.16-2.7,3.37-4.18,3.96-4.86,4.02-8.19,4.08-8.5,0.1-0.27-0.48-2.73-0.48-3.26-0.18-1.97,1.8-4.56,2.22-6.5,0.42-1.69,0.3-3.62,0.42-5.34zm-26.17-18.45c1.62-0.31,3,0.54,3.9,2.01,0.96,1.57,2.28,2.76,3.6,4.07-0.84-0.1-2.52-0.63-3.24-0.14-0.96,0.64-1.86,1.28-2.82,1.88l-1.98-4.48c-0.6-1.3-0.12-2.16,0.54-3.34zm22.87,19.4c-0.24,1.01-0.36,1.96-0.84,2.89-0.36,0.88-1.2,1.99-1.38,2.96-0.36,2.12-0.24,4.25-0.72,6.32-0.31,1.43-2.41,4.85-1.09,5.67,0.97-1.53,1.99-3.06,2.95-4.59-0.3,1.22-0.54,3.07-1.32,4.07-1.15,1.43-2.23,2.7-3.49,3.98-2.28,2.27-5.58,3.3-8.58,4.08-1.32,0.35-2.64,0.69-3.96,0.95-1.62,0.31-3.78,0.31-5.22,1.11-3.06,1.75-5.16,3.6-7.14,6.58,0.78,0.35,1.68-0.74,2.28-1.25,0.6-0.56,1.5-1.21,2.58-1.73s2.58-1.05,4.5-1.26c1.86-0.22,3.72-0.39,5.58-0.84,1.14-0.27,4.74-1.88,5.58-1.01-1.68,2.66-3.42,5.72-5.46,8.15-3.66,4.35-6.72,6.14-7.86,6.83-0.6,0.16-1.32,0.13-2.82-0.51-1.68-0.75-3.24,0.47-3.24,0.47s-0.36,0.52-0.78,1.16c-0.78,0.1-1.44,0.1-1.74,0.1-1.14,0.1-2.16-0.22-3-0.24-0.84,0-0.84-0.13-1.8,0.1-0.97,0.2-1.45,0.73-1.45,0.73l-0.72,0.5-0.42-0.14,0.24-1.45s0.1-0.53,0-0.93c-0.12-0.41-0.48-1.1-0.54-1.51-0.12-0.69-0.6-0.91-0.96-0.96-0.3-0.1-1.32,0.32-1.32,0.32s-0.6,0.1-1.98,0.41c-0.9,0.26-1.56,1.33-1.56,1.33l-0.42,0.39-0.18-0.15s0.36-0.47,0.42-1.13c0.1-0.96-0.6-0.67-0.96-1.17-0.42-0.51-3-1.82-5.7-4.09-1.14-0.94-1.98-1.93-1.98-1.93s-1.32-1.7-1.8-3c-0.3-0.91-0.96-1.31-1.2-2.15-0.1-0.1-0.12-0.19-0.24-0.33v-0.87s-0.18-0.37-0.48-1.2v-0.1c0,0.1-0.36-1.13-0.36-1.28,0-0.55-0.12-1.29,0-1.84,0.48-2.21,0.84-4.46,1.8-6.5,1.98-4.24,4.08-8.76,7.32-12.21,3.18-3.44,6.72-6.99,8.64-11.44,1.08-2.44,1.98-4.67,2.64-7.27,0.48-2.06,0.48-4.56,2.83-5.37,4.68-1.62,10.56,4.61,11.04,5.71,0.48,1.11,0.6,1.79,0.96,2.37,0.24,0.45,0.54,0.92,0.78,1.35,0.3,0.48,0.96,3.36,1.5,4.59,0.54,1.28,1.8,0.11,2.28-0.43-1.02-0.48,1.02-3.74,1.86-3.54,1.8,0.43,2.76,1.23,2.82,3.1,0.18,3.27-2.16,6.46-3.78,9.14,1.14,0.37,1.08,0.27,1.8-0.71,0.48-0.61,1.02-1.21,1.44-1.87,0.9-1.37,2.1-2.73,2.58-4.32,0.48-1.46,1.38-3.29,0.72-4.76-0.42-0.81-0.72-1.84-1.26-2.55-0.42-0.62-1.68-1.03-0.96-1.88,1.68,1.16,3.78,2.21,5.22,3.73,1.5,1.62,3.06,4.09,3.12,6.47,0,4.24-7.14,6.9-10.2,7.53-1.8,0.38-4.86,1.06-5.52-1.23-0.72-2.57-1.56-5.06-2.4-7.58-1.5-4.13-4.5-7.9-7.56-10.89-0.66,1.42,0,1.88,0.78,3.22,0.6,1.03,0.84,2.13,1.2,3.3,0.66,2.4,1.02,4.4,1.2,6.92,0.1,1.11-0.42,1.87,0.42,2.69,0.36,0.36,0.78,0.59,1.2,0.85,0.12,0.1,1.5,1.15,0.48,0.98-1.98-0.34-4.08-0.44-6.06,0.27-4.8,1.71-9.37,3.05-13.15,6.71-1.86,1.83-2.94,3.84-4.2,6.1-0.9,1.53-1.8,3.94-2.16,5.68-0.36,2.29-1.02,5-0.48,7.61,0.24,1.2,0.66,1.74,0.9,3.6,0.18,1.55,2.4,3.26,3.72,3.91-2.16-3.56-1.2-9.83,0-13.66,0.9-2.67,1.56-4.78,3.12-7.12,1.2-1.83,2.88-3.35,4.62-4.65,3.67-2.85,8.11-5.76,12.79-6.15,0.78-0.1,1.92,0.64,2.64,0.9,1.5,0.54,3,1.06,4.44,1.61,1.98,0.7,4.38,0.18,6.42,0,1.8-0.21,3.3-0.53,5.1-0.99,1.44-0.41,2.52-1.53,3.6-2.63,0.84-0.92,2.53-2.86,2.53-4.14,0-0.88,0.12-1.78,0-2.67,0-0.72-0.72-1.89-0.42-2.28,1.26,0.99,2.52,3.33,2.16,5.06zm-102.13,75.83c-5.62-12.47-12.06-22.44-12.06-22.44l-0.1-1.66s-0.1-1.16-0.1-1.64c-0.1-0.42-0.16-1.47-0.42-2.27-0.37-1.27-2.44-5.23-2.44-5.23s2.46-1.21,3.34-1.82c0.87-0.6,3.23-3.15,3.23-3.15s0.95-1.53,1.34-3.03c0.11-0.41,0.22-0.82,0.28-1.23,0.34-0.1,0.66-0.39,0.81-1.41,0.18-1.2,0.62-2.21,0.99-2.91,0.99-1.3,1.88-3.81,2.03-5.57,0.19-2.14-0.1-3.88-0.43-6.19-1.23-5.11-3.19-9.91-7.05-13.49-2.47-2.34-4.99-4.65-7.51-7-1.9-1.8-3.39-4.43-4.99-6.53-1.14-1.51-2.11-3.94-2.4-5.83-0.37-2.31,0-4.53-2.01-6.2-1-0.81-2.02-1.53-3.21-1.44-0.68,0.1-2.26,0.27-2.87,0.53-1.24,0.52-2.5,1.06-3.76,1.59-0.32,0.12-1.51-2.15-1.86-2.36-4.17-2.68-8.25,4.61-10.86,6.62-1.81,1.38-4.19,2.09-6.27,3-0.82,0.36-5.41,3.45-4.14,4.42-2.91,0.93-6.28,1.65-7.56,4.83-0.21,0.54-0.72,1.6-0.62,2.16,0.1,0.33-0.16,1.18-0.15,1.47,0.13,1.74,0,3.66,0.4,5.35,0.43,1.94,2.44,4.53,2.29,6.5-0.1,0.54-0.57,3-0.51,3.25,0.1,0.32,0.1,3.65,4.08,8.51,1.21,1.47,2.28,2.56,3.35,4.18,2.91,4.47,5.61,9.16,9.02,13.24,1.46,1.73,2.97,3.24,4.88,4.4,1.05,0.64,1.98,1.2,3.12,1.62,0.65,0.24,1.62,1.05,2.22,0.81,0,0,1.35-0.96,2.37-0.89,1.06,0.1,1.84,1.74,2.34,2.1,1.6,1.2,4.3,1.02,5.26,1.04,0.91,0,2.46-0.6,2.46-0.6s0.39-0.14,0.71-0.1c0.31,0.1,0.58,0.41,0.58,0.41s0.66,1.23,2.14,2.46c1.53,1.3,2.5,2.61,4.02,3.36,1.5,0.73,3.14,1.05,3.9,1.38,4.94,5.24,10.66,16.34,10.66,16.34s-6.37-1.08-9.19-0.49c-2.8,0.59-6.63,3.56-8.68,5.64-2.04,2.08-3.88,5.94-3.88,5.94s0.95,0.69,3.46,1.71c2.51,1.01,4.27,0.75,4.27,0.75s2.24,0.17,5.82-1.77c3.6-1.95,6.89-6.08,6.89-6.08l2.04-2.9s3.09,7.88,3.63,10.18c0.85,3.78,1.36,11.57,1.36,11.57l4.23,3s-0.21-3.19-0.36-6.67c-0.14-3.47-2.47-13.8-4.16-17.53zm-46.44-93.22c0.92-1.47,2.24-2.32,3.92-2.01,0.58,1.19,1.11,2.05,0.54,3.35l-1.97,4.47c-0.97-0.59-1.92-1.23-2.86-1.88-0.72-0.49-2.39,0-3.23,0.15,1.31-1.32,2.61-2.5,3.6-4.07zm27.86,57.6c-0.37,0.5-1.06,0.22-0.95,1.17,0.1,0.66,0.42,1.13,0.42,1.13l-0.23,0.15-0.38-0.39s-0.68-1.07-1.57-1.33c-1.36-0.38-1.99-0.41-1.99-0.41s-0.98-0.35-1.32-0.32c-0.34,0.1-0.82,0.27-0.94,0.96-0.1,0.41-0.44,1.1-0.53,1.51-0.12,0.4,0,0.93,0,0.93l0.21,1.45-0.39,0.14-0.7-0.5s-0.49-0.52-1.46-0.73c-0.94-0.21-0.99-0.11-1.8-0.1-0.83,0-1.86,0.29-2.98,0.24-0.35,0-1-0.1-1.75-0.1-0.43-0.64-0.79-1.16-0.79-1.16s-1.57-1.22-3.25-0.47c-1.46,0.64-2.25,0.67-2.82,0.51-1.17-0.68-4.17-2.48-7.85-6.83-2.04-2.42-3.78-5.49-5.49-8.15,0.87-0.87,4.44,0.74,5.58,1.01,1.86,0.45,3.72,0.62,5.61,0.84,1.9,0.21,3.38,0.74,4.46,1.26,1.12,0.52,2.02,1.17,2.62,1.73,0.58,0.51,1.47,1.6,2.31,1.25-2.01-2.98-4.12-4.82-7.2-6.58-1.39-0.8-3.6-0.8-5.19-1.11-1.33-0.26-2.64-0.6-3.96-0.94-3.03-0.78-6.3-1.82-8.59-4.08-1.29-1.29-2.37-2.55-3.51-3.99-0.75-1-0.99-2.85-1.28-4.07,0.99,1.53,1.95,3.06,2.93,4.59,1.31-0.82-0.8-4.24-1.1-5.67-0.44-2.07-0.38-4.2-0.73-6.32-0.15-0.97-0.96-2.08-1.38-2.96-0.45-0.93-0.59-1.88-0.81-2.89-0.37-1.73,0.89-4.07,2.13-5.06,0.33,0.4-0.41,1.56-0.42,2.28v2.67c0,1.29,1.72,3.22,2.58,4.14,1.02,1.1,2.14,2.22,3.6,2.62,1.75,0.48,3.3,0.79,5.08,1,2.02,0.2,4.46,0.72,6.41,0,1.48-0.55,2.96-1.07,4.45-1.62,0.72-0.25,1.86-0.95,2.64-0.89,4.69,0.38,9.1,3.3,12.81,6.15,1.71,1.3,3.4,2.82,4.61,4.65,1.52,2.34,2.21,4.45,3.07,7.11,1.24,3.85,2.21,10.1,0,13.66,1.36-0.64,3.54-2.36,3.76-3.9,0.24-1.86,0.62-2.4,0.87-3.59,0.59-2.62-0.1-5.33-0.49-7.62-0.33-1.74-1.26-4.15-2.12-5.68-1.29-2.26-2.36-4.29-4.23-6.1-3.8-3.66-8.35-5-13.14-6.71-1.95-0.7-4.05-0.61-6.07-0.27-0.99,0.17,0.39-0.91,0.5-0.98,0.43-0.26,0.84-0.5,1.2-0.85,0.84-0.81,0.36-1.57,0.43-2.69,0.16-2.54,0.54-4.52,1.2-6.92,0.33-1.17,0.56-2.26,1.17-3.3,0.78-1.33,1.47-1.81,0.78-3.22-3.02,3-6.06,6.76-7.5,10.88-0.88,2.54-1.74,5.03-2.44,7.59-0.66,2.3-3.74,1.61-5.51,1.23-3.11-0.63-10.21-3.29-10.19-7.53,0-2.37,1.61-4.85,3.07-6.46,1.42-1.54,3.54-2.57,5.24-3.73,0.74,0.83-0.56,1.25-0.98,1.86-0.52,0.72-0.82,1.75-1.19,2.56-0.69,1.47,0.19,3.31,0.65,4.76,0.5,1.59,1.67,2.95,2.59,4.33,0.42,0.65,0.95,1.25,1.43,1.86,0.76,0.97,0.64,1.07,1.8,0.7-1.58-2.67-3.94-5.86-3.78-9.13,0.1-1.88,1.03-2.67,2.82-3.1,0.84-0.2,2.86,3.07,1.84,3.54,0.51,0.54,1.74,1.72,2.3,0.44,0.52-1.23,1.23-4.1,1.53-4.59,0.24-0.45,0.51-0.9,0.76-1.34,0.35-0.6,0.49-1.28,0.98-2.38,0.5-1.1,6.33-7.33,11.02-5.72,2.37,0.82,2.34,3.32,2.85,5.38,0.65,2.6,1.54,4.82,2.62,7.27,1.92,4.45,5.43,7.99,8.66,11.43,3.24,3.45,5.31,7.97,7.3,12.21,0.95,2.04,1.28,4.29,1.78,6.51,0.13,0.55,0,1.29,0,1.84,0,0.14-0.33,1.35-0.35,1.27v0.1c-0.33,0.83-0.49,1.2-0.49,1.2v0.87c-0.11,0.15-0.2,0.27-0.22,0.34-0.25,0.83-0.89,1.23-1.22,2.14-0.46,1.31-1.76,3-1.76,3s-0.86,0.99-1.98,1.93c-2.75,2.28-5.33,3.58-5.72,4.09zm51.3,21.31c1.42-1.57,2.4-4.4,2.76-6.06,0.37-1.66,0.86-4.52,0.86-4.52s-0.74-0.1-1.82-0.12c-1.08-0.1-5.38,1.04-7.45,2.17-2.07,1.12-4.22,3.76-5.18,5.22-0.94,1.43-1.5,2.78-1.5,2.78l-0.39,2.7-0.16,1.05v-32.41l0.25-7.08s0.54-0.26,1.76-1.77c1.3-1.67,1.56-3.46,2.16-5.8,0.46-1.85,0.87-4.32,0.87-4.32s0.33,0.11,1.51-0.26c1.18-0.36,2.64-0.68,3.52-1.2,0.86-0.53,2.45-1.34,3.04-2.43,0.13-0.24,0.23-0.47,0.34-0.69,0.87-0.93,2.07-1.38,2.76-1.82,0.79-0.5,2.64-0.32,2.64-0.32,0.65-0.1,1.2-1.31,1.68-1.82,0.84-0.93,1.44-1.89,2.16-2.98,1.2-1.98,1.92-4.11,2.46-6.38,1.26-5.43,1.62-11.04,2.28-16.56,0.24-2.02,0.72-3.52,1.2-5.46,1.44-6.4,0-9.5-0.12-9.8-0.12-0.29-1.68-2.31-1.98-2.79-1.02-1.74-0.36-5.08-0.9-7.09-0.36-1.73-1.38-3.48-2.04-5.14-0.12-0.26-0.72-0.94-0.78-1.27-0.18-0.59-1.14-1.33-1.56-1.71-2.68-2.32-6.09-1.39-9.2-0.84,0.71-1.54-4.94-2.17-5.87-2.13-2.33,0.15-4.86,0.65-7.17,0.23-3.33-0.6-10.41-5.39-13.06-0.92-0.21,0.38-0.31,3.03-0.64,3.06-1.39,0.11-2.81,0.21-4.21,0.33-0.66,0.1-2.25,0.59-2.9,0.9-1.13,0.47-1.75,1.62-2.28,2.85-1.12,2.5,0.26,4.39,0.97,6.69,0.6,1.89,0.79,4.59,0.42,6.54-0.49,2.7-0.65,5.84-1.61,8.43-1.25,3.33-2.5,6.69-3.75,10.06-1.9,5.13-1.51,10.51-0.32,15.79,0.71,2.33,1.28,4.05,2.43,5.94,0.94,1.57,2.92,3.45,4.43,4.19,0.66,0.46,1.53,1.2,2.25,2.22,0.1,0.15,0.2,0.26,0.28,0.36,0.55,0.79,1.15,1.57,1.41,1.78,0.47,0.36,1.31,1.03,2.48,1.52,1.18,0.49,3.92,1.36,4.78,1.42,1.07,0.1,1.71-0.13,1.71-0.13h1.56s0,4.26,0.19,5.75c0.19,1.48,0.8,2.84,1.33,3.71,0.49,0.88,1.44,2.7,1.44,2.7l0.27,6.27v23.81s-0.51-4.62-0.51-5.64c-0.46-1.93-1.27-4.16-2.9-5.59-1.49-1.26-2.68-2.41-5.89-3.46-3.18-1.06-7.26-1.78-7.26-1.78s-0.11,0.95,0.49,4.29c0.63,3.33,1.63,5.85,3.04,7.46,1.42,1.63,3.88,4.14,6.03,5.11,2.15,0.99,7,2.06,7,2.06v42.89l1.9,1.2,1.91-1.29v-33.95s3.24-0.43,5.39-1.01c2.17-0.6,6.08-3.34,7.49-4.92zm-19.44-118.94c1.72,0.63,3.48,0.74,5.33,0.96-0.74,0.48-2.38,1.09-2.65,1.93-0.38,1.13-0.74,2.23-1.15,3.31-1.43-0.77-2.86-1.53-4.26-2.31-1.26-0.69-1.36-1.68-1.62-3.02,1.15-1.27,2.73-1.46,4.35-0.87zm5.84,65.46s-0.72,0.91-1.25,1.96c-0.45,0.88-1.3,2.55-1.3,2.55l-0.27-0.17s-0.1-0.24-0.1-0.62c0-0.37-0.4-0.92-0.66-1.27-0.25-0.33-1.02-0.64-1.57-0.72-0.56-0.1-2.4-0.25-2.4-0.25s-0.26-0.1-1.33-0.15c-1.06-0.1-4.05-0.53-4.92-0.9-0.83-0.38-1.64-1.14-2.56-1.94-0.76-0.68-2.45-2.07-2.97-2.49-0.15-0.15-0.35-0.33-0.61-0.57v-0.1c0.1,0.1-0.81-0.88-0.88-1.02-0.26-0.52-0.72-1.12-0.86-1.68-0.56-2.29-1.28-4.52-1.33-6.86-0.1-4.88-0.26-10.04,1.17-14.77,1.41-4.75,3.03-9.69,2.76-14.7-0.14-2.79-0.32-5.27-0.92-8-0.45-2.11-1.63-4.43,0.2-6.3,3.58-3.75,11.84-0.78,12.79,0,0.96,0.78,1.4,1.32,1.98,1.71,0.46,0.29,0.88,0.6,1.33,0.88,0.5,0.32,2.45,2.63,3.51,3.5,1.1,0.92,1.71-0.75,1.92-1.49-1.15,0.1-0.79-3.94,0.11-4.15,1.81-0.47,3.07-0.17,3.99,1.51,1.67,2.98,0.94,7.03,0.72,10.25,1.2-0.19,1.06-0.25,1.32-1.51,0.18-0.78,0.38-1.59,0.48-2.4,0.2-1.71,0.68-3.53,0.4-5.24-0.24-1.56-0.25-3.66-1.57-4.71-0.72-0.58-1.48-1.38-2.27-1.79-0.7-0.36-2.07-0.13-1.77-1.25,2.13,0.26,4.53,0.19,6.56,0.94,2.09,0.79,4.69,2.32,5.8,4.51,1.95,3.92-3.4,9.76-5.98,11.84-1.47,1.19-4.01,3.29-5.66,1.47-1.84-2.04-3.75-3.93-5.72-5.83-3.22-3.14-7.76-5.15-11.93-6.47,0,1.65,0.89,1.74,2.22,2.59,1.04,0.68,1.76,1.57,2.58,2.5,1.72,1.89,2.97,3.55,4.3,5.82,0.56,0.99,0.47,1.92,1.6,2.28,0.5,0.15,0.98,0.18,1.51,0.23,0.13,0,1.92,0.33,0.91,0.64-2.04,0.65-3.99,1.58-5.5,3.15-3.64,3.88-7.21,7.29-9.06,12.49-0.9,2.58-0.96,4.95-1.12,7.66-0.11,1.8-0.14,4.61,0.65,6.24,1.14,2.34,2.29,4.67,3.43,7.03,0.56,1.13,3.69,3.48,2.5,4.51,1.55-0.1,3.09-0.13,4.65-0.19-3.66-2.24-5.46-7.85-6.07-11.98-0.42-2.88-0.75-5.16-0.42-8.04,0.28-2.26,1.15-4.49,2.14-6.52,2.12-4.38,4.85-9.19,9.01-11.8,0.7-0.41,2.08-0.33,2.87-0.41,1.61-0.22,3.22-0.43,4.83-0.66,2.16-0.28,4.17-1.9,5.92-3.07,1.54-1.03,2.84-2.09,4.22-3.36,1.18-1.05,1.69-2.64,2.14-4.13,0.39-1.28,1.11-3.86,0.5-5.06-0.39-0.82-0.81-1.66-1.22-2.48-0.34-0.66-1.55-1.39-1.42-1.88,1.6,0.31,3.85,1.86,4.27,3.63,0.3,1.06,0.6,1.99,0.6,3.06,0,1.02-0.24,2.43,0.1,3.39,0.66,2.13,1.68,4.08,2.22,6.2,0.36,1.44,0,5.62,1.62,5.77,0.18-1.88,0.36-3.76,0.54-5.65,0.3,1.27,0.96,3.09,0.72,4.39-0.42,1.86-0.84,3.54-1.44,5.35-1.08,3.18-3.66,5.72-6.06,7.86-1.07,0.95-2.13,1.9-3.24,2.78-1.29,1.03-3.36,2.1-4.29,3.49-2.05,3.11-3.14,5.81-3.61,9.53,0.91-0.1,1.23-1.52,1.51-2.27,0.33-0.79,0.88-1.84,1.63-2.84,0.79-1,1.91-2.21,3.56-3.3,1.65-1.12,3.3-2.15,4.82-3.45,0.94-0.8,3.52-3.99,4.72-3.62-0.42,3.29-0.6,6.95-1.38,10.17-1.38,5.76-3.33,8.87-4.14,10.05-0.43,0.42-1.16,0.76-2.81,0.88-0.59,0.1-1.05,0.24-1.45,0.48,0,0-0.71,0.6-1.85,1.4-0.58,0.4-1.28,0.84-2.05,1.27-0.76,0.43-1.61,0.85-2.5,1.2-0.62,0.27-2.02,0.51-2.77,1.32-0.71,0.84-1.31,2.17-1.31,2.17s-0.24-0.19-0.66-0.62c0,0-0.5-1.22-0.83-1.48-0.32-0.28-0.47-1.45-1.53-1.43-1.06,0-1.73,0.9-1.73,0.9z"/>
	<path fill-rule="evenodd" fill="#FFF" d="m350.3,350.58-324.08,0,0-324.19,324.08,0,0,324.19zm-337.65,13.1,351.09,0,0-351.03-351.09,0,0,351.03z"/>
</svg>
