<?xml version="1.0" encoding="UTF-8" standalone="no"?>
<!-- Created with Inkscape (http://www.inkscape.org/) -->
<svg id="svg2" xmlns:rdf="http://www.w3.org/1999/02/22-rdf-syntax-ns#" xmlns="http://www.w3.org/2000/svg" height="180.8" width="620.28" version="1.1" xmlns:cc="http://creativecommons.org/ns#" xmlns:dc="http://purl.org/dc/elements/1.1/" viewBox="0 0 620.27581 180.80133">
 <g id="layer1" transform="translate(-49.862 -90.708)">
  <g id="g10" transform="matrix(1.3333 0 0 -1.3333 49.779 579.77)">
   <g id="g12" fill-rule="evenodd" transform="scale(.1)">
    <path id="path14" d="m3601.2 3553.8h589.86c102.58 0 188.28-12.83 257.29-38.47 69.05-25.64 120.34-63.05 153.87-111.99 33.57-48.93 50.46-109.42 50.46-181.23 0-31.83-3.42-66.03-10.26-102.58-54.72-275.91-248.55-413.75-581.3-413.75h-206.88l-66.68-384.68h-403.49zm353.92-287.23-51.3-273.56h174.38c52.37 0 95.96 15.17 130.81 45.31 34.82 30.14 52.14 70.31 52.14 120.53 0.01 71.81-62.2 107.72-186.37 107.72h-119.66" fill="#00a650"/>
    <g fill="#ed1c24">
     <path id="path16" d="m1985.2 3038.3c-34.84-30.13-78.43-45.31-130.8-45.31h-174.39l51.3 273.56h119.68c124.16 0 186.35-35.91 186.35-107.72 0-50.22-17.31-90.39-52.14-120.53zm1528.9 39.43c2.23 83.61-7.95 159.48-30.11 227.81-22.18 68.36-71.4 126.73-147.27 174.94-75.86 48.21-183.86 74.04-323.81 77.29-93.36 2.23-189.37-18.91-288.02-63.47-98.66-44.54-185.71-113.89-261.18-208.27-12.4-15.52-24.12-31.68-35.15-48.49-2.27 65.08-19.04 120.4-50.16 165.78-33.55 48.94-84.84 86.35-153.87 111.99-69.03 25.65-154.73 38.47-257.31 38.47h-589.85l-217.14-1232.7h403.49l66.68 384.68h206.88c214.31 0 370.97 57.2 469.98 171.61-2.37-24.46-4.75-52.59-7.07-84.39 2.24-148.69 49.63-264.43 142.37-347.42 92.76-82.99 222.12-124.48 388.1-124.49 106.37 0 203.2 20.55 290.46 61.85 87.25 41.28 161.29 99.46 222.12 174.91 60.81 75.47 104.15 158.67 130.17 249.79h-369.39c-45.55-133.44-123.66-200.15-234.31-200.15-120.41 0-182.25 67.72-185.5 203.4 4.28 54.3 8.74 94.38 13.02 120.42 16.27 96.61 47.38 177.36 93.55 242.45 46.18 65.09 107.21 97.65 183.07 97.64 45.56 0 87.67-13.22 126.1-39.87 38.45-26.64 55.13-77.89 49.63-153.78h364.52"/>
     <path id="path18" d="m214.23 3668-42.766-112.36h-105.49l91.711-57.43-53.871-120.65 116.05 77.92 99.336-73.84-47.031 120.8 90.457 52.52h-111.82zm-1.149-45.18 23.445-72.48 3.36-10.38h67.027l-42.277-24.55-11.11-6.44 4.665-11.97 28.117-72.22-57.5 42.74-8.504 6.32-8.801-5.91-72.703-48.82 32.582 72.98 5.316 11.91-11.054 6.92-47.453 29.72h53.273 10.344l3.675 9.66 27.598 72.52"/>
     <path id="path30" d="m1119 2403.3-173.01 148.01c10.887 11.66 21.317 23.89 31.094 36.86 179.1 237.64 95.264 602.95-187.32 815.94-123.76 93.28-265.11 141.87-399.95 147.07 111.81-23.42 227.2-85.32 324.02-182.65 104.41-104.96 167.56-231.32 185.62-351.25 22.488-116.41 1.457-233.91-69.043-327.46-6.094-8.08-12.555-15.76-19.184-23.23l-291.62 249.48 123.86 139.02-152.77 61.11-88.672-99.54-39.824 34.06-54.766-61.45 38.438-35.64-122.25-137.22 115.51-102.92 120.18 134.92 270.59-250.99c-143.31-90.84-345.72-88.87-521.04 10.66-0.382 0.22-0.773 0.42-1.156 0.63-39.058 21.33-75.898 46.61-108.64 76.15l-29.464-80.1-68.856-187.4-0.12891-0.12 0.058594-0.07-0.058594-0.16 0.20312 0.01 71.965-76.58 0.3828 0.36c0.2617-0.28 0.4453-0.61 0.7226-0.88 14.461-14.47 37.898-14.47 52.34 0 14.477 14.45 14.477 37.88 0 52.34-0.316 0.32-0.691 0.53-1.015 0.83l-28.164 29.96 0.4219 0.03 64.394 105.61 11.047-7.7c224.42-152.01 497.66-163.83 685.52-42.7l179.22-166.23 81.35 91.33"/>
    </g>
   </g>
  </g>
 </g>
</svg>
