<?xml version="1.0" encoding="UTF-8" standalone="no"?>
<svg
   xmlns:dc="http://purl.org/dc/elements/1.1/"
   xmlns:cc="http://creativecommons.org/ns#"
   xmlns:rdf="http://www.w3.org/1999/02/22-rdf-syntax-ns#"
   xmlns:svg="http://www.w3.org/2000/svg"
   xmlns="http://www.w3.org/2000/svg"
   height="271.41632"
   width="325.64313"
   version="1.1"
   id="svg2985">
  <metadata
     id="metadata2991">
    <rdf:RDF>
      <cc:Work
         rdf:about="">
        <dc:format>image/svg+xml</dc:format>
        <dc:type
           rdf:resource="http://purl.org/dc/dcmitype/StillImage" />
        <dc:title></dc:title>
      </cc:Work>
    </rdf:RDF>
  </metadata>
  <defs
     id="defs2989">
    <clipPath
       id="clip0">
      <rect
         y="0"
         x="0"
         width="331"
         height="331"
         id="rect5531" />
    </clipPath>
    <radialGradient
       gradientTransform="translate(-378.12938,-11.570911)"
       gradientUnits="userSpaceOnUse"
       r="100.2999"
       cy="241.4973"
       cx="286.24609"
       id="SVGID_1_">
      <stop
         id="stop4017"
         stop-color="#DED6C8"
         offset="0.2253" />
      <stop
         id="stop4019"
         stop-color="#F9F0E1"
         offset="0.7912" />
    </radialGradient>
    <radialGradient
       gradientUnits="userSpaceOnUse"
       r="100.2999"
       cy="241.4973"
       cx="286.24609"
       id="SVGID_1_-1"
       gradientTransform="translate(-554.14633,-306.82516)">
      <stop
         id="stop5192"
         stop-color="#DED6C8"
         offset="0.2253" />
      <stop
         id="stop5194"
         stop-color="#F9F0E1"
         offset="0.7912" />
    </radialGradient>
  </defs>
  <path
     id="path2995"
     d="M 98.37516,212.0849 C 20.500141,97.824434 3.7812385,73.187301 2.5104807,70.817792 0.34598933,66.781807 3.6963033,64.918817 30.155789,55.445162 43.837972,50.546351 73.62339,39.81009 96.34561,31.586808 209.06605,-9.2072582 215.53403,-8.8451592 232.24197,39.194752 c 8.66738,24.921104 6.90726,23.629299 22.54338,16.545327 12.99826,-5.888877 14.83792,-6.101904 17.22182,-1.99425 2.53465,4.367385 51.91378,156.546401 51.61869,159.080971 -0.3485,2.99332 -67.85079,27.12998 -71.72476,25.64647 -0.90445,-0.34634 -1.67815,-4.70844 -2.20609,-12.43798 -1.12278,-16.43854 -1.02834,-16.35484 -14.21531,-12.5983 -61.56652,17.53832 -71.06433,22.53009 -90.91425,47.78185 -3.54046,4.50394 -6.59116,8.18899 -6.77933,8.18899 -0.18818,0 -17.9231,-25.79532 -39.41096,-57.32293 z"
     style="fill:#c90000;fill-opacity:1;stroke:#ffd800;stroke-width:4;stroke-miterlimit:4;stroke-dasharray:none;stroke-opacity:1" />
  <path
     style="fill:#ffd600;fill-opacity:1;stroke-width:0.83986944"
     id="path6743"
     d="m 48.058167,63.323328 -0.262459,5.957816 -5.721609,1.57475 5.564135,2.07344 -0.262458,5.95782 3.700672,-4.67177 5.564135,2.09966 -3.306986,-4.96047 3.726921,-4.64553 -5.747857,1.601 z" />
  <path
     id="path3904"
     d="m 225.82486,153.49565 c -2.43174,1.13397 -4.43342,2.45803 -5.98009,3.9609 -1.55095,1.50713 -2.55087,3.09243 -3.04841,4.62819 -0.5052,1.55954 -0.53157,2.87006 -0.20886,4.06266 0.34533,1.27627 1.03399,3.17854 2.18073,5.63786 l 4.74315,10.09779 c 1.55201,3.32828 3.05776,5.58315 4.42696,6.83166 1.33278,1.21531 3.22113,1.86023 5.73863,1.8065 2.50801,-0.0535 5.40831,-0.86687 8.70573,-2.40448 3.16099,-1.47398 5.54579,-3.23498 7.14908,-5.29906 1.62186,-2.08801 2.3389,-3.95681 2.28974,-5.51572 -0.05,-1.58328 -0.87142,-4.16098 -2.51617,-7.68819 l -0.35658,-0.7647 -10.3659,4.8337 1.73009,3.71019 -0.0151,0.0415 c 0.43827,0.94175 0.78966,1.75388 1.02441,2.41868 0.23791,0.67419 0.39122,1.18363 0.3733,1.68788 -0.0344,0.9649 -0.67923,1.59251 -1.60719,2.02522 -0.9588,0.44707 -1.86424,0.56144 -2.5996,-0.0291 -0.71984,-0.57804 -1.36869,-1.6781 -2.17195,-3.40072 l -7.50338,-16.01711 c -0.83525,-1.79118 -1.27174,-3.03631 -1.26183,-3.96304 0.0104,-0.9634 0.64545,-1.64567 1.66574,-2.12149 0.90496,-0.42195 1.76152,-0.52909 2.47502,-0.0163 0.37425,0.26907 0.66952,0.66162 1.01532,1.2161 0.34583,0.55446 0.72634,1.26191 1.14342,2.1563 l 2.56403,5.42464 10.33758,-4.82049 -1.22633,-2.70381 c -1.47944,-3.17259 -2.954,-5.28675 -4.21565,-6.37851 -1.23061,-1.06478 -3.08991,-1.65798 -5.67259,-1.66489 -2.56121,-0.007 -5.50486,0.70505 -8.81329,2.24775 z m -30.68797,14.34452 c -2.43273,1.13444 -4.46372,2.47316 -6.00841,3.9741 -1.54897,1.5052 -2.53372,3.0446 -3.03329,4.58666 -0.50726,1.56584 -0.55681,2.89466 -0.23719,4.07587 0.3421,1.2643 1.07428,3.11706 2.22416,5.58312 l 4.71484,10.111 c 1.55433,3.33324 3.06392,5.66036 4.42505,6.90151 1.33277,1.2153 3.20794,1.83191 5.72542,1.77818 2.50762,-0.0535 5.45055,-0.85209 8.74726,-2.38936 3.16098,-1.47398 5.50425,-3.2501 7.10755,-5.31418 1.62188,-2.08802 2.36722,-3.97002 2.31806,-5.52892 -0.05,-1.58328 -0.85821,-4.13266 -2.50296,-7.65988 l -0.36979,-0.79302 -10.36589,4.8337 1.73009,3.7102 c 0.89773,1.92522 1.40253,3.20412 1.36748,4.18961 -0.0347,0.97176 -0.70318,1.5692 -1.62039,1.9969 -0.9588,0.44707 -1.87744,0.53313 -2.61281,-0.0574 -0.73314,-0.58867 -1.34406,-1.69919 -2.14363,-3.41392 l -7.47506,-16.03032 c -0.83524,-1.79116 -1.30003,-3.02311 -1.29015,-3.94983 0.005,-0.48479 0.21484,-0.93474 0.5101,-1.27228 0.29527,-0.33754 0.67676,-0.55691 1.18205,-0.79256 0.90495,-0.42196 1.76153,-0.52907 2.47502,-0.0163 0.37425,0.26905 0.66952,0.66162 1.01532,1.21609 0.34583,0.55447 0.71314,1.23358 1.13021,2.12798 l 2.57724,5.45296 10.29605,-4.8356 -1.22633,-2.70381 c -1.48135,-3.1767 -2.93027,-5.30393 -4.18732,-6.39171 -1.2306,-1.06477 -3.07673,-1.62968 -5.65939,-1.63658 -2.56121,-0.007 -5.50485,0.70505 -8.81329,2.24776 z m -64.18762,30.79319 -10.35269,4.86202 15.53122,33.30681 10.32437,-4.84881 -6.60341,-14.16106 a 0.66355248,0.55065911 65 0 1 0.8573,-0.67561 l 11.19716,12.32928 10.66233,-4.93744 -15.278,-14.94332 a 0.66355248,0.55065911 65 0 1 -0.2094,-0.523 l -0.72165,-17.59338 -9.54455,4.4507 1.1603,15.35448 a 0.66355248,0.55065911 65 0 1 -1.06861,0.22245 z m 38.09325,-17.76318 -17.80141,8.33542 15.53123,33.30681 10.35268,-4.86202 -12.55777,-27.00419 a 0.66355248,0.55065911 65 0 1 0.20413,-0.81928 l 3.85181,-1.79612 a 0.66355248,0.55065911 65 0 1 0.77393,0.32872 l 12.61252,27.04762 10.32436,-4.84881 -15.53122,-33.30681 z"
     style="font-style:normal;font-variant:normal;font-weight:normal;font-stretch:normal;font-size:40px;line-height:125%;font-family:Impact;-inkscape-font-specification:Impact;letter-spacing:0px;word-spacing:0px;fill:#ffd600;fill-opacity:1;stroke:none" />
  <text
     id="text3865"
     y="-54.595871"
     x="-298.71069"
     style="font-style:normal;font-weight:normal;line-height:0%;font-family:sans-serif;letter-spacing:0px;word-spacing:0px;fill:#000000;fill-opacity:1;stroke:none"
     xml:space="preserve"><tspan
       style="font-size:40px;line-height:1.25;font-family:Onyx;-inkscape-font-specification:Onyx"
       y="-54.595871"
       x="-298.71069"
       id="tspan3867"> </tspan></text>
  <path
     id="path3895"
     d="m 238.48676,55.011676 28.7579,83.779124"
     style="fill:#ffd600;fill-opacity:1;stroke:#ffd600;stroke-width:4;stroke-linecap:butt;stroke-linejoin:miter;stroke-miterlimit:4;stroke-dasharray:none;stroke-opacity:1" />
  <path
     id="path5185-1"
     d="m 164.63567,151.21933 c 0,0 -3.05061,-1.85449 -11.30096,1.99271 0,0 -5.82736,-15.97252 -31.70801,0.32538 l -2.89282,-15.62755 c 0,0 -0.37176,-1.32447 1.74526,-2.31164 2.85348,-1.33061 -2.2628,-3.18722 -2.93969,-3.43319 -0.67664,-0.24668 -0.64695,-2.48307 1.90409,-3.67264 0,0 -6.54481,-1.02212 -7.96279,-2.83863 -0.60388,-0.77405 0.37615,-3.07259 1.93146,-4.73463 1.68967,-1.80743 -0.75483,-2.05351 -2.31753,-2.70612 0,0 -2.84967,-1.01374 -1.67775,-4.23137 2.02141,-5.55373 3.98935,-10.29257 4.21066,-12.23673 0.22131,-1.944161 -5.5193,-3.939011 -5.5193,-3.939011 -1.71401,-1.037051 -0.40201,-5.430979 -0.10106,-6.883286 0.66795,-3.231386 0.71186,-5.426058 -0.19282,-8.660492 -0.81241,-2.902863 -0.0191,-5.819254 0.91788,-8.60865 5.36841,-15.974416 18.5553,-23.170465 31.69882,-25.856903 4.50693,-0.921883 10.06231,-0.853485 14.34311,-0.0789 18.99408,3.437185 40.54816,19.544356 37.3762,43.623625 -2.71821,20.630847 1.56865,27.815107 3.96309,31.588187 l 0.86955,0.93273 -31.11155,28.28447 -1.23583,-0.92736 z"
     style="fill:#d57b00;fill-opacity:1" />
  <path
     id="path5187-7"
     d="m 131.47766,54.155689 c -6.53937,3.03526 -12.30826,7.772799 -16.37052,13.696208 -2.44195,3.559918 -4.61923,9.432782 -3.7481,13.982027 1.28954,6.7334 0.7127,10.051191 0.36083,13.540659 -0.19877,1.966272 2.99067,2.00174 4.05373,4.281461 1.06328,2.280196 -1.9346,11.046206 -2.73115,13.234716 -0.79704,2.18875 -0.91224,2.57294 1.87293,3.58705 2.78516,1.01411 2.74697,-1.17169 4.04952,-1.77909 1.30257,-0.6074 2.65942,0.88997 4.01605,0.25736 1.35711,-0.63283 1.05602,-2.73028 0.0538,-3.32033 -2.0223,-1.19099 -0.16851,-2.49775 1.38896,-1.39411 1.17072,0.82898 1.24243,3.10199 0.7812,4.3692 -1.73884,4.77416 -7.69796,5.62867 -7.69796,5.62867 -1.16625,1.96417 -1.81739,4.10629 -1.81739,4.10629 4.96574,1.80737 16.11595,-2.21712 16.11595,-2.21712 -0.71837,-0.56978 -1.00581,-2.19631 -0.0491,-2.52592 2.25108,-0.77588 4.55103,1.63986 5.79755,2.86752 0.50536,0.49781 2.16707,2.47028 2.08732,3.30501 -8e-4,0.0122 0.64944,1.81282 -5.27596,-0.34345 -5.94317,-2.16314 -15.27145,4.0016 -13.35848,4.4996 3.37914,0.87988 3.89386,6.05003 2.79336,9.07471 -0.65734,1.80493 0.86576,8.29863 0.86576,8.29863 2.02356,-0.20314 5.4654,-1.15122 7.78285,-2.79174 1.24848,-0.88454 2.44955,-1.8192 3.63417,-2.78698 0.8454,-0.69075 2.17016,-1.82991 3.15531,-1.47135 0.67527,0.24498 0.69407,0.42089 1.38554,0.0822 0.66152,-0.3242 1.22472,-0.85583 1.8285,-1.27138 1.34661,-0.92272 2.67485,-1.86076 3.96113,-2.86663 2.28559,-1.7876 4.14714,-3.84267 6.01151,-6.04382 0.56727,-0.67001 1.73136,-2.25056 2.81161,-2.13034 2.13672,0.23696 5.07516,-1.39149 7.5861,-8.28916 0.39384,-1.08316 0.73086,-2.27381 0.89217,-3.47458 0.20851,-1.55428 0.12484,-3.12771 -0.53296,-4.53959 -0.19725,-0.42303 -0.59805,-0.70191 -2.00421,-1.2137 -1.40711,-0.51135 -0.4912,-1.99044 -0.41512,-1.82726 0.0758,0.1627 1.28796,1.21999 1.84878,0.95847 0.56131,-0.26175 1.58804,-2.60449 2.2295,-2.16839 0.2231,0.15114 -0.60369,1.11228 0.64354,1.30202 1.24673,0.19114 1.87478,-2.6948 1.87478,-2.6948 0.42884,-1.00685 0.38279,-3.03024 1.66978,-3.83719 1.99934,-1.25331 2.83094,-3.886375 3.53045,-6.015656 0.80305,-2.443217 1.21079,-4.999224 1.25521,-7.576317 0.0496,-2.906946 -2.71859,-5.904772 -6.22303,-6.747191 -3.94137,-0.947437 -7.10969,0.513808 -8.5827,4.238859 -0.30291,0.763445 -0.40153,1.632332 -0.59781,2.427036 -0.17099,0.690278 -0.2785,1.357371 -0.64452,1.975471 -0.0677,0.116023 -0.13726,0.19101 -0.21339,0.24515 -0.32173,0.233332 -2.94013,0.129667 -3.42005,0.08372 -0.79914,-0.0771 -1.1173,-0.953072 -1.89659,-1.10003 -0.63427,-0.119613 -1.25691,0.436378 -1.94286,0.323386 -2.39274,-0.393716 -0.7143,-2.002202 -0.8205,-2.930838 -0.10687,-0.93007 -1.70763,-0.980598 -2.24734,-1.500849 -0.53972,-0.52025 -1.74327,-0.497917 -1.74327,-0.497917 -1.62055,-0.333171 -1.91572,-2.273312 -2.52981,-3.590228 -0.61409,-1.316916 -1.29637,-1.713447 -2.16645,-2.030128 -0.8696,-0.316904 -0.77922,-0.929248 -0.77922,-0.929248 0.98743,-0.598524 2.90406,-0.182029 4.45938,1.051944 1.55579,1.233748 1.75086,-0.238813 1.8464,-1.115874 0.0965,-0.876327 -0.51104,-1.999838 -1.44143,-3.169258 -0.93158,-1.16945 -2.80705,-2.895705 -3.81548,-4.35615 -1.00772,-1.460189 -1.09253,-2.347965 -0.43092,-2.329652 0.66209,0.0181 2.50851,1.832606 2.99171,2.355327 0.48315,0.523902 1.77917,1.273336 3.62992,1.420516 1.85031,0.146222 4.37308,1.350999 4.85919,0.73807 0.48611,-0.61293 -0.98179,-0.907619 -0.56783,-1.100648 0.41441,-0.193242 1.03494,-0.149655 1.08173,-0.686478 0.047,-0.536345 -1.5481,-1.270685 -2.52953,-1.168997 -0.98238,0.102136 -3.12924,-0.896194 -2.19272,-0.798088 0.93604,0.09832 2.89688,-0.659028 2.89688,-0.659028 1.29829,-0.917664 2.42643,-2.044657 3.15093,-3.471928 0.1635,-0.32151 0.27571,-0.777712 0.50867,-1.05646 0.55733,-0.668854 1.44452,-0.248007 2.14316,-0.08907 1.05972,0.239897 2.13598,0.413097 3.2196,0.228217 1.21083,-0.206912 4.89727,-3.257855 5.59274,-2.334853 1.12854,1.499393 4.60122,3.425369 4.60122,3.425369 6.62322,3.166744 10.09852,0.261148 10.09852,0.261148 -0.85193,-0.816256 -1.50488,-1.382884 -2.1824,-1.986267 -3.24713,-2.893086 -6.60779,-5.694491 -10.26169,-8.068146 -4.59067,-2.982002 -9.82022,-4.371281 -15.20174,-5.036339 -7.13657,-0.881908 -14.44629,0.451366 -20.98569,3.486606 z m -5.9698,33.697108 c 0.36624,-0.216863 0.69328,-0.306388 0.93605,-0.218024 1.00831,0.366993 11.23673,0.749918 11.23673,0.749918 0,0 -0.93267,1.308788 -1.72894,1.680097 -0.7958,0.371085 -8.71543,-0.825122 -9.78196,1.120511 -1.3226,2.413432 -3.69243,4.184681 -3.42242,4.763702 0.43982,0.943183 1.82843,0.702447 2.66126,0.670635 0,0 1.35786,-0.23833 2.63469,-0.518556 1.27539,-0.278378 2.15401,0.324595 2.15401,0.324595 1.37871,0.651598 2.12354,0.502639 3.78693,-0.273003 1.40975,-0.657378 2.14037,-1.401814 3.28215,-2.331549 0.24898,0.449002 0.5139,1.18915 0.66238,1.693762 0.6374,2.166516 -3.53848,2.799163 -4.62332,3.867223 -0.86876,0.854282 -1.57059,1.750152 -2.27451,2.735552 -1.10182,1.54262 -3.13727,1.80768 -3.02165,1.17234 0.14172,-0.778 0.18032,-2.4284 0.98476,-3.08082 0.51237,-0.415444 1.08912,-1.061035 0.95233,-1.354374 -0.13677,-0.29334 -1.71717,-0.02594 -2.21404,0.522667 -0.4964,0.548398 -1.19459,1.514527 -0.81289,1.653447 0.38101,0.13868 0.9435,-0.18959 -0.0323,1.45333 -0.97603,1.64245 -2.26882,0.36616 -2.26882,0.36616 -0.78154,-0.8252 -3.89346,-0.15067 -3.89346,-0.15067 -1.73691,-0.18162 -1.67317,-0.24922 -1.16578,-1.64108 0.20099,-0.55222 0.61478,-1.85965 0.0774,-2.293615 -0.50569,-0.408535 -1.62814,0.09536 -2.00338,-0.704332 -0.33783,-0.724495 -0.8701,-2.161123 -0.55434,-2.945712 0.23092,-0.575493 1.18586,-1.065064 1.66309,-1.430916 1.27294,-0.975758 2.59917,-2.038403 3.79076,-3.114886 0.44501,-0.401514 1.87655,-2.065777 2.97525,-2.716402 z m 38.72647,-2.492547 c 0.0672,-0.03078 0.12625,-0.04722 0.17843,-0.0468 0.83461,0.007 3.91442,1.093568 4.14225,1.582149 0.22761,0.488101 1.40411,2.393623 1.62653,4.229908 0.22242,1.836286 -0.74778,0.621784 -0.74778,0.621784 l -0.0558,-0.119633 c -0.4416,-0.947012 -1.75592,-3.272395 -3.10816,-2.956433 -0.80308,0.188056 -2.0188,2.181995 -1.85394,3.012784 0.26879,1.341025 1.72191,1.599346 2.76187,4.283073 1.17023,3.016811 -0.84934,3.891558 -2.47443,4.649358 -1.62605,0.75824 -0.92642,2.52564 -1.93468,2.99581 -1.0078,0.46994 -2.2796,-0.32065 -2.2796,-0.32065 l 1.20774,-2.05604 c -0.76562,0.35584 -0.6947,-0.24044 -0.6947,-0.24044 0.0738,-0.60766 1.69907,-2.726171 1.44446,-3.695711 -0.25436,-0.970243 -1.23873,-0.743381 -1.36034,-1.00418 -0.12138,-0.260321 -0.12062,-0.887396 0.24941,-0.753509 0.36909,0.134334 0.9659,0.04115 0.9659,0.04115 0.89297,-0.971021 0.0178,-2.538848 0.0178,-2.538848 -0.51568,-1.105884 -2.45064,-1.350559 -2.05169,-2.447754 0.37466,-1.028381 2.95782,-4.775437 3.96682,-5.236024 z m -37.51845,43.38369 c 1.37444,-0.70155 4.60842,-0.4325 4.96086,0.7999 0.49052,1.71535 -2.23985,3.40523 -3.31466,4.33112 -0.8733,-0.93329 -2.13542,-2.40492 -2.35633,-3.72574 -0.055,-0.32795 -0.0221,-0.69449 0.24253,-1.04158 0.10695,-0.13967 0.27125,-0.26348 0.4676,-0.3637 z m 43.42382,-10.69085 c -0.0803,0.0506 -0.13934,0.10989 -0.16752,0.18735 -0.34579,0.95007 -1.80673,1.00635 -2.29913,1.74572 l -0.11447,2.83886 c -0.057,0.89984 -0.17817,1.78772 -0.50018,2.63639 -0.54278,1.43342 -1.66855,2.52799 -2.73329,3.58668 -0.92828,0.92282 -1.88101,1.81 -2.87057,2.66759 0,0 -1.0446,12.69092 -1.32712,14.80111 -0.28231,2.11068 1.66292,2.69255 5.36194,2.87038 3.84742,0.18496 3.51911,-1.32522 3.90738,-3.06002 0.16116,-0.72007 1.56249,-0.69086 1.91924,-1.3501 0.47769,-0.88457 0.17746,-2.47544 0.21232,-3.44888 0.255,-7.04173 -0.16524,-14.26469 0.56648,-21.27357 0.22772,-2.18448 -1.39364,-2.55567 -1.95508,-2.20151 z m 11.17292,4.16594 c -0.85658,0.41056 -2.01744,1.39909 -2.47665,2.02876 -0.31726,0.43282 -1.09711,1.38561 -1.23656,1.75998 -0.19647,0.52565 -0.043,0.97984 -0.002,1.71251 0.1563,2.83887 0.16888,5.69626 0.23173,8.53966 0.0175,0.75213 -0.0142,1.53344 0.0632,2.2827 -2.8e-4,0.002 0.0852,0.86399 1.06065,-0.18509 0.78484,-0.84311 1.60159,-1.58343 2.57042,-2.21812 0.53277,-0.34923 1.68946,-0.73219 1.99998,-1.33314 0.36281,-0.69991 0.11425,-2.52168 0.0907,-3.31932 -0.0679,-2.46181 -0.13644,-5.12821 -0.64272,-7.54697 -0.13218,-0.63455 -0.1564,-1.78624 -0.94438,-1.90817 -0.18222,-0.0285 -0.42823,0.0503 -0.71376,0.18719 z"
     style="fill:#ffd600;fill-opacity:1" />
  <path
     style="fill:#ffd600;fill-opacity:1;stroke-width:0.83986944"
     id="path6741"
     d="m 54.425082,78.874064 c 9.203926,2.84683 17.657984,9.0367 16.135678,17.399356 l -13.026175,-5.628096 2.412983,-5.58545 -8.085383,1.27456 -4.87682,11.289006 6.349873,2.7427 2.367053,-5.478826 13.301763,5.746216 c -2.806979,4.65079 -8.944827,7.18396 -16.966349,2.50155 l -1.538667,3.56126 c 0.165082,0.0919 0.324782,0.1822 0.48719,0.27229 -0.752315,-0.17863 -1.545819,-0.23479 -1.6863,0.0557 -0.336842,0.697 0.405052,0.61026 -0.257539,2.14397 -0.63737,1.47533 -1.488678,0.54047 -2.362132,2.56226 -0.665492,1.54042 0.04252,3.3288 1.582957,3.99429 h 0.0018 c 1.540474,0.66548 3.328807,-0.0442 3.994301,-1.58459 0.873456,-2.02179 -0.391313,-2.0006 0.246056,-3.47594 0.662591,-1.53372 1.107942,-0.93373 1.384472,-1.65676 0.0853,-0.22122 -0.209165,-0.57254 -0.626622,-0.91207 8.174151,3.76744 16.67924,0.56562 19.973147,-5.63467 l 6.295737,2.71975 c 0,0 1.907992,0.70931 2.782066,-1.31394 0.874103,-2.02328 -0.882517,-2.8969 -0.882517,-2.8969 L 74.617415,98.02537 C 77.062098,89.144344 71.006874,77.907114 54.425084,78.874094 Z" />
</svg>
