<svg width="448.10001" height="400" version="1.1" viewBox="0 0 118.55979 105.83334" xmlns="http://www.w3.org/2000/svg">
 <g transform="translate(0,-191.16666)">
  <g transform="matrix(6.7441019,0,0,6.7441019,-830.2376,-1608.9119)">
   <g transform="matrix(.35277777 0 0 -.35277777 137.71738 273.62004)">
    <path d="m0 0c-3.396-9.888-12.332-18.535-19.958-19.31-7.626-0.773-16.851 5.506-20.604 14.025-3.755 8.52 5.182 17.165 19.957 19.31 14.776 2.145 24.001-4.134 20.605-14.025" fill="#fcd205"/>
   </g>
   <g transform="matrix(.35277777 0 0 -.35277777 139.47068 273.2945)">
    <path d="m0 0c0.193-10.454-5.422-21.635-12.324-24.971-6.901-3.335-17.718-0.59-24.158 6.131-6.442 6.723-1.001 17.903 12.149 24.971 13.152 7.071 24.141 4.325 24.333-6.131" fill="#50ade5"/>
   </g>
   <g transform="matrix(.35277777 0 0 -.35277777 139.78236 274.3576)">
    <path d="m0 0c-6.572-8.132-17.926-13.2-25.359-11.32-7.429 1.882-13.952 10.937-14.564 20.226-0.614 9.29 10.739 14.357 25.358 11.32 14.618-3.038 21.138-12.094 14.565-20.226" fill="#c6026c"/>
   </g>
   <g transform="matrix(.35277777 0 0 -.35277777 139.36224 270.64687)">
    <path d="m0 0c-2.554 3.574-7.625 5.542-14.28 5.542-1.736 0-3.572-0.139-5.455-0.411-9.185-1.332-16.42-5.284-19.353-10.571-1.638-2.955-1.796-6.117-0.46-9.147 3.524-7.992 11.831-14.018 19.32-14.018 0.447 0 0.895 0.022 1.329 0.066 7.61 0.772 16.528 9.333 19.88 19.084 1.227 3.571 0.887 6.84-0.981 9.455" fill="#fff"/>
   </g>
   <g transform="matrix(.35277777 0 0 -.35277777 138.71066 274.01717)">
    <path d="m0 0c-2.902-8.443-10.537-15.823-17.056-16.485-6.516-0.66-14.402 4.7-17.61 11.972-3.207 7.274 4.43 14.654 17.056 16.485 12.629 1.832 20.513-3.529 17.61-11.972" fill="#1565af"/>
   </g>
   <g transform="matrix(.35277777 0 0 -.35277777 135.65289 276.49127)">
    <path d="m0 0c-0.039 0.104-0.101 0.228-0.186 0.371l-3.242 5.011 2.801 3.176c0.107 0.136 0.188 0.264 0.241 0.387 0.053 0.121 0.081 0.236 0.081 0.343 0 0.079-0.021 0.145-0.065 0.199-0.043 0.053-0.12 0.098-0.23 0.133-0.111 0.036-0.258 0.063-0.441 0.081-0.182 0.018-0.405 0.027-0.67 0.027-0.272 0-0.495-9e-3 -0.671-0.027-0.174-0.018-0.322-0.045-0.439-0.081-0.118-0.035-0.213-0.085-0.285-0.15-0.072-0.064-0.135-0.139-0.193-0.225l-2.833-3.809v8.402c0 0.071-0.021 0.135-0.063 0.193-0.044 0.057-0.118 0.106-0.221 0.145-0.104 0.039-0.241 0.07-0.413 0.091-0.171 0.021-0.391 0.032-0.655 0.032s-0.483-0.011-0.654-0.032c-0.172-0.021-0.31-0.052-0.414-0.091s-0.177-0.088-0.22-0.145c-0.042-0.058-0.063-0.122-0.063-0.193v-14.111c0-0.072 0.021-0.135 0.063-0.189 0.043-0.053 0.116-0.097 0.22-0.133s0.242-0.063 0.414-0.081c0.171-0.017 0.39-0.026 0.654-0.026s0.484 9e-3 0.655 0.026c0.172 0.018 0.309 0.045 0.413 0.081 0.103 0.036 0.177 0.08 0.221 0.133 0.042 0.054 0.063 0.117 0.063 0.189v5.065l3.187-5.044c0.05-0.093 0.108-0.168 0.172-0.225s0.156-0.103 0.274-0.134c0.117-0.032 0.268-0.056 0.45-0.07 0.182-0.015 0.42-0.021 0.714-0.021 0.286 0 0.519 9e-3 0.698 0.026 0.178 0.018 0.319 0.043 0.423 0.075 0.104 0.033 0.175 0.076 0.214 0.129 0.04 0.054 0.06 0.117 0.06 0.188 0 0.086-0.02 0.18-0.06 0.284m-10.951 14.144c-0.1 0.039-0.236 0.069-0.407 0.09-0.172 0.022-0.392 0.033-0.655 0.033-0.265 0-0.483-0.011-0.655-0.033-0.171-0.021-0.31-0.051-0.413-0.09-0.104-0.04-0.175-0.088-0.215-0.145-0.04-0.058-0.058-0.122-0.058-0.194v-5.182c-0.43 0.421-0.863 0.741-1.299 0.96-0.436 0.218-0.922 0.328-1.46 0.328-0.68 0-1.28-0.13-1.801-0.387-0.523-0.257-0.96-0.626-1.31-1.105-0.351-0.48-0.617-1.059-0.799-1.739-0.183-0.68-0.275-1.445-0.275-2.296 0-0.708 0.072-1.383 0.216-2.023 0.142-0.64 0.373-1.2 0.692-1.679 0.318-0.48 0.729-0.86 1.233-1.144 0.505-0.282 1.122-0.423 1.851-0.423 0.659 0 1.258 0.146 1.798 0.441 0.54 0.292 1.057 0.703 1.55 1.233v-1.062c0-0.079 0.02-0.145 0.06-0.199 0.039-0.053 0.103-0.098 0.193-0.134 0.089-0.036 0.205-0.061 0.349-0.075 0.142-0.015 0.328-0.021 0.557-0.021 0.214 0 0.395 6e-3 0.542 0.021 0.148 0.014 0.263 0.039 0.348 0.075 0.087 0.036 0.148 0.081 0.184 0.134 0.036 0.054 0.053 0.12 0.053 0.199v14.078c0 0.072-0.021 0.136-0.065 0.194-0.042 0.057-0.113 0.105-0.214 0.145m-2.403-11.198c-0.229-0.286-0.441-0.528-0.634-0.724-0.193-0.197-0.38-0.356-0.563-0.478s-0.361-0.209-0.537-0.263-0.355-0.08-0.542-0.08c-0.371 0-0.68 0.089-0.922 0.268-0.243 0.179-0.439 0.416-0.585 0.714-0.147 0.296-0.252 0.635-0.317 1.013-0.064 0.38-0.096 0.77-0.096 1.17 0 0.379 0.037 0.749 0.112 1.111 0.076 0.361 0.19 0.688 0.343 0.982 0.155 0.293 0.358 0.527 0.612 0.703 0.255 0.175 0.557 0.263 0.908 0.263 0.386 0 0.756-0.13 1.11-0.387 0.354-0.258 0.723-0.629 1.111-1.116z" fill="#fff"/>
   </g>
  </g>
 </g>
</svg>
