<svg xmlns="http://www.w3.org/2000/svg" viewBox="0 0 442.49 442.49"><defs><style>.cls-1{fill:#f61918;}.cls-2,.cls-3{fill:#fff;}.cls-3{stroke:#fff;stroke-miterlimit:10;stroke-width:3px;}</style></defs><g id="Layer_2" data-name="Layer 2"><g id="Layer_2-2" data-name="Layer 2"><rect class="cls-1" width="442.49" height="442.49"/><polygon class="cls-2" points="182.2 179.38 175.08 185.51 173.61 177.88 180.26 172.06 179.51 169.23 169.91 178.03 182.71 227 192.31 217.56 182.2 179.38"/><polygon class="cls-2" points="232.43 226.31 226.54 233.63 234.21 234.84 239.81 227.99 242.66 228.65 234.19 238.54 184.81 228.85 193.92 218.93 232.43 226.31"/><polygon class="cls-2" points="195.76 164.49 188.64 170.62 187.16 162.99 193.82 157.17 193.07 154.34 183.47 163.14 196.27 212.11 205.87 202.67 195.76 164.49"/><polygon class="cls-2" points="245.98 211.41 240.1 218.74 247.77 219.95 253.36 213.1 256.21 213.75 247.75 223.65 198.37 213.96 207.48 204.04 245.98 211.41"/><polygon class="cls-2" points="209.31 149.59 202.19 155.72 200.72 148.1 207.37 142.28 206.62 139.45 197.02 148.25 209.82 197.22 219.43 187.78 209.31 149.59"/><polygon class="cls-2" points="259.54 196.52 253.66 203.84 261.33 205.06 266.92 198.21 269.77 198.86 261.3 208.76 211.92 199.07 221.03 189.15 259.54 196.52"/><polygon class="cls-2" points="223.87 134.7 216.75 140.83 215.28 133.21 221.93 127.38 221.18 124.55 211.58 133.35 224.38 182.32 233.98 172.88 223.87 134.7"/><polygon class="cls-2" points="274.09 181.63 268.21 188.95 275.88 190.16 281.47 183.31 284.33 183.97 275.86 193.86 226.48 184.17 235.59 174.25 274.09 181.63"/><polygon class="cls-2" points="237.42 120.81 230.31 126.94 228.83 119.31 235.49 113.49 234.74 110.66 225.13 119.46 237.94 168.43 247.54 158.99 237.42 120.81"/><polygon class="cls-2" points="287.65 167.73 281.77 175.06 289.44 176.27 295.03 169.42 297.88 170.07 289.42 179.97 240.04 170.28 249.14 160.36 287.65 167.73"/><polygon class="cls-2" points="251.98 104.91 244.86 111.04 243.39 103.42 250.04 97.6 249.29 94.77 239.69 103.57 252.49 152.54 262.09 143.09 251.98 104.91"/><polygon class="cls-2" points="302.2 151.84 296.32 159.16 303.99 160.38 309.58 153.53 312.44 154.18 303.97 164.08 254.59 154.38 263.7 144.47 302.2 151.84"/><polygon class="cls-2" points="265.54 90.02 258.42 96.15 256.94 88.52 263.6 82.7 262.85 79.87 253.25 88.67 266.05 137.64 275.65 128.2 265.54 90.02"/><polygon class="cls-2" points="315.76 136.95 309.88 144.27 317.55 145.48 323.14 138.63 325.99 139.28 317.53 149.18 268.15 139.49 277.26 129.57 315.76 136.95"/><polygon class="cls-2" points="280.09 76.13 272.97 82.25 271.5 74.63 278.15 68.81 277.4 65.98 267.8 74.78 280.6 123.75 290.21 114.31 280.09 76.13"/><polygon class="cls-2" points="330.32 123.05 324.44 130.38 332.11 131.59 337.7 124.74 340.55 125.39 332.08 135.29 282.7 125.6 291.81 115.68 330.32 123.05"/><polygon class="cls-2" points="293.81 61.23 286.69 67.36 285.21 59.74 313.85 30.58 312.01 28.86 281.51 59.89 294.32 108.86 303.92 99.41 293.81 61.23"/><polygon class="cls-2" points="344.03 108.16 338.15 115.48 345.82 116.7 373.03 87.33 375.12 88.8 345.8 120.4 296.42 110.7 305.52 100.78 344.03 108.16"/><polyline class="cls-2" points="296.71 59.48 319.15 36.09 317.31 34.38 294.81 57.8"/><polyline class="cls-2" points="309.51 68.86 330.79 46.37 328.95 44.65 307.61 67.18"/><polyline class="cls-2" points="318.89 70.27 336.19 51.77 334.35 50.05 316.99 68.6"/><polyline class="cls-2" points="335.11 86.49 352.41 67.99 350.57 66.27 333.21 84.82"/><polyline class="cls-2" points="327.58 72.8 341.8 57.38 339.96 55.66 325.68 71.13"/><polyline class="cls-2" points="301.23 66.19 325.13 41.13 323.29 39.41 299.32 64.51"/><polyline class="cls-2" points="346.93 107.44 369.37 84.06 367.53 82.34 345.03 105.76"/><polyline class="cls-2" points="337.07 95.47 358.36 72.98 356.52 71.26 335.17 93.79"/><polyline class="cls-2" points="333.44 77.05 347.13 62.16 345.29 60.44 331.54 75.38"/><polyline class="cls-2" points="340.15 103.89 364.06 78.84 362.22 77.12 338.25 102.22"/><polyline class="cls-2" points="300.33 68.86 329.4 76.38 335.17 103.86 306.98 97.77 300.33 69.38"/><line class="cls-3" x1="184.03" y1="227.62" x2="89.24" y2="330.66"/><path class="cls-2" d="M256.21,291.21a127.15,127.15,0,0,1-45.06-246A148.35,148.35,0,1,0,355.32,243.69,126.87,126.87,0,0,1,256.21,291.21Z"/><path class="cls-2" d="M311.53,236v-36.9h19a27.79,27.79,0,0,1,8.08.9,8.68,8.68,0,0,1,4.51,3.36,10.42,10.42,0,0,1-3.2,14.89,13.61,13.61,0,0,1-4,1.46,11.67,11.67,0,0,1,3,1.36,11.34,11.34,0,0,1,1.82,1.95,14.28,14.28,0,0,1,1.6,2.29L347.83,236H335l-6.1-11.28a8.64,8.64,0,0,0-2.06-2.84A4.81,4.81,0,0,0,324,221h-1v15ZM323,214h4.81a17.73,17.73,0,0,0,3-.5,3,3,0,0,0,1.85-1.16,3.4,3.4,0,0,0,.71-2.14,3.36,3.36,0,0,0-1.13-2.74c-.75-.64-2.17-1-4.25-1h-5Z"/><path class="cls-2" d="M351.43,199.05h19q6.19,0,9.28,2.94c2.05,2,3.08,4.76,3.08,8.39s-1.12,6.63-3.36,8.73-5.66,3.15-10.26,3.15h-6.24V236H351.43Zm11.46,15.73h2.79c2.2,0,3.74-.38,4.63-1.14a3.72,3.72,0,0,0,1.34-2.94,4.08,4.08,0,0,0-1.16-2.94c-.77-.81-2.22-1.21-4.36-1.21h-3.24Z"/><path class="cls-2" d="M42.25,413.1v-31h16a23.46,23.46,0,0,1,6.79.76,7.22,7.22,0,0,1,3.79,2.83,8.54,8.54,0,0,1,1.44,5,8.27,8.27,0,0,1-4.13,7.49,11.57,11.57,0,0,1-3.37,1.23,9.44,9.44,0,0,1,2.5,1.14,10.18,10.18,0,0,1,1.53,1.63,12.11,12.11,0,0,1,1.34,1.93l4.65,9H61.93l-5.13-9.48a7.21,7.21,0,0,0-1.73-2.39,4,4,0,0,0-2.35-.72h-.85V413.1Zm9.62-18.45h4a14.43,14.43,0,0,0,2.54-.42,2.56,2.56,0,0,0,1.56-1,3.14,3.14,0,0,0-.35-4.1,5.75,5.75,0,0,0-3.58-.81H51.87Z"/><path class="cls-2" d="M75.8,382.08h25.69v6.62H85.41v4.93h14.91V400H85.41v6.11H102v7H75.8Z"/><path class="cls-2" d="M107.16,382.08h23.69v6.67H116.78v5.41h12v6.26h-12V413.1h-9.62Z"/><path class="cls-2" d="M151,408H140.12l-1.51,5.12h-9.79l11.66-31h10.45l11.66,31h-10Zm-2-6.71-3.42-11.15-3.39,11.15Z"/><path class="cls-2" d="M165.68,382.08h9.58v10.85h10.47V382.08h9.63v31h-9.63V400.55H175.26V413.1h-9.58Z"/><path class="cls-2" d="M216.13,382.08h15.93q5.2,0,7.8,2.48t2.59,7a9.57,9.57,0,0,1-2.82,7.34c-1.88,1.77-4.76,2.65-8.62,2.65h-5.25V413.1h-9.63Zm9.63,13.22h2.35a6,6,0,0,0,3.89-1,3.08,3.08,0,0,0,1.12-2.46,3.44,3.44,0,0,0-1-2.48c-.65-.68-1.87-1-3.66-1h-2.73Z"/><path class="cls-2" d="M262.85,408H252l-1.51,5.12h-9.78l11.65-31h10.46l11.65,31h-10Zm-2-6.71-3.43-11.15-3.39,11.15Z"/><path class="cls-2" d="M277.61,413.1v-31h16a23.51,23.51,0,0,1,6.79.76,7.22,7.22,0,0,1,3.79,2.83,8.76,8.76,0,0,1-2.69,12.51,11.57,11.57,0,0,1-3.37,1.23,9.76,9.76,0,0,1,2.5,1.14,10.18,10.18,0,0,1,1.53,1.63,12.11,12.11,0,0,1,1.34,1.93l4.64,9H297.29l-5.12-9.48a7.36,7.36,0,0,0-1.73-2.39,4.05,4.05,0,0,0-2.35-.72h-.85V413.1Zm9.63-18.45h4a14.43,14.43,0,0,0,2.54-.42,2.58,2.58,0,0,0,1.56-1,3.14,3.14,0,0,0-.35-4.1,5.75,5.75,0,0,0-3.58-.81h-4.21Z"/><path class="cls-2" d="M308.63,382.08h29.13v7.66H328V413.1H318.4V389.74h-9.77Z"/><path class="cls-2" d="M342.48,382.08h9.61v31h-9.61Zm1.54-8.23h6.65v6.35H344Z"/><path class="cls-2" d="M357.29,402.84l9.12-.58a7,7,0,0,0,1.21,3.39,5,5,0,0,0,4.23,1.88,4.7,4.7,0,0,0,3.16-1,2.89,2.89,0,0,0,1.11-2.23,2.82,2.82,0,0,0-1.06-2.16q-1.05-.94-4.91-1.8-6.3-1.41-9-3.76a7.61,7.61,0,0,1-2.71-6,8.17,8.17,0,0,1,1.39-4.52,9.12,9.12,0,0,1,4.17-3.34,19.44,19.44,0,0,1,7.63-1.22q5.94,0,9.06,2.21c2.08,1.48,3.32,3.82,3.71,7l-9,.53a4.84,4.84,0,0,0-1.51-3.05,4.89,4.89,0,0,0-3.19-.95,3.78,3.78,0,0,0-2.51.71,2.14,2.14,0,0,0-.85,1.72,1.69,1.69,0,0,0,.7,1.33,7.9,7.9,0,0,0,3.21,1.15,39.68,39.68,0,0,1,9,2.74,9.41,9.41,0,0,1,4,3.43,8.69,8.69,0,0,1,1.24,4.6,9.86,9.86,0,0,1-1.65,5.5,10.27,10.27,0,0,1-4.61,3.81,18.62,18.62,0,0,1-7.47,1.31q-7.92,0-11-3.05A12,12,0,0,1,357.29,402.84Z"/><path class="cls-2" d="M390.63,382.08h9.61v31h-9.61Zm1.55-8.23h6.64v6.35h-6.64Z"/></g></g></svg>