<?xml version="1.0" encoding="UTF-8"?>
<svg xmlns="http://www.w3.org/2000/svg" width="512" height="512">
<circle id="circle" style="fill:#293d9b" r="256" cx="256" cy="256"/>
<path id="m" style="fill:#99def9" d="M 130.51599,374.755 C 153.88734,374.755 172.83429,356.65449 172.83429,334.31809 172.83429,321.57715 166.65786,310.22967 157.02915,302.815 L 193.14883,218.72546 227.66805,304.62986 C 219.29607,312.01866 214.01783,322.56404 214.01783,334.31809 214.01783,356.65449 232.96848,374.755 256.33983,374.755 279.71118,374.755 298.65812,356.65449 298.65812,334.31809 298.65812,321.65477 292.56671,310.36643 283.03779,302.94807 L 319.09464,219.02116 353.31448,304.19001 C 344.65048,311.59728 339.16156,322.33117 339.16156,334.31809 339.16156,356.65449 358.10851,374.755 381.47985,374.755 404.85859,374.755 423.80555,356.65449 423.80555,334.31809 423.80555,311.9817 404.85859,293.8738 381.47985,293.8738 380.95499,293.8738 380.43752,293.93294 379.91634,293.95512 L 346.06245,209.70293 C 356.09775,202.31044 362.59205,190.7338 362.59205,177.68977 362.59205,155.35706 343.64141,137.24546 320.27376,137.24546 296.8987,137.24546 277.95176,155.35706 277.95176,177.68977 277.95176,189.94651 283.68094,200.90587 292.69607,208.32423 L 255.93324,293.89228 C 255.31965,293.89967 254.71718,293.95512 254.10729,293.98099 L 219.93182,208.94889 C 229.38312,201.52683 235.408,190.28286 235.408,177.68977 235.408,155.35706 216.46105,137.24546 193.08969,137.24546 169.71096,137.24546 150.76771,155.35706 150.76771,177.68977 150.76771,190.32352 156.82955,201.59337 166.3289,209.01173 L 129.85806,293.90707 C 106.7935,294.24341 88.194,312.19238 88.194,334.31809 88.194,356.65449 107.14464,374.755 130.51599,374.755"/>
</svg>