<?xml version="1.0" encoding="UTF-8" standalone="no"?>
<!-- Generator: Adobe Illustrator 16.0.0, SVG Export Plug-In . SVG Version: 6.00 Build 0)  -->

<svg
   xmlns:dc="http://purl.org/dc/elements/1.1/"
   xmlns:cc="http://creativecommons.org/ns#"
   xmlns:rdf="http://www.w3.org/1999/02/22-rdf-syntax-ns#"
   xmlns:svg="http://www.w3.org/2000/svg"
   xmlns="http://www.w3.org/2000/svg"
   xmlns:sodipodi="http://sodipodi.sourceforge.net/DTD/sodipodi-0.dtd"
   xmlns:inkscape="http://www.inkscape.org/namespaces/inkscape"
   version="1.1"
   id="Layer_1"
   x="0px"
   y="0px"
   width="467.71661"
   height="82.37487"
   viewBox="214.5 347.5 467.71661 82.37487"
   enable-background="new 214.5 347.5 194 107"
   xml:space="preserve"
   inkscape:version="0.48.2 r9819"
   sodipodi:docname="Høyre Logo.svg"><metadata
   id="metadata5933"><rdf:RDF><cc:Work
       rdf:about=""><dc:format>image/svg+xml</dc:format><dc:type
         rdf:resource="http://purl.org/dc/dcmitype/StillImage" /><dc:title></dc:title></cc:Work></rdf:RDF></metadata><defs
   id="defs5931" /><sodipodi:namedview
   pagecolor="#ffffff"
   bordercolor="#666666"
   borderopacity="1"
   objecttolerance="10"
   gridtolerance="10"
   guidetolerance="10"
   inkscape:pageopacity="0"
   inkscape:pageshadow="2"
   inkscape:window-width="1379"
   inkscape:window-height="991"
   id="namedview5929"
   showgrid="false"
   fit-margin-top="0"
   fit-margin-left="0"
   fit-margin-right="0"
   fit-margin-bottom="0"
   inkscape:zoom="1.7783505"
   inkscape:cx="242.57426"
   inkscape:cy="43.51642"
   inkscape:window-x="1920"
   inkscape:window-y="0"
   inkscape:window-maximized="0"
   inkscape:current-layer="g5517" />

<g
   id="g5517"
   transform="matrix(1.25,0,0,-1.25,636.00275,414.63362)"><path
     inkscape:connector-curvature="0"
     d="m 0,0 c -0.041,2.649 -1.787,4.415 -4.281,4.415 -2.494,0 -4.281,-1.808 -4.281,-4.415 0,-2.565 1.745,-4.415 4.239,-4.415 l 0.042,0 C -1.745,-4.415 0,-2.565 0,0 m 14.464,6.957 0,0 c 0,-3.018 -1.691,-6.655 -3.946,-6.655 -0.846,0 -1.446,0.328 -1.904,0.801 l 0.53,3.382 c 0.492,2.873 1.796,4.837 3.523,4.837 1.269,0 1.797,-1.165 1.797,-2.365 m 6.306,0.473 0,0 c 0,3.818 -1.938,6.91 -5.708,6.91 -1.973,0 -3.91,-0.909 -5.248,-2.691 l -0.072,0 0.248,2.473 -5.356,0 C 4.422,12.267 3.964,8.886 3.612,6.776 l -3.332,-18.969 5.992,0 1.427,8.568 0.07,0 c 0.564,-0.4 1.796,-0.727 2.994,-0.727 6.131,0 10.007,5.6 10.007,11.782 m 5.111,12.764 0,0 -4.48,-24.146 5.989,0 4.482,24.146 -5.991,0 z"
     style="fill:#f2751c;fill-opacity:1;fill-rule:nonzero;stroke:none"
     id="path5519" /></g><g
   id="g5521"
   transform="matrix(1.25,0,0,-1.25,220.70125,347.5)"><path
     inkscape:connector-curvature="0"
     d="m 0,0 6.626,0 c 3.621,0 5.467,-0.362 6.771,-1.34 1.521,-1.158 2.317,-2.896 2.317,-5.069 0,-2.788 -1.231,-5.756 -3.186,-7.603 -1.449,-1.412 -3.186,-2.173 -5.467,-2.462 -0.725,-0.073 -1.702,-0.109 -3.585,-0.109 l -1.593,0 L 0,-26.757 l -4.961,0 L 0,0 z m 4.2,-11.84 0,0 c 1.34,0 2.643,0.145 3.512,0.363 1.774,0.47 2.933,2.027 2.933,3.91 0,1.339 -0.652,2.245 -1.81,2.534 -0.689,0.181 -1.593,0.254 -3.078,0.254 l -1.665,0 -1.34,-7.061 1.448,0 z"
     style="fill:#f2751c;fill-opacity:1;fill-rule:nonzero;stroke:none"
     id="path5523" /></g><g
   id="g5525"
   transform="matrix(1.25,0,0,-1.25,263.56538,380.9465)"><path
     inkscape:connector-curvature="0"
     d="m 0,0 -4.417,0 0.47,2.607 c -2.245,-2.173 -4.417,-3.078 -7.241,-3.078 -5.069,0 -8.4,3.259 -8.4,8.183 0,7.024 5.648,12.818 12.491,12.818 2.861,0 4.744,-1.014 5.902,-3.151 l 0.471,2.68 4.417,0 L 0,0 z m -14.628,8.69 0,0 c 0,-2.897 1.919,-4.743 4.888,-4.743 2.571,0 4.526,1.049 5.866,3.113 0.833,1.268 1.267,2.788 1.267,4.273 0,2.933 -1.883,4.779 -4.852,4.779 -3.838,0 -7.169,-3.439 -7.169,-7.422"
     style="fill:#f2751c;fill-opacity:1;fill-rule:nonzero;stroke:none"
     id="path5527" /></g><g
   id="g5529"
   transform="matrix(1.25,0,0,-1.25,271.67913,355.87275)"><path
     inkscape:connector-curvature="0"
     d="M 0,0 4.417,0 4.056,-1.955 c 1.556,1.882 2.823,2.498 5.177,2.426 L 8.364,-4.164 C 5.54,-4.2 3.548,-6.011 3.15,-8.907 l -2.063,-11.152 -4.816,0 L 0,0 z"
     style="fill:#f2751c;fill-opacity:1;fill-rule:nonzero;stroke:none"
     id="path5531" /></g><g
   id="g5533"
   transform="matrix(1.25,0,0,-1.25,287.83662,361.34888)"><path
     inkscape:connector-curvature="0"
     d="m 0,0 -2.354,0 0.833,4.381 2.354,0 1.231,6.698 4.816,0 -1.232,-6.698 2.897,0 L 7.712,0 4.816,0 1.919,-15.678 l -4.816,0 L 0,0 z"
     style="fill:#f2751c;fill-opacity:1;fill-rule:nonzero;stroke:none"
     id="path5535" /></g><g
   id="g5537"
   transform="matrix(1.25,0,0,-1.25,301.55,355.87275)"><path
     inkscape:connector-curvature="0"
     d="m 0,0 4.816,0 -3.73,-20.059 -4.816,0 L 0,0 z m 1.231,6.698 0,0 4.815,0 -0.832,-4.526 -4.816,0 0.833,4.526 z"
     style="fill:#f2751c;fill-opacity:1;fill-rule:nonzero;stroke:none"
     id="path5539" /></g><g
   id="g5541"
   transform="matrix(1.25,0,0,-1.25,332.28075,380.9465)"><path
     inkscape:connector-curvature="0"
     d="m 0,0 -4.417,0 0.47,2.607 c -2.245,-2.173 -4.417,-3.078 -7.241,-3.078 -5.069,0 -8.4,3.259 -8.4,8.183 0,7.024 5.648,12.818 12.491,12.818 2.861,0 4.744,-1.014 5.902,-3.151 l 0.471,2.68 4.417,0 L 0,0 z m -14.628,8.69 0,0 c 0,-2.897 1.919,-4.743 4.888,-4.743 2.571,0 4.526,1.049 5.866,3.113 0.833,1.268 1.267,2.788 1.267,4.273 0,2.933 -1.883,4.779 -4.852,4.779 -3.838,0 -7.169,-3.439 -7.169,-7.422"
     style="fill:#f2751c;fill-opacity:1;fill-rule:nonzero;stroke:none"
     id="path5543" /></g><g
   id="g5545"
   transform="matrix(1.25,0,0,-1.25,348.15437,347.5)"><path
     inkscape:connector-curvature="0"
     d="m 0,0 6.119,0 c 4.273,0 7.387,-0.688 9.305,-2.064 2.39,-1.774 3.73,-4.743 3.73,-8.327 0,-5.359 -2.752,-10.827 -6.843,-13.687 -2.752,-1.919 -5.902,-2.679 -11.044,-2.679 l -6.227,0 L 0,0 z m 1.955,-22.014 0,0 c 4.599,0 7.206,0.905 9.269,3.186 1.883,2.028 2.861,4.598 2.861,7.314 0,2.716 -1.05,4.707 -3.005,5.757 -1.376,0.76 -2.969,1.014 -6.011,1.014 l -0.977,0 -3.223,-17.271 1.086,0 z"
     style="fill:#f2751c;fill-opacity:1;fill-rule:nonzero;stroke:none"
     id="path5547" /></g><g
   id="g5549"
   transform="matrix(1.25,0,0,-1.25,379.429,371.08037)"><path
     inkscape:connector-curvature="0"
     d="m 0,0 c 0,-2.317 1.955,-3.946 4.707,-3.946 2.064,0 3.512,0.579 4.888,1.991 l 5.25,0 c -2.173,-3.983 -6.3,-6.409 -10.826,-6.409 -5.359,0 -9.088,3.512 -9.088,8.545 0,6.554 6.046,12.456 12.745,12.456 5.033,0 8.581,-3.368 8.581,-8.147 0,-1.774 -0.253,-3.367 -0.724,-4.49 L 0,0 z m 11.768,4.273 0,0 C 11.622,6.879 9.993,8.219 6.915,8.219 4.128,8.219 1.593,6.626 0.652,4.273 l 11.116,0 z"
     style="fill:#f2751c;fill-opacity:1;fill-rule:nonzero;stroke:none"
     id="path5551" /></g><g
   id="g5553"
   transform="matrix(1.25,0,0,-1.25,404.82,355.87275)"><path
     inkscape:connector-curvature="0"
     d="M 0,0 4.417,0 4.055,-1.883 c 1.666,1.666 3.295,2.354 5.721,2.354 2.751,0 4.345,-0.942 5.25,-3.114 1.883,2.1 4.164,3.114 7.061,3.114 4.236,0 6.697,-2.209 6.697,-5.975 0,-0.941 -0.108,-1.919 -0.289,-2.969 l -2.136,-11.586 -4.816,0 2.028,11.007 c 0.181,0.906 0.253,1.738 0.253,2.426 0,1.593 -1.231,2.679 -3.005,2.679 -1.593,0 -2.933,-0.724 -3.874,-1.991 -0.616,-0.869 -0.942,-1.919 -1.376,-4.236 l -1.846,-9.885 -4.816,0 2.027,11.007 c 0.145,0.833 0.254,1.629 0.254,1.991 0,0.978 -0.109,1.449 -0.398,1.92 -0.544,0.76 -1.521,1.194 -2.752,1.194 -1.666,0 -3.042,-0.76 -3.875,-2.172 -0.506,-0.833 -0.832,-1.92 -1.23,-4.055 l -1.847,-9.885 -4.816,0 L 0,0 z"
     style="fill:#f2751c;fill-opacity:1;fill-rule:nonzero;stroke:none"
     id="path5555" /></g><g
   id="g5557"
   transform="matrix(1.25,0,0,-1.25,469.90412,366.147)"><path
     inkscape:connector-curvature="0"
     d="m 0,0 c 0,-6.517 -6.083,-12.311 -12.926,-12.311 -4.961,0 -8.763,3.658 -8.763,8.473 0,6.626 6.047,12.528 12.854,12.528 C -3.694,8.69 0,5.069 0,0 m -16.728,-3.042 0,0 c 0,-2.823 1.991,-4.851 4.779,-4.851 3.621,0 6.988,3.512 6.988,7.241 0,2.825 -1.991,4.924 -4.707,4.924 -3.729,0 -7.06,-3.439 -7.06,-7.314"
     style="fill:#f2751c;fill-opacity:1;fill-rule:nonzero;stroke:none"
     id="path5559" /></g><g
   id="g5561"
   transform="matrix(1.25,0,0,-1.25,476.05925,347.5)"><path
     inkscape:connector-curvature="0"
     d="m 0,0 4.816,0 -3.006,-16.149 8.147,9.451 5.757,0 -8.979,-9.813 6.445,-10.246 -6.481,0 -5.106,9.377 -1.738,-9.377 -4.815,0 L 0,0 z"
     style="fill:#f2751c;fill-opacity:1;fill-rule:nonzero;stroke:none"
     id="path5563" /></g><g
   id="g5565"
   transform="matrix(1.25,0,0,-1.25,499.86563,355.87275)"><path
     inkscape:connector-curvature="0"
     d="M 0,0 4.417,0 4.055,-1.955 c 1.557,1.882 2.824,2.498 5.178,2.426 L 8.364,-4.164 C 5.539,-4.2 3.548,-6.011 3.15,-8.907 l -2.064,-11.152 -4.815,0 L 0,0 z"
     style="fill:#f2751c;fill-opacity:1;fill-rule:nonzero;stroke:none"
     id="path5567" /></g><g
   id="g5569"
   transform="matrix(1.25,0,0,-1.25,534.128,380.9465)"><path
     inkscape:connector-curvature="0"
     d="m 0,0 -4.417,0 0.47,2.607 c -2.244,-2.173 -4.417,-3.078 -7.241,-3.078 -5.069,0 -8.401,3.259 -8.401,8.183 0,7.024 5.649,12.818 12.493,12.818 2.86,0 4.742,-1.014 5.901,-3.151 l 0.471,2.68 4.418,0 L 0,0 z m -14.628,8.69 0,0 c 0,-2.897 1.919,-4.743 4.889,-4.743 2.57,0 4.525,1.049 5.865,3.113 0.833,1.268 1.267,2.788 1.267,4.273 0,2.933 -1.882,4.779 -4.852,4.779 -3.838,0 -7.169,-3.439 -7.169,-7.422"
     style="fill:#f2751c;fill-opacity:1;fill-rule:nonzero;stroke:none"
     id="path5571" /></g><g
   id="g5573"
   transform="matrix(1.25,0,0,-1.25,543.089,361.34888)"><path
     inkscape:connector-curvature="0"
     d="m 0,0 -2.354,0 0.833,4.381 2.354,0 1.231,6.698 4.816,0 -1.231,-6.698 2.897,0 L 7.712,0 4.816,0 1.919,-15.678 l -4.815,0 L 0,0 z"
     style="fill:#f2751c;fill-opacity:1;fill-rule:nonzero;stroke:none"
     id="path5575" /></g><g
   id="g5577"
   transform="matrix(1.25,0,0,-1.25,560.06212,378.59312)"><path
     inkscape:connector-curvature="0"
     d="m 0,0 -3.983,18.176 5.503,0 2.028,-12.998 7.278,12.998 5.54,0 -16.475,-26.758 -5.178,0 L 0,0 z"
     style="fill:#f2751c;fill-opacity:1;fill-rule:nonzero;stroke:none"
     id="path5579" /></g><g
   id="g5581"
   transform="matrix(1.25,0,0,-1.25,603.32937,372.7095)"><path
     inkscape:connector-curvature="0"
     d="m 0,0 c -2.571,-4.526 -6.59,-7.061 -11.26,-7.061 -5.142,0 -8.944,3.621 -8.944,8.545 0,6.554 6.011,12.456 12.673,12.456 2.824,0 5.395,-1.086 7.024,-2.969 1.014,-1.122 1.412,-2.136 1.774,-4.2 l -5.43,0 c -0.544,1.774 -1.992,2.751 -4.092,2.751 -3.802,0 -6.989,-3.294 -6.989,-7.241 0,-2.969 1.883,-4.924 4.744,-4.924 1.955,0 3.838,0.977 5.069,2.643 L 0,0 z"
     style="fill:#f2751c;fill-opacity:1;fill-rule:nonzero;stroke:none"
     id="path5583" /></g><g
   id="g5585"
   transform="matrix(1.25,0,0,-1.25,604.552,375.60625)"><path
     inkscape:connector-curvature="0"
     d="m 0,0 11.043,11.514 -7.857,0 0.797,4.273 13.613,0 L 16.8,11.514 5.793,0 l 9.522,0 -0.796,-4.272 -15.316,0 L 0,0 z"
     style="fill:#f2751c;fill-opacity:1;fill-rule:nonzero;stroke:none"
     id="path5587" /></g><g
   id="g5589"
   transform="matrix(1.25,0,0,-1.25,630.57575,355.87275)"><path
     inkscape:connector-curvature="0"
     d="M 0,0 4.454,0 4.091,-1.919 c 2.173,1.774 3.729,2.39 5.974,2.39 4.165,0 6.445,-2.1 6.445,-5.938 0,-1.051 -0.145,-2.209 -0.434,-3.839 l -1.992,-10.753 -4.815,0 1.81,9.812 c 0.218,1.159 0.326,2.317 0.326,3.367 0,1.919 -1.05,2.933 -3.041,2.933 -1.521,0 -2.861,-0.651 -3.91,-1.955 -0.725,-0.905 -1.159,-2.172 -1.63,-4.707 l -1.738,-9.45 -4.815,0 L 0,0 z"
     style="fill:#f2751c;fill-opacity:1;fill-rule:nonzero;stroke:none"
     id="path5591" /></g><g
   id="g5593"
   transform="matrix(1.25,0,0,-1.25,677.60038,380.9465)"><path
     inkscape:connector-curvature="0"
     d="m 0,0 -4.417,0 0.47,2.607 c -2.244,-2.173 -4.417,-3.078 -7.241,-3.078 -5.069,0 -8.401,3.259 -8.401,8.183 0,7.024 5.649,12.818 12.493,12.818 2.86,0 4.743,-1.014 5.901,-3.151 l 0.471,2.68 4.417,0 L 0,0 z m -14.628,8.69 0,0 c 0,-2.897 1.919,-4.743 4.889,-4.743 2.57,0 4.525,1.049 5.865,3.113 0.833,1.268 1.267,2.788 1.267,4.273 0,2.933 -1.883,4.779 -4.851,4.779 -3.839,0 -7.17,-3.439 -7.17,-7.422"
     style="fill:#f2751c;fill-opacity:1;fill-rule:nonzero;stroke:none"
     id="path5595" /></g><g
   id="g5597"
   transform="matrix(1.25,0,0,-1.25,513.97362,410.64162)"><path
     inkscape:connector-curvature="0"
     d="m 0,0 c 0,2.216 1.063,6.575 3.645,6.575 1.594,0 2.194,-1.256 2.194,-2.771 0,-2.586 -1.132,-6.685 -3.61,-6.685 C 0.778,-2.881 0,-1.774 0,0 m -6.264,-0.111 0,0 c 0,-4.691 3.185,-7.536 7.644,-7.536 6.088,0 10.688,4.47 10.688,11.524 0,4.286 -2.937,7.462 -7.608,7.462 -6.407,0 -10.724,-5.06 -10.724,-11.45 m -27.561,4.876 0,0 -2.123,-12.006 5.839,0 1.346,7.758 c 0.602,3.471 2.052,5.799 3.574,5.799 0.885,0 1.239,-0.739 1.239,-1.847 0,-0.592 -0.107,-1.293 -0.213,-1.995 l -1.735,-9.715 5.806,0 1.381,7.758 c 0.636,3.509 1.945,5.799 3.467,5.799 0.885,0 1.345,-0.739 1.345,-1.736 0,-0.665 -0.107,-1.404 -0.247,-2.106 l -1.7,-9.715 5.841,0 1.875,10.528 c 0.143,0.886 0.284,2.401 0.284,3.14 0,2.918 -1.274,4.912 -4.247,4.912 -2.089,0 -4.283,-0.961 -5.84,-3.176 -0.142,1.292 -1.31,3.176 -4.141,3.176 -2.195,0 -4.283,-0.887 -5.875,-3.176 l -0.036,0 0.247,2.771 -5.166,0 C -33.116,9.27 -33.4,7.166 -33.825,4.765 m -13.102,-0.85 0,0 c 0.177,1.182 1.239,2.881 3.398,2.881 0.99,0 1.557,-0.555 1.557,-1.181 l 0,-0.038 c 0,-1.146 -1.274,-1.7 -4.955,-1.662 m -6.263,-3.694 0,0 c 0,-5.061 2.794,-7.868 7.891,-7.868 1.77,0 4.495,0.258 6.831,1.441 l -0.32,4.544 c -1.521,-0.739 -3.184,-1.109 -4.954,-1.109 -1.379,0 -2.441,0.332 -3.115,0.924 -0.352,0.333 -0.565,0.811 -0.637,1.219 7.185,-0.223 11.15,1.625 11.15,6.169 0,3.729 -2.832,5.798 -6.441,5.798 -6.583,0 -10.405,-5.578 -10.405,-11.118 m -9.153,6.354 0,0 c 0.672,0 1.344,-0.222 1.698,-0.555 l -0.814,-4.248 c -0.637,-3.213 -2.018,-4.358 -3.149,-4.358 -1.027,0 -2.018,0.776 -2.018,2.955 0,2.918 1.699,6.206 4.283,6.206 m 0.424,4.764 0,0 c -6.759,0 -11.007,-5.762 -11.007,-12.041 0,-4.691 2.689,-6.945 5.451,-6.945 1.84,0 3.964,0.739 5.45,3.066 l 0.072,0 -0.143,-2.66 5.52,0 c 0.073,2.327 0.392,5.098 0.851,7.61 l 3.401,17.592 -6.019,0 -1.488,-6.991 c -0.743,0.296 -1.522,0.369 -2.088,0.369 m 88.053,-7.904 0,0 7.326,7.499 -7.433,0 -3.751,-5.173 C 21.78,5.097 21.285,4.357 20.754,3.619 l -0.071,0 2.188,12.026 -6.013,0 -4.137,-22.886 6.016,0 0.956,5.394 1.804,1.884 2.584,-7.278 6.76,0 -4.707,10.676 z m 19.201,1.773 0,0 1.203,6.094 c -0.355,0.037 -0.673,0.037 -1.027,0.037 -2.406,0 -4.353,-1.662 -5.628,-4.026 l -0.106,0 c 0.106,1.219 0.177,2.401 0.25,3.621 l -5.205,0 C 34.646,9.419 34.433,6.094 33.937,3.214 l -1.911,-10.455 6.052,0 1.099,6.205 c 0.6,3.326 1.805,6.244 5.377,6.244 l 0.781,0 z m 12.326,1.292 0,0 -0.707,-3.656 c -0.779,-4.285 -2.23,-5.43 -3.327,-5.43 -1.062,0 -1.735,0.886 -1.735,2.586 0,2.659 1.841,6.611 4.672,6.611 0.284,0 0.707,-0.036 1.097,-0.111 m 4.92,-5.687 0,0 1.841,9.528 c -1.558,0.518 -3.929,0.998 -6.195,0.998 -8.989,0 -12.636,-6.5 -12.636,-12.522 0,-3.951 2.232,-6.464 5.381,-6.464 1.84,0 3.999,0.85 5.486,3.547 l 0.07,0 c -0.035,-1.034 -0.106,-2.106 -0.14,-3.141 l 5.52,0 c -0.071,2.363 0.319,6.096 0.673,8.054 m 16.266,5.207 0,0 1.416,4.766 c -0.884,0.332 -2.053,0.553 -3.468,0.553 -6.796,0 -11.644,-4.764 -11.644,-11.302 0,-5.098 3.362,-7.684 7.572,-7.684 1.948,0 3.682,0.296 4.885,0.924 l 0.072,4.765 c -0.885,-0.37 -1.841,-0.665 -3.187,-0.665 -1.485,0 -3.043,0.997 -3.043,3.324 0,3.03 2.017,5.652 5.309,5.652 0.885,0 1.522,-0.112 2.088,-0.333 m 10.114,4.914 0,0 -6.051,0 -3.292,-18.175 6.053,0 3.29,18.175 z m 1.028,5.246 0,0 c 0,1.809 -1.204,2.916 -2.903,2.916 -1.769,0 -3.362,-1.33 -3.362,-3.397 0,-1.811 1.204,-2.918 2.796,-2.918 l 0.035,0 c 1.841,0 3.434,1.219 3.434,3.399"
     style="fill:#231f20;fill-opacity:1;fill-rule:nonzero;stroke:none"
     id="path5599" /></g></svg>