<?xml version="1.0" encoding="UTF-8" standalone="no"?>
<!-- Created with Inkscape (http://www.inkscape.org/) -->

<svg
   xmlns:dc="http://purl.org/dc/elements/1.1/"
   xmlns:cc="http://creativecommons.org/ns#"
   xmlns:rdf="http://www.w3.org/1999/02/22-rdf-syntax-ns#"
   xmlns:svg="http://www.w3.org/2000/svg"
   xmlns="http://www.w3.org/2000/svg"
   xmlns:sodipodi="http://sodipodi.sourceforge.net/DTD/sodipodi-0.dtd"
   xmlns:inkscape="http://www.inkscape.org/namespaces/inkscape"
   version="1.0"
   width="916.57153"
   height="760.53009"
   id="svg2"
   sodipodi:docname="Forza_Italia.svg"
   inkscape:version="0.92.1 r15371">
  <metadata
     id="metadata11">
    <rdf:RDF>
      <cc:Work
         rdf:about="">
        <dc:format>image/svg+xml</dc:format>
        <dc:type
           rdf:resource="http://purl.org/dc/dcmitype/StillImage" />
        <dc:title></dc:title>
      </cc:Work>
    </rdf:RDF>
  </metadata>
  <sodipodi:namedview
     pagecolor="#ffffff"
     bordercolor="#666666"
     borderopacity="1"
     objecttolerance="10"
     gridtolerance="10"
     guidetolerance="10"
     inkscape:pageopacity="0"
     inkscape:pageshadow="2"
     inkscape:window-width="1600"
     inkscape:window-height="837"
     id="namedview9"
     showgrid="false"
     inkscape:pagecheckerboard="true"
     fit-margin-top="0"
     fit-margin-left="0"
     fit-margin-right="0"
     fit-margin-bottom="0"
     inkscape:zoom="0.295"
     inkscape:cx="458.28575"
     inkscape:cy="-269.27949"
     inkscape:window-x="-8"
     inkscape:window-y="-8"
     inkscape:window-maximized="1"
     inkscape:current-layer="svg2" />
  <defs
     id="defs4" />
  <g
     id="layer1"
     transform="translate(-41.714251,-19.734954)">
    <g
       transform="matrix(0.8745911,0,0,0.8745911,174.6108,-60.193298)"
       id="g2243">
      <path
         d="M -151.95278,165.53717 H 896.04726 v 714.2857 l -1048.00004,34.28571 z"
         style="fill:#ffffff;fill-opacity:1;fill-rule:nonzero;stroke:none;stroke-width:3;stroke-linecap:round;stroke-linejoin:round;stroke-miterlimit:4;stroke-dashoffset:0;stroke-opacity:1"
         id="rect2188"
         inkscape:connector-curvature="0" />
      <path
         d="m 580.71875,14.5 c -0.2357,0 -1.0834,0.645882 -1.875,1.4375 -1.4907,1.490635 -20.74798,9.500208 -38.1875,15.875 -44.91224,16.417099 -114.44436,29.002533 -187,33.8125 -78.4127,5.198254 -225.20629,0.878889 -311.5,-9.15625 -9.625,-1.119296 -25.375,-2.907169 -35,-3.96875 -9.625,-1.06158 -21.324999,-2.423973 -26,-3.03125 -86.83573,-11.279871 -191.18067,-12.950418 -278.25,-4.46875 -13.90262,1.354294 -28.17501,2.71695 -31.75,3.03125 -14.65431,1.288344 -97.90239,13.209371 -119.3125,17.09375 -7.59765,1.378423 -14.68514,2.576041 -15.75,2.65625 -1.90919,0.14381 -1.95259,3.568832 -1.9375,246.1875 0.008,135.32046 0.34593,245.58122 0.75,245.03125 0.40408,-0.55 1.42499,-1.11805 2.25,-1.25 2.86649,-0.45844 183.14956,-49.21703 184.0625,-49.78125 0.54998,-0.33991 0.93749,-50.06666 0.9375,-123.90625 0,-97.44037 0.2623,-123.53217 1.25,-124.34375 1.7509,-1.4387 96.36152,-26.44225 98.5,-26.03125 1.58432,0.3045 1.75404,2.2389 2,20.75 0.17824,13.41398 -0.0839,20.79611 -0.78125,21.5 -0.58378,0.5892 -10.84083,3.57699 -22.78125,6.65625 l -21.6875,5.59375 -0.28125,31.15625 c -0.14533,17.13324 0.0828,31.15625 0.5,31.15625 0.41722,0 9.23715,-2.27961 19.59375,-5.0625 10.35661,-2.78288 19.80349,-4.92038 21,-4.75 2.14234,0.30507 2.17054,0.62575 2.4375,20.6875 0.17509,13.15758 -0.10295,20.80771 -0.78125,21.625 -0.57763,0.69599 -10.46602,3.62233 -22,6.5 l -20.96875,5.25 v 69.375 c 0,49.14694 0.29506,69.37497 1.0625,69.375 1.88361,0 17.24721,-4.08878 19.125,-5.09375 5.22891,-5.00628 33.35236,-10.25936 39.34821,-11.875 37.73002,-10.05396 38.05948,-10.02031 32.5,-10.96875 -14.1419,-2.41258 -23.45036,-12.18229 -28.09821,-25.40625 -1.97039,-5.60613 -1.97736,-7.74997 -1.6875,-113.9375 0.26731,-97.9235 0.4421,-108.59911 1.9375,-112.21875 5.06839,-12.26809 14.47956,-24.97473 23.3125,-31.5 2.97748,-2.19959 5.81318,-4 6.3125,-4 0.49931,0 2.04147,-0.90189 3.4375,-2 3.77295,-2.9678 17.03625,-8.36217 27.25,-11.09375 7.47619,-1.99945 11.370369,-2.40625 23,-2.40625 13.505,0 14.19231,0.10564 19.78125,2.9375 6.38601,3.23575 12.538099,9.28958 15.46875,15.21875 4.33676,8.77398 4.354191,9.75059 4.03125,118.84375 l -0.28125,104 -3.15625,8.8125 c -4.63405,12.95361 -10.450879,20.9068 -22.28125,30.5 -3.60971,2.9271 -8.250001,6.02987 -10.3125,6.875 -2.0625,0.84511 -3.750001,2.17222 -3.75,2.9375 0,1.82343 -0.235362,1.85292 12.375,-1.53125 10.74003,-2.88223 12.742142,-0.19826 12.59375,-7.28125 -0.05201,-2.48273 1.100859,-2.92357 17.53125,-7.3125 l 15,-4 0.25,-141.21875 c 0.23908,-133.21012 0.35239,-141.25136 2,-142.125 1.74574,-0.92569 59.413559,-16.21268 70.75,-18.75 11.24434,-2.5167 25.054531,-1.17744 33.9375,3.28125 4.37624,2.1966 11.38258,9.19462 13.6875,13.65625 4.60725,8.91826 5.86009,17.58385 5.84375,40.5625 -0.017,23.83879 -1.31746,32.18209 -6.75,43.09375 -3.188496,6.40433 -14.940621,19.215 -19.25,21 -1.63922,0.67899 -2.968751,1.58777 -2.96875,2 0,0.41224 2.784941,1.05255 6.1875,1.4375 3.40257,0.38496 7.340071,1.32334 8.75,2.0625 4.28334,2.24554 8.79418,7.70107 11.15625,13.5 2.17444,5.33831 2.24236,6.94052 2.96875,54.5 0.41161,26.95 1.18569,50.8 1.71875,53 0.53306,2.2 1.54314,6.43265 2.21875,9.40625 0.67561,2.97361 1.84403,6.89317 2.59375,8.6875 1.21532,2.90868 2.54783,7.26612 5.01786,6.60714 l 2.78125,-0.71875 L 123.21875,415.9375 123.78125,393 146.4375,290.0625 c 12.46135,-56.62016 22.45928,-103.13447 22.21875,-103.375 -0.24052,-0.24053 -10.42882,2.04263 -22.625,5.09375 -12.19617,3.05111 -22.78393,5.31804 -23.53125,5.03125 -1.08484,-0.41629 -1.34375,-4.70972 -1.34375,-21.34375 0,-11.4587 0.35359,-21.09139 0.8125,-21.375 0.45892,-0.28363 23.66162,-6.63768 51.5625,-14.125 40.35136,-10.82844 51.04466,-13.35472 52.1875,-12.40625 1.16043,0.96307 1.41532,4.95969 1.40625,20.8125 V 168 l -24.40625,107 c -13.41487,58.85 -24.23126,107.26783 -24.03125,107.59375 0.20001,0.32593 10.80393,-2.26756 23.5625,-5.78125 12.75856,-3.51368 23.82502,-6.158 24.5625,-5.875 0.96377,0.36983 1.35759,2.8289 1.40625,8.78125 0.0465,5.69334 0.3288,7.65622 0.9375,6.28125 0.48697,-1.1 9.02656,-62.50488 18.96875,-136.46875 9.94217,-73.96387 18.41636,-134.78101 18.8125,-135.15625 0.39613,-0.37524 16.2183,-4.76545 35.1875,-9.75 26.99836,-7.094381 34.75775,-8.802553 35.65625,-7.84375 0.66898,0.71386 7.05327,52.73998 15.3125,124.71875 7.79408,67.925 14.46331,123.80297 14.84375,124.15625 0.38042,0.35329 47.51874,-11.96083 104.71875,-27.34375 57.2,-15.38292 105.01252,-27.97338 106.25,-28 l 2.25,-0.0625 V 152.375 c 0,-75.831254 -0.20179,-137.875 -0.4375,-137.875 z M 296.3125,178.625 c -0.10098,0.0688 -0.15626,0.21113 -0.15625,0.46875 0,2.54505 -6.04753,85.61278 -6.5625,90.15625 -0.50193,4.42845 -0.34294,5.25 1.03125,5.25 2.24464,0 10.85897,-2.12244 11.65625,-2.875 0.749,-0.70698 -4.75147,-92.06397 -5.59375,-92.90625 -0.15321,-0.15321 -0.27402,-0.16257 -0.375,-0.0937 z M 47.09375,217.65625 c -1.003055,0.0457 -2.137958,0.21137 -3.4375,0.40625 l -4.5,0.65625 V 256.125 c 0,29.25422 0.271899,37.36092 1.25,37.34375 0.6875,-0.0121 3.105231,-0.86154 5.40625,-1.90625 7.53166,-3.41949 7.790222,-4.51443 8.15625,-37.0625 0.362679,-32.2502 0.146386,-37.16389 -6.875,-36.84375 z m -141.875,33.1875 c -0.790336,-0.2166 -1.681401,-0.16632 -2.6875,0.1875 -1.672,0.58801 -3.76154,2.64779 -5.09375,5 l -2.25,3.96875 -0.0312,94.1875 c -0.0164,93.63929 0.16023,98.52684 3.3125,100.53125 3.010984,1.91454 6.929742,0.0305 9.40625,-4.5 1.63685,-2.99443 1.776424,-9.53274 2.0625,-93.21875 0.16921,-49.5 0.03714,-92.78917 -0.3125,-96.21875 -0.615682,-6.03914 -2.035243,-9.28771 -4.40625,-9.9375 z m 400.5625,64.96875 c -0.78352,-0.78351 -20.44754,4.58396 -21.1875,5.78125 -0.28034,0.45359 -2.06933,16.48611 -3.96875,35.625 -1.89943,19.13889 -7.79749,48.71438 -5.45982,49.03125 l 12.21875,1.65625 11.84375,-7.79464 6.70089,-2.16518 4.71875,-2.3125 c 1.52598,-0.74783 -4.10566,-79.06103 -4.86607,-79.82143 z M 43.375,328.71875 c -0.767037,-0.0385 -1.49726,0.0408 -2.15625,0.25 -1.64278,0.52139 -1.801709,4.87897 -2.46875,66.78125 -0.41312,38.33865 -1.11584,66.66135 -1.65625,67.3125 -0.5132,0.61837 -3.406009,1.66533 -6.4375,2.34375 -3.0315,0.67842 -5.595251,1.65362 -5.5,2.125 1.071429,5.30234 4.637501,2.04414 7.25,1.28571 2.6125,-0.75843 8.907142,-2.15644 16.607143,-4.16964 12.85993,-3.36229 18.351372,-5.46875 14.28125,-5.46875 -2.19586,0 -5.607174,-9.62048 -7.544643,-19.02232 -1.35164,-6.55903 -1.62034,-15.31438 -1.625,-53 -0.0058,-46.76908 -0.33887,-51.14349 -4.1875,-55.3125 -1.68516,-1.82546 -4.261389,-3.00934 -6.5625,-3.125 z"
         transform="translate(314.19082,76.889281)"
         style="fill:#009741;fill-opacity:1"
         id="path2209"
         inkscape:connector-curvature="0" />
      <path
         d="m 894.99892,441.40267 c -0.4041,0.60273 -45.75,13.48268 -100.75,28.625 -95.6894,26.3447 -100.0148,27.63591 -100.25,29.90625 -0.1352,1.30493 5.5603,53.44998 12.6562,115.875 12.2462,107.73207 12.8217,113.57165 11.1563,115.03125 -2.3698,2.07688 -53.9124,15.5337 -55.0625,14.375 -0.4903,-0.4939 -2.1978,-17.22472 -3.8125,-37.1875 -1.6147,-19.96273 -3.1473,-36.49106 -3.375,-36.71875 -0.2277,-0.2277 -5.0958,0.79077 -10.8438,2.28125 l -10.4687,2.71875 -4.1875,39.5 c -2.3023,21.72502 -4.2116,39.57759 -4.25,39.65625 -0.2528,0.51747 -6.1089,2.23336 -25.0625,7.375 -16.563,4.49316 -21.7635,5.5661 -22.6875,4.65625 -0.9315,-0.91722 3.0238,-33.02172 17.7187,-143.6875 10.4072,-78.37498 19.124,-144.66586 19.375,-147.3125 0.0121,-0.12674 0.0189,-0.22133 0.0313,-0.34375 l -51.125,12.96875 -0.5625,139.5 c -0.4992,122.14728 -0.7798,141.75556 -2.0313,142.65625 -2.3214,1.67084 -51.4264,13.85125 -53.1562,13.1875 -1.4139,-0.54255 -1.5625,-14.36429 -1.5625,-140.46875 0,-75.92567 -0.226,-138.30671 -0.5,-140.1875 l -59.5,15.09375 v 119.9375 c 0,95.28298 0.2571,119.9709 1.25,120 0.6875,0.0202 10.6017,-2.34236 22.0312,-5.25 17.9444,-4.56499 20.9265,-5.07652 21.75,-3.78125 0.5246,0.82502 0.9604,10.13932 0.9688,20.6875 0.0129,16.1158 -0.2421,19.42956 -1.5625,20.75 -0.8643,0.86431 -1.736,1.56248 -1.9375,1.5625 -0.2015,2e-5 -21.407,5.6392 -47.125,12.53125 -25.718,6.89209 -47.3464,12.30604 -48.0625,12.03125 -1.061,-0.40712 -1.3125,-26.79794 -1.3125,-142.53125 V 532.80892 h -0.8125 l -50.9063,12.9375 c -0.3738,0.30603 -0.6443,0.63583 -0.75,0.96875 -0.3079,0.97016 6.6229,63.15368 15.4063,138.1875 12.4676,106.50791 15.7242,136.66313 14.7812,137.59375 -1.243,1.22671 -52.0994,14.31248 -55.625,14.3125 -1.0832,2e-5 -2.1642,-0.33752 -2.40625,-0.75 -0.24203,-0.41248 -1.69915,-17.17502 -3.21875,-37.25 -1.51957,-20.07498 -3.09109,-36.88315 -3.5,-37.34375 -0.7244,-0.81598 -19.75755,3.85285 -21.15625,5.1875 -0.38637,0.36873 -2.55177,18.19264 -4.78125,39.625 -2.72878,26.23229 -4.4859,39.42339 -5.375,40.3125 -1.58697,1.58701 -45.4495,13.46003 -46.75,12.65625 -0.5004,-0.30926 -0.9062,-1.85328 -0.9062,-3.4375 -1e-4,-1.58423 8.28865,-64.66667 18.43745,-140.1875 10.14882,-75.52077 18.92568,-141.10439 19.5,-145.75 0.22238,-1.79862 0.52239,-3.47421 0.8125,-4.96875 l -24.28125,6.15625 c -1.38561,2.65117 -1.46875,8.35398 -1.46875,23.90625 2e-5,17.07453 -0.16956,18.96582 -1.75,19.59375 -0.96248,0.38243 -8.72495,2.50591 -17.24995,4.71875 l -15.5,4.03125 -0.25,121.625 c -0.1997,95.66441 -0.52,121.85732 -1.5,122.625 -0.6853,0.53683 -12.293,3.97126 -25.7813,7.625 -13.4883,3.65374 -24.742,6.62498 -25.0313,6.625 -2.6717,2e-5 -2.7911,-5.33452 -2.2187,-123.125 0.3231,-66.47954 0.2373,-120.87502 -0.2187,-120.875 -0.4559,2e-5 -7.9845,1.8739 -16.7188,4.15625 -9.4415,2.46717 -16.2447,3.7865 -16.7812,3.25 -1.2144,-1.21447 -1.4958,-40.88642 -0.3126,-42.5 l -22.6562,5.75 v 74.71875 c 0.0094,205.84456 -0.0294,210.17042 -1.9062,211.71875 -1.9308,1.59302 -47.9539,13.90623 -51.9688,13.90625 -1.1874,2e-5 -2.1782,-0.56252 -2.2188,-1.25 -0.0403,-0.68748 -0.0156,-56.48752 0.0626,-124 0.1325,-114.34501 0.0336,-122.75002 -1.5313,-122.75 -0.924,2e-5 -42.2675,11.31228 -91.8437,25.125 -49.5763,13.81273 -91.1378,25.1752 -92.375,25.25 l -2.25,0.125 0.0312,125.5 c 0.008,70.12879 0.3647,124.91217 0.8438,124.15625 1.825,-2.87998 47.5655,-15.40615 78.625,-21.53125 39.5865,-7.80658 62.0155,-10.39037 128.5,-14.75 22.7705,-1.49318 100.5267,-1.45442 126.5,0.0625 52.31342,3.05532 89.14718,6.94869 165.5,17.4375 33.9842,4.66862 56.569,6.44998 122.4062,9.71875 27.1396,1.34742 145.7695,0.64072 167,-1 7.644,-0.59068 21.3689,-1.53542 30.5,-2.09375 44.2423,-2.70488 110.8387,-11.82302 157.125,-21.5 13.5208,-2.82668 41.2354,-10.36356 54.6563,-14.875 7.2477,-2.43629 13.4352,-4.15863 13.75,-3.84375 0.3149,0.31488 0.5709,-104.94581 0.5625,-233.875 -0.008,-128.92915 -0.3459,-233.91525 -0.75,-233.3125 z m -248.7813,92.625 c -0.2769,0.0955 -0.5025,1.49011 -0.5312,3.375 -0.0329,2.15416 -1.5353,23.70623 -3.3438,47.90625 -1.8084,24.19999 -3.1467,44.28658 -2.9687,44.625 0.4598,0.87412 12.6926,-2.60925 13.0625,-3.71875 0.5041,-1.5123 -5.4467,-91.47791 -6.0938,-92.125 -0.041,-0.041 -0.0854,-0.0761 -0.125,-0.0625 z m -349.40625,91.40625 c -0.72028,0.71436 -7.92941,94.61346 -7.34375,95.65625 0.24426,0.43489 1.20878,0.58501 2.125,0.3125 0.91623,-0.27249 3.8475,-1.02939 6.53125,-1.6875 l 4.875,-1.21875 -0.5625,-6.59375 c -0.31479,-3.62925 -1.57438,-24.69002 -2.8125,-46.8125 -1.2381,-22.12247 -2.50669,-39.95954 -2.8125,-39.65625 z"
         style="fill:#e30313;fill-opacity:1"
         id="path2174"
         inkscape:connector-curvature="0" />
    </g>
  </g>
</svg>
