<?xml version="1.0" encoding="UTF-8" standalone="no"?>
<svg
   xmlns:dc="http://purl.org/dc/elements/1.1/"
   xmlns:cc="http://creativecommons.org/ns#"
   xmlns:rdf="http://www.w3.org/1999/02/22-rdf-syntax-ns#"
   xmlns:svg="http://www.w3.org/2000/svg"
   xmlns="http://www.w3.org/2000/svg"
   xmlns:sodipodi="http://sodipodi.sourceforge.net/DTD/sodipodi-0.dtd"
   xmlns:inkscape="http://www.inkscape.org/namespaces/inkscape"
   version="1.0"
   width="300"
   height="100"
   viewBox="0 0 240 80"
   preserveAspectRatio="xMidYMid meet"
   id="svg2"
   inkscape:version="0.48.4 r9939"
   sodipodi:docname="yyyyyyyyy.svg">
  <title
     id="title3001">Psuv (Venezuela) logo</title>
  <defs
     id="defs22" />
  <sodipodi:namedview
     pagecolor="#ffffff"
     bordercolor="#666666"
     borderopacity="1"
     objecttolerance="10"
     gridtolerance="10"
     guidetolerance="10"
     inkscape:pageopacity="0"
     inkscape:pageshadow="2"
     inkscape:window-width="1600"
     inkscape:window-height="844"
     id="namedview20"
     showgrid="false"
     inkscape:zoom="1"
     inkscape:cx="140.83799"
     inkscape:cy="63.748111"
     inkscape:window-x="-4"
     inkscape:window-y="-4"
     inkscape:window-maximized="1"
     inkscape:current-layer="svg2" />
  <metadata
     id="metadata4">
Created by potrace 1.12, written by Peter Selinger 2001-2015
<rdf:RDF>
  <cc:Work
     rdf:about="">
    <dc:format>image/svg+xml</dc:format>
    <dc:type
       rdf:resource="http://purl.org/dc/dcmitype/StillImage" />
    <dc:title>Psuv (Venezuela) logo</dc:title>
  </cc:Work>
</rdf:RDF>
</metadata>
  <g
     transform="matrix(0.03716124,0,0,-0.03548643,-16.630401,100.37354)"
     id="g6"
     style="fill:#ff0000;stroke:none">
    <path
       d="m 5229,2645 -52,-165 -174,0 c -143,0 -173,-2 -173,-14 0,-8 61,-58 135,-112 74,-53 135,-100 135,-103 0,-4 -22,-74 -50,-156 -53,-157 -57,-175 -39,-175 6,0 69,43 141,95 72,52 135,95 140,95 5,0 68,-43 140,-95 123,-90 158,-109 158,-84 0,6 -23,80 -51,165 -35,107 -47,159 -41,167 6,7 67,53 136,102 69,50 126,96 126,102 0,9 -44,13 -172,15 l -173,3 -53,163 c -35,106 -58,162 -67,162 -9,0 -32,-56 -66,-165 z"
       id="path10"
       inkscape:connector-curvature="0"
       style="fill:#ff0000" />
    <path
       d="m 6317,2473 c -3,-5 -102,-309 -221,-678 -249,-770 -225,-699 -231,-694 -2,3 -49,142 -103,309 l -99,305 -278,0 -278,0 -54,-160 c -29,-88 -53,-163 -53,-167 0,-5 49,-8 109,-8 77,0 112,-4 118,-12 7,-13 203,-608 223,-681 l 11,-37 401,2 400,3 59,170 c 415,1217 559,1641 559,1648 0,4 -126,7 -279,7 -154,0 -282,-3 -284,-7 z"
       id="path12"
       inkscape:connector-curvature="0"
       style="fill:#ff0000" />
    <path
       d="m 2515,1736 c -191,-31 -305,-99 -361,-212 -21,-44 -28,-74 -32,-147 -5,-107 6,-157 48,-215 66,-91 157,-120 405,-128 183,-6 225,-15 225,-49 0,-41 -93,-61 -206,-46 -86,12 -104,22 -104,57 l 0,24 -162,-2 -163,-3 -3,-177 c -2,-162 -1,-177 15,-182 77,-22 216,-31 493,-31 259,0 316,3 375,18 156,40 238,95 287,195 32,64 33,72 33,182 0,106 -2,119 -28,173 -34,68 -95,119 -171,143 -35,11 -110,18 -241,23 -196,7 -239,16 -233,49 6,32 57,47 158,46 107,0 153,-15 158,-52 3,-22 5,-22 163,-22 l 159,0 0,165 c 0,91 -3,165 -7,165 -5,0 -60,7 -123,16 -159,21 -580,27 -685,10 z"
       id="path14"
       inkscape:connector-curvature="0"
       style="fill:#ff0000" />
    <path
       d="m 521,1568 c -28,-84 -51,-161 -51,-171 0,-15 11,-17 83,-17 51,0 88,-5 95,-12 9,-9 12,-104 12,-365 l 0,-353 275,0 274,0 3,118 3,117 235,6 c 158,5 251,12 285,21 132,39 226,115 277,225 27,57 32,81 36,167 9,204 -57,326 -212,390 -50,20 -67,21 -658,24 l -606,3 -51,-153 z m 922,-188 c 31,-15 57,-56 57,-89 0,-12 -13,-35 -29,-53 -29,-33 -31,-33 -130,-36 -70,-3 -106,0 -116,8 -11,9 -15,35 -15,95 0,45 3,85 8,89 11,13 194,1 225,-14 z"
       id="path16"
       inkscape:connector-curvature="0"
       style="fill:#ff0000" />
    <path
       d="m 3481,1567 c -28,-83 -51,-160 -51,-170 0,-15 11,-17 84,-17 55,0 87,-4 94,-13 6,-7 12,-107 14,-252 5,-290 10,-308 103,-402 53,-53 71,-64 136,-85 64,-20 94,-23 224,-22 133,0 157,3 209,24 35,13 80,42 108,68 27,25 50,43 53,40 3,-2 11,-22 18,-44 l 14,-39 265,-3 265,-2 46,148 c 26,81 47,153 47,160 0,8 -24,12 -84,12 -58,0 -87,4 -95,13 -7,9 -12,128 -13,373 l -3,359 -267,3 -267,2 -3,-359 -3,-359 -24,-26 c -31,-33 -70,-41 -114,-22 -66,27 -67,34 -67,421 l 0,345 -319,0 -319,0 -51,-153 z"
       id="path18"
       inkscape:connector-curvature="0"
       style="fill:#ff0000" />
  </g>
</svg>
