<?xml version="1.0" encoding="UTF-8"?>
<svg id="Layer_1" data-name="Layer 1" xmlns="http://www.w3.org/2000/svg" viewBox="0 0 733.06 728.34">
  <defs>
    <style>
      .cls-1 {
        fill: #00205b;
      }
    </style>
  </defs>
  <path class="cls-1" d="M500.91,704.59c-34.21,12.98-69.12,20.77-105.31,23.02-65.67,4.09-127.71-9.17-186.88-37.56-41.32-19.83-78.28-45.55-109.75-78.92-48.19-51.11-79.17-111.14-92.57-180.17-5.52-28.43-7.55-57.17-5.8-86,4.98-81.84,33.77-154.37,87.89-216.15C147.25,61.73,221.69,21.22,308.98,6c116.08-20.24,218.24,11.04,306.25,88.92,47.67,42.19,80.53,94.18,100.08,154.62,9.25,28.61,14.7,57.96,16.79,88.01,4.15,59.71-5.07,117.15-28.32,172.28-15.02,35.61-35.39,67.88-61.39,96.54-39.5,43.55-86.33,76.54-141.48,98.23m-31.99-21.72c51.01-20.19,95.67-49.72,132.33-90.76,58.14-65.09,85.77-141.98,86.84-228.69,.26-21.28-1.89-42.56-5.99-63.53-13.66-70.01-44.51-131.17-96.65-180.19C503.49,42.63,406.48,10.05,294.61,27.59c-77.63,12.17-143.38,47.81-195.04,107.45C28.69,216.88,1.05,311.88,17.03,418.93c10.3,69,40.11,129.3,87.73,180.06,73.54,78.39,165.08,111.82,271.78,105.01,31.62-2.02,62.09-9.56,92.39-21.12Z"/>
  <path class="cls-1" d="M419.89,318.18c0,3.33-.01,6.16,0,9,.02,6.66,.02,6.69,6.53,6.69,29.33,.01,58.66,0,87.99,0,3,0,6,.07,9,.02,2.52-.04,3.58,1.09,3.57,3.62-.04,11.67-.07,23.33,.05,35,.04,3.6-1.97,3.99-4.8,3.98-14-.06-28-.03-42-.03-18,0-36,.17-53.99-.11-5.16-.08-6.59,1.67-6.45,6.63,.32,10.82,.34,21.67,0,32.49-.16,4.99,1.27,6.58,6.41,6.55,33.16-.22,66.33-.12,99.49-.12q7.01,0,7.01,6.87c0,10.17-.13,20.33,.03,30.5,.07,4.33-1.18,6.22-5.96,6.2-49.33-.14-98.66-.14-147.99,.01-4.95,.01-6.2-1.82-6.19-6.46,.11-67.66,.13-135.32-.02-202.98-.01-5.26,1.88-6.36,6.71-6.34,46,.15,91.99,.09,137.99,.08,1.83,0,3.67,.06,5.5-.02,10.1-.46,9.99-2.1,9.91,9.63-.06,9-.22,18,.06,26.99,.15,4.74-1.37,6.33-6.25,6.3-32.83-.19-65.66-.1-98.49-.09-8.01,0-8.09,.1-8.09,8.08,0,5.67,0,11.33,0,17.5Z"/>
  <path class="cls-1" d="M193.35,386.71c-2.19,1.95-1.55,4.24-1.56,6.33-.04,21.82-.02,43.64-.02,65.46,0,6.81-.06,6.86-7.06,6.87-4.5,0-8.99-.04-13.49-.02-2.66,.01-4.06-1.13-3.91-3.91,.06-1.16,0-2.33,0-3.5,0-66.8,0-133.59,0-200.39q0-7.72,7.47-7.74c24.82,0,49.65-.34,74.46,.16,17.84,.36,34.56,5.18,48.8,16.53,14.82,11.82,22.05,27.47,23.03,46.3,.96,18.5-2.86,35.38-15.42,49.64-7.34,8.32-16.49,13.91-26.7,17.91-2.61,1.02-5.3,1.83-8.83,3.04,18.82,26.95,37.42,53.58,55.92,80.06-1.92,2.59-4.09,1.83-5.96,1.87-5.33,.11-10.68-.25-15.98,.13-4.56,.33-7.3-1.45-9.86-5.1-16.34-23.33-32.93-46.47-49.29-69.79-2.15-3.07-4.44-4.39-8.22-4.32-14.32,.26-28.64,.21-43.36,.44m92.61-37.72c8.05-8.9,10.7-19.55,10.8-31.3,.23-27.02-17.68-42.41-42.02-44-19.24-1.26-38.62-.45-57.93-.64-3.5-.03-5.11,1.15-5.09,4.92,.1,26.81,.09,53.63,0,80.44-.01,3.48,1.32,4.66,4.73,4.63,18.82-.14,37.65,.25,56.45-.29,12.27-.36,23.48-4.5,33.06-13.77Z"/>
</svg>