<?xml version="1.0" encoding="UTF-8" standalone="no"?>
<!-- Generator: Adobe Illustrator 24.1.2, SVG Export Plug-In . SVG Version: 6.00 Build 0)  -->

<svg
   version="1.1"
   x="0px"
   y="0px"
   viewBox="0 0 1178.09 471.15"
   style="enable-background:new 0 0 1178.09 471.15;"
   xml:space="preserve"
   id="svg18"
   sodipodi:docname="ndr.svg"
   inkscape:version="1.1.2 (b8e25be833, 2022-02-05)"
   xmlns:inkscape="http://www.inkscape.org/namespaces/inkscape"
   xmlns:sodipodi="http://sodipodi.sourceforge.net/DTD/sodipodi-0.dtd"
   xmlns="http://www.w3.org/2000/svg"
   xmlns:svg="http://www.w3.org/2000/svg"><defs
   id="defs22" /><sodipodi:namedview
   id="namedview20"
   pagecolor="#505050"
   bordercolor="#eeeeee"
   borderopacity="1"
   inkscape:pageshadow="0"
   inkscape:pageopacity="0"
   inkscape:pagecheckerboard="0"
   showgrid="false"
   inkscape:zoom="0.95917972"
   inkscape:cx="383.13988"
   inkscape:cy="235.61799"
   inkscape:window-width="1920"
   inkscape:window-height="1017"
   inkscape:window-x="-8"
   inkscape:window-y="-8"
   inkscape:window-maximized="1"
   inkscape:current-layer="Слой_1" />
<style
   type="text/css"
   id="style2">
	.st0{fill:#482655;}
	.st1{fill:#CD3333;}
</style>
<g
   id="Слой_1">
	<polygon
   class="st0"
   points="280.83,213.15 264.65,296.48 361.49,297.66 402.14,213.48 375.65,213.48 421.83,0.48 325.78,0.48    305.71,91.48 241.02,91.09 260.31,0.48 162.53,0.48 112.16,90.48 139.68,90.48 94.71,298.48 195.85,298.48 214.43,212.7  "
   id="polygon4"
   style="fill:#28166f;fill-opacity:1" />
	<polyline
   class="st0"
   points="614.25,298.23 614.82,323.76 719.69,304.39 750.41,215.18 716.1,214.92 698.95,1 555.67,1    504.34,91.85 529.06,91.85 454.19,213.68 419.49,213.68 391.32,312.02 503.76,321.42 517.06,297.42 557.76,214.46 613.84,96.55    615.67,213.94 557.76,214.46 517.06,297.42  "
   id="polyline6"
   style="fill:#28166f;fill-opacity:1" />
	<path
   class="st0"
   d="M801.15,91.45L756.8,296.23l85.5-12.72l9.85-44.04c21.59-0.47,37.35-1.07,49.04-0.96   c6.37,0.06,14.23,0.2,24.26-2.41c9.62-2.5,16.91-6.4,20.74-8.48c1.8-0.98,8.8-4.84,16.96-11.48c2.76-2.25,8.54-7.16,14.87-14.48   c5.24-6.06,8.56-11.11,11.35-15.39c2.07-3.18,5.78-8.91,9.65-16.83c5.59-11.43,8.33-20.9,10.43-28.3   c1.68-5.91,3.24-11.41,4.43-18.78c3.14-19.45,0.97-35.04-0.26-43.43c-1.03-7.02-2.38-15.85-6.52-26.87   c-2.23-5.93-5.24-13.78-11.74-22.57c-2.73-3.68-7.85-10.49-16.83-16.7c-1.49-1.03-6.88-4.67-14.87-7.73   c-10.91-4.18-21.2-5.2-29.35-5.05L820.71,0l-44.74,90.54l105.79,5.48c0,0,36.91-3.09,43.72,12.7c3.24,7.51,3.81,13.38,0.62,21.08   c-3.64,8.77-12.01,15.5-14.48,17.22c-11.61,8.09-42.13,7.57-42.13,7.57l13.17-62.09"
   id="path8"
   style="fill:#28166f;fill-opacity:1" />
	<path
   class="st0"
   d="M899.26,84.55"
   id="path10" />
	<path
   class="st1"
   d="M794.35,393.87c-25.72-0.87-61-1.67-102.91-1.37c-103.01,0.73-180.33,7.61-229.83,12.13   C265.89,422.5,54.59,461.02,0,471.15c6.82-2.8,13.63-5.61,20.45-8.41c0,0,93.44-32.36,108.68-36.59   c28.42-7.89,130.04-34.04,160.3-40.83c19.56-4.38,194.76-39.43,325.5-64.17c71.5-13.53,129.79-23.13,141.86-24.92   c33.86-5.04,61.39-9.97,127.16-20.34c106.7-16.83,246.39-28.96,294.13-32.48l-156.91,22.7l-107.74,18   c-34.29,6.12-68.9,12.55-103.83,19.3c-35.48,6.86-99.97,19.32-182.09,37.57c-28.6,6.35-69.55,15.68-99.82,25.89   c-3.03,1.02-34.79,11.78-34.79,11.78c0,0,71.74-0.88,113.48-1.14c41.74-0.26,71.48,2.09,94.17,3.91c21.31,1.71,47.6,4.85,77.8,9.78   "
   id="path12"
   style="fill:#da241c;fill-opacity:1" />
	<path
   class="st0"
   d="M1319.48,327.15"
   id="path14" />
</g>
<g
   id="Слой_2">
</g>
</svg>
