<?xml version="1.0" encoding="UTF-8" standalone="no"?>
<svg
   xmlns:dc="http://purl.org/dc/elements/1.1/"
   xmlns:cc="http://creativecommons.org/ns#"
   xmlns:rdf="http://www.w3.org/1999/02/22-rdf-syntax-ns#"
   xmlns:svg="http://www.w3.org/2000/svg"
   xmlns="http://www.w3.org/2000/svg"
   viewBox="0 0 400 405.95415"
   height="405.95416"
   width="400"
   version="1.1"
   id="svg">
  <metadata
     id="metadata8458">
    <rdf:RDF>
      <cc:Work
         rdf:about="">
        <dc:format>image/svg+xml</dc:format>
        <dc:type
           rdf:resource="http://purl.org/dc/dcmitype/StillImage" />
        <dc:title></dc:title>
      </cc:Work>
    </rdf:RDF>
  </metadata>
  <defs
     id="defs8456" />
  <g
     transform="translate(0,-2.5976562e-6)"
     id="g8058">
    <path
       style="fill:#c5432d;fill-opacity:1;fill-rule:evenodd;stroke:none"
       d="M 0,192.123 V 405.95819 H 200 400 V 313.737 c 0,-68.305 1.32175,-70.85275 0.63375,-70.85275 -0.788,0 -12.07675,-2.85225 -13.88975,-3.68825 -8.411,-3.877 -13.466,-6.582 -15.623,-8.36 -0.961,-0.793 -1.858,-1.441 -1.993,-1.441 -0.135,0 -1.068,-0.605 -2.074,-1.345 -1.005,-0.739 -2.83,-2.079 -4.054,-2.978 -1.224,-0.898 -3.131,-2.411 -4.237,-3.362 -1.107,-0.951 -2.872,-2.421 -3.922,-3.266 -2.288,-1.841 -12.95292,-13.43175 -20.96392,-21.53475 -3.17,-3.206 -7.27308,-5.84825 -7.98408,-6.35825 -0.711,-0.509 -2.335,-1.836 -3.608,-2.948 -2.518,-2.199 -2.692,-2.309 -6.869,-4.369 -4.085,-2.015 -39.18,-15.902 -40.68,-16.802 -0.74,-0.444 -1.995,-1.089 -2.789,-1.434 -0.794,-0.344 -2.084,-0.953 -2.867,-1.352 -3.099,-1.58 -7.36,-0.112 -7.989,2.753 -0.314,1.43 -25.414,-49.986 -26.179,-51.76 -0.287,-0.666 -0.522,-1.563 -0.522,-1.994 0,-0.431 -0.173,-0.891 -0.384,-1.022 -0.212,-0.13 -0.384,-0.56 -0.384,-0.956 0,-0.395 -0.581,-2.503 -1.29,-4.684 -0.709,-2.181 -1.688,-5.263 -2.175,-6.848 -1.26,-4.096 -2.898,-7.434 -4.989,-10.166 -1.648,-2.154 -5.729,-9.231 -6.3,-9.231 -0.361,0 -49.39107,-18.679546 -65.01885,-22.797915 C 106.65798,44.503855 44.179119,35.251944 39.844,33.406 33.609,30.347 24.207,22.293 24.207,20.009 c 0,-0.227 -0.145,-0.412 -0.323,-0.412 -0.374,0 -3.748,-6.641 -4.1,-8.07 C 19.655,10.999 19.396,10.221 19.211,9.798 18.445,8.057 17.181,0.874 17.537,0.297 17.638,0.133 13.734,0 8.86,0 H 0 v 192.123"
       id="path1" />
    <path
       style="fill:#040404;fill-rule:evenodd;stroke:none"
       d="m 17.537,0.297 c -0.356,0.577 0.908,7.76 1.674,9.501 0.185,0.423 0.444,1.201 0.573,1.729 0.862052,2.803879 2.890127,6.146489 4.496803,9.029864 0.931504,1.671699 2.191706,2.893503 3.682325,4.342384 2.912142,2.8306 6.627156,5.536728 9.84971,7.420301 C 51.303978,40.205074 67.322,41.587 68.385,41.676 c 1.064,0.089 30.904,5.389 31.327,5.567 0.422,0.177 2.411,0.507 4.419,0.734 4.796,0.542 43.583,8.8415 44.956,9.3155 2.33381,-0.592453 65.63079,21.85267 66.92929,22.60267 0.49445,0.285589 11.64327,15.14383 12.90327,19.23983 0.487,1.585 6.57869,19.28788 6.57169,20.04088 0,0 10.67175,31.33312 10.96575,31.89712 0.294,0.564 46.518,147.745 47.29,150.176 1.655,5.207 2.187,6.123 3.112,5.355 0.67,-0.556 0.565,-3.087 -0.186,-4.482 -0.4136,-1.27382 -35.896,-134.293 -35.582,-135.723 0.629,-2.865 4.89,-4.333 7.989,-2.753 0.783,0.399 2.073,1.008 2.867,1.352 0.794,0.345 2.049,0.99 2.789,1.434 1.761,1.057 41.75067,19.4733 47.01867,21.9223 1.60954,0.97739 8.55918,5.55927 11.68047,9.04109 8.011,8.103 19.11786,19.20761 21.40586,21.04861 1.05,0.845 2.815,2.315 3.922,3.266 1.106,0.951 3.013,2.464 4.237,3.362 1.224,0.899 3.049,2.239 4.054,2.978 1.006,0.74 1.939,1.345 2.074,1.345 0.135,0 1.032,0.648 1.993,1.441 2.157,1.778 7.212,4.483 15.623,8.36 1.813,0.836 12.758,4.032 13.546,4.032 0.656,0 1.12421,-0.22722 1.12421,-5.16222 0,-5.755 -1.20606,-7.91079 -0.68659,-5.8482 1.00515,3.99099 -39.34409,-15.66805 -41.74979,-18.393 -0.75222,-0.85205 -10.27583,-8.00358 -10.90983,-8.63758 -0.634,-0.634 -1.313,-1.152 -1.508,-1.152 -0.195,0 -1.026,-0.692 -1.847,-1.537 -0.82,-0.846 -7.168,-6.033 -8.436,-7.301 -1.268,-1.268 -2.429,-2.306 -2.58,-2.306 -0.151,0 -1.125,-0.864 -2.165,-1.921 -1.041,-1.056 -2.058,-1.921 -2.261,-1.921 -0.203,0 -69.85976,-36.67776 -72.11081,-37.98833 -3.43579,-2.00034 -6.94141,-4.92189 -8.40831,-9.55042 L 241.472,118.54 c -1.5212,-6.69122 -4.37635,-15.48556 -6.77251,-21.18993 -2.66539,-6.345328 -5.81631,-11.928154 -9.2076,-16.702886 -5.92221,-8.338123 -8.7714,-9.539057 -15.30148,-11.633294 C 195.48721,64.298483 160.405,53.033 159.21,52.909 158.015,52.786 112.819,41.464 110.759,41.31 c -2.061,-0.153 -3.836,-0.422 -3.945,-0.596 -0.11,-0.174 -2.574,-0.44 -5.476,-0.591 -2.902,-0.15 -30.514,-5.536 -32.243,-5.669 -1.99848,0.13548 -20.069114,-7.731973 -20.68,-8.383 -0.459427,-0.489615 -3.360247,-2.406461 -3.777247,-2.538461 -0.899,-0.285 -4.509832,-4.310865 -5.189382,-4.96173 C 39.101663,17.555067 35.324427,12.93 35.185427,12.296 35.045427,11.662 34.244753,10.458539 34.106753,9.7185393 33.967753,8.9795393 31.587,0.449 31.354,0.294 30.789,-0.084 17.771,-0.081 17.537,0.297"
       id="path0" />
    <path
       id="path8510"
       d="m 97.380267,214.29963 0.203444,0.21113 -0.203444,-0.21113 m 129.593503,0 0.20344,0.21113 -0.20344,-0.21113 m -171.909749,0.21113 0.203444,0.21113 -0.203444,-0.21113 m 68.357009,0 0.20345,0.21113 -0.20345,-0.21113 m 94.80467,0 0.20344,0.21113 -0.20344,-0.21113 m -163.365122,0.21113 0.203443,0.21113 -0.203443,-0.21113 m 43.13002,0 0.203443,0.21113 -0.203443,-0.21113 m 119.624772,0.21113 0.20344,0.21113 -0.20344,-0.21113 m 3.05165,0.42225 0.20344,0.21113 -0.20344,-0.21113 m -121.659205,0.21113 0.203444,0.21113 -0.203444,-0.21113 m -45.367898,0.21113 0.203443,0.21113 -0.203443,-0.21113 m 45.571342,0 0.203443,0.21113 -0.203443,-0.21113 m 25.633881,0 0.20344,0.21113 -0.20344,-0.21113 m 91.54956,0 0.20345,0.21113 -0.20345,-0.21113 m 9.96874,0 0.20344,0.21113 -0.20344,-0.21113 m -132.848599,0.21113 0.203443,0.21113 -0.203443,-0.21113 m 31.533739,0 0.20345,0.21113 -0.20345,-0.21113 m -31.737183,0.21113 0.203444,0.21113 -0.203444,-0.21113 m 126.338403,0 0.20344,0.21113 -0.20344,-0.21113 m -47.40233,0.42226 0.20345,0.21112 -0.20345,-0.21112 m 53.50564,0 0.20344,0.21112 -0.20344,-0.21112 m -173.130411,0.21112 0.203444,0.21113 -0.203444,-0.21113 m 119.828221,0 0.20344,0.21113 -0.20344,-0.21113 m 0.20344,0.21113 0.20344,0.21113 -0.20344,-0.21113 m 45.77478,0 0.20344,0.21113 -0.20344,-0.21113 m -3.86543,0.21113 0.20345,0.21113 -0.20345,-0.21113 m -113.52146,0.21113 0.20344,0.21113 -0.20344,-0.21113 m 25.63388,0 0.20344,0.21113 -0.20344,-0.21113 m -25.43044,0.21113 0.20345,0.21113 -0.20345,-0.21113 m 123.4902,0 0.20344,0.21113 -0.20344,-0.21113 m -123.28675,0.21113 0.20344,0.21113 -0.20344,-0.21113 m 115.96278,0 0.20345,0.21113 -0.20345,-0.21113 m -115.5559,0.42226 0.20345,0.21112 -0.20345,-0.21112 m 0.40689,0.42225 0.20344,0.21113 -0.20344,-0.21113 m 5.08609,0 0.20344,0.21113 -0.20344,-0.21113 m -4.88265,0.21113 0.20345,0.21113 -0.20345,-0.21113 m 113.72491,0 0.20344,0.21113 -0.20344,-0.21113 m -113.52146,0.21113 0.20344,0.21113 -0.20344,-0.21113 m 5.08609,0 0.20344,0.21113 -0.20344,-0.21113 m 104.3665,0 0.20345,0.21113 -0.20345,-0.21113 m -109.24915,0.21113 0.20345,0.21113 -0.20345,-0.21113 m 5.08609,0 0.20344,0.21113 -0.20344,-0.21113 m -4.88264,0.21113 0.20344,0.21113 -0.20344,-0.21113 m 5.08608,0 0.20345,0.21113 -0.20345,-0.21113 m 20.75124,0 0.20344,0.21113 -0.20344,-0.21113 m 45.77478,0 0.20345,0.21113 -0.20345,-0.21113 m -84.835932,0.21113 0.203444,0.21112 -0.203444,-0.21112 m 18.513362,0 0.20344,0.21112 -0.20344,-0.21112 m 20.75123,0 0.20345,0.21112 -0.20345,-0.21112 m 45.77479,0 0.20344,0.21112 -0.20344,-0.21112 m -85.242825,0.21112 0.203443,0.21113 -0.203443,-0.21113 m 18.920245,0 0.20344,0.21113 -0.20344,-0.21113 m 20.75124,0 0.20344,0.21113 -0.20344,-0.21113 m 45.77478,0 0.20344,0.21113 -0.20344,-0.21113 m -85.649709,0.21113 0.203444,0.21113 -0.203444,-0.21113 m 19.327129,0 0.20345,0.21113 -0.20345,-0.21113 m 66.52602,0 0.20345,0.21113 -0.20345,-0.21113 m 35.39917,0 0.20344,0.21113 -0.20344,-0.21113 m -121.455762,0.21113 0.203443,0.21113 -0.203443,-0.21113 m 19.734022,0 0.20344,0.21113 -0.20344,-0.21113 m 66.52602,0 0.20344,0.21113 -0.20344,-0.21113 m -86.463486,0.21113 0.203444,0.21113 -0.203444,-0.21113 m 20.140906,0 0.20344,0.21113 -0.20344,-0.21113 m 66.52602,0 0.20344,0.21113 -0.20344,-0.21113 m -66.32258,0.21113 0.20345,0.21113 -0.20345,-0.21113 m 66.52602,0 0.20345,0.21113 -0.20345,-0.21113 m -71.6121,0.21113 0.20344,0.21113 -0.20344,-0.21113 m 5.28953,0 0.20344,0.21113 -0.20344,-0.21113 m 66.52602,0 0.20344,0.21113 -0.20344,-0.21113 m 0.20344,0.21113 0.20344,0.21113 -0.20344,-0.21113 m 43.5369,0 0.20345,0.21113 -0.20345,-0.21113 m -0.20344,0.21113 0.20344,0.21112 -0.20344,-0.21112 m -10.7825,0.21112 0.20344,0.21113 -0.20344,-0.21113 m -103.95962,0.21113 0.20344,0.21113 -0.20344,-0.21113 m 26.85454,0.42226 0.20344,0.21113 -0.20344,-0.21113 m 0.20344,0.21113 0.20344,0.21113 -0.20344,-0.21113 m 75.88442,0 0.20344,0.21113 -0.20344,-0.21113 m -0.20345,0.21113 0.20345,0.21113 -0.20345,-0.21113 m 10.37562,0 0.20345,0.21113 -0.20345,-0.21113 m -6.30675,0.21113 0.20345,0.21112 -0.20345,-0.21112 m 5.69642,0.21112 0.20345,0.21113 -0.20345,-0.21113 m -6.51019,0.42226 0.20344,0.21113 -0.20344,-0.21113 m 5.89986,0 0.20345,0.21113 -0.20345,-0.21113 m -10.37562,0.21113 0.20345,0.21113 -0.20345,-0.21113 m -72.42587,0.63339 0.20344,0.21113 -0.20344,-0.21113 m 0.20344,0.21113 0.20344,0.21112 -0.20344,-0.21112 m 75.47753,0 0.20344,0.21112 -0.20344,-0.21112 m -75.27409,0.21112 0.20345,0.21113 -0.20345,-0.21113 m 70.39145,0.21113 0.20344,0.21113 -0.20344,-0.21113 m -120.438546,0.63339 0.203443,0.21113 -0.203443,-0.21113 m 95.821886,0 0.20344,0.21113 -0.20344,-0.21113 m 28.27864,0 0.20344,0.21113 -0.20344,-0.21113 m 5.49297,0 0.20345,0.21113 -0.20345,-0.21113 m -129.79694,0.21113 0.203444,0.21113 -0.203444,-0.21113 m 20.75124,0 0.20344,0.21113 -0.20344,-0.21113 m 98.87353,0 0.20344,0.21113 -0.20344,-0.21113 m -119.828213,0.21113 0.203443,0.21113 -0.203443,-0.21113 m -0.203444,0.21113 0.203444,0.21112 -0.203444,-0.21112 m -0.203443,0.21112 0.203443,0.21113 -0.203443,-0.21113 m -0.203444,0.21113 0.203444,0.21113 -0.203444,-0.21113 m 20.954684,0 0.20344,0.21113 -0.20344,-0.21113 m 102.9424,0 0.20344,0.21113 -0.20344,-0.21113 m 5.49297,0 0.20345,0.21113 -0.20345,-0.21113 m -129.593497,0.21113 0.203443,0.21113 -0.203443,-0.21113 m 98.059757,0 0.20344,0.21113 -0.20344,-0.21113 m 21.36157,0 0.20344,0.21113 -0.20344,-0.21113 m -119.828214,0.42226 0.203444,0.21113 -0.203444,-0.21113 m 54.319414,0 0.20344,0.21113 -0.20344,-0.21113 m 0.20344,0.21113 0.20344,0.21113 -0.20344,-0.21113 m 68.96734,0 0.20344,0.21113 -0.20344,-0.21113 m 5.28953,0 0.20344,0.21113 -0.20344,-0.21113 m -95.61844,0.21113 0.20345,0.21112 -0.20345,-0.21112 m 21.56501,0 0.20345,0.21112 -0.20345,-0.21112 m 64.0847,0 0.20344,0.21112 -0.20344,-0.21112 m -85.44626,0.21112 0.20344,0.21113 -0.20344,-0.21113 m 0.20344,0.21113 0.20345,0.21113 -0.20345,-0.21113 m 94.39778,0 0.20344,0.21113 -0.20344,-0.21113 m -107.82505,0.21113 0.20345,0.21113 -0.20345,-0.21113 m 79.74985,0.21113 0.20344,0.21113 -0.20344,-0.21113 m 17.90302,0 0.20345,0.21113 -0.20345,-0.21113 m -0.81377,0.63339 0.20344,0.21113 -0.20344,-0.21113 m 9.3584,0 0.20344,0.21113 -0.20344,-0.21113 m -5.28953,0.21113 0.20344,0.21112 -0.20344,-0.21112 m -0.20344,0.21112 0.20344,0.21113 -0.20344,-0.21113 m 4.88264,0 0.20344,0.21113 -0.20344,-0.21113 m -9.76529,0.42226 0.20344,0.21113 -0.20344,-0.21113 m 9.15496,0 0.20344,0.21113 -0.20344,-0.21113 m -67.74668,0.21113 0.20344,0.21113 -0.20344,-0.21113 m 62.66059,0 0.20344,0.21113 -0.20344,-0.21113 m -101.72174,0.21113 0.20344,0.21113 -0.20344,-0.21113 m 17.49614,0 0.20344,0.21113 -0.20344,-0.21113 m 21.76845,0 0.20345,0.21113 -0.20345,-0.21113 m -39.46803,0.21113 0.20344,0.21113 -0.20344,-0.21113 m 97.04254,0 0.20344,0.21113 -0.20344,-0.21113 m 4.27231,0 0.20344,0.21113 -0.20344,-0.21113 m 4.06887,0.42225 0.20344,0.21113 -0.20344,-0.21113 m -86.26004,0.84452 0.20345,0.21113 -0.20345,-0.21113 m 80.56362,0 0.20345,0.21113 -0.20345,-0.21113 m -80.36017,0.21113 0.20344,0.21113 -0.20344,-0.21113 m 84.42904,0.21113 0.20345,0.21113 -0.20345,-0.21113 m -9.15495,0.21113 0.20344,0.21112 -0.20344,-0.21112 m -96.432215,0.21112 0.203444,0.21113 -0.203444,-0.21113 m 104.976835,0 0.20345,0.21113 -0.20345,-0.21113 m -105.180278,0.21113 0.203443,0.21113 -0.203443,-0.21113 m 44.147238,0 0.20344,0.21113 -0.20344,-0.21113 m 56.35384,0 0.20345,0.21113 -0.20345,-0.21113 m -56.1504,0.21113 0.20345,0.21113 -0.20345,-0.21113 m 60.21927,0 0.20345,0.21113 -0.20345,-0.21113 m -4.88264,0.42226 0.20344,0.21113 -0.20344,-0.21113 m -10.78251,0.21113 0.20345,0.21113 -0.20345,-0.21113 m 14.85138,0 0.20344,0.21113 -0.20344,-0.21113 m -4.6792,0.21113 0.20344,0.21112 -0.20344,-0.21112 m -4.88265,0.21112 0.20345,0.21113 -0.20345,-0.21113 m 8.95152,0 0.20344,0.21113 -0.20344,-0.21113 m -4.6792,0.21113 0.20344,0.21113 -0.20344,-0.21113 m -99.890753,0.21113 0.203444,0.21113 -0.203444,-0.21113 m 91.549563,0.21113 0.20345,0.21113 -0.20345,-0.21113 m 12.00317,0 0.20344,0.21113 -0.20344,-0.21113 m -55.33663,0.63339 0.20345,0.21113 -0.20345,-0.21113 m 0.20345,0.21113 0.20344,0.21112 -0.20344,-0.21112 m 54.11596,0 0.20345,0.21112 -0.20345,-0.21112 m -0.61033,0.42225 0.20345,0.21113 -0.20345,-0.21113 m -103.349287,0.21113 0.203443,0.21113 -0.203443,-0.21113 m 28.278647,0.21113 0.20344,0.21113 -0.20344,-0.21113 m 74.46031,0 0.20344,0.21113 -0.20344,-0.21113 m -74.05343,0.42226 0.20345,0.21113 -0.20345,-0.21113 m 73.4431,0 0.20344,0.21113 -0.20344,-0.21113 m -124.710855,0.21113 0.203444,0.21113 -0.203444,-0.21113 m -0.203443,0.21113 0.203443,0.21112 -0.203443,-0.21112 m 51.878088,0 0.20345,0.21112 -0.20345,-0.21112 m 72.42588,0 0.20344,0.21112 -0.20344,-0.21112 m -124.507412,0.21112 0.203444,0.21113 -0.203444,-0.21113 m 52.284982,0 0.20344,0.21113 -0.20344,-0.21113 m 70.188,0 0.20344,0.21113 -0.20344,-0.21113 m -122.676425,0.21113 0.203443,0.21113 -0.203443,-0.21113 m -0.203443,0.21113 0.203443,0.21113 -0.203443,-0.21113 m 21.971896,0 0.203444,0.21113 -0.203444,-0.21113 m 31.126852,0 0.20345,0.21113 -0.20345,-0.21113 m 22.58223,0 0.20344,0.21113 -0.20344,-0.21113 m -75.884422,0.21113 0.203444,0.21113 -0.203444,-0.21113 m 53.505642,0 0.20344,0.21113 -0.20344,-0.21113 m 22.58222,0 0.20345,0.21113 -0.20345,-0.21113 m -76.291305,0.21113 0.203443,0.21113 -0.203443,-0.21113 m 53.912525,0 0.20344,0.21113 -0.20344,-0.21113 m -54.115969,0.21113 0.203444,0.21113 -0.203444,-0.21113 m 54.319409,0 0.20345,0.21113 -0.20345,-0.21113 m -54.522852,0.21113 0.203443,0.21112 -0.203443,-0.21112 m 54.726302,0 0.20344,0.21112 -0.20344,-0.21112 m -54.929746,0.21112 0.203444,0.21113 -0.203444,-0.21113 m 55.133186,0 0.20344,0.21113 -0.20344,-0.21113 m -55.336629,0.21113 0.203443,0.21113 -0.203443,-0.21113 m 55.540069,0 0.20345,0.21113 -0.20345,-0.21113 m -55.743513,0.21113 0.203444,0.21113 -0.203444,-0.21113 m 55.946963,0 0.20344,0.21113 -0.20344,-0.21113 m 0.20344,0.21113 0.20344,0.21113 -0.20344,-0.21113 m -56.55729,0.21113 0.203444,0.21113 -0.203444,-0.21113 m 22.175341,0 0.203443,0.21113 -0.203443,-0.21113 m 34.585389,0 0.20345,0.21113 -0.20345,-0.21113 m 0.20345,0.21113 0.20344,0.21113 -0.20344,-0.21113 m 0.20344,0.21113 0.20344,0.21113 -0.20344,-0.21113 m 0.20344,0.21113 0.20345,0.21112 -0.20345,-0.21112 m 22.78568,0 0.20344,0.21112 -0.20344,-0.21112 m -22.58223,0.21112 0.20344,0.21113 -0.20344,-0.21113 m 22.78567,0 0.20344,0.21113 -0.20344,-0.21113 m -22.58223,0.21113 0.20344,0.21113 -0.20344,-0.21113 m 0.20344,0.21113 0.20345,0.21113 -0.20345,-0.21113 m 0.20345,0.21113 0.20344,0.21113 -0.20344,-0.21113 m -37.433604,0.21113 0.203444,0.21113 -0.203444,-0.21113 m 37.637044,0 0.20345,0.21113 -0.20345,-0.21113 m -37.840487,0.21113 0.203443,0.21113 -0.203443,-0.21113 m 38.043937,0 0.20344,0.21113 -0.20344,-0.21113 m 0.20344,0.21113 0.20344,0.21112 -0.20344,-0.21112 m 0.20344,0.21112 0.20345,0.21113 -0.20345,-0.21113 m 0.20345,0.21113 0.20344,0.21113 -0.20344,-0.21113 m 0.20344,0.21113 0.20344,0.21113 -0.20344,-0.21113 m 0.20344,0.21113 0.20345,0.21113 -0.20345,-0.21113 m 22.98912,0 0.20344,0.21113 -0.20344,-0.21113 m -22.78567,0.21113 0.20344,0.21113 -0.20344,-0.21113 m 22.98911,0 0.20344,0.21113 -0.20344,-0.21113 m -22.78567,0.21113 0.20344,0.21113 -0.20344,-0.21113 m 0.20344,0.21113 0.20345,0.21113 -0.20345,-0.21113 m -41.299025,0.21113 0.203443,0.21112 -0.203443,-0.21112 m 41.502475,0 0.20344,0.21112 -0.20344,-0.21112 m -41.705919,0.21112 0.203444,0.21113 -0.203444,-0.21113 m 65.915689,0.84452 0.20345,0.21113 -0.20345,-0.21113 m 1.01722,0.84451 0.20344,0.21113 -0.20344,-0.21113 m -69.170787,0.84452 0.203443,0.21113 -0.203443,-0.21113 m 71.612107,1.4779 0.20344,0.21113 -0.20344,-0.21113 m -23.19256,0.21113 0.20345,0.21113 -0.20345,-0.21113 m 23.396,0 0.20345,0.21113 -0.20345,-0.21113 m -23.19255,0.21113 0.20344,0.21113 -0.20344,-0.21113 m 0.20344,0.21113 0.20344,0.21112 -0.20344,-0.21112 m 0.20344,0.21112 0.20345,0.21113 -0.20345,-0.21113 m -51.471199,0.63339 0.203443,0.21113 -0.203443,-0.21113 m 76.087869,0.42226 0.20344,0.21113 -0.20344,-0.21113 m -23.39601,0.21113 0.20345,0.21112 -0.20345,-0.21112 m 0.81378,0.84451 0.20344,0.21113 -0.20344,-0.21113 m 0.20344,0.21113 0.20345,0.21113 -0.20345,-0.21113 m 23.80289,0 0.20344,0.21113 -0.20344,-0.21113 m 0.20344,0.21113 0.20345,0.21113 -0.20345,-0.21113 m -79.749844,0.42226 0.203444,0.21112 -0.203444,-0.21112 m -0.203443,0.21112 0.203443,0.21113 -0.203443,-0.21113 m 81.580837,0.84452 0.20345,0.21113 -0.20345,-0.21113 m 0.20345,0.21113 0.20344,0.21113 -0.20344,-0.21113 m -83.818722,1.26677 0.203443,0.21113 -0.203443,-0.21113 m -1.220661,1.4779 0.203443,0.21113 -0.203443,-0.21113 m 87.887583,0 0.20345,0.21113 -0.20345,-0.21113 m -89.108244,1.4779 0.203443,0.21113 -0.203443,-0.21113 m -0.203444,0.21113 0.203444,0.21113 -0.203444,-0.21113 m -24.006332,0.21113 0.203444,0.21113 -0.203444,-0.21113 m -0.203443,0.21113 0.203443,0.21113 -0.203443,-0.21113 m 115.759343,0 0.20345,0.21113 -0.20345,-0.21113 m 0.20345,0.21113 0.20344,0.21112 -0.20344,-0.21112 m -116.36968,0.21112 0.203443,0.21113 -0.203443,-0.21113 m -0.203444,0.21113 0.203444,0.21113 -0.203444,-0.21113 m -0.203443,0.21113 0.203443,0.21113 -0.203443,-0.21113 m -0.203444,0.21113 0.203444,0.21113 -0.203444,-0.21113 m -0.203443,0.21113 0.203443,0.21113 -0.203443,-0.21113 m -0.203443,0.21113 0.203443,0.21113 -0.203443,-0.21113 m -0.203444,0.21113 0.203444,0.21113 -0.203444,-0.21113 m -0.203443,0.21113 0.203443,0.21112 -0.203443,-0.21112 m -0.203444,0.21112 0.203444,0.21113 -0.203444,-0.21113 m 95.414998,0 0.20344,0.21113 -0.20344,-0.21113 m 24.61666,0 0.20344,0.21113 -0.20344,-0.21113 m -120.235101,0.21113 0.203443,0.21113 -0.203443,-0.21113 m 24.006331,0 0.203444,0.21113 -0.203444,-0.21113 m 71.81555,0 0.20345,0.21113 -0.20345,-0.21113 m -96.025325,0.21113 0.203444,0.21113 -0.203444,-0.21113 m -0.203443,0.21113 0.203443,0.21113 -0.203443,-0.21113 m -0.203444,0.21113 0.203444,0.21113 -0.203444,-0.21113 m -0.203443,0.21113 0.203443,0.21113 -0.203443,-0.21113 m 97.449435,0.21113 0.20344,0.21112 -0.20344,-0.21112 m -97.856322,0.21112 0.203443,0.21113 -0.203443,-0.21113 m -0.203444,0.21113 0.203444,0.21113 -0.203444,-0.21113 m 24.209775,0 0.203444,0.21113 -0.203444,-0.21113 m 99.280421,0 0.20345,0.21113 -0.20345,-0.21113 m -123.897083,0.42226 0.203444,0.21113 -0.203444,-0.21113 m 99.483863,0 0.20345,0.21113 -0.20345,-0.21113 m 0.20345,0.21113 0.20344,0.21113 -0.20344,-0.21113 m -76.901642,1.4779 0.203444,0.21113 -0.203444,-0.21113 m 103.349292,0 0.20344,0.21113 -0.20344,-0.21113 m -103.552735,0.21113 0.203443,0.21113 -0.203443,-0.21113 m 103.756175,0 0.20345,0.21113 -0.20345,-0.21113 m 0.20345,0.21113 0.20344,0.21113 -0.20344,-0.21113 m -105.587173,1.68903 0.203443,0.21113 -0.203443,-0.21113 m -0.203444,0.21113 0.203444,0.21112 -0.203444,-0.21112 m 108.028497,0.21112 0.20344,0.21113 -0.20344,-0.21113 m 0.20344,0.21113 0.20344,0.21113 -0.20344,-0.21113 m -109.656041,1.26678 0.203443,0.21112 -0.203443,-0.21112 m 85.649711,0 0.20344,0.21112 -0.20344,-0.21112 m 0.20344,0.21112 0.20344,0.21113 -0.20344,-0.21113 m 0.20344,0.21113 0.20345,0.21113 -0.20345,-0.21113 m 0.20345,0.21113 0.20344,0.21113 -0.20344,-0.21113 m 25.22699,0 0.20344,0.21113 -0.20344,-0.21113 m -25.02355,0.21113 0.20345,0.21113 -0.20345,-0.21113 m 25.22699,0 0.20345,0.21113 -0.20345,-0.21113 m -25.02354,0.21113 0.20344,0.21113 -0.20344,-0.21113 m 0.20344,0.21113 0.20344,0.21113 -0.20344,-0.21113 m 0.40689,0.42225 0.20344,0.21113 -0.20344,-0.21113 m 25.63387,0.21113 0.20345,0.21113 -0.20345,-0.21113 m -25.22699,0.21113 0.20345,0.21113 -0.20345,-0.21113 m 25.43044,0 0.20344,0.21113 -0.20344,-0.21113 m -25.22699,0.21113 0.20344,0.21113 -0.20344,-0.21113 m -114.945575,0.21113 0.203443,0.21113 -0.203443,-0.21113 m 115.149015,0 0.20344,0.21113 -0.20344,-0.21113 m -115.352459,0.21113 0.203444,0.21113 -0.203444,-0.21113 m 25.023549,0 0.203444,0.21113 -0.203444,-0.21113 m -25.226992,0.21113 0.203443,0.21113 -0.203443,-0.21113 m 25.023549,0 0.203443,0.21113 -0.203443,-0.21113 m -25.226993,0.21113 0.203444,0.21112 -0.203444,-0.21112 m 25.023549,0 0.203444,0.21112 -0.203444,-0.21112 m -25.226992,0.21112 0.203443,0.21113 -0.203443,-0.21113 m 25.023549,0 0.203443,0.21113 -0.203443,-0.21113 m -25.226993,0.21113 0.203444,0.21113 -0.203444,-0.21113 m 143.224213,0.42226 0.20344,0.21113 -0.20344,-0.21113 m 0.20344,0.21113 0.20345,0.21113 -0.20345,-0.21113 m 0.20345,0.21113 0.20344,0.21113 -0.20344,-0.21113 m -120.845432,1.68903 0.203443,0.21113 -0.203443,-0.21113 m -0.203444,0.21113 0.203444,0.21112 -0.203444,-0.21112 m 123.286756,0.21112 0.20344,0.21113 -0.20344,-0.21113 m 0.40688,0.42226 0.20345,0.21113 -0.20345,-0.21113 m 0.20345,0.21113 0.20344,0.21113 -0.20344,-0.21113 m -150.344739,0.63339 0.203443,0.21112 -0.203443,-0.21112 m -0.203444,0.21112 0.203444,0.21113 -0.203444,-0.21113 m -0.203443,0.21113 0.203443,0.21113 -0.203443,-0.21113 m 25.023549,0.21113 0.203444,0.21113 -0.203444,-0.21113 m 101.111417,0 0.20344,0.21113 -0.20344,-0.21113 m 0.20344,0.21113 0.20344,0.21113 -0.20344,-0.21113 m 26.44765,0.42226 0.20344,0.21113 -0.20344,-0.21113 m 0.20344,0.21113 0.20345,0.21113 -0.20345,-0.21113 m -154.820488,0.84451 0.203444,0.21113 -0.203444,-0.21113 m 25.226993,0.21113 0.203444,0.21113 -0.203444,-0.21113 m -0.203443,0.21113 0.203443,0.21113 -0.203443,-0.21113 m 104.976838,0 0.20345,0.21113 -0.20345,-0.21113 m 26.6511,0.42226 0.20344,0.21113 -0.20344,-0.21113 m -157.872149,0.42225 0.203444,0.21113 -0.203444,-0.21113 m -0.203443,0.21113 0.203443,0.21113 -0.203443,-0.21113 m 25.226993,0.42226 0.203443,0.21113 -0.203443,-0.21113 m 134.679589,0.63339 0.20344,0.21112 -0.20344,-0.21112 m -26.44765,0.21112 0.20344,0.21113 -0.20344,-0.21113 m 0.20344,0.21113 0.20344,0.21113 -0.20344,-0.21113 m -109.859484,0.63339 0.203444,0.21113 -0.203444,-0.21113 m 137.934684,0.63339 0.20344,0.21112 -0.20344,-0.21112 m -164.992668,0.84451 0.203444,0.21113 -0.203444,-0.21113 m -0.203443,0.21113 0.203443,0.21113 -0.203443,-0.21113 m 25.837323,0 0.203443,0.21113 -0.203443,-0.21113 m -26.040767,0.21113 0.203444,0.21113 -0.203444,-0.21113 m -0.203443,0.21113 0.203443,0.21112 -0.203443,-0.21112 m -0.203444,0.21112 0.203444,0.21113 -0.203444,-0.21113 m 167.840872,0.21113 0.20345,0.21113 -0.20345,-0.21113 m 0.20345,0.21113 0.20344,0.21113 -0.20344,-0.21113 m 0.20344,0.21113 0.20344,0.21113 -0.20344,-0.21113 m 0.20344,0.21113 0.20345,0.21113 -0.20345,-0.21113 m 0.20345,0.21113 0.20344,0.21113 -0.20344,-0.21113 m -143.834546,0.21113 0.203443,0.21113 -0.203443,-0.21113 m 144.037986,0 0.20344,0.21113 -0.20344,-0.21113 m 0.20344,0.21113 0.20345,0.21112 -0.20345,-0.21112 m 0.20345,0.21112 0.20344,0.21113 -0.20344,-0.21113 m -145.868981,1.26678 0.203444,0.21112 -0.203444,-0.21112 m 146.886201,0 0.20344,0.21112 -0.20344,-0.21112 m -147.089644,0.21112 0.203443,0.21113 -0.203443,-0.21113 m 147.496524,0.63339 0.20345,0.21113 -0.20345,-0.21113 m -174.757952,0.63339 0.203444,0.21113 -0.203444,-0.21113 m -0.203443,0.21113 0.203443,0.21112 -0.203443,-0.21112 m -0.203444,0.21112 0.203444,0.21113 -0.203444,-0.21113 m 26.244211,0 0.203443,0.21113 -0.203443,-0.21113 m -0.203444,0.21113 0.203444,0.21113 -0.203444,-0.21113 m 124.507412,0.42226 0.20345,0.21113 -0.20345,-0.21113 m 0.40689,0.42226 0.20344,0.21113 -0.20344,-0.21113 m 22.98911,0 0.20344,0.21113 -0.20344,-0.21113 m -149.124073,0.63338 0.203444,0.21113 -0.203444,-0.21113 m -26.854541,0.63339 0.203444,0.21113 -0.203444,-0.21113 m 174.147624,0.21113 0.20344,0.21113 -0.20344,-0.21113 m -19.73401,0.21113 0.20344,0.21113 -0.20344,-0.21113 m -128.57629,0.21113 0.203443,0.21112 -0.203443,-0.21112 m 128.77973,0 0.20344,0.21112 -0.20344,-0.21112 m -128.983174,0.21112 0.203444,0.21113 -0.203444,-0.21113 m 129.186614,0 0.20345,0.21113 z"
       style="fill:#edd13a;fill-opacity:1;stroke:none;stroke-width:0.20725046" />
    <g
       style="fill:#ffffff;fill-opacity:1;stroke:none;stroke-width:0.00203569;stroke-miterlimit:4;stroke-dasharray:none;stroke-opacity:1"
       transform="matrix(1.0271879,0,0,0.93969882,-17.932676,18.913517)"
       id="g13194">
      <path
         id="path11867"
         style="font-style:normal;font-variant:normal;font-weight:normal;font-stretch:normal;font-size:56.96273041px;line-height:1.25;font-family:'Franklin Gothic Medium Cond';-inkscape-font-specification:'Franklin Gothic Medium Cond';letter-spacing:0px;word-spacing:0px;fill:#ffffff;fill-opacity:1;stroke:none;stroke-width:0.00203569;stroke-miterlimit:4;stroke-dasharray:none;stroke-opacity:1;image-rendering:optimizeQuality"
         d="m 32.528975,343.79027 h 41.13703 v 7.64064 H 44.794089 v 17.22303 h 23.119257 v 7.64063 H 44.794089 v 25.11697 H 32.528975 Z" />
      <path
         id="path11869"
         style="font-style:normal;font-variant:normal;font-weight:normal;font-stretch:normal;font-size:56.96273041px;line-height:1.25;font-family:'Franklin Gothic Medium Cond';-inkscape-font-specification:'Franklin Gothic Medium Cond';letter-spacing:0px;word-spacing:0px;fill:#ffffff;fill-opacity:1;stroke:none;stroke-width:0.00203569;stroke-miterlimit:4;stroke-dasharray:none;stroke-opacity:1;image-rendering:optimizeQuality"
         d="m 79.852856,343.79027 h 22.305174 q 12.10234,0 17.85501,4.26355 5.75266,4.26355 5.75266,12.2419 0,10.63775 -11.34253,15.07014 l 14.05608,26.04568 H 115.18296 L 103.62334,377.34991 H 92.117996 v 24.06163 h -12.26514 z m 12.26514,7.38735 v 18.78494 h 9.388774 q 6.2954,0 9.22601,-2.70166 2.98487,-2.70165 2.98487,-7.04962 0,-9.03366 -12.10231,-9.03366 z" />
      <path
         id="path11871"
         style="font-style:normal;font-variant:normal;font-weight:normal;font-stretch:normal;font-size:56.96273041px;line-height:1.25;font-family:'Franklin Gothic Medium Cond';-inkscape-font-specification:'Franklin Gothic Medium Cond';letter-spacing:0px;word-spacing:0px;fill:#ffffff;fill-opacity:1;stroke:none;stroke-width:0.00203569;stroke-miterlimit:4;stroke-dasharray:none;stroke-opacity:1;image-rendering:optimizeQuality"
         d="m 138.46503,343.79027 h 42.43952 v 7.64064 h -30.1744 v 16.46321 h 23.66196 v 7.68282 h -23.66196 v 18.02513 h 30.66283 v 7.80947 h -42.92795 z" />
      <path
         id="path11873"
         style="font-style:normal;font-variant:normal;font-weight:normal;font-stretch:normal;font-size:56.96273041px;line-height:1.25;font-family:'Franklin Gothic Medium Cond';-inkscape-font-specification:'Franklin Gothic Medium Cond';letter-spacing:0px;word-spacing:0px;fill:#ffffff;fill-opacity:1;stroke:none;stroke-width:0.00203569;stroke-miterlimit:4;stroke-dasharray:none;stroke-opacity:1;image-rendering:optimizeQuality"
         d="m 189.6964,343.79027 h 12.26516 v 49.55852 h 26.21266 v 8.06275 H 189.6964 Z" />
      <path
         id="path11875"
         style="font-style:normal;font-variant:normal;font-weight:normal;font-stretch:normal;font-size:56.96273041px;line-height:1.25;font-family:'Franklin Gothic Medium Cond';-inkscape-font-specification:'Franklin Gothic Medium Cond';letter-spacing:0px;word-spacing:0px;fill:#ffffff;fill-opacity:1;stroke:none;stroke-width:0.00203569;stroke-miterlimit:4;stroke-dasharray:none;stroke-opacity:1;image-rendering:optimizeQuality"
         d="m 235.06652,343.79027 h 12.26514 v 57.62127 h -12.26514 z" />
      <path
         id="path11877"
         style="font-style:normal;font-variant:normal;font-weight:normal;font-stretch:normal;font-size:56.96273041px;line-height:1.25;font-family:'Franklin Gothic Medium Cond';-inkscape-font-specification:'Franklin Gothic Medium Cond';letter-spacing:0px;word-spacing:0px;fill:#ffffff;fill-opacity:1;stroke:none;stroke-width:0.00203569;stroke-miterlimit:4;stroke-dasharray:none;stroke-opacity:1;image-rendering:optimizeQuality"
         d="m 261.2792,343.79027 h 18.18062 l 14.76157,41.53798 15.1415,-41.53798 h 17.42082 v 57.62127 h -11.50537 v -49.17859 l -17.58362,49.17859 h -8.90039 l -17.25801,-49.2208 v 49.2208 H 261.2792 Z" />
      <path
         id="path11879"
         style="font-style:normal;font-variant:normal;font-weight:normal;font-stretch:normal;font-size:56.96273041px;line-height:1.25;font-family:'Franklin Gothic Medium Cond';-inkscape-font-specification:'Franklin Gothic Medium Cond';letter-spacing:0px;word-spacing:0px;fill:#ffffff;fill-opacity:1;stroke:none;stroke-width:0.00203569;stroke-miterlimit:4;stroke-dasharray:none;stroke-opacity:1;image-rendering:optimizeQuality"
         d="m 391.79977,372.5798 q 0,14.77468 -6.78381,22.33087 -6.78381,7.55621 -19.70021,7.55621 -12.97064,0 -19.86299,-7.51399 -6.89237,-7.55618 -6.89237,-22.37309 0,-14.69024 6.83809,-22.24645 6.83809,-7.59841 19.86301,-7.59841 12.86212,0 19.70019,7.5562 6.83809,7.51399 6.83809,22.28866 z m -12.86211,0 q 0,-10.25785 -3.09341,-16.12551 -3.03916,-5.90988 -10.69129,-5.90988 -7.65213,0 -10.69128,5.90988 -3.03918,5.90987 -3.03918,16.12551 0,10.04676 2.98489,16.04108 2.98486,5.99431 10.90836,5.99431 7.43508,0 10.5285,-5.78324 3.09341,-5.82544 3.09341,-16.25215 z" />
    </g>
    <g
       transform="matrix(0.19660416,0,0,0.20403099,-8.2410858,-14.220314)"
       id="g14578">
      <path
         style="fill:#030202;stroke:none"
         d="m 656,397 c -9.525,29.224 -20.861,57.867 -30.667,87 -2.598,7.716 -5.483,15.354 -8.28,23 -1.054,2.883 -1.73,7.151 -4.472,8.972 C 609.817,517.809 605.147,517 602,517 h -24 -92 c 1.3,4.252 4.581,6.308 8,9 l 16,12.576 c 17.033,13.291 33.957,26.721 51,40 l 15,11.773 c 2.38,1.847 5.562,3.705 7.072,6.405 1.535,2.744 -0.283,6.507 -1.072,9.246 -2.307,8.004 -4.577,16.038 -7.025,24 -6.025,19.597 -11.649,39.32 -17.399,59 -2.965,10.145 -7.162,20.512 -8.576,31 9.886,-4.677 18.906,-11.938 28,-18 l 51,-34 21,-14 c 2.554,-1.7 5.73,-4.603 9,-4.454 3.552,0.161 7.175,3.571 10,5.454 l 20,13.333 c 25.722,17.148 50.998,36.634 78,51.667 -0.852,-9.757 -5.165,-19.602 -7.859,-29 -5.742,-20.032 -11.721,-39.997 -17.565,-60 l -7.152,-24 c -0.77,-2.632 -2.838,-6.797 -1.878,-9.536 1.043,-2.981 5.102,-5.054 7.454,-6.888 6.021,-4.695 12.034,-9.413 18,-14.176 16.883,-13.48 34.117,-26.521 51,-40 7.612,-6.078 17.058,-11.635 23,-19.4 h -94 -24 c -3.147,0 -7.816,0.809 -10.581,-1.028 -2.723,-1.809 -3.453,-6.08 -4.419,-8.972 -2.459,-7.361 -5.09,-14.688 -7.692,-22 C 679.88,455.7 670.192,426.013 659,397 Z"
         id="path8466" />
      <path
         style="fill:#edd13a;fill-opacity:1;stroke:none"
         d="m 657,422 c -8.597,25.412 -17.695,50.722 -26.692,76 -2.25,6.32 -4.355,12.729 -6.733,19 -1.056,2.782 -2.09,6.342 -4.8,7.972 C 616.05,526.612 612.038,526 609,526 h -20 -78 c 5.324,5.429 12,9.75 18,14.424 11.048,8.608 21.953,17.393 33,26 10.805,8.419 21.735,19.467 34,25.576 -6.355,22.396 -13.031,44.705 -19.72,67 -3.564,11.879 -9.2,24.618 -10.28,37 8.934,-3.855 16.926,-10.284 25,-15.667 l 42,-28 L 650,641 c 2.306,-1.528 5.041,-3.915 8,-3.647 2.899,0.264 5.672,2.764 8,4.314 l 17,11.333 43,28.667 c 7.314,4.884 14.756,11.208 23,14.333 -1.681,-12.47 -6.669,-24.963 -10.28,-37 -6.69,-22.298 -13.364,-44.602 -19.72,-67 9.131,-4.549 16.981,-12.318 25,-18.576 19.68,-15.356 38.811,-33.229 60,-46.424 -6.919,-2.903 -17.52,-1 -25,-1 h -56 -18 c -2.779,-10e-4 -6.283,0.472 -8.775,-1.028 -2.71,-1.629 -3.745,-5.19 -4.8,-7.972 -2.501,-6.594 -4.854,-13.312 -7.092,-20 -5.926,-17.714 -11.91,-35.533 -18.525,-53 -2.709,-7.153 -4.156,-15.846 -8.808,-22 z"
         id="path8468" />
    </g>
    <g
       transform="matrix(1.0227341,0,0,1.0495472,2.3317281,1.1213648)"
       id="g7877">
      <g
         id="g7861">
        <path
           id="path8500"
           d="m 24.504182,174.31228 c -0.649392,0.33992 1.748268,18.88973 3.470824,22.29735 0.96656,1.91282 13.850634,16.32164 14.439603,16.00283 0.420683,-0.22724 0.320526,-13.75675 -1.923125,-21.60027 -0.716325,-2.50418 -15.330789,-17.04405 -15.987302,-16.69991 z"
           style="fill:#edd13a;fill-opacity:1;stroke:none;stroke-width:0.20725046" />
        <path
           id="path8512"
           d="m 195.87358,286.94971 c -4.71763,1.2062 -9.14911,6.49746 -10.9658,10.7831 -1.07376,2.53489 -1.19452,6.83356 2.82741,6.13012 1.58568,-0.27873 2.9456,-1.2479 4.20048,-2.1962 3.01121,-2.27179 5.61551,-5.14538 7.11979,-8.62334 0.96084,-2.22232 1.6093,-6.237 -1.86922,-6.24481 -0.44367,0 -0.88211,0.0417 -1.31266,0.15113 z"
           style="fill:#edd13a;fill-opacity:1;stroke:none;stroke-width:0.26152503" />
        <path
           id="path8476"
           d="m 67.618841,136.73216 c -1.43387,0.42774 -2.722278,1.62273 -3.865427,2.56795 -2.051524,1.69621 -39.053824,29.66941 -39.546971,30.62308 -0.830253,1.60542 15.059951,20.29871 16.984527,19.83845 1.536202,-0.36525 33.64996,-29.53574 38.654263,-33.62974 2.910666,-2.38111 9.929167,-9.39729 12.424605,-12.22831 0.98426,-1.11666 2.343466,-3.42468 1.528471,-5.01701 -0.749282,-1.46418 -3.708321,-1.56305 -5.021345,-1.01918 -3.200573,1.32546 -6.213775,2.81983 -9.765288,2.22635 -2.244795,-0.37497 -4.626508,-1.5499 -6.713635,-2.47232 -1.424105,-0.62937 -3.108413,-1.35756 -4.6792,-0.88927 z"
           style="fill:#edd13a;fill-opacity:1;stroke:none;stroke-width:0.20725046" />
        <path
           id="path8480"
           d="m 89.962569,146.7442 c -3.245534,2.82195 -47.344429,42.14702 -48.237953,43.67137 -1.115074,1.90227 1.909661,24.81001 3.591325,24.59466 0.653664,-0.0845 26.773507,-26.78896 26.922631,-29.04804 0.1536,-2.32664 -2.370523,-3.69897 -3.359462,-5.48934 -2.088144,-3.77921 -1.243117,-6.27642 1.510084,-9.34749 2.657175,-2.96276 4.746743,-3.50653 8.262043,-1.34352 1.615952,0.99421 4.687603,4.2421 6.677077,4.34556 1.207844,0.0654 8.847836,-8.69796 10.254445,-10.45645 1.664371,-2.08089 -0.194539,-19.23579 -0.632146,-20.46667 -0.209954,-0.58989 -3.949261,2.63692 -4.988044,3.53992 z"
           style="fill:#edd13a;fill-opacity:1;stroke:none;stroke-width:0.20725046" />
        <path
           id="path8484"
           d="m 143.29681,156.36843 c -3.27727,0.78075 -15.60408,11.96157 -15.24053,13.0094 0.30212,0.86985 -4.38251,4.78451 -3.68897,5.26736 1.33354,0.92947 3.95606,1.35262 9.78543,9.84335 0.76493,1.11414 2.04376,0.67333 2.96133,2.15182 0.61338,0.9543 4.29851,-1.44258 5.45122,-1.73394 1.82245,-0.46026 6.87289,3.24199 8.45324,2.35314 0.60715,-0.34226 4.53508,1.29441 6.95486,0.40883 2.99889,-1.09751 0.11779,-9.38303 0.84424,-9.77214 0.92851,-0.49615 -2.30932,-2.13043 -2.62507,-2.52947 -0.71917,-0.90785 -3.12709,-1.21753 -3.6117,-2.30273 -0.66322,-1.48487 1.23243,-8.18776 0.54947,-9.68297 -1.75063,-3.83198 -5.3303,-8.0854 -9.83352,-7.01265 z"
           style="fill:#edd13a;fill-opacity:1;stroke:none;stroke-width:0.20725046" />
        <path
           id="path8488"
           d="m 73.287193,169.72608 c -3.505331,1.47199 -6.309576,7.74139 -4.374218,10.81965 1.23185,1.95927 121.655635,134.52007 112.059595,118.69671 0.60423,0.48349 1.42614,1.12532 2.21957,0.73051 -1.93369,-2.44732 12.87887,-14.73413 15.73731,-14.34917 -0.40892,-1.09787 -3.15987,-3.06105 -3.93906,-3.86968 C 193.42185,280.1263 87.256822,177.46479 84.599036,175.07059 82.29158,172.98887 76.914387,168.20216 73.287193,169.72608 Z"
           style="fill:#edd13a;fill-opacity:1;stroke:none;stroke-width:0.20725046" />
        <path
           id="path8492"
           d="m 175.61165,172.34665 c -0.79607,0.13934 -18.89523,7.52385 -19.07833,8.6196 -0.23254,1.39345 2.98664,5.0349 3.79553,5.87519 2.88524,2.9938 6.50467,9.79964 3.74048,8.10428 8.43127,6.51693 -7.18524,-3.94684 -9.75239,-5.47176 -1.39481,-0.67139 -1.78068,3.37804 -2.8634,5.48721 -0.5727,1.11687 14.13323,16.94836 20.47823,24.5701 1.63243,1.96139 18.17667,17.83902 19.13082,17.73346 0.77309,-0.0844 10.31652,-6.55519 15.8746,-11.14935 1.6723,-1.38289 18.53881,-13.2768 20.03005,-14.85604 0.68967,-0.73262 -8.17308,-8.75638 -10.38044,-10.39474 -8.11536,-6.01716 -18.71984,-14.8688 -27.09154,-20.46371 -3.17371,-2.12184 -11.52041,-8.46594 -13.88361,-8.05424 z"
           style="fill:#edd13a;fill-opacity:1;stroke:none;stroke-width:0.20725046" />
        <path
           id="path8496"
           d="m 124.80243,175.66686 c -2.01269,0.62494 -10.81917,10.99096 -13.29121,13.64907 -1.0555,1.13376 -4.64338,3.63629 -5.07464,5.1163 -0.38459,1.31956 6.1599,7.41721 8.15515,8.7452 1.05935,0.70517 1.95608,2.14222 3.27047,1.80442 2.03013,-0.5236 4.33015,-4.94903 5.65359,-6.37626 l 6.44306,-6.96725 c 1.25346,-1.35755 2.90783,-2.77423 3.15856,-4.64483 0.47906,-3.5744 -0.98959,-8.69029 -4.81407,-9.89372 -1.00748,-0.31669 -2.44949,-1.75807 -3.50091,-1.43293 z"
           style="fill:#edd13a;fill-opacity:1;stroke:none;stroke-width:0.21867999" />
        <path
           id="path8502"
           d="m 56.022562,182.74161 0.203443,0.21113 -0.203443,-0.21113 m 89.922018,0 0.20345,0.21113 -0.20345,-0.21113 m -90.125462,0.21113 0.203444,0.21113 -0.203444,-0.21113 m -0.203443,0.21113 0.203443,0.21113 -0.203443,-0.21113 m 13.223827,0 0.203443,0.21113 -0.203443,-0.21113 m 4.6792,0 0.203443,0.21113 -0.203443,-0.21113 M 32.01623,183.375 32.219673,183.58613 32.01623,183.375 m 88.09103,0 0.20344,0.21113 -0.20344,-0.21113 m -87.887587,0.21113 0.203444,0.21113 -0.203444,-0.21113 m 18.920245,0 0.203443,0.21113 -0.203443,-0.21113 m 68.763902,0 0.20344,0.21113 -0.20344,-0.21113 m 12.20661,0 0.20344,0.21113 -0.20344,-0.21113 m 27.87176,0 0.20344,0.21113 -0.20344,-0.21113 m -68.967348,0.21113 0.203443,0.21113 -0.203443,-0.21113 m 28.685528,0 0.20345,0.21113 -0.20345,-0.21113 m -82.191166,0.21113 0.203444,0.21113 -0.203444,-0.21113 m 81.987726,0 0.20344,0.21113 -0.20344,-0.21113 m 25.02355,0 0.20344,0.21113 -0.20344,-0.21113 m 15.86859,0.21113 0.20345,0.21112 -0.20345,-0.21112 m -127.152179,0.21112 0.203443,0.21113 -0.203443,-0.21113 m 58.388281,0 0.203444,0.21113 -0.203444,-0.21113 m 40.688698,0 0.20344,0.21113 -0.20344,-0.21113 m 7.12052,0 0.20345,0.21113 -0.20345,-0.21113 m -109.656039,0.21113 v 0.84452 c 0.144445,-0.37159 0.144445,-0.47293 0,-0.84452 m 3.661983,0 0.203444,0.21113 -0.203444,-0.21113 m 41.299029,0 0.203443,0.21113 -0.203443,-0.21113 m -41.095585,0.21113 0.203443,0.21113 -0.203443,-0.21113 m 98.873532,0.21113 0.20345,0.21113 -0.20345,-0.21113 m 10.37562,0.21113 0.20345,0.21113 -0.20345,-0.21113 m 44.14724,0 0.20344,0.21113 -0.20344,-0.21113 m -116.573121,0.21113 0.203444,0.21113 -0.203444,-0.21113 m -36.212941,0.21113 0.203444,0.21112 -0.203444,-0.21112 m 4.6792,0 0.203444,0.21112 -0.203444,-0.21112 m 53.912525,0 0.203444,0.21112 -0.203444,-0.21112 m -44.147237,0.21112 0.203444,0.21113 -0.203444,-0.21113 m 113.114584,0 0.20344,0.21113 -0.20344,-0.21113 m -113.318027,0.21113 0.203443,0.21113 -0.203443,-0.21113 m 4.068869,0 0.203444,0.21113 -0.203444,-0.21113 m 109.452598,0 0.20344,0.21113 -0.20344,-0.21113 m 26.44765,0 0.20345,0.21113 -0.20345,-0.21113 m -136.103691,0.21113 0.203443,0.21113 -0.203443,-0.21113 m 109.859481,0 0.20345,0.21113 -0.20345,-0.21113 m -110.062925,0.21113 0.203444,0.21113 -0.203444,-0.21113 m 110.266375,0 0.20344,0.21113 -0.20344,-0.21113 m -132.441715,0.21113 0.203443,0.21113 -0.203443,-0.21113 m 41.502472,0 0.203443,0.21113 -0.203443,-0.21113 m 91.142683,0 0.20344,0.21113 -0.20344,-0.21113 m 26.85454,0 0.20344,0.21113 -0.20344,-0.21113 m -154.210164,0.21113 0.203443,0.21113 -0.203443,-0.21113 m 4.6792,0 0.203443,0.21113 -0.203443,-0.21113 m 54.319412,0 0.203443,0.21113 -0.203443,-0.21113 m 68.560452,0 0.20345,0.21113 -0.20345,-0.21113 m 0.20345,0.21113 0.20344,0.21113 -0.20344,-0.21113 m -115.962792,0.21113 0.203444,0.21112 -0.203444,-0.21112 m 30.109637,0 0.203443,0.21112 -0.203443,-0.21112 m 86.056595,0 0.20344,0.21112 -0.20344,-0.21112 m 27.26143,0 0.20344,0.21112 -0.20344,-0.21112 m -143.631105,0.21112 0.203443,0.21113 -0.203443,-0.21113 m 30.516523,0 0.203444,0.21113 -0.203444,-0.21113 m 86.056592,0 0.20345,0.21113 -0.20345,-0.21113 m 0.20345,0.21113 0.20344,0.21113 -0.20344,-0.21113 m 0.20344,0.21113 0.20344,0.21113 -0.20344,-0.21113 m -127.355623,0.42226 0.203443,0.21113 -0.203443,-0.21113 m 155.634273,0 0.20344,0.21113 -0.20344,-0.21113 m -146.68276,0.21113 0.203444,0.21113 -0.203444,-0.21113 m 4.272313,0.21113 0.203444,0.21112 -0.203444,-0.21112 m 46.58856,0 0.203443,0.21112 -0.203443,-0.21112 m -46.792003,0.21112 0.203443,0.21113 -0.203443,-0.21113 m 46.995446,0 0.203444,0.21113 -0.203444,-0.21113 m -54.319412,0.21113 0.203444,0.21113 -0.203444,-0.21113 m 7.120522,0 0.203444,0.21113 -0.203444,-0.21113 m 83.004944,0 0.20344,0.21113 -0.20344,-0.21113 m -101.518301,0.21113 0.203443,0.21113 -0.203443,-0.21113 m 11.799722,0 0.203444,0.21113 -0.203444,-0.21113 m 1.830992,0 0.203443,0.21113 -0.203443,-0.21113 m 4.6792,0 0.203443,0.21113 -0.203443,-0.21113 m -6.306748,0.21113 c 0.253897,0.14357 0.31493,0.15835 0.61033,0.21113 -0.253897,-0.14357 -0.31493,-0.15835 -0.61033,-0.21113 m 6.103305,0 0.203443,0.21113 -0.203443,-0.21113 m 144.64832,0 0.20344,0.21113 -0.20344,-0.21113 m -144.851764,0.21113 0.203444,0.21113 -0.203444,-0.21113 m -0.203443,0.21113 0.203443,0.21113 -0.203443,-0.21113 m -10.579062,0.21113 0.203444,0.21113 -0.203444,-0.21113 m 10.375618,0 0.203444,0.21113 -0.203444,-0.21113 m 31.737184,0.21113 0.203444,0.21112 -0.203444,-0.21112 m 51.471207,0 0.20344,0.21112 -0.20344,-0.21112 m -51.267763,0.21112 0.203443,0.21113 -0.203443,-0.21113 m 32.754403,0 0.20344,0.21113 -0.20344,-0.21113 m -0.20344,0.21113 0.20344,0.21113 -0.20344,-0.21113 m -81.580844,0.21113 0.203443,0.21113 -0.203443,-0.21113 m 81.377394,0 0.20345,0.21113 -0.20345,-0.21113 m -13.630712,0.21113 0.203444,0.21113 -0.203444,-0.21113 m 0.203444,0.21113 0.203443,0.21113 -0.203443,-0.21113 m -59.812387,0.42226 0.203444,0.21112 -0.203444,-0.21112 m 31.940628,0 0.203444,0.21112 -0.203444,-0.21112 m 58.998617,0 0.20344,0.21112 -0.20344,-0.21112 m 37.63704,0 0.20344,0.21112 -0.20344,-0.21112 m -121.252319,0.21112 0.203444,0.21113 -0.203444,-0.21113 m 121.455759,0 0.20345,0.21113 -0.20345,-0.21113 m -56.55729,0.21113 0.20345,0.21113 -0.20345,-0.21113 m 56.76074,0 0.20344,0.21113 -0.20344,-0.21113 m 29.09242,0 0.20344,0.21113 -0.20344,-0.21113 m -115.555905,0.21113 0.203443,0.21113 -0.203443,-0.21113 m 86.666925,0 0.20345,0.21113 -0.20345,-0.21113 m -98.059761,0.42226 0.203444,0.21113 -0.203444,-0.21113 m -24.616662,0.21113 0.203444,0.21113 -0.203444,-0.21113 m 83.411833,0 0.20344,0.21113 -0.20344,-0.21113 m -88.904807,0.21113 0.203443,0.21113 -0.203443,-0.21113 m 42.316246,0 0.203443,0.21113 -0.203443,-0.21113 m 46.385111,0 0.20345,0.21113 -0.20345,-0.21113 m 27.87176,0.42225 0.20345,0.21113 -0.20345,-0.21113 m 42.51969,0 0.20345,0.21113 -0.20345,-0.21113 m -42.1128,0.21113 0.20344,0.21113 -0.20344,-0.21113 m -55.13319,0.42226 0.20345,0.21113 -0.20345,-0.21113 m -61.236487,0.21113 0.203444,0.21113 -0.203444,-0.21113 m 61.439937,0 0.20344,0.21113 -0.20344,-0.21113 m 25.63388,0 0.20344,0.21113 -0.20344,-0.21113 m -59.202058,0.21113 0.203443,0.21113 -0.203443,-0.21113 m 41.163328,0.14145 c -0.0112,0.0106 -0.0226,0.23436 0.0679,0.13935 0.0112,-0.0106 0.0226,-0.23435 -0.0679,-0.13935 m -41.366772,0.0697 0.203444,0.21113 -0.203444,-0.21113 m 91.549572,0.42225 0.20344,0.21113 -0.20344,-0.21113 m -114.945573,0.63339 0.203443,0.21113 -0.203443,-0.21113 m 81.580843,0 0.20344,0.21113 -0.20344,-0.21113 m -0.20345,0.21113 0.20345,0.21113 -0.20345,-0.21113 m 46.18167,0.42226 0.20345,0.21112 -0.20345,-0.21112 m -140.17256,0.21112 0.203444,0.21113 -0.203444,-0.21113 m 9.154957,0 0.203444,0.21113 -0.203444,-0.21113 m 120.845433,0 0.20344,0.21113 -0.20344,-0.21113 m 10.37562,0 0.20344,0.21113 -0.20344,-0.21113 m 0.20344,0.21113 0.20345,0.21113 -0.20345,-0.21113 m 30.92341,0 0.20345,0.21113 -0.20345,-0.21113 m -137.527797,0.21113 0.203444,0.21113 -0.203444,-0.21113 m 106.807837,0 0.20344,0.21113 -0.20344,-0.21113 m -107.01128,0.21113 0.203443,0.21113 -0.203443,-0.21113 m 107.21472,0 0.20344,0.21113 -0.20344,-0.21113 m 31.12685,0 0.20345,0.21113 -0.20345,-0.21113 M 45.4435,197.9429 45.646944,198.15403 45.4435,197.9429 m 60.21927,0 0.20345,0.21113 -0.20345,-0.21113 m 5.69642,0 0.20344,0.21113 -0.20344,-0.21113 m 14.0376,0 0.20345,0.21113 -0.20345,-0.21113 m 38.65426,0 0.20345,0.21113 -0.20345,-0.21113 m -58.18483,0.21113 0.20344,0.21113 -0.20344,-0.21113 m 0.20344,0.21113 0.20344,0.21113 -0.20344,-0.21113 m 58.59173,0 0.20344,0.21113 -0.20344,-0.21113 m -122.472986,0.42225 0.203444,0.21113 -0.203444,-0.21113 m 164.178896,0.21113 0.20344,0.21113 -0.20344,-0.21113 m -50.0471,0.21113 0.20345,0.21113 -0.20345,-0.21113 m -113.928352,0.42226 0.203443,0.21113 -0.203443,-0.21113 m 81.580842,0 0.20344,0.21113 -0.20344,-0.21113 m -78.122303,0.42226 0.203444,0.21112 -0.203444,-0.21112 m 161.941023,0 0.20344,0.21112 -0.20344,-0.21112 m -39.67149,0.21112 0.20345,0.21113 -0.20345,-0.21113 m -134.069255,0.21113 0.203443,0.21113 -0.203443,-0.21113 m 55.336629,0 0.203443,0.21113 -0.203443,-0.21113 m -46.792003,0.21113 0.203444,0.21113 -0.203444,-0.21113 m 46.995446,0 0.203444,0.21113 -0.203444,-0.21113 m 24.413223,0 0.20344,0.21113 -0.20344,-0.21113 m -24.209779,0.21113 0.203443,0.21113 -0.203443,-0.21113 m 24.413219,0 0.20344,0.21113 -0.20344,-0.21113 m 43.53691,0 0.20344,0.21113 -0.20344,-0.21113 m 11.39283,0 0.20345,0.21113 -0.20345,-0.21113 m -123.083309,0.21113 0.203443,0.21113 -0.203443,-0.21113 m 17.292696,0 0.203444,0.21113 -0.203444,-0.21113 m 26.651097,0 0.203444,0.21113 -0.203444,-0.21113 m 67.950126,0 0.20344,0.21113 -0.20344,-0.21113 m 11.59628,0 0.20344,0.21113 -0.20344,-0.21113 m 39.67148,0 0.20344,0.21113 -0.20344,-0.21113 m -119.014442,0.21113 0.203443,0.21113 -0.203443,-0.21113 m -55.336629,0.21113 0.203443,0.21113 -0.203443,-0.21113 m 55.540072,0 0.203444,0.21113 -0.203444,-0.21113 m 0.203444,0.21113 0.203443,0.21112 -0.203443,-0.21112 m 18.920245,0 0.20344,0.21112 -0.20344,-0.21112 m -18.716802,0.21112 0.203444,0.21113 -0.203444,-0.21113 m 18.920242,0 0.20345,0.21113 -0.20345,-0.21113 m -18.716798,0.21113 0.203443,0.21113 -0.203443,-0.21113 m 24.616658,0 0.20345,0.21113 -0.20345,-0.21113 m 5.89987,0 0.20344,0.21113 -0.20344,-0.21113 m 56.1504,0 0.20344,0.21113 -0.20344,-0.21113 m -86.463485,0.21113 0.203444,0.21113 -0.203444,-0.21113 m 24.616665,0 0.20344,0.21113 -0.20344,-0.21113 m 5.49297,0 0.20345,0.21113 -0.20345,-0.21113 m -29.906191,0.21113 0.203443,0.21113 -0.203443,-0.21113 m 67.746681,0 0.20344,0.21113 -0.20344,-0.21113 m 52.08153,0 0.20345,0.21113 -0.20345,-0.21113 m -119.624768,0.21113 0.203444,0.21113 -0.203444,-0.21113 m 0.203444,0.21113 0.203443,0.21113 -0.203443,-0.21113 m 28.685534,0 0.20344,0.21113 -0.20344,-0.21113 m -84.42905,0.21113 0.203443,0.21112 -0.203443,-0.21112 m 6.917078,0 0.203444,0.21112 -0.203444,-0.21112 m 49.029881,0 0.203444,0.21112 -0.203444,-0.21112 m 25.023551,0 0.20344,0.21112 -0.20344,-0.21112 m -24.820107,0.21112 0.203443,0.21113 -0.203443,-0.21113 m 25.226997,0 0.20344,0.21113 -0.20344,-0.21113 m -25.023554,0.21113 0.203444,0.21113 -0.203444,-0.21113 m 25.633884,0 0.20344,0.21113 -0.20344,-0.21113 m 1.01721,0 0.20345,0.21113 -0.20345,-0.21113 m 55.13319,0 0.20344,0.21113 -0.20344,-0.21113 m 0.40689,0.21113 0.20344,0.21113 -0.20344,-0.21113 m -128.169402,0.21113 0.203443,0.21113 -0.203443,-0.21113 m 46.385115,0 0.203444,0.21113 -0.203444,-0.21113 m 82.191167,0 0.20345,0.21113 -0.20345,-0.21113 m -62.86404,0.21113 0.20345,0.21113 -0.20345,-0.21113 m 48.41956,0 0.20344,0.21113 -0.20344,-0.21113 m 14.85137,0 0.20344,0.21113 -0.20344,-0.21113 m -138.341573,0.21113 0.203444,0.21113 -0.203444,-0.21113 m 75.274093,0 0.20344,0.21113 -0.20344,-0.21113 m 64.28814,0.21113 0.20344,0.21113 -0.20344,-0.21113 m 1.22066,0 0.20345,0.21113 -0.20345,-0.21113 m -118.200666,0.21113 0.203444,0.21112 -0.203444,-0.21112 m 155.227386,0.21112 0.20344,0.21113 -0.20344,-0.21113 m 0.61033,0.42226 0.20344,0.21113 -0.20344,-0.21113 m -177.199282,0.42226 0.203444,0.21113 -0.203444,-0.21113 m 20.140906,0 0.203443,0.21113 -0.203443,-0.21113 m 103.552736,0 0.20344,0.21113 -0.20344,-0.21113 m 0.20344,0.21113 0.20345,0.21113 -0.20345,-0.21113 m -115.555899,0.21113 0.203444,0.21113 -0.203444,-0.21113 m 11.392836,0.21113 0.203443,0.21112 -0.203443,-0.21112 m -19.123689,0.21112 0.203444,0.21113 -0.203444,-0.21113 m 76.087862,0.21113 0.20345,0.21113 -0.20345,-0.21113 m 0.20345,0.21113 0.20344,0.21113 -0.20344,-0.21113 m -75.477538,0.63339 0.203444,0.21113 -0.203444,-0.21113 m 3.45854,0 0.203443,0.21113 -0.203443,-0.21113 m 3.661983,0 0.203443,0.21113 -0.203443,-0.21113 m 10.172174,0 0.203444,0.21113 -0.203444,-0.21113 m 160.923801,0 0.20344,0.21113 -0.20344,-0.21113 m -161.127244,0.21113 0.203443,0.21112 -0.203443,-0.21112 m 107.011274,0 0.20344,0.21112 -0.20344,-0.21112 m 0.20344,0.21112 0.20345,0.21113 -0.20345,-0.21113 m 54.11597,0 0.20345,0.21113 -0.20345,-0.21113 m -171.095972,0.84452 0.203444,0.21113 -0.203444,-0.21113 m 70.391452,0.21113 0.20344,0.21113 -0.20344,-0.21113 m 0.20344,0.21113 0.20344,0.21113 -0.20344,-0.21113 m 100.50108,0.42225 0.20345,0.21113 -0.20345,-0.21113 m -0.20344,0.42226 0.20344,0.21113 z"
           style="fill:#edd13a;fill-opacity:1;stroke:none;stroke-width:0.20725046" />
        <path
           id="path8508"
           d="m 91.956165,209.31186 c -0.95293,0.29347 -1.70567,1.05142 -2.441322,1.70592 -1.487172,1.32167 -75.781536,75.03414 -76.291773,75.92722 0.467235,1.60764 3.514356,2.28954 4.550087,3.1045 2.141446,1.68692 6.571913,6.89742 8.102214,9.19873 0.899221,1.35333 -0.352565,4.37372 1.68899,4.18792 2.628083,-0.24068 74.605159,-79.79623 76.003219,-82.39945 1.98541,-3.69686 -5.420019,-7.78518 -7.745989,-9.90069 -1.065637,-0.97119 -2.31539,-2.3013 -3.865426,-1.82415 z"
           style="fill:#edd13a;fill-opacity:1;stroke:none;stroke-width:0.20725046" />
        <path
           id="path8516"
           d="m 12.042807,290.05404 c -2.5203046,0.85287 -1.984414,5.09789 -1.158482,6.8113 1.508688,3.12977 4.225108,5.75497 7.062799,7.7066 1.419496,0.9758 5.161524,2.28718 6.89945,1.65713 2.72659,-0.98606 0.244492,-5.61015 -0.54884,-7.39018 -1.464091,-3.28599 -4.026645,-5.67045 -7.040369,-7.59645 -1.537376,-0.98093 -3.344149,-1.82101 -5.214558,-1.1884 z"
           style="fill:#edd13a;fill-opacity:1;stroke:none;stroke-width:0.25844488" />
        <path
           id="path8518"
           d="m 180.93686,296.11772 0.20345,0.21112 -0.20345,-0.21112 m 7.32397,0 0.20344,0.21112 -0.20344,-0.21112 m -7.12052,0.21112 0.20344,0.21113 -0.20344,-0.21113 m -164.789229,0.21113 0.203444,0.21113 -0.203444,-0.21113 m 175.164849,0 0.20344,0.21113 -0.20344,-0.21113 m -170.689092,0.42226 0.203443,0.21113 -0.203443,-0.21113 m 166.823662,0.21113 0.20344,0.21113 -0.20344,-0.21113 m -166.213332,0.21113 0.203444,0.21113 -0.203444,-0.21113 m 0.610331,0.42225 0.203443,0.21113 -0.203443,-0.21113 m 16.682366,0.42226 0.203443,0.21113 -0.203443,-0.21113 m 151.768845,0 0.20344,0.21113 -0.20344,-0.21113 m -167.637437,0.21113 0.203443,0.21113 -0.203443,-0.21113 m 160.923797,0.42226 0.20345,0.21113 -0.20345,-0.21113 m 2.84821,0 0.20345,0.21113 -0.20345,-0.21113 m 3.45854,0.21113 0.20345,0.21113 -0.20345,-0.21113 m -173.740739,0.42225 0.203444,0.21113 -0.203444,-0.21113 m 7.730853,0 0.203443,0.21113 -0.203443,-0.21113 m 13.630714,0 0.203443,0.21113 -0.203443,-0.21113 m 160.720352,0 0.20345,0.21113 -0.20345,-0.21113 m -174.147623,0.21113 0.203444,0.21113 -0.203444,-0.21113 m 4.272313,0 0.203444,0.21113 -0.203444,-0.21113 m 157.26182,0 0.20344,0.21113 -0.20344,-0.21113 m 12.41005,0 0.20344,0.21113 -0.20344,-0.21113 m -169.468426,0.21113 0.203443,0.21113 -0.203443,-0.21113 m 160.923796,0.21113 0.20345,0.21113 -0.20345,-0.21113 m 7.52741,0.63339 0.20345,0.21113 -0.20345,-0.21113 m -0.20344,0.21113 0.20344,0.21112 -0.20344,-0.21112 m -179.640601,1.05564 0.203443,0.21113 -0.203443,-0.21113 m 8.544626,0 0.203444,0.21113 -0.203444,-0.21113 m -8.341183,0.21113 0.203444,0.21113 -0.203444,-0.21113 m 12.410053,0 0.203443,0.21113 -0.203443,-0.21113 m 165.603005,0 0.20344,0.21113 -0.20344,-0.21113 m -177.809614,0.21113 0.203443,0.21112 -0.203443,-0.21112 m 171.706304,0 0.20344,0.21112 -0.20344,-0.21112 m 5.28953,0.42225 0.20345,0.21113 -0.20345,-0.21113 m -0.61033,0.42226 0.20344,0.21113 -0.20344,-0.21113 m -167.433991,0.42226 0.203444,0.21113 -0.203444,-0.21113 m 4.882644,0.42226 0.203443,0.21112 -0.203443,-0.21112 m 1.017217,0 0.203444,0.21112 -0.203444,-0.21112 m 158.27904,0 0.20344,0.21112 -0.20344,-0.21112 m 1.4241,0 0.20344,0.21112 -0.20344,-0.21112 m -172.926967,0.63338 0.203444,0.21113 -0.203444,-0.21113 m 8.13774,1.26677 0.203444,0.21113 -0.203444,-0.21113 m -6.103305,0.63339 0.203444,0.21113 -0.203444,-0.21113 m 0.813774,0.63339 0.203444,0.21112 -0.203444,-0.21112 m 5.289531,0.21112 0.203444,0.21113 -0.203444,-0.21113 m -0.813774,0.84452 0.203444,0.21113 -0.203444,-0.21113 m -1.627548,0.21113 0.203444,0.21113 -0.203444,-0.21113 m 0.813774,0 0.203444,0.21113 z"
           style="fill:#edd13a;fill-opacity:1;stroke:none;stroke-width:0.20725046" />
      </g>
      <path
         style="fill:#000000;stroke-width:0.47830126"
         d="m 21.135103,307.08809 c -1.800041,-0.48293 -3.907243,-1.73796 -4.544963,-2.15661 -0.394601,-0.25904 -2.363764,-1.82636 -3.391347,-2.79324 -1.027628,-0.96687 -2.599614,-3.61499 -2.599614,-3.61499 -0.25459,-0.25459 -2.0330241,-5.4667 -1.5523751,-8.0666 0.07131,-1.20162 1.9788711,-3.46011 3.9533471,-5.29409 3.436213,-3.19169 77.216295,-77.07958 77.240255,-77.82485 0.02439,-0.75601 -16.352549,-18.16246 -16.59792,-18.16246 -0.638434,0 -28.625799,29.28801 -29.47526,29.74262 -0.499258,0.26718 -12.512076,-15.66893 -12.512076,-15.66893 -3.157431,-4.0846 -4.836727,-5.53326 -5.282556,-8.69023 -0.17668,-1.25097 -4.999492,-22.85819 -4.999492,-23.75554 0,-1.63389 0.02441,-1.66396 3.985734,-4.88807 0.482225,-0.39249 39.431259,-31.4127 39.894058,-31.55922 3.51685,-1.11336 4.13664,-0.45669 5.070136,0.61691 0.560324,0.64443 1.619964,1.50347 3.684978,2.55697 1.678648,0.85639 3.28315,1.26938 5.478795,1.3405 1.340487,0.0434 2.993594,-0.23656 3.761506,-0.63705 0.753517,-0.39297 3.241022,-1.41984 4.320344,-2.28192 1.85696,-1.48315 2.589404,-1.55354 3.756104,-0.66189 2.630662,2.01043 5.98919,4.92867 6.22935,5.57741 0.0473,1.44686 0.0354,7.1506 -0.0258,12.67499 l -0.11187,10.04432 -5.010731,5.02217 c -2.755871,2.76218 -5.144556,5.42443 -5.308187,5.91608 -0.222554,0.66874 0.522837,1.72057 2.959012,4.17558 1.791093,1.80491 5.553549,5.53294 7.429596,7.20182 1.87599,1.66888 3.997883,3.62622 4.715183,4.34965 2.38028,2.40048 3.44928,1.95486 9.23639,-3.85027 3.59242,-2.84107 19.01637,-21.15091 21.77773,-24.10883 2.19358,-2.71018 4.86058,-5.1132 5.50587,-5.05979 1.00328,0.0831 2.13834,-1.11436 6.16688,-2.54733 1.14949,-0.40887 4.02476,1.14545 5.04995,1.67559 0.81177,0.41979 1.86157,1.6671 2.58072,2.603 0.72391,0.9421 3.07478,4.30753 2.27921,5.23713 0,0 -0.39211,1.2359 -0.92304,2.10669 -1.15791,1.89921 -1.19766,2.65159 -0.24144,4.56837 0.9202,1.84458 5.49387,3.95023 6.15153,3.95023 0.65767,0 1.82912,0.4783 3.06696,0.4783 0.79948,0 3.02296,-0.4612 4.16399,-0.69523 3.02091,-0.6196 5.52692,-2.06273 7.51202,-3.43843 1.15356,-0.79942 4.89938,-0.64947 5.03755,-0.12107 0.15852,0.60622 33.58791,26.40032 35.83864,27.96166 2.2507,1.56133 4.90953,3.4845 5.90851,4.2737 0.99897,0.78919 2.9218,2.18822 4.27295,3.10895 2.87436,1.9587 4.80535,3.81966 4.80535,4.63102 0,0.31639 -2.4214,2.18325 -5.38089,4.14862 -2.95949,1.96535 -30.78476,21.61037 -31.72749,22.05773 -1.30754,0.62048 -2.01661,0.69986 -2.98939,0.3347 -3.46782,-1.30169 -5.24854,-1.99569 -5.58392,-1.99569 -0.33543,0 -30.85249,-35.50059 -31.44439,-36.0569 -1.98639,-1.86692 -2.75023,-3.52766 -2.75023,-5.9796 0,-1.9443 0.34123,-3.05629 -0.95134,-4.75361 -2.91395,-3.82649 -11.11097,-0.41231 -11.11097,-0.41231 -2.28499,0.55394 -8.41854,5.38497 -8.89321,6.30767 -0.73746,0.78919 -2.60938,2.93242 -4.15984,4.76274 -1.55047,1.83032 -3.52896,3.95116 -4.39664,4.71299 -0.86769,0.76183 -1.57758,1.64088 -1.57758,1.95345 0,0.71529 5.96805,6.45638 6.82043,7.10906 0.85243,0.65268 3.58725,3.24335 6.07744,5.75704 3.82991,3.86607 69.20297,67.43006 69.54629,67.88204 0.92227,1.21409 0.1929,5.54014 -1.44661,8.58023 -2.90396,5.38469 -7.68449,9.00335 -12.41202,9.39539 -3.02268,0.25066 -5.92807,-0.21829 -5.92807,-0.95684 0,-0.29188 -0.80713,-1.32826 -1.79363,-2.30308 -0.9865,-0.97482 -72.4128,-76.47224 -73.62467,-77.7624 -1.61145,-1.71558 -2.26978,-2.15302 -2.45053,-1.6283 -0.13593,0.3946 -1.1275,1.61577 -2.20349,2.71372 -1.07599,1.09793 -74.418797,81.18313 -74.418797,81.42045 0,0.44327 -2.597702,1.50713 -3.539094,1.44941 -0.289565,-0.0177 -1.602168,-0.32087 -2.916874,-0.67359 z m 4.064076,-3.71841 c -4.8e-4,-2.021 -2.35597,-6.8535 -4.344028,-8.91219 -2.483005,-2.57118 -5.645627,-4.36068 -7.706773,-4.36068 -1.734942,0 -1.580213,0.37124 -2.352955,1.52459 -1.4524621,6.12643 6.784115,15.15724 13.148597,14.1307 1.706626,0.009 1.255544,-0.90332 1.255159,-2.38242 z m 5.623535,-3.34812 c 1.567052,-1.64415 68.182133,-75.55778 71.107606,-78.5606 1.11808,-1.14767 0.62438,-1.58482 0.62438,-1.58482 l -9.906673,-10.82547 c 0,0 -78.449395,77.65571 -78.449395,78.10203 0,0.19824 0.740174,0.62809 1.644785,0.95521 2.549246,0.92181 8.266049,6.88224 9.886773,10.30808 0.759973,1.6065 1.382002,3.29757 1.382192,3.75794 4.8e-4,1.39608 0.733427,0.97099 3.710332,-2.15237 z m 160.223986,1.54065 c 4.42329,-2.21034 8.25453,-7.63185 8.25453,-11.6808 0,-2.10537 -0.0473,-2.1761 -1.45394,-2.1761 -4.1145,0 -10.84937,6.36841 -11.99815,11.34525 -1.00573,4.35709 0.27039,4.97377 5.19756,2.51165 z m -6.00048,-7.25107 c 0.85578,-1.39715 1.99189,-2.92756 2.52462,-3.40092 1.79133,-1.59172 7.44093,-5.12611 8.51443,-5.32664 0.58496,-0.10928 1.12416,-0.21468 1.19819,-0.23423 0.19888,-0.0525 -63.77956,-61.74157 -67.84187,-65.54773 -4.06231,-3.80614 -8.81853,-8.34884 -10.5694,-10.09489 -1.75082,-1.74605 -9.06884,-8.65872 -16.26225,-15.36149 -7.193368,-6.70277 -15.661687,-14.71682 -18.818474,-17.80902 -7.655977,-7.49931 -8.79385,-7.90425 -12.42746,-4.42265 -1.963383,1.88127 -2.160729,2.27616 -2.160729,4.32376 0,2.37952 1.08077,4.97577 2.913332,6.9983 1.899773,2.09675 6.228967,6.74912 12.912074,13.87604 3.574211,3.81154 7.771296,8.30956 9.326877,9.9956 1.555582,1.68604 5.161547,5.45266 8.01322,8.37027 4.60685,4.71337 66.58231,70.02107 70.13862,73.70665 3.55632,3.68555 7.3218,7.64581 8.3678,8.80054 l 1.90176,2.09953 0.35662,-1.71643 c 0.19616,-0.94403 1.05681,-2.85954 1.91264,-4.25669 z m 30.2781,-74.83599 c 7.59126,-5.23091 11.19,-7.91586 11.2197,-8.37083 0.0277,-0.42187 -2.74894,-1.36365 -3.99697,-1.35578 -1.54501,0.01 -33.29015,23.96808 -33.29015,25.12434 0,0.54378 0.62509,0.8129 2.57981,1.11075 0.23513,0.0358 15.58473,-11.06283 23.48761,-16.50848 z m -27.4226,13.75172 c 0.14096,-0.38054 4.14817,-3.59124 16.66082,-13.34919 1.97298,-1.53864 6.22389,-4.79727 9.44645,-7.2414 3.22255,-2.44413 5.84694,-4.57945 5.83192,-4.74515 -0.0454,-0.50325 -0.46706,-0.81018 -32.85499,-23.91982 -5.58957,-3.98834 -10.65431,-7.47542 -11.25495,-7.74907 -0.89362,-0.40717 -1.76159,-0.18398 -4.77761,1.22843 -3.2677,1.53027 -7.98223,2.69564 -12.98831,3.21052 -0.76893,0.0791 -1.47165,0.36861 -1.56157,0.64341 -0.0899,0.27478 4.68243,5.32958 10.60528,11.2329 5.9229,5.9033 10.76891,10.89262 10.76891,11.08735 0,0.6409 -2.04991,-0.40854 -10.52263,-5.38706 -11.08822,-6.51538 -13.05265,-7.60869 -13.68956,-7.61897 -0.29492,-0.005 -0.6801,1.07567 -0.85587,2.40096 l -0.31969,2.40962 5.64496,6.31937 c 3.10469,3.47566 7.51459,8.49925 9.79976,11.16353 2.28518,2.66428 4.43893,5.13949 4.78607,5.50047 0.34716,0.36097 2.5373,2.80866 4.86696,5.43932 7.68884,8.68229 9.92489,10.69519 10.41405,9.37478 z M 46.967104,214.03911 c 0.165203,-0.26736 4.768377,-4.93567 17.811883,-18.95485 3.748692,-4.02908 6.815804,-7.57846 6.815804,-7.88748 0,-0.30904 -0.591905,-1.33384 -1.315336,-2.27733 -4.595038,-5.9928 -3.876294,-12.31063 1.793626,-15.76575 3.34113,-2.036 7.290798,-0.95856 10.964725,2.99104 1.452646,1.56166 2.273459,1.57164 3.476486,0.0423 0.520969,-0.66235 2.488696,-2.84305 4.372626,-4.846 5.178662,-5.50581 4.807606,-4.27791 4.319399,-14.29398 -0.235034,-4.82118 -0.574396,-8.91286 -0.754136,-9.09263 -0.523361,-0.52335 -5.011782,3.35024 -16.651391,14.37039 -2.7785,2.63066 -10.315764,9.56389 -16.749432,15.40719 -6.433688,5.84328 -13.297355,12.1049 -15.252603,13.91469 l -3.555023,3.29054 1.297874,10.71781 c 0.713819,5.8948 1.402954,11.2021 1.531374,11.79399 0.239912,1.10587 1.359713,1.45473 1.894124,0.59007 z m -4.450975,-4.82401 c -0.182094,-3.32319 -2.002938,-15.66114 -2.497404,-16.92193 -0.516568,-1.31726 -12.829001,-16.03254 -13.691471,-16.36351 -0.379871,-0.14577 -0.807422,-0.14828 -0.950099,-0.006 -0.261963,0.26199 0.797661,5.49452 3.18362,15.72044 1.168013,5.00595 1.538451,5.88917 3.611267,8.60942 6.13432,8.05028 9.404313,11.92051 9.919776,11.74054 0.366094,-0.12782 0.515806,-1.10871 0.424311,-2.77937 z m 179.002191,-2.73185 c -2.24597,-1.92344 -29.05681,-21.85652 -30.10907,-22.81747 -1.05226,-0.96096 -9.33147,-6.92714 -9.76017,-7.35116 -1.28213,-1.26818 -5.46736,-3.83685 -5.85803,-3.59539 -0.19975,0.12343 -0.25758,0.49947 -0.12858,0.83565 0.30373,0.79149 9.83316,7.90174 27.46516,20.49275 7.76045,5.54174 14.86322,10.68716 15.78395,11.43428 0.92073,0.74713 1.98614,1.36563 2.36758,1.37445 0.4091,0.01 0.50719,-0.14356 0.23916,-0.37311 z m -99.36264,-7.86155 c 2.63333,-2.95949 6.10953,-6.76994 7.7248,-8.46767 2.39046,-2.5125 2.93687,-3.38296 2.93687,-4.67879 0,-4.20115 -4.32097,-9.17332 -7.83195,-9.17332 -0.82798,0 -2.82351,2.67456 -8.91697,8.80247 -4.57485,4.60074 -8.52519,8.73532 -8.7785,9.18794 -0.378,0.67544 0.38121,1.61946 4.2354,5.2666 2.58279,2.44402 4.95391,4.44366 5.26921,4.44366 0.31525,0 2.7278,-2.4214 5.36114,-5.38089 z M 44.435213,186.46121 c 1.389893,-1.22967 4.666784,-4.18915 7.282043,-6.57665 2.61525,-2.38749 7.45805,-6.80462 10.761778,-9.81582 3.303727,-3.01121 7.730304,-7.10069 9.836836,-9.08773 5.118589,-4.82825 14.128638,-13.10043 17.771622,-16.31621 3.828943,-3.37991 4.08526,-4.09984 2.061144,-5.78965 l -1.575385,-1.31518 -1.71686,1.34507 c -2.854171,2.23612 -3.793126,2.53656 -7.873072,2.51913 -4.580843,-0.0195 -7.517706,-0.82919 -10.631976,-2.93095 -1.800228,-1.21498 -2.474492,-1.43683 -3.263067,-1.07364 -0.934839,0.43057 -40.919057,31.62219 -41.432845,31.85968 -0.513794,0.2375 -0.934171,0.66949 -0.934171,0.95997 0,0.29048 3.358344,4.56231 7.462986,9.49293 5.827711,7.00038 7.710737,8.96479 8.593493,8.96479 0.666747,0 2.166989,-0.91707 3.657474,-2.23574 z m 113.324307,-0.51449 c -0.52317,-0.72344 -2.04446,-2.38342 -3.38069,-3.68886 -3.39943,-3.32117 -3.26388,-3.9434 0.94948,-4.35857 3.67986,-0.3626 3.72673,-0.58743 0.3791,-1.81829 -2.67265,-0.98267 -4.71461,-3.59524 -4.71461,-6.03208 0,-3.06103 -3.09509,-7.71772 -6.19516,-9.32083 -0.67713,-0.35014 -2.2516,-0.78966 -3.49881,-0.9767 l -2.26768,-0.34005 -5.85714,5.67465 c -3.2214,3.12107 -5.91792,5.89795 -5.9922,6.17085 -0.0743,0.2729 0.57909,0.75443 1.45193,1.07006 4.42013,1.59834 7.61801,5.74209 8.5605,11.09256 0.27956,1.58729 0.67708,2.88598 0.88328,2.88598 0.20623,0 1.31322,-0.42575 2.46,-0.9461 2.81589,-1.27774 5.23064,-1.20699 8.07965,0.23671 1.83831,0.93154 2.37563,1.04716 2.37563,0.51125 0,-0.38091 -1.28061,-1.29929 -2.8458,-2.04084 -2.93734,-1.39164 -3.73884,-2.54403 -1.76942,-2.54403 1.89775,0 4.10822,0.98956 7.63023,3.41582 3.8863,2.67725 5.21727,3.03501 3.75171,1.00847 z m -24.43584,-7.00959 c -1.40085,-2.26659 -3.51423,-3.97142 -5.66295,-4.56818 -2.16421,-0.60106 -2.4962,-0.61393 -2.4962,-0.0968 0,0.22143 0.90203,0.67286 2.00446,1.00316 1.34375,0.4026 2.80217,1.4379 4.42429,3.14074 1.33092,1.3971 2.87865,5.84575 2.97446,5.75221 0.97368,-0.006 -0.53296,-4.29368 -1.24406,-5.23117 z m 17.11452,-18.7857 c -0.61572,-0.65835 -1.49029,-1.46117 -1.99748,-1.67013 -2.86032,-1.17847 -3.92149,-1.50982 -3.96842,-1.33251 -0.079,0.29829 2.71245,2.03617 4.63713,3.60236 1.60054,1.6342 2.16255,1.9741 2.28538,1.3822 0.0896,-0.4317 -0.34088,-1.32356 -0.95661,-1.98192 z M 47.546663,218.00982 c -0.480071,0.18184 1.103958,-0.41811 0,0 z M 154.34091,170.97159 c 0,-0.27858 0,0.27859 0,0 z"
         id="path7808" />
    </g>
    <path
       id="path7887"
       d="m 127.27922,39.239624 c 71.53666,-2.710615 143.07229,-5.421191 184.61422,23.982299 41.54194,29.40349 53.09135,90.921757 64.6409,152.440837"
       style="fill:none;stroke:#000000;stroke-width:1px;stroke-linecap:butt;stroke-linejoin:miter;stroke-opacity:0" />
  </g>
</svg>
