<?xml version="1.0" encoding="UTF-8" standalone="no"?>
<!-- Created with Inkscape (http://www.inkscape.org/) -->

<svg
   id="svg1923"
   sodipodi:version="0.32"
   inkscape:version="1.2.1 (9c6d41e410, 2022-07-14)"
   width="360"
   height="352.39386"
   version="1.0"
   sodipodi:docname="POL_PZPR_logo_edited_2upload.svg"
   xml:space="preserve"
   xmlns:inkscape="http://www.inkscape.org/namespaces/inkscape"
   xmlns:sodipodi="http://sodipodi.sourceforge.net/DTD/sodipodi-0.dtd"
   xmlns="http://www.w3.org/2000/svg"
   xmlns:svg="http://www.w3.org/2000/svg"
   xmlns:rdf="http://www.w3.org/1999/02/22-rdf-syntax-ns#"
   xmlns:cc="http://creativecommons.org/ns#"
   xmlns:dc="http://purl.org/dc/elements/1.1/"><metadata
     id="metadata1928"><rdf:RDF><cc:Work
         rdf:about=""><dc:format>image/svg+xml</dc:format><dc:type
           rdf:resource="http://purl.org/dc/dcmitype/StillImage" /></cc:Work></rdf:RDF></metadata><defs
     id="defs1926"><inkscape:path-effect
       effect="offset"
       id="path-effect2787"
       is_visible="true"
       lpeversion="1.2"
       linejoin_type="miter"
       unit="px"
       offset="4"
       miter_limit="4"
       attempt_force_join="false"
       update_on_knot_move="true" /><inkscape:path-effect
       effect="offset"
       id="path-effect2777"
       is_visible="true"
       lpeversion="1.2"
       linejoin_type="miter"
       unit="px"
       offset="4"
       miter_limit="4"
       attempt_force_join="false"
       update_on_knot_move="true" /><inkscape:path-effect
       effect="offset"
       id="path-effect2354"
       is_visible="true"
       lpeversion="1.2"
       linejoin_type="miter"
       unit="px"
       offset="20"
       miter_limit="4"
       attempt_force_join="false"
       update_on_knot_move="true" /><inkscape:path-effect
       effect="offset"
       id="path-effect2074"
       is_visible="true"
       lpeversion="1.2"
       linejoin_type="round"
       unit="px"
       offset="4"
       miter_limit="4"
       attempt_force_join="false"
       update_on_knot_move="true" /><inkscape:path-effect
       effect="offset"
       id="path-effect2070"
       is_visible="true"
       lpeversion="1.2"
       linejoin_type="miter"
       unit="px"
       offset="4"
       miter_limit="4"
       attempt_force_join="false"
       update_on_knot_move="true" /><inkscape:path-effect
       effect="offset"
       id="path-effect770"
       is_visible="true"
       lpeversion="1.2"
       linejoin_type="miter"
       unit="px"
       offset="4"
       miter_limit="4"
       attempt_force_join="false"
       update_on_knot_move="true" /><inkscape:path-effect
       effect="offset"
       id="path-effect768"
       is_visible="true"
       lpeversion="1.2"
       linejoin_type="round"
       unit="px"
       offset="4"
       miter_limit="4"
       attempt_force_join="false"
       update_on_knot_move="true" /></defs><sodipodi:namedview
     inkscape:window-height="1387"
     inkscape:window-width="2560"
     inkscape:pageshadow="2"
     inkscape:pageopacity="0"
     guidetolerance="10.0"
     gridtolerance="10.0"
     objecttolerance="10.0"
     borderopacity="1.0"
     bordercolor="#666666"
     pagecolor="#bfbfbf"
     id="base"
     inkscape:zoom="0.70710678"
     inkscape:cx="-9.8994949"
     inkscape:cy="91.923881"
     inkscape:window-x="-8"
     inkscape:window-y="-8"
     inkscape:current-layer="svg1923"
     inkscape:showpageshadow="0"
     inkscape:pagecheckerboard="0"
     inkscape:deskcolor="#656565"
     showgrid="false"
     inkscape:window-maximized="1" /><g
     id="g11234"
     transform="matrix(1.0266751,0,0,1.0266751,-1110.961,-10.784099)"><g
       id="g11213"
       transform="translate(-5789.6628)"><path
         id="path2767"
         style="fill:#e34234;fill-opacity:1"
         d="m 7058.334,10.503906 -4.7559,0.97461 c -55.7581,11.426308 -116.7897,21.350364 -172.6557,34.332185 -2.6936,0.744054 -6.419,1.026764 -7.7525,2.890471 -0.9924,1.443712 -0.9302,4.525305 -1.0195,8.34375 -0.807,34.500626 -0.2724,201.340188 0.7461,238.650388 -0.1505,10.63347 1.4063,10.67502 10.062,12.60736 78.6788,17.556 158.6557,28.8425 237.3481,45.35944 l 0.2325,0.0488 0.2382,0.0215 c 1.1809,0.10398 2.9951,-0.67141 4.5118,-1.3418 13.8053,-6.10176 77.3244,-36.91928 91.8886,-44.61328 1.7818,-0.94127 3.7074,-1.96515 4.3985,-3.05273 0.7158,-1.19673 0.6215,-2.46057 0.6228,-3.70896 0.08,-72.08469 0.01,-24.97739 0.039,-55.27932 -0.3416,-15.55047 -2.2188,-30.3399 -3.8301,-40.40235 l -0.1094,-0.68554 -0.1582,-0.67774 c -0.7517,-3.23626 -2.018,-7.89307 -4.6308,-12.83789 3.2092,-5.13906 5.5582,-11.08188 6.6347,-18.25 0.9816,-5.42682 1.7573,-12.09493 2.1621,-20.41211 -0.01,-0.47652 0.01,-14.66643 0.028,-32.49431 0,-2.22848 0,-4.51381 0.01,-6.8363 0,-2.32249 0,-4.68215 0.01,-7.05929 0,-2.37714 0,-4.77177 0.01,-7.164208 0.8057,-23.212397 -10.3302,-47.068589 -28.7959,-55.982777 -7.4604,-3.90562 -17.1302,-5.068784 -26.7115,-5.675258 l -8.6826,-0.03491 -34.7305,-0.139648 -64.8437,-0.259765 z m 161.8105,162.378904 c -0.02,0.11166 -0.03,0.27992 -0.051,0.39063 l 0.1308,-0.79297 c -0.02,0.14057 -0.059,0.26268 -0.08,0.40234 z"
         sodipodi:nodetypes="ssccsccscssscccscscccsssccccccsccssc" /><path
         id="path2769"
         style="fill:#ffffff;fill-opacity:1"
         d="m 7038.2148,35.548828 c -2.146,-0.12743 -4.729,0.539828 -6.4804,0.851563 -2.3505,0.418367 -5.31,0.964634 -8.6367,1.59375 -5.5466,1.04892 -12.1448,2.333001 -18.7305,3.654297 -13.549,2.718353 -23.0788,5.363694 -27.8613,6.802734 -3.0697,0.902122 -7.429,1.941021 -7.5254,5.113281 0,6.980772 -0.047,11.661621 -0.047,19.986328 -3e-4,2.297591 1.9306,4.123151 4.2246,3.994141 0.1375,-0.0077 11.0406,-1.600887 21.1719,-3.464844 5.0675,-0.932305 9.2926,-1.717424 12.3437,-2.234375 0.6748,-0.114331 1.0227,-0.156225 1.5606,-0.240234 -0.3909,2.032397 -8.9172,46.351361 -19.9024,104.539061 -19.2656,102.04909 -20.4912,103.08705 -19.9355,111.70703 l -0.01,-0.125 0.5508,16.5293 c 0.062,1.88064 1.4264,3.46378 3.2773,3.80273 l 30.6211,5.60547 c 15.714,3.07696 30.1551,5.71624 31.3907,5.7793 6.182,0.31556 6.4531,-3.91333 6.4531,-12.33398 V 292.6543 c -4e-4,-1.93906 -1.3916,-3.59855 -3.3008,-3.9375 l -3.748,-0.66602 c -14.0192,-2.49292 -27.1837,-4.45755 -32.7735,-5.66406 3.8953,-36.3095 13.4287,-73.25757 20.3887,-109.57813 14.2486,-75.281707 20.707,-110.89401 20.707,-111.740231 0,-10.314019 0.1172,-13.771043 0.1172,-21.595703 0,-2.869251 -1.7067,-3.794476 -3.8515,-3.923828 z m -91.1894,19.292969 c -7.4741,-0.189538 -20.4095,1.923862 -33.9512,4.53125 l -18.4883,2.792969 c -1.9561,0.295608 -3.4023,1.976765 -3.4023,3.955078 V 178.0918 288.06445 c 10e-5,1.92139 1.3662,3.5713 3.2539,3.92969 l 5.998,1.14063 c 3.6297,0.69022 11.152,1.24442 12.2383,1.3125 6.9921,0.43809 6.0068,-6.75234 6.25,-47.60743 l 0.2364,-38.07422 13.0625,-1.02148 -0.1153,0.008 c 13.2017,-0.65106 17.7487,-2.35381 21.418,-5.86914 8.555,-8.19625 9.591,-24.17864 8.9121,-84.45312 -0.585,-51.940127 -0.1876,-55.64966 -8.2949,-60.953128 -1.6283,-1.065106 -4.6161,-1.571339 -7.1172,-1.634765 z m 108.6601,3.722656 c -2.2099,-10e-4 -4.0019,1.790123 -4.0019,4 V 189.99414 317.42188 c 5e-4,1.91504 1.3583,3.5611 3.2383,3.92578 l 5.25,1.01953 c 8.5697,1.41052 16.6834,2.85047 18.3945,-2.77149 1.4348,-5.44921 1.1895,-19.09203 1.3594,-57.76367 l 0.2402,-52.97265 10.2266,-0.53711 c 8.1031,-0.42559 17.7786,-3.2215 20.0508,-4.16016 5.8245,-2.40603 9.8076,-12.35876 11.1543,-22.38672 0.7114,-5.29714 1.0859,-28.19873 1.0859,-55.60156 0,-51.09207 -0.1923,-56.354646 -6.5859,-62.36133 -4.6529,-4.371219 -15.8628,-5.235502 -38.6622,-5.242188 z m 111.9024,0.162109 c -3.0534,-0.0042 -1.1046,-0.07006 -5.4004,0.07031 l -25.0469,0.267578 c -2.1893,0.02353 -3.9529,1.802782 -3.957,3.992188 l -0.2539,130.824222 -0.2539,130.82617 c -0.01,2.90049 2.9798,4.84327 5.6289,3.66211 l 11.2539,-5.01758 c 0.094,-0.0426 0.1867,-0.0889 0.2773,-0.13867 l 9.2539,-5.01758 c 1.2789,-0.69314 2.0806,-2.0259 2.0938,-3.48047 l 0.5,-56.0957 c 0.2792,-31.3283 0.2749,-45.16578 1.1269,-50.89844 0.1112,-0.7478 0.2086,-1.02249 0.3067,-1.36914 0.6615,0.0249 1.3478,0.10247 2.7422,0.041 6.3475,-0.27957 6.3336,-0.0957 7.5,1.0664 0.1136,0.11327 0.083,0.0687 0.1113,0.0879 0.021,0.0563 0.1588,0.44889 0.293,1.83593 0.4386,4.53581 0.5358,15.56468 0.6972,43.73242 0.1376,24.00464 0.425,43.92974 0.7207,48.09571 0.031,0.43563 0.2296,4.35351 4.0782,4.35351 1.3486,0 7.5018,-2.24673 11.7168,-4.50586 v -0.002 l 9.6015,-4.17187 c 1.4812,-0.6432 2.4303,-2.1139 2.4063,-3.72852 l -0.6856,-45.57617 c -0.2231,-14.84718 -2.0613,-29.20943 -3.6426,-39.08399 -1.4547,-6.26341 -3.2302,-12.46989 -12.5371,-17.34765 7.9564,-5.84386 13.0152,-12.48194 14.2989,-21.49024 1.2086,-6.57589 2.2222,-15.82694 2.1972,-29.81054 -0.035,-19.70986 -0.4227,-39.03637 -0.8808,-45.562507 -1.7537,-16.16069 -8.5356,-33.356281 -23.5957,-35.140625 -3.3896,-0.330101 -7.4183,-0.413746 -10.5469,-0.417969 v 0 z m -236.832,27.84961 v 0 c 2.7625,-0.0081 2.2804,0.04096 2.6367,1.294922 0.052,0.181284 0.3209,18.507726 0.1094,41.716796 -0.3453,37.90987 -0.5467,41.94727 -1.4258,43.09375 -0.055,0.0719 -0.1059,0.14543 -0.1543,0.2207 -2.1776,3.34544 -7.8061,4.63158 -13.2988,4.64258 0.01,-3.19703 0.061,-10.82364 0.072,-44.55273 0.01,-20.60976 0.2523,-38.522158 0.5761,-45.101565 0.01,-0.187591 0.016,-0.340986 0.025,-0.507813 0.7909,-0.143223 1.7472,-0.274671 2.8535,-0.384765 2.9098,-0.289564 6.2975,-0.415084 8.6036,-0.421875 z m 152.9785,2.40625 h 0.01 c 3.2901,-0.0034 6.6226,0.09618 8.7344,0.210937 0.2807,0.691437 0.514,1.561073 0.7227,4.240235 0.473,6.071379 0.452,17.278256 0.4258,37.744136 -0.054,42.72168 -0.061,41.7867 -1.8008,42.19727 -2.8506,0.67264 -8.2756,0.99216 -10.8086,1.01172 v -42.63086 c 0,-32.642183 -0.1022,-40.205088 -0.1172,-42.716798 0.908,-0.02278 1.7158,-0.05535 2.834,-0.05664 z m 79.2051,2.724609 h 10.8828 c 0.3672,0.163966 0.6226,0.261077 0.8652,0.351563 1.5129,5.69235 0.9845,18.757076 0.9629,35.673826 -0.055,42.71981 -0.071,41.78644 -1.8125,42.19727 -2.853,0.67318 -8.2802,1.00131 -10.8125,1.02539 v -42.63867 c 0,-23.15252 -0.05,-31.075826 -0.086,-36.609379 z"
         sodipodi:nodetypes="sssscccssscscccccsscccccsssssccscccssccccssssscscccccccsssssccscccccsccccsscsscssssccccccccsccscscscsscccccssccscscscscccccccscssc" /></g></g></svg>
