<?xml version="1.0" encoding="UTF-8" standalone="no"?>
<svg
   xmlns:dc="http://purl.org/dc/elements/1.1/"
   xmlns:cc="http://creativecommons.org/ns#"
   xmlns:rdf="http://www.w3.org/1999/02/22-rdf-syntax-ns#"
   xmlns:svg="http://www.w3.org/2000/svg"
   xmlns="http://www.w3.org/2000/svg"
   height="100"
   width="307.42599"
   id="svg24"
   xml:space="preserve"
   y="0"
   x="0"
   version="1.1"
   class="logo"><metadata
     id="metadata17"><rdf:RDF><cc:Work
         rdf:about=""><dc:format>image/svg+xml</dc:format><dc:type
           rdf:resource="http://purl.org/dc/dcmitype/StillImage" /><dc:title></dc:title></cc:Work></rdf:RDF></metadata><defs
     id="defs15" /><style
     id="style4"
     type="text/css">.st0,.st2{fill-rule:evenodd;clip-rule:evenodd;fill:#fff}.st2{fill:#000}</style><path
     d="M 114.07262,1.5316521 H 305.89481 V 98.468348 H 114.07262 Z"
     stroke-width="0.0339701"
     id="rect6"
     class="st0" /><path
     d="M 114.07262,1.5316521 H 305.89481 V 98.468348 H 114.07262 Z"
     stroke-miterlimit="22.926"
     stroke-width="3.0633"
     stroke="#ffffff"
     fill="none"
     id="rect8" /><path
     d="M 116.24171,3.4599552 H 303.80565 V 96.717888 H 116.24171 Z"
     stroke-width="0.0339701"
     id="rect10"
     class="st2" /><path
     d="m 117.93422,5.1564623 h 91.43853 V 95.033371 h -91.43853 z"
     stroke-width="0.0339701"
     id="rect12"
     class="st0" /><path
     d="m 211.34901,5.1564623 h 90.76413 V 95.033371 h -90.76413 z"
     stroke-width="0.0339701"
     id="rect14"
     class="st0" /><path
     stroke-width="0.0339701"
     id="path16"
     d="m 291.20874,57.115738 5.40524,-1.891335 -0.71937,-0.558509 -2.1581,-1.143993 -1.83938,-1.120015 -1.14399,-0.853249 -0.18484,-0.29474 0.027,-0.239789 0.23979,-0.31872 0.77132,-0.160858 2.18507,-0.664416 2.10415,-1.066062 -0.98713,-0.746343 -1.3598,-0.880225 -1.33283,-1.305851 -1.03809,-1.198945 -0.50655,-0.479578 -0.0549,-0.479578 0.0549,-0.479578 1.30485,-1.544641 1.46671,-1.600591 1.62357,-1.358804 2.1581,-1.360803 -1.7065,-0.61346 -2.23703,-0.664415 -2.63768,-0.664416 -1.65054,-0.184837 -1.65155,-0.07993 -0.26776,-0.239789 -0.13289,-0.266765 0.13289,-0.585485 0.26776,-0.531532 0.37367,-0.612461 0.53353,-1.891336 0.3467,-1.86336 0.31872,-2.583726 0.027,-1.705499 -1.96926,1.010111 -1.94629,0.799296 -0.37367,-0.267764 -0.18484,-0.294741 -0.0789,-2.957397 -0.90421,0.07993 -0.9042,0.211813 -0.95916,0.319719 -0.85324,0.372672 -0.77033,0.160858 -0.4526,0.105907 -0.31872,-0.159859 -0.0789,-2.689633 -0.0549,-3.730717 0.18484,-3.090281 -0.85225,0.879227 -2.9574,2.187075 -0.31772,-0.373671 -0.29474,-0.424627 -0.29474,-0.479578 -0.26777,-0.425625 -0.15986,-0.558509 -0.37367,-0.399648 -0.26776,-0.106906 -0.37367,0.05495 -0.90021,0.403645 -0.95916,0.373671 -0.98713,0.507553 -0.29474,0.132883 -0.47958,-0.05395 -0.23979,-0.425626 -0.69239,-1.729478 -0.69139,-1.730477 -0.79929,-1.890336 -0.82428,0.879226 -0.88122,0.987131 -0.85225,0.799297 -0.18584,0.132883 -0.31872,-0.02798 -0.3457,-0.184837 -0.42462,-0.64743 -0.61346,-0.746343 -0.4516,-0.799297 -0.31972,-0.266765 -0.21182,-0.05395 -0.29474,0.184838 -0.74634,0.530533 -0.7993,0.534529 -0.82427,0.558509 -0.50755,0.29474 -0.45261,-0.160858 -0.23979,-0.401647 -0.29374,-0.797298 -0.13388,-0.747342 -0.31972,-1.0101114 -0.21181,-0.7473423 -0.31872,-0.5854848 -5.19343,5.0355685 h -0.29474 l -0.29374,0.02798 -0.42563,-0.425626 -1.2499,-1.143993 -1.09304,-0.853249 -1.22592,-0.639438 -0.18583,0.986133 -0.3457,1.410758 -0.64044,2.025218 -0.77432,1.517664 -0.93217,1.812406 -0.29475,0.05495 -1.22592,-0.531532 -1.73047,-0.774319 -1.54464,-0.770322 -0.16086,1.812405 -0.26777,1.143994 -0.42462,1.038086 -0.45261,0.746343 -0.47957,0.319719 -0.31872,0.104908 -1.48969,-0.530534 -1.33283,-0.507553 -1.17197,-0.345696 -1.14399,-0.452601 -1.7055,-0.533531 0.26677,1.890337 0.26776,1.384781 0.26676,1.092039 0.21282,1.198945 c 0,0 0.0779,0.665414 0.15986,0.93218 0.0799,0.267764 0.18583,0.880225 0.18583,0.880225 l -0.028,0.507553 0.028,0.373672 -0.71936,-0.02798 -0.74735,-0.266765 -0.93118,-0.401647 -0.9052,-0.290744 -0.7973,-0.160858 -1.3608,-0.160859 -1.17097,-0.106906 -0.93218,-0.05395 h -1.12001 l -1.7065,0.159859 0.40064,1.918312 0.3467,1.600592 0.47958,1.572616 0.47958,1.332827 0.4516,1.359803 0.34669,0.93218 0.21182,0.639437 0.0549,0.401647 -0.10591,0.212812 -0.29474,0.184838 h -0.47958 l -0.53153,0.105907 -0.87923,0.05495 -0.16185,0.105907 0.26776,0.799297 0.42463,1.142994 0.47958,1.384781 0.29474,0.959156 0.42462,0.879226 0.31872,0.854249 0.4516,0.719367 0.31972,0.664415 0.31772,0.585485 0.3457,0.534529 0.21281,0.319719 0.0549,0.266765 -0.64043,0.293742 -0.66542,0.507553 -0.7973,0.61346 -0.74734,0.479578 -1.03808,0.959156 -0.95916,1.010111 -1.27788,1.226921 0.71937,0.345695 1.01111,0.452602 0.77032,0.372672 0.58549,0.425626 0.71937,0.506554 0.64143,0.479578 0.3457,0.291743 0.18483,0.293742 0.028,0.346694 -0.21281,0.424627 -0.37268,0.534529 -0.37367,0.613461 -0.40064,0.530533 -0.42563,0.479578 -0.4516,0.664415 -0.0799,0.184837 0.37467,0.346695 0.63944,0.424627 0.5595,0.479578 0.66442,0.585484 0.4526,0.559508 0.53053,0.585485 0.31872,0.585484 0.13389,0.451603 -0.18584,0.479578 -0.37267,0.799297 -0.47958,0.904204 -0.40165,0.746343 -0.42462,0.747343 -0.45161,0.639437 -0.47957,0.775318 -0.37368,0.558508 -0.5585,0.931181 -0.13389,0.400647 h 0.74735 l 1.59959,0.05495 1.57261,0.267764 1.5996,0.294741 c 0,0 1.2509,0.318719 1.38378,0.345695 0.13388,0.02798 1.51866,0.294741 1.51866,0.294741 l 1.30485,0.31872 0.37368,0.29474 v 0.558509 l -0.10691,0.585485 -0.21181,0.904204 -0.0799,0.747342 -0.0779,0.879226 -0.028,1.121014 -0.15986,0.853249 -0.23979,0.931181 -0.26776,0.69239 -0.40165,0.719367 -0.47958,0.531533 -0.31772,0.451602 -0.1069,0.31872 0.13388,0.160858 1.73048,-0.266765 1.72947,-0.400648 1.43874,-0.212812 1.17197,-0.345696 1.09303,-0.291743 1.27788,-0.451603 0.87923,-0.346695 0.53552,-0.318719 0.3457,-0.05395 0.3457,0.317721 0.21281,0.665414 0.31872,0.85225 0.42462,1.093038 0.64044,1.066062 0.55951,1.038086 0.58448,0.959156 0.53154,1.119016 0.64043,1.039085 0.69239,1.014108 0.53453,0.85225 0.58549,0.799296 0.55851,0.797299 0.53453,0.586484 0.37267,0.318719 0.23979,-0.05495 0.21281,-0.959156 0.26776,-0.826273 0.21182,-0.399648 0.21281,-0.213812 0.23979,0.05495 0.3457,0.401647 0.74634,0.85225 0.61346,0.826273 0.42463,0.530533 0.26776,0.160858 0.42463,-0.345695 0.40064,-0.452602 0.64044,-0.664415 0.64144,-0.770323 0.71936,-0.664415 0.69139,-0.771321 0.53453,-0.719367 0.50756,-0.558509 0.29474,-0.318719 0.4516,-0.133882 0.53453,0.479578 0.71937,0.747342 0.79829,0.825274 0.71937,0.881224 0.74734,0.879227 0.50656,0.775317 0.64043,0.719367 0.55951,0.691392 0.47958,0.534529 0.63944,0.771322 0.23979,-0.346695 0.31971,-1.571617 0.31772,-1.305851 0.45261,-1.46571 0.26676,-1.171969 0.23979,-0.770322 0.29474,-0.452602 0.26677,-0.184837 0.58648,0.211814 0.93118,0.61346 2.18608,1.678523 0.29474,-0.239789 0.47958,-1.517665 0.29474,-1.093038 0.16086,-1.225921 0.23978,-0.507554 0.31872,-0.239789 0.47958,0.05495 0.85325,0.106906 0.82527,0.211814 1.30486,0.479578 2.50479,0.880225 2.92942,1.278875 -0.028,-1.011111 -0.23979,-2.370913 -0.16086,-1.78443 0.0549,-0.881224 0.15986,-0.372672 0.53153,-0.05495 1.19895,0.05495 1.57262,0.266765 2.265,1.171968 0.0789,-0.880225 -0.028,-4.580969 0.31872,-0.266765 1.8124,0.05495 1.43874,0.07893 3.73071,0.317721 -0.26776,-0.585485 -2.20906,-3.117257 -1.99824,-3.063304 -1.27688,-2.290984 -0.71936,-1.54564 0.027,-0.211814 0.16186,-0.212812 0.37267,0.02797 2.1581,0.211814 3.54289,-0.05495 1.72947,-0.184837 1.97027,-0.558509 -0.82527,-0.770322 -1.49069,-1.651547 -1.54464,-1.812405 -0.82627,-1.038086 -0.055,-0.373671 v -0.345696 z m -0.30474,-10.880425 0.77033,0.684398 0.73935,0.709375 0.71337,0.559508 0.54152,0.379666 0.31173,0.304732 -0.028,0.225801 -0.3427,0.178843 -0.62645,0.07493 -0.45559,0.253776 -0.73935,0.177844 -0.62745,0.149868 -0.48358,0.179842 -0.62644,0.176844 -0.7993,0.07593 -0.88322,0.149868 -0.51355,0.151867 -0.65443,0.229798 -0.71237,0.125889 -0.73935,0.102909 -0.59947,0.177844 -0.62745,0.07593 -0.42862,-0.126888 -0.42862,-0.150868 -0.48258,-0.229797 -0.51355,-0.149869 -0.82627,-0.202821 -0.65443,-0.149868 -0.54052,-0.151867 -0.1139,-0.149868 -0.058,-0.305731 0.1129,-0.304731 0.28475,-0.177844 0.4556,-0.102909 0.59947,-0.05096 1.22592,-0.126888 0.9122,-0.202821 0.85625,-0.328711 0.99712,-0.506554 0.85625,-0.479578 0.71237,-0.431621 0.82527,-0.685396 0.7993,-0.733355 0.36968,-0.43162 0.28375,0.09991 0.36967,0.276756 z m -3.93653,-10.332907 1.14799,0.143873 1.11901,0.257773 1.26189,0.229798 0.89721,0.228799 1.09304,0.369675 1.17497,0.315722 0.67141,0.28375 0.055,0.428623 -0.44961,0.143873 -0.42063,0.486572 -0.6714,0.486572 -0.19583,0.342698 -0.47558,0.399649 -0.50356,0.456598 -0.58948,0.685397 -0.81229,0.770322 -0.64343,0.798297 -0.50356,0.82927 -0.42163,0.657422 -0.38965,0.428623 -0.39166,0.486572 -0.28075,0.1129 -0.50356,0.599473 -1.12001,1.00012 -1.28887,0.798297 -0.81129,0.28475 -0.78431,0.256774 -0.81228,0.198825 -0.28075,0.1129 -0.78431,0.02698 -0.98014,0.02797 -0.19483,-0.198825 -0.4496,-0.17085 -0.36268,-0.199824 -0.30873,-0.229798 -0.0819,-0.16985 0.13988,-0.144873 0.028,-0.455599 -0.0549,-0.485573 -0.2228,-0.171848 -0.13988,-0.369675 -0.1129,-0.743346 -0.19583,-0.799296 -0.3357,-0.855248 -0.36268,-0.599472 -0.33571,-0.572497 -0.13988,-0.541523 V 41.50048 l 0.22181,-0.342699 0.1129,-0.399648 0.25378,-0.401647 0.13987,-0.626448 0.50456,-0.857246 0.53053,-0.626449 0.61646,-0.513548 0.81228,-0.572496 0.75734,-0.428623 1.03809,-0.314723 1.03409,-0.315722 1.68251,-0.05795 0.78431,-0.112901 z m -8.09887,-9.047039 0.1099,-0.21581 v -0.675405 l 0.13388,-0.242787 0.26976,-0.270762 0.27077,-0.325713 h 0.62045 l 0.35269,-0.242786 0.59647,-0.188834 0.81129,-0.325713 0.67541,-0.15986 0.59247,-0.05595 0.055,0.541524 -0.055,1.486692 -0.13388,0.352689 v 0.377668 l -0.13288,0.297738 -0.40464,0.05495 -0.35269,0.187834 c 0,0 -1.56563,-0.05395 -1.78543,0 a 1.8723523,1.8723523 0 0 0 -0.40365,0.161858 l -0.78431,-0.02798 -0.24378,-0.109903 -0.10991,-0.269762 -0.18783,-0.189833 z m -0.58549,3.038327 0.17085,-0.383663 0.17185,-0.520542 0.36967,-0.411638 0.28475,-0.02698 0.62645,-0.02698 0.62745,-0.02798 0.5715,-0.05495 1.00012,-0.109903 0.71337,-0.05395 0.74335,-0.109903 0.65742,-0.191831 0.48657,-0.164855 0.59947,-0.191831 0.77032,-0.163856 0.7993,-0.356686 0.94117,-0.246783 0.0859,0.439613 -0.1129,0.735353 -0.22581,1.185956 -0.17184,0.819279 -0.0859,0.845256 -0.25677,0.630446 -0.28375,0.956158 -0.48658,1.093038 -0.40064,0.629446 -0.14388,0.274759 -0.25777,0.191831 -0.28375,0.08193 -0.36967,0.356686 -0.51455,0.05495 -0.51355,0.05395 -0.77132,0.109903 -0.88322,0.02798 -0.42863,0.136879 -0.4556,0.191831 -0.31472,0.191832 -0.54152,0.163855 -0.62745,0.164855 -0.48657,0.164855 -0.31472,0.410639 -0.82928,0.411638 -0.22979,0.547518 -0.25678,0.191831 -0.48657,0.520542 -0.3417,0.383662 -0.25777,0.246783 -0.31472,0.164855 -0.31473,0.05495 -0.17185,-0.164855 -0.28475,-0.163856 -0.22979,-0.19283 -0.1119,-0.273759 -0.25778,-0.355687 -0.2298,-0.219807 -0.1119,-0.355687 -0.17185,-0.137879 -0.027,-0.383662 0.1129,-0.328711 0.058,-0.191831 -0.17085,-0.219807 -0.2298,-0.245783 -0.51355,-0.13688 -0.36967,-0.136879 -0.28475,-0.191832 -0.028,-0.274758 -0.028,-0.547518 0.17185,-0.301734 0.31472,-0.301735 0.48657,-0.219806 0.42862,-0.245784 0.5715,-0.32971 0.48657,-0.300735 0.5725,-0.301735 0.57249,-0.438614 0.51355,-0.575493 0.42763,-0.410639 0.36967,-0.520542 0.25777,-0.466589 z m -4.35417,16.99904 -0.01,0.06494 -0.14487,0.160859 -0.058,0.123891 -0.21981,0.08492 -0.16985,0.01 -0.0759,-0.132883 -0.048,-0.133882 -0.16086,-0.10191 -0.038,-0.150868 0.17085,-0.05895 0.0589,-0.143873 0.058,-0.10191 0.10591,-0.05895 h 0.24678 l 0.14388,0.03797 0.0759,0.18184 0.048,0.09592 z m -4.46407,-25.584485 0.1099,-0.359684 0.027,-0.359683 0.0829,-0.359684 0.0549,-0.386659 v -0.582488 l 0.1099,-0.664415 0.027,-0.692391 0.30173,-0.304732 0.35569,-0.332707 0.46559,-0.331708 0.49357,-0.222804 0.54851,-0.24978 0.46559,-0.195828 0.38367,-0.194828 0.32971,-0.08193 0.19083,0.167852 0.13788,0.304732 0.19183,0.331708 0.21881,0.277756 0.0819,0.49956 0.19183,0.387659 0.13688,0.332707 c 0,0 0,0.167852 -0.16385,0.359683 a 0.83426585,0.83426585 0 0 1 -0.41164,0.249781 l -0.41064,0.167852 -0.35668,0.332707 -0.35569,0.304732 -0.21981,0.304732 -0.46559,0.222804 -0.52054,0.24978 -1.17896,0.637439 -0.5755,0.331708 -0.24678,0.08293 z m -0.0689,1.891335 0.58249,-0.455599 0.4496,-0.314723 0.60947,-0.428623 0.68839,-0.427623 0.55451,-0.456598 0.71637,-0.4556 0.63345,-0.513548 0.74034,-0.486571 0.58249,-0.400648 0.60947,-0.400647 0.73934,-0.400648 0.76833,-0.712373 0.63344,-0.486572 0.18584,0.112901 0.051,0.513548 -0.1059,0.315722 -0.028,0.999121 v 0.970146 l 0.13388,0.256774 -0.0789,0.315723 -0.028,2.11314 -0.027,2.569739 -0.13388,1.798417 -0.028,0.884222 -0.18483,0.770322 -0.39666,1.00012 -0.4496,1.056071 -0.95216,0.941171 -1.03109,0.744345 -1.10903,0.540525 -0.42562,0.143873 -0.3427,-0.02698 -0.23979,-0.199824 -0.3427,-0.142875 -0.29074,0.02698 -0.7953,0.02798 -0.027,-0.198825 -0.3427,-0.143873 -0.21281,-0.17085 -0.23979,-0.257773 -0.21181,-0.283751 -0.36968,-0.284749 -0.55551,-0.427624 -0.50356,-0.401646 -0.23979,-0.283751 -0.15686,-0.400647 -0.15786,-0.455599 -0.21281,-0.514547 -0.3427,-0.369675 -0.52754,-0.143873 -0.73935,-0.112901 0.027,-0.799297 0.18584,-0.4546 0.15686,-0.627447 0.31972,-0.540525 0.26277,-0.428623 0.18483,-0.369674 0.26377,-0.229798 0.15786,-0.342698 0.66142,-0.770323 0.55451,-0.429621 z m 2.62469,27.814524 -0.058,0.236791 -0.038,0.218808 -0.29474,0.02698 -0.20982,-0.06494 -0.0749,-0.208816 v -0.17085 l -0.027,-0.304732 0.0859,-0.150867 0.0959,-0.05895 0.1129,-0.105907 0.058,-0.18184 0.17085,-0.01998 0.0859,0.149868 0.12389,0.01798 0.01,0.321717 z m 0.038,4.744824 -0.0799,0.04096 -0.0709,0.05096 -0.024,0.137879 -0.19982,-0.05195 -0.13588,-0.01 -0.003,0.156862 -0.13988,0.03797 -0.0799,-0.07493 c 0,0 -0.1129,-0.119895 -0.12289,-0.157861 a 1.6615378,1.6615378 0 0 1 -0.024,-0.119895 l 0.017,-0.122891 0.034,-0.09592 0.1169,-0.06594 0.0619,-0.07094 0.13988,-0.05895 0.0659,-0.07493 0.0789,-0.03797 0.13988,0.01 0.058,0.08592 0.01,0.174846 0.042,0.07893 0.1099,0.01699 z m -0.54152,-7.129726 0.02,-0.1129 0.10291,-0.06494 0.0859,0.05795 0.02,0.18184 -0.15986,0.02797 z m -1.74047,-2.062185 -0.1229,0.01998 -0.0589,0.192831 -0.048,0.102909 -0.14987,0.122892 -0.19982,0.01998 -0.10191,-0.03697 v -0.520542 l 0.037,-0.123891 0.0859,-0.102909 0.048,-0.112901 0.14387,-0.03697 0.10291,0.01998 0.0749,0.03797 0.02,0.07493 0.0489,0.188833 0.10291,0.08592 z m -6.33743,-30.520142 0.24679,-0.315722 0.32471,-0.314723 0.37967,-0.517545 0.30273,-0.345696 0.43462,-0.603469 0.37966,-0.372672 0.4636,-0.575493 0.62644,-0.48957 0.21981,0.228799 0.16386,0.548517 0.19183,0.314723 0.1099,0.48957 0.27376,0.43162 0.21981,0.517544 0.13688,0.48957 0.13688,0.459595 0.16385,0.489569 0.16486,0.661418 0.13688,0.287747 0.028,0.836264 0.1099,0.287747 0.054,0.660419 -0.055,0.634441 -0.13688,0.431621 -0.13688,0.633442 -0.10991,0.489569 -0.0819,0.404644 -0.16386,0.373671 -0.32571,0.48957 -0.35269,0.404644 -0.59948,0.489569 -0.16485,0.373671 -0.16486,0.459595 -0.40764,0.574495 -0.48957,0.603469 -0.35269,0.719367 -0.19183,0.691391 -0.16485,0.48957 -0.0549,0.69239 -0.16386,0.43162 -0.19183,0.229798 h -0.62745 l -0.2198,-0.170849 -0.21881,-0.171849 -0.30074,-0.17085 -0.48957,-0.287747 -0.35369,-0.373671 -0.32571,-0.17085 -0.37966,-0.259771 -0.32572,-0.37467 -0.24678,-0.489569 -0.24678,-0.373672 -0.054,-0.259771 v -0.459596 l 0.19183,-0.229797 -0.028,-0.403645 0.13688,-0.315722 0.028,-0.372672 -0.16485,-0.143874 0.028,-0.43162 v -0.805291 l -0.0829,-0.517545 -0.0819,-0.575493 -0.055,-0.692391 v -0.60247 l 0.2198,-0.373671 0.24579,-0.373671 0.21981,-0.43162 0.2198,-0.345696 0.48957,-0.719367 0.48957,-0.575494 0.37967,-0.43162 0.30173,-0.489569 z m 2.10315,16.415554 c 0.007,0.01798 0.13988,0.209815 0.13988,0.209815 l 0.035,0.297738 -0.29774,0.05195 -0.14088,-0.139877 0.0899,-0.175845 0.0679,-0.157862 0.1059,-0.08493 z m -2.14811,-0.6814 -0.017,0.281752 -0.0859,0.139877 -0.13987,0.157861 -0.14088,-0.157861 -0.051,-0.174846 -0.20982,-0.122892 -0.017,-0.105907 0.12389,-0.123891 0.0889,-0.105907 h 0.19183 l 0.12289,0.139877 z m -4.48405,-17.19387 0.20482,-0.318719 0.29474,-0.438614 0.31972,-0.414635 0.3387,-0.437615 0.40764,-0.390656 0.4556,-0.319719 0.51954,-0.218808 0.2268,0.294741 0.31972,0.439613 0.24978,0.489569 0.29374,0.609464 0.29474,0.462593 0.0929,0.342698 -0.0929,0.290745 -0.2258,0.366677 -0.4556,0.513548 -0.54452,0.685397 -0.50056,0.609463 -0.47658,0.609464 -0.49956,0.439613 -0.27076,0.02398 -0.18184,-0.123891 -0.15786,-0.389657 -0.15686,-0.539525 c -0.045,-0.146871 -0.15786,-0.461594 -0.15786,-0.461594 l -0.15786,-0.633443 -0.13688,-0.634441 -0.0679,-0.462593 z m -7.83511,1.039086 0.61346,-0.734354 0.56151,-0.571497 0.39365,-0.469587 0.61346,-0.572496 0.52055,-0.451603 1.0211,-1.161977 0.66841,-0.702382 0.61646,-0.955159 0.14687,0.232795 0.17185,0.757333 0.26976,0.756335 0.27176,0.963152 0.29374,0.962154 0.3427,1.223922 0.36967,1.277876 0.37068,1.538646 0.36967,1.276876 0.3427,1.198945 0.27076,1.278875 0.14687,0.779314 -0.0479,0.963152 -0.14688,1.2509 -0.12289,0.887219 -0.12389,0.781312 -0.26976,0.287747 -0.3437,0.232795 -0.24578,0.259772 -0.27076,0.44261 -0.24679,0.389657 -0.2228,0.233795 -0.29474,0.07893 -0.2228,0.156862 -0.24679,-0.02698 -0.14687,-0.232795 -0.2228,-0.209816 -0.29474,-0.207817 -0.26977,-0.129886 -0.41963,0.02698 -0.24578,0.232795 -0.44161,0.129886 -0.27076,0.129885 -0.47958,-0.05395 -0.41763,-0.129886 -0.63744,0.180841 -0.63744,-0.129886 -0.61346,-0.18184 -0.48957,-0.548517 -0.36968,-0.571497 -0.34269,-0.679402 -0.3427,-0.649429 -0.22281,-0.651427 -0.17185,-0.781312 -0.29374,-1.40876 -0.17185,-1.509672 0.024,-1.483694 0.19583,-0.729358 0.22181,-0.781313 0.44261,-0.78431 0.50955,-0.76033 z m 3.19719,20.995524 -0.018,0.123891 -0.10591,0.105907 -0.10691,-0.01698 -0.051,-0.122892 0.034,-0.174846 h 0.17484 z m -2.02821,-1.887339 -0.0699,-0.157861 0.19283,-0.105907 0.26377,0.157861 0.19183,0.139877 0.15686,0.106906 0.0689,0.242786 -0.13988,0.157861 -0.17485,0.122892 -0.26476,-0.06794 -0.13988,-0.06894 v -0.366677 z m -8.21577,-12.705819 0.17784,-0.994125 0.35668,-1.06906 0.17785,-0.650427 0.32971,-0.939174 0.48257,-1.225921 0.40365,-0.939173 0.32971,-0.70538 0.17784,-0.575493 0.17785,-0.599473 0.20182,-0.678403 0.17884,-0.78431 0.0749,-0.627447 0.27776,-0.547519 0.43162,0.129886 0.28075,0.259772 0.40465,0.26077 0.35568,0.390656 0.55951,0.575494 0.48258,0.599472 0.27675,0.469587 0.15087,0.366677 -0.14987,0.287747 -0.40464,0.417633 -0.4556,0.548517 -0.55951,0.993126 -0.50655,1.018104 -0.2298,1.383782 -0.10191,0.859244 0.051,1.148989 0.10291,1.303853 0.35669,1.253896 0.35569,0.915195 0.20282,0.548517 0.25278,0.677404 0.35668,0.627448 0.35669,0.469587 0.20182,0.496563 0.051,0.705379 -0.024,0.679402 -0.14987,0.286748 -0.27776,0.287747 -0.30473,0.311725 -0.4556,0.05195 -0.40464,0.18084 -0.10291,0.339701 -0.30473,0.496563 -0.27776,0.496564 -0.25278,0.417632 -0.38066,0.129886 -0.17784,0.103908 -0.17885,-0.236791 -0.22979,-0.287747 -0.43063,-0.18184 -0.27775,-0.180841 -0.32971,-0.390656 -0.27676,-0.654424 -0.32971,-0.939174 -0.32771,-1.123012 -0.2298,-0.729358 -0.20182,-0.888218 -0.17884,-0.914196 -0.12689,-0.939173 -0.023,-1.383782 z m 4.23027,17.984174 -0.0889,0.175845 -0.34969,0.105907 -0.34969,-0.06794 -0.17385,-0.209816 -0.017,-0.225801 0.017,-0.259771 0.10591,-0.209816 0.17484,-0.105907 0.29774,-0.03397 0.14088,0.03397 0.0689,0.191832 0.0849,0.123891 v 0.173847 z m -4.12437,6.256494 -0.29774,-0.01698 -0.13987,-0.06894 -0.12389,-0.156862 v -0.174846 l -0.017,-0.243786 0.31472,-0.157861 0.19184,-0.139877 0.12289,-0.191831 0.29873,-0.05195 0.22581,0.01798 0.1059,0.225801 0.10691,0.06794 v 0.174846 l -0.0899,0.174847 -0.13988,0.06894 -0.10591,0.242786 -0.0899,0.139877 z m 0.13988,1.904324 -0.2258,0.174846 -0.34969,-0.06794 -0.1229,-0.209815 0.33271,-0.208816 0.31472,0.03497 z m -3.71973,-2.637679 0.12289,0.08992 0.1239,0.139877 -0.10591,0.400648 -0.12389,0.243785 h -0.33171 l -0.24379,-0.06894 -0.12289,-0.174846 -0.018,-0.225802 c 0,0 0,-0.139877 0.0699,-0.259771 l 0.29674,-0.05195 0.12389,-0.05195 0.0859,-0.156862 c -0.018,-0.04196 0.12289,0.115898 0.12289,0.115898 z m -0.12289,-2.884461 0.051,-0.157861 0.13987,-0.349693 0.19283,-0.08792 0.24279,0.173847 0.13988,0.123891 0.0699,0.191831 -0.0859,0.280753 -0.26377,0.174846 -0.40164,-0.105907 z m -0.36668,7.619295 0.13988,0.105907 0.20982,0.08992 0.12289,0.156862 -0.034,0.297738 -0.0899,0.226801 -0.31473,0.279754 -0.12389,0.123891 -0.39965,-0.139877 -0.12389,-0.174846 -0.034,-0.400648 0.0679,-0.2268 0.0689,-0.156862 0.2258,-0.140876 z m 0.0849,3.809647 0.12389,-0.139877 0.12289,-0.06994 0.40065,-0.03397 c -0.034,-0.01698 0.14087,0.05195 0.14087,0.05195 l 0.1229,0.105907 v 0.438614 l -0.0889,0.314723 -0.50655,0.123891 -0.20981,-0.08992 -0.19084,-0.314723 -0.052,-0.191831 z m 0.12389,2.377908 0.0679,-0.226801 0.10691,-0.263768 0.27975,-0.209815 0.26477,-0.104908 0.2258,-0.06894 0.20981,0.01698 0.0679,0.280753 0.0859,0.157861 0.034,0.191831 v 0.297738 l -0.13988,0.298737 -0.2268,0.156862 -0.41763,0.243786 -0.38366,-0.03397 -0.13988,-0.281752 -0.052,-0.242787 z m 1.20594,-3.878587 -0.59248,-0.06894 -0.15786,-0.242787 c 0,0 -0.017,-0.243785 0,-0.332707 l 0.0679,-0.331708 c 0,0 0.38366,-0.123891 0.47358,-0.191831 0.0889,-0.06894 0.26377,-0.106906 0.26377,-0.106906 h 0.50655 l 0.19184,0.06894 0.12389,0.209815 -0.0899,0.279754 -0.19184,0.226801 -0.13987,0.156862 z m 1.25689,-8.163816 0.0899,0.242786 -0.0699,0.332708 -0.0879,0.105906 -0.2268,0.06894 -0.26377,-0.03397 -0.13987,-0.106906 -0.035,-0.156862 0.018,-0.226801 0.13988,-0.139877 0.25977,-0.106906 z m -0.24278,-3.038326 v -0.140876 l 0.017,-0.242787 0.15786,-0.123891 0.13988,-0.105906 h 0.13988 l 0.1069,-0.139877 0.15786,-0.01799 0.051,0.157862 0.1069,0.157861 -0.035,0.297738 -0.12289,0.174846 -0.052,0.157861 -0.29774,0.01699 -0.17485,-0.01699 -0.0859,-0.123891 z m -0.26377,8.684357 -0.0899,-0.157861 0.052,-0.225801 0.10591,-0.191831 0.1069,-0.123891 0.4556,0.01698 0.10591,0.106906 0.12289,0.08892 0.052,0.225801 -0.0689,0.366677 -0.3497,0.139877 -0.34969,-0.06794 z m 0.87323,-6.622172 -0.0859,-0.06894 -0.0679,-0.297738 V 42.89825 l 0.24279,-0.139877 0.19183,-0.05195 0.19183,-0.01698 0.17485,0.05096 0.10591,0.226801 -0.034,0.208816 -0.0899,0.174846 -0.17385,0.105907 -0.20982,0.01698 z m 1.78443,-0.489569 -0.13988,-0.06994 -0.12389,-0.122891 v -0.225802 l 0.018,-0.225801 0.13987,-0.139877 h 0.15786 l 0.29774,0.01599 0.15786,-0.05096 c 0.017,-0.03397 0.017,0.174846 0.017,0.174846 l 0.052,0.208816 v 0.139877 l -0.17484,0.2268 -0.0899,0.06794 z m 0.4526,-3.286108 -0.19183,-0.122892 -0.10591,-0.191831 -0.1069,-0.157862 -0.034,-0.297738 0.1059,-0.263767 0.0699,-0.243786 0.15686,-0.156862 0.19184,-0.123891 0.20881,-0.122892 0.31472,0.01699 c 0.035,0 0.2268,0.174847 0.2268,0.174847 l 0.13988,0.156861 0.15786,0.123891 v 0.438614 l -0.051,0.279754 -0.19183,0.140876 -0.12389,0.106906 -0.19184,0.225802 -0.24278,0.05095 z m 0.85625,0.123891 0.15786,-0.08992 0.13988,-0.122892 0.20981,0.06894 0.017,0.191831 -0.017,0.225802 -0.38366,0.174846 -0.13988,-0.05195 -0.018,-0.225802 z m -7.66026,-18.516706 0.17484,-0.219806 0.19983,-0.290744 0.19782,-0.387659 0.27376,-0.482576 0.14787,-0.654424 0.19883,-0.702382 0.14687,-0.74934 0.0999,-0.168852 h 0.42063 l 0.29874,0.291744 0.7943,0.314723 0.61945,0.339701 0.81928,0.266765 0.39765,0.38666 0.0749,0.459595 -0.0749,0.798298 -0.14787,1.041084 -0.12289,1.936296 -0.12289,0.482575 -0.2228,0.219807 -0.24679,-0.07294 -0.29774,-0.242787 -0.29873,-0.266765 -0.5685,-0.36368 -0.47259,-0.314723 -0.61945,-0.36368 -0.66941,-0.314723 -0.66741,-0.291743 -0.37368,-0.242786 -0.0749,-0.167853 z m -7.17369,-0.531532 0.38067,-0.153865 0.4556,0.02398 0.14986,0.153865 0.55551,0.178843 0.6824,0.229797 0.95916,0.30773 1.08604,0.359683 1.137,0.486572 1.54165,0.61346 1.41475,0.743346 0.85925,0.486572 0.98713,0.639437 0.65842,0.539525 0.50655,0.434618 0.30473,0.509551 0.32971,0.665415 0.17785,1.075054 0.17784,1.127008 0.20182,0.71637 0.50756,1.076053 0.25377,0.589481 0.14987,0.409639 -0.14987,0.257774 -0.052,0.308728 -0.20182,0.153864 -0.12689,0.359684 -0.25378,0.229798 -0.0749,0.279753 -0.17885,0.281753 -0.35268,0.229797 -0.27776,0.279754 -0.40365,0.206818 -0.25377,0.256774 -0.12689,0.229798 v 0.537527 l -0.051,0.664415 -0.15086,0.256774 -0.2258,0.177844 -0.20283,0.154864 -0.30073,0.05095 h -0.32971 l -0.17784,0.178842 -0.14987,0.256774 -0.2268,0.359684 -0.30473,0.331708 -0.47958,0.02398 -0.37967,-0.153865 -0.47958,-0.229798 -0.55551,-0.486571 -0.58248,-0.434618 -0.60647,-0.589481 -0.73336,-0.767325 -0.75733,-0.767325 -0.47958,-0.794301 -0.35269,-0.641435 -0.42862,-0.715371 -0.40364,-0.870234 -0.42863,-1.356806 -0.32871,-1.024099 -0.32971,-1.202941 -0.14987,-0.767325 -0.12688,-0.664415 -0.17785,-0.767325 -0.32971,-1.253897 -0.20182,-0.819279 -0.17784,-0.972144 -0.25378,-1.150987 z m -7.78315,10.870434 -0.48657,-1.507673 -0.46259,-1.708497 -0.15387,-1.305851 0.61646,-0.174846 h 0.66841 l 1.20594,0.02398 0.97614,0.07593 1.0281,0.149868 1.127,0.150868 1.07905,0.376668 1.28088,0.353689 0.61645,0.24978 0.51455,0.325714 0.33171,0.376668 0.20582,0.60247 0.20582,0.853249 0.25677,0.805291 0.5655,1.153985 0.6914,1.205939 1.02809,1.483694 1.15399,1.280873 1.00111,0.805291 1.2569,0.929183 0.51355,0.376668 0.17884,0.376669 -0.17884,0.324714 -0.023,1.004116 -0.12689,0.301735 -0.17884,0.277755 -0.10291,0.276757 -0.2298,0.202821 -0.38267,0.09991 -0.28075,0.149868 -0.33271,0.126889 -0.46259,0.174846 -0.17784,0.35269 -0.38366,0.301734 -0.41164,0.125889 -0.41064,-0.05095 -0.51455,-0.02398 -0.27975,-0.174846 h -1.77244 l -0.7943,0.05195 -0.20582,0.149868 -0.89721,-0.02298 -0.48657,-0.376669 -0.48658,-0.452602 -0.69139,-0.753337 -0.64143,-0.57949 -0.63944,-0.805291 -0.61746,-0.626449 -0.46259,-0.551514 -0.48657,-0.929183 -0.61646,-0.904204 -0.58948,-0.928183 -0.30773,-0.626449 -0.43562,-1.107026 -0.30773,-0.928183 z m 1.62757,12.357126 -0.2258,-0.462593 -0.40165,-0.747342 -0.37667,-0.719367 -0.35269,-0.695388 -0.2258,-0.667413 -0.17485,-0.541524 -0.27775,-0.849252 -0.17485,-0.617457 -0.2258,-0.798297 -0.12689,-0.719367 0.2258,-0.20482 0.37767,-0.02398 h 0.65343 l 0.30173,0.153865 0.70238,0.02398 0.20183,0.232796 0.30173,0.308728 0.2258,0.462593 0.47658,0.616457 0.60347,0.925186 0.67741,0.900208 0.82927,0.874231 1.03109,0.976141 0.52753,0.565502 -0.17484,0.153865 -0.14987,0.07493 -0.15087,0.154863 -0.40065,0.02698 -0.0999,0.178842 -0.24978,-0.02398 -0.17484,0.232796 -0.24978,0.232795 -0.42863,0.18184 -0.40064,0.05096 -0.30174,0.154864 -0.30173,0.153864 -0.17485,0.153865 h -0.60247 l -0.0999,-0.205819 -0.20182,-0.256774 z m -1.69551,8.084885 -0.54552,-0.36368 -0.59947,-0.335704 -0.48657,-0.362681 -0.5715,-0.280753 -0.42862,-0.253777 -0.0859,-0.280753 1.26089,-1.178962 1.11702,-0.869235 1.20294,-0.925186 1.28787,-0.812285 1.26089,-0.78431 1.14399,-0.616458 1.40077,-0.503557 0.91519,-0.281752 0.97315,-0.279754 0.74334,-0.195827 0.8013,-0.08592 1.11701,-0.02698 0.42763,0.112901 0.51455,0.194828 0.34269,0.253777 0.17085,0.421629 0.1129,0.393654 0.14388,0.36268 0.19982,0.335705 0.16985,0.167852 0.20282,0.167853 0.25678,0.140876 0.19882,0.280753 0.14388,0.47658 0.1129,0.194829 0.0859,0.531532 -0.14387,0.112901 -0.028,0.589481 -0.1129,0.139877 -0.028,0.449604 0.028,0.42063 -0.19882,0.195828 -0.058,0.53353 v 0.812285 l 0.0859,0.421629 0.0849,0.222804 0.0859,0.393654 0.0859,0.253776 v 1.373792 l -0.14388,0.307729 -0.2298,0.308728 -0.34269,0.222804 -0.3427,0.253777 -0.31473,0.221804 -0.94616,0.05495 -0.3427,0.139877 -1.45872,0.02798 -1.20294,-0.05495 -0.28775,-0.167853 -1.28786,-0.08492 -1.05907,-0.222804 -1.37379,-0.253776 -0.99912,-0.530534 -0.6894,-0.167852 -0.31472,-0.280753 -0.77432,-0.449604 -0.57249,-0.448605 z m 1.72948,7.485413 -0.33571,-0.28475 -0.25377,-0.39665 -0.27976,-0.28475 -0.25477,-0.284749 -0.22181,-0.197826 -0.47658,-0.342699 -0.36268,-0.257773 -0.16785,-0.170849 0.0849,-0.397651 0.19583,-0.170849 0.39366,-0.39765 0.39365,-0.513548 0.30873,-0.569499 0.3357,-0.427624 0.44961,-0.455599 0.16685,-0.143873 0.30873,0.225801 0.5615,0.284749 0.92519,0.342699 1.15099,0.311726 1.29186,0.311725 0.98313,0.08492 0.56151,0.171849 -0.0549,0.17085 -0.30873,0.171849 -0.50356,0.225801 -0.47558,0.256774 -0.58948,0.428623 -0.56151,0.427623 -0.50355,0.483575 -0.44961,0.482575 -0.42063,0.510551 -0.58948,0.654424 -0.36268,0.369675 -0.25378,-0.02698 -0.28075,-0.225802 z m 6.18456,9.321797 -1.54564,-0.199824 -1.82939,-0.458597 -1.57262,-0.229798 -0.91519,-0.314723 -1.42875,-0.1129 c 0,0 -0.45859,-0.17085 -0.65742,-0.198825 -0.19882,-0.02698 0.028,-0.229798 0.028,-0.229798 l 0.36967,-0.77332 0.48657,-0.802294 0.65742,-1.000119 0.51455,-0.88722 0.42763,-0.915194 0.54552,-0.829271 0.34169,-0.54452 0.3427,-0.629447 0.42863,-0.599472 0.54452,-0.54552 0.34269,-0.544521 0.3427,-0.28375 0.31473,-0.143873 0.63044,-0.599473 0.77132,-0.514547 0.8013,-0.427624 0.68539,-0.429622 0.82927,-0.314723 0.48558,-0.170849 0.40164,-0.143874 0.99912,0.112901 0.4596,0.08592 h 0.42862 l 0.14388,0.229798 0.28475,0.341699 0.39964,0.257773 0.3437,0.256775 0.39965,0.170849 0.31572,0.08592 0.17185,0.143873 0.25678,0.256774 0.31472,0.342698 0.3427,0.229798 0.34269,0.256774 0.2298,0.486572 0.2298,0.342698 v 0.688395 l -0.17185,0.170849 0.058,0.373671 0.0859,0.143874 0.028,1.716489 0.14387,0.201823 -0.14387,0.171849 v 1.373791 l 0.1129,0.170849 0.027,0.256774 0.17185,0.112901 0.17085,0.08592 h 0.31572 l 0.14387,0.171849 0.2298,0.08493 0.25677,0.143874 0.31473,0.171849 0.25677,0.229797 0.25677,0.142875 0.3427,-0.08493 0.25678,-0.05895 0.25777,0.229798 0.2298,0.143873 -0.028,0.342699 -0.2298,0.201822 -0.31472,0.171849 -0.25777,0.143873 -0.37267,0.143874 -0.19983,0.256774 -0.48557,0.08592 -0.42862,0.143874 -0.2298,0.201822 -0.5715,0.05795 -0.2298,0.171849 -1.02709,0.427623 -1.14499,0.315723 -1.5996,0.287746 -1.11302,-0.02797 -1.11402,-0.02698 -1.08604,-0.02798 z m 8.96111,2.21605 -0.2258,0.418631 -0.17185,0.503557 -0.1129,0.335705 -0.17085,0.448605 -0.059,0.389657 -0.1129,0.336704 -0.027,2.06818 -0.45559,0.309727 -0.3427,0.24978 -0.4556,0.362681 -0.5695,0.362681 -0.3387,0.222804 -0.50955,0.08293 -0.3437,0.08493 -0.1129,0.308729 -0.50955,-0.02798 -0.42563,0.140876 -0.99313,0.05495 -0.42562,0.02698 -0.25678,0.222804 -0.28375,0.112901 -0.0859,0.140876 -1.10603,-0.02798 -0.17185,0.140876 h -0.91119 l 0.0859,-0.194828 0.1129,-0.418632 0.25678,-0.194828 0.0579,-0.503557 0.19983,-0.335705 0.13988,-0.418631 0.17085,-0.389657 -0.058,-0.672409 0.13987,-0.362681 0.059,-0.417632 -0.059,-1.062065 -0.13987,-0.308729 0.1129,-0.671409 0.0859,-0.449604 0.17085,-0.615459 0.19883,-0.839261 0.31172,-0.308728 1.16498,-0.05495 h 2.01822 l 0.50955,-0.167852 0.65443,-0.139877 0.42462,-0.02798 0.6824,-0.139877 0.54153,-0.168851 0.73934,-0.139877 0.36968,-0.24978 h 0.82228 l 0.19982,0.24978 0.058,0.448605 -0.25777,0.195828 -0.13988,0.307729 -0.2258,0.280753 z m 8.15982,13.038526 -0.66741,1.500679 -0.49956,1.383782 -0.25078,0.809288 -0.19583,0.08492 -0.38966,-0.403644 -0.3357,-0.404644 -0.47359,-0.866238 -0.55451,-0.953161 -0.52753,-0.722364 -0.55551,-0.809288 -0.47259,-0.866238 -0.55451,-1.127008 -0.55551,-1.127008 -0.49956,-1.153985 -0.33571,-1.097035 -0.52753,-1.153984 -0.16785,-0.634442 -0.055,-0.575493 -0.1129,-0.431621 0.027,-1.270881 0.028,-0.489569 0.11291,-0.57949 0.13987,-0.345696 0.14088,-0.43162 0.19483,-0.43162 0.16885,-0.376669 0.19483,-0.376669 0.1129,-0.462592 0.2228,-0.404644 c 0,0 0.27776,-0.08493 0.30473,-0.403645 0.028,-0.319719 0.19583,-0.02798 0.19583,-0.02798 l 0.30473,-0.201822 0.36268,-0.259771 0.16786,-0.260771 0.16785,-0.404644 0.27775,-0.201822 h 0.47259 l 0.19583,-0.202822 0.24978,0.143874 0.24978,0.08592 0.1129,0.174846 0.2228,0.201823 0.055,0.229797 0.13988,0.259772 0.14087,0.377667 0.27776,0.31872 0.16785,0.43162 0.19483,0.345696 0.30573,0.02797 0.24978,0.259772 0.30473,0.171848 0.22281,0.201823 h 0.83626 l 0.22181,0.143873 h 0.30573 l 0.13987,-0.143873 0.72337,0.115898 0.36268,0.202821 1.83638,0.05795 0.30473,0.31872 0.22281,0.43162 0.16785,0.376669 -0.13988,0.723363 -0.028,0.924187 -0.0819,0.521541 -0.2228,0.57949 -0.16786,0.835265 -0.47258,1.153984 -0.66941,1.328831 -0.69439,1.356806 -0.91919,2.048198 z m 6.35241,-0.05096 -0.2228,0.393653 -0.38766,0.449604 -0.46959,0.670411 -0.41364,0.562505 -0.57949,0.757333 -0.63344,0.561506 -0.27775,0.503557 -0.46959,0.561506 -0.35968,0.195827 -0.27676,-0.08592 -0.22281,-0.308728 -0.24978,-0.335705 -0.38765,-0.530533 -0.35969,-0.421629 -0.2198,-0.448605 -0.22181,-0.335705 -0.16485,-0.280753 v -0.390656 l 0.13688,-0.390656 0.1099,-0.308729 0.16385,-0.335704 0.19184,-0.393654 0.0829,-0.335704 0.16386,-0.389657 0.19183,-0.36368 0.27776,-0.449605 0.27775,-0.671409 0.33171,-0.616457 0.38766,-0.952162 0.30473,-0.67141 0.38766,-0.784309 0.2218,-0.476581 0.30573,-0.280753 0.22181,0.139877 0.13788,0.36368 0.2218,0.561506 0.21981,0.390656 0.27775,0.616458 0.27676,0.644432 0.24978,0.561506 0.27776,0.503557 0.35968,0.729358 0.27776,0.391656 0.028,0.389657 z m 10.03717,-3.854608 -0.33571,1.049076 -0.30873,1.020103 -0.27975,0.96615 -0.41963,1.07905 -0.44761,1.589601 -0.39065,1.531652 -0.28076,1.305851 -0.39065,1.191951 -0.22281,-0.1129 -0.28075,-0.425626 -0.3357,-0.424626 -0.33571,-0.5685 -0.47658,-0.569499 -0.50356,-0.680401 -0.64443,-0.767325 -0.55751,-0.651427 -0.3357,-0.482575 -0.44961,-0.510551 -0.55851,-0.623451 -0.41063,-0.510551 -0.38966,-0.538526 -0.30973,-0.568499 -0.13988,-0.397651 -0.36368,-0.28375 -0.36268,-0.651427 -0.28075,-0.482575 -0.4496,-0.96615 -0.44861,-1.191951 -0.19483,-0.623451 -0.24978,-0.7953 v -2.35293 l 0.22281,-0.284749 0.19482,-0.198825 0.38966,-0.05795 0.36368,-0.112901 h 0.41863 l 0.13988,-0.311726 0.16785,-0.2268 0.24978,-0.197826 0.24978,-0.171849 0.22381,-0.225801 0.64343,-0.02797 0.50356,-0.02698 0.24978,-0.199824 0.2238,-0.111901 0.24978,0.1129 0.24978,0.17085 0.24978,0.199824 0.28175,0.05695 h 0.38966 l 0.53153,-0.02698 0.22281,-0.171849 0.36268,-0.02698 0.69938,0.02698 0.83926,0.02798 0.50356,0.02698 0.28075,0.140876 0.30873,0.08592 0.2228,-0.139877 0.36269,-0.171849 0.30872,0.08493 0.27976,0.39765 0.2238,0.483574 0.27975,0.451603 0.16886,0.538526 0.13987,0.822276 0.055,0.821278 0.055,1.445727 0.028,0.510551 -0.19583,0.596475 z m 4.35117,1.819399 -0.16486,0.990128 -0.19183,0.606467 -0.1099,0.794301 -0.16386,0.576492 -0.13688,0.465591 -0.19183,0.383662 -0.16485,0.109903 -0.27376,-0.32971 -0.27476,-0.245783 -0.35569,-0.32971 -0.46659,-0.437615 -0.49256,-0.439613 -0.49357,-0.300736 -0.38366,-0.301734 -0.30174,-0.246783 0.0819,-0.383662 0.10991,-0.246783 0.16485,-0.547518 0.19183,-0.689394 0.1099,-0.629446 0.21881,-0.466589 0.13688,-0.547518 0.24678,-0.46659 0.35669,0.274758 0.32871,0.355687 0.41064,0.411638 0.43961,0.383663 0.5745,0.410638 0.54851,0.301735 0.27376,0.32971 z m 8.60542,1.545639 -0.23978,0.08493 -0.40065,-0.112901 -0.40065,-0.225801 -0.4566,-0.225802 -0.39965,-0.113899 -0.45659,-0.252778 -0.66742,-0.394653 -0.74734,-0.197826 -0.72236,-0.281752 -0.61346,-0.167852 -0.61346,-0.279754 -0.40065,-0.309727 -0.9082,-0.393654 -0.98613,-0.421629 -0.69539,-0.338702 -0.61346,-0.534529 -0.42862,-0.424627 -0.3457,-0.311725 -0.29474,-0.452602 -0.37367,-0.506554 -0.21182,-0.507554 -0.16085,-0.393653 -0.16086,-0.393654 -0.055,-0.619455 -0.13389,-0.593477 -0.13388,-0.53453 -0.13288,-0.479578 -0.13388,-0.393654 -0.13389,-0.366677 -0.16085,-0.366677 -0.18884,-0.393654 -0.15986,-0.339701 -0.16186,-0.311725 -0.028,-0.787308 0.0799,-0.593477 0.18783,-0.451603 0.21182,-0.311726 0.29474,-0.339701 0.23979,-0.339701 0.42862,-0.479578 0.26676,-0.197826 0.26777,-0.05495 0.16086,-0.112901 0.74734,-0.05495 0.39965,-0.05495 0.056,-0.225802 0.18783,-0.08592 0.16086,-0.112901 0.93518,-0.02797 0.18883,-0.112901 0.29474,-0.02698 0.23979,-0.139877 h 0.4556 l 0.18784,-0.08692 0.18983,-0.112901 0.15986,-0.252778 0.13388,-0.2268 0.23979,-0.252777 0.21281,-0.199825 0.4556,-0.02698 0.42763,0.112901 0.34669,0.167852 0.42762,0.311726 0.40065,0.366677 0.4556,0.366677 0.40065,0.421629 0.47958,0.53453 0.53453,0.732355 0.37367,0.565503 0.29474,0.565502 0.21281,0.846255 0.15986,0.53453 0.18983,0.787307 0.21182,0.819279 0.055,2.39789 0.055,2.199065 0.18783,2.255016 0.10691,1.746463 0.0789,0.2268 z m 6.17957,-7.988969 -0.14388,0.229797 -0.027,0.403645 v 0.811286 l 0.0859,0.86424 0.0849,0.201822 v 0.328711 l -0.058,0.32971 -0.28775,0.04996 -0.31472,-0.02298 -0.3467,-0.07593 -0.37267,-0.149868 -0.48957,-0.178843 -0.91919,-0.277755 -0.57549,-0.101911 -0.85925,-0.05195 -0.57549,-0.126888 -0.3467,-0.229798 -0.11589,-0.304732 -0.028,-0.506554 0.028,-0.507554 0.058,-0.276756 0.20182,-0.178843 0.2298,-0.07493 0.25677,-0.102909 0.3457,-0.126889 0.37367,-0.07493 0.40064,-0.126888 0.40165,-0.07493 0.43162,-0.07593 0.25678,-0.149868 0.80529,-0.05195 0.14387,-0.07593 h 1.17896 l 0.16985,0.380665 v 0.325714 z m 2.16209,-7.183679 0.93518,1.368796 0.73635,1.076053 0.79131,1.049077 0.7913,0.969147 0.25378,0.43162 -0.1129,0.294741 -0.19883,0.105906 -0.42462,-0.105906 -0.67841,-0.08193 -1.64055,0.02698 h -1.24691 l -1.5866,-0.05495 -1.64056,0.106906 -0.47958,0.105907 -0.6794,0.08193 -0.70937,0.188834 -0.67741,0.05495 -0.42462,0.105907 -0.4526,0.133882 -0.25278,-0.243785 -0.14088,-0.455599 -0.058,-0.565503 -0.0859,-0.482575 -0.2258,-0.969147 -0.3397,-0.860243 -0.31173,-0.699385 -0.31173,-0.537526 -0.73635,-0.832268 -0.5655,-0.726361 -0.5655,-0.404644 -0.50955,-0.43162 -0.59648,-0.482575 -0.59647,-0.455599 -0.53753,-0.321717 -0.28475,-0.267765 -0.13988,-0.266765 0.027,-0.404644 0.028,-0.644433 0.13988,-0.293741 0.14088,-0.267765 0.28475,-0.242786 0.19882,-0.243785 0.2258,-0.187835 0.25378,-0.106906 0.19882,-0.159859 0.25278,-0.106906 0.28475,-0.105907 0.4516,-0.08293 0.28475,-0.187835 0.3397,-0.160858 0.33871,-0.243786 h 0.70937 l 0.59548,-0.02698 0.2268,-0.21581 0.31172,-0.08293 h 0.36668 l 0.19783,0.161857 0.2268,0.15986 0.42462,0.29574 0.47958,0.293741 0.79131,0.188834 0.62345,0.321717 0.98913,0.322716 0.70937,0.29474 0.87823,0.242787 0.31173,0.349692 0.17085,0.403645 0.19882,0.404644 0.25378,0.455599 0.2258,0.160858 0.42462,0.671409 0.31173,0.754337 z m 5.3483,-7.907042 0.84226,0.938175 0.72935,0.702382 0.11291,0.311725 -0.0849,0.287747 -0.2258,0.157861 -1.12401,0.02698 -0.2258,0.102909 -1.09704,0.02797 -0.90021,0.05096 -0.50755,0.129885 -1.06906,-0.05095 -0.36668,-0.129886 -1.20893,-0.129885 -0.98314,-0.07993 -0.6754,-0.259771 -0.92819,-0.209816 -0.98313,-0.310726 -0.76033,-0.259772 -0.70238,-0.26077 -0.84226,-0.390656 -0.67541,-0.390657 -0.6744,-0.36368 -0.39466,-0.36268 -0.39365,-0.441612 -0.42163,-0.339701 -0.19483,-0.389657 -0.1129,-0.26077 v -0.442611 l -0.028,-0.571497 0.0859,-0.548517 0.1129,-0.208817 0.1129,-0.339701 0.1129,-0.287746 0.1129,-0.208817 0.055,-0.492566 -0.027,-0.418632 0.055,-0.469587 0.0849,-0.208816 0.055,-0.259771 -0.027,-0.36368 -0.16785,-0.180841 -0.0859,-0.233794 -0.1129,-0.180841 0.16786,-0.209816 0.055,-0.208816 0.13987,-0.180841 0.0859,-0.36368 0.13988,-0.232795 0.0859,-0.129885 0.2268,-0.209816 0.25278,-0.04996 0.16785,0.179842 h 0.42163 l 0.4496,0.15886 1.09504,0.180841 0.87023,0.129886 0.56251,0.18184 0.58948,0.18184 0.67441,0.339701 0.5615,0.339701 0.50756,0.338702 0.5615,0.519542 0.50756,0.18184 0.25277,0.311726 0.39466,0.390656 0.4486,0.521541 0.53453,0.469587 0.58948,0.88622 1.14999,1.250899 1.15199,1.431741 z m -1.09304,-3.751698 -0.51055,-0.02797 -0.62345,-0.448606 -0.2268,-0.318719 -0.33871,-0.342699 -0.28474,-0.341699 -0.28375,-0.342698 -0.39765,-0.39765 -0.59648,-0.39765 -0.31173,-0.448606 -0.53752,-0.369674 -0.36968,-0.449605 -0.31172,-0.289745 0.027,-0.319718 0.14088,-0.211814 0.39765,-0.05495 0.42463,-0.133882 0.50955,-0.105907 1.04907,-0.05195 1.04908,0.02798 0.4516,0.157862 0.31173,0.211813 0.36967,0.263768 0.42463,0.212813 0.36967,0.184837 0.39765,0.39765 0.59648,0.369675 0.73635,0.318719 0.48358,0.290745 0.84925,0.346694 0.48357,0.239789 0.027,0.239789 -0.17085,0.211814 -0.53853,0.212813 -0.50955,0.211813 -0.65142,0.239789 -0.65143,0.263768 -0.6814,0.239789 -0.5695,0.185837 z"
     class="st2" /><path
     stroke-width="0.0339701"
     id="path18"
     d="m 189.06362,79.746823 c -0.36967,-0.462593 -0.9042,-0.671409 -1.11302,-1.15898 v -0.300736 l 2.10715,-2.733594 c 7.41348,-10.428823 8.1808,-22.6141 2.70961,-33.737311 -6.48829,-14.15954 -17.70142,-22.870874 -33.36763,-26.903325 -2.10615,-0.345696 -4.33319,-1.066062 -6.18656,-0.671409 4.42611,1.342818 9.33878,3.337063 13.2983,5.909799 9.52462,5.768923 16.96207,16.5904 18.90736,28.707737 1.52866,7.228639 -0.20881,16.334626 -5.58408,22.103549 l -0.4626,0.116897 c -1.27388,-0.740348 -2.10614,-1.737471 -3.405,-2.710615 A 570.26517,570.26517 0 0 1 161.20914,55.62505 c -0.16086,-0.208816 -0.2328,-0.345696 -0.2328,-0.441611 2.40788,-3.220167 5.14547,-5.632044 7.55335,-8.760291 l -0.11589,-0.300736 -9.40773,-3.799656 c -2.24802,1.853369 -3.70673,4.19331 -5.677,6.001718 -1.34282,-0.159859 -1.73647,-1.575613 -2.84949,-1.808408 -1.39078,1.18196 -2.68964,2.407881 -3.47694,3.915554 l 2.01423,2.062185 0.15985,0.442611 c -2.40788,3.244145 -5.23739,5.724962 -7.48441,8.780273 l 6.95088,6.210535 0.30174,0.06894 c 2.87347,-2.524778 5.00559,-5.608065 7.73819,-8.108864 h 0.27775 c 0.55452,0.369675 0.90421,0.763328 1.45872,1.225921 5.19043,4.751819 10.5657,9.52362 15.5713,14.320398 l 0.0679,0.276757 c -1.11302,1.22692 -3.01135,1.970266 -4.58597,2.572736 -11.88853,4.471065 -26.43773,0.161857 -35.89341,-8.015946 l -0.2328,0.139877 -6.27947,17.122932 c 0.3457,0.764327 0.97314,1.11302 1.64455,1.828391 1.66854,1.298857 2.66566,3.871593 5.0056,3.776676 0.85625,-0.233794 1.59859,-0.857245 1.76045,-1.600591 0.71937,-2.038207 -1.3668,-3.103269 -2.13113,-4.402126 0.90421,-2.407881 2.40789,-4.819759 4.00848,-6.649149 h 0.30173 c 0.39366,0.208816 0.60247,0.441611 0.90421,0.60247 13.57605,9.082007 29.84573,10.14707 43.90836,2.131124 l 11.91151,10.6816 h 0.20982 c 1.66853,-1.668531 3.26713,-3.405003 4.542,-5.258372 z"
     class="st2" /><path
     stroke-width="0.0339701"
     id="path20"
     d="m 131.45232,25.618456 7.52638,-5.049557 6.43733,4.788786 -3.04532,-7.834106 5.86484,-3.402006 h -7.24962 l -2.36991,-7.3315482 -2.77156,7.2865882 h -6.83799 l 5.94377,3.723723 z m 0.47958,-10.883423 h 4.75182 l 1.9253,-5.0605465 1.64755,5.0945165 h 5.03557 l -4.07241,2.36392 2.11713,5.44321 -4.47106,-3.327072 -5.2284,3.508912 2.42586,-5.433219 z"
     class="st2" /><path
     stroke-width="0.0339701"
     id="path22"
     d="m 94.049237,56.78403 -4.135361,-12.306171 -1.68152,-4.974622 h 3.846615 l 3.459955,12.305172 0.239789,0.7953 h 0.04796 l 3.508912,-12.305172 0.239789,-0.7953 h 3.746704 l -4.157343,12.305172 -1.705499,4.975621 z m -20.527936,0 V 39.502238 h 12.713812 v 3.052314 h -9.18192 v 3.676764 h 8.438574 v 3.027336 h -8.439573 v 4.471066 h 9.565582 v 3.052314 z M 61.096235,47.577132 h 3.36404 c 1.120014,0 1.843378,-0.219806 2.162097,-0.661418 0.321717,-0.441611 0.479578,-1.062065 0.479578,-1.86336 0.02997,-0.832268 -0.143873,-1.466709 -0.527535,-1.89833 -0.383663,-0.43162 -1.226921,-0.64743 -2.524779,-0.64743 h -2.957397 v 5.070538 z m -3.627807,9.2049 V 39.503237 h 7.977979 c 1.665535,0 2.960395,0.507554 3.881584,1.524658 0.922189,1.017105 1.380785,2.311966 1.380785,3.881585 0,1.650547 -0.417632,3.000359 -1.2499,4.049436 -0.833267,1.048078 -2.220046,1.575614 -4.15934,1.575614 h -4.206298 v 6.248501 z m -9.157941,-5.165455 v -3.149228 h 6.729078 v 3.148229 z m -11.2501,-4.039445 h 3.36404 c 1.121013,0 1.843377,-0.219806 2.162097,-0.661418 0.321717,-0.441611 0.479578,-1.062065 0.479578,-1.86336 0.02997,-0.832268 -0.143874,-1.466709 -0.527536,-1.89833 -0.383662,-0.43162 -1.22692,-0.64743 -2.524778,-0.64743 H 37.05639 v 5.070538 z m -3.627808,9.2049 V 39.503237 h 7.978979 c 1.664535,0 2.959396,0.507554 3.881584,1.524658 0.921189,1.017105 1.379786,2.311966 1.379786,3.881585 0,1.650547 -0.417633,3.000359 -1.2499,4.049436 -0.832268,1.048078 -2.220047,1.575614 -4.15934,1.575614 H 37.05739 v 6.248501 z M 15.309528,47.816921 c 0.04796,-1.394772 0.263768,-2.62469 0.648429,-3.689753 0.383662,-1.065063 0.924187,-1.980257 1.623571,-2.740588 a 6.9418911,6.9418911 0 0 1 2.5008,-1.743466 c 0.969147,-0.401646 2.038206,-0.599472 3.210175,-0.599472 1.410758,0 2.651666,0.266765 3.723723,0.804292 1.072056,0.538526 1.925305,1.26089 2.558748,2.176085 0.633443,0.914195 1.014108,1.969267 1.140996,3.172208 h -3.627808 c -0.479578,-1.970266 -1.698505,-2.973383 -3.651786,-3.004356 -1.44273,0 -2.548757,0.544521 -3.317081,1.633563 -0.769323,1.089041 -1.167972,2.603708 -1.201942,4.543002 0.02997,0.02997 0.04796,0.07893 0.04796,0.143873 0.02997,1.555631 0.407641,2.877468 1.131004,3.96651 0.722365,1.089041 1.736472,1.634561 3.052314,1.634561 2.14811,0 3.459955,-1.082048 3.942531,-3.244145 h 3.627807 c -0.352689,1.891336 -1.160978,3.425985 -2.427863,4.603949 -1.264887,1.178962 -2.933419,1.774438 -4.998601,1.792422 -2.339941,0 -4.258253,-0.757333 -5.754936,-2.272 -1.498681,-1.513668 -2.255016,-3.736712 -2.272001,-6.670131 0.02698,-0.143873 0.04396,-0.314723 0.04396,-0.506554 z M 3.6278075,47.577132 h 3.3640397 c 1.1200144,0 1.8433778,-0.219806 2.1620973,-0.661418 0.3217169,-0.441611 0.479578,-1.062065 0.479578,-1.86336 0.029974,-0.832268 -0.1438734,-1.466709 -0.5275358,-1.89833 -0.3836623,-0.43162 -1.2269203,-0.64743 -2.5247782,-0.64743 H 3.623811 v 5.070538 z M 0,56.783031 V 39.503237 h 7.9789785 c 1.6645352,0 2.9593955,0.507554 3.8815845,1.524658 0.921189,1.017105 1.379785,2.311966 1.379785,3.881585 0,1.650547 -0.417632,3.000359 -1.2499,4.049436 -0.832267,1.048078 -2.220046,1.575614 -4.1593394,1.575614 H 3.6278075 v 6.248501 z"
     class="st2 pcp_pev" /></svg>
