<?xml version="1.0" encoding="UTF-8" standalone="no"?>
<!-- Created with Inkscape (http://www.inkscape.org/) -->

<svg
   xmlns:dc="http://purl.org/dc/elements/1.1/"
   xmlns:cc="http://creativecommons.org/ns#"
   xmlns:rdf="http://www.w3.org/1999/02/22-rdf-syntax-ns#"
   xmlns:svg="http://www.w3.org/2000/svg"
   xmlns="http://www.w3.org/2000/svg"
   version="1.1"
   width="715.74799"
   height="315.35431"
   id="svg3436">
  <defs
     id="defs3438">
    <clipPath
       id="clipPath3267">
      <path
         d="m 0,0 765.354,0 0,1077.165 L 0,1077.165 0,0 z"
         id="path3269" />
    </clipPath>
    <clipPath
       id="clipPath3247">
      <path
         d="m 0,0 765.354,0 0,1077.165 L 0,1077.165 0,0 z"
         id="path3249" />
    </clipPath>
    <clipPath
       id="clipPath3207">
      <path
         d="m 0,0 765.354,0 0,1077.165 L 0,1077.165 0,0 z"
         id="path3209" />
    </clipPath>
    <clipPath
       id="clipPath3187">
      <path
         d="m 0,0 765.354,0 0,1077.165 L 0,1077.165 0,0 z"
         id="path3189" />
    </clipPath>
    <clipPath
       id="clipPath3167">
      <path
         d="m 0,0 765.354,0 0,1077.165 L 0,1077.165 0,0 z"
         id="path3169" />
    </clipPath>
  </defs>
  <metadata
     id="metadata3441">
    <rdf:RDF>
      <cc:Work
         rdf:about="">
        <dc:format>image/svg+xml</dc:format>
        <dc:type
           rdf:resource="http://purl.org/dc/dcmitype/StillImage" />
        <dc:title></dc:title>
      </cc:Work>
    </rdf:RDF>
  </metadata>
  <g
     transform="translate(-15.27815,-356.92526)"
     id="layer1">
    <g
       transform="matrix(8.7345642,0,0,8.7345642,-2375.0638,-2681.2151)"
       id="g3591">
      <g
         transform="matrix(1.25,0,0,-1.25,-517.85873,1467.9262)"
         id="g3163">
        <g
           clip-path="url(#clipPath3167)"
           id="g3165">
          <g
             transform="translate(691.5226,883.7609)"
             id="g3171">
            <path
               d="m 0,0 -7.423,0 -1.905,-7.386 c -0.191,0.853 -0.846,1.52 -2.046,1.973 -1.454,0.559 -3.573,0.92 -4.702,1.209 -0.616,0.162 -0.937,0.361 -0.816,0.83 0.103,0.397 0.634,0.758 1.641,0.758 0.81,0 1.288,-0.271 1.1,-1.083 l 5.606,0 c 0.782,3.031 -1.914,4.042 -5.855,4.042 -3.843,0 -6.594,-1.062 -7.814,-2.976 C -22.472,-1.052 -23.931,0 -26.825,0 l -9.197,0 -3.36,-13.027 6.263,0 1.131,4.384 2.058,0 c 3.68,0 6.037,1.225 7.112,3.132 0.232,-0.851 0.978,-1.486 2.441,-1.869 l 4.166,-1.082 c 0.554,-0.145 0.948,-0.397 0.823,-0.884 -0.149,-0.578 -0.866,-1.065 -1.786,-1.065 -0.591,0 -0.943,0.163 -1.119,0.415 -0.171,0.271 -0.166,0.632 -0.073,0.992 l -5.999,0 c -0.875,-3.392 2.377,-4.366 6.187,-4.366 3.639,0 6.634,0.886 8.065,2.941 l -0.67,-2.598 7.795,0 c 4.862,0 8.599,2.436 9.614,6.369 C 7.622,-2.797 6.328,0 0,0 m -28.322,-4.276 c -0.237,-0.92 -0.976,-1.408 -2.596,-1.408 l -0.307,0 0.703,2.725 0.657,0 c 1.357,0 1.78,-0.397 1.543,-1.317 M 0.181,-6.514 c -0.325,-1.263 -0.694,-2.183 -1.25,-2.724 -0.529,-0.523 -1.199,-0.83 -2.207,-0.83 l -0.613,0 1.834,7.109 0.613,0 c 1.007,0 1.519,-0.307 1.779,-0.83 0.276,-0.541 0.17,-1.461 -0.156,-2.725"
               id="path3173"
               style="fill:#000000;fill-opacity:1;fill-rule:nonzero;stroke:none" />
          </g>
          <g
             transform="translate(651.2693,867.5651)"
             id="g3175">
            <path
               d="m 0,0 0.276,0 0.248,0.877 0.375,0 C 1.268,0.886 1.645,1.018 1.763,1.435 1.886,1.871 1.605,2.009 1.231,1.992 l -0.668,0 L 0,0 z m 0.591,1.115 0.181,0.64 0.433,0 c 0.033,0 0.363,0.016 0.268,-0.32 C 1.378,1.098 1.057,1.115 1.024,1.115 l -0.433,0 z"
               id="path3177"
               style="fill:#000000;fill-opacity:1;fill-rule:nonzero;stroke:none" />
          </g>
        </g>
      </g>
      <g
         transform="matrix(1.25,0,0,-1.25,298.38214,383.46985)"
         id="g3179">
        <path
           d="m 0,0 0.362,0.519 0.924,0 L 1.355,0 1.656,0 1.413,1.992 1.117,1.992 -0.284,0 0,0 z m 1.175,1.719 0.09,-0.963 -0.742,0 0.652,0.963 z"
           id="path3181"
           style="fill:#000000;fill-opacity:1;fill-rule:nonzero;stroke:none" />
      </g>
      <g
         transform="matrix(1.25,0,0,-1.25,-517.85873,1467.9262)"
         id="g3183">
        <g
           clip-path="url(#clipPath3187)"
           id="g3185">
          <g
             transform="translate(655.8445,869.32)"
             id="g3191">
            <path
               d="M 0,0 0.455,0 C 0.758,-0.014 0.788,-0.152 0.743,-0.309 0.699,-0.466 0.591,-0.604 0.281,-0.618 l -0.456,0 L 0,0 z m 0.15,-0.855 c 0.108,-0.009 0.221,0 0.275,-0.092 C 0.488,-1.046 0.442,-1.209 0.414,-1.388 0.394,-1.507 0.39,-1.636 0.382,-1.755 l 0.295,0 c -0.019,0.188 0.019,0.4 0.045,0.599 0.033,0.224 0.035,0.35 -0.188,0.408 l 0.001,0.006 c 0.248,0.055 0.443,0.24 0.511,0.48 0.112,0.395 -0.204,0.499 -0.537,0.499 l -0.712,0 -0.563,-1.992 0.276,0 0.254,0.9 0.386,0 z"
               id="path3193"
               style="fill:#000000;fill-opacity:1;fill-rule:nonzero;stroke:none" />
          </g>
        </g>
      </g>
      <g
         transform="matrix(1.25,0,0,-1.25,303.97889,383.46985)"
         id="g3195">
        <path
           d="m 0,0 0.276,0 0.496,1.755 0.667,0 0.067,0.237 -1.611,0 -0.067,-0.237 0.668,0 L 0,0 z"
           id="path3197"
           style="fill:#000000;fill-opacity:1;fill-rule:nonzero;stroke:none" />
      </g>
      <g
         transform="matrix(1.25,0,0,-1.25,306.41977,380.97934)"
         id="g3199">
        <path
           d="m 0,0 -0.563,-1.993 0.276,0 L 0.275,0 0,0 z"
           id="path3201"
           style="fill:#000000;fill-opacity:1;fill-rule:nonzero;stroke:none" />
      </g>
      <g
         transform="matrix(1.25,0,0,-1.25,-517.85873,1467.9262)"
         id="g3203">
        <g
           clip-path="url(#clipPath3207)"
           id="g3205">
          <g
             transform="translate(660.5604,869.32)"
             id="g3211">
            <path
               d="M 0,0 0.403,0 C 0.682,0 0.799,-0.113 0.844,-0.226 0.914,-0.397 0.897,-0.574 0.845,-0.759 0.793,-0.944 0.71,-1.12 0.543,-1.291 0.434,-1.404 0.253,-1.518 -0.026,-1.518 l -0.403,0 L 0,0 z m -0.772,-1.755 0.662,0 c 0.187,0.006 0.387,0.019 0.575,0.122 0.342,0.184 0.563,0.496 0.67,0.874 0.107,0.378 0.062,0.69 -0.175,0.875 C 0.829,0.218 0.637,0.232 0.453,0.237 l -0.662,0 -0.563,-1.992 z"
               id="path3213"
               style="fill:#000000;fill-opacity:1;fill-rule:nonzero;stroke:none" />
          </g>
          <g
             transform="translate(662.1475,868.5612)"
             id="g3215">
            <path
               d="m 0,0 c -0.165,-0.582 -0.003,-1.037 0.617,-1.037 0.621,0 1.04,0.455 1.204,1.037 C 1.985,0.582 1.824,1.037 1.204,1.037 0.583,1.037 0.164,0.582 0,0 M 0.29,0 C 0.41,0.425 0.632,0.8 1.137,0.8 1.642,0.8 1.651,0.425 1.531,0 1.414,-0.414 1.189,-0.8 0.685,-0.8 0.18,-0.8 0.173,-0.414 0.29,0"
               id="path3217"
               style="fill:#000000;fill-opacity:1;fill-rule:nonzero;stroke:none" />
          </g>
          <g
             transform="translate(665.2657,868.1473)"
             id="g3219">
            <path
               d="m 0,0 c -0.137,-0.447 0.116,-0.624 0.533,-0.624 0.403,0 0.853,0.161 0.981,0.613 C 1.656,0.491 1.157,0.491 0.823,0.61 0.665,0.665 0.509,0.679 0.573,0.905 0.64,1.143 0.928,1.214 1.124,1.214 c 0.198,0 0.364,-0.077 0.312,-0.301 l 0.29,0 C 1.835,1.3 1.544,1.451 1.205,1.451 0.832,1.451 0.393,1.291 0.27,0.858 0.144,0.411 0.669,0.337 0.977,0.265 1.133,0.232 1.271,0.152 1.216,-0.041 1.137,-0.32 0.843,-0.386 0.616,-0.386 0.349,-0.386 0.216,-0.281 0.29,0 L 0,0 z"
               id="path3221"
               style="fill:#000000;fill-opacity:1;fill-rule:nonzero;stroke:none" />
          </g>
          <g
             transform="translate(667.3964,868.5612)"
             id="g3223">
            <path
               d="M 0,0 C -0.165,-0.582 -0.004,-1.037 0.617,-1.037 1.238,-1.037 1.656,-0.582 1.821,0 1.985,0.582 1.824,1.037 1.203,1.037 0.583,1.037 0.164,0.582 0,0 M 0.29,0 C 0.41,0.425 0.632,0.8 1.137,0.8 1.641,0.8 1.651,0.425 1.531,0 1.414,-0.414 1.189,-0.8 0.684,-0.8 0.179,-0.8 0.173,-0.414 0.29,0"
               id="path3225"
               style="fill:#000000;fill-opacity:1;fill-rule:nonzero;stroke:none" />
          </g>
          <g
             transform="translate(671.4198,869.0441)"
             id="g3227">
            <path
               d="M 0,0 C 0.07,0.356 -0.164,0.544 -0.544,0.555 -1.206,0.574 -1.582,0.005 -1.72,-0.483 -1.878,-1.04 -1.779,-1.52 -1.191,-1.52 c 0.389,0 0.788,0.22 0.91,0.554 l -0.29,0 c -0.093,-0.212 -0.316,-0.317 -0.528,-0.317 -0.434,0 -0.448,0.389 -0.332,0.8 0.1,0.351 0.317,0.8 0.809,0.8 C -0.418,0.317 -0.25,0.19 -0.29,0 L 0,0 z"
               id="path3229"
               style="fill:#000000;fill-opacity:1;fill-rule:nonzero;stroke:none" />
          </g>
        </g>
      </g>
      <g
         transform="matrix(1.25,0,0,-1.25,322.23839,380.97934)"
         id="g3231">
        <path
           d="m 0,0 -0.563,-1.993 0.276,0 L 0.275,0 0,0 z"
           id="path3233"
           style="fill:#000000;fill-opacity:1;fill-rule:nonzero;stroke:none" />
      </g>
      <g
         transform="matrix(1.25,0,0,-1.25,322.77865,383.46985)"
         id="g3235">
        <path
           d="m 0,0 0.362,0.519 0.924,0 L 1.355,0 1.656,0 1.413,1.992 1.117,1.992 -0.284,0 0,0 z m 1.176,1.719 0.089,-0.963 -0.742,0 0.653,0.963 z"
           id="path3237"
           style="fill:#000000;fill-opacity:1;fill-rule:nonzero;stroke:none" />
      </g>
      <g
         transform="matrix(1.25,0,0,-1.25,326.91364,383.46985)"
         id="g3239">
        <path
           d="m 0,0 0.067,0.237 -0.927,0 0.496,1.755 -0.276,0 L -1.203,0 0,0 z"
           id="path3241"
           style="fill:#000000;fill-opacity:1;fill-rule:nonzero;stroke:none" />
      </g>
      <g
         transform="matrix(1.25,0,0,-1.25,-517.85873,1467.9262)"
         id="g3243">
        <g
           clip-path="url(#clipPath3247)"
           id="g3245">
          <g
             transform="translate(678.004,869.32)"
             id="g3251">
            <path
               d="M 0,0 0.403,0 C 0.681,0 0.798,-0.113 0.844,-0.226 0.914,-0.397 0.897,-0.574 0.845,-0.759 0.793,-0.944 0.71,-1.12 0.543,-1.291 0.434,-1.404 0.253,-1.518 -0.026,-1.518 l -0.403,0 L 0,0 z m -0.772,-1.755 0.663,0 c 0.186,0.006 0.386,0.019 0.575,0.122 0.342,0.184 0.562,0.496 0.669,0.874 0.107,0.378 0.062,0.69 -0.175,0.875 C 0.829,0.218 0.637,0.232 0.453,0.237 l -0.662,0 -0.563,-1.992 z"
               id="path3253"
               style="fill:#000000;fill-opacity:1;fill-rule:nonzero;stroke:none" />
          </g>
        </g>
      </g>
      <g
         transform="matrix(1.25,0,0,-1.25,332.92377,383.46985)"
         id="g3255">
        <path
           d="m 0,0 0.067,0.237 -0.996,0 0.186,0.66 0.927,0 0.067,0.237 -0.927,0 0.176,0.621 0.974,0 0.067,0.237 -1.25,0 L -1.272,0 0,0 z"
           id="path3257"
           style="fill:#000000;fill-opacity:1;fill-rule:nonzero;stroke:none" />
      </g>
      <g
         transform="matrix(1.25,0,0,-1.25,335.98139,383.46985)"
         id="g3259">
        <path
           d="m 0,0 0.276,0 0.563,1.992 -0.461,0 -1.027,-1.642 -0.005,0 -0.11,1.642 -0.494,0 L -1.821,0 l 0.276,0 0.507,1.794 0.005,0 0.131,-1.794 0.259,0 1.144,1.794 0.006,0 L 0,0 z"
           id="path3261"
           style="fill:#000000;fill-opacity:1;fill-rule:nonzero;stroke:none" />
      </g>
      <g
         transform="matrix(1.25,0,0,-1.25,-517.85873,1467.9262)"
         id="g3263">
        <g
           clip-path="url(#clipPath3267)"
           id="g3265">
          <g
             transform="translate(684.2108,868.5612)"
             id="g3271">
            <path
               d="M 0,0 C -0.164,-0.582 -0.003,-1.037 0.618,-1.037 1.239,-1.037 1.657,-0.582 1.821,0 1.986,0.582 1.825,1.037 1.204,1.037 0.583,1.037 0.165,0.582 0,0 M 0.29,0 C 0.41,0.425 0.632,0.8 1.137,0.8 1.642,0.8 1.652,0.425 1.532,0 1.415,-0.414 1.19,-0.8 0.685,-0.8 0.18,-0.8 0.173,-0.414 0.29,0"
               id="path3273"
               style="fill:#000000;fill-opacity:1;fill-rule:nonzero;stroke:none" />
          </g>
          <g
             transform="translate(688.2345,869.0441)"
             id="g3275">
            <path
               d="M 0,0 C 0.07,0.356 -0.164,0.544 -0.544,0.555 -1.206,0.574 -1.582,0.005 -1.72,-0.483 -1.877,-1.04 -1.779,-1.52 -1.191,-1.52 c 0.389,0 0.788,0.22 0.91,0.554 l -0.29,0 c -0.093,-0.212 -0.316,-0.317 -0.528,-0.317 -0.434,0 -0.448,0.389 -0.331,0.8 0.098,0.351 0.317,0.8 0.808,0.8 C -0.418,0.317 -0.25,0.19 -0.29,0 L 0,0 z"
               id="path3277"
               style="fill:#000000;fill-opacity:1;fill-rule:nonzero;stroke:none" />
          </g>
          <g
             transform="translate(689.0873,869.32)"
             id="g3279">
            <path
               d="M 0,0 0.455,0 C 0.757,-0.014 0.788,-0.152 0.743,-0.309 0.699,-0.466 0.591,-0.604 0.281,-0.618 l -0.456,0 L 0,0 z m 0.15,-0.855 c 0.108,-0.009 0.221,0 0.275,-0.092 C 0.488,-1.046 0.442,-1.209 0.414,-1.388 0.394,-1.507 0.391,-1.636 0.382,-1.755 l 0.295,0 c -0.019,0.188 0.019,0.4 0.045,0.599 0.033,0.224 0.035,0.35 -0.188,0.408 l 0.001,0.006 c 0.247,0.055 0.444,0.24 0.511,0.48 0.112,0.395 -0.204,0.499 -0.537,0.499 l -0.712,0 -0.563,-1.992 0.276,0 0.254,0.9 0.386,0 z"
               id="path3281"
               style="fill:#000000;fill-opacity:1;fill-rule:nonzero;stroke:none" />
          </g>
        </g>
      </g>
      <g
         transform="matrix(1.25,0,0,-1.25,345.13914,383.46985)"
         id="g3283">
        <path
           d="m 0,0 0.362,0.519 0.924,0 L 1.355,0 1.655,0 1.413,1.992 1.117,1.992 -0.284,0 0,0 z m 1.175,1.719 0.09,-0.963 -0.743,0 0.653,0.963 z"
           id="path3285"
           style="fill:#000000;fill-opacity:1;fill-rule:nonzero;stroke:none" />
      </g>
      <g
         transform="matrix(1.25,0,0,-1.25,348.07752,383.46985)"
         id="g3287">
        <path
           d="m 0,0 0.276,0 0.496,1.755 0.667,0 0.067,0.237 -1.611,0 -0.067,-0.237 0.668,0 L 0,0 z"
           id="path3289"
           style="fill:#000000;fill-opacity:1;fill-rule:nonzero;stroke:none" />
      </g>
      <g
         transform="matrix(1.25,0,0,-1.25,349.63802,383.46985)"
         id="g3291">
        <path
           d="m 0,0 0.362,0.519 0.924,0 L 1.355,0 1.656,0 1.413,1.992 1.118,1.992 -0.284,0 0,0 z m 1.176,1.719 0.089,-0.963 -0.742,0 0.653,0.963 z"
           id="path3293"
           style="fill:#000000;fill-opacity:1;fill-rule:nonzero;stroke:none" />
      </g>
      <g
         transform="matrix(1.25,0,0,-1.25,286.18052,364.44922)"
         id="g3303">
        <path
           d="M 0,0 C 0.066,0.254 -0.034,0.425 -0.318,0.425 L -7.43,0.427 c -1.243,0 -1.703,1.269 -0.933,2.153 L 1.712,12.614 c 0.47,0.468 1.241,0.47 1.712,0.004 l 9.387,-8.122 c 0.472,-0.465 0.305,-0.86 -0.358,-0.86 L 6.78,3.638 2.307,-14.041 c -0.141,-0.647 -0.799,-1.177 -1.462,-1.177 l -9.551,0 c -0.663,0 -1.093,0.53 -0.957,1.179 l 1.561,6.132 c 0.137,0.648 0.791,1.165 1.454,1.163 l 3.787,0 c 0.663,-0.002 1.32,0.526 1.46,1.174 L 0,0 z"
           id="path3305"
           style="fill:#000000;fill-opacity:1;fill-rule:nonzero;stroke:none" />
      </g>
      <g
         transform="matrix(1.25,0,0,-1.25,288.36927,362.00172)"
         id="g3307">
        <path
           d="m 0,0 -6.041,0 c -1.192,0 -1.534,0.893 -0.703,1.724 l 8.914,8.934 c 0.471,0.466 1.238,0.467 1.71,0.002 L 12.726,2.538 C 13.198,2.073 13.049,1.677 12.386,1.677 L 6.695,1.678 2.222,-15.999 C 2.081,-16.646 1.423,-17.176 0.76,-17.176 l -9.551,0 c -0.663,0 -1.094,0.53 -0.957,1.179 l 1.17,4.679 c 0.137,0.649 0.791,1.18 1.454,1.179 l 3.818,-0.001 c 0.674,0 1.322,0.529 1.464,1.177 l 2.126,8.58 C 0.328,-0.172 0.306,0 0,0"
           id="path3309"
           style="fill:#e2001a;fill-opacity:1;fill-rule:nonzero;stroke:none" />
      </g>
      <path
         d="m 298.62514,360.71135 -5.19,20.53375 c -0.3075,1.09 -1.59125,2.21 -2.83875,2.22875 l -11.15125,0 c -0.415,0 -0.75625,-0.165 -0.97125,-0.4325 -0.21625,-0.26625 -0.3075,-0.635 -0.22,-1.04 l 0.99125,-4.05375 c 0.205,-0.78625 0.965,-1.46125 1.82125,-1.46125 l 4.83,0 c 0.7775,0 1.6925,-0.665 1.76,-1.31875 l 3.71125,-14.6575 c 0.0888,-0.3825 -0.0587,-0.60875 -0.44,-0.60875 l -6.4625,0 c -0.77375,0 -1.1775,-0.68625 -0.5025,-1.36 l 4.82625,-4.78 5.14125,-5.08125 c 0.60125,-0.60125 1.59125,-0.5525 2.14375,-10e-4 l 10.1425,10.00375 c 0.46125,0.4625 -0.1,1.22125 -0.61,1.22125 l -5.935,0 c -0.55875,-0.0112 -0.90375,0.2725 -1.04625,0.8075"
         id="path3313"
         style="fill:#f08a00;fill-opacity:1;fill-rule:nonzero;stroke:none" />
    </g>
  </g>
</svg>
