<!-- Created with Inkscape (http://www.inkscape.org/) -->
<svg xmlns:rdf="http://www.w3.org/1999/02/22-rdf-syntax-ns#" xmlns="http://www.w3.org/2000/svg" height="326.2" width="965.5" version="1.1" xmlns:cc="http://creativecommons.org/ns#" xmlns:dc="http://purl.org/dc/elements/1.1/">
	<metadata>
		<rdf:RDF>
			<cc:Work rdf:about="">
				<dc:format>image/svg+xml</dc:format>
				<dc:type rdf:resource="http://purl.org/dc/dcmitype/StillImage"/>
				<dc:title/>
			</cc:Work>
		</rdf:RDF>
	</metadata>
	<path d="m0,0.15959,253.82,0,0,253.82h-253.82v-253.82z" fill-rule="nonzero" fill="#005791"/>
	<path fill="#005791" d="m470.67,95.76c5.81-6.21,8.67-12.56,9.45-20.93,0.71-7.66-1.4-13.07-5.85-16.83-5.14-4.32-11.69-5.73-29.07-5.73h-15.75l-14.5,57.25,16.18,0.1c24.81-0.28,31.61-5.57,39.54-13.86zm-165.43,158.18,63.64-253.94l70.1,0.34c68.24,0.32,70.31,0.39,77.85,2.5,11.49,3.23,18.78,7.06,24.73,13.02,13.62,13.6,16.61,35.69,8.72,64.46-11.91,43.47-40.37,70.94-82.6,77.8-6.83,1.1-17.53,2.04-37.25,2.05h-27.9l-24.19,93.75z"/>
	<path fill="#005791" d="m517.8,253.94s39.69-157.22,63.88-253.45h69.33l54.08,138.68,35.95-138.68h68.42l-63.48,253.45h-69.47l-53.84-139.5-35.95,139.5z"/>
	<path fill="#005791" d="m760.81,253.94,63.8-253.45,72.93,0-47.39,191.95,115.35,0-15.78,61.5z"/>
	<path fill-rule="nonzero" fill="#fee103" d="m4.84,5.0312,0,244.09,244.1,0,0-244.09-244.1,0zm122.07,13.25,108.75,0,0,108.78-36.22,0,0-45.872-159.5,159.47-26.63-26.6,159.53-159.5-45.93,0,0-36.281z"/>
	<path d="m347.66,298.47c-2.75,0.1-5.74,1.01-8.07,2.12-1.54,0.75-4.41,2.4-4.36,3.93,0.2,3.4,2.92,2.52,4.66,2.54,1.67,0,4.61-1.97,5.69-3.19m-0.26,8.11,0-2.87c-1.39,1.47-2.24,1.74-4,2.45-1.75,0.72-3.75,1.08-6,1.08-2.7,0-5.66-0.63-7.22-1.89-1.58-1.27-2.08-2.41-2.15-4.61-0.11-3.35,1.86-5.71,4.84-7.53,6.38-2.9,10.87-3.22,17.29-4.44,0.46-0.33,0.93-0.25,1.07-0.88,0.12-0.55,0.47-0.98,0.46-1.29,0-0.79-0.35-1.49-1.01-1.94-0.61-0.47-1.44-0.71-2.48-0.71-2.49-0.27-5.32,0.98-5.71,2.93h-10.16c0.38-2.73,3.37-4.85,5.97-6.3,2.6-1.47,6.15-1.79,10.66-1.79,4.14,0,7.28,0.21,9.41,1.54,2.15,1.29,2.75,3.82,2.82,6.35-0.49,7.41-3.51,10.6-4.05,19.9h-9.74" style="text-align:start;" fill="#005791"/>
	<path d="m357.9,311.98,5.3-20.38c0.4-1.59,0.68-2.86,0.89-3.79,0.23-0.97,0.4-1.88,0.56-2.76h9.87l-1.16,3.61c1.49-1.96,2.8-2.43,4.08-3.31,1.29-0.92,1.96-1.16,3.26-1.16,1.55,0.13,3.12,0.21,4.71,0.49l-5.39,7.84c-0.66-0.11-1.31-0.58-1.95-0.58-1.73,0-3.09,0.41-4.05,1.46-0.94,1.05-1.85,4-2.72,7.37l-2.92,11.21h-10.48" style="text-align:start;" fill="#005791"/>
	<path d="m411.63,280.71,1.87-7.36,11.04,0-1.95,7.36-10.96,0m-7.86,31.27,7.02-26.93,10.47,0-7.02,26.93-10.47,0" style="text-align:start;" fill="#005791"/>
	<path d="m441.38,294.59c0-1.36-0.39-2.41-1.04-3.14-0.64-0.75-1.52-1.13-2.62-1.13-1.83,0-3.43,1.18-4.79,3.54-1.34,2.36-1.97,5.03-1.88,8.03,0.11,1.48,0.37,2.6,0.98,3.36,0.63,0.77,1.52,1.16,2.63,1.16,1.87,0,3.46-1.2,4.8-3.59,1.37-2.41,2.01-5.16,1.92-8.23m16.55-21.24-8.34,32.3c0,0.12-0.1,0.28-0.12,0.49-0.54,2.2-0.96,4.15-1.26,5.84h-10.12l0.94-3.43c-1.3,1.4-2.7,2.42-4.18,3.1-1.47,0.66-3.12,0.99-4.96,0.99-2.86,0-5.11-0.86-6.75-2.59-1.66-1.75-2.52-4.2-2.61-7.34-0.1-2.57,0.3-5.13,1.16-7.67,0.88-2.55,2.07-4.69,3.58-6.4,1.24-1.39,2.64-2.45,4.22-3.17,1.58-0.71,3.31-1.07,5.14-1.07,2.02,0,3.75,0.4,5.16,1.2,1.44,0.79,2.64,2,3.6,3.64l4.02-15.89h10.52" style="text-align:start;" fill="#005791"/>
	<path d="m487.41,285.05-5.15,19.96c0,0.2-0.13,0.51-0.24,0.95-0.62,2.34-1.05,4.34-1.27,6.02h-10.46l1.03-3.97c-1.56,1.63-3.1,2.82-4.65,3.55-1.55,0.72-3.27,1.08-5.2,1.08-2.4,0-4.34-0.63-5.78-1.89s-2.19-2.96-2.25-5.1v-1.73c0.1-0.58,0.18-1.13,0.32-1.65l4.56-17.22h10.48l-4.24,16.19c-0.14,0.53-0.24,1.06-0.33,1.6-0.1,0.53-0.1,1.02-0.1,1.46,0,0.6,0.28,1.11,0.8,1.53,0.53,0.42,1.18,0.63,1.94,0.63,1.56,0,2.84-0.59,3.88-1.76,1.02-1.19,1.86-3.07,2.5-5.65l3.66-14h10.43" style="text-align:start;" fill="#005791"/>
	<path d="m484.9,311.98,10.07-38.63,10.48,0-10.08,38.63-10.47,0" style="text-align:start;" fill="#005791"/>
	<path d="m515.72,311.98,9.34-38.63,10.99,0,9,21.58,5.8-21.58,10.49,0-10.02,38.63-10.47,0-9.28-21.96-5.9,21.96-10.69,0" style="text-align:start;" fill="#005791"/>
	<path d="m597.55,291.21-5.33,0,1.67-6.16,5.25,0,1.03-5.96,11.18-3.9-1.99,9.86,6.26,0-1.6,6.16-6.3,0-2.55,10.03c-0.13,0.58-0.25,1.11-0.34,1.6-0.1,0.48-0.1,0.84-0.1,1.1,0,0.7,0.28,1.23,0.79,1.57,0.5,0.35,1.25,0.52,2.24,0.52,0.22,0,0.51,0,0.87-0.1,0.39,0,0.94-0.12,1.62-0.2l-1.59,6.1c-0.84,0.14-1.62,0.24-2.38,0.31-0.77,0.11-1.53,0.11-2.28,0.11-3.3,0-5.74-0.49-7.34-1.47-1.59-1-2.42-2.52-2.48-4.59,0-0.66,0.11-1.43,0.18-2.3,0.15-0.89,0.38-1.93,0.7-3.12l2.48-9.61" style="text-align:start;" fill="#005791"/>
	<path d="m619.32,280.71,1.86-7.36,11.05,0-1.96,7.36-10.95,0m-7.88,31.27,7.02-26.93,10.48,0-7,26.93-10.5,0" style="text-align:start;" fill="#005791"/>
	<path d="m642.58,312.74c-4.53,0-8.01-0.97-10.44-2.93-2.41-1.96-3.68-4.8-3.79-8.52-0.16-4.95,1.44-9.01,4.75-12.15,3.32-3.16,7.74-4.74,13.29-4.74,4.4,0,7.37,0.1,9.75,2.06,2.39,1.98,3.59,3.67,3.71,7.39,0.14,4.87-3.56,10.95-6.87,14.12-3.32,3.19-8.71,4.77-14.04,4.77m7.51-22.74c-0.99,0-1.8,0.16-2.7,0.47-2.36,1.83-5.31,3.6-6.13,10.32-0.2,3.67,1.73,5.23,3.1,5.14,5.4,0.55,9.1-5.91,9.02-12.02-0.16-2.58-1.78-3.8-3.29-3.91z" style="text-align:start;" fill="#005791"/>
	<path d="M658.77,311.98,664,291.97c0-0.21,0.12-0.55,0.26-1.02,0.6-2.27,1.01-4.24,1.25-5.9h10.4l-1.03,3.91c1.53-1.61,3.07-2.77,4.59-3.49,1.56-0.71,3.32-1.07,5.25-1.07,2.41,0,4.33,0.63,5.8,1.88,1.47,1.26,2.23,2.96,2.29,5.12,0,0.57,0,1.15-0.1,1.73-0.1,0.56-0.15,1.1-0.3,1.64l-4.55,17.21h-10.47l4.23-16.26c0.13-0.46,0.21-0.94,0.27-1.44,0.1-0.53,0.1-1.04,0.1-1.55,0-0.59-0.27-1.1-0.78-1.52s-1.14-0.63-1.9-0.63c-1.56,0-2.86,0.59-3.88,1.78-1.02,1.17-1.86,3.04-2.5,5.61l-3.67,14.01h-10.5" style="text-align:start;" fill="#005791"/>
	<path d="m725.14,311.98,10.08-38.63,10.49,0-10.08,38.63-10.49,0" style="text-align:start;" fill="#005791"/>
	<path d="m757.02,311.98,10.08-38.63,11.09,0-7.98,29.77,17.26,0-2.01,8.86-28.44,0" style="text-align:start;" fill="#005791"/>
	<path d="m796.6,280.71,1.88-7.36,11.03,0-1.95,7.36-10.96,0m-7.86,31.27,7.02-26.93,10.47,0-7.02,26.93-10.47,0" style="text-align:start;" fill="#005791"/>
	<path d="m820.14,304.94c4.64,0.19,7.52-3.97,7.4-9.85,0-0.86,0.31-3.36-1.87-3.86-1.86,0-5.41,0.22-7.64,4.27-3.26,7.98-0.87,9.42,2.11,9.44zm-16.48,7.04,10.14-38.63,10.1,0-3.8,14.77c1.35-1.29,2.72-2.24,4.08-2.84,1.39-0.58,2.89-0.88,4.52-0.88,8.42-0.42,9.19,4.87,9.05,9.88-0.37,6.72-4.36,11.5-6.4,14.06-1.26,1.4-2.68,2.46-4.27,3.19-1.59,0.75-3.29,1.11-5.12,1.11-2.03,0-1.72-0.39-3.13-1.18-1.43-0.79-2.62-2.01-3.57-3.67l-1.12,4.19h-10.48" style="text-align:start;" fill="#005791"/>
	<path d="m848.13,300.61c-0.27,3.11,0,5.27,3.41,6.34,1.29,0,3.12,0.1,4.01-0.62,0.87-0.7,1.53-0.77,1.93-2.1h10.37c-1.08,3.06-3,4.44-5.76,6.02-2.78,1.59-6.29,2.39-10.52,2.39-4.45,0-7.84-0.96-10.17-2.89-2.32-1.92-3.37-4.62-3.15-8.11,0.3-5.24,2.21-9.43,5.69-12.55,3.53-3.13,8.07-4.69,13.65-4.69,4.19,0,8.03,0.42,10.2,2.33,2.2,1.88,2.56,5.07,2.37,8.51-0.1,0.75-0.24,1.56-0.38,2.41-0.21,0.86-0.51,1.84-0.89,2.96m-18.21-5.15,9.69,0c0.15-0.42,0.19-0.83,0.27-1.22,0-0.37,0.1-0.69,0.1-0.93,0.11-1.19-0.22-2.11-0.85-2.76-0.61-0.66-1.53-0.99-2.71-0.99-1.36,0-2.77,0.22-3.86,1.2-1.17,0.5-2.87,2.72-3.71,4.7" style="text-align:start;" fill="#005791"/>
	<path d="m924.82,311.98,10.07-38.63,10.5,0-10.08,38.63-10.49,0" style="text-align:start;" fill="#005791"/>
	<text style="letter-spacing:0px;word-spacing:0px;" line-height="125%" font-weight="normal" font-size="40.68066px" font-style="normal" y="320.0239" x="590.99286" font-family="Sans" xml:space="preserve" fill="#005791"><tspan font-weight="600" font-style="italic" font-stretch="normal" font-variant="normal" y="320.0239" x="590.99286" font-family="FreeSans" fill="#005791">,</tspan></text>
	<path d="m389.14,291.21-5.33,0,1.67-6.16,5.25,0,1.04-5.96,11.17-3.9-1.99,9.86,6.27,0-1.61,6.16-6.3,0-2.55,10.03c-0.13,0.58-0.24,1.11-0.34,1.6-0.1,0.48-0.1,0.84-0.1,1.1,0,0.7,0.29,1.23,0.8,1.57,0.49,0.35,1.25,0.52,2.23,0.52,0.23,0,0.51,0,0.87-0.1,0.39,0,0.94-0.12,1.63-0.2l-1.6,6.1c-0.84,0.14-1.62,0.24-2.38,0.31-0.76,0.11-1.53,0.11-2.28,0.11-3.29,0-5.74-0.49-7.34-1.47-1.59-1-2.41-2.52-2.47-4.59,0-0.66,0.1-1.43,0.17-2.3,0.15-0.89,0.39-1.93,0.7-3.12l2.48-9.61" style="text-align:start;" fill="#005791"/>
	<path d="m578.97,298.47c-2.75,0.1-5.74,1.01-8.07,2.12-1.54,0.75-4.41,2.4-4.36,3.93,0.2,3.4,2.92,2.52,4.66,2.54,1.67,0,4.61-1.97,5.69-3.19m-0.26,8.11,0-2.87c-1.39,1.47-2.24,1.74-4,2.45-1.75,0.72-3.75,1.08-6,1.08-2.7,0-5.66-0.63-7.22-1.89-1.58-1.27-2.08-2.41-2.15-4.61-0.11-3.35,1.86-5.71,4.84-7.53,6.38-2.9,10.87-3.22,17.29-4.44,0.46-0.33,0.93-0.25,1.07-0.88,0.12-0.55,0.47-0.98,0.46-1.29,0-0.79-0.35-1.49-1.01-1.94-0.61-0.47-1.44-0.71-2.48-0.71-2.49-0.27-5.32,0.98-5.71,2.93h-10.16c0.38-2.73,3.37-4.85,5.97-6.3,2.6-1.47,6.15-1.79,10.66-1.79,4.14,0,7.28,0.21,9.41,1.54,2.15,1.29,2.75,3.82,2.82,6.35-0.49,7.41-3.51,10.6-4.05,19.9h-9.74" style="text-align:start;" fill="#005791"/>
	<path d="m714.26,298.47c-2.74,0.1-5.73,1.01-8.06,2.12-1.55,0.75-4.42,2.4-4.37,3.93,0.21,3.4,2.92,2.52,4.66,2.54,1.67,0,4.61-1.97,5.7-3.19m-0.27,8.11,0-2.87c-1.39,1.47-2.23,1.74-3.99,2.45-1.75,0.72-3.76,1.08-6,1.08-2.71,0-5.67-0.63-7.22-1.89-1.59-1.27-2.09-2.41-2.16-4.61-0.1-3.35,1.86-5.71,4.84-7.53,6.39-2.9,10.87-3.22,17.29-4.44,0.47-0.33,0.94-0.25,1.08-0.88,0.11-0.55,0.47-0.98,0.46-1.29,0-0.79-0.36-1.49-1.01-1.94-0.61-0.47-1.45-0.71-2.48-0.71-2.49-0.27-5.32,0.98-5.72,2.93h-10.16c0.39-2.73,3.38-4.85,5.97-6.3,2.6-1.47,6.15-1.79,10.66-1.79,4.14,0,7.28,0.21,9.42,1.54,2.14,1.29,2.74,3.82,2.81,6.35-0.48,7.41-3.5,10.6-4.04,19.9h-9.75" style="text-align:start;" fill="#005791"/>
	<path d="m913.6,298.47c-2.75,0.1-5.74,1.01-8.07,2.12-1.54,0.75-4.41,2.4-4.36,3.93,0.2,3.4,2.92,2.52,4.66,2.54,1.67,0,4.61-1.97,5.69-3.19m-0.26,8.11,0-2.87c-1.39,1.47-2.24,1.74-4,2.45-1.75,0.72-3.75,1.08-6,1.08-2.7,0-5.66-0.63-7.22-1.89-1.59-1.27-2.08-2.41-2.16-4.61-0.1-3.35,1.87-5.71,4.85-7.53,6.38-2.9,10.87-3.22,17.29-4.44,0.46-0.33,0.93-0.25,1.07-0.88,0.11-0.55,0.47-0.98,0.46-1.29,0-0.79-0.36-1.49-1.01-1.94-0.61-0.47-1.44-0.71-2.48-0.71-2.49-0.27-5.32,0.98-5.71,2.93h-10.16c0.38-2.73,3.37-4.85,5.97-6.3,2.6-1.47,6.15-1.79,10.65-1.79,4.14,0,7.29,0.21,9.42,1.54,2.15,1.29,2.75,3.82,2.82,6.35-0.49,7.41-3.51,10.6-4.05,19.9h-9.74" style="text-align:start;" fill="#005791"/>
	<path d="m869.74,311.98,5.3-20.38c0.4-1.59,0.68-2.86,0.9-3.79,0.22-0.97,0.39-1.88,0.56-2.76h9.86l-1.16,3.61c1.5-1.96,2.8-2.43,4.08-3.31,1.29-0.92,1.96-1.16,3.27-1.16,1.54,0.13,3.12,0.21,4.7,0.49l-5.39,7.84c-0.66-0.11-1.31-0.58-1.95-0.58-1.73,0-3.09,0.41-4.05,1.46-0.93,1.05-1.85,4-2.71,7.37l-2.93,11.21h-10.48" style="text-align:start;" fill="#005791"/>
	<path d="m317.56,287.72c0.93-0.96,1.41-1.93,1.56-3.21,0.13-1.18-0.19-2.01-0.89-2.58-0.82-0.66-1.86-0.88-4.64-0.88h-2.51l-2.47,8.78h2.57c3.99,0,5.08-0.85,6.38-2.12zm-26.88,24.24,10.85-38.92,11.2,0.1c10.92,0.1,11.25,0.1,12.45,0.39,1.83,0.49,2.99,1.08,3.93,1.99,2.13,2.09,2.55,5.47,1.21,9.89-2,6.66-6.63,10.87-13.42,11.92-1.09,0.17-2.79,0.31-5.96,0.32h-4.45l-4.12,14.37z" fill="#005791"/>
</svg>
