<?xml version="1.0" encoding="UTF-8" standalone="no"?>
<!-- Created with Inkscape (http://www.inkscape.org/) -->
<svg id="svg2" xmlns:rdf="http://www.w3.org/1999/02/22-rdf-syntax-ns#" xmlns="http://www.w3.org/2000/svg" height="328.77" width="273.56" version="1.1" xmlns:cc="http://creativecommons.org/ns#" xmlns:dc="http://purl.org/dc/elements/1.1/" viewBox="0 0 273.55542 328.77436">
 <g id="layer1" transform="translate(-218.32 -271.07)">
  <g id="text4147" fill="#008bd6" transform="matrix(1.1114 0 0 .92832 -.039676 -12.331)">
   <path id="path4205" d="m231.24 640.64 9.5501 3.0281q-2.1962 7.9861-7.3206 11.879-5.0912 3.86-12.944 3.86-9.7164 0-15.972-6.6218-6.2558-6.6551-6.2558-18.168 0-12.179 6.2891-18.9 6.2891-6.7549 16.538-6.7549 8.9511 0 14.541 5.2908 3.3275 3.1279 4.9913 8.9844l-9.7497 2.3293q-0.86517-3.7934-3.627-5.9896-2.7286-2.1962-6.6551-2.1962-5.4239 0-8.818 3.8932-3.3608 3.8932-3.3608 12.611 0 9.2506 3.3275 13.177 3.3276 3.9265 8.6516 3.9265 3.9265 0 6.7549-2.4957t4.0596-7.853z"/>
   <path id="path4207" d="m249.24 609.8h18.002q6.0894 0 9.2838 0.93171 4.2925 1.2645 7.3539 4.4922 3.0613 3.2277 4.6586 7.9196 1.5972 4.6586 1.5972 11.513 0 6.0229-1.4974 10.382-1.8302 5.3241-5.2242 8.6183-2.5622 2.4957-6.9213 3.8932-3.261 1.0315-8.7182 1.0315h-18.534v-48.782zm9.8495 8.2523v32.31h7.3539q4.1262 0 5.9563-0.46586 2.3958-0.59895 3.9598-2.0298 1.5972-1.4308 2.5955-4.6918 0.99827-3.2943 0.99827-8.9511t-0.99827-8.6849q-0.99826-3.0281-2.7951-4.7251-1.7969-1.697-4.5587-2.296-2.0631-0.46586-8.0859-0.46586h-4.4256z"/>
   <path id="path4209" d="m296.03 642.71 9.5833-0.93171q0.86516 4.8249 3.4939 7.0877 2.662 2.2627 7.1542 2.2627 4.7584 0 7.1542-1.9965 2.4291-2.0298 2.4291-4.7251 0-1.7303-1.0315-2.9282-0.99827-1.2312-3.5272-2.1296-1.7303-0.59896-7.8863-2.1296-7.9196-1.9632-11.114-4.8249-4.4922-4.0263-4.4922-9.8163 0-3.7269 2.0964-6.9546 2.1296-3.261 6.0894-4.958 3.9931-1.697 9.6166-1.697 9.184 0 13.809 4.0263 4.6586 4.0263 4.8915 10.748l-9.8495 0.43258q-0.63224-3.7601-2.7286-5.3906-2.0631-1.6638-6.2225-1.6638-4.2925 0-6.7216 1.7636-1.564 1.1314-1.564 3.0281 0 1.7303 1.4641 2.9615 1.8634 1.564 9.0509 3.261t10.615 3.5272q3.4606 1.7969 5.3906 4.958 1.9632 3.1279 1.9632 7.7532 0 4.1927-2.3293 7.853t-6.5885 5.4572q-4.2593 1.7636-10.615 1.7636-9.2506 0-14.209-4.2593-4.958-4.2925-5.923-12.478z"/>
  </g>
  <rect id="rect4151" height="272.81" width="273.56" y="271.07" x="218.32" fill="#008bd6"/>
  <rect id="rect4151-0" height="249.47" width="250.15" y="282.74" x="229.81" fill="#fff"/>
  <g fill="#008bd6">
   <path id="path4168" d="m229.55 487.18 41.073-24.489-14.512-15.03h57.788v56.363l-15.03-15.16-27.598 47.422-39.389 1.5548-11.013-0.25914 5.3123-49.107z" fill-rule="evenodd"/>
   <path id="path4168-0" d="m479.99 326.96-41.246 24.573 14.512 15.03h-57.788v-56.363l15.03 15.16 27.598-47.422 39.389-1.5548 11.013 0.25914-5.3123 49.107z" fill-rule="evenodd"/>
   <circle id="path4202" cx="354.76" cy="407.19" r="57.508"/>
   <g id="text4234" transform="matrix(1.0474 0 0 .95474 0 -.875)">
    <path id="path4239" d="m362.63 615.86v-9.1529h17.98v9.1529h-17.98z"/>
    <path id="path4241" d="m386.02 628.59v-47.751h15.472q8.7946 0 11.466 0.71661 4.1041 1.0749 6.8728 4.6904 2.7687 3.583 2.7687 9.2832 0 4.3973-1.596 7.394t-4.0716 4.723q-2.4429 1.6938-4.9836 2.2475-3.4527 0.68402-9.9998 0.68402h-6.2865v18.013h-9.6414zm9.6414-39.673v13.55h5.2767q5.7002 0 7.622-0.74917t2.9967-2.3452q1.1075-1.596 1.1075-3.7133 0-2.6058-1.5309-4.2996t-3.8761-2.1172q-1.7263-0.32572-6.9379-0.32572h-4.6578z"/>
    <path id="path4243" d="m430.58 628.59v-47.751h15.472q8.7946 0 11.466 0.71661 4.1041 1.0749 6.8728 4.6904 2.7687 3.583 2.7687 9.2832 0 4.3973-1.596 7.394t-4.0716 4.723q-2.4429 1.6938-4.9836 2.2475-3.4527 0.68402-9.9997 0.68402h-6.2865v18.013h-9.6414zm9.6414-39.673v13.55h5.2767q5.7002 0 7.622-0.74917t2.9967-2.3452q1.1075-1.596 1.1075-3.7133 0-2.6058-1.5309-4.2996t-3.8761-2.1172q-1.7263-0.32572-6.9379-0.32572h-4.6579z"/>
   </g>
  </g>
 </g>
</svg>
