<?xml version="1.0" encoding="utf-8"?>
<!-- Generator: Adobe Illustrator 24.1.2, SVG Export Plug-In . SVG Version: 6.00 Build 0)  -->
<svg version="1.1" id="Слой_1" xmlns="http://www.w3.org/2000/svg" xmlns:xlink="http://www.w3.org/1999/xlink" x="0px" y="0px"
	 viewBox="0 0 1181 1181" style="enable-background:new 0 0 1181 1181;" xml:space="preserve">
<style type="text/css">
	.st0{fill:#F00035;}
	.st1{fill:#FEFCFD;}
</style>
<path class="st0" d="M0,1181C0,787.3,0,393.7,0,0c393.7,0,787.3,0,1181,0c0,393.7,0,787.3,0,1181C787.3,1181,393.7,1181,0,1181z
	 M648.6,450c-33.5,91.5-66.7,182.5-100.3,274.2c24.5,0,47.9,0.1,71.4-0.2c1.4,0,3.4-2.3,4-3.9c4.4-12,8.6-24.1,12.7-36.2
	c1.1-3.1,2.6-4.3,6.1-4.3c29.5,0.2,59,0.2,88.5,0c3.7,0,5.2,1.4,6.3,4.6c4.1,12,8.5,23.8,12.4,35.8c1.1,3.3,2.6,4.3,6,4.3
	c22.3-0.1,44.7-0.1,67-0.1c1.4,0,2.8-0.2,4.7-0.3c-0.9-2.5-1.6-4.5-2.3-6.5c-19.7-53.9-39.3-107.7-59-161.6
	c-12.4-34-24.9-68-37.5-102c-0.5-1.5-2.4-3.5-3.6-3.5C699.5,450,674.2,450,648.6,450z M540,494.3c-0.3-0.7-0.3-1.1-0.5-1.3
	c-0.7-0.9-1.5-1.8-2.3-2.6c-25.4-27.9-56.9-43.1-94.7-44.9c-28.2-1.3-54.6,4.1-78.2,20.3c-29.9,20.5-42.3,54.5-32.4,89.3
	c6.3,22.2,21,37.6,40.6,48.9c17.3,9.9,36.7,12.2,55.8,16c12.4,2.4,24.8,4.8,37,8.2c7.5,2.1,12.6,7.5,12.8,16
	c0.2,8.8-4.5,14.8-12.3,17.6c-6.3,2.3-13.2,3.9-19.9,4.1c-31.2,0.9-55.8-12.4-75.5-36.1c-1.1-1.3-2.2-2.7-3.3-4
	c0.2,0.5,0.4,1,0.7,1.6c-15.1,14.8-30.3,29.7-45.8,44.9c4.2,5,8.4,10.4,13.1,15.3c43.7,44.6,115.7,51.9,166.2,27.2
	c39.8-19.5,56.1-56,45.1-98.8c-6.9-27.1-25.3-43.6-50.3-53.9c-19-7.8-39.3-9.9-59.1-14c-9.7-2-19.7-3.8-28.6-7.8
	c-10.9-5-11.2-18.6-1.5-25.8c2.6-1.9,5.8-3.4,8.9-4.3c18.9-5.3,36.5-1.2,52.4,9.1c9.8,6.4,18.4,14.5,27.9,22.2
	C510.2,526.1,525.2,510.1,540,494.3z M915.5,644c13.5,0,26.3,0,39.1,0c15.4,0,30.5-1.7,45.3-6c26.9-7.8,47.9-22.8,59.3-49.1
	c8.5-19.7,9.7-40.3,6.8-61.2c-3.7-26.7-16.4-47.8-40.1-61.6c-18.9-11-39.7-15.4-61.2-15.8c-39.5-0.7-79-0.2-118.4-0.3
	c-0.6,0-1.2,0.2-2,0.3c0,91.3,0,182.3,0,273.6c23.8,0,47.3,0,71.3,0C915.5,697.3,915.5,671.1,915.5,644z M142.2,723.8
	c55.2,0,109.9,0,164.5,0c0-21,0-41.6,0-62.7c-31.1,0-61.8,0-93.1,0c0-70.6,0-140.7,0-210.8c-24.1,0-47.7,0-71.4,0
	C142.2,541.6,142.2,632.5,142.2,723.8z"/>
<path class="st1" d="M648.6,450c25.6,0,50.9-0.1,76.2,0.2c1.3,0,3.1,2.1,3.6,3.5c12.6,34,25,68,37.5,102
	c19.7,53.9,39.4,107.7,59,161.6c0.7,2,1.4,4,2.3,6.5c-1.9,0.1-3.3,0.3-4.7,0.3c-22.3,0-44.7-0.1-67,0.1c-3.4,0-4.9-1-6-4.3
	c-3.9-12-8.3-23.8-12.4-35.8c-1.1-3.2-2.5-4.6-6.3-4.6c-29.5,0.2-59,0.2-88.5,0c-3.5,0-5,1.1-6.1,4.3c-4.1,12.1-8.3,24.2-12.7,36.2
	c-0.6,1.6-2.6,3.9-4,3.9c-23.5,0.2-47,0.2-71.4,0.2C581.9,632.6,615.1,541.5,648.6,450z M713.8,616.4c-8.8-25-17.3-49.4-26.2-74.8
	c-9.2,25.5-18,49.9-27,74.8C678.5,616.4,695.7,616.4,713.8,616.4z"/>
<path class="st1" d="M540,494.3c-14.8,15.8-29.7,31.8-43.9,47c-9.5-7.7-18.1-15.8-27.9-22.2c-15.9-10.3-33.6-14.4-52.4-9.1
	c-3.1,0.9-6.3,2.4-8.9,4.3c-9.7,7.1-9.4,20.8,1.5,25.8c8.9,4.1,18.9,5.9,28.6,7.8c19.8,4.1,40.1,6.2,59.1,14
	c25,10.3,43.4,26.8,50.3,53.9c11,42.9-5.3,79.3-45.1,98.8c-50.5,24.7-122.5,17.4-166.2-27.2c-4.7-4.9-8.9-10.3-13.1-15.3
	c15.5-15.2,30.6-30,45.8-44.9c-0.2-0.5-0.4-1-0.7-1.6c1.1,1.3,2.2,2.7,3.3,4c19.6,23.6,44.3,37,75.5,36.1c6.7-0.2,13.6-1.8,19.9-4.1
	c7.7-2.8,12.5-8.8,12.3-17.6c-0.2-8.5-5.3-13.9-12.8-16c-12.1-3.3-24.6-5.7-37-8.2c-19.1-3.8-38.5-6.1-55.8-16
	c-19.7-11.3-34.3-26.7-40.6-48.9c-9.9-34.8,2.5-68.8,32.4-89.3c23.6-16.2,50.1-21.6,78.2-20.3c37.8,1.8,69.3,17,94.7,44.9
	c0.8,0.9,1.6,1.7,2.3,2.6C539.6,493.2,539.7,493.6,540,494.3z"/>
<path class="st1" d="M915.5,644c0,27.1,0,53.4,0,79.9c-23.9,0-47.5,0-71.3,0c0-91.2,0-182.3,0-273.6c0.7-0.1,1.3-0.3,2-0.3
	c39.5,0,79-0.4,118.4,0.3c21.5,0.4,42.3,4.8,61.2,15.8c23.7,13.7,36.4,34.8,40.1,61.6c2.9,20.9,1.8,41.6-6.8,61.2
	c-11.4,26.4-32.5,41.3-59.3,49.1c-14.8,4.3-29.9,6-45.3,6C941.8,644,929,644,915.5,644z M915.9,581c7.2,0,14.2,0.4,21.1-0.1
	c11.6-0.7,23.3-0.9,34.6-3.2c15.8-3.2,24.2-15.5,24.1-32.2c-0.1-16.1-7.7-25.8-24-29.9c-18.4-4.6-37.1-2.2-55.9-2.9
	C915.9,535.7,915.9,558.2,915.9,581z"/>
<path class="st1" d="M142.2,723.8c0-91.3,0-182.2,0-273.5c23.7,0,47.3,0,71.4,0c0,70.1,0,140.1,0,210.8c31.3,0,62,0,93.1,0
	c0,21.1,0,41.7,0,62.7C252,723.8,197.3,723.8,142.2,723.8z"/>
<path class="st0" d="M713.8,616.4c-18,0-35.2,0-53.2,0c9-24.9,17.8-49.4,27-74.8C696.4,567,705,591.3,713.8,616.4z"/>
<path class="st0" d="M915.9,581c0-22.8,0-45.3,0-68.2c18.8,0.7,37.5-1.7,55.9,2.9c16.2,4.1,23.9,13.8,24,29.9
	c0.1,16.7-8.3,29-24.1,32.2c-11.3,2.3-23.1,2.5-34.6,3.2C930.1,581.4,923.1,581,915.9,581z"/>
</svg>
