<svg xmlns="http://www.w3.org/2000/svg" width="1792" height="1024" viewBox="0 0 1792 1024">
  <defs>
    <style>
      .cls-1 {
        fill: #fff;
      }

      .cls-2 {
        fill: #007bc1;
      }

      .cls-3, .cls-5 {
        fill: #c1a945;
      }

      .cls-4 {
        fill: #57aa26;
      }

      .cls-5, .cls-6 {
        fill-rule: evenodd;
      }

      .cls-6 {
        fill: #a2813c;
      }
    </style>
  </defs>
  <rect id="Background" class="cls-1" width="1792" height="1024"/>
  <rect id="Top" class="cls-2" width="1792" height="236"/>
  <rect id="Upper" class="cls-3" y="256" width="1792" height="10"/>
  <rect id="Lower" class="cls-3" y="758" width="1792" height="10"/>
  <rect id="Bottom" class="cls-4" y="788" width="1792" height="236"/>
  <path id="C" class="cls-5" d="M491.972,606.768a179.9,179.9,0,0,1-49.542,6.788q-51.927,0-85.15-28.82t-33.227-73.122q0-44.062,33.7-72.527t86.818-28.462q54.065,0,114.565,34.06V370.61q-49.3-29.3-120.52-29.3-89.317,0-144.7,50.018T238.546,513.043q0,71.7,52.519,120.639t141.123,48.947q68.357,0,130.762-33.108V576.876Q515.79,599.982,491.972,606.768Z"/>
  <path id="N" class="cls-5" d="M854.533,345.6V549.009L676.875,345.6H600.869v332.74h82.887V465.168L867.417,678.341h70V345.6H854.533Z"/>
  <path id="R" class="cls-6" d="M987.554,345.561v60.865H1114.42s45.32-.721,45.32,37.51-47.39,38.23-47.39,38.23h-124.8V541.98H1094.57s20.33,2.158,31.15,14.406,34.02,59.14,34.02,59.14l29.55,62.553h89.8l-42.7-94.254s-28.55-55.434-47.1-61.4c-4.5-1.447,54.83-14.146,55.62-81.519,0.5-42.047-30.48-67.425-30.48-67.425s-23.92-27.918-77.89-27.918H987.554"/>
  <path id="T" class="cls-5" d="M1229.56,345.326s18.32,6.864,33.59,27.594c9.24,12.55,11.18,33.536,11.18,33.536l75.75-.156V678.066h82.89V406.3h120.52V345.326H1229.56Z"/>
</svg>
