<?xml version="1.0" encoding="UTF-8" standalone="no"?>
<!-- Created with Inkscape (http://www.inkscape.org/) -->
<svg
   xmlns:dc="http://purl.org/dc/elements/1.1/"
   xmlns:cc="http://web.resource.org/cc/"
   xmlns:rdf="http://www.w3.org/1999/02/22-rdf-syntax-ns#"
   xmlns:svg="http://www.w3.org/2000/svg"
   xmlns="http://www.w3.org/2000/svg"
   xmlns:sodipodi="http://sodipodi.sourceforge.net/DTD/sodipodi-0.dtd"
   xmlns:inkscape="http://www.inkscape.org/namespaces/inkscape"
   width="500"
   height="252.81084"
   id="svg2"
   sodipodi:version="0.32"
   inkscape:version="0.45.1"
   version="1.0"
   sodipodi:docbase="/home/butze/Desktop"
   sodipodi:docname="PDS-Logo.svg"
   inkscape:output_extension="org.inkscape.output.svg.inkscape">
  <defs
     id="defs4" />
  <sodipodi:namedview
     id="base"
     pagecolor="#ffffff"
     bordercolor="#666666"
     borderopacity="1.0"
     inkscape:pageopacity="0.0"
     inkscape:pageshadow="2"
     inkscape:zoom="1.3062462"
     inkscape:cx="350"
     inkscape:cy="104.26262"
     inkscape:document-units="px"
     inkscape:current-layer="layer1"
     inkscape:window-width="1280"
     inkscape:window-height="752"
     inkscape:window-x="0"
     inkscape:window-y="25" />
  <metadata
     id="metadata7">
    <rdf:RDF>
      <cc:Work
         rdf:about="">
        <dc:format>image/svg+xml</dc:format>
        <dc:type
           rdf:resource="http://purl.org/dc/dcmitype/StillImage" />
      </cc:Work>
    </rdf:RDF>
  </metadata>
  <g
     inkscape:label="Ebene 1"
     inkscape:groupmode="layer"
     id="layer1"
     transform="translate(331.35715,-434.07714)">
    <g
       id="g3129">
      <path
         transform="translate(-331.35715,434.07714)"
         id="path2158"
         d="M 58.181988,20.082885 L 473.11143,24.6762 L 436.36491,231.37537 L 27.559889,226.0165 L 58.181988,20.082885 z "
         style="fill:#ffffff;fill-rule:evenodd;stroke:none;stroke-width:1px;stroke-linecap:butt;stroke-linejoin:miter;stroke-opacity:1;fill-opacity:1" />
      <path
         id="path2170"
         d="M -331.35715,686.76023 C -331.35715,686.64478 -321.55003,629.82277 -309.56354,560.48909 C -297.57705,491.15541 -287.76993,434.34894 -287.76993,434.2525 C -287.76993,434.15605 -185.07705,434.07714 -59.563545,434.07714 L 168.64285,434.07714 L 146.80293,560.41534 L 124.96302,686.75355 L -103.19707,686.86184 C -228.68511,686.92141 -331.35715,686.87568 -331.35715,686.76023 z M 52.512472,648.13661 C 78.867169,642.51764 96.414166,625.13709 102.62422,598.50022 C 104.62177,589.932 104.37867,581.73913 101.90305,574.19745 C 98.087441,562.57378 88.012436,549.59564 74.303108,538.64459 C 71.33452,536.27328 67.920493,533.25516 66.716377,531.93766 C 59.598485,524.14956 63.740341,514.37615 75.096404,512.16358 C 78.588621,511.48317 85.064205,511.86758 89.53303,513.02057 C 93.56805,514.06164 99.112086,516.59697 102.73807,519.05933 C 104.54987,520.28971 105.44565,520.6829 105.56602,520.30063 C 105.78438,519.60709 112.60518,483.03642 112.79373,481.54837 C 112.91448,480.59505 112.52858,480.25815 109.47795,478.65376 C 103.06717,475.28218 92.117356,472.27283 82.414776,471.21594 C 61.527651,468.94073 41.016342,475.50376 27.913748,488.65472 C 17.083144,499.52529 11.192487,513.65458 11.175129,528.80382 C 11.161988,540.27569 14.540619,549.00332 22.777219,558.77419 C 26.270661,562.91837 28.609875,565.06315 39.134216,573.77164 C 50.021056,582.78008 52.296693,585.82501 52.296693,591.38374 C 52.296693,593.9717 52.08066,594.91067 50.977148,597.11899 C 47.656454,603.76429 38.042848,608.52809 29.424196,607.79905 C 20.806187,607.07007 13.061757,604.03538 4.1872134,597.90983 C 2.2933573,596.60262 0.69556637,595.58136 0.63655963,595.64036 C 0.5138465,595.76308 -9.2674277,634.11565 -9.4873446,635.33639 C -9.7855632,636.9918 2.7864841,642.98322 12.337475,645.73738 C 22.339322,648.62156 28.441775,649.40686 39.349994,649.21352 C 46.289714,649.09052 49.127242,648.85837 52.512472,648.13661 z M -231.8499,616.84137 C -229.22058,602.6 -226.93475,590.24546 -226.77028,589.38682 L -226.47123,587.82567 L -216.23059,587.5869 C -205.24557,587.33078 -198.8627,586.55081 -190.57874,584.45231 C -164.60683,577.87307 -148.68101,561.74722 -143.04555,536.32213 C -139.99054,522.53909 -140.55628,509.61284 -144.61413,500.48208 C -149.54774,489.38076 -159.89396,481.46964 -174.48631,477.64066 C -184.7496,474.94762 -184.79215,474.94498 -220.97166,474.75982 L -254.07875,474.59039 L -254.30848,475.58793 C -254.8691,478.02229 -283.02281,641.23016 -283.02281,642.04572 L -283.02281,642.95805 L -259.82664,642.84641 L -236.63047,642.73477 L -231.8499,616.84137 z M -216.99464,549.16444 C -216.99464,548.40859 -210.95166,510.31762 -210.80914,510.1751 C -210.70928,510.07525 -209.09168,509.99017 -207.21447,509.98605 C -198.36777,509.96661 -192.48027,515.19542 -191.0629,524.33059 C -190.68298,526.77922 -190.72849,527.97304 -191.31218,530.87006 C -193.53248,541.89017 -201.01258,547.9282 -213.86586,549.0757 C -215.58669,549.22933 -216.99464,549.26926 -216.99464,549.16444 z M -84.6896,642.49181 C -58.702637,639.96304 -37.889208,627.72195 -23.933759,606.75923 C -13.414691,590.95835 -5.5910269,567.74149 -3.3526333,545.68436 C -2.6258013,538.52213 -3.0498316,525.79112 -4.2015311,520.19719 C -7.4050062,504.63758 -14.535798,493.46241 -26.259482,485.62863 C -33.896969,480.52524 -42.018657,477.55097 -53.434681,475.67672 C -57.318647,475.03907 -62.150916,474.90754 -87.258307,474.75613 C -104.98889,474.6492 -116.70894,474.73783 -116.95179,474.98068 C -117.28868,475.31757 -146.21745,640.81254 -146.21887,642.4111 C -146.2195,643.11468 -91.823745,643.18603 -84.6896,642.49181 z M -90.393083,604.21834 C -90.275587,603.80297 -86.819285,584.07 -82.712419,560.36731 L -75.245385,517.27149 L -71.568604,517.45429 C -62.977127,517.88143 -57.575376,522.94959 -55.795235,532.25355 C -54.519178,538.92289 -55.124173,550.16917 -57.536553,564.62302 C -59.367665,575.5942 -61.916728,583.70924 -65.544471,590.11654 C -67.996403,594.44713 -73.36063,599.9315 -77.034808,601.86423 C -80.195732,603.52697 -85.524658,604.97357 -88.488882,604.97357 C -90.299543,604.97357 -90.57573,604.86403 -90.393083,604.21834 z "
         style="fill:#ff0000;fill-opacity:1" />
    </g>
  </g>
</svg>
