<svg xmlns="http://www.w3.org/2000/svg" viewBox="0 0 613.8 140.27">
  <title>
    YablokoRecurso 1
  </title>
  <g id="Capa_2">
    <g id="Capa_1-2">
      <path d="M49.7,8.24a41.29,41.29,0,0,0-15.31,2.9L41.2,25.88a24.68,24.68,0,0,1,8.5-1.47c13.55,0,24,10.32,24,24.33s-10.48,24.33-24,24.33-24-10.32-24-24.33a26.16,26.16,0,0,1,1-7.18l-15.14-7A41.3,41.3,0,0,0,9.05,48.74,40.28,40.28,0,0,0,49.7,89.24a40.19,40.19,0,0,0,40.66-40.5c0-23-18-40.5-40.66-40.5" fill="#af0044"/>
      <path class="cls-2" d="M172.29,83.13v-36H146.88c-9.39,0-16.94,7.85-16.94,18,0,10,7.55,18,16.94,18ZM190,138.26H172.29V99H155.2l-26,39.26h-20l27.42-40.8a34.15,34.15,0,0,1-24.33-32.34,34.5,34.5,0,0,1,34.64-34.65H190Z"/>
      <path class="cls-2" d="M265,104.24c0-12-8.78-20.8-21.87-20.8-10.62,0-22.48,7.09-22.48,20,0,12.48,9.85,21.25,22.33,21.25,12.93,0,22-8.62,22-20.47m-61.9-4.78c0-24.79,4.77-37.58,29.56-49.74,16.17-7.85,26.18-10,29.26-22l13.55,7.85c-2.77,14.17-15.55,19.1-31.26,25.56-14,5.55-18.94,10.63-21.41,18.79,6.63-7.54,16.64-10.47,25.11-10.47,17.25,0,33.72,13.4,33.72,34.81,0,20.78-15.55,36-38.5,36-23.71,0-40-17.09-40-40.81"/>
      <path class="cls-2" d="M360.78,138.27H344.15v-61H318.43v28.65c0,25.25-11.85,34.18-30.79,32.34V122.71c9.08,1.54,14.17-3.08,14.17-17.55V61.27h59Z"/>
      <path class="cls-2" d="M437.48,99.77c0-14-10.48-24.34-24-24.34s-24,10.32-24,24.34,10.48,24.33,24,24.33,24-10.32,24-24.33m-64.68,0a40.19,40.19,0,0,1,40.65-40.5c22.64,0,40.66,17.55,40.66,40.5a40.66,40.66,0,0,1-81.31,0"/>
      <path d="M49.7,8.24a41.29,41.29,0,0,0-15.31,2.9L41.2,25.88a24.68,24.68,0,0,1,8.5-1.47c13.55,0,24,10.32,24,24.33s-10.48,24.33-24,24.33-24-10.32-24-24.33a26.16,26.16,0,0,1,1-7.18l-15.14-7A41.3,41.3,0,0,0,9.05,48.74,40.28,40.28,0,0,0,49.7,89.24a40.19,40.19,0,0,0,40.66-40.5c0-23-18-40.5-40.66-40.5" fill="#ff2444"/>
      <path class="cls-2" d="M172.29,83.13v-36H146.88c-9.39,0-16.94,7.85-16.94,18,0,10,7.55,18,16.94,18ZM190,138.26H172.29V99H155.2l-26,39.26h-20l27.42-40.8a34.15,34.15,0,0,1-24.33-32.34,34.5,34.5,0,0,1,34.64-34.65H190Z"/>
      <path class="cls-2" d="M265,104.24c0-12-8.78-20.8-21.87-20.8-10.62,0-22.48,7.09-22.48,20,0,12.48,9.85,21.25,22.33,21.25,12.93,0,22-8.62,22-20.47m-61.9-4.78c0-24.79,4.77-37.58,29.56-49.74,16.17-7.85,26.18-10,29.26-22l13.55,7.85c-2.77,14.17-15.55,19.1-31.26,25.56-14,5.55-18.94,10.63-21.41,18.79,6.63-7.54,16.64-10.47,25.11-10.47,17.25,0,33.72,13.4,33.72,34.81,0,20.78-15.55,36-38.5,36-23.71,0-40-17.09-40-40.81"/>
      <path class="cls-2" d="M360.78,138.27H344.15v-61H318.43v28.65c0,25.25-11.85,34.18-30.79,32.34V122.71c9.08,1.54,14.17-3.08,14.17-17.55V61.27h59Z"/>
      <path class="cls-2" d="M437.48,99.77c0-14-10.48-24.34-24-24.34s-24,10.32-24,24.34,10.48,24.33,24,24.33,24-10.32,24-24.33m-64.68,0a40.19,40.19,0,0,1,40.65-40.5c22.64,0,40.66,17.55,40.66,40.5a40.66,40.66,0,0,1-81.31,0"/>
      <path class="cls-2" d="M514.32 138.27L482.75 102.69 482.75 138.27 466.12 138.27 466.12 61.27 482.75 61.27 482.75 95.31 512.62 61.27 532.96 61.27 499.07 99 534.18 138.27 514.32 138.27z"/>
      <path class="cls-2" d="M597.17,99.77c0-14-10.47-24.34-24-24.34s-24,10.32-24,24.34,10.48,24.33,24,24.33,24-10.32,24-24.33m-64.68,0a40.19,40.19,0,0,1,40.65-40.5c22.64,0,40.66,17.55,40.66,40.5a40.66,40.66,0,0,1-81.31,0"/>
      <path fill="#00b54f" d="M22.56 0L41.95 41.95 0 22.56 22.56 0z"/>
    </g>
  </g>
</svg>
