<?xml version="1.0" encoding="UTF-8"?>
<svg id="Capa_2" data-name="Capa 2" xmlns="http://www.w3.org/2000/svg" viewBox="0 0 361 243.36">
  <defs>
    <style>
      .cls-1 {
        fill: #1e4b8f;
      }
    </style>
  </defs>
  <g id="Layer_1" data-name="Layer 1">
    <g>
      <path class="cls-1" d="M55.24,20C76.75,6.6,102.22-.67,127.59,.05c18.61-.43,37.31,2.86,54.65,9.59,18.84,7.3,35.89,19.97,46.78,37.15,.74,1.62,2.94,2.89,4.41,1.34,14.15-12.78,31.31-22.46,50-26.64,23.74-5.6,49.31-1.49,70.55,10.34,2.49,1.57,5.73,2.51,7.02,5.42-.61,1.9-2.18,3.23-4.25,2.73-28.91-3-58.69,1.96-84.76,14.91-14.44,7.04-27.71,16.36-39.53,27.2-1.02,1.19-2.5,1.54-4,1.46-12.96-19.13-32.5-33.4-54.22-41.01-17.46-6.28-36.65-7.33-54.74-3.3-25.27,5.31-49.33,19.42-63.73,41.22-14.04,21.59-18.71,48.47-15.31,73.8,3.2,24,12.89,46.44,18.19,69.96,.42,2.66,1.04,5.96-.98,8.14-2.3,1.88-5.51,.87-7.88-.33-5.45-2.98-9.76-7.57-14.31-11.72C14.29,199.56,3.18,170.3,.51,141.13c-.95-17.71-1.01-35.8,3.89-53C11.9,60.05,30.56,35.29,55.24,20Z"/>
      <path class="cls-1" d="M115.54,92.14c13.58-5.66,28.4-7.71,43.03-8.09,14.34-.47,29.84,2.38,40.69,12.44,11.03,10.09,15.26,25.4,16.13,39.88,1.05,16.97-1.85,35.23-12.63,48.91-7.76,9.95-20.05,15.66-32.52,16.42-9.48,.56-19.04-.2-28.31-2.26-.12,13.6,.03,27.2-.08,40.79,.16,1.32-.47,3.31-2.15,3.07-9.08,.05-18.17,.11-27.24-.03-2.79,.21-2.55-3.12-2.59-4.98,.02-46.38-.04-92.76,.03-139.14-.36-3.51,2.7-5.88,5.64-7.01Zm26.32,22.03c.06,19.2,.01,38.4,.03,57.59,6.12,1.5,12.42,2.49,18.74,2.19,6.56-.17,13.22-3.34,16.63-9.11,5.11-8.41,5.34-18.72,4.83-28.27-.58-8.03-2.95-17.23-10.48-21.48-9.15-4.84-20.11-3.31-29.75-.92Z"/>
      <path class="cls-1" d="M233.8,92.49c10.95-4.81,22.89-7.01,34.76-7.97,15.39-1.32,32.2-.66,45.33,8.47,11.62,7.91,17.75,21.67,19.64,35.24,2.52,17.69,1,36.87-8.48,52.42-6.34,10.5-17.25,18.01-29.33,20.17-11.53,2.06-23.42,.93-34.84-1.33,0,13.26,0,26.52,0,39.78,.02,1.48-.04,4.22-2.18,4.03-9.06,.06-18.13,.08-27.19,0-2.35,.27-2.71-2.31-2.62-4.03-.02-46.69-.02-93.39,0-140.08-.32-3.17,2.17-5.6,4.91-6.69Zm27.05,21.73c.07,19.18,.04,38.35,.01,57.53,6.12,1.52,12.42,2.48,18.74,2.21,6.57-.18,13.26-3.34,16.68-9.12,5.19-8.53,5.38-19.01,4.8-28.68-.6-8.1-3.24-17.42-11.05-21.38-9.06-4.43-19.76-3.01-29.18-.56Z"/>
    </g>
  </g>
</svg>