<?xml version="1.0" encoding="UTF-8" standalone="no"?>
<!-- Created with Inkscape (http://www.inkscape.org/) -->
<svg
   xmlns:dc="http://purl.org/dc/elements/1.1/"
   xmlns:cc="http://creativecommons.org/ns#"
   xmlns:rdf="http://www.w3.org/1999/02/22-rdf-syntax-ns#"
   xmlns:svg="http://www.w3.org/2000/svg"
   xmlns="http://www.w3.org/2000/svg"
   xmlns:sodipodi="http://sodipodi.sourceforge.net/DTD/sodipodi-0.dtd"
   xmlns:inkscape="http://www.inkscape.org/namespaces/inkscape"
   id="svg2457"
   sodipodi:version="0.32"
   inkscape:version="0.46"
   width="323.83762"
   height="275.90482"
   version="1.0"
   sodipodi:docname="kke_party.svg"
   inkscape:output_extension="org.inkscape.output.svg.inkscape">
  <metadata
     id="metadata2462">
    <rdf:RDF>
      <cc:Work
         rdf:about="">
        <dc:format>image/svg+xml</dc:format>
        <dc:type
           rdf:resource="http://purl.org/dc/dcmitype/StillImage" />
      </cc:Work>
    </rdf:RDF>
  </metadata>
  <defs
     id="defs2460">
    <inkscape:perspective
       sodipodi:type="inkscape:persp3d"
       inkscape:vp_x="0 : 526.18109 : 1"
       inkscape:vp_y="0 : 1000 : 0"
       inkscape:vp_z="744.09448 : 526.18109 : 1"
       inkscape:persp3d-origin="372.04724 : 350.78739 : 1"
       id="perspective2464" />
  </defs>
  <sodipodi:namedview
     inkscape:window-height="951"
     inkscape:window-width="1280"
     inkscape:pageshadow="2"
     inkscape:pageopacity="0.0"
     guidetolerance="10.0"
     gridtolerance="10.0"
     objecttolerance="10.0"
     borderopacity="1.0"
     bordercolor="#666666"
     pagecolor="#ffffff"
     id="base"
     showgrid="false"
     showguides="true"
     inkscape:guide-bbox="true"
     inkscape:zoom="2"
     inkscape:cx="190.09052"
     inkscape:cy="164.85401"
     inkscape:window-x="0"
     inkscape:window-y="24"
     inkscape:current-layer="g3291">
    <sodipodi:guide
       orientation="0,1"
       position="45.62963,18.37037"
       id="guide2472" />
    <sodipodi:guide
       orientation="1,0"
       position="157.33333,56.592593"
       id="guide2480" />
    <sodipodi:guide
       orientation="1,0"
       position="137.33594,43.921875"
       id="guide2482" />
    <sodipodi:guide
       orientation="1,0"
       position="4.7729708,24.660349"
       id="guide2484" />
    <sodipodi:guide
       orientation="1,0"
       position="155,26.875"
       id="guide2488" />
    <sodipodi:guide
       orientation="0,1"
       position="55.773047,81.31728"
       id="guide3265" />
  </sodipodi:namedview>
  <g
     id="g3291"
     style="fill:#e30101;fill-opacity:1"
     transform="matrix(2.1361649,0,0,2.1361649,-505.19463,-352.35029)">
    <path
       sodipodi:nodetypes="cccccccccccc"
       id="path2468"
       d="M 236.70399,214.73149 L 236.70399,277.6784 L 257.14844,277.6784 L 257.14844,250.04877 L 269.66696,277.6784 L 289.74103,277.6784 L 276.1114,245.01173 L 289.44474,214.73149 L 269.29659,214.73149 L 257.44474,239.97469 L 257.44474,214.73149 L 236.70399,214.73149 z"
       style="fill:#e30101;fill-opacity:1;fill-rule:evenodd;stroke:none;stroke-width:1px;stroke-linecap:butt;stroke-linejoin:miter;stroke-opacity:1" />
    <path
       sodipodi:nodetypes="cccccccccccc"
       id="path2474"
       d="M 291.46785,214.73149 L 291.46785,277.6784 L 311.91229,277.6784 L 311.91229,250.04877 L 324.43081,277.6784 L 344.50488,277.6784 L 330.87526,245.01173 L 344.20858,214.78951 L 324.06044,214.78951 L 312.20859,239.97469 L 312.20859,214.78951 L 291.46785,214.73149 z"
       style="fill:#e30101;fill-opacity:1;fill-rule:evenodd;stroke:none;stroke-width:1px;stroke-linecap:butt;stroke-linejoin:miter;stroke-opacity:1" />
    <path
       sodipodi:nodetypes="ccccccccccccc"
       id="path2478"
       d="M 347.68856,278.49321 L 346.82614,215.15347 L 387.00028,215.15347 L 387.00028,230.76219 L 367.00289,230.76219 L 367.00289,237.83326 L 386.97227,237.83326 L 386.97227,252.86358 L 367.00028,252.86358 L 367.00028,261.82655 L 387.00028,261.82655 L 387.00028,278.49321 L 347.68856,278.49321 z"
       style="fill:#e30101;fill-opacity:1;fill-rule:evenodd;stroke:none;stroke-width:1px;stroke-linecap:butt;stroke-linejoin:miter;stroke-opacity:1" />
    <rect
       y="285.01752"
       x="236.70399"
       height="9.0867062"
       width="150.22704"
       id="rect2486"
       style="fill:#e30101;fill-opacity:1;stroke:none;stroke-opacity:1" />
    <path
       sodipodi:nodetypes="ccccccccc"
       id="rect3260"
       d="M 236.49608,197.29751 L 256.62212,197.29751 L 271.93533,197.29751 L 291.67952,197.29751 L 287.87882,205.73938 L 274.5985,205.73938 L 255.31349,205.73938 L 236.49608,205.73938 L 236.49608,197.29751 z"
       style="fill:#e30101;fill-opacity:1;stroke:none;stroke-width:0.58417946;stroke-opacity:1" />
    <path
       sodipodi:nodetypes="ccccccccc"
       id="path3263"
       d="M 388.09375,197.19114 L 369.28336,197.19114 L 352.72115,197.19114 L 334.26764,197.19114 L 340.06989,205.65179 L 352.48208,205.65179 L 370.50644,205.65179 L 388.09375,205.65179 L 388.09375,197.19114 z"
       style="fill:#e30101;fill-opacity:1;stroke:none;stroke-width:0.56539112;stroke-opacity:1" />
    <path
       sodipodi:nodetypes="cccccccccccccccccccc"
       id="path3269"
       d="M 291.99352,205.67377 L 298.61852,205.67377 L 299.85647,203.03293 C 308.89184,206.50767 315.4123,206.80937 323.27385,202.17377 L 326.24352,205.67377 L 333.86852,205.67377 L 328.30602,198.42377 C 336.43788,181.84924 328.41703,169.55223 312.23588,165.05303 C 319.24572,172.85207 331.85147,180.36559 324.05602,193.29877 L 315.05602,184.29877 L 320.24352,179.11127 L 318.05602,176.79877 L 309.05602,176.79877 L 299.55602,186.29877 L 305.68102,192.42377 L 309.68102,188.42377 L 318.43102,197.17377 C 313.46696,200.51318 305.84646,199.87046 301.05602,197.04877 C 297.68102,195.17377 297.68102,195.04877 297.68102,195.04877 L 291.99352,205.67377 z"
       style="fill:#e30101;fill-opacity:1;fill-rule:evenodd;stroke:none;stroke-width:1px;stroke-linecap:butt;stroke-linejoin:miter;stroke-opacity:1" />
  </g>
</svg>
