<?xml version="1.0" encoding="UTF-8" standalone="no"?>
<!-- Created with Inkscape (http://www.inkscape.org/) -->

<svg
   xmlns:dc="http://purl.org/dc/elements/1.1/"
   xmlns:cc="http://creativecommons.org/ns#"
   xmlns:rdf="http://www.w3.org/1999/02/22-rdf-syntax-ns#"
   xmlns:svg="http://www.w3.org/2000/svg"
   xmlns="http://www.w3.org/2000/svg"
   version="1.1"
   width="715.74799"
   height="495.70865"
   id="svg5085">
  <defs
     id="defs5087" />
  <metadata
     id="metadata5090">
    <rdf:RDF>
      <cc:Work
         rdf:about="">
        <dc:format>image/svg+xml</dc:format>
        <dc:type
           rdf:resource="http://purl.org/dc/dcmitype/StillImage" />
        <dc:title></dc:title>
      </cc:Work>
    </rdf:RDF>
  </metadata>
  <g
     transform="translate(-29.443352,-317.12013)"
     id="layer1">
    <g
       transform="matrix(6.0158015,0,0,6.0158015,-2324.8665,-2250.6406)"
       id="g5110">
      <g
         transform="matrix(1.25,0,0,-1.25,426.65881,481.67737)"
         id="g5037">
        <path
           d="M 0,0 C 0.737,9.851 9.019,17.619 19.133,17.619 29.24,17.619 37.513,9.851 38.253,0 L 65.844,0 49.762,5.714 62.145,16.674 44.587,15.774 51.712,30.743 36.408,24.194 36.713,40.208 24.325,28.736 18.624,43.413 12.403,29.186 0.473,40.208 1.219,24.194 -14.763,30.817 -7.48,16.375 -24.585,16.74 -12.73,5.786 -27.725,0 0,0 z"
           id="path5039"
           style="fill:#00793a;fill-opacity:1;fill-rule:nonzero;stroke:none" />
      </g>
      <g
         transform="matrix(1.25,0,0,-1.25,471.53719,481.6795)"
         id="g5041">
        <path
           d="M 0,0 C -0.609,8.715 -7.921,15.592 -16.847,15.592 -25.776,15.592 -33.081,8.715 -33.689,0 L 0,0 z"
           id="path5043"
           style="fill:#00793a;fill-opacity:1;fill-rule:nonzero;stroke:none" />
      </g>
      <g
         transform="matrix(1.25,0,0,-1.25,391.94331,490.07325)"
         id="g5045">
        <path
           d="m 0,0 0.952,0 c 0.743,0 0.882,-0.425 0.902,-0.653 l 0,-10.566 c 0,-0.294 -0.261,-0.532 -0.544,-0.532 l -1.31,0 0,-2.832 7.737,0 0,2.832 -1.067,0 c -0.293,0 -0.549,0.238 -0.549,0.532 l -0.006,-0.007 0,10.637 C 6.121,-0.46 6.197,-0.048 6.866,0 l 4.764,0 c 0.75,0 0.86,-0.412 0.872,-0.566 l 0,-10.665 c -0.008,-0.282 -0.255,-0.515 -0.533,-0.52 l -1.059,0 0,-2.832 7.682,0 0,2.832 -1.312,0 c -0.287,0.005 -0.539,0.238 -0.539,0.532 l 0,-0.007 0,10.578 c 0.022,0.217 0.141,0.592 0.761,0.648 l 1.09,0 0,2.703 L 0,2.703 0,0 z m 41.164,0.218 4.065,-5.067 c 0.051,-0.062 0.211,-0.312 0.204,-0.481 -0.02,-0.2 -0.204,-0.487 -0.204,-0.487 l 0.008,-0.005 -4.441,-5.929 0,-2.832 14.537,0 0,6.39 -2.849,0 0,-2.965 0,0.003 0,-0.006 0,-0.029 c -0.007,-0.131 -0.086,-0.556 -0.952,-0.561 l -5.61,0 4.831,6.489 L 46.5,0 51.746,0 c 0.661,-0.062 0.731,-0.433 0.735,-0.547 l 0,-0.029 0,-0.01 0,-1.109 2.871,0 0,4.398 -14.188,0 0,-2.485 z m 24.691,2.79 c -2.631,0 -4.8,-0.835 -6.51,-2.501 -1.708,-1.68 -2.56,-3.817 -2.56,-6.405 0,-2.605 0.856,-4.759 2.573,-6.442 1.721,-1.684 3.882,-2.531 6.497,-2.531 2.625,0 4.802,0.852 6.505,2.543 1.707,1.693 2.568,3.841 2.568,6.43 0,2.572 -0.861,4.702 -2.576,6.39 -1.714,1.681 -3.881,2.516 -6.497,2.516 M 69.109,-9.98 c -0.758,-1.219 -1.838,-1.823 -3.254,-1.823 -1.443,0 -2.547,0.604 -3.29,1.813 -0.752,1.208 -1.131,2.589 -1.131,4.138 0,1.486 0.381,2.844 1.139,4.071 0.761,1.225 1.857,1.834 3.282,1.834 1.433,0 2.516,-0.609 3.267,-1.822 0.751,-1.218 1.125,-2.575 1.125,-4.083 0,-1.534 -0.384,-2.915 -1.138,-4.128 m 23.276,-1.771 -4.994,6.332 c -0.042,0.053 -0.177,0.273 -0.162,0.496 0.019,0.217 0.162,0.409 0.225,0.481 L 91.736,0 l 1.841,0 0,2.703 -7.575,0 0,-2.703 1.91,0 -5.329,-5.444 4.884,-6.307 -1.797,0 0,-2.832 8.57,0 0,2.832 -1.855,0 z m -9.855,0.574 0,10.717 c 0.04,0.177 0.209,0.445 0.91,0.455 l 0,0.005 0.944,0 0,2.703 -8.5,0 0,-2.703 1.486,0 c 0.953,0.012 0.896,-0.634 0.896,-0.634 l 0.004,0.012 0,-10.507 -0.004,0.003 c 0,0 0.057,-0.625 -0.879,-0.625 l -1.527,0 0,-2.832 8.524,0 0,2.832 -0.949,0 c -0.829,0.015 -0.899,0.457 -0.905,0.574 m -44.662,-0.559 c -0.303,0.079 -0.69,0.312 -0.92,0.929 L 33.398,0 l -0.855,2.694 -8.519,0 0,-2.694 1.875,0 c 0.153,-0.005 0.249,-0.1 0.249,-0.235 0,-0.016 -0.002,-0.048 -0.017,-0.073 l -3.368,-10.306 0,0.007 0,-0.012 -0.076,-0.234 c -0.232,-0.598 -0.623,-0.809 -0.915,-0.881 -0.112,-0.017 -0.184,-0.022 -0.222,-0.022 l -1.041,0 0,-2.834 7.477,0 0,2.834 -1.587,0 c -0.278,0.02 -0.278,0.217 -0.253,0.32 l 0.016,0.076 0.749,2.64 c 0.026,0.054 0.085,0.193 0.317,0.181 l 4.529,0 c 0.224,0.012 0.294,-0.14 0.306,-0.186 l 0.794,-2.635 0.018,-0.064 c 0.026,-0.1 0.039,-0.312 -0.246,-0.332 l -1.506,0 0,-2.834 7.736,0 0,2.834 -0.82,0 c -0.074,0 -0.132,0.014 -0.171,0.02 m -6.736,5.864 -3.221,0 C 27.792,-5.83 27.8,-5.654 27.823,-5.56 l 1.605,5.277 c 0.015,0.032 0.058,0.085 0.128,0.085 0.055,0 0.101,-0.048 0.12,-0.068 l 1.532,-5.238 -0.003,0 c 0,0 0.085,-0.31 -0.073,-0.368"
           id="path5047"
           style="fill:#000000;fill-opacity:1;fill-rule:nonzero;stroke:none" />
      </g>
    </g>
  </g>
</svg>
