<?xml version="1.0" encoding="UTF-8" standalone="no"?>
<!-- Created with Inkscape (http://www.inkscape.org/) -->
<svg xmlns:svg="http://www.w3.org/2000/svg" xmlns="http://www.w3.org/2000/svg" version="1.0" width="1000" height="800" id="svg2">
  <defs id="defs4"/>
  <g id="layer1">
    <g transform="matrix(0.8745911,0,0,0.8745911,174.6108,-60.193298)" id="g2243">
      <path d="M -151.95278,165.53717 L 896.04726,165.53717 L 896.04726,879.82287 L -151.95278,914.10858 L -151.95278,165.53717 z " style="fill:#ffffff;fill-opacity:1;fill-rule:nonzero;stroke:none;stroke-width:3;stroke-linecap:round;stroke-linejoin:round;stroke-miterlimit:4;stroke-dashoffset:0;stroke-opacity:1" id="rect2188"/>
      <path d="M 580.71875,14.5 C 580.48305,14.5 579.63535,15.145882 578.84375,15.9375 C 577.35305,17.428135 558.09577,25.437708 540.65625,31.8125 C 495.74401,48.229599 426.21189,60.815033 353.65625,65.625 C 275.24355,70.823254 128.44996,66.503889 42.15625,56.46875 C 32.53125,55.349454 16.78125,53.561581 7.15625,52.5 C -2.46875,51.43842 -14.168749,50.076027 -18.84375,49.46875 C -105.67948,38.188879 -210.02442,36.518332 -297.09375,45 C -310.99637,46.354294 -325.26876,47.71695 -328.84375,48.03125 C -343.49806,49.319594 -426.74614,61.240621 -448.15625,65.125 C -455.7539,66.503423 -462.84139,67.701041 -463.90625,67.78125 C -465.81544,67.92506 -465.85884,71.350082 -465.84375,313.96875 C -465.83533,449.28921 -465.49782,559.54997 -465.09375,559 C -464.68967,558.45 -463.66876,557.88195 -462.84375,557.75 C -459.97726,557.29156 -279.69419,508.53297 -278.78125,507.96875 C -278.23127,507.62884 -277.84376,457.90209 -277.84375,384.0625 C -277.84375,286.62213 -277.58145,260.53033 -276.59375,259.71875 C -274.84285,258.28005 -180.23223,233.2765 -178.09375,233.6875 C -176.50943,233.992 -176.33971,235.9264 -176.09375,254.4375 C -175.91551,267.85148 -176.17761,275.23361 -176.875,275.9375 C -177.45878,276.5267 -187.71583,279.51449 -199.65625,282.59375 L -221.34375,288.1875 L -221.625,319.34375 C -221.77033,336.47699 -221.54221,350.5 -221.125,350.5 C -220.70778,350.5 -211.88785,348.22039 -201.53125,345.4375 C -191.17464,342.65462 -181.72776,340.51712 -180.53125,340.6875 C -178.38891,340.99257 -178.36071,341.31325 -178.09375,361.375 C -177.91866,374.53258 -178.1967,382.18271 -178.875,383 C -179.45263,383.69599 -189.34102,386.62233 -200.875,389.5 L -221.84375,394.75 L -221.84375,464.125 C -221.84375,513.27194 -221.54869,533.49997 -220.78125,533.5 C -218.89764,533.5 -203.53404,529.41122 -201.65625,528.40625 C -196.42734,523.39997 -168.30389,518.14689 -162.30804,516.53125 C -124.57802,506.47729 -124.24856,506.51094 -129.80804,505.5625 C -143.94994,503.14992 -153.2584,493.38021 -157.90625,480.15625 C -159.87664,474.55012 -159.88361,472.40628 -159.59375,366.21875 C -159.32644,268.29525 -159.15165,257.61964 -157.65625,254 C -152.58786,241.73191 -143.17669,229.02527 -134.34375,222.5 C -131.36627,220.30041 -128.53057,218.5 -128.03125,218.5 C -127.53194,218.5 -125.98978,217.59811 -124.59375,216.5 C -120.8208,213.5322 -107.5575,208.13783 -97.34375,205.40625 C -89.86756,203.4068 -85.973381,203 -74.34375,203 C -60.83875,203 -60.15144,203.10564 -54.5625,205.9375 C -48.17649,209.17325 -42.024401,215.22708 -39.09375,221.15625 C -34.75699,229.93023 -34.739559,230.90684 -35.0625,340 L -35.34375,444 L -38.5,452.8125 C -43.13405,465.76611 -48.950879,473.7193 -60.78125,483.3125 C -64.39096,486.2396 -69.031251,489.34237 -71.09375,490.1875 C -73.15625,491.03261 -74.843751,492.35972 -74.84375,493.125 C -74.84375,494.94843 -75.079112,494.97792 -62.46875,491.59375 C -51.72872,488.71152 -49.726608,491.39549 -49.875,484.3125 C -49.927014,481.82977 -48.774141,481.38893 -32.34375,477 L -17.34375,473 L -17.09375,331.78125 C -16.85467,198.57113 -16.74136,190.52989 -15.09375,189.65625 C -13.34801,188.73056 44.319809,173.44357 55.65625,170.90625 C 66.90059,168.38955 80.710781,169.72881 89.59375,174.1875 C 93.96999,176.3841 100.97633,183.38212 103.28125,187.84375 C 107.8885,196.76201 109.14134,205.4276 109.125,228.40625 C 109.10804,252.24504 107.80754,260.58834 102.375,271.5 C 99.186504,277.90433 87.434379,290.715 83.125,292.5 C 81.48578,293.17899 80.156249,294.08777 80.15625,294.5 C 80.15625,294.91224 82.941191,295.55255 86.34375,295.9375 C 89.74632,296.32246 93.683821,297.26084 95.09375,298 C 99.37709,300.24554 103.88793,305.70107 106.25,311.5 C 108.42444,316.83831 108.49236,318.44052 109.21875,366 C 109.63036,392.95 110.40444,416.8 110.9375,419 C 111.47056,421.2 112.48064,425.43265 113.15625,428.40625 C 113.83186,431.37986 115.00028,435.29942 115.75,437.09375 C 116.96532,440.00243 118.29783,444.35987 120.76786,443.70089 L 123.54911,442.98214 L 123.21875,415.9375 L 123.78125,393 L 146.4375,290.0625 C 158.89885,233.44234 168.89678,186.92803 168.65625,186.6875 C 168.41573,186.44697 158.22743,188.73013 146.03125,191.78125 C 133.83508,194.83236 123.24732,197.09929 122.5,196.8125 C 121.41516,196.39621 121.15625,192.10278 121.15625,175.46875 C 121.15625,164.01005 121.50984,154.37736 121.96875,154.09375 C 122.42767,153.81012 145.63037,147.45607 173.53125,139.96875 C 213.88261,129.14031 224.57591,126.61403 225.71875,127.5625 C 226.87918,128.52557 227.13407,132.52219 227.125,148.375 L 227.125,168 L 202.71875,275 C 189.30388,333.85 178.48749,382.26783 178.6875,382.59375 C 178.88751,382.91968 189.49143,380.32619 202.25,376.8125 C 215.00856,373.29882 226.07502,370.6545 226.8125,370.9375 C 227.77627,371.30733 228.17009,373.7664 228.21875,379.71875 C 228.26528,385.41209 228.54755,387.37497 229.15625,386 C 229.64322,384.9 238.18281,323.49512 248.125,249.53125 C 258.06717,175.56738 266.54136,114.75024 266.9375,114.375 C 267.33363,113.99976 283.1558,109.60955 302.125,104.625 C 329.12336,97.530619 336.88275,95.822447 337.78125,96.78125 C 338.45023,97.49511 344.83452,149.52123 353.09375,221.5 C 360.88783,289.425 367.55706,345.30297 367.9375,345.65625 C 368.31792,346.00954 415.45624,333.69542 472.65625,318.3125 C 529.85625,302.92958 577.66877,290.33912 578.90625,290.3125 L 581.15625,290.25 L 581.15625,152.375 C 581.15625,76.543746 580.95446,14.5 580.71875,14.5 z M 296.3125,178.625 C 296.21152,178.69382 296.15624,178.83613 296.15625,179.09375 C 296.15625,181.6388 290.10872,264.70653 289.59375,269.25 C 289.09182,273.67845 289.25081,274.5 290.625,274.5 C 292.86964,274.5 301.48397,272.37756 302.28125,271.625 C 303.03025,270.91802 297.52978,179.56103 296.6875,178.71875 C 296.53429,178.56554 296.41348,178.55618 296.3125,178.625 z M 47.09375,217.65625 C 46.090695,217.70198 44.955792,217.86762 43.65625,218.0625 L 39.15625,218.71875 L 39.15625,256.125 C 39.15625,285.37922 39.428149,293.48592 40.40625,293.46875 C 41.09375,293.45667 43.511481,292.60721 45.8125,291.5625 C 53.34416,288.14301 53.602722,287.04807 53.96875,254.5 C 54.331429,222.2498 54.115136,217.33611 47.09375,217.65625 z M -94.78125,250.84375 C -95.571586,250.62715 -96.462651,250.67743 -97.46875,251.03125 C -99.14075,251.61926 -101.23029,253.67904 -102.5625,256.03125 L -104.8125,260 L -104.84375,354.1875 C -104.8601,447.82679 -104.68352,452.71434 -101.53125,454.71875 C -98.520266,456.63329 -94.601508,454.74923 -92.125,450.21875 C -90.48815,447.22432 -90.348576,440.68601 -90.0625,357 C -89.89329,307.5 -90.025358,264.21083 -90.375,260.78125 C -90.990682,254.74211 -92.410243,251.49354 -94.78125,250.84375 z M 305.78125,315.8125 C 304.99773,315.02899 285.33371,320.39646 284.59375,321.59375 C 284.31341,322.04734 282.52442,338.07986 280.625,357.21875 C 278.72557,376.35764 272.82751,405.93313 275.16518,406.25 L 287.38393,407.90625 L 299.22768,400.11161 L 305.92857,397.94643 L 310.64732,395.63393 C 312.1733,394.8861 306.54166,316.5729 305.78125,315.8125 z M 43.375,328.71875 C 42.607963,328.6802 41.87774,328.75959 41.21875,328.96875 C 39.57597,329.49014 39.417041,333.84772 38.75,395.75 C 38.33688,434.08865 37.63416,462.41135 37.09375,463.0625 C 36.58055,463.68087 33.687741,464.72783 30.65625,465.40625 C 27.62475,466.08467 25.060999,467.05987 25.15625,467.53125 C 26.227679,472.83359 29.793751,469.57539 32.40625,468.81696 C 35.01875,468.05853 41.313392,466.66052 49.013393,464.64732 C 61.873323,461.28503 67.364765,459.17857 63.294643,459.17857 C 61.098783,459.17857 57.687469,449.55809 55.75,440.15625 C 54.39836,433.59722 54.12966,424.84187 54.125,387.15625 C 54.11923,340.38717 53.78613,336.01276 49.9375,331.84375 C 48.25234,330.01829 45.676111,328.83441 43.375,328.71875 z " transform="translate(314.19082,76.889281)" style="fill:#009900" id="path2209"/>
      <path d="M 894.99892,441.40267 C 894.59482,442.0054 849.24892,454.88535 794.24892,470.02767 C 698.55952,496.37237 694.23412,497.66358 693.99892,499.93392 C 693.86372,501.23885 699.55922,553.3839 706.65512,615.80892 C 718.90132,723.54099 719.47682,729.38057 717.81142,730.84017 C 715.44162,732.91705 663.89902,746.37387 662.74892,745.21517 C 662.25862,744.72127 660.55112,727.99045 658.93642,708.02767 C 657.32172,688.06494 655.78912,671.53661 655.56142,671.30892 C 655.33372,671.08122 650.46562,672.09969 644.71762,673.59017 L 634.24892,676.30892 L 630.06142,715.80892 C 627.75912,737.53394 625.84982,755.38651 625.81142,755.46517 C 625.55862,755.98264 619.70252,757.69853 600.74892,762.84017 C 584.18592,767.33333 578.98542,768.40627 578.06142,767.49642 C 577.12992,766.5792 581.08522,734.4747 595.78012,623.80892 C 606.18732,545.43394 614.90412,479.14306 615.15512,476.49642 C 615.16722,476.36968 615.17402,476.27509 615.18642,476.15267 L 564.06142,489.12142 L 563.49892,628.62142 C 562.99972,750.7687 562.71912,770.37698 561.46762,771.27767 C 559.14622,772.94851 510.04122,785.12892 508.31142,784.46517 C 506.89752,783.92262 506.74892,770.10088 506.74892,643.99642 C 506.74892,568.07075 506.52292,505.68971 506.24892,503.80892 L 446.74892,518.90267 L 446.74892,638.84017 C 446.74892,734.12315 447.00602,758.81107 447.99892,758.84017 C 448.68642,758.86034 458.60062,756.49781 470.03012,753.59017 C 487.97452,749.02518 490.95662,748.51365 491.78012,749.80892 C 492.30472,750.63394 492.74052,759.94824 492.74892,770.49642 C 492.76182,786.61222 492.50682,789.92598 491.18642,791.24642 C 490.32212,792.11073 489.45042,792.8089 489.24892,792.80892 C 489.04742,792.80894 467.84192,798.44812 442.12392,805.34017 C 416.40592,812.23226 394.77752,817.64621 394.06142,817.37142 C 393.00042,816.9643 392.74892,790.57348 392.74892,674.84017 L 392.74892,532.80892 L 391.93642,532.80892 L 341.03012,545.74642 C 340.65632,546.05245 340.38582,546.38225 340.28012,546.71517 C 339.97222,547.68533 346.90302,609.86885 355.68642,684.90267 C 368.15402,791.41058 371.41062,821.5658 370.46762,822.49642 C 369.22462,823.72313 318.36822,836.8089 314.84262,836.80892 C 313.75942,836.80894 312.67842,836.4714 312.43637,836.05892 C 312.19434,835.64644 310.73722,818.8839 309.21762,798.80892 C 307.69805,778.73394 306.12653,761.92577 305.71762,761.46517 C 304.99322,760.64919 285.96007,765.31802 284.56137,766.65267 C 284.175,767.0214 282.0096,784.84531 279.78012,806.27767 C 277.05134,832.50996 275.29422,845.70106 274.40512,846.59017 C 272.81815,848.17718 228.95562,860.0502 227.65512,859.24642 C 227.15472,858.93716 226.74892,857.39314 226.74892,855.80892 C 226.74882,854.22469 235.03757,791.14225 245.18637,715.62142 C 255.33519,640.10065 264.11205,574.51703 264.68637,569.87142 C 264.90875,568.0728 265.20876,566.39721 265.49887,564.90267 L 241.21762,571.05892 C 239.83201,573.71009 239.74887,579.4129 239.74887,594.96517 C 239.74889,612.0397 239.57931,613.93099 237.99887,614.55892 C 237.03639,614.94135 229.27392,617.06483 220.74892,619.27767 L 205.24892,623.30892 L 204.99892,744.93392 C 204.79922,840.59833 204.47892,866.79124 203.49892,867.55892 C 202.81362,868.09575 191.20592,871.53018 177.71762,875.18392 C 164.22932,878.83766 152.97562,881.8089 152.68632,881.80892 C 150.01462,881.80894 149.89522,876.4744 150.46762,758.68392 C 150.79072,692.20438 150.70492,637.8089 150.24892,637.80892 C 149.79302,637.80894 142.26442,639.68282 133.53012,641.96517 C 124.08862,644.43234 117.28542,645.75167 116.74892,645.21517 C 115.53452,644.0007 115.25312,604.32875 116.43632,602.71517 L 93.78012,608.46517 L 93.78012,683.18392 C 93.78952,889.02848 93.75072,893.35434 91.87392,894.90267 C 89.94312,896.49569 43.92002,908.8089 39.90512,908.80892 C 38.71772,908.80894 37.72692,908.2464 37.68632,907.55892 C 37.64602,906.87144 37.67072,851.0714 37.74892,783.55892 C 37.88142,669.21391 37.78252,660.8089 36.21762,660.80892 C 35.29362,660.80894 -6.04988,672.1212 -55.62608,685.93392 C -105.20238,699.74665 -146.76388,711.10912 -148.00108,711.18392 L -150.25108,711.30892 L -150.21988,836.80892 C -150.21168,906.93771 -149.85518,961.72109 -149.37608,960.96517 C -147.55108,958.08519 -101.81058,945.55902 -70.75108,939.43392 C -31.16458,931.62734 -8.73558,929.04355 57.74892,924.68392 C 80.51942,923.19074 158.27562,923.2295 184.24892,924.74642 C 236.56234,927.80174 273.3961,931.69511 349.74892,942.18392 C 383.73312,946.85254 406.31792,948.6339 472.15512,951.90267 C 499.29472,953.25009 617.92462,952.54339 639.15512,950.90267 C 646.79912,950.31199 660.52402,949.36725 669.65512,948.80892 C 713.89742,946.10404 780.49382,936.9859 826.78012,927.30892 C 840.30092,924.48224 868.01552,916.94536 881.43642,912.43392 C 888.68412,909.99763 894.87162,908.27529 895.18642,908.59017 C 895.50132,908.90505 895.75732,803.64436 895.74892,674.71517 C 895.74052,545.78602 895.40302,440.79992 894.99892,441.40267 z M 646.21762,534.02767 C 645.94072,534.12312 645.71512,535.51778 645.68642,537.40267 C 645.65352,539.55683 644.15112,561.1089 642.34262,585.30892 C 640.53422,609.50891 639.19592,629.5955 639.37392,629.93392 C 639.83372,630.80804 652.06652,627.32467 652.43642,626.21517 C 652.94052,624.70287 646.98972,534.73726 646.34262,534.09017 C 646.30162,534.04912 646.25722,534.01403 646.21762,534.02767 z M 296.81137,625.43392 C 296.09109,626.14828 288.88196,720.04738 289.46762,721.09017 C 289.71188,721.52506 290.6764,721.67518 291.59262,721.40267 C 292.50885,721.13018 295.44012,720.37328 298.12387,719.71517 L 302.99887,718.49642 L 302.43637,711.90267 C 302.12158,708.27342 300.86199,687.21265 299.62387,665.09017 C 298.38577,642.9677 297.11718,625.13063 296.81137,625.43392 z " style="fill:#c50000" id="path2174"/>
    </g>
  </g>
</svg>