<?xml version="1.0" encoding="utf-8"?>
<!-- Generator: Adobe Illustrator 22.0.0, SVG Export Plug-In . SVG Version: 6.00 Build 0)  -->
<svg version="1.1" id="Layer_1" xmlns="http://www.w3.org/2000/svg" xmlns:xlink="http://www.w3.org/1999/xlink" x="0px" y="0px"
	 viewBox="0 0 640 405" style="enable-background:new 0 0 640 405;" xml:space="preserve">
<style type="text/css">
	.st0{fill:none;}
	.st1{fill:#F5B024;}
	.st2{fill:#CB2129;}
	.st3{fill:#1565B0;}
</style>
<g id="XMLID_1_">
	<g id="XMLID_394_">
		<g id="XMLID_395_">
			<path id="XMLID_401_" d="M16.3,271.9c6.2,5.7,8.9,13.5,13.1,20.4c2,3.4,3.8,6.9,5.7,10.2c0.7,1.3,0.8,2.3,0,3.8
				c-3.9,6.6-7.7,13.4-11.6,20c-2,3.5-4,7-6.2,10.4c-1.5,2.3-3.4,4.2-5.1,6.2c-0.3,0.3-0.5,0.5-1.1,1.2c19.1,0.1,37.8,0.3,56.6,0.3
				c0-6.5,0-12.5,0-19.1c-0.5,0.8-0.8,1.2-1.3,1.9c-0.8,0.1-1.8,0.4-2.6,0.4c-6.6,0-13.1,0-19.7,0c-0.3,0-0.5-0.1-1.2-0.3
				c4.7-8,9.2-15.9,13.9-23.7c-2.6-4.9-5.1-9.6-7.8-14.6c2.8,0,5.5,0,8.1,0c1.5,0,3,0,4.5,0c2,0,4-0.3,5.4,1.8
				c0.1-0.1,0.3-0.1,0.4-0.3c0.1-4.6,0.1-9,0.3-13.6c0.1,0,0.3,0,0.4-0.1c1.3,2,2.6,3.9,3.9,5.9c5.9,9.3,11.7,18.6,17.5,27.9
				c0.5,0.9,0.9,2.2,0.9,3.4c0,8.8,0,17.5,0,26.3c0,1.6,0.1,3.2-2.2,3.8c0.1,0.1,0.3,0.3,0.3,0.4c6.9,0,13.8,0,20.6,0
				c-1.9-1.2-1.6-3.1-1.6-4.7c0-8.2,0-16.3,0-24.5c0-1.6,0.4-3.1,1.3-4.6c6.7-11.2,13.5-22.4,20.2-33.7c0-0.1,0.1-0.1,0.4-0.3
				c0.1,0.4,0.3,0.7,0.3,1.1c0,17-0.1,33.8-0.1,50.8c0,3.5,0,7.1,0.1,10.7c0,2-0.1,3.8-2,5.7c7.6,0,14.6,0,21.6,0
				c-0.7-0.8-1.5-1.5-1.9-2.4c-0.4-0.9-0.3-2-0.3-3c0-7.8,0.1-15.5,0.1-23.3c0-0.9,0.1-2,0.1-3c0.1-0.1,0.3-0.1,0.4-0.3
				c11.5,11.3,22.9,22.7,34.5,34.1c0.3-0.7,0.4-0.9,0.7-1.6c7.1,0,14.3,0,21.4,0c0-0.1,0-0.3,0-0.3c-0.4-0.3-0.8-0.5-1.2-0.8
				c-1.2-0.9-1.6-2.2-1.2-3.5c0.7-2,1.6-3.9,2.4-6.1c7.4,0,14.8,0,22.3,0c0.9,2.3,2,4.5,3,6.7c0.5,1.2,0,2.3-1.9,4
				c24-0.1,47.7-0.1,71.6-0.3c0-6.1,0-12.1,0-18.3c-0.3,0-0.5,0-0.5,0c-1.2,1.9-3.1,2-5.1,2c-6.9-0.1-13.6,0-20.5-0.1
				c-0.5,0-1.2-0.1-2.2-0.1c4.9-8.1,9.6-15.9,14.3-23.7c-2.8-5.1-5.5-10-8.5-15.2c2.4,0,4.3,0,6.3,0c3.2,0,6.6,0,9.8-0.1
				c1.9,0,3.5,0.3,4.2,2.3c0,0.1,0.3,0.3,0.7,0.5c0-6.7,0-13.4,0-20.1c-17.8,0-35.5,0.1-53.3,0.1c0.1,0.3,0.3,0.5,0.4,0.7
				c3.8,2.6,5.7,6.6,7.8,10.4c3.8,6.7,7.6,13.4,11.3,20.1c0.7,1.1,0.8,2,0,3.2c-3.4,5.3-6.6,10.7-9.8,15.9
				c-2.2,3.6-4.3,7.3-6.5,10.8c-0.1,0.3-0.4,0.7-0.9,1.2c-10.4-22.1-20.8-44.1-31.2-65.9c-0.1,0-0.3-0.1-0.5-0.1
				c-5.5,11.6-10.7,23.3-15.9,35.1c-5.4,11.7-10.7,23.5-16,35.1c-0.1,0-0.3,0-0.5-0.1c0-1.6,0-3.4,0-5c0-10.5,0-21.2,0-31.7
				c0-8.4,0.1-16.7,0.1-25.1c0-1.9,0.1-3.6,2.2-4.6c0-0.1-0.1-0.3-0.1-0.4c-7.1,0-14.3,0-22,0c2.4,1.1,2.3,2.8,2.3,4.7
				c-0.1,7.8-0.1,15.6-0.1,23.6c0,0.7,0,1.3-0.3,2.2c-12-10.9-22.9-22.8-34.9-34.3c-0.1,1.3-0.1,2.3-0.1,3.5c-7.4,0-14.8,0-22.3,0
				c0.7,1.2,1.6,2,1.6,3c0,1.1-0.7,2.2-1.2,3.1c-2.4,4.2-5,8.4-7.6,12.5c-0.3,0.5-0.7,0.9-1.1,1.6c-1.5-2.2-2.7-4.2-4-6.2
				c-1.8-2.7-3.5-5.4-5.1-8.1c-1.6-2.6-1.6-3.2,0.5-5.9c-24.8-0.1-49.5-0.3-74-0.5C16.4,271.7,16.4,271.8,16.3,271.9z M215.1,308.6
				c0.1,0,0.4-0.1,0.5-0.1c1.3,3.2,2.8,6.3,4.3,9.8c-3.1,0-5.7,0-8.8,0C212.5,315,213.9,311.9,215.1,308.6z"/>
			<path id="XMLID_398_" d="M476.7,310c-7.6-13.8-14.7-27-22-40.3c-0.3,0-0.4,0-0.7,0c-5,22.3-10.1,44.6-15.1,66.9
				c-0.3,0-0.4,0-0.7,0c0-3.4,0-6.6,0-10c-0.1-0.1-0.4-0.3-0.5-0.3c-0.7,3.1-2.8,2.8-5,2.8c-6.3,0-12.7-0.1-19-0.1
				c-0.5,0-0.9-0.1-1.6-0.3c4.7-8.1,9.4-16.2,14.2-24.1c-2.8-5-5.5-9.8-8.4-14.7c0.5-0.1,0.8-0.3,1.1-0.3c4.5,0,8.9,0,13.4,0
				c3,0,3.4,0.3,4.5,2.8c0.7-0.8,0.8-16.2,0.1-20c-17.4,0-34.9,0.1-52.3,0.1c1.2,1.1,2.7,2.3,3.8,3.6c1.5,1.9,2.8,4,4.2,6.1
				c4,6.9,8,13.8,12.1,20.5c0.7,1.2,0.8,2.2,0,3.4c-3.4,5.4-6.7,10.7-10,16.2c-3.4,5.5-6.6,11.2-10,16.9c-0.9,1.5-2,2.7-3,4
				c-0.3-0.1-0.4-0.1-0.7-0.3c0-1.3,0-2.7,0-3.9c0-14.2,0-28.3-0.1-42.5c0-7.1-0.1-14.2,0-21.3c0-0.9,0.7-1.9,1.1-3
				c-6.5,0-13.2,0-20.1,0c2.3,2.6,1.1,5.8,1.3,8.6c0.3,5.9,0.1,12,0.1,17.9c0,7.6,0,15,0,22.5c0,6.2,0.1,12.5,0.1,18.7
				c0,1.1,0,2.2,0,3.1c-0.5,0.7-1.1,1.2-1.5,1.8c0,0.1,0,0.3,0,0.5c32.4,0.1,64.9,0.3,97.4,0.4c0-0.5,0-0.7-0.1-0.7
				c-3-1.6-3.2-2.6-2.4-5.9c1.3-5.7,2.6-11.2,3.8-16.9c0.1-0.5,0.4-1.1,0.5-1.6c0.1,0,0.3-0.1,0.5-0.1c4.9,8.8,9.7,17.5,14.7,26.4
				c0.3,0,0.4,0,0.7,0c4.7-9.2,9.6-18.2,14.3-27.4c0.1,0,0.3,0,0.5,0c0.3,0.9,0.7,1.8,0.9,2.7c1.3,5.7,2.7,11.3,4.2,17
				c0.7,2.4,1.1,4.6-1.9,5.9c0.1,0.1,0.1,0.3,0.3,0.4c8.1,0,16.3,0,24.4-0.1c0-0.1,0-0.4,0-0.4c-2.6-1.1-3.4-3.2-3.9-5.7
				c-1.3-5.5-2.7-11.1-4-16.6c0-0.3,0-0.4,0.1-0.7c4.9,10.5,12,18.6,23.1,22.5c11.1,3.9,22,3.4,32.2-2.4c16-8.8,23.7-27,18.6-44.6
				c-5.5-18.7-22.4-29.3-40.7-27.9c-10.8,0.8-19.7,5.7-26.6,14.2c-6.9,8.4-9.6,18.1-8.8,28.9c-0.1,0-0.3,0-0.4,0
				c-1.9-7.1-3.6-14.4-5.5-21.6s-3.6-14.3-5.5-21.4c-0.3,0-0.4,0-0.7,0C490.6,283,483.8,296.3,476.7,310z M548.4,329.1
				c-10.4,0.4-20-8.4-20.6-18.9c-0.8-11.7,8.2-21.6,19.3-22.1c12.3-0.5,21.4,7.8,21.8,20.1C569.3,319.4,559.8,329.4,548.4,329.1z"/>
			<path id="XMLID_397_" d="M337.4,345.4c6.9,0,13.8,0,20.6,0c-2.3-1.6-1.5-3.9-1.5-5.9c0-10,0-20,0-29.9c0-6.9,0-13.6-0.1-20.5
				c0-4.2,0-8.5-0.1-12.7c0-1.6,0.1-3,1.6-3.8c0-0.1-0.1-0.3-0.1-0.4c-18.2,0-36.4,0.1-54.8,0.1c2.3,2.2,1.6,5,1.6,7.7
				c0,9.3,0,18.7,0,28c0,11.5,0,22.9-0.1,34.4c0,0.9-0.7,1.9-1.2,2.8c6.6,0,13.4,0,20.2,0c-1.6-1.8-1.8-1.8-1.8-4.5
				c0-16.3,0.1-32.6,0.1-49c0-0.7,0.1-1.5,0.1-2.3c5.4,0,10.7,0,16.5,0c0,1.8,0,3.2,0,4.9c0,12.4,0.1,24.7,0.1,37.1c0,3,0,5.9,0,9
				C338.7,342.2,339,344.1,337.4,345.4z"/>
			<path id="XMLID_396_" d="M578,273c0.9,0.9,1.8,1.6,2.4,2.6c2.3,3.5,4.5,6.9,6.5,10.4c3.5,6.1,6.7,12.3,10.1,18.3
				c0.3,0.5,0.5,1.1,0.8,1.9c-2,3.4-3.9,6.7-5.9,10.1c-4.5,7.7-8.9,15.4-13.6,23.1c-1.1,1.8-2.6,3.1-3.9,4.7
				c-0.4,0.4-0.7,0.8-1.1,1.5c18.7,0.5,37.5,0.5,56.6,0.5c0.4-6.5,0.4-12.8,0-19.1c-0.4,0-0.4,0-0.5,0c-1.2,2.4-3.2,2.4-5.5,2.4
				c-5.7-0.1-11.3-0.1-17-0.1c-0.5,0-1.1-0.1-2.2-0.1c4.7-8.1,9.3-15.9,14-24c-2.4-4.7-5-9.4-7.7-14.4c0.9-0.1,1.5-0.1,2-0.1
				c3.4,0,6.7,0,10.1,0c3.1,0,3.1,0,5.8,1.9c0.4-6.6,0.1-12.9,0.1-19.6C612.2,272.9,595.4,272.9,578,273z"/>
		</g>
	</g>
	<path id="XMLID_406_" d="M15.6,396v-28.2H7V364h20.8v3.8h-8.6V396H15.6z"/>
	<path id="XMLID_408_" d="M32.5,396v-32H36v13.1h13.6V364h3.5v32h-3.5v-15.1H36V396H32.5z"/>
	<path id="XMLID_410_" d="M57.8,363.9h17.8v3.8h-14l8.9,11.6l-8.9,12.8h14.8v3.8H57.8v-4.5l8.6-12.3l-8.6-11.1V363.9z"/>
	<path id="XMLID_412_" d="M90.2,396l10.1-32h3.8l10.8,32H111l-3.1-9.7H96.8L94,396H90.2z M97.6,382.8h8.9l-2.7-8.9
		c-0.8-2.7-1.5-5-1.9-6.6c-0.4,2-0.8,4-1.5,6.1L97.6,382.8z"/>
	<path id="XMLID_415_" d="M116.9,396v-32h9.8c2.3,0,4,0.3,5.1,0.7c1.5,0.5,2.7,1.6,3.6,3.1c0.9,1.5,1.3,3.4,1.3,5.5
		c0,2.8-0.7,5.3-2.2,7c-1.5,1.8-4,2.7-7.6,2.7h-6.7V396H116.9z M120.3,379.1h6.7c2.2,0,3.6-0.5,4.7-1.5c0.9-0.9,1.5-2.4,1.5-4.3
		c0-1.2-0.3-2.3-0.7-3.2c-0.5-0.9-1.1-1.5-1.8-1.9c-0.7-0.3-1.9-0.5-3.8-0.5h-6.7V379.1z"/>
	<path id="XMLID_418_" d="M140.8,396v-32h3.5v32H140.8z"/>
	<path id="XMLID_420_" d="M149.3,363.9h17.8v3.8h-14l8.9,11.6l-8.9,12.8h14.8v3.8h-18.6v-4.5l8.6-12.3l-8.6-11.1V363.9z"/>
	<path id="XMLID_422_" d="M177.3,396v-28.2h-11.1V364h23.2v3.8h-8.6V396H177.3z"/>
	<path id="XMLID_424_" d="M192.4,396v-32h19v3.8h-15.5v9.8h14.6v3.8h-14.6v10.9h16v3.8h-19.6V396z"/>
	<path id="XMLID_426_" d="M215.6,396v-32h9.8c2.3,0,4,0.3,5.1,0.7c1.5,0.5,2.7,1.6,3.6,3.1c0.9,1.5,1.3,3.4,1.3,5.5
		c0,2.8-0.7,5.3-2.2,7c-1.5,1.8-4,2.7-7.6,2.7h-6.7V396H215.6z M219,379.1h6.7c2.2,0,3.6-0.5,4.7-1.5c0.9-0.9,1.5-2.4,1.5-4.3
		c0-1.2-0.3-2.3-0.7-3.2c-0.5-0.9-1.1-1.5-1.8-1.9c-0.7-0.3-1.9-0.5-3.8-0.5H219V379.1z"/>
	<path id="XMLID_429_" d="M233.6,396l10.1-32h3.8l10.8,32h-3.9l-3.1-9.7h-11.1l-2.8,9.7H233.6z M241.1,382.8h8.9l-2.7-8.9
		c-0.8-2.7-1.5-5-1.9-6.6c-0.4,2-0.8,4-1.5,6.1L241.1,382.8z"/>
	<path id="XMLID_432_" d="M259.7,363.9h17.8v3.8h-14l8.9,11.6l-8.9,12.8h14.8v3.8h-18.6v-4.5l8.6-12.3l-8.6-11.1L259.7,363.9
		L259.7,363.9z"/>
	<path id="XMLID_434_" d="M295.5,396v-32h3.5V380L312,364h4.7L305.7,377l11.5,19h-4.6l-9.3-16.2l-4.3,5.1V396H295.5z"/>
	<path id="XMLID_436_" d="M317.2,396l10.1-32h3.8l10.8,32h-3.9l-3.1-9.7h-11.1l-2.8,9.7H317.2z M324.7,382.8h8.9l-2.7-8.9
		c-0.8-2.7-1.5-5-1.9-6.6c-0.4,2-0.8,4-1.5,6.1L324.7,382.8z"/>
	<path id="XMLID_439_" d="M345.1,396v-32h3.5v32H345.1z"/>
	<path id="XMLID_441_" d="M376.4,396v-28.2h-8.6V364h20.8v3.8h-8.6V396H376.4z"/>
	<path id="XMLID_443_" d="M392.1,396v-32h3.5v13.1h13.6V364h3.5v32h-3.5v-15.1h-13.8V396H392.1z"/>
	<path id="XMLID_445_" d="M417.5,363.9h17.8v3.8h-14l8.9,11.6l-8.9,12.8h14.8v3.8h-18.6v-4.5l8.6-12.3l-8.6-11.1L417.5,363.9
		L417.5,363.9z"/>
	<path id="XMLID_447_" d="M456.9,396h-3.5v-32H474v32h-3.5v-28.2h-13.6L456.9,396L456.9,396z"/>
	<path id="XMLID_449_" d="M479.1,396v-32h9.8c2.3,0,4,0.3,5.1,0.7c1.5,0.5,2.7,1.6,3.6,3.1c0.9,1.5,1.3,3.4,1.3,5.5
		c0,2.8-0.7,5.3-2.2,7c-1.5,1.8-4,2.7-7.6,2.7h-6.7V396H479.1z M482.6,379.1h6.7c2.2,0,3.6-0.5,4.7-1.5c0.9-0.9,1.5-2.4,1.5-4.3
		c0-1.2-0.3-2.3-0.7-3.2c-0.5-0.9-1.1-1.5-1.8-1.9c-0.7-0.3-1.9-0.5-3.8-0.5h-6.7L482.6,379.1L482.6,379.1z"/>
	<path id="XMLID_452_" d="M502.6,380.4c0-5.4,1.2-9.7,3.6-12.5c2.4-3,5.4-4.5,9-4.5c2.3,0,4.5,0.7,6.3,2c1.9,1.3,3.4,3.2,4.6,5.7
		c1.1,2.6,1.6,5.5,1.6,8.9c0,4.7-1.1,8.6-3.2,11.6c-2.4,3.2-5.5,5-9.3,5c-3.9,0-7-1.8-9.3-5.1C503.7,388.3,502.6,384.7,502.6,380.4z
		 M506.2,380.4c0,3.9,0.8,7,2.6,9.2c1.8,2.2,3.9,3.2,6.3,3.2c2.6,0,4.7-1.1,6.5-3.2c1.8-2.2,2.6-5.4,2.6-9.7c0-2.7-0.4-5.3-1.3-7.4
		c-0.7-1.6-1.8-3-3.1-4c-1.3-0.9-2.8-1.5-4.5-1.5c-2.6,0-4.7,1.1-6.5,3.2C507,372.4,506.2,375.9,506.2,380.4z"/>
	<path id="XMLID_455_" d="M531.7,380.4c0-5.4,1.2-9.7,3.6-12.5c2.4-3,5.4-4.5,9-4.5c2.3,0,4.5,0.7,6.3,2c1.9,1.3,3.4,3.2,4.6,5.7
		c1.1,2.6,1.6,5.5,1.6,8.9c0,4.7-1.1,8.6-3.2,11.6c-2.4,3.2-5.5,5-9.3,5c-3.9,0-7-1.8-9.3-5.1C532.8,388.3,531.7,384.7,531.7,380.4z
		 M535.4,380.4c0,3.9,0.8,7,2.6,9.2c1.8,2.2,3.9,3.2,6.3,3.2c2.6,0,4.7-1.1,6.5-3.2c1.8-2.2,2.6-5.4,2.6-9.7c0-2.7-0.4-5.3-1.3-7.4
		c-0.7-1.6-1.8-3-3.1-4c-1.3-0.9-2.8-1.5-4.5-1.5c-2.6,0-4.7,1.1-6.5,3.2C536.2,372.4,535.4,375.9,535.4,380.4z"/>
	<path id="XMLID_458_" d="M580.8,396h-24.5l10.1-32h3.8L580.8,396z M566.7,373.5l-5.7,18.7h14.6l-5.7-18.2c-0.8-2.6-1.3-4.9-1.9-6.6
		C567.7,369.2,567.3,371.3,566.7,373.5z"/>
	<path id="XMLID_461_" d="M580.4,380.4c0-5.4,1.2-9.7,3.6-12.5c2.4-3,5.4-4.5,9-4.5c2.3,0,4.5,0.7,6.3,2c1.9,1.3,3.4,3.2,4.6,5.7
		c1.1,2.6,1.6,5.5,1.6,8.9c0,4.7-1.1,8.6-3.2,11.6c-2.4,3.2-5.5,5-9.3,5c-3.9,0-7-1.8-9.3-5.1C581.5,388.3,580.4,384.7,580.4,380.4z
		 M583.9,380.4c0,3.9,0.8,7,2.6,9.2c1.8,2.2,3.9,3.2,6.3,3.2c2.6,0,4.7-1.1,6.5-3.2c1.8-2.2,2.6-5.4,2.6-9.7c0-2.7-0.4-5.3-1.3-7.4
		c-0.7-1.6-1.8-3-3.1-4c-1.3-0.9-2.8-1.5-4.5-1.5c-2.6,0-4.7,1.1-6.5,3.2C584.9,372.4,583.9,375.9,583.9,380.4z"/>
	<path id="XMLID_464_" d="M619.1,396v-13.6L609,363.9h4.2l5.1,9.7c1.1,1.9,1.9,3.8,2.7,5.4c0.8-1.6,1.8-3.5,2.8-5.7l5.1-9.4h4
		l-10.5,18.5V396H619.1z"/>
	<g id="XMLID_2_">
		<g id="XMLID_3_">
			<polygon id="XMLID_18_" class="st0" points="205.4,197.5 341.3,115.5 289.9,116.3 263.1,60.6 239.9,117 188,118.7 227.1,142.2 
							"/>
			<path id="XMLID_10_" class="st1" d="M418.4,92.4l-115.2,2.2L263.2,5.5l-38.4,90.4l-113.7,1.8l89.9,53.7l-42.3,99L418.4,92.4z
				 M188,118.7l51.9-1.8L263,60.6l26.8,55.7l51.5-0.8l-135.9,82l21.6-55.4L188,118.7z"/>
		</g>
	</g>
</g>
<g>
	<path class="st2" d="M438.1,146.1c0,0,16.7-10.4,23.1,8.4c6.3,18.7,16,14.6,19.6,11.5c3.5-3.1,27.8-18.2,27.8-18.2l-19-43
		l-24.7,16.2c-3.2,2-7.4,2-10.2-0.5c-0.5-0.5-1.1-1.2-1.6-1.9c-2.6-4.6-11.2-30.9-25.4-21.6c-12.7,8.5-206.3,126.5-244.8,150h89.9
		L438.1,146.1z"/>
	<path class="st3" d="M519.9,152.2c-16.5,8.6-28.7,16-37.2,21.3c-5.5,3.5-11.6,7.6-16.2,5.4c-3.2-1.5-3.2-4.7-10.4-17.3
		c-3.2-5.7-4.9-7.8-7.7-8.6c-4.6-1.2-8.9,2.4-8.9,2.4l-152.7,91.4h87.9c6.5-3.6,63.7-36.1,75-44.2c12.1-8.6,15.6-0.3,15.6-0.3
		s0.4,4.6,8,16.3c7.4,11.7,21.4,3.1,21.4,3.1l45-27.1L519.9,152.2z"/>
</g>
</svg>
