<?xml version="1.0" encoding="UTF-8" standalone="no"?>
<svg xmlns:dc="http://purl.org/dc/elements/1.1/" xmlns:cc="http://creativecommons.org/ns#" xmlns:rdf="http://www.w3.org/1999/02/22-rdf-syntax-ns#" xmlns="http://www.w3.org/2000/svg" width="200" height="113.88192">
<title>Partido Social Liberal (PSL)</title>
  <metadata>
    <rdf:RDF>
      <cc:Work rdf:about="">
        <dc:format>image/svg+xml</dc:format>
        <dc:type rdf:resource="http://purl.org/dc/dcmitype/StillImage" />
        <dc:title>Partido Social Liberal (PSL)</dc:title>
      </cc:Work>
    </rdf:RDF>
  </metadata>
<g transform="matrix(1.25,0,0,-1.25,-576.74325,158.46983)">
<path style="fill:#231f20;fill-opacity:1;fill-rule:nonzero;stroke:none" d="m 1947.0172,-394.6091 7.572,0 c 5.956,0 10.394,1.032 13.309,3.101 2.918,2.071 4.771,4.717 5.564,7.945 0.772,3.138 0.378,5.799 -1.176,7.98 -1.558,2.181 -5.218,3.274 -10.994,3.274 l -8.797,0 -5.478,-22.3 z m -20.557,42.621 51.349,0 c 11.184,0 18.906,-2.66 23.169,-7.978 4.261,-5.32 5.188,-12.89 2.78,-22.71 -2.481,-10.092 -7.451,-17.98 -14.918,-23.661 -7.462,-5.687 -17.424,-8.531 -29.883,-8.531 l -16.912,0 -9.11,-37.097 -31.029,0 24.554,99.977 z" />
<path style="fill:#231f20;fill-opacity:1;fill-rule:nonzero;stroke:none" d="m 1996.9075,-415.0182 28.088,1.732 c -0.508,-4.491 -0.13,-7.916 1.132,-10.27 2.06,-3.807 5.872,-5.712 11.432,-5.712 4.151,0 7.59,0.97 10.315,2.919 2.723,1.95 4.4,4.206 5.029,6.774 0.601,2.438 0.063,4.616 -1.602,6.546 -1.664,1.923 -6.182,3.739 -13.546,5.455 -12.047,2.866 -20.204,6.672 -24.47,11.42 -4.313,4.749 -5.562,10.803 -3.755,18.163 1.187,4.832 3.712,9.403 7.567,13.703 3.858,4.297 8.905,7.676 15.132,10.137 6.23,2.461 14.246,3.692 24.042,3.692 12.021,0 20.639,-2.236 25.85,-6.706 5.215,-4.468 7.223,-11.582 6.026,-21.339 l -27.798,-1.602 c 0.31,4.229 -0.46,7.312 -2.32,9.24 -1.859,1.923 -4.839,2.887 -8.947,2.887 -3.38,0 -6.1,-0.718 -8.167,-2.154 -2.062,-1.433 -3.347,-3.171 -3.851,-5.229 -0.366,-1.495 0.01,-2.843 1.124,-4.044 1.066,-1.238 4.037,-2.395 8.904,-3.461 12.036,-2.742 20.455,-5.508 25.265,-8.31 4.812,-2.805 7.957,-6.28 9.442,-10.432 1.484,-4.151 1.596,-8.79 0.335,-13.926 -1.481,-6.029 -4.516,-11.591 -9.1,-16.684 -4.589,-5.09 -10.201,-8.955 -16.836,-11.589 -6.64,-2.625 -14.51,-3.942 -23.625,-3.942 -16.002,0 -26.322,3.081 -30.972,9.24 -4.646,6.166 -6.214,13.993 -4.694,23.492" />
<path style="fill:#231f20;fill-opacity:1;fill-rule:nonzero;stroke:none" d="m 2107.7808,-351.9882 27.698,0 -16.59,-67.564 43.229,0 -5.419,-22.079 -70.931,0 22.013,89.643 z" />
<path style="fill:#918f90;fill-opacity:1;fill-rule:nonzero;stroke:none" d="m 1898.2772,-466.4685 6.612,26.691 c 0,0 59.952,-31.863 118.531,-12.099 77.675,26.208 101.611,24.157 135.52,19.404 l -2.241,-9.16 -171.463,-34.36 c 0,0 -73.657,-14.686 -86.959,9.524" />
<path style="fill:#e9e9e9;fill-opacity:1;fill-rule:nonzero;stroke:none" d="m 1898.2772,-466.2771 -7.269,-32.167 c 0,0 75.027,-18.691 155.21,18.767 67.174,31.389 106.837,23.635 106.837,23.635 l 5.5,21.15 c 0,0 -52.484,4.644 -130.183,-25.978 -77.702,-30.622 -130.095,-5.407 -130.095,-5.407" />
<path style="fill:#231f20;fill-opacity:1;fill-rule:nonzero;stroke:none" d="m 1906.4347,-487.0111 0.941,-0.207 c 0.743,-0.162 1.29,-0.148 1.65,0.038 0.357,0.196 0.578,0.493 0.667,0.894 0.085,0.387 0.028,0.749 -0.171,1.077 -0.2,0.331 -0.66,0.572 -1.38,0.732 l -1.094,0.244 -0.613,-2.778 z m -2.691,6.163 6.394,-1.419 c 1.39,-0.305 2.36,-0.864 2.905,-1.682 0.547,-0.815 0.683,-1.834 0.417,-3.057 -0.278,-1.254 -0.875,-2.151 -1.784,-2.694 -0.912,-0.537 -2.145,-0.64 -3.694,-0.294 l -2.105,0.465 -1.019,-4.616 -3.86,0.854 2.746,12.443 z" />
<path style="fill:#231f20;fill-opacity:1;fill-rule:nonzero;stroke:none" d="m 1919.7499,-491.9132 -0.732,4.733 -2.039,-4.33 2.771,-0.403 z m 0.41,-2.846 -4.425,0.647 -0.918,-1.991 -3.978,0.578 6.58,11.92 4.249,-0.62 2.897,-13.302 -4.079,0.597 -0.326,2.171 z" />
<path style="fill:#231f20;fill-opacity:1;fill-rule:nonzero;stroke:none" d="m 1930.3639,-490.3356 1.654,-0.121 c 0.18,-0.013 0.531,0.018 1.053,0.094 0.267,0.041 0.485,0.152 0.665,0.355 0.183,0.201 0.283,0.442 0.303,0.718 0.03,0.41 -0.08,0.736 -0.319,0.971 -0.246,0.239 -0.726,0.391 -1.442,0.439 l -1.727,0.126 -0.187,-2.582 z m -4.496,-7.271 0.928,12.708 6.544,-0.479 c 1.212,-0.086 2.132,-0.257 2.759,-0.515 0.627,-0.255 1.114,-0.679 1.465,-1.267 0.351,-0.594 0.501,-1.296 0.442,-2.103 -0.052,-0.706 -0.246,-1.301 -0.583,-1.793 -0.34,-0.49 -0.782,-0.873 -1.331,-1.153 -0.353,-0.178 -0.825,-0.312 -1.415,-0.403 0.454,-0.189 0.784,-0.372 0.987,-0.54 0.139,-0.117 0.33,-0.353 0.579,-0.716 0.248,-0.362 0.414,-0.638 0.494,-0.829 l 1.634,-3.819 -4.439,0.321 -1.816,4.036 c -0.232,0.524 -0.444,0.868 -0.64,1.032 -0.269,0.218 -0.583,0.339 -0.941,0.364 l -0.347,0.023 -0.375,-5.156 -3.945,0.289 z" />
<path style="fill:#231f20;fill-opacity:1;fill-rule:nonzero;stroke:none" d="m 1938.6818,-485.7538 11.967,-0.091 -0.025,-3.147 -4.015,0.032 -0.075,-9.595 -3.935,0.032 0.075,9.593 -4.017,0.032 0.025,3.144 z" />
<path style="fill:#231f20;fill-opacity:1;fill-rule:nonzero;stroke:none" d="m 1951.9838,-485.7295 3.942,0.155 0.503,-12.733 -3.937,-0.155 -0.508,12.733 z" />
<path style="fill:#231f20;fill-opacity:1;fill-rule:nonzero;stroke:none" d="m 1962.3552,-488.0415 0.617,-6.931 0.96,0.084 c 0.822,0.073 1.399,0.214 1.729,0.433 0.33,0.207 0.57,0.549 0.727,1.023 0.153,0.467 0.187,1.21 0.096,2.228 -0.119,1.342 -0.42,2.245 -0.905,2.703 -0.481,0.453 -1.233,0.638 -2.244,0.547 l -0.98,-0.087 z m -4.181,2.52 5.828,0.524 c 1.151,0.105 2.09,0.03 2.823,-0.221 0.734,-0.246 1.361,-0.64 1.871,-1.182 0.517,-0.543 0.916,-1.19 1.187,-1.946 0.28,-0.755 0.456,-1.561 0.534,-2.429 0.118,-1.356 0.061,-2.422 -0.18,-3.197 -0.244,-0.777 -0.618,-1.44 -1.119,-1.994 -0.504,-0.556 -1.064,-0.943 -1.677,-1.166 -0.839,-0.306 -1.609,-0.495 -2.306,-0.554 l -5.824,-0.522 -1.137,12.687 z" />
<path style="fill:#231f20;fill-opacity:1;fill-rule:nonzero;stroke:none" d="m 1975.4436,-490.1041 c 0.2,-1.271 0.581,-2.146 1.142,-2.625 0.56,-0.478 1.244,-0.656 2.057,-0.531 0.836,0.135 1.44,0.508 1.811,1.126 0.372,0.615 0.447,1.627 0.224,3.035 -0.189,1.185 -0.565,2.012 -1.128,2.483 -0.565,0.468 -1.258,0.641 -2.074,0.513 -0.783,-0.125 -1.371,-0.506 -1.759,-1.13 -0.389,-0.633 -0.478,-1.588 -0.273,-2.871 m -3.892,-0.597 c -0.33,2.055 -0.01,3.744 0.955,5.07 0.962,1.324 2.47,2.149 4.509,2.474 2.094,0.328 3.799,0.028 5.111,-0.918 1.31,-0.95 2.126,-2.433 2.447,-4.459 0.233,-1.472 0.178,-2.716 -0.166,-3.737 -0.351,-1.018 -0.948,-1.866 -1.8,-2.536 -0.852,-0.672 -1.98,-1.119 -3.377,-1.337 -1.417,-0.228 -2.627,-0.187 -3.63,0.116 -1,0.307 -1.868,0.9 -2.602,1.786 -0.734,0.887 -1.214,2.069 -1.447,3.541" />
<path style="fill:#231f20;fill-opacity:1;fill-rule:nonzero;stroke:none" d="m 1991.754,-489.312 3.568,1.158 c 0.23,-0.566 0.506,-0.976 0.825,-1.222 0.522,-0.403 1.151,-0.506 1.878,-0.323 0.544,0.143 0.929,0.378 1.162,0.708 0.225,0.328 0.298,0.663 0.214,1.001 -0.084,0.321 -0.296,0.569 -0.643,0.749 -0.344,0.18 -1.057,0.255 -2.133,0.219 -1.772,-0.052 -3.094,0.144 -3.966,0.586 -0.875,0.437 -1.436,1.139 -1.686,2.105 -0.16,0.631 -0.13,1.28 0.091,1.937 0.225,0.658 0.663,1.244 1.319,1.756 0.654,0.511 1.627,0.93 2.912,1.258 1.577,0.404 2.857,0.42 3.83,0.046 0.982,-0.376 1.714,-1.18 2.197,-2.422 l -3.539,-1.13 c -0.237,0.53 -0.545,0.886 -0.914,1.059 -0.369,0.173 -0.827,0.191 -1.364,0.055 -0.445,-0.112 -0.755,-0.292 -0.93,-0.54 -0.178,-0.244 -0.23,-0.502 -0.162,-0.773 0.05,-0.196 0.189,-0.348 0.415,-0.455 0.218,-0.123 0.683,-0.164 1.397,-0.128 1.754,0.064 3.046,0.005 3.859,-0.175 0.816,-0.187 1.459,-0.506 1.926,-0.964 0.467,-0.465 0.788,-1.032 0.957,-1.705 0.207,-0.79 0.173,-1.576 -0.096,-2.358 -0.264,-0.779 -0.747,-1.442 -1.447,-1.991 -0.697,-0.547 -1.643,-0.969 -2.839,-1.276 -2.098,-0.54 -3.655,-0.504 -4.671,0.098 -1.016,0.599 -1.734,1.513 -2.16,2.727" />
<path style="fill:#231f20;fill-opacity:1;fill-rule:nonzero;stroke:none" d="m 2007.219,-482.8812 c 0.399,-1.224 0.914,-2.03 1.54,-2.418 0.627,-0.385 1.335,-0.448 2.115,-0.193 0.806,0.262 1.342,0.724 1.613,1.394 0.271,0.668 0.182,1.677 -0.262,3.033 -0.367,1.139 -0.873,1.9 -1.499,2.274 -0.632,0.374 -1.345,0.435 -2.131,0.175 -0.756,-0.241 -1.276,-0.708 -1.556,-1.389 -0.283,-0.684 -0.223,-1.648 0.18,-2.876 m -3.751,-1.205 c -0.644,1.975 -0.597,3.698 0.151,5.156 0.738,1.463 2.094,2.516 4.062,3.156 2.015,0.658 3.744,0.622 5.186,-0.105 1.445,-0.727 2.482,-2.067 3.122,-4.015 0.46,-1.417 0.6,-2.654 0.419,-3.714 -0.18,-1.062 -0.638,-1.994 -1.376,-2.793 -0.736,-0.798 -1.777,-1.415 -3.117,-1.851 -1.369,-0.448 -2.57,-0.597 -3.607,-0.46 -1.037,0.148 -1.987,0.602 -2.85,1.36 -0.864,0.759 -1.527,1.848 -1.99,3.266" />
<path style="fill:#231f20;fill-opacity:1;fill-rule:nonzero;stroke:none" d="m 2025.9059,-477.2871 3.586,0.317 c 0.151,-0.985 0.11,-1.876 -0.113,-2.657 -0.219,-0.793 -0.611,-1.474 -1.174,-2.058 -0.561,-0.583 -1.374,-1.084 -2.431,-1.508 -1.285,-0.513 -2.406,-0.752 -3.375,-0.702 -0.966,0.043 -1.932,0.417 -2.903,1.126 -0.966,0.697 -1.743,1.782 -2.335,3.251 -0.784,1.955 -0.866,3.669 -0.246,5.138 0.617,1.468 1.877,2.584 3.784,3.345 1.488,0.6 2.783,0.771 3.874,0.508 1.096,-0.259 2.099,-0.934 3.012,-2.016 l -2.939,-2.012 c -0.255,0.317 -0.483,0.535 -0.675,0.649 -0.31,0.196 -0.649,0.315 -1.004,0.344 -0.356,0.03 -0.718,-0.027 -1.083,-0.168 -0.827,-0.335 -1.331,-0.918 -1.506,-1.764 -0.132,-0.626 0.012,-1.472 0.438,-2.527 0.524,-1.312 1.084,-2.132 1.677,-2.456 0.592,-0.33 1.251,-0.349 1.97,-0.059 0.7,0.28 1.147,0.69 1.349,1.226 0.201,0.537 0.233,1.212 0.094,2.023" />
<path style="fill:#231f20;fill-opacity:1;fill-rule:nonzero;stroke:none" d="m 2027.6083,-468.3465 3.589,1.643 5.3,-11.589 -3.591,-1.643 -5.298,11.589 z" />
<path style="fill:#231f20;fill-opacity:1;fill-rule:nonzero;stroke:none" d="m 2043.2954,-469.6327 -3.229,3.539 0.702,-4.733 2.527,1.194 z m 1.918,-2.14 -4.044,-1.909 0.342,-2.169 -3.635,-1.716 -1.118,13.562 3.878,1.834 9.777,-9.467 -3.725,-1.764 -1.475,1.629 z" />
<path style="fill:#231f20;fill-opacity:1;fill-rule:nonzero;stroke:none" d="m 2046.689,-459.4147 3.632,1.511 3.689,-8.869 5.671,2.357 1.206,-2.897 -9.308,-3.869 -4.89,11.767 z" />
<path style="fill:#231f20;fill-opacity:1;fill-rule:nonzero;stroke:none" d="m 2064.0918,-452.5367 3.735,1.249 3.046,-9.11 5.824,1.948 0.998,-2.976 -9.565,-3.197 -4.038,12.086 z" />
<path style="fill:#231f20;fill-opacity:1;fill-rule:nonzero;stroke:none" d="m 2076.0254,-448.6715 3.787,1.103 3.557,-12.236 -3.787,-1.103 -3.557,12.236 z" />
<path style="fill:#231f20;fill-opacity:1;fill-rule:nonzero;stroke:none" d="m 2089.2876,-455.4049 1.953,0.472 c 0.658,0.159 1.098,0.389 1.312,0.686 0.212,0.303 0.271,0.649 0.178,1.045 -0.089,0.36 -0.294,0.627 -0.615,0.784 -0.32,0.157 -0.821,0.157 -1.489,-0.007 l -1.943,-0.467 0.604,-2.513 z m -1.171,4.869 1.663,0.401 c 0.599,0.146 0.987,0.347 1.169,0.609 0.184,0.262 0.23,0.588 0.139,0.979 -0.089,0.356 -0.274,0.609 -0.556,0.762 -0.28,0.141 -0.716,0.145 -1.294,0.006 l -1.691,-0.408 0.57,-2.349 z m -5.036,3.924 7.166,1.732 c 1.192,0.289 2.183,0.214 2.962,-0.224 0.782,-0.439 1.276,-1.091 1.493,-1.966 0.173,-0.734 0.098,-1.41 -0.233,-2.051 -0.219,-0.419 -0.599,-0.802 -1.137,-1.148 0.941,0 1.689,-0.21 2.233,-0.627 0.545,-0.419 0.911,-1.025 1.103,-1.811 0.155,-0.643 0.148,-1.258 -0.03,-1.844 -0.177,-0.583 -0.483,-1.086 -0.932,-1.513 -0.273,-0.262 -0.726,-0.512 -1.353,-0.751 -0.836,-0.326 -1.395,-0.515 -1.677,-0.584 l -6.603,-1.597 -2.992,12.384 z" />
<path style="fill:#231f20;fill-opacity:1;fill-rule:nonzero;stroke:none" d="m 2097.3403,-443.2868 10.395,1.827 0.471,-2.677 -6.505,-1.148 0.349,-1.994 6.036,1.064 0.448,-2.559 -6.033,-1.062 0.435,-2.472 6.692,1.176 0.502,-2.844 -10.578,-1.861 -2.212,12.55 z" />
<path style="fill:#231f20;fill-opacity:1;fill-rule:nonzero;stroke:none" d="m 2115.3931,-445.7078 1.649,0.171 c 0.181,0.02 0.518,0.118 1.021,0.287 0.251,0.08 0.452,0.232 0.595,0.467 0.139,0.228 0.193,0.483 0.166,0.759 -0.045,0.408 -0.209,0.711 -0.492,0.902 -0.282,0.187 -0.784,0.249 -1.492,0.171 l -1.723,-0.184 0.276,-2.573 z m -3.124,-7.959 -1.36,12.667 6.526,0.699 c 1.209,0.13 2.146,0.125 2.809,-0.014 0.661,-0.136 1.219,-0.467 1.67,-0.986 0.451,-0.52 0.722,-1.185 0.807,-1.989 0.077,-0.705 -0.01,-1.327 -0.256,-1.871 -0.243,-0.54 -0.613,-0.996 -1.105,-1.367 -0.314,-0.24 -0.749,-0.456 -1.317,-0.652 0.481,-0.103 0.839,-0.223 1.067,-0.358 0.155,-0.084 0.389,-0.287 0.697,-0.599 0.31,-0.312 0.522,-0.554 0.636,-0.727 l 2.287,-3.47 -4.425,-0.472 -2.506,3.646 c -0.317,0.474 -0.588,0.772 -0.816,0.902 -0.303,0.164 -0.629,0.226 -0.986,0.189 l -0.349,-0.038 0.551,-5.141 -3.93,-0.419 z" />
<path style="fill:#231f20;fill-opacity:1;fill-rule:nonzero;stroke:none" d="m 2132.865,-447.2253 -1.538,4.534 -1.255,-4.618 2.793,0.084 z m 0.902,-2.732 -4.47,-0.13 -0.561,-2.121 -4.019,-0.116 4.418,12.876 4.293,0.125 5.156,-12.598 -4.124,-0.119 -0.693,2.083 z" />
<path style="fill:#231f20;fill-opacity:1;fill-rule:nonzero;stroke:none" d="m 2140.5618,-439.2993 3.928,-0.221 -0.54,-9.588 6.139,-0.347 -0.178,-3.128 -10.067,0.565 0.718,12.719 z" />
<path style="fill:#231f20;fill-opacity:1;fill-rule:nonzero;stroke:none" d="m 2111.4324,-463.9919 -7.864,-36.699 -9.991,0 5.106,23.752 c -3.014,-1.889 -6.605,-3.338 -10.775,-4.356 l 1.811,8.537 c 5.326,2.334 9.728,5.252 13.214,8.766 l 8.499,0 z" />
<path style="fill:#231f20;fill-opacity:1;fill-rule:nonzero;stroke:none" d="m 2145.5884,-464.6083 -1.39,-6.694 c -5.733,-4.414 -10.149,-9.308 -13.254,-14.681 -3.101,-5.375 -5.084,-10.277 -5.947,-14.708 l -10.16,0 c 2.408,10.586 7.995,19.803 16.754,27.666 l -16.754,0 1.756,8.417 28.995,0 z" />
<g transform="matrix(0.5149135,0,0,0.5149135,223.81629,17.303195)">
<path d="m 525.5894,160.0275 8.677,0 c 6.824,0 11.91,1.185 15.255,3.557 3.345,2.37 5.471,5.405 6.378,9.105 0.884,3.595 0.432,6.644 -1.349,9.144 -1.785,2.502 -5.984,3.753 -12.601,3.753 l -10.083,0 -6.277,-25.559 z m -23.567,48.85 58.857,0 c 12.817,0 21.67,-3.046 26.557,-9.144 4.885,-6.097 5.945,-14.774 3.183,-26.028 -2.843,-11.568 -8.54,-20.61 -17.096,-27.122 -8.556,-6.516 -19.974,-9.77 -34.251,-9.77 l -19.384,0 -10.44,-42.52 -35.564,0 28.138,114.584 z" style="fill:#1f3467;fill-opacity:1;fill-rule:nonzero;stroke:none" />
<path d="m 581.4544,134.6606 32.189,1.985 c -0.578,-5.15 -0.145,-9.071 1.304,-11.769 2.358,-4.364 6.726,-6.546 13.099,-6.546 4.758,0 8.697,1.114 11.821,3.347 3.122,2.23 5.045,4.817 5.767,7.76 0.686,2.796 0.073,5.296 -1.836,7.502 -1.912,2.208 -7.086,4.29 -15.529,6.252 -13.808,3.286 -23.154,7.651 -28.044,13.093 -4.942,5.443 -6.376,12.381 -4.304,20.817 1.36,5.541 4.251,10.775 8.674,15.704 4.423,4.928 10.201,8.802 17.345,11.62 7.138,2.819 16.326,4.231 27.552,4.231 13.781,0 23.658,-2.563 29.633,-7.685 5.974,-5.125 8.273,-13.28 6.904,-24.461 l -31.861,-1.836 c 0.357,4.853 -0.529,8.385 -2.657,10.591 -2.131,2.208 -5.551,3.311 -10.258,3.311 -3.874,0 -6.995,-0.823 -9.358,-2.466 -2.365,-1.643 -3.835,-3.641 -4.414,-5.995 -0.421,-1.718 0.009,-3.261 1.29,-4.632 1.219,-1.424 4.621,-2.748 10.205,-3.972 13.79,-3.14 23.442,-6.316 28.956,-9.526 5.512,-3.213 9.119,-7.196 10.821,-11.954 1.7,-4.755 1.828,-10.076 0.383,-15.961 -1.697,-6.913 -5.174,-13.289 -10.431,-19.122 -5.261,-5.838 -11.691,-10.26 -19.297,-13.279 -7.606,-3.015 -16.632,-4.523 -27.076,-4.523 -18.341,0 -30.173,3.531 -35.501,10.593 -5.327,7.061 -7.12,16.034 -5.377,26.921" style="fill:#1d6434;fill-opacity:1;fill-rule:nonzero;stroke:none" />
<path d="m 584.7444,138.608 32.189,1.987 c -0.578,-5.15 -0.145,-9.071 1.301,-11.769 2.361,-4.366 6.729,-6.546 13.104,-6.546 4.756,0 8.695,1.114 11.819,3.347 3.122,2.228 5.045,4.817 5.767,7.758 0.686,2.796 0.076,5.296 -1.836,7.504 -1.912,2.206 -7.086,4.29 -15.531,6.252 -13.806,3.286 -23.152,7.649 -28.042,13.091 -4.942,5.445 -6.376,12.384 -4.304,20.817 1.362,5.541 4.251,10.775 8.674,15.706 4.423,4.928 10.204,8.8 17.345,11.62 7.138,2.819 16.326,4.229 27.554,4.229 13.779,0 23.656,-2.561 29.631,-7.685 5.974,-5.125 8.276,-13.28 6.904,-24.458 l -31.859,-1.839 c 0.355,4.853 -0.529,8.385 -2.659,10.591 -2.131,2.208 -5.548,3.311 -10.258,3.311 -3.874,0 -6.995,-0.821 -9.358,-2.464 -2.365,-1.645 -3.835,-3.641 -4.414,-5.995 -0.421,-1.718 0.007,-3.26 1.29,-4.634 1.219,-1.422 4.621,-2.746 10.205,-3.972 13.793,-3.14 23.445,-6.314 28.957,-9.524 5.514,-3.213 9.118,-7.198 10.82,-11.953 1.7,-4.758 1.83,-10.079 0.383,-15.964 -1.697,-6.913 -5.174,-13.286 -10.431,-19.122 -5.259,-5.835 -11.691,-10.26 -19.297,-13.279 -7.606,-3.015 -16.631,-4.521 -27.076,-4.521 -18.341,0 -30.173,3.529 -35.501,10.593 -5.327,7.059 -7.12,16.034 -5.377,26.919" style="fill:#fff200;fill-opacity:1;fill-rule:nonzero;stroke:none" />
<path d="m 582.7705,136.6343 32.189,1.985 c -0.578,-5.15 -0.146,-9.071 1.301,-11.767 2.361,-4.366 6.729,-6.549 13.104,-6.549 4.756,0 8.695,1.115 11.819,3.35 3.122,2.228 5.045,4.817 5.767,7.758 0.686,2.796 0.076,5.296 -1.836,7.504 -1.912,2.205 -7.086,4.29 -15.529,6.25 -13.808,3.286 -23.154,7.651 -28.046,13.093 -4.94,5.443 -6.374,12.381 -4.302,20.817 1.36,5.541 4.251,10.775 8.674,15.703 4.421,4.929 10.201,8.803 17.345,11.621 7.138,2.819 16.326,4.231 27.554,4.231 13.779,0 23.656,-2.563 29.631,-7.685 5.974,-5.125 8.273,-13.28 6.904,-24.458 l -31.861,-1.839 c 0.357,4.851 -0.529,8.385 -2.657,10.591 -2.131,2.208 -5.551,3.31 -10.258,3.31 -3.874,0 -6.996,-0.822 -9.358,-2.463 -2.365,-1.645 -3.835,-3.643 -4.414,-5.997 -0.421,-1.716 0.007,-3.258 1.29,-4.632 1.219,-1.422 4.621,-2.748 10.203,-3.972 13.792,-3.14 23.444,-6.316 28.958,-9.526 5.512,-3.213 9.119,-7.196 10.821,-11.952 1.7,-4.757 1.828,-10.078 0.383,-15.963 -1.697,-6.913 -5.174,-13.289 -10.431,-19.122 -5.259,-5.838 -11.694,-10.26 -19.297,-13.277 -7.606,-3.017 -16.632,-4.523 -27.077,-4.523 -18.34,0 -30.172,3.529 -35.5,10.591 -5.327,7.061 -7.12,16.036 -5.377,26.921" style="fill:#1f3467;fill-opacity:1;fill-rule:nonzero;stroke:none" />
<path d="m 709.8464,208.8786 31.75,0 -19.02,-77.439 49.55,0 -6.214,-25.302 -81.294,0 25.228,102.741 z" style="fill:#1f3467;fill-opacity:1;fill-rule:nonzero;stroke:none" />
<path d="m 469.7246,77.6652 7.581,30.594 c 0,0 68.712,-36.523 135.85,-13.869 89.026,30.04 116.462,27.686 155.328,22.239 l -2.57,-10.491 -196.518,-39.387 c 0,0 -84.427,-16.834 -99.671,10.914" style="fill:#1d6434;fill-opacity:1;fill-rule:nonzero;stroke:none" />
<path d="m 469.7246,77.8856 -8.33,-36.872 c 0,0 85.99,-21.421 177.89,21.517 76.995,35.974 122.454,27.087 122.454,27.087 l 6.307,24.24 c 0,0 -60.156,5.322 -149.216,-29.774 -89.056,-35.099 -149.105,-6.198 -149.105,-6.198" style="fill:#fff200;fill-opacity:1;fill-rule:nonzero;stroke:none" />
<path d="m 479.0736,54.123 1.08,-0.237 c 0.85,-0.189 1.479,-0.173 1.887,0.046 0.41,0.218 0.665,0.558 0.765,1.018 0.101,0.449 0.034,0.861 -0.196,1.237 -0.228,0.376 -0.754,0.657 -1.579,0.839 l -1.253,0.278 -0.704,-3.181 z m -3.081,7.059 7.324,-1.62 c 1.595,-0.353 2.704,-0.998 3.333,-1.93 0.627,-0.936 0.784,-2.103 0.474,-3.502 -0.317,-1.44 -1,-2.47 -2.046,-3.09 -1.044,-0.62 -2.454,-0.731 -4.229,-0.339 l -2.413,0.533 -1.169,-5.291 -4.427,0.98 3.153,14.259 z" style="fill:#1f3467;fill-opacity:1;fill-rule:nonzero;stroke:none" />
<path d="m 494.3336,48.5023 -0.836,5.427 -2.338,-4.962 3.174,-0.465 z m 0.472,-3.261 -5.07,0.743 -1.053,-2.283 -4.559,0.663 7.54,13.658 4.869,-0.711 3.322,-15.239 -4.676,0.681 -0.373,2.488 z" style="fill:#1f3467;fill-opacity:1;fill-rule:nonzero;stroke:none" />
<path d="m 506.4998,50.309 1.898,-0.139 c 0.205,-0.014 0.608,0.023 1.205,0.114 0.306,0.039 0.559,0.171 0.766,0.403 0.205,0.233 0.319,0.508 0.344,0.823 0.034,0.471 -0.089,0.843 -0.367,1.116 -0.282,0.276 -0.831,0.442 -1.654,0.499 l -1.976,0.146 -0.216,-2.962 z m -5.15,-8.333 1.06,14.563 7.501,-0.545 c 1.39,-0.1 2.443,-0.299 3.163,-0.59 0.717,-0.294 1.278,-0.775 1.681,-1.454 0.404,-0.679 0.572,-1.483 0.504,-2.411 -0.059,-0.806 -0.283,-1.49 -0.67,-2.053 -0.387,-0.558 -0.896,-1 -1.524,-1.321 -0.401,-0.203 -0.944,-0.358 -1.623,-0.463 0.524,-0.216 0.9,-0.424 1.133,-0.62 0.157,-0.134 0.378,-0.405 0.665,-0.818 0.285,-0.414 0.474,-0.733 0.563,-0.952 l 1.873,-4.377 -5.086,0.369 -2.08,4.626 c -0.265,0.599 -0.508,0.993 -0.734,1.182 -0.308,0.246 -0.668,0.39 -1.078,0.417 l -0.399,0.027 -0.428,-5.91 -4.521,0.33 z" style="fill:#1f3467;fill-opacity:1;fill-rule:nonzero;stroke:none" />
<path d="m 516.0336,55.5627 13.717,-0.107 -0.03,-3.603 -4.602,0.035 -0.085,-10.994 -4.511,0.031 0.084,10.997 -4.603,0.036 0.03,3.605 z" style="fill:#1f3467;fill-opacity:1;fill-rule:nonzero;stroke:none" />
<path d="m 531.2792,55.5893 4.518,0.18 0.581,-14.592 -4.52,-0.178 -0.579,14.59 z" style="fill:#1f3467;fill-opacity:1;fill-rule:nonzero;stroke:none" />
<path d="m 543.1672,52.9415 0.709,-7.948 1.1,0.098 c 0.941,0.085 1.6,0.249 1.978,0.492 0.378,0.244 0.656,0.636 0.836,1.174 0.176,0.54 0.214,1.39 0.11,2.554 -0.137,1.543 -0.483,2.575 -1.035,3.099 -0.556,0.524 -1.413,0.734 -2.577,0.631 l -1.121,-0.1 z m -4.79,2.891 6.679,0.597 c 1.315,0.117 2.392,0.035 3.238,-0.25 0.841,-0.285 1.556,-0.736 2.144,-1.358 0.59,-0.62 1.044,-1.363 1.36,-2.229 0.317,-0.866 0.52,-1.793 0.609,-2.786 0.139,-1.554 0.07,-2.776 -0.208,-3.662 -0.278,-0.891 -0.704,-1.652 -1.28,-2.285 -0.577,-0.638 -1.217,-1.08 -1.921,-1.338 -0.962,-0.353 -1.844,-0.565 -2.643,-0.638 l -6.679,-0.595 -1.299,14.544 z" style="fill:#1f3467;fill-opacity:1;fill-rule:nonzero;stroke:none" />
<path d="m 558.167,50.576 c 0.232,-1.456 0.668,-2.459 1.308,-3.008 0.642,-0.553 1.431,-0.752 2.36,-0.606 0.957,0.15 1.65,0.581 2.076,1.288 0.426,0.704 0.513,1.866 0.255,3.479 -0.214,1.358 -0.644,2.306 -1.291,2.844 -0.648,0.54 -1.441,0.736 -2.377,0.59 -0.9,-0.144 -1.572,-0.577 -2.014,-1.301 -0.445,-0.72 -0.549,-1.816 -0.317,-3.286 m -4.459,-0.686 c -0.374,2.354 -0.007,4.293 1.096,5.81 1.103,1.52 2.828,2.466 5.168,2.835 2.401,0.38 4.354,0.032 5.856,-1.053 1.501,-1.082 2.438,-2.784 2.804,-5.108 0.269,-1.684 0.203,-3.111 -0.193,-4.282 -0.397,-1.169 -1.083,-2.137 -2.06,-2.907 -0.978,-0.77 -2.267,-1.283 -3.867,-1.534 -1.627,-0.259 -3.014,-0.214 -4.163,0.137 -1.146,0.351 -2.139,1.032 -2.982,2.048 -0.839,1.017 -1.393,2.368 -1.659,4.054" style="fill:#1f3467;fill-opacity:1;fill-rule:nonzero;stroke:none" />
<path d="m 576.8629,51.4884 4.092,1.324 c 0.265,-0.652 0.579,-1.119 0.944,-1.404 0.599,-0.456 1.314,-0.579 2.151,-0.364 0.624,0.159 1.068,0.428 1.33,0.809 0.265,0.378 0.344,0.761 0.249,1.146 -0.096,0.367 -0.34,0.654 -0.736,0.861 -0.397,0.207 -1.213,0.289 -2.45,0.248 -2.025,-0.061 -3.541,0.164 -4.539,0.668 -1.007,0.504 -1.652,1.31 -1.934,2.415 -0.187,0.727 -0.151,1.468 0.105,2.224 0.255,0.754 0.758,1.424 1.51,2.008 0.752,0.587 1.864,1.068 3.336,1.446 1.809,0.461 3.274,0.479 4.393,0.051 1.121,-0.431 1.962,-1.356 2.516,-2.778 l -4.058,-1.294 c -0.272,0.608 -0.62,1.014 -1.046,1.212 -0.424,0.203 -0.946,0.221 -1.563,0.064 -0.508,-0.132 -0.864,-0.335 -1.067,-0.618 -0.203,-0.28 -0.264,-0.574 -0.184,-0.886 0.057,-0.223 0.216,-0.399 0.474,-0.526 0.253,-0.133 0.788,-0.183 1.601,-0.146 2.015,0.077 3.491,0.011 4.423,-0.199 0.937,-0.209 1.67,-0.578 2.208,-1.105 0.536,-0.528 0.902,-1.178 1.098,-1.952 0.235,-0.905 0.196,-1.807 -0.109,-2.7 -0.308,-0.894 -0.859,-1.655 -1.659,-2.279 -0.8,-0.629 -1.884,-1.117 -3.254,-1.465 -2.408,-0.615 -4.19,-0.579 -5.354,0.112 -1.165,0.688 -1.989,1.731 -2.477,3.128" style="fill:#1f3467;fill-opacity:1;fill-rule:nonzero;stroke:none" />
<path d="m 594.5862,58.8536 c 0.458,-1.404 1.046,-2.326 1.766,-2.766 0.722,-0.445 1.529,-0.517 2.427,-0.226 0.922,0.299 1.538,0.834 1.845,1.597 0.312,0.766 0.212,1.924 -0.294,3.475 -0.426,1.308 -1.002,2.176 -1.725,2.607 -0.724,0.433 -1.538,0.499 -2.44,0.205 -0.866,-0.283 -1.461,-0.813 -1.784,-1.6 -0.324,-0.779 -0.258,-1.879 0.205,-3.292 m -4.295,-1.381 c -0.738,2.267 -0.686,4.236 0.166,5.911 0.852,1.675 2.404,2.878 4.658,3.614 2.312,0.754 4.292,0.715 5.949,-0.121 1.652,-0.832 2.844,-2.365 3.575,-4.598 0.529,-1.625 0.688,-3.042 0.483,-4.261 -0.207,-1.215 -0.734,-2.281 -1.579,-3.197 -0.841,-0.912 -2.035,-1.618 -3.575,-2.124 -1.565,-0.512 -2.944,-0.683 -4.131,-0.522 -1.189,0.169 -2.279,0.684 -3.268,1.557 -0.991,0.87 -1.749,2.119 -2.278,3.741" style="fill:#1f3467;fill-opacity:1;fill-rule:nonzero;stroke:none" />
<path d="m 616.0034,65.2644 4.115,0.365 c 0.166,-1.128 0.123,-2.145 -0.13,-3.049 -0.253,-0.9 -0.702,-1.686 -1.346,-2.354 -0.645,-0.665 -1.575,-1.244 -2.787,-1.729 -1.474,-0.59 -2.764,-0.862 -3.869,-0.807 -1.105,0.052 -2.213,0.483 -3.322,1.287 -1.11,0.807 -2.005,2.053 -2.68,3.733 -0.9,2.24 -0.993,4.206 -0.285,5.885 0.709,1.684 2.156,2.962 4.336,3.837 1.709,0.684 3.19,0.88 4.444,0.581 1.253,-0.298 2.404,-1.066 3.452,-2.306 l -3.368,-2.308 c -0.294,0.36 -0.554,0.611 -0.77,0.743 -0.363,0.228 -0.748,0.358 -1.155,0.394 -0.408,0.039 -0.823,-0.029 -1.242,-0.196 -0.948,-0.383 -1.522,-1.055 -1.723,-2.021 -0.155,-0.72 0.012,-1.686 0.497,-2.898 0.604,-1.502 1.244,-2.44 1.925,-2.814 0.679,-0.376 1.431,-0.394 2.258,-0.064 0.8,0.321 1.317,0.788 1.545,1.404 0.23,0.615 0.264,1.387 0.105,2.317" style="fill:#1f3467;fill-opacity:1;fill-rule:nonzero;stroke:none" />
<path d="m 617.9594,75.5135 4.113,1.88 6.07,-13.28 -4.111,-1.879 -6.072,13.279 z" style="fill:#1f3467;fill-opacity:1;fill-rule:nonzero;stroke:none" />
<path d="m 635.9386,74.0405 -3.703,4.056 0.802,-5.428 2.901,1.372 z m 2.197,-2.454 -4.633,-2.19 0.388,-2.483 -4.166,-1.971 -1.282,15.546 4.45,2.106 11.206,-10.853 -4.273,-2.021 -1.69,1.866 z" style="fill:#1f3467;fill-opacity:1;fill-rule:nonzero;stroke:none" />
<path d="m 639.825,85.7514 4.167,1.732 4.225,-10.165 6.501,2.7 1.383,-3.32 -10.673,-4.432 -5.603,13.485 z" style="fill:#1f3467;fill-opacity:1;fill-rule:nonzero;stroke:none" />
<path d="m 659.7736,93.633 4.279,1.431 3.491,-10.438 6.678,2.231 1.142,-3.409 -10.958,-3.664 -4.632,13.849 z" style="fill:#1f3467;fill-opacity:1;fill-rule:nonzero;stroke:none" />
<path d="m 673.4481,98.0655 4.343,1.262 4.074,-14.024 -4.341,-1.26 -4.076,14.022 z" style="fill:#1f3467;fill-opacity:1;fill-rule:nonzero;stroke:none" />
<path
         d="m 688.6539,90.351 2.235,0.538 c 0.757,0.182 1.256,0.446 1.502,0.788 0.246,0.344 0.312,0.741 0.205,1.192 -0.1,0.419 -0.335,0.72 -0.704,0.9 -0.369,0.182 -0.937,0.18 -1.707,-0.005 l -2.224,-0.538 0.693,-2.875 z m -1.347,5.576 1.908,0.46 c 0.685,0.166 1.132,0.399 1.342,0.699 0.212,0.301 0.264,0.672 0.157,1.117 -0.1,0.415 -0.312,0.706 -0.636,0.872 -0.326,0.167 -0.82,0.172 -1.483,0.012 l -1.937,-0.467 0.649,-2.693 z m -5.769,4.5 8.21,1.982 c 1.369,0.33 2.502,0.244 3.397,-0.255 0.898,-0.501 1.465,-1.251 1.707,-2.256 0.205,-0.836 0.116,-1.62 -0.262,-2.345 -0.253,-0.485 -0.686,-0.925 -1.301,-1.319 1.08,0 1.932,-0.239 2.556,-0.72 0.627,-0.481 1.048,-1.173 1.267,-2.078 0.178,-0.736 0.166,-1.438 -0.036,-2.108 -0.201,-0.67 -0.554,-1.248 -1.067,-1.734 -0.317,-0.3 -0.834,-0.59 -1.554,-0.865 -0.954,-0.367 -1.595,-0.593 -1.918,-0.67 l -7.572,-1.828 -3.427,14.196 z"
         style="fill:#1f3467;fill-opacity:1;fill-rule:nonzero;stroke:none"
         id="path3653"
 /><path
         d="m 697.8839,104.2358 11.91,2.094 0.54,-3.072 -7.455,-1.31 0.401,-2.285 6.917,1.214 0.515,-2.932 -6.917,-1.217 0.501,-2.834 7.67,1.351 0.576,-3.259 -12.127,-2.135 -2.531,14.385 z"
         style="fill:#1f3467;fill-opacity:1;fill-rule:nonzero;stroke:none"
         id="path3657"
 /><path
         d="m 718.5724,101.4589 1.893,0.203 c 0.203,0.023 0.593,0.13 1.167,0.323 0.289,0.092 0.515,0.271 0.679,0.536 0.162,0.264 0.226,0.553 0.191,0.873 -0.05,0.467 -0.236,0.811 -0.56,1.029 -0.326,0.219 -0.898,0.287 -1.714,0.199 l -1.973,-0.21 0.317,-2.953 z m -3.58,-9.119 -1.556,14.519 7.476,0.802 c 1.388,0.148 2.461,0.142 3.22,-0.016 0.758,-0.159 1.394,-0.537 1.914,-1.132 0.517,-0.597 0.827,-1.356 0.925,-2.281 0.086,-0.807 -0.012,-1.52 -0.292,-2.142 -0.28,-0.62 -0.702,-1.144 -1.265,-1.57 -0.357,-0.273 -0.861,-0.522 -1.515,-0.745 0.556,-0.121 0.964,-0.257 1.226,-0.41 0.178,-0.1 0.444,-0.328 0.8,-0.686 0.355,-0.358 0.597,-0.636 0.725,-0.836 l 2.624,-3.974 -5.072,-0.542 -2.871,4.181 c -0.367,0.54 -0.676,0.884 -0.934,1.032 -0.346,0.189 -0.724,0.262 -1.135,0.217 l -0.396,-0.041 0.631,-5.893 -4.505,-0.483 z"
         style="fill:#1f3467;fill-opacity:1;fill-rule:nonzero;stroke:none"
         id="path3661"
 /><path
         d="m 738.5999,99.7211 -1.761,5.2 -1.443,-5.294 3.204,0.094 z m 1.028,-3.131 -5.12,-0.148 -0.643,-2.429 -4.605,-0.134 5.063,14.753 4.92,0.146 5.908,-14.437 -4.724,-0.139 -0.799,2.388 z"
         style="fill:#1f3467;fill-opacity:1;fill-rule:nonzero;stroke:none"
         id="path3665"
 /><path
         d="m 747.4193,108.8087 4.505,-0.253 -0.618,-10.992 7.03,-0.394 -0.203,-3.591 -11.537,0.652 0.823,14.578 z"
         style="fill:#1f3467;fill-opacity:1;fill-rule:nonzero;stroke:none"
         id="path3669"
 /><path
         d="m 714.0352,80.5023 -9.016,-42.06 -11.452,0 5.851,27.222 c -3.452,-2.162 -7.567,-3.826 -12.345,-4.992 l 2.071,9.788 c 6.102,2.671 11.153,6.016 15.146,10.042 l 9.745,0 z"
         style="fill:#1f3467;fill-opacity:1;fill-rule:nonzero;stroke:none"
         id="path3673"
 /><path
         d="m 753.1814,79.7968 -1.595,-7.672 c -6.569,-5.058 -11.634,-10.668 -15.189,-16.827 -3.557,-6.159 -5.829,-11.776 -6.817,-16.855 l -11.648,0 c 2.761,12.131 9.164,22.697 19.206,31.709 l -19.206,0 2.016,9.645 33.233,0 z"
         style="fill:#1f3467;fill-opacity:1;fill-rule:nonzero;stroke:none"
         id="path3677"
 /></g><path

       id="path3789"
       style="fill:#231f20;fill-opacity:1;fill-rule:nonzero;stroke:none"
       d="m 1948.9865,155.5025 7.583,0 c 5.965,0 10.409,1.032 13.332,3.106 2.923,2.071 4.78,4.725 5.576,7.956 0.77,3.142 0.375,5.808 -1.181,7.994 -1.558,2.187 -5.229,3.281 -11.012,3.281 l -8.814,0 -5.484,-22.337 z m -20.594,42.689 51.434,0 c 11.202,0 18.94,-2.664 23.21,-7.989 4.27,-5.329 5.197,-12.91 2.78,-22.749 -2.482,-10.108 -7.46,-18.01 -14.939,-23.702 -7.476,-5.692 -17.453,-8.537 -29.931,-8.537 l -16.943,0 -9.121,-37.162 -31.082,0 24.592,100.139 z" /><path

       id="path3793"
       style="fill:#918f90;fill-opacity:1;fill-rule:nonzero;stroke:none"
       d="m 1997.8086,133.3311 28.131,1.739 c -0.508,-4.501 -0.127,-7.932 1.139,-10.286 2.06,-3.817 5.879,-5.724 11.448,-5.724 4.156,0 7.601,0.975 10.329,2.926 2.729,1.95 4.409,4.211 5.04,6.781 0.601,2.443 0.068,4.628 -1.602,6.558 -1.67,1.93 -6.195,3.75 -13.573,5.461 -12.065,2.871 -20.236,6.688 -24.509,11.446 -4.318,4.755 -5.571,10.818 -3.759,18.189 1.187,4.842 3.714,9.418 7.578,13.724 3.865,4.307 8.916,7.693 15.157,10.158 6.241,2.463 14.269,3.696 24.082,3.696 12.043,0 20.674,-2.242 25.894,-6.717 5.223,-4.478 7.232,-11.603 6.034,-21.373 l -27.842,-1.607 c 0.31,4.241 -0.461,7.326 -2.324,9.254 -1.862,1.93 -4.851,2.896 -8.962,2.896 -3.388,0 -6.115,-0.72 -8.18,-2.156 -2.069,-1.435 -3.352,-3.181 -3.857,-5.236 -0.37,-1.504 0.01,-2.85 1.125,-4.054 1.067,-1.241 4.04,-2.399 8.921,-3.47 12.053,-2.741 20.489,-5.516 25.305,-8.326 4.818,-2.805 7.969,-6.286 9.454,-10.445 1.491,-4.156 1.602,-8.804 0.337,-13.947 -1.485,-6.043 -4.525,-11.614 -9.116,-16.713 -4.596,-5.102 -10.219,-8.966 -16.864,-11.602 -6.646,-2.637 -14.532,-3.954 -23.663,-3.954 -16.027,0 -26.369,3.085 -31.022,9.256 -4.655,6.172 -6.225,14.013 -4.701,23.526" /><path

       id="path3797"
       style="fill:#e9e9e9;fill-opacity:1;fill-rule:nonzero;stroke:none"
       d="m 2000.6838,136.7822 28.133,1.736 c -0.508,-4.5 -0.127,-7.929 1.137,-10.285 2.06,-3.815 5.879,-5.722 11.45,-5.722 4.156,0 7.599,0.976 10.327,2.926 2.732,1.948 4.411,4.211 5.04,6.781 0.601,2.443 0.068,4.628 -1.604,6.558 -1.668,1.927 -6.193,3.75 -13.572,5.461 -12.064,2.871 -20.235,6.688 -24.508,11.443 -4.315,4.756 -5.569,10.821 -3.759,18.19 1.187,4.844 3.716,9.417 7.58,13.726 3.863,4.307 8.916,7.693 15.155,10.158 6.241,2.463 14.269,3.696 24.085,3.696 12.04,0 20.671,-2.242 25.893,-6.717 5.22,-4.48 7.23,-11.605 6.032,-21.375 l -27.842,-1.605 c 0.31,4.241 -0.46,7.326 -2.324,9.254 -1.859,1.927 -4.849,2.896 -8.964,2.896 -3.386,0 -6.111,-0.72 -8.178,-2.156 -2.069,-1.435 -3.352,-3.183 -3.858,-5.238 -0.366,-1.504 0.01,-2.851 1.126,-4.051 1.067,-1.245 4.04,-2.4 8.921,-3.471 12.053,-2.741 20.489,-5.518 25.305,-8.326 4.817,-2.805 7.971,-6.286 9.456,-10.445 1.488,-4.156 1.6,-8.806 0.335,-13.949 -1.483,-6.04 -4.525,-11.612 -9.116,-16.713 -4.596,-5.1 -10.219,-8.964 -16.864,-11.6 -6.646,-2.637 -14.532,-3.956 -23.661,-3.956 -16.027,0 -26.372,3.087 -31.024,9.258 -4.656,6.172 -6.225,14.011 -4.701,23.526" /><path

       id="path3801"
       style="fill:#231f20;fill-opacity:1;fill-rule:nonzero;stroke:none"
       d="m 1998.9591,135.0578 28.131,1.736 c -0.508,-4.5 -0.127,-7.929 1.137,-10.285 2.062,-3.817 5.881,-5.722 11.45,-5.722 4.156,0 7.601,0.976 10.329,2.926 2.729,1.948 4.411,4.209 5.04,6.781 0.601,2.443 0.066,4.626 -1.604,6.558 -1.668,1.927 -6.193,3.748 -13.571,5.461 -12.065,2.871 -20.236,6.686 -24.511,11.443 -4.316,4.756 -5.569,10.821 -3.76,18.19 1.19,4.842 3.717,9.417 7.584,13.726 3.862,4.307 8.913,7.691 15.154,10.156 6.241,2.463 14.269,3.698 24.082,3.698 12.043,0 20.674,-2.244 25.894,-6.717 5.223,-4.48 7.232,-11.605 6.034,-21.375 l -27.842,-1.607 c 0.31,4.241 -0.463,7.328 -2.324,9.256 -1.862,1.927 -4.851,2.894 -8.964,2.894 -3.386,0 -6.113,-0.721 -8.178,-2.156 -2.069,-1.436 -3.352,-3.181 -3.86,-5.236 -0.367,-1.504 0.01,-2.851 1.128,-4.054 1.067,-1.242 4.04,-2.397 8.921,-3.468 12.053,-2.743 20.489,-5.518 25.306,-8.326 4.816,-2.805 7.968,-6.289 9.456,-10.445 1.485,-4.156 1.599,-8.806 0.335,-13.949 -1.486,-6.04 -4.526,-11.612 -9.117,-16.713 -4.596,-5.1 -10.219,-8.966 -16.864,-11.603 -6.646,-2.636 -14.532,-3.953 -23.66,-3.953 -16.03,0 -26.372,3.087 -31.028,9.258 -4.655,6.17 -6.222,14.011 -4.698,23.526" /><path

       id="path3805"
       style="fill:#231f20;fill-opacity:1;fill-rule:nonzero;stroke:none"
       d="m 2110.0149,198.1923 27.744,0 -16.62,-67.676 43.3,0 -5.428,-22.109 -71.048,0 22.052,89.785 z" /><path

       id="path3809"
       style="fill:#918f90;fill-opacity:1;fill-rule:nonzero;stroke:none"
       d="m 1900.1664,83.5253 6.624,26.734 c 0,0 60.049,-31.916 118.724,-12.119 77.8,26.253 101.777,24.196 135.744,19.431 l -2.247,-9.164 -171.74,-34.42 c 0,0 -73.782,-14.715 -87.105,9.538" /><path

       id="path3813"
       style="fill:#e9e9e9;fill-opacity:1;fill-rule:nonzero;stroke:none"
       d="m 1900.1664,83.7166 -7.28,-32.224 c 0,0 75.147,-18.718 155.46,18.803 67.288,31.438 107.017,23.675 107.017,23.675 l 5.512,21.183 c 0,0 -52.573,4.649 -130.402,-26.021 -77.832,-30.674 -130.307,-5.416 -130.307,-5.416" /><path

       id="path3817"
       style="fill:#231f20;fill-opacity:1;fill-rule:nonzero;stroke:none"
       d="m 1908.3351,62.9491 0.946,-0.21 c 0.74,-0.161 1.289,-0.148 1.649,0.041 0.358,0.194 0.581,0.49 0.67,0.891 0.084,0.392 0.027,0.752 -0.173,1.08 -0.198,0.333 -0.661,0.577 -1.381,0.734 l -1.094,0.246 -0.617,-2.782 z m -2.691,6.168 6.4,-1.415 c 1.393,-0.308 2.366,-0.87 2.912,-1.686 0.547,-0.818 0.686,-1.839 0.415,-3.062 -0.276,-1.258 -0.875,-2.156 -1.786,-2.698 -0.914,-0.543 -2.147,-0.641 -3.698,-0.299 l -2.11,0.47 -1.021,-4.626 -3.867,0.857 2.755,12.459 z" /><path

       id="path3821"
       style="fill:#231f20;fill-opacity:1;fill-rule:nonzero;stroke:none"
       d="m 1921.6726,58.0361 -0.732,4.744 -2.041,-4.336 2.773,-0.408 z m 0.412,-2.848 -4.432,0.647 -0.92,-1.996 -3.983,0.583 6.59,11.935 4.254,-0.619 2.905,-13.321 -4.088,0.595 -0.326,2.176 z" /><path

       id="path3825"
       style="fill:#231f20;fill-opacity:1;fill-rule:nonzero;stroke:none"
       d="m 1932.3044,59.6158 1.659,-0.121 c 0.18,-0.011 0.531,0.021 1.052,0.098 0.267,0.037 0.488,0.153 0.668,0.356 0.182,0.198 0.28,0.442 0.301,0.717 0.032,0.413 -0.075,0.736 -0.319,0.976 -0.246,0.239 -0.727,0.387 -1.445,0.437 l -1.727,0.125 -0.189,-2.588 z m -4.5,-7.282 0.925,12.73 6.555,-0.478 c 1.215,-0.087 2.138,-0.263 2.764,-0.515 0.629,-0.256 1.117,-0.682 1.47,-1.274 0.353,-0.593 0.501,-1.294 0.44,-2.103 -0.05,-0.707 -0.247,-1.306 -0.584,-1.796 -0.339,-0.49 -0.781,-0.875 -1.333,-1.155 -0.351,-0.178 -0.825,-0.312 -1.417,-0.403 0.456,-0.189 0.786,-0.372 0.989,-0.545 0.137,-0.114 0.33,-0.353 0.581,-0.715 0.248,-0.363 0.415,-0.638 0.492,-0.83 l 1.638,-3.825 -4.445,0.321 -1.818,4.042 c -0.23,0.524 -0.445,0.868 -0.643,1.034 -0.269,0.217 -0.583,0.34 -0.941,0.365 l -0.346,0.025 -0.376,-5.165 -3.951,0.287 z" /><path

       id="path3829"
       style="fill:#231f20;fill-opacity:1;fill-rule:nonzero;stroke:none"
       d="m 1940.6353,64.2085 11.988,-0.093 -0.025,-3.152 -4.022,0.032 -0.075,-9.611 -3.942,0.032 0.075,9.611 -4.024,0.03 0.025,3.151 z" /><path

       id="path3833"
       style="fill:#231f20;fill-opacity:1;fill-rule:nonzero;stroke:none"
       d="m 1953.9597,64.2308 3.949,0.157 0.505,-12.753 -3.946,-0.157 -0.508,12.753 z" /><path

       id="path3837"
       style="fill:#231f20;fill-opacity:1;fill-rule:nonzero;stroke:none"
       d="m 1964.349,61.9167 0.617,-6.945 0.964,0.084 c 0.823,0.073 1.399,0.217 1.727,0.431 0.333,0.212 0.575,0.554 0.729,1.025 0.158,0.472 0.187,1.217 0.098,2.233 -0.118,1.347 -0.421,2.251 -0.904,2.709 -0.483,0.456 -1.235,0.641 -2.251,0.55 l -0.98,-0.087 z m -4.186,2.525 5.836,0.524 c 1.15,0.102 2.094,0.029 2.829,-0.219 0.734,-0.248 1.361,-0.645 1.876,-1.187 0.515,-0.545 0.909,-1.194 1.187,-1.948 0.278,-0.757 0.456,-1.568 0.533,-2.434 0.121,-1.36 0.059,-2.429 -0.182,-3.201 -0.244,-0.777 -0.615,-1.443 -1.119,-1.999 -0.503,-0.556 -1.062,-0.943 -1.679,-1.168 -0.841,-0.308 -1.611,-0.495 -2.308,-0.554 l -5.838,-0.524 -1.135,12.71 z" /><path

       id="path3841"
       style="fill:#231f20;fill-opacity:1;fill-rule:nonzero;stroke:none"
       d="m 1977.4574,59.8493 c 0.203,-1.274 0.583,-2.149 1.144,-2.63 0.56,-0.48 1.248,-0.656 2.062,-0.528 0.836,0.132 1.442,0.506 1.814,1.123 0.373,0.618 0.446,1.632 0.223,3.042 -0.187,1.187 -0.563,2.014 -1.128,2.486 -0.565,0.472 -1.26,0.643 -2.078,0.515 -0.786,-0.125 -1.374,-0.504 -1.761,-1.135 -0.388,-0.631 -0.479,-1.59 -0.276,-2.873 m -3.896,-0.599 c -0.328,2.06 -0.01,3.75 0.957,5.079 0.966,1.328 2.47,2.155 4.516,2.479 2.098,0.33 3.805,0.023 5.117,-0.923 1.315,-0.948 2.131,-2.436 2.452,-4.464 0.233,-1.472 0.178,-2.72 -0.171,-3.741 -0.346,-1.021 -0.945,-1.869 -1.8,-2.541 -0.854,-0.674 -1.98,-1.123 -3.379,-1.342 -1.42,-0.225 -2.632,-0.185 -3.637,0.119 -1.002,0.305 -1.87,0.902 -2.604,1.791 -0.736,0.888 -1.217,2.071 -1.451,3.543" /><path

       id="path3845"
       style="fill:#231f20;fill-opacity:1;fill-rule:nonzero;stroke:none"
       d="m 1993.7968,60.6461 3.575,1.158 c 0.23,-0.57 0.506,-0.978 0.827,-1.224 0.522,-0.403 1.149,-0.508 1.88,-0.321 0.542,0.141 0.93,0.373 1.162,0.706 0.228,0.33 0.298,0.665 0.214,1.003 -0.082,0.321 -0.298,0.571 -0.642,0.751 -0.347,0.183 -1.06,0.253 -2.14,0.219 -1.77,-0.054 -3.094,0.142 -3.969,0.584 -0.877,0.439 -1.44,1.143 -1.688,2.109 -0.162,0.636 -0.133,1.286 0.091,1.944 0.223,0.656 0.663,1.244 1.319,1.757 0.658,0.51 1.629,0.934 2.919,1.26 1.579,0.406 2.859,0.421 3.837,0.046 0.98,-0.376 1.713,-1.185 2.199,-2.427 l -3.548,-1.133 c -0.237,0.534 -0.542,0.887 -0.914,1.062 -0.371,0.173 -0.827,0.192 -1.367,0.055 -0.444,-0.112 -0.754,-0.294 -0.93,-0.54 -0.177,-0.246 -0.23,-0.506 -0.161,-0.775 0.05,-0.196 0.189,-0.349 0.414,-0.458 0.221,-0.118 0.686,-0.159 1.399,-0.127 1.759,0.066 3.051,0.009 3.867,-0.176 0.818,-0.182 1.461,-0.503 1.928,-0.966 0.467,-0.463 0.788,-1.03 0.961,-1.707 0.205,-0.79 0.171,-1.576 -0.095,-2.36 -0.269,-0.78 -0.75,-1.445 -1.452,-1.994 -0.699,-0.545 -1.647,-0.971 -2.843,-1.276 -2.104,-0.54 -3.662,-0.506 -4.681,0.096 -1.016,0.601 -1.736,1.515 -2.162,2.734" /><path

       id="path3849"
       style="fill:#231f20;fill-opacity:1;fill-rule:nonzero;stroke:none"
       d="m 2009.2863,67.0813 c 0.399,-1.221 0.911,-2.03 1.542,-2.418 0.632,-0.385 1.338,-0.451 2.12,-0.196 0.806,0.265 1.344,0.73 1.613,1.397 0.273,0.67 0.184,1.682 -0.258,3.04 -0.371,1.141 -0.875,1.9 -1.506,2.278 -0.633,0.374 -1.344,0.433 -2.132,0.178 -0.757,-0.246 -1.276,-0.713 -1.559,-1.394 -0.283,-0.686 -0.226,-1.645 0.18,-2.885 m -3.755,-1.203 c -0.647,1.98 -0.597,3.703 0.146,5.165 0.742,1.466 2.1,2.516 4.069,3.159 2.021,0.658 3.753,0.624 5.198,-0.103 1.447,-0.727 2.488,-2.071 3.123,-4.024 0.465,-1.417 0.604,-2.659 0.424,-3.721 -0.18,-1.062 -0.64,-1.994 -1.376,-2.796 -0.74,-0.797 -1.782,-1.415 -3.128,-1.854 -1.368,-0.447 -2.571,-0.6 -3.61,-0.456 -1.039,0.143 -1.991,0.597 -2.855,1.358 -0.866,0.763 -1.528,1.852 -1.991,3.272" /><path

       id="path3853"
       style="fill:#231f20;fill-opacity:1;fill-rule:nonzero;stroke:none"
       d="m 2028.002,72.6887 3.595,0.317 c 0.149,-0.987 0.11,-1.876 -0.113,-2.662 -0.219,-0.79 -0.611,-1.476 -1.176,-2.062 -0.563,-0.579 -1.376,-1.082 -2.438,-1.51 -1.285,-0.515 -2.411,-0.75 -3.377,-0.705 -0.968,0.048 -1.937,0.422 -2.905,1.128 -0.971,0.702 -1.753,1.789 -2.342,3.261 -0.787,1.957 -0.869,3.673 -0.249,5.143 0.62,1.472 1.882,2.588 3.792,3.351 1.49,0.602 2.784,0.771 3.88,0.509 1.096,-0.262 2.101,-0.93 3.017,-2.017 l -2.942,-2.016 c -0.257,0.316 -0.485,0.535 -0.674,0.649 -0.315,0.198 -0.654,0.317 -1.01,0.348 -0.357,0.028 -0.717,-0.029 -1.086,-0.173 -0.828,-0.335 -1.331,-0.922 -1.504,-1.766 -0.135,-0.628 0.01,-1.474 0.435,-2.531 0.526,-1.315 1.087,-2.135 1.681,-2.461 0.593,-0.328 1.251,-0.349 1.974,-0.057 0.699,0.28 1.15,0.691 1.349,1.226 0.202,0.538 0.232,1.214 0.093,2.028" /><path

       id="path3857"
       style="fill:#231f20;fill-opacity:1;fill-rule:nonzero;stroke:none"
       d="m 2029.7109,81.6428 3.593,1.645 5.307,-11.607 -3.596,-1.645 -5.304,11.607 z" /><path

       id="path3861"
       style="fill:#231f20;fill-opacity:1;fill-rule:nonzero;stroke:none"
       d="m 2045.4229,80.3564 -3.236,3.546 0.702,-4.742 2.534,1.196 z m 1.921,-2.144 -4.049,-1.914 0.339,-2.169 -3.641,-1.723 -1.121,13.587 3.887,1.837 9.793,-9.484 -3.732,-1.766 -1.476,1.632 z" /><path

       id="path3865"
       style="fill:#231f20;fill-opacity:1;fill-rule:nonzero;stroke:none"
       d="m 2048.8203,90.5901 3.641,1.513 3.692,-8.882 5.682,2.361 1.206,-2.903 -9.326,-3.874 -4.895,11.785 z" /><path

       id="path3869"
       style="fill:#231f20;fill-opacity:1;fill-rule:nonzero;stroke:none"
       d="m 2066.2524,97.4769 3.741,1.253 3.049,-9.125 5.838,1.952 0.996,-2.98 -9.577,-3.201 -4.047,12.101 z" /><path

       id="path3873"
       style="fill:#231f20;fill-opacity:1;fill-rule:nonzero;stroke:none"
       d="m 2078.2036,101.3509 3.794,1.103 3.563,-12.254 -3.795,-1.103 -3.562,12.254 z" /><path

       id="path3877"
       style="fill:#231f20;fill-opacity:1;fill-rule:nonzero;stroke:none"
       d="m 2091.4927,94.6087 1.953,0.474 c 0.66,0.157 1.1,0.387 1.314,0.686 0.212,0.3 0.274,0.647 0.178,1.043 -0.089,0.365 -0.294,0.629 -0.617,0.786 -0.319,0.158 -0.818,0.158 -1.488,-0.006 l -1.948,-0.467 0.608,-2.516 z m -1.178,4.876 1.668,0.399 c 0.599,0.146 0.989,0.351 1.171,0.613 0.187,0.262 0.233,0.588 0.139,0.977 -0.089,0.36 -0.274,0.615 -0.556,0.761 -0.285,0.146 -0.718,0.148 -1.296,0.012 l -1.694,-0.41 0.568,-2.352 z m -5.04,3.931 7.175,1.734 c 1.194,0.287 2.185,0.214 2.969,-0.226 0.782,-0.437 1.281,-1.094 1.492,-1.969 0.176,-0.733 0.098,-1.415 -0.232,-2.05 -0.219,-0.424 -0.597,-0.807 -1.137,-1.153 0.943,0 1.691,-0.21 2.235,-0.632 0.547,-0.416 0.916,-1.023 1.105,-1.811 0.157,-0.645 0.148,-1.258 -0.029,-1.843 -0.176,-0.588 -0.484,-1.094 -0.932,-1.516 -0.276,-0.264 -0.729,-0.519 -1.356,-0.758 -0.839,-0.322 -1.397,-0.518 -1.679,-0.584 l -6.617,-1.597 -2.994,12.405 z" /><path

       id="path3881"
       style="fill:#231f20;fill-opacity:1;fill-rule:nonzero;stroke:none"
       d="m 2099.5588,106.7425 10.406,1.834 0.474,-2.686 -6.516,-1.146 0.353,-1.999 6.042,1.064 0.451,-2.563 -6.042,-1.064 0.435,-2.477 6.703,1.18 0.502,-2.846 -10.596,-1.866 -2.212,12.569 z" /><path

       id="path3885"
       style="fill:#231f20;fill-opacity:1;fill-rule:nonzero;stroke:none"
       d="m 2117.6382,104.3172 1.654,0.175 c 0.18,0.021 0.52,0.117 1.021,0.288 0.253,0.077 0.451,0.234 0.595,0.464 0.139,0.23 0.196,0.486 0.166,0.764 -0.045,0.41 -0.209,0.708 -0.49,0.902 -0.285,0.191 -0.784,0.248 -1.497,0.171 l -1.725,-0.185 0.276,-2.579 z m -3.128,-7.97 -1.361,12.689 6.535,0.699 c 1.212,0.133 2.151,0.128 2.814,-0.011 0.661,-0.141 1.219,-0.469 1.67,-0.991 0.454,-0.52 0.725,-1.185 0.809,-1.994 0.078,-0.704 -0.01,-1.326 -0.255,-1.868 -0.244,-0.543 -0.611,-1.001 -1.105,-1.374 -0.312,-0.24 -0.752,-0.456 -1.322,-0.652 0.484,-0.102 0.841,-0.223 1.072,-0.358 0.154,-0.089 0.387,-0.289 0.697,-0.599 0.312,-0.312 0.521,-0.556 0.636,-0.731 l 2.289,-3.473 -4.429,-0.474 -2.509,3.653 c -0.321,0.471 -0.592,0.774 -0.818,0.904 -0.303,0.164 -0.633,0.226 -0.991,0.189 l -0.347,-0.036 0.552,-5.152 -3.937,-0.421 z" /><path

       id="path3889"
       style="fill:#231f20;fill-opacity:1;fill-rule:nonzero;stroke:none"
       d="m 2135.1414,102.7974 -1.543,4.543 -1.257,-4.623 2.8,0.08 z m 0.9,-2.734 -4.475,-0.13 -0.56,-2.124 -4.027,-0.116 4.423,12.897 4.3,0.125 5.165,-12.619 -4.129,-0.121 -0.697,2.088 z" /><path

       id="path3893"
       style="fill:#231f20;fill-opacity:1;fill-rule:nonzero;stroke:none"
       d="m 2142.8491,110.7388 3.938,-0.221 -0.543,-9.604 6.148,-0.344 -0.18,-3.14 -10.081,0.567 0.718,12.742 z" /><path

       id="path3897"
       style="fill:#231f20;fill-opacity:1;fill-rule:nonzero;stroke:none"
       d="m 2113.6731,86.0041 -7.879,-36.758 -10.008,0 5.116,23.791 c -3.02,-1.892 -6.617,-3.345 -10.792,-4.364 l 1.812,8.554 c 5.334,2.333 9.745,5.259 13.236,8.777 l 8.515,0 z" /><path

       id="path3901"
       style="fill:#231f20;fill-opacity:1;fill-rule:nonzero;stroke:none"
       d="m 2147.8848,85.3878 -1.395,-6.704 c -5.741,-4.422 -10.167,-9.324 -13.274,-14.705 -3.108,-5.387 -5.093,-10.293 -5.959,-14.731 l -10.181,0 c 2.416,10.599 8.012,19.837 16.789,27.709 l -16.789,0 1.764,8.431 29.045,0 z" /><path

       id="path3905"
       style="fill:#231f20;fill-opacity:1;fill-rule:nonzero;stroke:none"
       d="m 1951.6587,-118.83 7.583,0 c 5.965,0 10.409,1.032 13.332,3.106 2.923,2.071 4.78,4.725 5.576,7.956 0.77,3.143 0.376,5.808 -1.181,7.994 -1.558,2.187 -5.229,3.281 -11.012,3.281 l -8.814,0 -5.484,-22.337 z m -20.594,42.689 51.434,0 c 11.202,0 18.94,-2.664 23.21,-7.989 4.27,-5.329 5.197,-12.91 2.78,-22.749 -2.482,-10.108 -7.46,-18.01 -14.939,-23.702 -7.476,-5.692 -17.453,-8.537 -29.931,-8.537 l -16.943,0 -9.121,-37.162 -31.082,0 24.592,100.139 z" /><path

       id="path3909"
       style="fill:#918f90;fill-opacity:1;fill-rule:nonzero;stroke:none"
       d="m 2000.4812,-141.0016 28.131,1.738 c -0.508,-4.5 -0.127,-7.931 1.139,-10.285 2.06,-3.817 5.879,-5.724 11.448,-5.724 4.156,0 7.601,0.976 10.329,2.926 2.729,1.95 4.409,4.211 5.04,6.781 0.601,2.443 0.068,4.628 -1.602,6.558 -1.67,1.93 -6.195,3.75 -13.574,5.461 -12.064,2.871 -20.235,6.688 -24.508,11.446 -4.318,4.755 -5.571,10.818 -3.759,18.19 1.187,4.841 3.714,9.417 7.578,13.723 3.865,4.307 8.916,7.693 15.157,10.158 6.241,2.463 14.269,3.696 24.082,3.696 12.043,0 20.674,-2.242 25.894,-6.717 5.222,-4.478 7.232,-11.603 6.034,-21.373 l -27.842,-1.607 c 0.31,4.241 -0.46,7.326 -2.324,9.254 -1.862,1.93 -4.851,2.896 -8.962,2.896 -3.388,0 -6.116,-0.72 -8.18,-2.156 -2.069,-1.435 -3.352,-3.181 -3.858,-5.236 -0.369,-1.504 0.01,-2.85 1.126,-4.054 1.067,-1.241 4.04,-2.399 8.921,-3.47 12.053,-2.741 20.489,-5.516 25.305,-8.326 4.817,-2.805 7.969,-6.286 9.454,-10.445 1.49,-4.156 1.602,-8.804 0.337,-13.947 -1.485,-6.042 -4.525,-11.614 -9.116,-16.713 -4.596,-5.102 -10.219,-8.966 -16.864,-11.602 -6.646,-2.637 -14.532,-3.954 -23.663,-3.954 -16.027,0 -26.37,3.085 -31.022,9.256 -4.656,6.172 -6.225,14.013 -4.701,23.526" /><path

       id="path3913"
       style="fill:#e9e9e9;fill-opacity:1;fill-rule:nonzero;stroke:none"
       d="m 2003.3561,-137.5505 28.133,1.736 c -0.508,-4.5 -0.127,-7.929 1.137,-10.285 2.06,-3.815 5.879,-5.722 11.45,-5.722 4.156,0 7.599,0.976 10.327,2.926 2.732,1.948 4.411,4.211 5.04,6.781 0.601,2.443 0.068,4.628 -1.604,6.558 -1.668,1.927 -6.193,3.75 -13.571,5.461 -12.065,2.871 -20.236,6.688 -24.509,11.443 -4.315,4.756 -5.569,10.821 -3.759,18.19 1.187,4.844 3.716,9.417 7.58,13.726 3.863,4.307 8.917,7.693 15.155,10.158 6.241,2.463 14.269,3.696 24.085,3.696 12.04,0 20.671,-2.242 25.893,-6.717 5.221,-4.48 7.23,-11.605 6.032,-21.375 l -27.842,-1.605 c 0.31,4.241 -0.46,7.326 -2.324,9.254 -1.859,1.927 -4.849,2.896 -8.964,2.896 -3.386,0 -6.111,-0.72 -8.178,-2.156 -2.069,-1.435 -3.352,-3.183 -3.857,-5.238 -0.367,-1.504 0.01,-2.851 1.125,-4.052 1.067,-1.244 4.04,-2.399 8.921,-3.47 12.053,-2.741 20.489,-5.518 25.306,-8.326 4.816,-2.805 7.97,-6.286 9.456,-10.445 1.487,-4.156 1.599,-8.806 0.335,-13.949 -1.484,-6.04 -4.526,-11.612 -9.117,-16.713 -4.596,-5.1 -10.219,-8.964 -16.864,-11.6 -6.646,-2.637 -14.532,-3.956 -23.66,-3.956 -16.028,0 -26.372,3.087 -31.025,9.258 -4.655,6.172 -6.225,14.011 -4.701,23.526" /><path

       id="path3917"
       style="fill:#231f20;fill-opacity:1;fill-rule:nonzero;stroke:none"
       d="m 2001.6316,-139.2748 28.131,1.736 c -0.508,-4.5 -0.127,-7.929 1.137,-10.285 2.062,-3.817 5.881,-5.722 11.45,-5.722 4.156,0 7.601,0.976 10.329,2.926 2.729,1.948 4.411,4.208 5.04,6.781 0.601,2.443 0.066,4.625 -1.604,6.558 -1.668,1.927 -6.193,3.748 -13.571,5.461 -12.065,2.871 -20.236,6.686 -24.511,11.443 -4.316,4.756 -5.569,10.821 -3.76,18.19 1.19,4.842 3.717,9.417 7.583,13.726 3.863,4.307 8.914,7.69 15.155,10.156 6.241,2.463 14.269,3.698 24.082,3.698 12.043,0 20.674,-2.244 25.894,-6.717 5.222,-4.48 7.232,-11.605 6.034,-21.375 l -27.842,-1.607 c 0.31,4.241 -0.463,7.328 -2.324,9.256 -1.862,1.927 -4.851,2.893 -8.964,2.893 -3.386,0 -6.114,-0.72 -8.178,-2.155 -2.069,-1.436 -3.352,-3.181 -3.86,-5.236 -0.367,-1.504 0.01,-2.851 1.128,-4.054 1.067,-1.242 4.04,-2.397 8.921,-3.468 12.053,-2.743 20.489,-5.518 25.305,-8.326 4.817,-2.805 7.969,-6.289 9.456,-10.445 1.486,-4.156 1.6,-8.806 0.335,-13.949 -1.485,-6.04 -4.525,-11.612 -9.116,-16.713 -4.596,-5.1 -10.219,-8.966 -16.864,-11.603 -6.646,-2.636 -14.532,-3.953 -23.66,-3.953 -16.03,0 -26.372,3.087 -31.028,9.258 -4.655,6.17 -6.222,14.011 -4.698,23.526" /><path

       id="path3921"
       style="fill:#231f20;fill-opacity:1;fill-rule:nonzero;stroke:none"
       d="m 2112.687,-76.1404 27.744,0 -16.62,-67.676 43.3,0 -5.428,-22.109 -71.048,0 22.052,89.785 z" /><path

       id="path3925"
       style="fill:#918f90;fill-opacity:1;fill-rule:nonzero;stroke:none"
       d="m 1902.8389,-190.8074 6.624,26.734 c 0,0 60.049,-31.915 118.725,-12.119 77.799,26.253 101.776,24.196 135.743,19.431 l -2.247,-9.164 -171.74,-34.42 c 0,0 -73.782,-14.715 -87.105,9.538" /><path

       id="path3929"
       style="fill:#e9e9e9;fill-opacity:1;fill-rule:nonzero;stroke:none"
       d="m 1902.8389,-190.616 -7.28,-32.224 c 0,0 75.147,-18.718 155.46,18.803 67.288,31.438 107.017,23.675 107.017,23.675 l 5.512,21.183 c 0,0 -52.573,4.649 -130.402,-26.021 -77.832,-30.674 -130.307,-5.416 -130.307,-5.416" /><path

       id="path3933"
       style="fill:#231f20;fill-opacity:1;fill-rule:nonzero;stroke:none"
       d="m 1911.0073,-211.3835 0.946,-0.21 c 0.74,-0.161 1.289,-0.148 1.649,0.041 0.358,0.194 0.581,0.49 0.67,0.891 0.084,0.392 0.027,0.752 -0.173,1.08 -0.198,0.333 -0.661,0.577 -1.381,0.734 l -1.093,0.246 -0.618,-2.782 z m -2.691,6.168 6.4,-1.415 c 1.393,-0.308 2.366,-0.87 2.912,-1.686 0.547,-0.818 0.686,-1.839 0.415,-3.062 -0.276,-1.258 -0.875,-2.156 -1.786,-2.698 -0.914,-0.543 -2.147,-0.641 -3.698,-0.299 l -2.11,0.47 -1.021,-4.626 -3.867,0.857 2.755,12.459 z" /><path

       id="path3937"
       style="fill:#231f20;fill-opacity:1;fill-rule:nonzero;stroke:none"
       d="m 1924.3448,-216.2966 -0.732,4.744 -2.041,-4.336 2.773,-0.408 z m 0.412,-2.848 -4.432,0.647 -0.92,-1.996 -3.983,0.583 6.59,11.935 4.254,-0.62 2.905,-13.32 -4.088,0.595 -0.326,2.176 z" /><path

       id="path3941"
       style="fill:#231f20;fill-opacity:1;fill-rule:nonzero;stroke:none"
       d="m 1934.9767,-214.7169 1.659,-0.121 c 0.18,-0.011 0.531,0.021 1.052,0.098 0.267,0.037 0.488,0.153 0.668,0.356 0.182,0.198 0.28,0.442 0.301,0.717 0.032,0.413 -0.075,0.736 -0.319,0.976 -0.246,0.239 -0.727,0.387 -1.445,0.437 l -1.727,0.125 -0.189,-2.588 z m -4.5,-7.282 0.925,12.73 6.555,-0.478 c 1.215,-0.087 2.138,-0.263 2.764,-0.515 0.629,-0.256 1.117,-0.682 1.47,-1.274 0.353,-0.593 0.501,-1.294 0.44,-2.103 -0.05,-0.707 -0.246,-1.306 -0.584,-1.796 -0.339,-0.49 -0.781,-0.875 -1.333,-1.155 -0.351,-0.178 -0.825,-0.312 -1.417,-0.403 0.456,-0.189 0.786,-0.372 0.989,-0.545 0.137,-0.114 0.33,-0.353 0.581,-0.715 0.248,-0.363 0.415,-0.638 0.492,-0.83 l 1.639,-3.825 -4.446,0.321 -1.818,4.042 c -0.23,0.524 -0.445,0.868 -0.643,1.034 -0.269,0.217 -0.583,0.34 -0.941,0.365 l -0.346,0.025 -0.376,-5.165 -3.951,0.287 z" /><path

       id="path3945"
       style="fill:#231f20;fill-opacity:1;fill-rule:nonzero;stroke:none"
       d="m 1943.3079,-210.124 11.987,-0.093 -0.025,-3.152 -4.021,0.032 -0.076,-9.611 -3.941,0.032 0.075,9.611 -4.024,0.03 0.025,3.151 z" /><path

       id="path3949"
       style="fill:#231f20;fill-opacity:1;fill-rule:nonzero;stroke:none"
       d="m 1956.6322,-210.1019 3.949,0.157 0.506,-12.753 -3.947,-0.157 -0.508,12.753 z" /><path

       id="path3953"
       style="fill:#231f20;fill-opacity:1;fill-rule:nonzero;stroke:none"
       d="m 1967.0214,-212.416 0.618,-6.945 0.963,0.084 c 0.823,0.073 1.399,0.217 1.727,0.431 0.333,0.212 0.575,0.554 0.73,1.025 0.157,0.472 0.186,1.217 0.097,2.233 -0.118,1.347 -0.421,2.251 -0.904,2.709 -0.483,0.456 -1.235,0.641 -2.251,0.55 l -0.98,-0.087 z m -4.186,2.525 5.836,0.524 c 1.15,0.102 2.094,0.029 2.83,-0.219 0.733,-0.248 1.36,-0.645 1.875,-1.187 0.515,-0.545 0.909,-1.194 1.187,-1.948 0.278,-0.757 0.456,-1.568 0.533,-2.434 0.121,-1.36 0.059,-2.429 -0.182,-3.201 -0.244,-0.777 -0.615,-1.443 -1.119,-1.999 -0.503,-0.556 -1.062,-0.943 -1.679,-1.168 -0.841,-0.308 -1.611,-0.495 -2.308,-0.554 l -5.838,-0.524 -1.135,12.71 z" /><path

       id="path3957"
       style="fill:#231f20;fill-opacity:1;fill-rule:nonzero;stroke:none"
       d="m 1980.13,-214.4831 c 0.203,-1.274 0.583,-2.149 1.144,-2.63 0.56,-0.48 1.248,-0.656 2.062,-0.528 0.836,0.132 1.442,0.506 1.814,1.123 0.373,0.618 0.446,1.632 0.223,3.042 -0.187,1.187 -0.563,2.014 -1.128,2.486 -0.565,0.472 -1.26,0.643 -2.078,0.515 -0.786,-0.125 -1.374,-0.504 -1.761,-1.135 -0.388,-0.631 -0.479,-1.59 -0.276,-2.873 m -3.896,-0.599 c -0.328,2.06 -0.01,3.75 0.957,5.079 0.966,1.328 2.47,2.155 4.516,2.479 2.098,0.33 3.805,0.023 5.117,-0.923 1.315,-0.948 2.131,-2.436 2.452,-4.464 0.232,-1.472 0.178,-2.72 -0.171,-3.741 -0.346,-1.021 -0.945,-1.869 -1.8,-2.541 -0.854,-0.674 -1.98,-1.123 -3.379,-1.342 -1.42,-0.225 -2.632,-0.185 -3.637,0.119 -1.002,0.305 -1.87,0.902 -2.604,1.791 -0.736,0.888 -1.217,2.071 -1.451,3.543" /><path

       id="path3961"
       style="fill:#231f20;fill-opacity:1;fill-rule:nonzero;stroke:none"
       d="m 1996.4694,-213.6865 3.575,1.157 c 0.23,-0.569 0.506,-0.977 0.827,-1.223 0.522,-0.403 1.149,-0.508 1.88,-0.321 0.542,0.141 0.93,0.373 1.162,0.706 0.228,0.33 0.298,0.665 0.214,1.003 -0.082,0.321 -0.298,0.571 -0.642,0.751 -0.347,0.183 -1.06,0.253 -2.14,0.219 -1.77,-0.054 -3.094,0.141 -3.969,0.584 -0.878,0.439 -1.44,1.143 -1.689,2.109 -0.161,0.636 -0.132,1.286 0.091,1.944 0.224,0.656 0.664,1.244 1.32,1.757 0.658,0.51 1.629,0.934 2.919,1.26 1.579,0.406 2.859,0.421 3.837,0.045 0.98,-0.376 1.713,-1.184 2.199,-2.426 l -3.548,-1.133 c -0.237,0.534 -0.542,0.887 -0.914,1.062 -0.371,0.173 -0.827,0.192 -1.367,0.055 -0.444,-0.112 -0.754,-0.294 -0.93,-0.54 -0.177,-0.246 -0.23,-0.506 -0.162,-0.775 0.051,-0.196 0.19,-0.349 0.415,-0.458 0.221,-0.118 0.686,-0.159 1.399,-0.128 1.759,0.067 3.051,0.01 3.867,-0.175 0.818,-0.182 1.461,-0.503 1.928,-0.966 0.467,-0.463 0.788,-1.03 0.961,-1.707 0.205,-0.79 0.171,-1.576 -0.096,-2.36 -0.268,-0.78 -0.749,-1.445 -1.451,-1.994 -0.699,-0.545 -1.647,-0.971 -2.843,-1.276 -2.104,-0.54 -3.662,-0.506 -4.681,0.096 -1.016,0.601 -1.736,1.515 -2.162,2.734" /><path

       id="path3965"
       style="fill:#231f20;fill-opacity:1;fill-rule:nonzero;stroke:none"
       d="m 2011.9586,-207.2513 c 0.399,-1.221 0.911,-2.03 1.542,-2.418 0.632,-0.385 1.338,-0.451 2.12,-0.196 0.806,0.265 1.344,0.73 1.613,1.397 0.273,0.67 0.184,1.682 -0.258,3.04 -0.371,1.141 -0.875,1.9 -1.506,2.278 -0.633,0.374 -1.344,0.433 -2.133,0.178 -0.756,-0.246 -1.276,-0.713 -1.558,-1.394 -0.283,-0.686 -0.226,-1.646 0.18,-2.885 m -3.755,-1.203 c -0.647,1.98 -0.597,3.703 0.146,5.165 0.742,1.465 2.1,2.516 4.069,3.158 2.021,0.659 3.753,0.625 5.198,-0.102 1.446,-0.727 2.488,-2.071 3.123,-4.024 0.465,-1.417 0.604,-2.659 0.424,-3.721 -0.18,-1.062 -0.64,-1.994 -1.376,-2.796 -0.74,-0.797 -1.782,-1.415 -3.128,-1.855 -1.368,-0.446 -2.571,-0.599 -3.61,-0.455 -1.039,0.143 -1.991,0.597 -2.855,1.358 -0.866,0.763 -1.529,1.852 -1.991,3.272" /><path

       id="path3969"
       style="fill:#231f20;fill-opacity:1;fill-rule:nonzero;stroke:none"
       d="m 2030.6744,-201.644 3.595,0.317 c 0.149,-0.987 0.11,-1.876 -0.113,-2.662 -0.219,-0.79 -0.611,-1.476 -1.176,-2.062 -0.563,-0.579 -1.376,-1.082 -2.438,-1.51 -1.285,-0.515 -2.411,-0.75 -3.377,-0.705 -0.968,0.048 -1.937,0.422 -2.905,1.128 -0.971,0.702 -1.753,1.789 -2.343,3.261 -0.786,1.957 -0.868,3.673 -0.248,5.143 0.62,1.472 1.882,2.588 3.792,3.351 1.49,0.602 2.784,0.771 3.88,0.509 1.096,-0.262 2.101,-0.93 3.017,-2.017 l -2.942,-2.016 c -0.257,0.316 -0.485,0.535 -0.674,0.649 -0.315,0.198 -0.654,0.317 -1.01,0.349 -0.358,0.027 -0.717,-0.03 -1.087,-0.174 -0.827,-0.335 -1.33,-0.922 -1.503,-1.765 -0.135,-0.629 0.01,-1.475 0.435,-2.532 0.526,-1.315 1.087,-2.135 1.681,-2.461 0.593,-0.328 1.251,-0.348 1.973,-0.057 0.7,0.28 1.151,0.691 1.349,1.226 0.203,0.538 0.233,1.215 0.094,2.028" /><path

       id="path3973"
       style="fill:#231f20;fill-opacity:1;fill-rule:nonzero;stroke:none"
       d="m 2032.3833,-192.6899 3.593,1.645 5.307,-11.607 -3.596,-1.645 -5.304,11.607 z" /><path

       id="path3977"
       style="fill:#231f20;fill-opacity:1;fill-rule:nonzero;stroke:none"
       d="m 2048.0952,-193.976 -3.236,3.545 0.702,-4.741 2.534,1.196 z m 1.921,-2.144 -4.049,-1.914 0.339,-2.169 -3.641,-1.723 -1.121,13.587 3.887,1.837 9.793,-9.484 -3.732,-1.766 -1.476,1.632 z" /><path

       id="path3981"
       style="fill:#231f20;fill-opacity:1;fill-rule:nonzero;stroke:none"
       d="m 2051.4932,-183.7425 3.641,1.513 3.691,-8.882 5.683,2.361 1.205,-2.903 -9.326,-3.874 -4.894,11.785 z" /><path

       id="path3985"
       style="fill:#231f20;fill-opacity:1;fill-rule:nonzero;stroke:none"
       d="m 2068.9248,-176.8558 3.741,1.253 3.049,-9.125 5.838,1.952 0.996,-2.98 -9.577,-3.202 -4.047,12.102 z" /><path

       id="path3989"
       style="fill:#231f20;fill-opacity:1;fill-rule:nonzero;stroke:none"
       d="m 2080.8765,-172.9817 3.793,1.103 3.564,-12.254 -3.796,-1.103 -3.561,12.254 z" />
	   <path
       style="fill:#231f20;fill-opacity:1;fill-rule:nonzero;stroke:none"
       d="m 2094.165,-179.7238 1.953,0.474 c 0.66,0.157 1.1,0.387 1.314,0.686 0.212,0.301 0.274,0.647 0.178,1.043 -0.089,0.365 -0.294,0.629 -0.617,0.786 -0.319,0.158 -0.818,0.158 -1.488,-0.006 l -1.948,-0.467 0.608,-2.516 z m -1.178,4.876 1.668,0.399 c 0.599,0.146 0.989,0.351 1.171,0.613 0.187,0.262 0.233,0.588 0.139,0.977 -0.089,0.36 -0.273,0.616 -0.556,0.761 -0.285,0.146 -0.718,0.148 -1.296,0.012 l -1.694,-0.41 0.568,-2.352 z m -5.04,3.931 7.175,1.734 c 1.194,0.287 2.185,0.214 2.969,-0.226 0.782,-0.437 1.281,-1.094 1.492,-1.969 0.176,-0.733 0.098,-1.415 -0.232,-2.05 -0.219,-0.424 -0.597,-0.807 -1.137,-1.153 0.943,0 1.691,-0.21 2.235,-0.631 0.547,-0.417 0.916,-1.024 1.105,-1.812 0.157,-0.645 0.149,-1.258 -0.029,-1.843 -0.176,-0.588 -0.484,-1.094 -0.932,-1.516 -0.276,-0.264 -0.729,-0.519 -1.356,-0.758 -0.839,-0.322 -1.397,-0.518 -1.679,-0.584 l -6.617,-1.597 -2.994,12.405 z" />
	   <path
       style="fill:#231f20;fill-opacity:1;fill-rule:nonzero;stroke:none"
       d="m 2102.2314,-167.5899 10.406,1.834 0.474,-2.686 -6.517,-1.146 0.353,-1.999 6.043,1.064 0.451,-2.563 -6.043,-1.064 0.436,-2.477 6.703,1.18 0.502,-2.846 -10.596,-1.866 -2.212,12.569 z" />
	   <path
       style="fill:#231f20;fill-opacity:1;fill-rule:nonzero;stroke:none"
       d="m 2120.3105,-170.0155 1.654,0.175 c 0.18,0.021 0.52,0.117 1.021,0.288 0.253,0.077 0.451,0.234 0.595,0.464 0.139,0.231 0.196,0.486 0.166,0.764 -0.045,0.41 -0.21,0.708 -0.49,0.902 -0.285,0.191 -0.784,0.248 -1.497,0.171 l -1.725,-0.185 0.276,-2.579 z m -3.128,-7.97 -1.361,12.689 6.535,0.699 c 1.212,0.133 2.151,0.128 2.814,-0.011 0.661,-0.141 1.219,-0.469 1.67,-0.991 0.454,-0.52 0.725,-1.185 0.809,-1.994 0.078,-0.704 -0.01,-1.326 -0.255,-1.868 -0.244,-0.543 -0.611,-1.001 -1.105,-1.374 -0.312,-0.24 -0.752,-0.456 -1.322,-0.652 0.483,-0.102 0.841,-0.223 1.071,-0.358 0.155,-0.089 0.388,-0.289 0.697,-0.599 0.313,-0.312 0.522,-0.556 0.636,-0.731 l 2.29,-3.473 -4.429,-0.474 -2.509,3.653 c -0.321,0.471 -0.593,0.774 -0.818,0.904 -0.303,0.164 -0.634,0.226 -0.991,0.189 l -0.347,-0.036 0.552,-5.152 -3.937,-0.421 z" />
	   <path
       style="fill:#231f20;fill-opacity:1;fill-rule:nonzero;stroke:none"
       d="m 2137.814,-171.5353 -1.543,4.543 -1.258,-4.623 2.801,0.08 z m 0.9,-2.734 -4.475,-0.13 -0.561,-2.124 -4.026,-0.116 4.423,12.897 4.299,0.125 5.166,-12.619 -4.129,-0.12 -0.697,2.087 z" />
	   <path
       style="fill:#231f20;fill-opacity:1;fill-rule:nonzero;stroke:none"
       d="m 2145.5217,-163.5936 3.937,-0.221 -0.542,-9.604 6.148,-0.344 -0.18,-3.14 -10.081,0.567 0.718,12.742 z" />
</g>
</svg>