<?xml version="1.0" encoding="UTF-8" standalone="no"?>
<!-- Created with Inkscape (http://www.inkscape.org/) -->

<svg
   width="131.3652"
   height="42.479851"
   viewBox="0 0 34.757043 11.23946"
   version="1.1"
   id="svg2076"
   xml:space="preserve"
   sodipodi:docname="Logo_USR_2022_(2).svg"
   inkscape:version="1.1.2 (b8e25be833, 2022-02-05)"
   xmlns:inkscape="http://www.inkscape.org/namespaces/inkscape"
   xmlns:sodipodi="http://sodipodi.sourceforge.net/DTD/sodipodi-0.dtd"
   xmlns="http://www.w3.org/2000/svg"
   xmlns:svg="http://www.w3.org/2000/svg"><sodipodi:namedview
     id="namedview9"
     pagecolor="#505050"
     bordercolor="#eeeeee"
     borderopacity="1"
     inkscape:pageshadow="0"
     inkscape:pageopacity="0"
     inkscape:pagecheckerboard="0"
     showgrid="false"
     fit-margin-top="0"
     fit-margin-left="0"
     fit-margin-right="0"
     fit-margin-bottom="0"
     inkscape:zoom="4.1085714"
     inkscape:cx="58.657858"
     inkscape:cy="22.148818"
     inkscape:window-width="1920"
     inkscape:window-height="1017"
     inkscape:window-x="-8"
     inkscape:window-y="-8"
     inkscape:window-maximized="1"
     inkscape:current-layer="svg2076" /><defs
     id="defs2073" /><g
     id="g5350"
     transform="translate(-7.5675374,-17.253729)"><path
       style="fill:#002a5a;fill-opacity:1;stroke-width:0.0282184"
       d="m 21.096633,28.467263 c -0.499154,-0.02559 -0.991059,-0.07331 -1.479821,-0.143513 -0.388208,-0.05574 -1.061799,-0.184459 -1.104916,-0.21111 -0.0131,-0.0081 -0.02385,-0.579045 -0.02385,-1.268776 0,-1.070505 0.0062,-1.254056 0.04048,-1.254056 0.02225,0 0.127027,0.01803 0.232804,0.04014 0.576236,0.120176 1.27281,0.189604 2.421575,0.241359 0.356968,0.01609 0.763312,0.03487 0.90299,0.04181 0.400416,0.01983 1.443411,-0.03564 1.793722,-0.09541 0.540033,-0.09213 0.760164,-0.251315 0.759941,-0.54951 C 24.639185,24.758046 23.86686,24.372661 22.02946,23.965755 21.119877,23.764317 20.420559,23.494345 19.867207,23.130993 19.518788,22.90221 19.110733,22.48989 18.928825,22.1828 18.43353,21.346686 18.379244,20.086514 18.799842,19.188653 c 0.350173,-0.747516 1.011326,-1.27959 1.987931,-1.599825 0.77018,-0.25255 1.384577,-0.334525 2.511516,-0.335094 0.862648,-4.22e-4 1.334439,0.02836 2.088168,0.127311 0.404001,0.05304 1.376001,0.234988 1.42838,0.267358 0.01373,0.0085 0.02489,0.579925 0.02489,1.277685 v 1.262314 l -0.317464,-0.06413 c -0.682054,-0.137849 -1.977384,-0.256472 -3.06875,-0.281029 -1.440735,-0.03244 -2.121439,0.08074 -2.296193,0.38167 -0.07776,0.13391 -0.07444,0.37825 0.0074,0.547395 0.08949,0.184855 0.242386,0.309746 0.574039,0.468873 0.350978,0.168396 0.728633,0.289411 1.554209,0.498053 1.460681,0.369128 1.93492,0.521058 2.38976,0.765585 0.704505,0.378744 1.159373,0.890158 1.381534,1.553272 0.313269,0.935048 0.179843,2.037972 -0.339336,2.804958 -0.165027,0.243791 -0.501964,0.571376 -0.774889,0.753375 -1.04183,0.694764 -2.594096,0.966842 -4.854453,0.850895 z m -9.33866,-0.03044 C 9.6162282,28.211637 8.0615005,26.857197 7.6788399,24.883167 7.5790531,24.368398 7.5676761,23.929164 7.5676069,20.58807 l -6.95e-5,-3.266286 h 1.3534345 1.3534411 l 0.0086,3.477924 0.0086,3.234333 c 0.0095,0.300905 0.06337,0.469336 0.06337,0.469336 0.279976,0.997501 1.027014,1.499278 2.150627,1.444549 0.618016,-0.0301 1.028956,-0.194125 1.384029,-0.552415 0.332911,-0.335919 0.486344,-0.711827 0.536934,-1.315407 0.01303,-0.155204 0.0242,-1.739319 0.02489,-3.520259 l 0.0014,-3.238061 h 1.341289 1.341287 l -0.0091,3.647235 -0.0091,3.319636 c 0.0034,0.148602 -0.06371,0.606791 -0.06371,0.606791 -0.330781,1.449887 -1.070158,2.42541 -2.308644,3.046005 -0.819987,0.410884 -1.972427,0.602027 -2.986754,0.495377 z M 28.759588,22.85146 v -5.531945 l 2.871229,0.0096 c 2.842887,0.0094 2.873927,0.01027 3.144916,0.07196 0.755568,0.17207 1.355433,0.485929 1.890723,0.98925 0.598145,0.562421 0.994866,1.341407 1.093717,2.147577 0.184328,1.503278 -0.619907,2.96025 -2.023572,3.66594 -0.097,0.04874 -0.176362,0.09437 -0.176362,0.101334 0,0.0069 0.499225,0.676613 1.109385,1.488114 1.205173,1.60283 1.909982,2.553346 1.909982,2.575809 0,0.0078 -0.739675,0.01386 -1.643719,0.01344 l -1.643726,-6.94e-4 -0.199879,-0.274284 c -1.396912,-1.916956 -3.602815,-4.886234 -3.630776,-4.887246 -0.01166,-4.21e-4 -0.02114,1.161135 -0.02114,2.58123 v 2.581984 h -1.340371 -1.34038 z m 5.502597,-0.367171 c 0.470732,-0.07506 0.809873,-0.353812 0.962386,-0.790994 0.09004,-0.258088 0.09044,-0.751953 6.92e-4,-1.00869 -0.110311,-0.316056 -0.291345,-0.532997 -0.554058,-0.66394 -0.284441,-0.141766 -0.326475,-0.145122 -1.820095,-0.145122 h -1.396807 l -0.0073,1.283938 c -0.0041,0.706169 -0.0014,1.299814 0.0062,1.319214 0.0174,0.04534 2.52831,0.05033 2.808923,0.0055 z"
       id="path2239" /><circle
       style="opacity:1;fill:#ff0020;fill-opacity:1;stroke:none;stroke-width:0.0702959;stroke-dasharray:0.0702959, 0.0702959;stroke-opacity:0.5;paint-order:stroke fill markers"
       id="circle3759"
       cx="40.765316"
       cy="26.910959"
       r="1.5592645" /></g></svg>
