<?xml version="1.0" encoding="UTF-8"?>
<svg width="460" height="500" version="1.1" viewBox="0 0 460 500" xmlns="http://www.w3.org/2000/svg">
 <g transform="translate(-33.201 -30.426)">
  <path d="m33.555 30.42v0.0078h326.64l132.65 84.699v-84.707z" fill="#009640"/>
  <path d="m33.555 30.428v63.4c49.999-18.397 104-28.508 160.36-28.508 113.87 0 218.14 40.983 298.94 108.97v-59.168l-132.65-84.699z" fill="#ffd500"/>
  <path d="m492.85 174.3c-80.795-67.992-185.07-108.97-298.94-108.97-56.358 0-110.36 10.111-160.36 28.508v436.59h459.29l6e-3 -249.17z" fill="#004f9f"/>
  <path d="m358.13 311.86 16.87-164.18h-64.435l-22.979 224.41h136.13l6.1945-60.232zm-185.29-61.454h24.155c18.445 0 25.12-5.0439 27.845-19.282 4.1285-21.586-8.3816-31.607-24.172-31.607h-22.427zm-76.347 121.69 22.983-224.41h92.54c48.01 0 85.95 36.373 77.497 93.559-5.4465 36.843-31.674 61.315-80.628 61.315h-41.377l-7.2133 69.536zm318.66 54.974 2.9566-28.572h8.2463l-2.2726 21.889h9.176l-0.68393 6.6825zm-18.14-11.025h5.1758l-1.6564-8.7735zm7.2346 11.025-0.91546-4.9086h-8.7735l-1.952 4.9086h-8.4921l12.617-28.572h9.0584l6.7466 28.572zm-35.449-15.491h3.758c1.9022 0 3.1133-0.7231 3.3021-2.4578l0.0214-0.35977c0.27072-2.4116-1.1328-3.6618-3.1525-3.6618h-3.2344zm-9.7816 15.492 2.9566-28.572h12.207c6.1446 0 10.804 4.5916 10.002 11.31l-0.0891 0.60199c-0.39183 3.1382-2.1515 5.6744-5.3574 6.9212l4.0929 9.7388h-8.5312l-3.3163-8.8518h-2.8711l-0.92615 8.8518zm-24.61 3.6e-4 2.9566-28.572h20.735l-0.6483 6.5614h-12.492l-0.44882 4.303h11.238l-0.65899 6.4011h-11.235l-0.51651 4.6236h12.898l-0.68392 6.6825zm-16.61-16.982h3.6761c1.4177 0 2.3546-0.56281 2.4864-1.8487l0.0641-0.32415c0.1781-1.9307-0.8834-2.8176-2.4614-2.8176h-3.2308zm-1.0864 10.384h4.4063c1.4961 0 2.5148-0.60556 2.6395-1.9734l0.0178-0.40252c0.17454-1.9698-0.8834-2.896-2.5433-2.896h-3.9611zm-8.7735 6.597 2.953-28.568h12.898c5.1722 0 9.208 3.5407 8.4992 9.0121l-0.0606 0.36333c-0.27784 2.294-1.838 4.0644-4.1 4.8267 2.5006 1.3287 4.1819 3.986 3.8079 7.5267l-0.0463 0.60199c-0.37402 3.4624-3.1311 6.2372-8.5882 6.2372zm-12.488 1e-3 2.953-28.572h8.2071l-2.953 28.572zm-21.096 0 2.9566-28.572h8.2463l-2.2726 21.889h9.176l-0.68393 6.6825zm-18.002-12.233 0.28854-2.8568c0.37758-4.8694-1.4213-7.4056-5.0974-7.4056-3.0349 0-4.6984 2.0553-5.0404 6.1589l-0.24578 2.8568c-0.38115 4.8694 1.4177 7.4056 5.0974 7.4056 3.0314 0 4.6984-2.0553 4.9976-6.1589m-18.427-2.0518 0.2066-2.1337c0.58062-7.8046 5.4465-12.674 13.208-12.674 9.3755 0 14.259 6.3975 13.629 14.808l-0.20304 2.1301c-0.62337 7.8081-5.4073 12.678-13.169 12.678-9.379 0-14.298-6.3976-13.671-14.808m-20.631 7.6853h3.5586c3.8791 0 5.2862-2.3759 5.5141-5.5533l0.26004-2.6146c0.34908-4.6699-1.2467-7.2026-4.7625-7.2026h-2.9494zm-8.8554 6.6006 2.9566-28.572h11.762c7.9221 0 12.588 6.1589 11.862 15.011l-0.12467 1.3643c-0.61268 7.9684-5.4322 12.197-12.628 12.197zm-12.485-1e-3 2.953-28.572h8.2071l-2.953 28.572zm-18.59 0 2.2691-21.932h-6.7502l0.68392-6.6398h21.707l-0.7231 6.6398h-6.6718l-2.2691 21.932zm-21.986-15.492h3.758c1.9022 0 3.1133-0.7231 3.3021-2.4578l0.0178-0.35977c0.27428-2.4116-1.1292-3.6618-3.1489-3.6618h-3.2344zm-9.7816 15.492 2.9566-28.572h12.207c6.1446 0 10.804 4.5916 10.002 11.31l-0.0891 0.60199c-0.39184 3.1382-2.1515 5.6744-5.3574 6.9212l4.0929 9.7388h-8.5312l-3.3163-8.8518h-2.8711l-0.92614 8.8518zm-18.14-11.025h5.1757l-1.6564-8.7735zm7.2346 11.025-0.91546-4.9086h-8.7735l-1.952 4.9086h-8.4921l12.617-28.572h9.0584l6.7466 28.572zm-31.772-15.491h3.3947c1.8594 0 3.1133-0.7231 3.2593-2.4578l0.0641-0.35977c0.27072-2.4116-1.1328-3.6618-3.1525-3.6618h-2.8711zm-9.7816 15.492 2.9566-28.572h11.844c6.1446 0 10.804 4.5916 9.9632 11.31l-0.0499 0.60199c-0.59488 4.588-4.0572 7.8081-10.323 7.8081h-5.2969l-0.92615 8.8518z" fill="#fff"/>
 </g>
</svg>
