<svg xmlns="http://www.w3.org/2000/svg" width="512" height="328"><path d="M0 0h512v328H0z" fill="#2c368d"/><g fill="#fdf001"><path d="M302 281.4c-27 0-52.1-12.3-70.9-32.7-18.6-20.2-28.8-47.2-28.8-75.8s10.2-55.4 28.8-75.4C249.8 77.3 275 65.2 302 65.2s52.4 12.1 71.3 32.2c18.9 20 29.3 46.8 29.3 75.4.1 59.4-45.1 108.6-100.6 108.6zm0-200.2c-47.5 0-84.7 40.2-84.7 91.6 0 51.1 38 92.6 84.7 92.6 47.2 0 85.7-41.5 85.7-92.6 0-50.5-38.5-91.6-85.7-91.6z"/><path d="M209 281.4c-27 0-52.1-12.3-70.9-32.7-18.6-20.2-28.8-47.2-28.8-75.8s10.2-55.4 28.8-75.4C156.9 77.3 182 65.2 209 65.2s52.4 12.1 71.3 32.2c18.9 20 29.3 46.8 29.3 75.4.1 59.4-45 108.6-100.6 108.6zm0-200.2c-47.5 0-84.7 40.2-84.7 91.6 0 51.1 38 92.6 84.7 92.6 47.2 0 85.7-41.5 85.7-92.6 0-50.5-38.4-91.6-85.7-91.6z"/></g></svg>