<?xml version="1.0" encoding="UTF-8" standalone="no"?>
<svg xmlns:rdf="http://www.w3.org/1999/02/22-rdf-syntax-ns#" xmlns="http://www.w3.org/2000/svg" height="172" width="304" version="1.1" xmlns:cc="http://creativecommons.org/ns#" xmlns:dc="http://purl.org/dc/elements/1.1/">
 <g transform="translate(-155.5 -564.8)">
  <g transform="translate(-1.444 -12.86)">
   <path d="m287.8 702.1c0.6697-2.273 20.06-54.38 32.53-87.42l9.778-25.9 37.73 0.3045c45.08 0.3638 45.64 0.4577 54.12 8.982 4.537 4.564 6.047 6.959 7.818 12.4 5.473 16.81 0.7314 35.01-12.65 48.54-7.025 7.106-13.03 10.51-24.01 13.6-5.484 1.545-10.28 1.826-31.31 1.834l-24.83 0.009-1.772 3.985c-0.9744 2.192-3.455 8.804-5.513 14.69l-3.742 10.71h-19.33c-17.94 0-19.3-0.1253-18.82-1.743zm94.36-56.26c6.411-3.103 7.777-4.172 10.75-8.414 4.967-7.078 3.335-16.3-3.718-21.01-3.214-2.147-4.258-2.271-16.94-2.012l-13.51 0.276-6.132 16.44c-3.372 9.04-5.894 16.82-5.604 17.29 0.29 0.4693 7.084 0.6808 15.1 0.4701 13.31-0.35 15.04-0.6118 20.05-3.035zm-165.4 31.02c-10.89-1.932-19.35-7.845-23.36-16.32-6.413-13.56-0.3738-29.21 13.66-35.41 11.15-4.926 32.57-6.941 53.97-5.077 10.71 0.9323 13.13 0.8913 14.27-0.2411 2.333-2.333-0.9814-4.388-8.482-5.258-9.914-1.15-39.62-0.8768-47.02 0.4327-3.529 0.6242-6.621 0.9306-6.871 0.6809-0.2497-0.2497 1.775-6.403 4.499-13.67l4.953-13.35h43.26c24.28 0 35.17-0.0868 40.68 0.2156 3.472 0.1903 4.819 0.5348 6.044 1.152 4.396 2.216 7.99 7.545 7.99 11.85 0 1.832-4.881 16.45-10.85 32.48-5.965 16.03-11.67 31.5-12.69 34.38l-1.841 4.626h-38.62l0.1549-3.089c-1.479 0.2654-6.403 3.065-9.453 3.998-10.02 3.066-21.93 4.09-30.3 2.605zm35.84-27.72c5.08-1.93 14.96-8.581 14.96-10.07 0-1.429-10.71-2.268-22.38-1.753-14.73 0.6498-19.61 3.062-18.13 8.958 1.418 5.651 14.39 7.107 25.55 2.867z" stroke="#000" stroke-width=".8948" fill="#e20e1c"/>
   <g transform="translate(164.4 551.1)">
    <path d="m23.68 182.9-1.463-5.614h-9.08l-4.045 5.614h-6.554l15.96-19.83h8.341l4.507 19.83zm-2.311-9.387-1.224-6.07h-0.5686l-3.939 6.07z"/>
    <path d="m38.66 182.8h-6.624l4.589-19.6 6.556-0.117z"/>
    <path d="m85.43 182.9 2.301-9.616c0.519-3.016-6.178-1.686-6.776 0.8082l-1.836 8.808h-6.735l3.184-14.12h6.597l-0.3179 0.9482c7.156-1.95 13.75-0.5498 12.34 4.142l-2.052 9.025z"/>
    <path d="m99.69 168.8 14.65 0.0146c1.334-0.009 1.133-0.0134 2.721-0.0161l-0.0782 2.678-10.62 8.689c0.3989 0.006 0.7135 0.009 0.9438 0.006 4.472 0.4698 5.446-0.5932 6.813-1.625l1.496 0.6254c-0.6924 2.161-1.453 3.079-3.742 3.633l-16.81 0.00002 0.6382-2.824 10.48-8.55h0.3962c-1.486 0.00001-2.334 0.0211-3.673 0.0632-1.339 0.0422-2.638 0.0775-3.896 0.1063z"/>
    <path d="m242.2 182.9h-6.674l4.738-19.83h6.456z"/>
    <path d="m53.71 172.8 0.3717-3.95 15.94 0.0714c2.196 0.206 2.333 1.799 2.28 2.612l-2.67 11.43h-6.497l0.4219-1.724s-2.31 0.7949-2.6 0.9573c-2.517 0.9467-6.771 1.294-8.894-0.4993-4.981-4.243 1.505-8.646 8.777-8.882 1.978-0.0952 3.556 0.0784 4.66 0.0498l0.376-1.614c-3.693 0.0235-8.874 0.5641-12.17 1.546zm11.01 3.29c-3.7-0.4339-6.867 1.494-6.363 2.256 1.02 1.542 6.931 0.8091 6.363-2.256z"/>
    <path d="m48.54 163.1c-1.764 0-3.219 0.8895-3.219 1.969 0 1.079 1.455 1.938 3.219 1.938s3.188-0.8583 3.188-1.938c0-1.079-1.424-1.969-3.188-1.969zm2.376 5.576-6.562 0.0937-3.188 14.01h6.625l3.125-14.1z"/>
    <path d="m151 182.8h-6.519l4.428-19.79 12.81 0.0747c14.02-0.00088 9.473 13.11-0.7635 14.18-0.9112 0.0939-2.618 0.1407-5.12 0.1407h-3.715zm2.297-9.266h1.79l4.658-0.0488c2.795-0.7316 4.699-4.484 1.862-5.743-0.5454-0.1454-0.35-0.1141-2.236-0.1435l-4.793-0.0747z"/>
    <path d="m181.1 168.8c-5.099-0.0219-9.955 2.223-11.41 5.532-1.668 3.782 1.728 7.514 7.566 8.314 5.838 0.8004 11.92-1.614 13.59-5.396 1.668-3.782-1.728-7.514-7.566-8.314-0.7298-0.1-1.443-0.1326-2.171-0.1357zm-0.8552 3.292c3.859-0.7949 5.494 1.592 4.349 4.902-0.736 2.127-3.54 3.41-6.096 2.745-2.184-0.5676-3.672-1.828-2.896-4.272 0.6791-2.139 2.684-3.311 4.643-3.375z"/>
    <path d="m222.2 168.9-1.915 7.776c-1.866 4.042 5.228 4.189 6.831-0.0173l1.63-7.808h6.587l-3.382 14.12h-6.501l0.3781-1.6c-0.2717-0.0677-0.9648 0.3984-1.719 0.7441-6.031 1.654-11.59 0.9889-10.61-4.661l2.26-8.598z"/>
    <path d="m286.5 172.4c-1.559-0.199-4.222-0.3156-6.86-0.1377-0.383 0.1178-1.446 1.015-1.568 1.066l-2.64 9.528h-6.29l3.647-14.11 6.593 0.1085c0.1657 1.136-0.0888 0.348 0.8609 0.0994 0.7451-0.1951 3.399-0.1202 6.11-0.1698z"/>
    <path d="m194.4 168.8-4.146 19.71 6.573-0.2261 1.137-5.622c2.916 0.005 4.97 0.0898 8.122-0.9101 7.899-2.505 7.544-10.8 2.692-12.22-2.903-0.8475-4.869-0.3149-7.655-0.1106l0.1058-0.5948zm8.994 3.688c5.679-0.3728 3.907 8.228-4.613 7.284l1.073-5.392c1.749-1.24 2.458-1.821 3.54-1.892z"/>
    <path d="m120.2 172.8 0.3717-3.95 15.94 0.0714c2.196 0.206 2.333 1.799 2.28 2.612l-2.67 11.43h-6.497l0.4219-1.724s-2.31 0.7949-2.6 0.9573c-2.517 0.9467-6.771 1.294-8.894-0.4993-4.981-4.243 1.505-8.646 8.777-8.882 1.978-0.0952 3.556 0.0784 4.66 0.0498l0.376-1.614c-3.693 0.0235-8.874 0.5641-12.17 1.546zm11.01 3.29c-3.7-0.4339-6.867 1.494-6.363 2.256 1.02 1.542 6.931 0.8091 6.363-2.256z"/>
    <path d="m249.7 172.8 0.3717-3.95 15.94 0.0714c2.196 0.206 2.333 1.799 2.28 2.612l-2.67 11.43h-6.497l0.4219-1.724s-2.31 0.7949-2.6 0.9573c-2.517 0.9467-6.771 1.294-8.894-0.4993-4.981-4.243 1.505-8.646 8.777-8.882 1.978-0.0952 3.556 0.0784 4.66 0.0498l0.376-1.614c-3.693 0.0235-8.874 0.5641-12.17 1.546zm11.01 3.29c-3.7-0.4339-6.867 1.494-6.363 2.256 1.02 1.542 6.931 0.8091 6.363-2.256z"/>
   </g>
  </g>
 </g>
</svg>
