<svg xmlns="http://www.w3.org/2000/svg" version="1.0" viewBox="0 0 3499.7302 3503.2733">
  <g fill="#ff6a00" transform="matrix(.99963 0 0 1.00246 .87885 -1.01471)">
    <path d="M1270 1935.0538c71.1917-394.1874 0 0 72-395.0538h39c28 0 42 6 53 22 41 58-9 309-72 358-28 22-92 15.0538-92 15.0538z"/>
    <ellipse cx="1749.7764" cy="1749.9918" fill-rule="evenodd" rx="1750.6555" ry="1745.7142"/>
  </g>
  <g fill="#fffdfc">
    <path d="M2205.93486 2114.07117c-43-13-57.6875-17.3125-57.6875-17.3125l36.6875-175.125c59.7499 24.2748 136.4199 50.3404 202 35.4375 31-8 50-40 42-72-4-16-24-33-64-53-97-49-132-100-132-191 0-106 64-206 157-246 105.8546-24.2531 220.5097-38.7023 315.5093 16.7926l-32.0827 160.6515c-42.3799-16.6515-87.8285-31.0418-133.4266-31.4441-61 0-87 19-87 64 0 21 9 32 45 54 99 58 111 69 133 112 20 38 23 55 18 105-12 122-79 207-189 240-64 19-186 18-254-2zM233.67035 2120.66147l139.94082-739.3893 451.32369-.201-34 170h-118c-65.28433 0-122.38905-.6902-122.38905-.6902-17.4985 110.0917 0 0-18.61095 110.6902l220.77756 2.1178-31.7355 167.701H498.0604l-57.12555 290.1812zM894.93486 1381.07117l209.893.2151-142.893 739.7849c-209.96955.5308 0 0-211 0 144.97653-741.2859 0 0 144-740zM1032.60966 2123.97207l141.6396-740.6027c.5914-.3731 71.2622-.5132 166.3731 1.7062 146 3 172.3125 1.7859 207.3125 20.7859 83 43 110 99.2097 109 220.2097-1 160-57.6682 318.3371-141 403-71.4295 72.5705-111.0131 91.9869-314.6875 95.3125-93 .4532-164.6602-.4003-168.6377-.4116zm332.3252-193.7848c67.5382-42.5275 113-299.1161 72-357.1161-11-16-25-22-53-22h-39l-71.165 395.1551c5.7092-.2532 42.511 14.5975 91.165-16.039zM1624.51226 2121.12267l147.634-740.8177 441.2716-.5197-30.3986 171.736-237.501-.3153-21.9794 118.9915 224.4939.4401-34.9303 160.3311-217.715.8093-24.4526 119.2932 240.5462.3277-31.0134 170.2031c-455.4226.052 0 0-455.9554-.4788zM2679.63136 1949.62557l305.2039-398.1825-230.9004-1.3719 34.424-166.9923 477.701-.079c-37.0179 169.115 0 .0002-37.0179 169.115l-296.549 397.9336 228.9516.7758-32.3696 170.7781-478.0932.1249z"/>
  </g>
</svg>
