<?xml version="1.0" standalone="no"?>
<!DOCTYPE svg PUBLIC "-//W3C//DTD SVG 20010904//EN"
 "http://www.w3.org/TR/2001/REC-SVG-20010904/DTD/svg10.dtd">
<svg version="1.0" xmlns="http://www.w3.org/2000/svg"
 width="610.000000pt" height="610.000000pt" viewBox="0 0 610.000000 610.000000"
 preserveAspectRatio="xMidYMid meet">
<metadata>
Created by potrace 1.14, written by Peter Selinger 2001-2017
</metadata>
<g transform="translate(0.000000,610.000000) scale(0.100000,-0.100000)"
fill="#FFFFFF" stroke="none">
<path d="M680 2935 l0 -2375 2390 0 2390 0 0 2375 0 2375 -2390 0 -2390 0 0
-2375z"/>
</g>
<g transform="translate(0.000000,610.000000) scale(0.100000,-0.100000)"
fill="#00BCFF" stroke="none">
<path d="M0 3803 c0 -1422 4 -2333 10 -2391 50 -472 294 -880 685 -1143 216
-147 449 -231 717 -259 58 -6 969 -10 2391 -10 l2297 0 -2 2338 -3 2337 -23
110 c-130 612 -562 1087 -1138 1250 -226 63 -25 59 -2596 62 l-2338 3 0 -2297z
m4210 1209 c300 -70 530 -220 710 -462 59 -81 180 -308 180 -340 0 -11 -95
-58 -307 -154 -170 -76 -315 -141 -324 -143 -10 -3 -21 9 -35 39 -54 121 -159
245 -254 301 -192 112 -470 91 -603 -47 -73 -75 -92 -124 -92 -241 0 -115 16
-159 87 -239 91 -104 202 -172 553 -338 404 -191 558 -284 711 -430 145 -139
223 -265 281 -453 26 -86 27 -100 27 -295 0 -189 -2 -212 -26 -301 -58 -216
-143 -366 -287 -510 -53 -52 -125 -114 -161 -138 -241 -157 -541 -232 -870
-218 -292 13 -529 91 -743 245 -158 114 -326 321 -416 513 -68 145 -100 110
274 293 179 88 326 157 328 155 1 -2 13 -26 26 -54 66 -143 203 -292 328 -358
131 -68 290 -92 432 -63 226 46 339 182 329 399 -4 104 -38 178 -118 259 -87
87 -202 155 -558 333 -180 90 -358 184 -397 208 l-69 46 -81 -77 c-127 -123
-265 -206 -433 -262 -174 -58 -211 -62 -564 -67 l-328 -5 0 -699 0 -699 -375
0 -375 0 0 1876 0 1875 708 -4 c679 -3 711 -4 797 -25 160 -38 299 -92 401
-157 36 -24 62 -34 69 -29 120 91 164 120 240 158 105 51 219 89 336 110 129
24 142 24 334 21 134 -3 202 -9 265 -23z"/>
<path d="M1810 3790 l0 -522 243 4 c216 4 248 7 300 26 97 36 156 73 217 138
94 101 135 211 134 364 -1 199 -99 363 -269 448 -97 48 -139 55 -387 60 l-238
4 0 -522z"/>
</g>
</svg>
