<?xml version="1.0" encoding="UTF-8"?>
<svg class="nicermediapages-SVG" width="772.71pt" height="937.71pt" version="1.0" viewBox="0 0 772.71 937.71" xmlns="http://www.w3.org/2000/svg" xmlns:cc="http://creativecommons.org/ns#" xmlns:dc="http://purl.org/dc/elements/1.1/" xmlns:rdf="http://www.w3.org/1999/02/22-rdf-syntax-ns#">
 <metadata>
  <rdf:RDF>
   <cc:Work rdf:about="">
    <dc:format>image/svg+xml</dc:format>
    <dc:type rdf:resource="http://purl.org/dc/dcmitype/StillImage"/>
    <dc:title/>
   </cc:Work>
  </rdf:RDF>
 </metadata>
 <g transform="translate(-6.649 -5.6426)">
  <path d="m393.53 131.47c28.776-8e-3 57.571 4.1928 84.75 13.75 35.167 12.033 66.989 33.251 92.2 60.5 23.871 25.669 42.12 56.237 55.425 88.575 17.021 41.571 26.299 85.987 30.15 130.65 4.0396 49.216 2.359 99.043-6.475 147.68-7.7538 41.999-21.12 83.271-42.425 120.42-18.171 31.814-42.508 60.414-72.475 81.675-31.582 22.58-69.141 36.276-107.62 40.775-42.618 4.9596-86.746 1.0657-126.92-14.475-34.505-13.305-65.417-35.469-89.625-63.375-26.691-30.401-45.75-66.905-58.7-105.08-14.2-42.038-21.229-86.253-23.3-130.5-1.2794-28.628-0.67416-57.361 2.25-85.875 4.2512-41.519 13.296-82.76 29.15-121.45 14.671-35.875 35.45-69.623 63.225-96.85 24.344-24.043 54.172-42.556 86.65-53.375 17.793-6.0836 36.327-9.8152 55.025-11.675 9.5248-0.89528 19.133-1.3724 28.725-1.375z" fill="#fff"/>
  <path d="m300.41 689.66-2.0379-505.25c113.02 16.448 138.85 164.6 276.13 141.06l9.4945 392.52c-137.19 70.59-196.78-25.42-283.58-28.33z" fill="#dc3319"/>
  <path id="fahnenmast_unten" d="m302.37 763.18-8.5476 0.381-0.0157-586.16 4.0339-17.101 4.5239 16.369z" fill="#004582"/>
 </g>
 <g transform="matrix(1.0869 0 0 1.1243 -82 -765.52)">
  <path d="m420.4 977.53-117.67 19.792-25.827 29.551-106.21 0.8334c-7.423 52.439-15.63 105.59-2.746 158.99l74.463-1.4047 11.752 0.1389-12.585 19.711c-1.252 7.0968 1.4009 9.4682 3.1505 12.933l30.878 14.992c14.883 8.3388 33.742 8.4899 51.777 10.336 2.2067 4.6161 4.2276 9.2234 8.3675 13.93l25.618-1.0485c5.094 11.214 12.29 15.436 18.466 23.054l52.538-5.7957 4.8557-7.2913c6.396 2.5767 14.315 1.6784 20.877 0.7342l-1.5771 0.023c14.57-0.162 23.132-9.6334 33.357-16.527 12.471 2.9662 11.884-1.2194 25.562-17.246l4.7982-5.1829c2.9661 0.8919 50.839-9.6359 50.839-9.6359l27.853-32.528 93.1-0.5763c11.922-46.281 7.16-95.522-2.4914-150.82l-94.79 0.7962-34.807-29.29c-33.835-4.4499-66.912-8.64-106.31-19.519l-12.06 8.8067-5.8441 2.3927-15.675-19.854" fill="#fdf551"/>
  <g transform="matrix(.99889 .047082 -.047082 .99889 -609.17 587.99)" fill="none" stroke="#004582" stroke-linecap="round" stroke-linejoin="round">
   <path d="m1158.3 586.18c3.0048 0.75117 50.329-12.019 50.329-12.019l26.291-33.803 92.97-4.959c9.7295-46.791 2.6547-95.753-9.5894-150.53l-94.648 5.2582-36.148-27.619c-34.007-2.8519-67.244-5.4801-107.11-14.492l-18.02 12.944m14.796 267.29c6.5102 2.2727 13.02 2.0032 19.53 0.75118m-166.37-55.96-16.53 27.79m151.74-33.052-33.427 48.826-33.427 5.6338m20.282-68.357-48.826 56.714m129.58-28.92c-8.0379 19.492-16.226 38.76-27.042 54.084l-52.207 8.2629c-6.5269-7.3196-13.914-11.197-19.53-22.16l-25.54 2.2535c-4.3569-4.507-6.5925-9.0141-9.0141-13.521-18.102-0.99539-36.947-0.25844-52.207-7.8873l-31.549-13.521c-1.9108-3.3782-4.6724-5.6221-3.7559-12.77l11.643-20.282m220.47-89.39 45.822 51.831 7.8873 57.84m-85.258-67.23c0.7512 1.8779 49.202 52.207 49.202 52.207l0.3756 48.451-0.3756-0.37559m-81.859-268.83-116.61 25.311-24.407 30.734-110.84 6.0588c-4.9458 52.731-9.043 106.14 6.3408 158.87l115.81-7.333 12.42 16.22c3.7567 4.542 8.4166 5.471 13.158 6.0736l51.215-41.743c10.945 4.6332 16.718 13.579 23.991 20.048 9.5735-8.3948 18.39-14.956 26.963-18.347 12.779 6.6352 16.586 12.373 22.754 18.347l-2.7118 12.655 11.593-6.1132 21.853 17.865-1.8079 48.814c14.546-0.84777 22.653-10.712 32.542-18.079 12.597 2.3758 22.346-16.793 35.254-33.446 13.543-9.3409 18.921-18.682 28.023-28.023l-0.904-70.508-80.98-63.5c-11.068 6.7097-21.863 18.439-33.822 19.804-4.4228 9.4905-6.8283 18.084-20.791 24.712-9.0247 8.6655-25.178 12.794-45.198 14.463l-24.407-20.791 36.158-34.35 8.1356-32.542 32.542-25.791-16.593-19.094" stroke-width="10.132"/>
   <path d="m1039.2 434.45c-5.247 7.6032-9.6385 12.64-13.897 17.277-10.642 0.35483-21.283 2.1068-31.925-2.2535v0.37559m178.84 46.607c-5.1329 6.139-11.07 11.742-18.325 16.466m-6.905 32.932c-4.9302 6.3945-10.297 11.042-15.935 14.607m-31.073 21.246c4.4869 2.1404 29.005-20.149 26.824-21.512m-183.78 19.122c4.7784 6.7291 10.979 12.747 18.591 18.059m30.807-8.233c6.0101 6.4215 10.655 12.956 21.512 19.653m19.122 10.358c1.328 1.3279 14.076 11.951 14.076 11.951m25.23-54.709c-3.6917 4.7804-6.5657 9.5609-7.4363 14.341 4.3656 5.1953 9.4497 9.672 15.935 12.748m-39.04-52.85c-3.0462-0.24799-18.188 15.487-14.607 15.935 3.689 6.5994 9.3665 9.8848 15.138 13.013m-51.522-32.932c-6.1106 5.1346-12.984 10.269-14.341 15.404 3.6724 5.7572 9.069 8.066 14.076 11.154" stroke-width="5.7895"/>
  </g>
 </g>
 <g transform="translate(-6.649 -5.6426)">
  <path d="m391.95 5.6433c-9.4762 0.02559-18.955 0.39141-28.391 1.0828-25.415 1.9141-50.667 6.2437-75.13 13.441-40.304 11.595-78.385 30.83-111.75 56.227-38.74 29.346-71.01 66.766-96.073 108.3-21.985 36.37-38.577 75.86-50.414 116.64-18.059 62.5-25.035 127.95-23.281 192.89 2.4982 85.314 20.84 171.18 60.708 247.08 18.056 34.359 40.587 66.445 67.553 94.408 27.781 28.826 60.38 53.13 96.272 70.927 34.578 17.233 72.11 28.335 110.39 33.373 61.382 7.9487 124.97 1.936 182.93-20.261 48.359-18.415 92.149-48.255 127.73-85.75 39.887-41.845 69.752-92.623 90.08-146.58 28.08-74.26 38.7-154.35 36.5-233.47-1.39-47.1-7.69-94.14-19.68-139.74-11.51-43.68-28.38-86.05-51.27-125.04-18.98-32.19-42.06-62.07-69.27-87.73-28.55-27.077-61.64-49.401-97.63-65.342-46.79-20.901-98.1-30.593-149.27-30.455zm1.5812 125.83c28.776-8e-3 57.571 4.1928 84.75 13.75 35.167 12.033 66.989 33.251 92.2 60.5 23.871 25.669 42.12 56.237 55.425 88.575 17.021 41.571 26.299 85.987 30.15 130.65 4.0396 49.216 2.359 99.043-6.475 147.68-7.7538 41.999-21.12 83.271-42.425 120.42-18.171 31.814-42.508 60.414-72.475 81.675-31.582 22.58-69.141 36.276-107.62 40.775-42.618 4.9596-86.746 1.0657-126.93-14.475-34.505-13.305-65.417-35.469-89.625-63.375-26.691-30.401-45.75-66.905-58.7-105.08-14.2-42.038-21.229-86.253-23.3-130.5-1.2793-28.628-0.67416-57.361 2.25-85.875 4.2512-41.519 13.296-82.76 29.15-121.45 14.671-35.875 35.45-69.623 63.225-96.85 24.344-24.043 54.172-42.556 86.65-53.375 17.793-6.0836 36.327-9.8152 55.025-11.675 9.5248-0.89528 19.133-1.3724 28.725-1.375z" fill="#004582"/>
  <path id="rahmen_gelb_aussen" d="m391.95 8.7897c-9.4126 0.025416-18.828 0.38824-28.2 1.075-25.245 1.9013-50.326 6.2014-74.625 13.35-40.034 11.517-77.859 30.624-111 55.85-38.475 29.15-70.53 66.317-95.425 107.58-21.838 36.125-38.317 75.347-50.075 115.85-17.938 62.087-24.867 127.09-23.125 191.6 2.4814 84.741 20.7 170.03 60.3 245.42 17.935 34.128 40.315 66 67.1 93.775 27.594 28.633 59.974 52.773 95.625 70.45 34.346 17.117 71.627 28.146 109.65 33.15 60.97 7.8954 124.14 1.923 181.7-20.125 48.034-18.291 91.53-47.931 126.88-85.175 39.619-41.564 69.284-92.001 89.475-145.6 27.884-73.756 38.437-153.31 36.25-231.9-1.384-46.789-7.6386-93.508-19.55-138.8-11.425-43.388-28.188-85.476-50.925-124.2-18.847-31.974-41.777-61.656-68.8-87.15-28.36-26.893-61.24-49.066-96.98-64.9-46.48-20.761-97.45-30.388-148.28-30.25zm0.625 16.725c45.944-0.09538 91.987 8.0561 134.5 25.625 34.364 14.132 66.229 34.241 93.925 59 29.579 26.226 54.437 57.595 74.425 91.65 19.976 34.138 35.204 70.948 46 108.98 12.948 45.287 19.719 92.243 21.5 139.28 2.8244 79.025-7.7918 159.23-36.6 233.15-23.133 59.469-58.695 114.79-106.85 157.05-39.414 34.836-87.241 60.086-138.32 72.7-35.548 8.8572-72.473 11.946-109.02 10-37.88-2.0347-75.525-9.8814-110.72-24.125-37.669-15.084-72.353-37.402-102.02-65.05-26.858-24.974-49.687-54.16-68.3-85.725-22.112-37.506-38.335-78.336-49.4-120.4-12.051-45.87-17.992-93.24-18.9-140.62-1.5108-82.76 11.947-166.68 45.875-242.55 27.044-60.601 68.041-115.79 121.98-155 49.386-36.312 109.18-57.755 170.2-62.575 10.548-0.88815 21.147-1.353 31.75-1.375z" fill="#fdf551" stroke="#004582" stroke-width="3.2"/>
  <path id="rahmen_gelb_innen" d="m392.75 115.26c-6.3514 7e-3 -12.719 0.21727-19.05 0.6-31.16 1.9834-62.156 9.0248-90.575 22.1-33.446 15.165-62.888 38.596-86.125 66.95-24.335 29.583-42.242 64.057-54.85 100.12-12.686 36.428-20.15 74.539-23.775 112.9-4.5853 51.981-3.212 104.64 5.775 156.1 7.4456 42.157 20.254 83.608 40.475 121.45 17.789 33.203 41.562 63.547 71.35 86.8 31.769 25.139 70.244 41.341 110.18 47.75 41.886 6.5558 85.362 4.615 126.1-7.45 33.897-10.15 65.475-27.994 91.55-51.925 26.487-24.065 47.384-53.857 63.1-85.9 19.597-40.16 31.435-83.758 37.725-127.9 6.3233-45.296 7.1565-91.305 3.2-136.85-3.9859-44.189-13.103-88.134-29.35-129.5-15.149-38.341-36.708-74.588-65.975-103.85-27.219-27.573-61.308-48.324-98.375-59.65-26.313-8.1554-53.852-11.78-81.375-11.75zm0.8 16.225c28.776-8e-3 57.571 4.1928 84.75 13.75 35.167 12.033 66.989 33.251 92.2 60.5 23.871 25.669 42.12 56.237 55.425 88.575 17.021 41.571 26.299 85.987 30.15 130.65 4.0396 49.216 2.359 99.043-6.475 147.68-7.7538 41.999-21.12 83.271-42.425 120.42-18.171 31.814-42.508 60.414-72.475 81.675-31.582 22.58-69.141 36.276-107.62 40.775-42.618 4.9596-86.746 1.0657-126.92-14.475-34.505-13.305-65.417-35.469-89.625-63.375-26.691-30.401-45.75-66.905-58.7-105.08-14.2-42.038-21.229-86.253-23.3-130.5-1.2794-28.628-0.67416-57.361 2.25-85.875 4.2512-41.519 13.296-82.76 29.15-121.45 14.671-35.875 35.45-69.623 63.225-96.85 24.344-24.043 54.172-42.556 86.65-53.375 17.793-6.0836 36.327-9.8152 55.025-11.675 9.5248-0.89528 19.133-1.3724 28.725-1.375z" fill="#fdf551" stroke="#004582" stroke-width="4.8"/>
 </g>
 <g id="schrift" transform="translate(-6.649 -5.6426)" fill="#fdf551">
  <g id="sozialistische">
   <path d="m329.29 47.251c12.093-1.1945 24.122-2.9543 36.2-4.2863 0.33018 2.7008 0.6598 5.4021 0.97122 8.1067-9.2014 1.0667-18.386 2.2666-27.585 3.339 0.59097 5.3946 1.2538 10.782 1.9934 16.159 7.8437-0.94749 15.688-1.899 23.528-2.889 0.29753 2.5593 0.59208 5.1185 0.90216 7.6781-7.8399 0.91811-15.672 1.8918-23.505 2.8471 0.66511 5.5443 1.3279 11.089 2.0224 16.631 9.2016-1.0991 18.401-2.225 27.593-3.4113 0.34641 2.7224 0.6962 5.4439 1.032 8.1698-12.077 1.4245-24.135 2.9925-36.212 4.4059-2.3131-18.917-4.731-37.821-6.9408-56.75z"/>
   <path d="m290.42 57.188c2.6964-0.96194 5.3877-1.9428 8.0849-2.9124 6.298 17.981 12.527 35.988 18.616 54.04-2.6908 0.92415-5.3625 1.8957-8.0454 2.8324-2.8393-7.8293-5.4444-15.74-8.1949-23.599-7.14 2.3913-14.211 4.982-21.368 7.3184 2.6599 7.8852 5.4272 15.734 8.1092 23.612-2.7214 0.92955-5.4368 1.8719-8.1306 2.8709-6.2463-17.996-12.434-36.011-18.628-54.024 2.7178-0.94307 5.4298-1.9063 8.1625-2.815 2.6858 7.6953 5.2842 15.421 7.972 23.116 7.1208-2.5061 14.31-4.8184 21.398-7.421-2.7341-7.6473-5.3013-15.352-7.9755-23.019z"/>
   <path d="m211.14 98.111c3.7872-9.4046 15.367-14.964 25.009-11.527 3.5107 1.0773 6.439 3.3777 9.109 5.8223-2.4994 1.5935-5.0099 3.1671-7.5267 4.7298-2.7196-1.34-5.5378-2.9999-8.6933-2.66-5.1713 0.1714-9.8651 4.4132-10.443 9.5795-0.79265 4.5253 1.9476 8.5241 4.0886 12.25 2.8317 4.4446 5.3395 9.1899 9.0147 13.019 4.3008 4.3196 12.112 3.9595 16.041-0.69401 2.7867-2.74 3.0339-6.8368 2.9648-10.507 2.551-1.6087 5.1022-3.2185 7.6927-4.7667 1.194 4.1161 1.9343 8.5347 0.71003 12.739-2.2359 8.4711-10.563 14.569-19.174 15.054-6.2343 0.19605-12.797-2.383-16.394-7.6526-4.3438-6.1339-8.3407-12.532-11.911-19.146-2.8342-4.9318-2.7387-11.109-0.48753-16.241z"/>
   <path d="m160.39 139.05c3.324-10.003 13.493-15.94 23.372-17.844 0.49933 2.8004 0.98577 5.6027 1.4606 8.4097-6.2131 1.6507-12.873 4.594-15.967 10.59-2.6456 4.8979 2.0812 11.771 7.6567 10.484 6.4615-1.669 10.523-7.9761 17.048-9.5619 10.148-3.2328 21.562 6.4114 20.272 16.929-0.99942 7.7682-6.9904 13.764-13.203 17.96-4.5531 3.1771-10.053 4.4593-15.49 5.0594-0.0461-2.8647-0.18497-5.725-0.33643-8.5828 8.1166-1.2069 16.656-5.6376 19.835-13.6 2.12-5.4432-3.9029-11.424-9.2922-9.2714-5.9152 2.7214-10.243 8.4289-16.865 9.7375-11.066 2.7646-22.203-9.5593-18.492-20.309z"/>
   <path d="m132.48 168.87c1.7646-2.2765 3.554-4.5331 5.3177-6.8096 15.033 11.673 29.948 23.499 45.039 35.097-1.806 2.255-3.5956 4.5235-5.3437 6.8245-15.055-11.639-30.026-23.386-45.013-35.112z"/>
   <path d="m100.33 218.05c6.8856-11.393 13.73-22.811 20.581-34.225 2.2107 1.3191 4.4162 2.6491 6.6354 3.9588-2.7414 4.436-5.3678 8.9418-8.0972 13.386 14.073 8.5642 28.246 16.962 42.369 25.446-1.4958 2.4552-2.9862 4.9152-4.3998 7.4206-14.167-8.4038-28.248-16.951-42.401-25.377-2.7602 4.3967-5.3649 8.8879-8.0342 13.34-2.2096-1.3322-4.43-2.644-6.6525-3.9496z"/>
   <path d="m82.025 263.11c-0.94086-10.59 6.1701-19.979 14.422-25.801 1.5941 2.396 3.1904 4.7926 4.7502 7.2146-5.2126 4.0194-10.432 9.5696-10.499 16.549-0.25523 5.5111 6.9616 9.4697 11.327 5.9045 5.0739-4.1797 6.4525-11.371 11.817-15.322 7.7746-6.4741 21.258-2.7993 24.785 6.6438 2.5427 6.5069 0.31723 13.758-2.8392 19.638-3.1094 5.9664-8.2198 10.68-14.132 13.808-1.2164-2.6003-2.4827-5.174-3.7548-7.7432 4.4382-2.8569 8.5544-6.5216 10.863-11.356 1.6786-3.3156 2.7653-7.2792 1.597-10.931-1.5183-4.5419-8.1637-6.4049-11.574-2.8543-4.6714 4.7757-6.2622 12.134-12.221 15.77-9.076 6.4717-23.656-0.46504-24.541-11.522z"/>
   <path d="m70.454 288.64c18.09 5.913 36.211 11.733 54.289 17.685-0.89647 2.7376-1.7452 5.494-2.5986 8.2488-18.08-5.9296-36.183-11.791-54.29-17.638 0.84174-2.7743 1.7318-5.5324 2.5992-8.2954z"/>
   <path d="m110.13 325.77c2.6414 0.59114 5.2762 1.2077 7.9141 1.8261-2.6988 11.849-5.4216 23.693-8.1804 35.53-18.552-4.1713-37.048-8.5912-55.595-12.783 0.61546-2.8446 1.2729-5.6786 1.887-8.5196 15.845 3.7875 31.754 7.3042 47.604 11.071 2.2679-9.0075 4.1318-18.11 6.3707-27.124z"/>
   <path transform="scale(.8)" d="m134.69 468.03c-24.749 5.2648-49.5 10.487-74.25 15.75-0.39415 2.9816-0.79764 5.9773-1.1875 8.9688 22.326 11.86 44.652 23.657 66.938 35.594 0.57642-3.757 1.1122-7.4956 1.6562-11.25-4.9302-2.6394-9.8752-5.2522-14.938-7.625 1.1934-8.9804 2.3738-17.945 3.6875-26.906 5.5122-1.1233 11.054-2.1092 16.562-3.25 0.51195-3.7612 1.0371-7.5248 1.5312-11.281zm-28.07 16.28c-0.97221 6.8953-1.8953 13.799-2.9375 20.688-9.9094-4.9501-19.76-10.034-29.812-14.688 10.896-2.0895 21.843-3.969 32.75-6z"/>
   <path d="m44.058 431.12c18.996 0.96754 37.987 2.0195 56.986 2.937-0.19847 2.8906-0.34224 5.7874-0.46957 8.6885-19.005-1.0778-38.025-1.883-57.025-3.0415 0.16028-2.8651 0.30373-5.7289 0.5085-8.584z"/>
   <path d="m42.744 456.25c2.6566 0.16048 5.6166-0.5907 8.009 0.91481 13.577 8.3534 27.158 16.706 40.76 25.024-0.05273-8.6404-0.0047-17.28-0.02728-25.918 2.7458-0.0187 5.4922-0.0201 8.2396-3e-3 0.03645 12.162 0.06477 24.326 0.0073 36.49-3.0487-0.1634-6.4834 0.73409-9.1509-1.1724-13.331-8.2624-26.681-16.495-40.059-24.679-0.02158 8.2701-0.01344 16.541-0.0016 24.814-2.5885 0.0195-5.1766 0.0221-7.7644 0.0179-0.01033-11.83 0.013-23.659-0.01239-35.487z"/>
   <path transform="scale(.8)" d="m102.25 633.41c-6.3683 0.0313-12.728 0.74531-19.062 1.3438-6.8215 0.59235-14.229 1.4124-19.438 6.375-8.4077 7.2376-10.794 20.102-6.2188 30.094 3.7122 8.669 12.883 15.02 22.438 14.469 9.3793-0.15053 18.762-1.048 28.031-2.4688 5.9956-0.79864 11.25-4.4527 14.719-9.3125 7.0856-9.1533 6.5656-23.175-0.96875-31.906-4.1647-4.8842-10.216-8.5808-16.781-8.5625-0.91067-0.0262-1.809-0.0357-2.7188-0.0312zm-1.4375 10.969c0.95829 1.4e-4 1.9476 0.0266 2.9062 0.0625 6.8878 0.21358 12.811 6.2975 13.156 13.125 0.80473 7.1201-4.845 14.032-11.875 15-8.2369 1.4295-16.64 2.1406-25 2.125-7.1882 0.12542-13.868-6.1389-13.875-13.406-0.83174-8.243 6.7225-15.116 14.656-15.281 6.6489-0.81847 13.323-1.626 20.031-1.625z"/>
   <path d="m77.514 569.39c4.7086-9.8211 20.322-11.597 26.765-2.6293 6.8129 9.8446 6.8187 23.544 1.1372 33.929-2.4716-1.4212-4.9378-2.8457-7.4263-4.228 3.3681-7.9432 4.7862-18.845-1.9632-25.401-4.0124-3.4571-11.27-0.44574-11.645 4.8519-0.52751 6.4228 1.6471 13.2-1.1672 19.34-2.8771 6.9025-11.13 10.266-18.212 8.8202-4.8891-0.90387-9.0267-4.4635-11.073-8.936-3.8918-7.9939-2.9124-17.425 0.16252-25.514 2.6593 1.1243 5.3126 2.2661 7.9761 3.389-2.0132 5.8061-3.176 12.525-0.31864 18.259 1.578 3.507 5.9538 5.4243 9.5612 3.9571 3.2792-1.2114 4.7495-4.9474 4.6633-8.2164-0.11456-5.8809-1.4957-12.192 1.5409-17.623z"/>
  </g>
  <g id="einheitspartei">
   <path d="m418.64 42.617c12.087 1.4499 24.171 2.9294 36.253 4.4331-0.33562 2.6844-0.6921 5.3658-1.0229 8.0507-9.2116-1.0053-18.392-2.2732-27.598-3.311-0.70489 5.3641-1.3236 10.739-1.9852 16.108 7.8527 0.97957 15.714 1.9021 23.563 2.9298-0.3062 2.5527-0.64674 5.1009-0.98639 7.6496-7.8416-1.0263-15.695-1.9513-23.539-2.937-0.60624 5.5638-1.3967 11.106-1.9824 16.672 9.1952 1.0008 18.351 2.3465 27.557 3.2678-0.31602 2.7304-0.64473 5.4598-1.001 8.186-12.069-1.472-24.14-2.9113-36.196-4.4795 2.35-18.852 4.6522-37.71 6.9385-56.57z"/>
   <path d="m475.37 51.929c2.8073 0.61646 5.6002 1.3018 8.4042 1.9582-4.4996 18.486-9.1825 36.928-13.789 55.388-2.8174-0.66831-5.628-1.3492-8.4391-2.0192 4.6279-18.437 9.2637-36.873 13.824-55.327z"/>
   <path d="m512.79 62.323c2.488 1.1292 4.978 2.2643 7.4652 3.4111 2.0805 15.954 4.1688 31.907 6.2684 47.858 5.9796-12.107 11.221-24.581 17.343-36.611 2.7216 0.84994 5.2344 2.2338 7.7936 3.4808-8.1339 17.164-16.043 34.434-24.163 51.605-2.4659-1.1032-4.9096-2.2472-7.3769-3.3308-2.1275-15.961-4.1936-31.93-6.3061-47.893-5.8479 12.257-11.504 24.604-17.303 36.883-2.5948-1.2759-5.2132-2.4918-7.8153-3.7385 8.0887-17.195 16.083-34.434 24.094-51.665z"/>
   <path d="m580.79 97.97c2.2676 1.7782 4.5207 3.5767 6.7976 5.3525-5.1175 6.3616-10.247 12.713-15.418 19.03 5.8533 4.7752 11.734 9.5178 17.608 14.271 5.1182-6.3456 10.255-12.677 15.347-19.045 2.2414 1.8458 4.4986 3.6749 6.7591 5.507-12.029 14.737-23.945 29.565-35.944 44.326-2.2205-1.8423-4.4748-3.6384-6.7172-5.4438 5.229-6.4585 10.452-12.922 15.687-19.377-5.9012-4.707-11.654-9.5972-17.646-14.186-5.2004 6.4697-10.367 12.968-15.702 19.327-2.1933-1.8201-4.3925-3.6261-6.6048-5.4135 11.841-14.867 23.951-29.516 35.834-44.349z"/>
   <path d="m633.35 144.15c7.8242 9.3234 15.588 18.699 23.489 27.959-2.1315 1.7333-4.2518 3.4754-6.3351 5.2594-5.9182-7.1293-11.903-14.201-17.868-21.289-4.1535 3.4854-8.3372 6.9333-12.442 10.473 5.0901 6.0329 10.147 12.095 15.238 18.129-1.9569 1.6721-3.9357 3.3166-5.8951 4.9784-5.0402-6.1164-10.257-12.084-15.228-18.255-4.2707 3.6581-8.6108 7.232-12.897 10.868 6.0758 7.0104 11.925 14.215 17.938 21.281-2.1129 1.7406-4.2159 3.4905-6.3387 5.2125-7.7276-9.3355-15.632-18.524-23.315-27.893 14.458-12.35 29.134-24.445 43.655-36.724z"/>
   <path d="m620.45 221.08c16.14-10.056 32.259-20.147 48.378-30.239 1.5498 2.4616 3.0803 4.9377 4.6138 7.4162-16.198 9.9682-32.252 20.167-48.427 30.17-1.53-2.4474-3.0703-4.8841-4.5643-7.3467z"/>
   <path d="m675.29 215.56c2.3043-1.1344 4.6101-2.2706 6.9136-3.4225 5.9517 11.91 12.051 23.744 18.069 35.621-2.3106 1.1303-4.6087 2.2761-6.8975 3.4352-2.361-4.6202-4.6215-9.2896-7.0282-13.883-14.656 7.4412-29.343 14.824-43.918 22.422-1.4123-2.5476-2.7691-5.1218-4.0795-7.7164 14.662-7.56 29.466-14.848 44.058-22.547-2.4567-4.5947-4.8381-9.2274-7.1175-13.909z"/>
   <path d="m681.74 280.49c2.7847-10.674 18.081-14.945 26.018-7.2987 7.5786 7.2852 8.736 18.967 6.3093 28.746-2.7662-0.74632-5.5291-1.4887-8.2737-2.2779 1.1608-6.4338 1.3382-14.036-3.207-19.262-3.257-3.7981-10.542-2.8919-12.102 2.0952-1.9851 7.0463 3.0059 14.025 1.0053 21.115-1.8942 9.1294-12.712 14.749-21.338 11.522-3.9866-1.4115-6.9469-4.698-9.0109-8.2714-4.8021-8.612-5.9353-19.381-2.0629-28.565 2.6031 1.101 5.2206 2.19 7.8591 3.229-1.3044 5.0137-2.0432 10.352-0.52795 15.415 0.96997 3.6374 2.6536 7.51 6.0992 9.4304 4.3861 2.658 10.963-1.1211 10.719-6.3018-0.24671-6.5333-3.6067-13.034-1.4882-19.576z"/>
   <path transform="scale(.8)" d="m906.5 402.22c-23.171 5.3386-46.33 10.697-69.5 16.031 0.80204 3.5046 1.643 6.9855 2.4375 10.5 9.1018-1.9975 18.135-4.2326 27.25-6.1875 2.2468 8.4711 2.5833 17.936 7.875 25.25 6.7474 9.1033 20.807 10.756 29.812 4.0938 7.3568-4.9034 10.403-14.681 8.2812-23.094-2.0056-8.8795-4.1023-17.728-6.1562-26.594zm-7.4062 12.875c1.0094 7.0565 4.2318 13.908 3.7812 21.094-1.3522 9.887-16.89 12.374-21.281 3.4062-2.61-6.1552-3.2483-12.958-5.0312-19.375 7.5198-1.6886 14.972-3.594 22.531-5.125z"/>
   <path transform="scale(.8)" d="m848.12 468.81c0.47266 3.7974 0.96269 7.6 1.4375 11.406 5.4821 1.185 10.969 2.28 16.438 3.5625 1.1386 8.8988 2.1693 17.79 3.3438 26.688-5.0328 2.5181-10.01 5.1327-15.156 7.4062 0.45281 3.7998 0.88344 7.6331 1.375 11.438 22.563-11.431 45.074-23.013 67.656-34.406-0.36081-3.009-0.73592-6.0023-1.0938-9-24.663-5.7091-49.355-11.319-74-17.094zm27.781 16.781c10.9 2.1326 21.746 4.4565 32.656 6.5625-10.084 4.5925-20.003 9.5222-30.094 14.094-0.83589-6.888-1.653-13.782-2.5625-20.656z"/>
   <path transform="scale(.8)" d="m927.44 540.91c-23.714 0.95146-47.445 1.625-71.156 2.5938 5e-3 3.5725 0.18921 7.1431 0.34375 10.719 10.175-0.26613 20.354-0.69145 30.531-1.0312 1e-3 4.6196 0.19104 9.2216 0.34375 13.844-10.008 5.2012-19.961 10.52-29.969 15.719 0.26461 4.2289 0.29248 8.477 0.4375 12.719 10.442-5.5291 20.607-11.584 30.906-17.375 1.5778 2.6986 3.0615 5.5366 5.4375 7.6562 6.75 6.4588 18.122 7.2463 25.688 1.75 5.6863-3.7896 8.7973-10.748 8.4688-17.5-0.2047-9.7009-0.5576-19.405-1.0312-29.094zm-9.0625 11.188c-0.21175 7.4869 1.1964 15.086-0.15625 22.5-2.8777 8.6593-16.915 8.2401-19.906-0.15625-2.0971-6.944-1.0045-14.385-1.6875-21.531 7.2494-0.36144 14.493-0.47601 21.75-0.8125z"/>
   <path d="m735.51 483.28c2.5986 0.135 5.2048 0.22731 7.8194 0.28545-0.47056 13.32-1.0472 26.637-1.3635 39.963-2.5948-0.17738-5.1922-0.29286-7.7781-0.35467 0.19359-5.211 0.39378-10.419 0.60483-15.625-16.424-0.44317-32.837-1.2474-49.26-1.603-0.0741-2.9116 0.0257-5.8225 0.22011-8.7201 16.42 0.4985 32.836 1.1293 49.255 1.7001 0.28578-5.2119 0.45331-10.43 0.50233-15.645z"/>
   <path d="m683.26 532.73c18.883 2.2528 37.748 4.6543 56.632 6.9114-1.4243 12.056-2.9131 24.106-4.4293 36.153-2.7158-0.28238-5.4234-0.60411-8.1224-0.91078 1.144-9.2015 2.3369-18.397 3.35-27.612-5.3564-0.70851-10.717-1.3557-16.079-1.9716-0.99109 7.823-1.9486 15.651-2.895 23.482-2.564-0.2782-5.1191-0.58438-7.669-0.86992 0.97479-7.8596 1.9564-15.717 2.8884-23.58-5.5362-0.66291-11.071-1.3328-16.595-2.0463-1.1946 9.1903-2.1991 18.405-3.4095 27.595-2.7028-0.31062-5.3929-0.63942-8.0826-0.97221 1.3676-12.073 2.9558-24.118 4.4112-36.179z"/>
   <path d="m674.42 590.88c0.76919-2.7521 0.7365-5.9027 2.2555-8.3408 18.483 3.7777 36.938 7.742 55.375 11.759-0.58099 2.7965-1.1614 5.5966-1.7437 8.3981-18.644-3.8738-37.236-7.9863-55.887-11.817z"/>
  </g>
  <g id="deutschlands">
   <path transform="scale(.8)" d="m175.91 853.12c-20.989 11.168-41.965 22.385-63 33.469 4.3207 7.9454 8.2569 16.125 12.875 23.906 5.9266 9.7327 19.051 14.41 29.688 10.094 6.6403-2.6846 12.86-6.2708 19.156-9.6562 4.7083-2.5204 9.3673-5.5749 12.219-10.219 4.4825-6.7658 5.361-15.748 1.875-23.125-3.9433-8.3151-8.5922-16.296-12.812-24.469zm-3.9375 14.344c2.4435 4.8429 5.3635 9.4576 7.4062 14.5 2.7704 6.6608-1.0782 14.47-7.1562 17.781-6.5971 3.882-13.316 7.638-20.344 10.688-5.7015 2.6232-13.035 0.77084-16.688-4.3438-3.1682-4.636-5.4662-9.8106-8.1562-14.719 14.959-8.013 30.007-15.842 44.938-23.906z"/>
   <path d="m625.77 723.04c0.92475-10.277 9.0529-18.363 17.929-22.706 1.2003 2.5564 2.4002 5.1205 3.6121 7.6836-5.6846 3.3684-11.798 8.0254-12.783 15.026-0.75717 5.21 5.2917 10.14 10.139 7.5066 5.902-3.2842 8.2035-10.619 14.277-13.778 8.6941-5.2551 21.413 0.41664 23.558 10.27 1.5555 7.4958-2.2802 14.847-6.8761 20.511-3.7469 4.7304-8.9826 8.0081-14.602 10.065-0.90554-2.6906-1.7794-5.383-2.7177-8.0489 4.792-2.3371 9.429-5.4013 12.412-9.9261 1.997-3.0524 3.8122-6.7128 3.0867-10.456-0.86044-5.0213-7.9113-7.6771-11.71-4.1048-4.9446 4.6649-8.15 11.59-14.88 14.074-10.112 3.9509-22.63-5.2092-21.445-16.117z"/>
   <path d="m124.69 767.27c14.956-11.796 30.036-23.434 45.005-35.212 7.4807 9.5506 14.837 19.201 22.438 28.658-2.117 1.7487-4.2845 3.4364-6.4163 5.1734-5.6666-7.3511-11.493-14.576-17.104-21.967-4.2789 3.3592-8.5923 6.6756-12.853 10.061 4.8608 6.2453 9.7459 12.473 14.598 18.728-2.0446 1.5507-4.0899 3.1049-6.0935 4.7155-4.8334-6.2487-9.6707-12.492-14.576-18.682-4.4604 3.3702-8.853 6.8308-13.227 10.315 5.755 7.2554 11.429 14.576 17.131 21.876-2.1323 1.7001-4.2907 3.3714-6.4716 5.0158-7.4692-9.5676-14.9-19.164-22.43-28.681z"/>
   <path transform="scale(.8)" d="m766.78 937.91c-6.5994-0.09-13.199 2.3225-17.75 7.2812-6.1393 6.6939-12.066 13.607-17.875 20.594 17.965 15.515 35.888 31.084 53.75 46.719 6.4967-8.1227 14.405-15.181 19.844-24.094 4.8929-9.1718 3.3702-21.727-4.3438-28.906-6.0937-5.9598-12.484-11.634-19.25-16.812-4.1227-3.1206-9.2421-4.7112-14.375-4.7812zm-1.0625 10.75c3.2141-0.0133 6.4429 1.0128 9 2.9375 6.4499 4.6358 12.33 10.076 18.125 15.5 4.858 4.456 5.8217 12.353 2.0938 17.812-3.1375 4.4278-6.849 8.4593-10.531 12.438-13.103-10.723-25.733-22.079-38.469-33.25 3.7389-3.9743 6.909-8.4626 10.969-12.125 2.4033-2.242 5.5984-3.2992 8.8125-3.3125z"/>
   <path d="m178.13 796.11c7.5966-8.5969 15.02-17.344 22.612-25.944 2.1032 1.8987 4.3493 3.6561 6.3115 5.7167-7.8616 9.5444-16.227 18.691-24.246 28.113-1.6546 2.005-2.8738 4.4276-3.0658 7.0628-0.70976 8.1449 9.2381 15.262 16.617 11.31 3.6101-1.9087 5.8729-5.4746 8.5795-8.3988 6.5848-7.6316 13.229-15.211 19.826-22.831 2.2049 1.8712 4.3982 3.7637 6.5667 5.6887-8.1464 9.3548-16.309 18.697-24.433 28.073-3.0508 3.5131-7.13 6.341-11.806 7.0575-12.456 2.3241-25.472-9.325-24.068-22.04 0.25817-5.4108 3.5533-9.9835 7.1074-13.806z"/>
   <path d="m566.02 789.22c2.308-1.7015 4.5943-3.4317 6.8902-5.1491 11.447 15.185 22.904 30.364 34.34 45.56-2.1922 1.66-4.3865 3.3173-6.5943 4.9569-15.002-5.726-30.064-11.289-45.092-16.941 8.0035 10.941 16.286 21.674 24.419 32.521-2.2886 1.7572-4.5984 3.4868-6.8928 5.2374-11.495-15.17-22.922-30.388-34.389-45.577 2.3348-1.4612 4.3551-4.2636 7.108-4.5624 14.982 5.1768 29.703 11.135 44.621 16.517-8.042-10.927-16.383-21.628-24.411-32.563z"/>
   <path d="m239.83 803.37c11.569 6.5766 23.026 13.35 34.6 19.921-1.265 2.2221-2.5286 4.4493-3.81 6.6706-4.5389-2.5731-9.0594-5.1747-13.572-7.7853-8.2277 14.255-16.466 28.504-24.693 42.76-2.4913-1.4429-4.9721-2.8904-7.446-4.3482 8.1304-14.298 16.43-28.497 24.675-42.728-4.5052-2.6111-9.0141-5.2113-13.524-7.806 1.2553-2.2345 2.5221-4.4555 3.7714-6.6842z"/>
   <path transform="scale(.8)" d="m640.16 1029.3c-2.7083 1.1891-5.4262 2.368-8.1562 3.5 1.6572 25.28 3.562 50.564 5.25 75.844 3.4721-1.5104 6.9203-3.0716 10.375-4.625-0.37619-5.6022-0.80991-11.175-1.375-16.75 8.2348-3.7419 16.525-7.3671 24.781-11.062 3.8142 4.1215 7.6827 8.1842 11.469 12.344 3.4389-1.5085 6.8389-3.0498 10.25-4.625-17.306-18.423-35.012-36.47-52.594-54.625zm1.7812 14.781c7.2047 8.3897 14.972 16.27 22.188 24.656-6.3157 2.8154-12.598 5.6871-18.969 8.375-1.041-11.02-2.1475-22.02-3.2188-33.031z"/>
   <path d="m280.01 857.07c-6.7783-8.9524-0.30643-23.928 10.88-25.07 10.257-1.1992 19.764 5.0918 25.952 12.797-2.2869 1.7232-4.5796 3.4419-6.8754 5.1583-3.9102-4.5275-8.9872-8.4833-15.051-9.3871-4.0726-0.69587-8.3804 2.2633-8.8472 6.4373-0.6604 3.5068 2.0426 6.509 4.9198 8.0708 5.0226 2.7759 10.965 4.7265 14.188 9.8426 6.2655 8.7274 0.577 23.178-10.288 24.601-12.109 1.3978-24.317-5.5054-30.584-15.764 2.4227-1.4856 4.8317-3.0091 7.3968-4.2361 3.2301 3.7239 6.5965 7.5921 11.295 9.486 3.7117 1.7432 8.23 2.9094 12.146 1.1425 4.6174-2.1627 5.3409-9.4326 1.0601-12.314-5.2856-3.7297-12.349-5.1602-16.193-10.762z"/>
   <path d="m442.31 845.87c2.8097-0.6531 5.6113-1.3504 8.4093-2.0642 3.7688 15.857 7.8736 31.634 11.781 47.46 8.9637-2.339 18.002-4.3786 26.968-6.7109 0.69894 2.637 1.375 5.284 2.0517 7.9406-11.843 2.8353-23.631 5.8877-35.454 8.8026-4.6444-18.463-9.1803-36.951-13.757-55.428z"/>
   <path d="m337.17 851.14c7.2597-6.9681 19.779-7.2517 27.319-0.58039 4.5253 3.7192 6.6356 9.5222 7.2433 15.205-3.0133-0.40938-6.013-0.87547-9.0092-1.3468-0.94832-2.5876-1.7825-5.4109-4.0355-7.1835-5.062-4.8204-14.382-3.2276-17.447 3.0978-1.824 4.1379-2.2192 8.7194-3.0304 13.131-0.53426 3.8608-1.338 7.7526-1.0091 11.674 0.68154 6.0588 6.8995 10.702 12.914 9.6396 3.7117-0.43263 6.3931-3.3095 8.7471-5.9385 2.9821 0.41373 5.9515 0.89548 8.9309 1.3727-1.9342 4.2854-4.6585 8.4101-8.8468 10.782-7.7684 4.4024-18.384 3.0648-24.802-3.1623-3.9002-3.8188-6.4043-9.2951-5.8747-14.816 0.52334-6.8962 1.8235-13.706 3.0449-20.501 0.78446-4.2602 2.4827-8.5092 5.856-11.375z"/>
   <path d="m417.27 848.38c2.8939-0.1084 5.7925-0.13731 8.694-0.18681 0.6104 19.017 1.2768 38.036 1.986 57.052-2.884-0.0279-5.7654 0.0518-8.6367 0.24429-0.38289-8.3382-0.65704-16.681-0.85125-25.021-7.5822 0.35829-15.169 0.59561-22.752 0.85438 0.48703 8.2805 0.62483 16.58 0.9533 24.872-2.8664 0.11166-5.7244 0.28267-8.5851 0.39238-0.85504-19.015-1.29-38.046-2.1048-57.06 2.8976-0.11211 5.796-0.25757 8.7008-0.32199 0.2517 8.1143 0.56426 16.229 0.88175 24.346 7.4803-0.0956 14.953-0.51465 22.434-0.65109 0.014-8.1803-0.52332-16.348-0.71988-24.52z"/>
  </g>
 </g>
</svg>
