<svg xmlns="http://www.w3.org/2000/svg" version="1.0" viewBox="0 0 3630.8978 2385.3215">
  <g fill="#51bee7">
    <path d="M50.375 2335.5S50 2166 50 1969v-358l338.8388-83.2097.5806 124.558L215 1705l-1.58058 132.3483L257 1833c95-13 129-8 149 23 14 21 17 51 17 164 0 127-2.1126 141.935-24 180-24.1128 41.9353-98.1339 76.0984-185.25 97.75zM260 2150c6-11 5.5806-55 3.5806-98-3-76 .7995-90.9067-25.5806-87.0711L210 1969v100c0 94 2.32233 101 2.32233 101S254 2161 260 2150zM880.6967 2244.7678L880 1999.4467 940 1979v-588l390-92 5 586 45.0971 3.8839-.097 230.1161-137.3483 37.2024-3.8129-109.7379-220.6066 52.5475 2.4004 111.9169zm289.4004-324.0261l-3.5628-459.5805-63.9643 15.7659 5.3139 460.7696zM505.8128 2218l-.7678-113.2322S538 2098.955 554 2092.955c54-19 55-39.955 16-162.955l-122.5-414.75 167.4127-45.7624 67.9712 250.2802 39.5536-274.3303L872 1408l-72.625 569.375c-31.6997 204.7547-51.7744 217.1864-293.5622 240.625zM1832.5 1888.75l-1-716.8672 156-38.1328L2000 1715l50-10-1.5-585.75 170.75-38.25-1.75 587.5 49.1516-9.6609 5.3934-589.9292L2435 1033.8388l6.7677 588.5133 48.7904-7.4685L2490 1844l-137.3483 31.9619-4.5096-96.4974zM2520 1013l301.8594-74.0644.047 128.0097-141.8047 32.8204 1.0772 169.4347 125.9652-28.1823 1.1311 131.3043-125.3468 27.8208.6354 170.0491L2820 1539.6758V1669l-298.955 71.8839zM2860 933l280.9053-73L3140 994.2864l-120.8107 31.4757L3020 1619l-160 38.8828V933zM3233 1550c-48-20-53-49-53-338s4-316 52-357c27-24 58-39 158.5-68.5S3543 774 3568 833c18 43 17 534-2 578-30 72-79 102-213 133-81 18-89 18-120 6zm170-154c15-12 17-36 17-238 0-188-2-228-15-238-12-10-20-9-40 4-33.0954 24.9444-25 189.2891-25 251 .1393 60.236-9.194 235 23 235 12 0 30-7 40-14zM51.875 1429.1875S51 1230 52 1041l3-344 50-14c28-8 68-19 90-24 22-6 54-15 71-20 56-17 99-11 128 17 14 15 26.5179 37.9744 27 53 5.5182 171.9842 1 289-11 310-27 51-64 77-150 104l-45 15-3 121c-1.43077 64.8614-.76598 129.1148-.76598 129.1148zM255 984c13-13 15-34 13-108-3-90-3.625-99.75-28.625-99.75S215 785 212 893c-2 88 0 107 12 107 8 0 22-7 31-16zM939 1133c-17-44-13.038-577.6384.75-615 11.7-31.7038 92.25-76 147.75-90s96.5-18 130.5-18c105.8516-.6934 101.8756 78.5927 102 144l-.042 83.708-159.6135 35.6066-.3449-63.3146c-.3214-58.9991 0-60-29-60-21 0-30 6-35 23-11 40-7 455 5 462 5 4 21 4 35 1 23-6 24-10 24-84 0-42 .045-101.1421.045-101.1421L1320 818v116c0 64-2.9584 111.6941-5.5 116-34.2966 58.1055-101.7276 92.6082-198.0587 116.6873C1020.1102 1190.7664 961.6079 1189.3478 939 1133zM1830 615V261l150-42 4.045 301.6517 125.9316-331.79232L2230 158l-.1172 720.1641L2085 910l3-166c3-131 2.4905-173.4905 2.4905-173.4905L1940 942.6256 1830 970zM2290.6742 712.4419c1.2322-111.558-4.1647-139.0711 12.2998-162.0936 16.9752-24.0482 45.304-45.5653 45.304-45.5653-15.8148-22.2382-28.1105-45.0847-37.1817-68.0883-33.361-84.60008-15.2093-201.25151-2.4909-240.67414 14.5754-45.17882 59.4515-67.80082 93.2328-81.10435 78.0919-30.75367 209.288-56.42749 267.1234-61.42165l.3106 723.22234L2522.125 811.25l-4.2151-263.9017C2398.7155 553.7321 2448.9074 825.4524 2431 830l-140.7748 33.5355zM2509 416c10.6967-18.1161 16.3033-198-.6967-203-6-2-26.3033 5-37.3033 16-18 18-21 34-21 99 0 76 9 102 36 102 6 0 17-6 23-14zM1388.6555 1021.6854c-17-44-13.038-577.6384.75-615 11.7-31.7038 92.25-75.99996 147.75-89.99996s96.5-18 130.5-18c105.8516-.6934 101.8756 78.59266 102 143.99996l-.042 83.708L1610 562l-.3449-63.3146c-.3214-58.9991 0-60-29-60-21 0-30 6-35 23-11 40-7 455 5 462 5 4 21 4 35 1 23-6 24-10 24-84 0-42 .045-101.1421.045-101.1421l159.9554-32.8579v116c0 64-2.9584 111.6941-5.5 116-34.2966 58.1055-101.7276 92.6082-198.0587 116.6873-96.3311 24.0791-154.8334 22.6605-177.4413-33.6873zM1440.8128 1988l-.7678-113.2322S1473 1868.955 1489 1862.955c54-19 55-39.955 16-162.955l-122.5-414.75 167.4127-40.8796 67.9712 245.3974 39.5536-274.3303L1807 1178l-72.625 569.375c-31.6997 198.2788-51.7744 198.8733-293.5622 240.625zM534.9092 1286.1514c-48-20-53-49-53-338 0-288.9999 4-315.9999 52-356.9999 27-24 58-39 158.5-68.5s152.5-12.5 177.5 46.5c18 43 17 533.9999-2 577.9999-30 72-79 102-213 133-81 18-89 18-120 6zm170-154c15-12 17-36 17-238 0-187.9999-2-227.9999-15-237.9999-12-10-20-9-40 4-33.0954 24.9444-25 189.2891-25 250.9999.1393 60.236-9.194 235 23 235 12 0 30-7 40-14z"/>
  </g>
</svg>
