<?xml version="1.0" encoding="UTF-8" standalone="no"?>
<svg
   xmlns:dc="http://purl.org/dc/elements/1.1/"
   xmlns:cc="http://creativecommons.org/ns#"
   xmlns:rdf="http://www.w3.org/1999/02/22-rdf-syntax-ns#"
   xmlns:svg="http://www.w3.org/2000/svg"
   xmlns="http://www.w3.org/2000/svg"
   xmlns:sodipodi="http://sodipodi.sourceforge.net/DTD/sodipodi-0.dtd"
   xmlns:inkscape="http://www.inkscape.org/namespaces/inkscape"
   version="1.0"
   viewBox="0 0 6200 2530"
   id="svg8"
   sodipodi:docname="Logo_da_Aliança.svg"
   inkscape:version="1.0.2 (e86c870879, 2021-01-15)">
  <metadata
     id="metadata14">
    <rdf:RDF>
      <cc:Work
         rdf:about="">
        <dc:format>image/svg+xml</dc:format>
        <dc:type
           rdf:resource="http://purl.org/dc/dcmitype/StillImage" />
        <dc:title></dc:title>
      </cc:Work>
    </rdf:RDF>
  </metadata>
  <defs
     id="defs12" />
  <sodipodi:namedview
     pagecolor="#ffffff"
     bordercolor="#666666"
     borderopacity="1"
     objecttolerance="10"
     gridtolerance="10"
     guidetolerance="10"
     inkscape:pageopacity="0"
     inkscape:pageshadow="2"
     inkscape:window-width="1920"
     inkscape:window-height="1017"
     id="namedview10"
     showgrid="false"
     inkscape:zoom="0.13691786"
     inkscape:cx="6156.1719"
     inkscape:cy="1262.2767"
     inkscape:window-x="-8"
     inkscape:window-y="-8"
     inkscape:window-maximized="1"
     inkscape:current-layer="svg8" />
  <path
     fill="#203746"
     d="M4307 2252c-103-103-185.3835-200.6579-185.3835-200.6579S4225 2050 4353 2050h234l-85 390s-92-84-195-188z"
     id="path2"
     style="fill:#000000" />
  <g
     fill="#6bd0e2"
     id="g6"
     style="fill:#0033a0;fill-opacity:1">
    <path
       d="M4579 1966c-143-38-222-143-221-295 0-55 32-238 111-647 61-315 117-589 125-611 80-228 274-358 508-340 130 10 218 60 262 149 23 45 26 64 26 147 0 85-22.7139 227.28909-22.7139 227.28909S5357 600 5219 600h-141l6-23c4-12 13-94 13-94s5-72-25-102c-35-36-75-40-128-15-68 32-74 54-188 642-58 298-106 564-106 591 0 72 23 96 94 96 49 0 59-4 90-34 36-35 71-171 71-171l17-57 272-4s-35 208-68 276c-18 39-56 96-85 127-109 119-306 176-462 134zM94.191729 1955.0414S251 1526 448 1018L808.61654 90.958645C892.14119 90.557797 975.66648 90.99213 1060 89l-1 788c-2.8562 359.4106-.7565 717.2647-1.0677 1078H775l3-172 2-173H493l-58 163c-32 89-66.38346 181.4662-66.38346 181.4662zM784 1340.6316S797 799 793 804c-4 4-193 535.4299-193 535.4299s40 .5701 90 .5701c85 0 94 .6316 94 .6316zM1127 1953L1485 90.855457c95.1893-.890099 171.3132-.730775 271.5715-.429203C1756.5715 90.426254 1693 465 1610 892c-82 426-150 786-150 786 172.2076.2803 291.1469 1.6821 488.3835 1.3684l-51.1918 273.0771c-273.5549.4447-447.3726.713-770.1917.5545zM1985 1951L2343 99.979322 2614 99l-354 1851.5737c-95.3016-.088-147.5117.2391-275 .4263zM2335 1952.8496S2491 1521 2688 1015l357-920h250l-.8722 1856.3831-278.1276-.098L3015 1782v-172h-283l-42 118c-24 64-53 142-65 172l-21.5715 52.7139c-37.7819.5943-268.4285.1357-268.4285.1357zM3025 815l-96 263-96 262h185zM3363.4285 1951.1438L3723.7146 94.998525 3991 93s20 198 43 437c24 239 49 420 49 420s40-195 82-415 87.8577-440.289086 87.8577-440.289086l264.8562-.710177L4164 1949.1423 3894 1949s-25-205-47-441c-24-247-48-407-48-407s-42 206-85 429-87 420.8577-87 420.8577zM5146 1953.0207L5862.8569 88.855457C5949.393 90.227391 6109 90 6109 90l-2.6842 1865H5825l3-172 4-173h-288l-58 163c-33 89-69.8083 179.0414-69.8083 179.0414zM5842 1073c3-148 5-269 3-270-2-3-195.5715 536.7153-195.5715 536.7153S5692 1340 5744 1340h93z"
       id="path4"
       style="fill:#0033a0;fill-opacity:1" />
  </g>
  <path
     style="fill:#0033a0;fill-opacity:1;stroke-width:4.99088"
     d="m 100.31623,1945.007 c 1.86814,-4.8037 25.47481,-68.2503 52.45925,-140.9923 C 276.00603,1471.8219 403.60513,1138.6805 658.3923,483.92777 L 809.87799,94.639369 933.05698,93.304462 1056.2359,91.969554 V 1022.8553 1953.741 H 916.57885 776.92184 l 3.21547,-172.1852 3.21552,-172.1853 -146.79072,0.067 -146.79072,0.067 -38.31301,108.4847 c -21.07215,59.6665 -48.8245,137.1198 -61.67189,172.1183 L 366.4276,1953.741 H 231.67361 c -126.30384,0 -134.541001,-0.5477 -131.35738,-8.734 z m 688.17496,-721.1817 c 8.11581,-311.70221 9.25877,-425.37567 4.22782,-420.48141 -4.40974,4.28996 -91.74844,243.13301 -171.03396,467.72261 l -24.16532,68.4524 50.93424,1.615 c 28.01384,0.8883 70.27339,2.0887 93.91014,2.6676 l 42.97589,1.0525 z"
     id="path110" />
  <path
     style="fill:#0033a0;fill-opacity:1;stroke-width:4.99088"
     d="m 1133.1448,1935.0252 c 9.5446,-46.1456 352.3065,-1834.72467 352.3065,-1838.384323 0,-2.557918 58.2492,-4.496947 135.09,-4.496947 126.3184,0 134.9216,0.567116 132.4952,8.73404 -1.4271,4.80371 -9.5536,49.16013 -18.0589,98.56981 -30.4308,176.78069 -90.8972,501.7354 -181.9585,977.86972 -50.8872,266.0751 -92.5222,487.8572 -92.5222,492.8491 0,8.6496 11.3776,9.0762 242.0576,9.0762 133.1316,0 242.0458,1.6844 242.0315,3.7431 -0.03,4.4741 -43.6138,238.4007 -47.4222,254.5348 l -2.6507,11.2294 H 1512.4095 1130.306 Z"
     id="path112" />
  <path
     style="fill:#0033a0;fill-opacity:1;stroke-width:4.99088"
     d="m 1989.5299,1944.641 c 0,-3.2924 317.4662,-1648.4649 347.6017,-1801.34058 l 8.1165,-41.17474 h 131.5753 c 104.8728,0 131.5752,1.32145 131.5752,6.51139 0,4.78786 -305.5555,1608.80263 -345.0641,1811.41553 l -5.5959,28.6975 h -134.1044 c -73.7574,0 -134.1043,-1.8491 -134.1043,-4.1091 z"
     id="path114" />
  <path
     style="fill:#0033a0;fill-opacity:1;stroke-width:4.99088"
     d="m 2356.0692,1902.5845 c 106.1421,-292.5976 225.3543,-605.9429 488.461,-1283.90306 l 201.4363,-519.051194 123.0912,-1.334908 123.0911,-1.334907 V 1022.8553 1948.7501 H 3154.8996 3017.6505 V 1779.0603 1609.3705 H 2873.7097 2729.769 l -32.8484,91.0835 c -18.0666,50.0959 -46.6654,126.4564 -63.5527,169.6898 l -30.7044,78.6063 h -131.6706 -131.6706 z m 666.583,-701.2182 c 0.01,-76.1732 1.416,-194.6442 3.1334,-263.26874 2.07,-82.7141 1.4497,-123.08959 -1.8401,-119.78104 -4.6183,4.64471 -190.9574,510.08418 -190.9574,517.96658 0,1.969 42.672,3.5801 94.8266,3.5801 h 94.8267 l 0.01,-138.4969 z"
     id="path116" />
  <path
     style="fill:#0033a0;fill-opacity:1;stroke-width:4.99088"
     d="m 3367.0119,1947.0673 c 0,-2.8018 353.959,-1826.61478 356.8488,-1838.70302 l 2.6845,-11.229473 h 131.2936 131.2936 l 16.1359,165.946653 c 34.4209,353.99502 71.1251,679.85211 77.2699,685.99693 2.8464,2.8464 4.1393,-3.37423 60.372,-290.46993 55.7615,-284.69032 106.8836,-540.24529 110.5721,-552.73962 2.3698,-8.027524 13.0555,-8.734033 132.0999,-8.734033 h 129.5216 l -2.5842,11.229473 c -1.4213,6.17621 -80.157,418.85934 -174.9681,917.07362 -94.8112,498.2143 -173.5718,909.7745 -175.0234,914.5782 -2.4266,8.0299 -13.2238,8.734 -133.9234,8.734 h -131.2841 l -2.8674,-18.7158 c -3.4952,-22.8143 -27.9867,-250.604 -48.4288,-450.4266 -23.9062,-233.6841 -42.8401,-382.9364 -47.9326,-377.8439 -1.1971,1.1972 -33.4043,159.1319 -71.5715,350.966 -38.1672,191.8342 -76.6137,381.9164 -85.4368,422.4049 l -16.0418,73.6154 h -129.0149 c -70.9582,0 -129.0149,-0.7572 -129.0149,-1.6828 z"
     id="path118" />
  <path
     style="fill:#0033a0;fill-opacity:1;stroke-width:4.99088"
     d="m 4630.6663,1973.3429 c -100.3801,-13.0322 -184.1303,-62.8582 -226.9598,-135.0266 -48.672,-82.0129 -52.7298,-153.2989 -19.5666,-343.736 45.5522,-261.5793 182.4763,-962.36409 206.1486,-1055.07934 37.0347,-145.05071 154.8345,-280.69966 287.9182,-331.54411 127.0379,-48.534648 277.9437,-44.502345 381.3425,10.18972 59.6585,31.55594 111.419,102.86462 124.3562,171.32157 6.8588,36.29309 2.4218,146.7539 -9.6154,239.37752 l -8.4319,64.8814 -141.6319,1.32652 -141.6319,1.32653 2.8277,-14.13846 c 8.5044,-42.52195 14.3213,-106.65854 12.139,-133.84448 -3.2343,-40.29373 -16.0465,-65.52225 -42.6966,-84.07409 -17.8762,-12.44413 -26.3322,-14.95763 -49.9087,-14.83512 -39.4649,0.20508 -87.048,22.08158 -106.532,48.97853 -29.4459,40.64886 -55.125,147.30205 -135.9361,564.58546 -114.2445,589.92245 -124.1617,656.24635 -104.0785,696.05755 13.8488,27.4528 34.9368,36.5862 85.3655,36.9722 87.4385,0.6694 113.3013,-32.8192 167.6228,-217.0477 l 12.6778,-42.9962 131.0557,-2.491 c 72.0806,-1.37 132.023,-1.6417 133.2054,-0.6037 3.3357,2.9283 -14.0113,91.6555 -33.0295,168.9411 -20.244,82.2668 -42.7347,131.2394 -88.7637,193.2791 -71.8558,96.8503 -193.2852,163.2618 -326.4059,178.5163 -48.4703,5.5543 -64.4751,5.5051 -109.4709,-0.3369 z"
     id="path120" />
  <path
     style="fill:#0033a0;fill-opacity:1;stroke-width:4.99088"
     d="m 5830.3343,1781.4792 3.63,-172.2618 -146.6056,1.3243 -146.6057,1.3242 -21.2721,59.8906 c -11.6996,32.9398 -39.7584,108.7387 -62.3527,168.4421 l -41.0807,108.5515 h -131.1508 c -72.133,0 -131.1842,-1.6844 -131.225,-3.7431 -0.041,-2.0588 159.8565,-419.7952 355.3273,-928.3031 L 5864.4006,92.14393 h 121.3014 121.3013 v 638.01 c 0,350.90547 -1.4909,769.76487 -3.3132,930.79857 l -3.3132,292.7885 h -136.8364 -136.8363 z m 9.0267,-475.3045 c 1.583,-18.5286 4.0201,-140.3684 5.4159,-270.755 l 2.5378,-237.06669 -10.657,22.45895 c -8.9227,18.80382 -188.815,511.55204 -188.815,517.18854 0,1.0244 42.444,1.8627 94.3201,1.8627 h 94.3201 z"
     id="path122" />
  <path
     style="fill:#000000;fill-opacity:1;stroke-width:4.99088"
     d="m 4356.3853,2294.6397 c -76.8271,-76.3225 -159.366,-161.2271 -183.4198,-188.6769 l -43.7342,-49.9088 115.8248,-1.3406 c 63.7036,-0.7373 165.7629,-0.7373 226.7984,0 l 110.9736,1.3406 -40.327,185.6254 c -22.1799,102.094 -41.7003,186.9987 -43.3786,188.677 -1.6784,1.6784 -65.9101,-59.3941 -142.7372,-135.7167 z"
     id="path124" />
  <path
     style="fill:#000000;fill-opacity:1;stroke-width:6.86027"
     d="m 4325.8312,2258.0356 c -92.7415,-93.0082 -172.088,-175.5839 -176.3253,-183.5014 l -7.7042,-14.3955 h 218.6796 218.6796 l -36.5958,166.2258 c -20.1276,91.4242 -39.187,173.9999 -42.3542,183.5015 -5.4677,16.403 -14.2753,8.7343 -174.3797,-151.8304 z"
     id="path136" />
</svg>
