<?xml version="1.0" encoding="utf-8"?>
<!-- Generator: Adobe Illustrator 16.0.0, SVG Export Plug-In . SVG Version: 6.00 Build 0)  -->
<!DOCTYPE svg PUBLIC "-//W3C//DTD SVG 1.1//EN" "http://www.w3.org/Graphics/SVG/1.1/DTD/svg11.dtd">
<svg version="1.1" id="Vrstva_1" xmlns="http://www.w3.org/2000/svg" xmlns:xlink="http://www.w3.org/1999/xlink" x="0px" y="0px"
	 width="346.333px" height="101.715px" viewBox="0 0 346.333 101.715" enable-background="new 0 0 346.333 101.715"
	 xml:space="preserve">
<rect x="308.682" y="43.811" fill="#EE4486" width="37.184" height="14.006"/>
<rect x="301.349" y="8.358" transform="matrix(0.866 -0.5 0.5 0.866 35.1827 162.0274)" fill="#EE4486" width="37.185" height="14.006"/>
<rect x="301.349" y="79.211" transform="matrix(-0.866 -0.5 0.5 -0.866 553.9156 320.8442)" fill="#EE4486" width="37.185" height="14.006"/>
<polygon fill="#302964" points="70.717,11.807 70.717,91.592 47.921,91.592 47.921,57.398 22.846,57.398 22.846,91.592 0,91.592 
	0,11.807 22.846,11.807 22.846,40.302 47.921,40.302 47.921,11.807 "/>
<polygon fill="#302964" points="125.347,91.592 83.142,91.592 83.142,11.807 105.938,11.807 105.938,74.495 130.323,74.495 "/>
<path fill="#302964" d="M189.372,91.592l-3.875-14.816h-24.962l-4.103,14.816h-22.796l25.075-79.785h31.914l22.796,79.785H189.372z
	 M164.637,61.957h16.983l-8.207-31.116L164.637,61.957z"/>
<path fill="#302964" d="M285.226,67.656c0,18.351-10.258,26.215-34.193,26.215s-34.193-7.521-34.193-25.075h20.516
	c0,7.182,4.104,10.258,13.678,10.258c8.776,0,12.538-2.394,12.538-7.979c0-15.956-45.592-6.838-45.592-35.333
	c0-18.35,9.916-26.215,33.054-26.215s33.054,7.522,33.054,25.075h-20.516c0-7.18-3.762-10.258-12.538-10.258
	c-7.979,0-11.397,2.394-11.397,7.979C239.635,44.86,285.226,36.882,285.226,67.656"/>
</svg>
