<?xml version="1.0" encoding="UTF-8"?>
<svg width="600" height="240" version="1.1" xmlns="http://www.w3.org/2000/svg">
 <path d="m401.89 10.19c-49.544 0.0987-57.631 24.052-57.506 88.674 0.13163 66.774 7.3513 88.075 57.863 87.97 15.795-0.0329 28.466-5.3224 37.068-14.201l3.1332 11.241 12.205-0.0193-0.18316-92.868-55.289 0.11569 0.0675 30.869 13.641-0.0289 0.01 7.4232c0.0263 14.847-2.8302 24.188-12.88 24.207-11.971 0.0197-13.655-7.4021-13.747-54.787-0.0987-46.438 1.7984-55.298 13.776-55.318 10.53-0.0197 12.702 10.744 12.735 26.058l41.638-0.0771c-0.0658-35.184-15.189-59.333-52.531-59.261zm-334.38 0.6652c-49.544 0.0987-57.631 24.039-57.506 88.674 0.13162 66.774 7.3548 88.066 57.853 87.96 37.342-0.0724 52.369-24.27 52.31-59.453l-41.647 0.0771c0.0263 15.795-2.3497 26.106-12.88 26.126-11.965 0.0263-13.655-7.4051-13.747-54.797-0.0987-46.431 1.802-55.288 13.767-55.308 10.537-0.0263 12.715 10.744 12.735 26.058l41.647-0.0868c-0.0658-35.184-15.189-59.323-52.531-59.251zm477.53 1.9281-38.051 0.0771-37.965 170.98 38.061-0.0868 4.2515-26.097 29.924-0.0579 4.3575 26.078 38.051-0.0771zm-215.19 0.42417-79.467 0.16387 0.34703 170.89 79.457-0.15424-0.0675-33.27-41.406 0.0771-0.0675-37.328 29.442-0.0675-0.0675-33.26-29.442 0.0482-0.0579-33.752 41.397-0.0771zm-93.832 0.18315-38.051 0.0771 0.13498 70.598-25.605 0.0578-0.14459-70.607-38.051 0.0771 0.33742 170.9 38.061-0.0771-0.13498-67.021 25.605-0.0482 0.14459 67.021 38.051-0.0771zm289.98 53.283 9.9298 60.061-19.628 0.0289z" fill="#251f52"/>
 <path d="m173.04 204.62 416.96-3.9356-0.19744 29.129-416.92-2.5799zm-38.737 24.805 0.1777-27.51 27.503 0.18428-0.18427 27.503z" fill="#e30613"/>
</svg>
