<?xml version="1.0" encoding="UTF-8" standalone="no"?>
<!-- Created with Inkscape (http://www.inkscape.org/) -->

<svg
   version="1.1"
   id="svg2"
   xml:space="preserve"
   width="1000"
   height="956.43488"
   viewBox="0 0 1000 956.43488"
   xmlns="http://www.w3.org/2000/svg"
   xmlns:svg="http://www.w3.org/2000/svg"><defs
     id="defs6"><clipPath
       clipPathUnits="userSpaceOnUse"
       id="clipPath18"><path
         d="M 0,1080 H 1920 V 0 H 0 Z"
         id="path16" /></clipPath><clipPath
       clipPathUnits="userSpaceOnUse"
       id="clipPath46"><path
         d="M 0,1080 H 1920 V 0 H 0 Z"
         id="path44" /></clipPath><clipPath
       clipPathUnits="userSpaceOnUse"
       id="clipPath100"><path
         d="m 957.331,185.998 h 632.005 V 956.381 H 957.331 Z"
         id="path98" /></clipPath></defs><g
     id="g1210"
     style="display:inline"
     transform="matrix(1.4344342,0,0,1.4344342,-1936.8691,-248.97192)"><path
       d="m 1734.9378,199.79803 56.2627,173.16 c 5.0826,15.64 19.656,26.22933 36.1013,26.22933 h 182.072 c 36.772,0 52.0613,47.05466 22.312,68.668 l -147.3,107.01999 c -13.3027,9.66667 -18.8693,26.79867 -13.788,42.43867 l 56.2627,173.16133 c 11.3626,34.972 -28.664,64.05333 -58.4134,42.43866 L 1721.1485,725.89535 c -13.304,-9.66533 -31.32,-9.66533 -44.624,0 l -147.2987,107.01866 c -29.7493,21.61467 -69.7773,-7.46666 -58.4133,-42.43866 l 56.2626,-173.16133 c 5.0827,-15.64 -0.4853,-32.772 -13.7893,-42.43867 L 1365.9871,467.85536 c -29.7493,-21.61334 -14.46,-68.668 22.312,-68.668 h 182.0707 c 16.4453,0 31.02,-10.58933 36.1027,-26.22933 l 56.2626,-173.16 c 11.3627,-34.97333 60.84,-34.97333 72.2027,0"
       style="display:inline;fill:#e4142c;fill-opacity:1;fill-rule:nonzero;stroke:none;stroke-width:1.33333"
       id="path104" /><path
       d="m 1759.4033,507.90322 c 0,-4.79333 -2.396,-7.19067 -7.1893,-7.19067 h -33.5574 c -4.5546,0 -7.1906,-2.636 -7.1906,-7.19066 v -26.84534 c 0,-4.79333 2.636,-7.18933 7.1906,-7.18933 h 122.72 c 4.7934,0 7.1907,2.396 7.1907,7.18933 v 26.84534 c 0,4.55466 -2.3973,7.19066 -7.1907,7.19066 h -33.556 c -4.5546,0 -7.1893,2.39734 -7.1893,7.19067 v 112.17466 c 0,4.55334 -2.3973,7.19067 -7.192,7.19067 h -26.8453 c -4.5534,0 -7.1907,-2.63733 -7.1907,-7.19067 z m -121.2853,25.408 c 11.5053,0 17.2586,-1.43867 17.2586,-16.29867 0,-14.86133 -5.7533,-16.3 -17.2586,-16.3 h -12.9427 c -4.5533,0 -7.1893,2.39734 -7.1893,7.19067 v 18.21733 c 0,4.55334 2.636,7.19067 7.1893,7.19067 z m -1.4374,-73.824 c 42.6654,0 59.9227,18.216 59.9227,57.52533 0,39.30934 -17.2573,57.52534 -59.9227,57.52534 h -11.5053 c -4.5533,0 -7.1893,2.39599 -7.1893,7.18933 v 38.35066 c 0,4.79467 -2.3974,7.19067 -7.192,7.19067 h -26.8454 c -4.5533,0 -7.1906,-2.63733 -7.1906,-7.19067 V 466.91655 c 0,-4.79333 2.3973,-7.19066 7.1906,-7.42933 z"
       style="display:inline;fill:#ffffff;fill-opacity:1;fill-rule:nonzero;stroke:none;stroke-width:1.33333"
       id="path108" /></g></svg>
