<?xml version="1.0" encoding="UTF-8" standalone="no"?>
<!-- Created with Inkscape (http://www.inkscape.org/) -->

<svg
   xmlns:dc="http://purl.org/dc/elements/1.1/"
   xmlns:cc="http://creativecommons.org/ns#"
   xmlns:rdf="http://www.w3.org/1999/02/22-rdf-syntax-ns#"
   xmlns:svg="http://www.w3.org/2000/svg"
   xmlns="http://www.w3.org/2000/svg"
   xmlns:sodipodi="http://sodipodi.sourceforge.net/DTD/sodipodi-0.dtd"
   xmlns:inkscape="http://www.inkscape.org/namespaces/inkscape"
   width="167.40109mm"
   height="167.40109mm"
   viewBox="0 0 167.40109 167.40109"
   version="1.1"
   id="svg8"
   inkscape:version="0.92.4 (5da689c313, 2019-01-14)"
   sodipodi:docname="Movimento de Esquerda Socialista logo, 1976.svg">
  <defs
     id="defs2" />
  <sodipodi:namedview
     id="base"
     pagecolor="#ffffff"
     bordercolor="#666666"
     borderopacity="1.0"
     inkscape:pageopacity="0.0"
     inkscape:pageshadow="2"
     inkscape:zoom="0.25999697"
     inkscape:cx="606.40162"
     inkscape:cy="370.05089"
     inkscape:document-units="mm"
     inkscape:current-layer="layer1"
     showgrid="false"
     showguides="true"
     inkscape:guide-bbox="true"
     inkscape:window-width="1366"
     inkscape:window-height="705"
     inkscape:window-x="-8"
     inkscape:window-y="-8"
     inkscape:window-maximized="1"
     fit-margin-top="0"
     fit-margin-left="0"
     fit-margin-right="0"
     fit-margin-bottom="0" />
  <metadata
     id="metadata5">
    <rdf:RDF>
      <cc:Work
         rdf:about="">
        <dc:format>image/svg+xml</dc:format>
        <dc:type
           rdf:resource="http://purl.org/dc/dcmitype/StillImage" />
        <dc:title></dc:title>
      </cc:Work>
    </rdf:RDF>
  </metadata>
  <g
     inkscape:label="Layer 1"
     inkscape:groupmode="layer"
     id="layer1"
     transform="translate(174.25588,-5.4911804)">
    <g
       id="g539">
      <circle
         r="83.700546"
         cy="89.191727"
         cx="-90.555336"
         id="path21"
         style="fill:#e90a00;fill-opacity:1;stroke-width:0.09936125;stroke-miterlimit:4;stroke-dasharray:none" />
      <path
         inkscape:transform-center-x="1.9918014e-06"
         transform="matrix(1.3146699,0,0,1.3171356,-208.14939,-7.6682515)"
         inkscape:transform-center-y="-2.3746649"
         d="m 61.359215,16.511791 4.173777,12.809076 13.471923,0.01128 -10.892386,7.92772 4.152328,12.816045 -10.905642,-7.909475 -10.905643,7.909474 4.152329,-12.816044 -10.892386,-7.927721 13.471922,-0.01128 z"
         inkscape:randomized="0"
         inkscape:rounded="0"
         inkscape:flatsided="false"
         sodipodi:arg2="-0.94247777"
         sodipodi:arg1="-1.5707963"
         sodipodi:r2="7.1008544"
         sodipodi:r1="18.553787"
         sodipodi:cy="35.065578"
         sodipodi:cx="61.359215"
         sodipodi:sides="5"
         id="path27"
         style="fill:#ffc906;fill-opacity:1;stroke-width:0.1;stroke-miterlimit:4;stroke-dasharray:none"
         sodipodi:type="star" />
      <path
         inkscape:connector-curvature="0"
         id="path158"
         d="m -117.63814,100.42811 c -0.37342,0 -0.71977,0.0798 -1.05162,0.18139 -0.0473,0.0146 -0.10052,0.0157 -0.14934,0.0264 -0.013,0.005 -0.0269,0.008 -0.0398,0.0129 -0.0357,0.0135 -0.0694,0.0303 -0.10439,0.045 -0.10305,0.057 -0.19358,0.13015 -0.29817,0.18655 -0.64798,0.35698 -1.1511,0.90017 -1.37614,1.55753 -0.0838,0.25479 -0.13023,0.52414 -0.13023,0.80409 v 36.27375 c 0,0.3897 0.087,0.76023 0.24495,1.09709 0.15794,0.33686 0.38689,0.64022 0.66972,0.89452 0.28284,0.2543 0.6196,0.45949 0.99426,0.60151 0.37466,0.14201 0.78718,0.22066 1.2206,0.22066 h 3.68142 c 0.43342,0 0.84594,-0.0786 1.2206,-0.22066 0.37466,-0.14202 0.71142,-0.34721 0.99426,-0.60151 0.28283,-0.2543 0.51178,-0.55766 0.66972,-0.89452 0.14394,-0.30698 0.22531,-0.64285 0.23927,-0.99477 v -20.17241 c 0,-0.0269 0.003,-0.0528 0.003,-0.0796 l 4.69273,8.67647 c 1.02587,1.89669 2.68327,1.88665 3.71605,-0.0227 l 4.680853,-8.65373 c 3.02e-4,0.0268 0.0026,0.0527 0.0026,0.0796 v 20.16311 c 0.01281,0.35534 0.09461,0.69438 0.239779,1.00407 0.157903,0.33686 0.386437,0.64022 0.66921,0.89452 0.282771,0.2543 0.62016,0.45949 0.99477,0.60151 0.374605,0.14201 0.786667,0.22066 1.220081,0.22066 h 3.681942 c 0.43341,0 0.84595,-0.0786 1.2206,-0.22066 0.37466,-0.14202 0.71142,-0.34721 0.99426,-0.60151 0.28284,-0.2543 0.51176,-0.55766 0.66972,-0.89452 0.15795,-0.33686 0.24495,-0.70739 0.24495,-1.09709 V 103.2419 c 0,-0.28853 -0.0481,-0.56623 -0.13694,-0.82786 -0.003,-0.009 -0.007,-0.0186 -0.0103,-0.0279 -0.0179,-0.0507 -0.0395,-0.0999 -0.0605,-0.14934 -0.25358,-0.57001 -0.72162,-1.04118 -1.30638,-1.36116 -0.10335,-0.0554 -0.19283,-0.1275 -0.29456,-0.18345 -5.6e-4,-2.3e-4 -9.8e-4,-8e-4 -0.002,-10e-4 -0.0331,-0.0138 -0.065,-0.0296 -0.0987,-0.0424 -0.0121,-0.005 -0.025,-0.008 -0.0372,-0.0124 -0.0535,-0.0127 -0.11253,-0.0135 -0.16484,-0.0295 -0.32822,-0.0992 -0.66953,-0.1788 -1.03818,-0.1788 h -4.705659 c -0.333251,0 -0.654169,0.0443 -0.954979,0.1261 -0.300803,0.0818 -0.581422,0.20114 -0.835092,0.35191 -0.253671,0.15077 -0.479964,0.33254 -0.671795,0.5395 -0.0799,0.0862 -0.152204,0.17791 -0.219623,0.27234 l -4.082437,7.54734 c -1.03279,1.90943 -2.69018,1.91943 -3.71606,0.0227 l -4.09483,-7.5706 c -0.0673,-0.0942 -0.13934,-0.18576 -0.21911,-0.27182 -0.19183,-0.20696 -0.41813,-0.38873 -0.67179,-0.5395 -0.25368,-0.15077 -0.53429,-0.27012 -0.8351,-0.35191 -0.30081,-0.0818 -0.62173,-0.1261 -0.95498,-0.1261 z"
         style="fill:#0b090a;fill-opacity:1;stroke-width:0.1;stroke-miterlimit:4;stroke-dasharray:none" />
      <path
         inkscape:connector-curvature="0"
         id="rect118"
         d="m -81.532255,100.4294 c -0.62521,0 -1.16649,0.38499 -1.54616,0.96686 -0.13775,0.2548 -0.26461,0.52965 -0.34623,0.84956 -0.0957,0.37497 -0.14831,0.78737 -0.14831,1.22112 v 0.94981 2.83859 13.33045 c -0.004,0.10627 -0.008,0.21291 -0.008,0.32143 v 0.94619 c 0,0.10852 0.004,0.21516 0.008,0.32143 v 16.07188 0.94982 c 0,0.43375 0.0526,0.84615 0.14831,1.22111 0.0957,0.37496 0.23435,0.71273 0.40566,0.99581 0.12085,0.19971 0.27529,0.33239 0.42529,0.47232 0.084,0.0687 0.15202,0.16673 0.2434,0.21911 0.0297,0.0187 0.0646,0.0157 0.0951,0.032 0.22353,0.11165 0.46012,0.19006 0.71314,0.19172 h 17.86557 c 0.27815,-0.002 0.54285,-0.0773 0.78445,-0.21084 0.005,-0.003 0.0113,-0.003 0.0165,-0.006 0.12165,-0.0688 0.21463,-0.19373 0.32298,-0.29094 0.12637,-0.12841 0.2626,-0.23537 0.3669,-0.40772 0.17131,-0.28308 0.31,-0.62085 0.40566,-0.99581 0.0957,-0.37496 0.14831,-0.78736 0.14831,-1.22111 v -3.7884 c 0,-0.41306 -0.0482,-0.80672 -0.13539,-1.16686 -0.0872,-0.36013 -0.21337,-0.68698 -0.37052,-0.96583 -0.15714,-0.27884 -0.34527,-0.50984 -0.555,-0.67903 -0.13711,-0.1106 -0.2843,-0.19179 -0.4377,-0.24546 h -6.53035 c -1.52211,0 -2.74764,-1.29627 -2.74764,-2.90628 v -0.69246 c 0,-1.61002 1.22553,-2.90577 2.74764,-2.90577 h 6.28178 v -0.0367 c 0.1236,-0.0178 0.24381,-0.0601 0.35967,-0.12454 0.11586,-0.0644 0.22739,-0.15084 0.33331,-0.25735 0.21185,-0.21303 0.40183,-0.50585 0.56069,-0.8599 0.15886,-0.35404 0.28641,-0.76929 0.37466,-1.22783 0.0882,-0.45853 0.13694,-0.96022 0.13694,-1.48673 v -0.94619 c 0,-0.52651 -0.0487,-1.0282 -0.13694,-1.48673 -0.0883,-0.45854 -0.2158,-0.87379 -0.37466,-1.22784 -0.15886,-0.35404 -0.34884,-0.64686 -0.56069,-0.85989 -0.10592,-0.10652 -0.21745,-0.19294 -0.33331,-0.25735 -0.11586,-0.0644 -0.23607,-0.10679 -0.35967,-0.12454 v -0.0367 h -6.28178 c -1.52211,0 -2.74764,-1.29575 -2.74764,-2.90577 v -0.69246 c 0,-1.61002 1.22553,-2.90628 2.74764,-2.90628 h 6.28178 v -0.0352 c 0.24501,-0.0311 0.47653,-0.13828 0.68627,-0.30747 0.20973,-0.16919 0.39786,-0.40018 0.555,-0.67903 0.15715,-0.27884 0.28329,-0.60569 0.37052,-0.96583 0.0872,-0.36013 0.13539,-0.7538 0.13539,-1.16685 v -3.7884 c 0,-0.43375 -0.0526,-0.84615 -0.14831,-1.22112 -0.0677,-0.26543 -0.18023,-0.48305 -0.28732,-0.70487 -0.37855,-0.6597 -0.94669,-1.11155 -1.61902,-1.11155 z"
         style="fill:#0b090a;fill-opacity:1;stroke-width:0.08243071;stroke-miterlimit:4;stroke-dasharray:none" />
      <path
         sodipodi:nodetypes="cccsccccccccccccccccc"
         inkscape:connector-curvature="0"
         id="rect118-7"
         d="m -47.079215,100.81096 c -2.05579,-0.037 -4.60876,0.18852 -6.46901,1.12025 -2.09954,1.55719 -2.86916,3.70273 -3.50935,6.10553 -0.6623,2.48575 -0.79876,6.07914 0.0802,8.72132 0.85771,2.57827 2.32695,4.08195 3.66917,6.26812 1.25908,2.48768 3.66874,4.32338 4.13867,7.2245 0.53194,1.80782 -1.56873,3.13631 -2.98329,1.97018 -1.25426,-0.56935 -2.77019,-2.1884 -4.08037,-0.8575 -1.47304,1.49456 -0.77098,3.78411 -0.61805,5.63093 -0.11394,2.90279 2.60061,5.37826 5.43688,5.19439 3.62557,0 6.93654,0.6416 10.15494,-0.82113 3.31378,-1.62727 4.32277,-5.74375 4.01939,-9.16384 0.20234,-3.05547 -1.03072,-5.28413 -1.9979,-7.25506 l -2.42105,-3.25816 c -1.30056,-1.91559 -3.51861,-5.03796 -4.75982,-6.98971 -0.7953,-1.16238 -0.90767,-3.34484 0.7519,-3.76417 2.40431,-0.67112 4.54999,1.10212 6.46575,2.30122 0.78882,0.22086 1.66629,-0.10108 2.05414,-0.84192 0.92517,-1.87984 0.68216,-4.0811 0.58756,-6.10801 -0.35137,-2.78122 -2.32601,-4.219 -5.79138,-5.15282 -2.5505,-0.23989 -2.04789,-0.21242 -4.72838,-0.32412 z"
         style="fill:#0b090a;fill-opacity:1;stroke-width:0.08218028;stroke-miterlimit:4;stroke-dasharray:none" />
    </g>
  </g>
</svg>
