<?xml version="1.0" encoding="utf-8"?>
<!DOCTYPE svg PUBLIC "-//W3C//DTD SVG 1.1//EN" "http://www.w3.org/Graphics/SVG/1.1/DTD/svg11.dtd">
<svg version="1.1" id="Layer_1" xmlns="http://www.w3.org/2000/svg" xmlns:xlink="http://www.w3.org/1999/xlink" x="0px" y="0px"
	 viewBox="0 0 277.795 198.425" enable-background="new 0 0 277.795 198.425" xml:space="preserve">
<g>
	<path fill="#0096BE" d="M48.633,153.524c0,6.722,2.672,9.141,8.818,7.798l4.542-1.076c5.611-1.344,8.016-4.84,8.016-10.217v-26.618
		c0-6.721-2.939-8.334-8.016-7.259l-5.611,1.345c-5.344,1.613-7.749,4.84-7.749,10.217V153.524z M57.183,126.1
		c0-1.075,0.534-1.613,1.603-1.882l1.069-0.269c1.069-0.269,1.603,0,1.603,1.075v26.349c0,1.344-0.535,1.883-1.603,2.151
		l-1.069,0.269c-1.069,0.269-1.603-0.269-1.603-1.613V126.1z"/>
	<path fill="#0096BE" d="M36.608,123.142l-11.49,3.226v43.557l8.551-2.42v-15.056l4.008-1.076c5.344-1.344,7.749-4.84,7.749-10.217
		v-11.292C45.426,123.142,42.219,121.529,36.608,123.142z M36.875,142.501c0,1.076-0.267,1.613-1.336,1.882l-1.87,0.537v-13.443
		l1.87-0.538c1.069-0.268,1.336,0.269,1.336,1.344V142.501z"/>
	<polygon fill="#0096BE" points="8.551,87.92 12.559,86.845 12.559,122.605 21.11,120.453 21.11,76.897 0,82.543 0,126.1 
		8.551,123.68 	"/>
	<polygon fill="#0096BE" points="8.551,138.468 12.559,137.392 12.559,173.152 21.11,171.001 21.11,127.444 0,133.09 0,176.647 
		8.551,174.228 	"/>
	<path fill="#0096BE" d="M40.883,71.519l-11.758,3.226l-5.611,44.901l7.749-2.151l0.535-6.453l5.611-1.613l0.534,6.453l8.551-2.42
		L40.883,71.519z M32.6,103.246l1.871-19.627l2.138,18.552L32.6,103.246z"/>
	<path fill="#0096BE" d="M155.25,106.741v-6.183c0-6.722-2.939-8.604-9.086-6.991l-4.008,1.075
		c-5.344,1.344-8.016,4.84-8.016,10.217v25.812c0,7.259,2.939,9.141,9.352,7.528l4.009-1.075c5.344-1.344,8.016-4.84,8.016-10.217
		v-9.679l-8.551,2.42v8.873c0,1.344-0.534,1.882-1.603,2.151l-1.069,0.268c-1.069,0.269-1.603-0.268-1.603-1.613v-26.08
		c0-1.075,0.534-1.882,1.603-2.151l1.069-0.269c1.069-0.268,1.603,0.269,1.603,1.345v6.722L155.25,106.741z"/>
	<path fill="#0096BE" d="M118.375,79.854v14.25l8.551-2.42v-14.25c0-1.075,0.267-1.882,1.336-2.151l2.405-0.538v16.132l8.551-2.42
		V44.901l-13.094,3.495c-5.345,1.613-7.749,4.839-7.749,10.217v8.873c0,3.764,1.336,5.377,3.741,5.377
		C119.176,74.746,118.375,76.628,118.375,79.854z M126.925,57.269c0-1.075,0.267-1.613,1.336-1.882l2.405-0.538v12.637l-2.405,0.538
		c-1.069,0.269-1.336-0.269-1.336-1.344V57.269z"/>
	<polygon fill="#0096BE" points="115.435,145.458 131.468,141.156 131.468,133.359 123.986,135.241 123.986,124.755 
		130.934,122.873 130.934,115.076 123.986,116.958 123.986,107.279 131.201,105.397 131.201,97.6 115.435,101.901 	"/>
	<path fill="#0096BE" d="M179.566,100.019v-6.184c0-6.721-2.94-8.603-9.086-6.99l-4.008,1.075c-5.344,1.345-8.016,4.84-8.016,10.217
		v25.812c0,7.259,2.94,9.141,9.352,7.528l4.009-1.076c5.344-1.344,8.016-4.84,8.016-10.217v-9.679l-8.551,2.42v8.873
		c0,1.344-0.535,1.882-1.604,2.151l-1.069,0.269c-1.069,0.269-1.603-0.269-1.603-1.613V96.524c0-1.076,0.534-1.882,1.603-2.151
		l1.069-0.269c1.069-0.269,1.604,0.269,1.604,1.344v6.722L179.566,100.019z"/>
	<path fill="#0096BE" d="M195.599,117.496l0.534,6.184l8.818-2.42l-5.878-41.943l-11.758,3.226l-5.611,45.17l7.749-2.151
		l0.801-6.722L195.599,117.496z M192.927,91.415l1.87,18.552l-3.741,1.076L192.927,91.415z"/>
	<polygon fill="#0096BE" points="90.05,58.076 71.345,63.184 71.345,70.981 76.423,69.637 76.423,105.397 84.973,103.246 
		84.973,67.486 90.05,65.873 	"/>
	<path fill="#0096BE" d="M91.654,151.911l8.551-2.42v-15.057l4.008-1.076c5.344-1.344,8.016-4.839,8.016-10.216v-11.024
		c0-6.722-3.207-8.604-9.085-6.991l-11.49,3.226V151.911z M100.204,113.463l1.87-0.538c1.069-0.269,1.604,0.269,1.604,1.344v10.217
		c0,1.075-0.535,1.613-1.604,1.881l-1.87,0.538V113.463z"/>
	<polygon fill="#0096BE" points="73.75,156.751 82.301,154.331 82.301,118.571 88.981,116.689 88.981,108.892 73.75,113.194 	"/>
	<path fill="#0096BE" d="M57.451,95.448l4.008-1.075c5.344-1.344,8.016-4.84,8.016-10.217V73.132c0-6.722-3.206-8.604-9.085-6.991
		l-11.49,3.227v43.557l8.551-2.42V95.448z M57.451,74.477l1.87-0.538c1.069-0.269,1.604,0.269,1.604,1.344V85.5
		c0,1.076-0.534,1.613-1.604,1.882l-1.87,0.538V74.477z"/>
	<polygon fill="#0096BE" points="92.722,57.538 92.722,101.095 99.937,99.213 106.884,72.864 106.884,97.331 114.634,95.18 
		114.634,51.623 107.152,53.505 100.471,79.854 100.471,55.387 	"/>
	<polygon fill="#0096BE" points="277.795,0 224.191,14.451 224.191,0 0,60.495 0,75.014 209.761,18.283 209.761,18.341 
		209.761,127.175 0,183.907 0,198.425 209.761,141.694 209.761,156.174 209.761,156.213 277.795,137.833 	"/>
</g>
</svg>
