<?xml version="1.0" encoding="UTF-8" standalone="no"?>
<!-- Created with Inkscape (http://www.inkscape.org/) -->

<svg
   xmlns:dc="http://purl.org/dc/elements/1.1/"
   xmlns:cc="http://creativecommons.org/ns#"
   xmlns:rdf="http://www.w3.org/1999/02/22-rdf-syntax-ns#"
   xmlns:svg="http://www.w3.org/2000/svg"
   xmlns="http://www.w3.org/2000/svg"
   xmlns:xlink="http://www.w3.org/1999/xlink"
   xmlns:sodipodi="http://sodipodi.sourceforge.net/DTD/sodipodi-0.dtd"
   xmlns:inkscape="http://www.inkscape.org/namespaces/inkscape"
   width="241.48479"
   height="300"
   id="svg2"
   version="1.1"
   inkscape:version="0.48.4 r9939"
   sodipodi:docname="LIBERTAS 1.svg">
  <defs
     id="defs4">
    <linearGradient
       id="linearGradient4272">
      <stop
         style="stop-color:#f2f2f2;stop-opacity:1;"
         offset="0"
         id="stop4274" />
      <stop
         id="stop4280"
         offset="1"
         style="stop-color:#e1e1e1;stop-opacity:1;" />
    </linearGradient>
    <linearGradient
       id="linearGradient4149">
      <stop
         style="stop-color:#ffffff;stop-opacity:1;"
         offset="0"
         id="stop4151" />
      <stop
         id="stop4159"
         offset="0.5"
         style="stop-color:#d6d6d6;stop-opacity:1;" />
      <stop
         style="stop-color:#a6a6a6;stop-opacity:1;"
         offset="1"
         id="stop4153" />
    </linearGradient>
    <linearGradient
       id="linearGradient4125">
      <stop
         style="stop-color:#ff7f7f;stop-opacity:1;"
         offset="0"
         id="stop4127" />
      <stop
         id="stop4203"
         offset="0.5"
         style="stop-color:#ff1500;stop-opacity:1;" />
      <stop
         style="stop-color:#e01500;stop-opacity:1;"
         offset="1"
         id="stop4129" />
    </linearGradient>
    <linearGradient
       id="linearGradient4009">
      <stop
         style="stop-color:#0055d4;stop-opacity:1;"
         offset="0"
         id="stop4011" />
      <stop
         style="stop-color:#0044aa;stop-opacity:1;"
         offset="1"
         id="stop4013" />
    </linearGradient>
    <linearGradient
       id="linearGradient4150">
      <stop
         id="stop4162"
         offset="0"
         style="stop-color:#e90000;stop-opacity:1;" />
      <stop
         id="stop4158"
         offset="0.5"
         style="stop-color:#ff1500;stop-opacity:1;" />
      <stop
         style="stop-color:#e90000;stop-opacity:1;"
         offset="1"
         id="stop4164" />
    </linearGradient>
    <filter
       inkscape:collect="always"
       id="filter4187"
       color-interpolation-filters="sRGB">
      <feGaussianBlur
         inkscape:collect="always"
         stdDeviation="1.6465625"
         id="feGaussianBlur4189" />
    </filter>
    <filter
       inkscape:collect="always"
       id="filter4272"
       color-interpolation-filters="sRGB">
      <feGaussianBlur
         inkscape:collect="always"
         stdDeviation="0.44437537"
         id="feGaussianBlur4274" />
    </filter>
    <linearGradient
       inkscape:collect="always"
       xlink:href="#linearGradient4150"
       id="linearGradient4297"
       gradientUnits="userSpaceOnUse"
       x1="648"
       y1="753.625"
       x2="809.15625"
       y2="753.625" />
    <radialGradient
       inkscape:collect="always"
       xlink:href="#linearGradient4150-8"
       id="radialGradient3913-8"
       cx="1435.4097"
       cy="973.5625"
       fx="1435.4097"
       fy="973.5625"
       r="127.02137"
       gradientTransform="matrix(1.5358475,0,0,1.8136879,-769.1607,-792.17599)"
       gradientUnits="userSpaceOnUse" />
    <linearGradient
       id="linearGradient4150-8">
      <stop
         id="stop4162-2"
         offset="0"
         style="stop-color:#e90000;stop-opacity:1;" />
      <stop
         id="stop4158-7"
         offset="0.5"
         style="stop-color:#ff1500;stop-opacity:1;" />
      <stop
         style="stop-color:#e90000;stop-opacity:1;"
         offset="1"
         id="stop4164-7" />
    </linearGradient>
    <filter
       inkscape:collect="always"
       id="filter3950"
       color-interpolation-filters="sRGB">
      <feGaussianBlur
         inkscape:collect="always"
         stdDeviation="1.0006172"
         id="feGaussianBlur3952" />
    </filter>
  </defs>
  <sodipodi:namedview
     id="base"
     pagecolor="#ffffff"
     bordercolor="#666666"
     borderopacity="1.0"
     inkscape:pageopacity="0.0"
     inkscape:pageshadow="2"
     inkscape:zoom="0.99999999"
     inkscape:cx="334.14497"
     inkscape:cy="162.47297"
     inkscape:document-units="px"
     inkscape:current-layer="layer1"
     showgrid="false"
     inkscape:window-width="1920"
     inkscape:window-height="1017"
     inkscape:window-x="-8"
     inkscape:window-y="-8"
     inkscape:window-maximized="1"
     showguides="true"
     inkscape:guide-bbox="true"
     fit-margin-top="0"
     fit-margin-left="0"
     fit-margin-right="0"
     fit-margin-bottom="0" />
  <metadata
     id="metadata7">
    <rdf:RDF>
      <cc:Work
         rdf:about="">
        <dc:format>image/svg+xml</dc:format>
        <dc:type
           rdf:resource="http://purl.org/dc/dcmitype/StillImage" />
        <dc:title></dc:title>
      </cc:Work>
    </rdf:RDF>
  </metadata>
  <g
     inkscape:label="DC Logo"
     inkscape:groupmode="layer"
     id="layer1"
     transform="translate(-819.60713,-778.26338)"
     sodipodi:insensitive="true">
    <g
       id="g4287"
       transform="matrix(1.475561,0,0,1.475561,-134.71195,-183.94073)">
      <path
         d="m 649.59375,654.9375 0,67.28125 c 0,29.13776 0.5054,38.18309 20.625,73.03125 18.59367,32.20519 54.34851,54.3345 58.34375,56.75 3.99524,-2.4155 39.75008,-24.54481 58.34375,-56.75 20.12023,-34.84927 20.65625,-43.89553 20.65625,-73.03125 l 0,-67.28125 -79,0 -78.96875,0 z"
         id="path4160"
         style="fill:#ffffff;fill-opacity:1;stroke:none"
         inkscape:original="M 646.75 652.09375 L 646.75 722.21875 C 646.75 751.40712 647.52554 761.65771 667.75 796.6875 C 687.97446 831.7173 728.5625 855.40625 728.5625 855.40625 C 728.5625 855.40625 769.15054 831.7173 789.375 796.6875 C 809.59946 761.65771 810.40625 751.40712 810.40625 722.21875 L 810.40625 652.09375 L 728.5625 652.09375 L 646.75 652.09375 z "
         inkscape:radius="-2.8571429"
         sodipodi:type="inkscape:offset" />
      <path
         id="path4166"
         d="m 653.3125,658.65625 0,40.34375 60.625,0 0,-40.34375 -60.625,0 z m 89.71875,0 0,40.34375 60.8125,0 0,-40.34375 -60.8125,0 z m -89.6875,71.71875 c 0.20981,22.6128 2.14765,31.94771 20.09375,63.03125 10.89942,18.87836 27.88045,34.19472 40.5,43.90625 l 0,-106.9375 -60.59375,0 z m 89.6875,0 0,107.0625 c 12.63509,-9.70481 29.71134,-25.0741 40.65625,-44.03125 17.94741,-31.08582 19.91027,-40.42147 20.125,-63.03125 l -60.78125,0 z"
         style="opacity:0.5;fill:none;stroke:#000000;filter:url(#filter4187)"
         inkscape:connector-curvature="0" />
      <path
         id="path4113"
         d="m 646.75,652.09375 0,70.125 c 0,29.18837 0.77554,39.43896 21,74.46875 20.22446,35.0298 60.8125,58.71875 60.8125,58.71875 0,0 40.58804,-23.68895 60.8125,-58.71875 20.22446,-35.02979 21.03125,-45.28038 21.03125,-74.46875 l 0,-70.125 -81.84375,0 -81.8125,0 z m 6.5625,6.5625 60.625,0 0,40.34375 -60.625,0 0,-40.34375 z m 89.71875,0 60.8125,0 0,40.34375 -60.8125,0 0,-40.34375 z m -89.6875,71.71875 60.59375,0 0,106.9375 c -12.61955,-9.71153 -29.60058,-25.02789 -40.5,-43.90625 C 655.4914,762.32271 653.55356,752.9878 653.34375,730.375 z m 89.6875,0 60.78125,0 c -0.21473,22.60978 -2.17759,31.94543 -20.125,63.03125 -10.94491,18.95715 -28.02116,34.32644 -40.65625,44.03125 l 0,-107.0625 z"
         style="fill:#ff2a2a;fill-opacity:1;stroke:none"
         inkscape:connector-curvature="0" />
      <path
         d="m 648,653.34375 0,68.875 c 0,29.166 0.66563,38.89423 20.84375,73.84375 19.50625,33.78583 57.87584,56.75155 59.71875,57.84375 1.84291,-1.0922 40.2125,-24.05792 59.71875,-57.84375 20.1784,-34.95001 20.875,-44.67865 20.875,-73.84375 l 0,-68.875 -80.59375,0 -80.5625,0 z m 5.09375,4.0625 a 1.2628169,1.2628169 0 0 1 0.21875,0 l 60.625,0 a 1.2628169,1.2628169 0 0 1 1.25,1.25 l 0,40.34375 a 1.2628169,1.2628169 0 0 1 -1.25,1.25 l -60.625,0 a 1.2628169,1.2628169 0 0 1 -1.25,-1.25 l 0,-40.34375 a 1.2628169,1.2628169 0 0 1 1.03125,-1.25 z m 89.71875,0 a 1.2628169,1.2628169 0 0 1 0.21875,0 l 60.8125,0 a 1.2628169,1.2628169 0 0 1 1.25,1.25 l 0,40.34375 a 1.2628169,1.2628169 0 0 1 -1.25,1.25 l -60.8125,0 a 1.2628169,1.2628169 0 0 1 -1.25,-1.25 l 0,-40.34375 a 1.2628169,1.2628169 0 0 1 1.03125,-1.25 z M 653.125,729.125 a 1.2628169,1.2628169 0 0 1 0.21875,0 l 60.59375,0 a 1.2628169,1.2628169 0 0 1 1.25,1.25 l 0,106.9375 a 1.2628169,1.2628169 0 0 1 -2.03125,1 c -12.6942,-9.76898 -29.777,-25.16719 -40.8125,-44.28125 -17.98115,-31.14426 -20.03955,-40.97454 -20.25,-63.65625 a 1.2628169,1.2628169 0 0 1 1.03125,-1.25 z m 89.6875,0 a 1.2628169,1.2628169 0 0 1 0.21875,0 l 60.78125,0 a 1.2628169,1.2628169 0 0 1 1.25,1.25 c -0.21539,22.67955 -2.29904,32.51015 -20.28125,63.65625 -11.0815,19.19373 -28.25878,34.64393 -40.96875,44.40625 a 1.2628169,1.2628169 0 0 1 -2.03125,-1 l 0,-107.0625 a 1.2628169,1.2628169 0 0 1 1.03125,-1.25 z"
         id="path4193"
         style="fill:url(#linearGradient4297);fill-opacity:1;stroke:none"
         inkscape:original="M 646.75 652.09375 L 646.75 722.21875 C 646.75 751.40712 647.52554 761.65771 667.75 796.6875 C 687.97446 831.7173 728.5625 855.40625 728.5625 855.40625 C 728.5625 855.40625 769.15054 831.7173 789.375 796.6875 C 809.59946 761.65771 810.40625 751.40712 810.40625 722.21875 L 810.40625 652.09375 L 728.5625 652.09375 L 646.75 652.09375 z M 653.3125 658.65625 L 713.9375 658.65625 L 713.9375 699 L 653.3125 699 L 653.3125 658.65625 z M 743.03125 658.65625 L 803.84375 658.65625 L 803.84375 699 L 743.03125 699 L 743.03125 658.65625 z M 653.34375 730.375 L 713.9375 730.375 L 713.9375 837.3125 C 701.31795 827.60097 684.33692 812.28461 673.4375 793.40625 C 655.4914 762.32271 653.55356 752.9878 653.34375 730.375 z M 743.03125 730.375 L 803.8125 730.375 C 803.59777 752.98478 801.63491 762.32043 783.6875 793.40625 C 772.74259 812.3634 755.66634 827.73269 743.03125 837.4375 L 743.03125 730.375 z "
         inkscape:radius="-1.2626907"
         sodipodi:type="inkscape:offset" />
      <g
         transform="translate(-0.50015,0.50018262)"
         style="opacity:0.25;fill:#000000;stroke:#f2f2f2;filter:url(#filter4272)"
         id="g4268">
        <path
           inkscape:connector-curvature="0"
           style="font-size:30.56684113px;font-style:normal;font-variant:normal;font-weight:normal;font-stretch:normal;text-indent:0;text-align:start;text-decoration:none;line-height:125%;letter-spacing:0.5526576px;word-spacing:0px;text-transform:none;direction:ltr;block-progression:tb;writing-mode:lr-tb;text-anchor:start;baseline-shift:baseline;color:#000000;fill:#000000;fill-opacity:1;stroke:none;stroke-width:1.98635507;marker:none;visibility:visible;display:inline;overflow:visible;enable-background:accumulate;font-family:Zikketica;-inkscape-font-specification:Zikketica"
           d="m 795.0625,702.21875 c -3.02116,2e-5 -5.45442,0.73067 -7.21875,2.21875 -1.70449,1.43762 -2.68751,3.27624 -2.6875,5.34375 -10e-6,1.70587 0.63055,3.26215 1.78125,4.40625 1.07748,1.07138 2.35139,1.84996 3.84375,2.375 1.39068,0.48929 2.79995,0.93435 4.21875,1.3125 1.32511,0.35321 2.42286,0.78729 3.28125,1.3125 0.76811,0.47 0.96874,0.84508 0.96875,1.4375 -10e-6,0.49346 -0.14833,0.83875 -0.78125,1.28125 -0.56659,0.39613 -1.63348,0.68751 -3.15625,0.6875 -1.4192,10e-6 -2.48981,-0.36517 -3.40625,-1.09375 -0.89588,-0.7122 -1.30885,-1.52313 -1.34375,-2.71875 l -0.0312,-0.96875 -0.96875,0 -4.21875,0 -1,0 0,1 0,0.21875 c 0,2.6448 1.04175,4.83655 3,6.21875 1.92659,1.35987 4.46678,2 7.59375,2 2.8005,0 5.29966,-0.62846 7.375,-1.90625 2.11707,-1.30351 3.31248,-3.30971 3.3125,-5.65625 -2e-5,-1.39117 -0.44797,-2.6658 -1.28125,-3.6875 -0.80282,-0.98429 -1.841,-1.70589 -3.03125,-2.1875 -1.08082,-0.43729 -2.22622,-0.85428 -3.46875,-1.25 -1.22911,-0.39142 -2.36851,-0.76161 -3.4375,-1.0625 -0.93903,-0.26429 -1.71406,-0.62956 -2.3125,-1.125 -0.53743,-0.44488 -0.6875,-0.82221 -0.6875,-1.40625 0,-0.68427 0.16849,-1.01548 0.78125,-1.40625 0.67585,-0.43096 1.45947,-0.65623 2.4375,-0.65625 1.25852,2e-5 2.12136,0.3117 2.78125,0.90625 0.63312,0.57047 0.96872,1.36288 0.96875,2.6875 l 0,0.125 0,1 1,0 4.15625,0 1,0 0,-1 0,-0.21875 c -2e-5,-0.0365 -2e-5,-0.0884 0,-0.125 -10e-6,-2.55245 -0.80738,-4.67674 -2.46875,-6.0625 -1.66137,-1.38576 -4.03807,-1.99999 -7,-2 z m -142.15625,0.4375 0.0625,1.0625 c 0.0764,1.14133 0.12499,5.22173 0.125,12.1875 l 0,9.78125 0,1 1,0 15.75,0 0.96875,0 0.0312,-0.96875 0.0625,-2.78125 0.0312,-1.03125 -1.03125,0 -10.90625,0.0625 0.125,-18.3125 0,-1 -1,0 -4.15625,0 -1.0625,0 z m 19.375,0 0.0625,1.0625 c 0.12307,2.05636 0.1875,6.12206 0.1875,12.34375 l 0,9.6875 0,1 1,0 3.90625,0 1,0 0,-1 0,-22.09375 0,-1 -1,0 -4.09375,0 -1.0625,0 z m 17.875,0.0312 -6.78125,0.0312 -1,0 0,1 c 0,0.58186 -0.0101,2.58293 -0.0312,5.9375 -0.0211,3.35571 -0.0312,5.4722 -0.0312,6.40625 l 0,9.6875 0,1 1,0 7.53125,0 c 3.45635,0 6.1383,-0.54637 8.0625,-1.78125 1.9242,-1.23488 2.96874,-3.24971 2.96875,-5.65625 -2e-5,-1.82577 -0.43414,-3.38697 -1.5,-4.46875 -0.45682,-0.4636 -1.01758,-0.80681 -1.59375,-1.09375 0.34749,-0.26672 0.68987,-0.51894 0.96875,-0.875 0.77494,-0.98947 1.18749,-2.16535 1.1875,-3.375 -10e-6,-2.4275 -0.82454,-4.37002 -2.5,-5.40625 -1.67196,-1.03399 -4.20424,-1.40623 -7.78125,-1.40625 l -0.5,0 z m 12.90625,0 0.0625,1.0625 c 0.0772,1.15548 0.15625,5.29307 0.15625,12.21875 l 0,9.78125 0,1 1,0 17.25,0 1,0 0,-1 0,-2.78125 0,-1 -1,0 -12.34375,0.0625 0,-5.1875 10.53125,0 1,0 0,-1 0,-2.5625 0,-1 -1,0 -10.53125,0 0,-4.8125 12.34375,0 1,0 0,-1 0,-2.75 0,-1 -1,0 -17.40625,-0.0312 -1.0625,0 z m 30.46875,0 -6.78125,0.0312 -1,0 0,1 c 0,0.58186 -0.0101,2.58293 -0.0312,5.9375 -0.0211,3.35571 -0.0312,5.4722 -0.0312,6.40625 l 0,9.6875 0,1 1,0 4.0625,0 1,0 0,-1 0,-8.1875 2.65625,-0.0312 0.125,0 c 1.91422,10e-6 3.02394,0.39276 3.3125,0.6875 0.35825,0.36595 0.75586,1.38233 0.875,3.09375 l 0,0.0312 0.125,1.46875 c 8.1e-4,0.0138 -8.1e-4,0.0176 0,0.0312 0.0863,1.46197 0.20505,2.4717 0.5,3.25 l 0.25,0.65625 0.6875,0 4.3125,0 1,0 0,-1 0,-0.28125 0,-0.3125 -0.1875,-0.25 c -0.0408,-0.0614 -0.29397,-0.94955 -0.375,-2.375 l 0,-0.0312 -0.125,-1.46875 c -7.1e-4,-0.0115 7.3e-4,-0.0199 0,-0.0312 -0.13469,-2.12053 -0.53645,-3.76278 -1.3125,-4.96875 -0.39612,-0.61551 -0.93252,-1.1129 -1.53125,-1.53125 0.49152,-0.35035 0.93328,-0.77587 1.3125,-1.28125 0.81924,-1.09179 1.24998,-2.37604 1.25,-3.71875 -2e-5,-2.49194 -0.81576,-4.49898 -2.5625,-5.5 -1.71046,-0.98015 -4.29279,-1.31248 -7.90625,-1.3125 l -0.625,0 z m 11.96875,0 0.0312,1.03125 0.0625,2.78125 0.0312,0.96875 0.96875,0 6.5,0 c 0.0675,2.79583 0.12499,5.61211 0.125,8.5 l 0,9.78125 0,1 1,0 3.4375,0 0.5,0 1,0 0,-1 0,-18.28125 6.71875,0 1,0 0,-1 0,-2.78125 0,-1 -1,0 -19.34375,0 -1.03125,0 z m 25.21875,0 -0.25,0.625 -8.59375,22.0625 -0.5,1.375 1.4375,0 4.6875,0 0.71875,0 0.21875,-0.6875 1.375,-4.0625 7.4375,0 1.375,4.0625 0.21875,0.6875 0.71875,0 4.25,0 1.4375,0 -0.5,-1.34375 -8.34375,-22.0625 -0.25,-0.65625 -0.6875,0 -4.0625,0 -0.6875,0 z m -79.9375,4.71875 0.0312,0 0.46875,0 c 1.53105,10e-6 2.58671,0.27037 3.15625,0.65625 0.56954,0.38588 0.78124,0.82091 0.78125,1.6875 -2e-5,1.1749 -0.28888,1.69308 -0.75,2 -0.43019,0.28635 -1.76251,0.59376 -3.875,0.59375 l -2.21875,0 0,-4.90625 2.40625,-0.0312 z m 43.375,0 0.0312,0 0.46875,0 c 1.75843,2e-5 2.90954,0.29614 3.34375,0.625 0.4544,0.34418 0.71873,0.94088 0.71875,2.09375 -2e-5,1.25945 -0.28624,1.87969 -0.8125,2.25 -0.52064,0.36635 -1.83759,0.6875 -3.8125,0.6875 l -2.34375,0 0,-5.625 2.40625,-0.0312 z m 39.375,3.78125 1.375,3.75 0,0.0312 0.84375,2.46875 -4.375,0 0.59375,-1.71875 1.5625,-4.53125 z m -81.875,5.5625 0.3125,0 c 1.79827,10e-6 2.94463,0.31978 3.375,0.65625 0.4959,0.38774 0.74999,0.91238 0.75,1.9375 -10e-6,1.22224 -0.29595,1.8279 -0.78125,2.15625 -0.47556,0.32177 -1.83568,0.625 -3.90625,0.625 l -3.03125,0 0,-5.34375 3.28125,-0.0312 z"
           id="path4270" />
      </g>
      <g
         id="g4221"
         style="fill:#f2f2f2;stroke:#f2f2f2">
        <path
           id="path4223"
           d="m 795.0625,702.21875 c -3.02116,2e-5 -5.45442,0.73067 -7.21875,2.21875 -1.70449,1.43762 -2.68751,3.27624 -2.6875,5.34375 -10e-6,1.70587 0.63055,3.26215 1.78125,4.40625 1.07748,1.07138 2.35139,1.84996 3.84375,2.375 1.39068,0.48929 2.79995,0.93435 4.21875,1.3125 1.32511,0.35321 2.42286,0.78729 3.28125,1.3125 0.76811,0.47 0.96874,0.84508 0.96875,1.4375 -10e-6,0.49346 -0.14833,0.83875 -0.78125,1.28125 -0.56659,0.39613 -1.63348,0.68751 -3.15625,0.6875 -1.4192,10e-6 -2.48981,-0.36517 -3.40625,-1.09375 -0.89588,-0.7122 -1.30885,-1.52313 -1.34375,-2.71875 l -0.0312,-0.96875 -0.96875,0 -4.21875,0 -1,0 0,1 0,0.21875 c 0,2.6448 1.04175,4.83655 3,6.21875 1.92659,1.35987 4.46678,2 7.59375,2 2.8005,0 5.29966,-0.62846 7.375,-1.90625 2.11707,-1.30351 3.31248,-3.30971 3.3125,-5.65625 -2e-5,-1.39117 -0.44797,-2.6658 -1.28125,-3.6875 -0.80282,-0.98429 -1.841,-1.70589 -3.03125,-2.1875 -1.08082,-0.43729 -2.22622,-0.85428 -3.46875,-1.25 -1.22911,-0.39142 -2.36851,-0.76161 -3.4375,-1.0625 -0.93903,-0.26429 -1.71406,-0.62956 -2.3125,-1.125 -0.53743,-0.44488 -0.6875,-0.82221 -0.6875,-1.40625 0,-0.68427 0.16849,-1.01548 0.78125,-1.40625 0.67585,-0.43096 1.45947,-0.65623 2.4375,-0.65625 1.25852,2e-5 2.12136,0.3117 2.78125,0.90625 0.63312,0.57047 0.96872,1.36288 0.96875,2.6875 l 0,0.125 0,1 1,0 4.15625,0 1,0 0,-1 0,-0.21875 c -2e-5,-0.0365 -2e-5,-0.0884 0,-0.125 -10e-6,-2.55245 -0.80738,-4.67674 -2.46875,-6.0625 -1.66137,-1.38576 -4.03807,-1.99999 -7,-2 z m -142.15625,0.4375 0.0625,1.0625 c 0.0764,1.14133 0.12499,5.22173 0.125,12.1875 l 0,9.78125 0,1 1,0 15.75,0 0.96875,0 0.0312,-0.96875 0.0625,-2.78125 0.0312,-1.03125 -1.03125,0 -10.90625,0.0625 0.125,-18.3125 0,-1 -1,0 -4.15625,0 -1.0625,0 z m 19.375,0 0.0625,1.0625 c 0.12307,2.05636 0.1875,6.12206 0.1875,12.34375 l 0,9.6875 0,1 1,0 3.90625,0 1,0 0,-1 0,-22.09375 0,-1 -1,0 -4.09375,0 -1.0625,0 z m 17.875,0.0312 -6.78125,0.0312 -1,0 0,1 c 0,0.58186 -0.0101,2.58293 -0.0312,5.9375 -0.0211,3.35571 -0.0312,5.4722 -0.0312,6.40625 l 0,9.6875 0,1 1,0 7.53125,0 c 3.45635,0 6.1383,-0.54637 8.0625,-1.78125 1.9242,-1.23488 2.96874,-3.24971 2.96875,-5.65625 -2e-5,-1.82577 -0.43414,-3.38697 -1.5,-4.46875 -0.45682,-0.4636 -1.01758,-0.80681 -1.59375,-1.09375 0.34749,-0.26672 0.68987,-0.51894 0.96875,-0.875 0.77494,-0.98947 1.18749,-2.16535 1.1875,-3.375 -10e-6,-2.4275 -0.82454,-4.37002 -2.5,-5.40625 -1.67196,-1.03399 -4.20424,-1.40623 -7.78125,-1.40625 l -0.5,0 z m 12.90625,0 0.0625,1.0625 c 0.0772,1.15548 0.15625,5.29307 0.15625,12.21875 l 0,9.78125 0,1 1,0 17.25,0 1,0 0,-1 0,-2.78125 0,-1 -1,0 -12.34375,0.0625 0,-5.1875 10.53125,0 1,0 0,-1 0,-2.5625 0,-1 -1,0 -10.53125,0 0,-4.8125 12.34375,0 1,0 0,-1 0,-2.75 0,-1 -1,0 -17.40625,-0.0312 -1.0625,0 z m 30.46875,0 -6.78125,0.0312 -1,0 0,1 c 0,0.58186 -0.0101,2.58293 -0.0312,5.9375 -0.0211,3.35571 -0.0312,5.4722 -0.0312,6.40625 l 0,9.6875 0,1 1,0 4.0625,0 1,0 0,-1 0,-8.1875 2.65625,-0.0312 0.125,0 c 1.91422,10e-6 3.02394,0.39276 3.3125,0.6875 0.35825,0.36595 0.75586,1.38233 0.875,3.09375 l 0,0.0312 0.125,1.46875 c 8.1e-4,0.0138 -8.1e-4,0.0176 0,0.0312 0.0863,1.46197 0.20505,2.4717 0.5,3.25 l 0.25,0.65625 0.6875,0 4.3125,0 1,0 0,-1 0,-0.28125 0,-0.3125 -0.1875,-0.25 c -0.0408,-0.0614 -0.29397,-0.94955 -0.375,-2.375 l 0,-0.0312 -0.125,-1.46875 c -7.1e-4,-0.0115 7.3e-4,-0.0199 0,-0.0312 -0.13469,-2.12053 -0.53645,-3.76278 -1.3125,-4.96875 -0.39612,-0.61551 -0.93252,-1.1129 -1.53125,-1.53125 0.49152,-0.35035 0.93328,-0.77587 1.3125,-1.28125 0.81924,-1.09179 1.24998,-2.37604 1.25,-3.71875 -2e-5,-2.49194 -0.81576,-4.49898 -2.5625,-5.5 -1.71046,-0.98015 -4.29279,-1.31248 -7.90625,-1.3125 l -0.625,0 z m 11.96875,0 0.0312,1.03125 0.0625,2.78125 0.0312,0.96875 0.96875,0 6.5,0 c 0.0675,2.79583 0.12499,5.61211 0.125,8.5 l 0,9.78125 0,1 1,0 3.4375,0 0.5,0 1,0 0,-1 0,-18.28125 6.71875,0 1,0 0,-1 0,-2.78125 0,-1 -1,0 -19.34375,0 -1.03125,0 z m 25.21875,0 -0.25,0.625 -8.59375,22.0625 -0.5,1.375 1.4375,0 4.6875,0 0.71875,0 0.21875,-0.6875 1.375,-4.0625 7.4375,0 1.375,4.0625 0.21875,0.6875 0.71875,0 4.25,0 1.4375,0 -0.5,-1.34375 -8.34375,-22.0625 -0.25,-0.65625 -0.6875,0 -4.0625,0 -0.6875,0 z m -79.9375,4.71875 0.0312,0 0.46875,0 c 1.53105,10e-6 2.58671,0.27037 3.15625,0.65625 0.56954,0.38588 0.78124,0.82091 0.78125,1.6875 -2e-5,1.1749 -0.28888,1.69308 -0.75,2 -0.43019,0.28635 -1.76251,0.59376 -3.875,0.59375 l -2.21875,0 0,-4.90625 2.40625,-0.0312 z m 43.375,0 0.0312,0 0.46875,0 c 1.75843,2e-5 2.90954,0.29614 3.34375,0.625 0.4544,0.34418 0.71873,0.94088 0.71875,2.09375 -2e-5,1.25945 -0.28624,1.87969 -0.8125,2.25 -0.52064,0.36635 -1.83759,0.6875 -3.8125,0.6875 l -2.34375,0 0,-5.625 2.40625,-0.0312 z m 39.375,3.78125 1.375,3.75 0,0.0312 0.84375,2.46875 -4.375,0 0.59375,-1.71875 1.5625,-4.53125 z m -81.875,5.5625 0.3125,0 c 1.79827,10e-6 2.94463,0.31978 3.375,0.65625 0.4959,0.38774 0.74999,0.91238 0.75,1.9375 -10e-6,1.22224 -0.29595,1.8279 -0.78125,2.15625 -0.47556,0.32177 -1.83568,0.625 -3.90625,0.625 l -3.03125,0 0,-5.34375 3.28125,-0.0312 z"
           style="font-size:30.56684113px;font-style:normal;font-variant:normal;font-weight:normal;font-stretch:normal;text-indent:0;text-align:start;text-decoration:none;line-height:125%;letter-spacing:0.5526576px;word-spacing:0px;text-transform:none;direction:ltr;block-progression:tb;writing-mode:lr-tb;text-anchor:start;baseline-shift:baseline;color:#000000;fill:#f2f2f2;fill-opacity:1;stroke:none;stroke-width:1.98635507;marker:none;visibility:visible;display:inline;overflow:visible;enable-background:accumulate;font-family:Zikketica;-inkscape-font-specification:Zikketica"
           inkscape:connector-curvature="0" />
      </g>
    </g>
    <g
       id="g4243"
       style="fill:#f238f2;fill-opacity:1;stroke:none" />
    <g
       id="g3869"
       style="font-size:71.64505005px;font-style:normal;font-variant:normal;font-weight:bold;font-stretch:normal;line-height:125%;letter-spacing:0px;word-spacing:0px;fill:#000000;fill-opacity:1;stroke:none;font-family:Aharoni;-inkscape-font-specification:Aharoni Bold"
       transform="matrix(-0.84778561,-0.07885586,0.09132919,-1.1710486,3063.5298,1857.935)" />
  </g>
</svg>
