<?xml version="1.0" encoding="UTF-8" standalone="no"?>
<!-- Created with Inkscape (http://www.inkscape.org/) -->

<svg
   width="105mm"
   height="105mm"
   viewBox="0 0 105 105"
   version="1.1"
   id="svg6077"
   xmlns:xlink="http://www.w3.org/1999/xlink"
   xmlns="http://www.w3.org/2000/svg"
   xmlns:svg="http://www.w3.org/2000/svg">
  <defs
     id="defs6074" />
  <g
     id="layer1">
    <rect
       style="fill:#003278"
       id="rect5528"
       width="105"
       height="105" />
    <rect
       style="fill:#ffffff"
       id="rect5632"
       width="60"
       height="60"
       x="22.5"
       y="22.5" />
    <path
       id="path19621"
       style="fill:#003278;stroke-width:0"
       d="m 46.577646,45.142309 v 8.793262 c 0,3.270857 2.651262,5.92212 5.922119,5.92212 3.270856,0 5.922636,-2.651263 5.922636,-5.92212 v -8.793262 z m 2.79156,1.982825 a 1.2174201,1.2174201 0 0 1 1.217497,1.217496 1.2174201,1.2174201 0 0 1 -1.217497,1.217497 1.2174201,1.2174201 0 0 1 -1.216979,-1.217497 1.2174201,1.2174201 0 0 1 1.216979,-1.217496 z m 6.261117,0 a 1.2174201,1.2174201 0 0 1 1.217497,1.217496 1.2174201,1.2174201 0 0 1 -1.217497,1.217497 1.2174201,1.2174201 0 0 1 -1.217497,-1.217497 1.2174201,1.2174201 0 0 1 1.217497,-1.217496 z m -3.130558,3.130559 a 1.2174201,1.2174201 0 0 1 1.217496,1.217497 1.2174201,1.2174201 0 0 1 -1.217496,1.217496 1.2174201,1.2174201 0 0 1 -1.217497,-1.217496 1.2174201,1.2174201 0 0 1 1.217497,-1.217497 z m -3.130559,3.130558 a 1.2174201,1.2174201 0 0 1 1.217497,1.217496 1.2174201,1.2174201 0 0 1 -1.217497,1.217497 1.2174201,1.2174201 0 0 1 -1.216979,-1.217497 1.2174201,1.2174201 0 0 1 1.216979,-1.217496 z m 6.261117,0 a 1.2174201,1.2174201 0 0 1 1.217497,1.217496 1.2174201,1.2174201 0 0 1 -1.217497,1.217497 1.2174201,1.2174201 0 0 1 -1.217497,-1.217497 1.2174201,1.2174201 0 0 1 1.217497,-1.217496 z" />
    <use
       x="0"
       y="0"
       xlink:href="#path19621"
       id="use211"
       transform="translate(17.96087)" />
    <use
       x="0"
       y="0"
       xlink:href="#path19621"
       id="use213"
       transform="translate(-17.96131,8.0052992e-4)" />
    <use
       x="0"
       y="0"
       xlink:href="#path19621"
       id="use215"
       transform="translate(-2.35e-5,-18.678845)" />
    <use
       x="0"
       y="0"
       xlink:href="#path19621"
       id="use217"
       transform="translate(-2.35e-5,18.678846)" />
  </g>
</svg>
